<svg id="check-list" xmlns="http://www.w3.org/2000/svg" width="50" height="50" viewBox="0 0 50 50">
  <path id="Trazado_5156" data-name="Trazado 5156" d="M25,50A25,25,0,0,0,49.01,18.03a2.083,2.083,0,1,0-4,1.17,20.806,20.806,0,1,1-8.4-11.5,2.083,2.083,0,0,0,2.33-3.455A25,25,0,1,0,25,50Zm0,0" fill="#28a745"/>
  <path id="Trazado_5157" data-name="Trazado 5157" d="M143.863,32.613,122.419,54.056l-6.86-6.859a2.083,2.083,0,1,0-2.946,2.946l8.333,8.333a2.083,2.083,0,0,0,2.946,0l22.917-22.917a2.083,2.083,0,1,0-2.946-2.946Zm0,0" transform="translate(-97.419 -27.836)" fill="#28a745"/>
</svg>
