<svg xmlns="http://www.w3.org/2000/svg" width="24" height="24" viewBox="0 0 24 24">
  <g id="city" transform="translate(4 -1)">
    <rect id="Rectángulo_923" data-name="Rectángulo 923" width="24" height="24" transform="translate(-4 1)" fill="none"/>
    <g id="Grupo_1873" data-name="Grupo 1873" transform="translate(-3 2)">
      <path id="Trazado_1073" data-name="Trazado 1073" d="M21.95,21.287h-.662V8.656a.662.662,0,0,0-.662-.662H17.268V6.006a.662.662,0,0,0-.662-.662h-.662V3.356a.662.662,0,0,0-.662-.662H13.293V.662a.662.662,0,1,0-1.325,0V2.694H9.981a.662.662,0,0,0-.662.662V5.344H8.656a.662.662,0,0,0-.662.662V7.994H6.669V6.006a.662.662,0,0,0-1.325,0V7.994H3.356a.662.662,0,0,0-.662.662v1.987H1.987a.662.662,0,0,0-.662.662v9.981H.662a.662.662,0,0,0,0,1.325H21.95a.662.662,0,0,0,0-1.325ZM19.962,9.319v1.325H19.3a.662.662,0,1,0,0,1.325h.662v1.325H19.3a.662.662,0,1,0,0,1.325h.662v1.325H19.3a.662.662,0,1,0,0,1.325h.662v1.325H19.3a.662.662,0,1,0,0,1.325h.662v1.369H17.268V9.319Zm-9.319-5.3h3.975V5.344H10.644ZM9.319,6.669h6.625V21.287H14.618V19.256a.662.662,0,0,0-.662-.662h-2.65a.662.662,0,0,0-.662.662v2.032H9.319Zm3.975,14.618H11.968V19.918h1.325ZM4.019,9.319H7.994v1.325H4.019ZM2.65,11.968H7.994v9.319H2.65Zm0,0" fill="#f83f00"/>
      <path id="Trazado_1074" data-name="Trazado 1074" d="M302.325,361.662a.662.662,0,1,1-.662-.662A.662.662,0,0,1,302.325,361.662Zm0,0" transform="translate(-287.707 -345.057)" fill="#f83f00"/>
      <path id="Trazado_1075" data-name="Trazado 1075" d="M242.325,361.662a.662.662,0,1,1-.662-.662A.662.662,0,0,1,242.325,361.662Zm0,0" transform="translate(-230.356 -345.057)" fill="#f83f00"/>
      <path id="Trazado_1076" data-name="Trazado 1076" d="M302.325,301.662a.662.662,0,1,1-.662-.662A.662.662,0,0,1,302.325,301.662Zm0,0" transform="translate(-287.707 -287.707)" fill="#f83f00"/>
      <path id="Trazado_1077" data-name="Trazado 1077" d="M242.325,301.662a.662.662,0,1,1-.662-.662A.662.662,0,0,1,242.325,301.662Zm0,0" transform="translate(-230.356 -287.707)" fill="#f83f00"/>
      <path id="Trazado_1078" data-name="Trazado 1078" d="M302.325,241.662a.662.662,0,1,1-.662-.662A.662.662,0,0,1,302.325,241.662Zm0,0" transform="translate(-287.707 -230.356)" fill="#f83f00"/>
      <path id="Trazado_1079" data-name="Trazado 1079" d="M242.325,241.662a.662.662,0,1,1-.662-.662A.662.662,0,0,1,242.325,241.662Zm0,0" transform="translate(-230.356 -230.356)" fill="#f83f00"/>
      <path id="Trazado_1080" data-name="Trazado 1080" d="M302.325,181.662a.662.662,0,1,1-.662-.662A.662.662,0,0,1,302.325,181.662Zm0,0" transform="translate(-287.707 -173.006)" fill="#f83f00"/>
      <path id="Trazado_1081" data-name="Trazado 1081" d="M242.325,181.662a.662.662,0,1,1-.662-.662A.662.662,0,0,1,242.325,181.662Zm0,0" transform="translate(-230.356 -173.006)" fill="#f83f00"/>
      <path id="Trazado_1082" data-name="Trazado 1082" d="M91.662,302.325h1.325a.662.662,0,1,0,0-1.325H91.662a.662.662,0,1,0,0,1.325Zm0,0" transform="translate(-86.981 -287.707)" fill="#f83f00"/>
      <path id="Trazado_1083" data-name="Trazado 1083" d="M92.987,361H91.662a.662.662,0,1,0,0,1.325h1.325a.662.662,0,1,0,0-1.325Zm0,0" transform="translate(-86.981 -345.057)" fill="#f83f00"/>
      <path id="Trazado_1084" data-name="Trazado 1084" d="M92.987,421H91.662a.662.662,0,0,0,0,1.325h1.325a.662.662,0,0,0,0-1.325Zm0,0" transform="translate(-86.981 -402.407)" fill="#f83f00"/>
    </g>
  </g>
</svg>
