<svg xmlns="http://www.w3.org/2000/svg" width="276" height="160" viewBox="0 0 276 160">
  <g id="collaboration-pana" transform="translate(42.12 -32.41)">
    <rect id="Rectángulo_921" data-name="Rectángulo 921" width="276" height="160" transform="translate(-42.12 32.41)" fill="#fff"/>
    <g id="Grupo_1872" data-name="Grupo 1872" transform="translate(0 -15)">
      <g id="freepik--background-complete--inject-352" transform="translate(30.827 62.41)">
        <rect id="Rectángulo_506" data-name="Rectángulo 506" width="36.311" height="63.527" transform="translate(3.368 2.417)" fill="#fafafa"/>
        <path id="Trazado_3044" data-name="Trazado 3044" d="M69.771,132.46s-3.985-28.582-6.059-31.721c0,0,11.893-8.934,12.259-33.139H57.92v64.86Z" transform="translate(-55.094 -65.905)" fill="#ebebeb"/>
        <path id="Trazado_3045" data-name="Trazado 3045" d="M123.317,132.07s3.979-28.582,6.063-31.721c0,0-11.9-8.931-12.259-33.139h18.051v64.86Z" transform="translate(-94.957 -65.642)" fill="#ebebeb"/>
        <path id="Trazado_3046" data-name="Trazado 3046" d="M89.9,62.41H49.27v68.045H91.584V62.41ZM59.935,97.763v16.179h-7.3V97.763Zm-7.3-1.173V79.843h7.3V96.591Zm18.407,0V79.843h9.127V96.591Zm9.127,1.173v16.179H71.045V97.763ZM60.245,96.591V79.843h9.617V96.591Zm9.617,1.173v16.179h-9.6V97.763Zm-9.6-18.208V64.827h9.617V79.556Zm9.617,34.677v14.128H60.259V114.233Zm1.169,0h9.127v14.128H71.045Zm0-34.677V64.827h9.127V79.556ZM80.5,97.763H88.22v16.179H80.5Zm0-1.173V79.843H88.22V96.591ZM88.22,79.556H80.5V64.827H88.22ZM59.935,64.827V79.556h-7.3V64.827Zm-7.3,49.406h7.3v14.128h-7.3ZM80.5,128.361V114.233H88.22v14.128Z" transform="translate(-49.27 -62.41)" fill="#e0e0e0"/>
        <rect id="Rectángulo_507" data-name="Rectángulo 507" width="36.311" height="63.527" transform="translate(95.392 2.417)" fill="#fafafa"/>
        <path id="Trazado_3047" data-name="Trazado 3047" d="M351.494,132.46s-3.979-28.582-6.063-31.721c0,0,11.9-8.934,12.259-33.139H339.64v64.86Z" transform="translate(-244.79 -65.905)" fill="#ebebeb"/>
        <path id="Trazado_3048" data-name="Trazado 3048" d="M405.04,132.07s3.975-28.582,6.059-31.721c0,0-11.893-8.931-12.259-33.139h18.051v64.86Z" transform="translate(-284.653 -65.642)" fill="#ebebeb"/>
        <path id="Trazado_3049" data-name="Trazado 3049" d="M371.632,62.41H331v68.045h42.314V62.41ZM341.665,97.763v16.179h-7.3V97.763Zm-7.3-1.173V79.843h7.3V96.591Zm18.407,0V79.843h9.146V96.591Zm9.146,1.173v16.179h-9.146V97.763Zm-19.926-1.173V79.843h9.613V96.591Zm9.613,1.173v16.179h-9.617V97.763Zm-9.617-18.208V64.827H351.6V79.556Zm9.613,34.677v14.128h-9.613V114.233Zm1.169,0h9.146v14.128h-9.146Zm0-34.677V64.827h9.146V79.556Zm9.453,18.208h7.722v16.179h-7.722Zm0-1.173V79.843h7.722V96.591Zm7.722-17.035h-7.722V64.827h7.722ZM341.665,64.827V79.556h-7.3V64.827Zm-7.3,49.406h7.3v14.128h-7.3Zm27.86,14.128V114.233h7.722v14.128Z" transform="translate(-238.972 -62.41)" fill="#e0e0e0"/>
        <rect id="Rectángulo_508" data-name="Rectángulo 508" width="8.829" height="11.145" transform="translate(52.13 17.75)" fill="#ebebeb"/>
        <rect id="Rectángulo_509" data-name="Rectángulo 509" width="1.225" height="0.297" transform="translate(55.988 28.644)" fill="#e0e0e0"/>
        <path id="Trazado_3050" data-name="Trazado 3050" d="M218.641,128.49l-1.627.238-.6,1.529,1.019,1.287,1.623-.238.608-1.525Z" transform="translate(-161.814 -106.905)" fill="#e0e0e0"/>
        <path id="Trazado_3051" data-name="Trazado 3051" d="M220.964,131.51l-1.627.238-.608,1.529,1.019,1.287,1.627-.235.608-1.529Z" transform="translate(-163.376 -108.938)" fill="#fafafa"/>
        <rect id="Rectángulo_510" data-name="Rectángulo 510" width="1.225" height="0.255" transform="translate(56.161 17.597)" fill="#e0e0e0"/>
        <rect id="Rectángulo_511" data-name="Rectángulo 511" width="14.742" height="18.609" transform="translate(67.643 2.871)" fill="#ebebeb"/>
        <rect id="Rectángulo_512" data-name="Rectángulo 512" width="2.045" height="0.497" transform="translate(74.085 21.066)" fill="#e0e0e0"/>
        <path id="Trazado_3052" data-name="Trazado 3052" d="M272.67,90.82l-2.718.4-1.013,2.551,1.7,2.153,2.714-.4,1.013-2.551Z" transform="translate(-197.185 -81.54)" fill="#e0e0e0"/>
        <path id="Trazado_3053" data-name="Trazado 3053" d="M276.55,95.86l-2.714.4L272.82,98.81l1.705,2.153,2.714-.4,1.013-2.548Z" transform="translate(-199.797 -84.934)" fill="#fafafa"/>
        <rect id="Rectángulo_513" data-name="Rectángulo 513" width="2.045" height="0.425" transform="translate(74.372 2.62)" fill="#e0e0e0"/>
        <path id="Trazado_3054" data-name="Trazado 3054" d="M216.8,308.738c-2,.327-2.891,2.777-2.718,4.8s1.006,3.988.784,6c-.284,2.558-2.215,4.717-2.44,7.278-.265,3.022,1.872,5.7,2.509,8.666a27.87,27.87,0,0,0,.8,4.341,5.429,5.429,0,0,0,10.486-1.872c.042-2.319-1.388-4.5-1.215-6.817.127-1.712,1.13-3.332.918-5.034-.258-2.022-2.133-3.459-2.793-5.39s-.026-4.057-.255-6.086c-.412-3.639-2.427-6.177-6.079-5.88" transform="translate(-159.114 -228.261)" fill="#f5f5f5"/>
        <path id="Trazado_3055" data-name="Trazado 3055" d="M194.516,362.71c-.327,3.371,1.15,7.337,2.884,10.247a16.078,16.078,0,0,0,7.549,6.549.83.83,0,0,0,1.362-.833,16.555,16.555,0,0,0-11.8-15.963" transform="translate(-147.041 -264.617)" fill="#ebebeb"/>
        <path id="Trazado_3056" data-name="Trazado 3056" d="M218.164,399.087a.858.858,0,0,1-.1-.186c-.062-.147-.14-.327-.238-.552-.2-.483-.506-1.176-.892-2.025a70.306,70.306,0,0,0-7.35-12.579c-.552-.751-1.009-1.356-1.329-1.77l-.363-.48a.76.76,0,0,1-.114-.173,1.278,1.278,0,0,1,.144.15l.392.457c.327.4.81.98,1.378,1.738a60.779,60.779,0,0,1,7.366,12.612c.369.859.653,1.561.836,2.051.085.229.154.418.206.565a.908.908,0,0,1,.062.193Z" transform="translate(-156.003 -277.148)" fill="#e0e0e0"/>
        <path id="Trazado_3057" data-name="Trazado 3057" d="M232.884,337.33a2.142,2.142,0,0,1,.039.327c.016.229.039.539.065.928.052.826.127,1.986.222,3.417.18,2.884.438,6.86.745,11.266s.614,8.382.839,11.263c.108,1.427.2,2.59.261,3.414.026.389.046.7.062.928a2.055,2.055,0,0,1,0,.327,2.19,2.19,0,0,1-.049-.327c-.023-.225-.056-.536-.1-.924-.078-.823-.186-1.983-.327-3.407-.258-2.881-.585-6.86-.9-11.263s-.546-8.385-.693-11.273c-.065-1.431-.121-2.594-.16-3.42,0-.389-.023-.7-.029-.928A2.058,2.058,0,0,1,232.884,337.33Z" transform="translate(-172.895 -247.527)" fill="#e0e0e0"/>
        <path id="Trazado_3058" data-name="Trazado 3058" d="M223.43,421h8.444v6.206a4.054,4.054,0,0,1-4.054,4.054h0a4.054,4.054,0,0,1-4.047-3.837Z" transform="translate(-166.54 -303.866)" fill="#e0e0e0"/>
      </g>
      <g id="freepik--Floor--inject-352" transform="translate(21.88 189.824)">
        <path id="Trazado_3059" data-name="Trazado 3059" d="M169.526,452.555c0,.046-33.054.085-73.823.085s-73.823-.039-73.823-.085,33.047-.085,73.823-.085S169.526,452.509,169.526,452.555Z" transform="translate(-21.88 -452.47)" fill="#263238"/>
      </g>
      <g id="freepik--character-2--inject-352" transform="translate(95.867 90.612)">
        <path id="Trazado_3060" data-name="Trazado 3060" d="M323.986,224.661l-1.307-.271c-1.166-.35-1.826-.5-2.1-.882-.359-.513.327-.807.327-.807s-.8-.467-.617-.98a.526.526,0,0,1,.539-.307s-.7-.448-.787-.794c-.121-.47.461-.594.461-.594-.908-.843-.689-1.457-.438-1.47s.98.513.98.513c.653.327,2.391,1.264,1.9.1a3.248,3.248,0,0,1-.206-2.518.4.4,0,0,1,.676.327,4.675,4.675,0,0,0,.258,1.245,3.014,3.014,0,0,0,.467.9,9.927,9.927,0,0,0,.653.794l.944,1.352Z" transform="translate(-296.502 -194.389)" fill="#ffbe9d"/>
        <path id="Trazado_3061" data-name="Trazado 3061" d="M309.921,443.841l1.124-2.371,4.456,2.078-1.607,3.485-.284-.111c-1.261-.506-6.376-2.656-7.082-3.289C305.739,442.927,309.921,443.841,309.921,443.841Z" transform="translate(-287.466 -345.852)" fill="#f83f00"/>
        <g id="Grupo_660" data-name="Grupo 660" transform="translate(24.826 99.659)" opacity="0.3">
          <path id="Trazado_3062" data-name="Trazado 3062" d="M324.38,454.573a1.708,1.708,0,0,1,1.013-.683,1.633,1.633,0,0,1,1.192.16L326,455.3Z" transform="translate(-324.38 -453.842)" fill="#fff"/>
        </g>
        <g id="Grupo_661" data-name="Grupo 661" transform="translate(18.937 97.519)" opacity="0.3">
          <path id="Trazado_3063" data-name="Trazado 3063" d="M307.8,447.378s-1.5-.235-1.441.062,5.151,2.662,7.487,3.511l.039-.1-5.958-2.711S308.051,447.522,307.8,447.378Z" transform="translate(-306.354 -447.29)" fill="#fff"/>
        </g>
        <path id="Trazado_3064" data-name="Trazado 3064" d="M314.022,451.031l-.078-.026-.225-.088-.826-.343c-.7-.294-1.653-.712-2.695-1.2s-1.983-.944-2.656-1.287l-.794-.412-.212-.114-.075-.043a.3.3,0,0,1,.078.033l.219.1.8.4c.676.327,1.617.784,2.659,1.271s2,.908,2.688,1.212l.817.359.222.1Z" transform="translate(-287.488 -349.926)" fill="#263238"/>
        <path id="Trazado_3065" data-name="Trazado 3065" d="M310.855,448.245a2.116,2.116,0,0,0,.026-.454,2.052,2.052,0,0,0-.131-.441.807.807,0,0,1,.1.9Z" transform="translate(-290.377 -349.811)" fill="#263238"/>
        <path id="Trazado_3066" data-name="Trazado 3066" d="M315.842,448.94a.565.565,0,0,1-.062-.238.507.507,0,0,1,0-.242.98.98,0,0,1,.059.235A.5.5,0,0,1,315.842,448.94Z" transform="translate(-293.754 -350.559)" fill="#263238"/>
        <path id="Trazado_3067" data-name="Trazado 3067" d="M317.073,449.078a.436.436,0,0,1-.111-.18c-.046-.1-.069-.193-.052-.2s.065.072.108.176A.411.411,0,0,1,317.073,449.078Z" transform="translate(-294.521 -350.72)" fill="#263238"/>
        <path id="Trazado_3068" data-name="Trazado 3068" d="M317.747,448.451c0,.016-.114-.02-.245-.078a.616.616,0,0,1-.222-.131c0-.016.118.02.245.078A.617.617,0,0,1,317.747,448.451Z" transform="translate(-294.774 -350.409)" fill="#263238"/>
        <path id="Trazado_3069" data-name="Trazado 3069" d="M318.256,447.676a.507.507,0,0,1-.3-.046.5.5,0,0,1-.248-.16,1.522,1.522,0,0,1,.271.1A1.715,1.715,0,0,1,318.256,447.676Z" transform="translate(-295.063 -349.892)" fill="#263238"/>
        <path id="Trazado_3070" data-name="Trazado 3070" d="M314.632,447.052a.934.934,0,0,1-.284-.134,1.747,1.747,0,0,1-.274-.209.93.93,0,0,1-.137-.153.17.17,0,0,1-.029-.121.118.118,0,0,1,.095-.095.588.588,0,0,1,.585.689.206.206,0,0,1-.029.082.982.982,0,0,0-.016-.307.588.588,0,0,0-.17-.271.49.49,0,0,0-.353-.137c-.062,0-.069.075-.033.131a.9.9,0,0,0,.131.144,2.256,2.256,0,0,0,.258.212C314.527,446.993,314.635,447.042,314.632,447.052Z" transform="translate(-292.501 -349.131)" fill="#263238"/>
        <path id="Trazado_3071" data-name="Trazado 3071" d="M315.878,447.542a.327.327,0,0,1,.062-.216.545.545,0,0,1,.173-.173.326.326,0,0,1,.307-.033.127.127,0,0,1,.026.173.325.325,0,0,1-.108.1.9.9,0,0,1-.216.111.461.461,0,0,1-.219.039s.082-.026.2-.078a.93.93,0,0,0,.2-.118c.069-.042.147-.137.082-.183s-.176,0-.245.033a.549.549,0,0,0-.17.147A1.839,1.839,0,0,0,315.878,447.542Z" transform="translate(-293.829 -349.64)" fill="#263238"/>
        <path id="Trazado_3072" data-name="Trazado 3072" d="M326.619,453.836a1.833,1.833,0,0,0-.327-.14,1.588,1.588,0,0,0-.856-.039,1.634,1.634,0,0,0-.745.425c-.157.16-.222.284-.232.281a.255.255,0,0,1,.042-.091,1.186,1.186,0,0,1,.16-.219,1.525,1.525,0,0,1,.761-.454,1.506,1.506,0,0,1,.882.059,1.289,1.289,0,0,1,.242.118C326.6,453.81,326.622,453.833,326.619,453.836Z" transform="translate(-299.608 -353.991)" fill="#263238"/>
        <path id="Trazado_3073" data-name="Trazado 3073" d="M330.59,448.08a7.985,7.985,0,0,1-.385.931,8.8,8.8,0,0,1-.444.911,9.1,9.1,0,0,1,.389-.934,8.946,8.946,0,0,1,.441-.908Z" transform="translate(-303.177 -350.303)" fill="#263238"/>
        <path id="Trazado_3074" data-name="Trazado 3074" d="M320.587,452.772a3.03,3.03,0,0,1-.679-.238,2.966,2.966,0,0,1-.627-.356c0-.016.291.137.653.3A4.85,4.85,0,0,1,320.587,452.772Z" transform="translate(-296.12 -353.061)" fill="#263238"/>
        <path id="Trazado_3075" data-name="Trazado 3075" d="M325.513,455.186s-.052.049-.114.1-.1.1-.118.1,0-.082.078-.144S325.513,455.169,325.513,455.186Z" transform="translate(-300.158 -355.083)" fill="#263238"/>
        <path id="Trazado_3076" data-name="Trazado 3076" d="M327.044,454.395a.347.347,0,0,1-.111.075c-.065.026-.127.033-.134.016s.046-.049.111-.072S327.037,454.379,327.044,454.395Z" transform="translate(-301.183 -354.55)" fill="#263238"/>
        <path id="Trazado_3077" data-name="Trazado 3077" d="M328.66,454.36a1.119,1.119,0,0,0-.147-.023.912.912,0,0,0-.144,0,.182.182,0,0,1,.15-.049C328.611,454.3,328.67,454.347,328.66,454.36Z" transform="translate(-302.24 -354.482)" fill="#263238"/>
        <path id="Trazado_3078" data-name="Trazado 3078" d="M330.086,454.645a.136.136,0,0,1-.082.023c-.046,0-.078-.02-.075-.036s.036-.026.082-.023S330.086,454.628,330.086,454.645Z" transform="translate(-303.291 -354.699)" fill="#263238"/>
        <path id="Trazado_3079" data-name="Trazado 3079" d="M426.968,443.475l-1.111-2.378L430.3,439l1.663,3.459-.268.15c-1.192.653-6.108,3.217-7.046,3.358C423.6,446.114,426.968,443.475,426.968,443.475Z" transform="translate(-366.932 -344.189)" fill="#f83f00"/>
        <g id="Grupo_662" data-name="Grupo 662" transform="translate(63.337 96.961)" opacity="0.3">
          <path id="Trazado_3080" data-name="Trazado 3080" d="M442.34,447.609a1.686,1.686,0,0,1,.118-1.215,1.653,1.653,0,0,1,.882-.813l.591,1.238Z" transform="translate(-442.277 -445.58)" fill="#fff"/>
        </g>
        <g id="Grupo_663" data-name="Grupo 663" transform="translate(57.509 98.166)" opacity="0.3">
          <path id="Trazado_3081" data-name="Trazado 3081" d="M425.348,451.746s-1.14,1.009-.872,1.15,5.334-2.287,7.477-3.531l-.056-.095-5.88,2.861S425.6,451.635,425.348,451.746Z" transform="translate(-424.435 -449.27)" fill="#fff"/>
        </g>
        <path id="Trazado_3082" data-name="Trazado 3082" d="M431.976,449.16l-.072.042-.212.118-.79.418c-.67.35-1.6.82-2.643,1.307s-1.989.921-2.682,1.222l-.823.353-.225.091-.078.026.075-.039.219-.1.817-.366c.686-.31,1.633-.745,2.675-1.241s1.96-.957,2.646-1.307l.8-.4.219-.108A.352.352,0,0,1,431.976,449.16Z" transform="translate(-366.936 -351.03)" fill="#263238"/>
        <path id="Trazado_3083" data-name="Trazado 3083" d="M427.828,457.2a2.094,2.094,0,0,0-.327-.327,2.118,2.118,0,0,0-.421-.18.81.81,0,0,1,.758.493Z" transform="translate(-368.707 -356.1)" fill="#263238"/>
        <path id="Trazado_3084" data-name="Trazado 3084" d="M431.56,453.763a1.025,1.025,0,0,1-.222-.1c-.114-.072-.2-.14-.19-.153s.108.033.222.1S431.567,453.75,431.56,453.763Z" transform="translate(-371.446 -353.955)" fill="#263238"/>
        <path id="Trazado_3085" data-name="Trazado 3085" d="M432.415,452.944c0,.016-.1,0-.206-.029s-.193-.072-.189-.088a.432.432,0,0,1,.206.033C432.34,452.882,432.418,452.928,432.415,452.944Z" transform="translate(-372.034 -353.498)" fill="#263238"/>
        <path id="Trazado_3086" data-name="Trazado 3086" d="M432.364,451.572a.645.645,0,0,1-.219.14c-.127.062-.235.1-.245.085a.618.618,0,0,1,.219-.14C432.259,451.6,432.354,451.556,432.364,451.572Z" transform="translate(-371.953 -352.652)" fill="#263238"/>
        <path id="Trazado_3087" data-name="Trazado 3087" d="M432.076,450.56a.669.669,0,0,1-.222.2.536.536,0,0,1-.284.091Q431.825,450.709,432.076,450.56Z" transform="translate(-371.731 -351.973)" fill="#263238"/>
        <path id="Trazado_3088" data-name="Trazado 3088" d="M429.421,452.926a.852.852,0,0,1-.284.134,1.7,1.7,0,0,1-.327.078.868.868,0,0,1-.209,0,.157.157,0,0,1-.111-.056.124.124,0,0,1,0-.134.581.581,0,0,1,.722-.154.6.6,0,0,1,.183.147.193.193,0,0,1,.042.072.894.894,0,0,0-.245-.18.549.549,0,0,0-.327-.042.483.483,0,0,0-.327.183c-.029.055,0,.1.078.108a.951.951,0,0,0,.193,0,1.978,1.978,0,0,0,.327-.062C429.3,452.969,429.417,452.92,429.421,452.926Z" transform="translate(-369.643 -353.434)" fill="#263238"/>
        <path id="Trazado_3089" data-name="Trazado 3089" d="M430.859,452.06a.329.329,0,0,1-.127-.183.529.529,0,0,1-.023-.245.327.327,0,0,1,.17-.258.127.127,0,0,1,.15.092.347.347,0,0,1,0,.15.888.888,0,0,1-.056.235c-.046.131-.1.2-.108.193s.033-.078.069-.206a1.039,1.039,0,0,0,.039-.225c0-.082-.016-.2-.091-.18s-.114.134-.131.209a.513.513,0,0,0,0,.225A.917.917,0,0,0,430.859,452.06Z" transform="translate(-371.147 -352.519)" fill="#263238"/>
        <path id="Trazado_3090" data-name="Trazado 3090" d="M443.173,445.565a2.105,2.105,0,0,0-.327.17,1.532,1.532,0,0,0-.568.624,1.585,1.585,0,0,0-.147.843c.023.225.075.356.065.359a.325.325,0,0,1-.042-.091,1.2,1.2,0,0,1-.065-.261,1.529,1.529,0,0,1,.134-.875,1.5,1.5,0,0,1,.608-.653,1.228,1.228,0,0,1,.248-.111A.291.291,0,0,1,443.173,445.565Z" transform="translate(-378.803 -348.608)" fill="#263238"/>
        <path id="Trazado_3091" data-name="Trazado 3091" d="M441.35,440.59a9.036,9.036,0,0,1,.47.892,8.641,8.641,0,0,1,.418.921,8.9,8.9,0,0,1-.47-.9A7.753,7.753,0,0,1,441.35,440.59Z" transform="translate(-378.316 -345.259)" fill="#263238"/>
        <path id="Trazado_3092" data-name="Trazado 3092" d="M437.47,451.278a2.787,2.787,0,0,1-.617.372,2.735,2.735,0,0,1-.673.258l.653-.31C437.2,451.425,437.461,451.265,437.47,451.278Z" transform="translate(-374.835 -352.456)" fill="#263238"/>
        <path id="Trazado_3093" data-name="Trazado 3093" d="M442.669,450v.154c0,.078.016.147,0,.154s-.059-.059-.059-.15S442.653,450,442.669,450Z" transform="translate(-379.165 -351.596)" fill="#263238"/>
        <path id="Trazado_3094" data-name="Trazado 3094" d="M443.013,448.289c.016,0,0,.065-.016.134s-.056.118-.069.114,0-.065,0-.134S443,448.282,443.013,448.289Z" transform="translate(-379.375 -350.443)" fill="#263238"/>
        <path id="Trazado_3095" data-name="Trazado 3095" d="M443.917,447c0,.016-.056.046-.108.1s-.085.111-.1.108,0-.085.059-.15A.191.191,0,0,1,443.917,447Z" transform="translate(-379.9 -349.575)" fill="#263238"/>
        <path id="Trazado_3096" data-name="Trazado 3096" d="M445.021,446.271a.122.122,0,0,1-.033.078c-.033.033-.065.046-.078.036s0-.046.033-.078S445.008,446.258,445.021,446.271Z" transform="translate(-380.71 -349.082)" fill="#263238"/>
        <path id="Trazado_3097" data-name="Trazado 3097" d="M399.794,345.483l-7.186,3.342-12.922-23.006C378,319.75,376.38,298.38,376.38,298.38l9.349.712s1.441,15.353,3.7,23.245Z" transform="translate(-334.569 -249.502)" fill="#263238"/>
        <path id="Trazado_3098" data-name="Trazado 3098" d="M422.54,438.944a2.221,2.221,0,0,1,.271-.163c.18-.095.444-.229.771-.389.653-.327,1.565-.755,2.574-1.225s1.924-.885,2.59-1.176c.327-.147.608-.265.794-.327a1.177,1.177,0,0,1,.3-.1,1.105,1.105,0,0,1-.271.163c-.183.095-.444.229-.771.389-.653.327-1.565.755-2.571,1.225s-1.924.882-2.594,1.176c-.327.147-.6.265-.794.327A1.132,1.132,0,0,1,422.54,438.944Z" transform="translate(-365.65 -341.873)" fill="#455a64"/>
        <path id="Trazado_3099" data-name="Trazado 3099" d="M348.133,272.05c.176,0,2.087,5.661.248,9.414-.186.376-1.633,2.443-1.633,2.443-5.089,6-10.244,17.639-11.681,20.706-2.94,6.275-13.837,26.916-13.837,26.916l-6.99-4,10.221-26.279,9.277-23.715Z" transform="translate(-292.727 -231.773)" fill="#263238"/>
        <path id="Trazado_3100" data-name="Trazado 3100" d="M366.054,343.269s-.493,2.388-.748,2.251c-.728-.4-5.736-2.26-5.736-2.26l1.352-1.5Z" transform="translate(-323.25 -278.712)" fill="#455a64"/>
        <path id="Trazado_3101" data-name="Trazado 3101" d="M362.807,348.693s-.937,3.851-2.143,3.642a20.38,20.38,0,0,1-3.724-1.477l1.519-3.8Z" transform="translate(-321.479 -282.281)" fill="#455a64"/>
        <path id="Trazado_3102" data-name="Trazado 3102" d="M365.609,348.664l-5.589-2.234.268.82,4.426,1.62Z" transform="translate(-323.553 -281.857)" fill="#263238"/>
        <path id="Trazado_3103" data-name="Trazado 3103" d="M390.427,317.6a.611.611,0,0,1-.091.144l-.287.389c-.248.327-.6.836-1.009,1.467-.82,1.261-1.852,3.064-2.907,5.1s-1.96,3.92-2.6,5.272l-.768,1.61-.212.434a.724.724,0,0,1-.085.147.653.653,0,0,1,.052-.16l.186-.448c.163-.389.408-.947.715-1.633.621-1.372,1.5-3.267,2.558-5.3a52.465,52.465,0,0,1,2.94-5.089c.425-.624.791-1.114,1.058-1.441.124-.15.229-.271.327-.369A.686.686,0,0,1,390.427,317.6Z" transform="translate(-338.669 -262.444)" fill="#455a64"/>
        <path id="Trazado_3104" data-name="Trazado 3104" d="M315.87,438.137c.02-.039,1.669.745,3.685,1.754s3.629,1.865,3.593,1.908-1.669-.745-3.685-1.754S315.85,438.18,315.87,438.137Z" transform="translate(-293.824 -343.607)" fill="#455a64"/>
        <path id="Trazado_3105" data-name="Trazado 3105" d="M335.684,230.63a23.573,23.573,0,0,1-1.287,2.492,22.444,22.444,0,0,1-1.437,2.411,23.937,23.937,0,0,1,1.287-2.5A23.547,23.547,0,0,1,335.684,230.63Z" transform="translate(-305.332 -203.883)" fill="#263238"/>
        <path id="Trazado_3106" data-name="Trazado 3106" d="M347.093,200.2c.382,0,.836,2.777,1.222,7.764.438,5.658.4,11.367-1.166,14.957a3.116,3.116,0,0,1-1.633,1.741c-4.05,1.672-15.225-10.309-15.225-10.309l2.75-4.825,7.869,6.353a79.936,79.936,0,0,0,.634-9.391C341.422,204.244,343.666,200.226,347.093,200.2Z" transform="translate(-303.534 -183.393)" fill="#455a64"/>
        <path id="Trazado_3107" data-name="Trazado 3107" d="M375.7,200.222s6.834,1,8.6,3.685.872,26.367.872,26.367l-17.567,1.039s1.418-30.143,2.287-30.486A14.555,14.555,0,0,1,375.7,200.222Z" transform="translate(-328.663 -183.359)" fill="#455a64"/>
        <path id="Trazado_3108" data-name="Trazado 3108" d="M267.3,173.489a4.217,4.217,0,0,1,.389-2.091,2.08,2.08,0,0,0,.209-.9v-.794h-10.24a1.571,1.571,0,0,0-1.571,1.571v10.2h-.693a2.1,2.1,0,0,1-.921-.222,4.246,4.246,0,1,0-.131,7.712,2.11,2.11,0,0,1,.859-.189h.9v9.943a1.571,1.571,0,0,0,1.571,1.574h27.664a1.28,1.28,0,0,0,1.28-1.281V170.99a1.277,1.277,0,0,0-1.28-1.28h-10v1.133a1.978,1.978,0,0,0,.15.764,4.246,4.246,0,1,1-8.166,1.882Z" transform="translate(-248.38 -162.863)" fill="#f83f00"/>
        <path id="Trazado_3109" data-name="Trazado 3109" d="M369.7,215.79a1.351,1.351,0,0,1,.016.2v.565c0,.513,0,1.218.026,2.077,0,1.754.029,4.178-.026,6.86s-.2,5.1-.382,6.86c-.091.875-.18,1.578-.251,2.064-.036.229-.065.412-.092.559a.682.682,0,0,1-.042.193,1.459,1.459,0,0,1,0-.2c.016-.147.033-.327.059-.562.049-.49.121-1.2.2-2.068.15-1.748.284-4.165.327-6.84s.052-5.1.075-6.86c0-.859.023-1.565.029-2.078a5.651,5.651,0,0,1,.016-.565A.789.789,0,0,1,369.7,215.79Z" transform="translate(-329.566 -193.891)" fill="#263238"/>
        <path id="Trazado_3110" data-name="Trazado 3110" d="M398.651,166.19c-.281,1.784-.265,3.348.607,4.511a6.789,6.789,0,0,1,.523.706,1.075,1.075,0,0,1,.134.843.745.745,0,0,1-1.274.258,1.026,1.026,0,0,1-.5,1.029.653.653,0,0,1-.915-.47s.232.9-.807.764l.732-6.206Z" transform="translate(-348.063 -160.493)" fill="#263238"/>
        <path id="Trazado_3111" data-name="Trazado 3111" d="M378.668,175.827h0a2.891,2.891,0,0,1-2.875-3.195c.095-.928.18-1.682.18-1.682a2.747,2.747,0,0,1-2.316-2.643c-.029-2.287.369-7.536.369-7.536h0a7.947,7.947,0,0,1,7.983,1.006l.327.258-.794,11.106A2.891,2.891,0,0,1,378.668,175.827Z" transform="translate(-332.734 -156.41)" fill="#ffbe9d"/>
        <path id="Trazado_3112" data-name="Trazado 3112" d="M375.458,173.573a.327.327,0,1,0-.238.087A.327.327,0,0,0,375.458,173.573Z" transform="translate(-333.578 -165.083)" fill="#263238"/>
        <path id="Trazado_3113" data-name="Trazado 3113" d="M374.642,171.863c.036.039.261-.134.575-.134s.546.16.578.121-.016-.088-.118-.167a.758.758,0,0,0-.461-.144.781.781,0,0,0-.461.15C374.658,171.775,374.625,171.847,374.642,171.863Z" transform="translate(-333.395 -164.095)" fill="#263238"/>
        <path id="Trazado_3114" data-name="Trazado 3114" d="M385.429,173.9a.327.327,0,1,0,.25-.042A.326.326,0,0,0,385.429,173.9Z" transform="translate(-340.554 -165.648)" fill="#263238"/>
        <path id="Trazado_3115" data-name="Trazado 3115" d="M385.112,172.713c.036.039.261-.134.575-.134s.546.16.578.121-.02-.088-.118-.167a.761.761,0,0,0-.464-.144.748.748,0,0,0-.457.157C385.128,172.625,385.1,172.7,385.112,172.713Z" transform="translate(-340.445 -164.667)" fill="#263238"/>
        <path id="Trazado_3116" data-name="Trazado 3116" d="M379.58,175.66a1.676,1.676,0,0,0-.51-.108c-.082,0-.147-.026-.153-.072a.428.428,0,0,1,.059-.235l.248-.653a8.568,8.568,0,0,0,.539-1.682,8.863,8.863,0,0,0-.706,1.633c-.082.222-.16.434-.235.653a.509.509,0,0,0-.046.343.212.212,0,0,0,.14.131.623.623,0,0,0,.14.02A1.532,1.532,0,0,0,379.58,175.66Z" transform="translate(-336.174 -165.017)" fill="#263238"/>
        <path id="Trazado_3117" data-name="Trazado 3117" d="M381.205,182.326a6.137,6.137,0,0,1-1.545.448.869.869,0,0,0,1.026.346C381.372,182.869,381.205,182.326,381.205,182.326Z" transform="translate(-336.777 -171.334)" fill="#fff"/>
        <path id="Trazado_3118" data-name="Trazado 3118" d="M380.677,191.409a5.305,5.305,0,0,0,2.979-.849A2.837,2.837,0,0,1,380.67,192Z" transform="translate(-337.457 -176.902)" fill="#eb996e"/>
        <path id="Trazado_3119" data-name="Trazado 3119" d="M398.8,172.736c.049-.016,1.705-.131,1.431,1.8s-2.13,1.013-2.126.957S398.8,172.736,398.8,172.736Z" transform="translate(-349.194 -164.896)" fill="#ffbe9d"/>
        <path id="Trazado_3120" data-name="Trazado 3120" d="M400.195,176.325a.465.465,0,0,0,.085.062.327.327,0,0,0,.248.042.84.84,0,0,0,.49-.693,1.078,1.078,0,0,0-.023-.493.4.4,0,0,0-.216-.294.17.17,0,0,0-.212.065c-.033.049-.026.088-.039.091s-.036-.039,0-.114a.2.2,0,0,1,.095-.111.242.242,0,0,1,.193-.023.474.474,0,0,1,.294.366,1.109,1.109,0,0,1,.039.552.879.879,0,0,1-.608.764.369.369,0,0,1-.3-.095C400.192,176.371,400.188,176.328,400.195,176.325Z" transform="translate(-350.603 -166.322)" fill="#eb996e"/>
        <path id="Trazado_3121" data-name="Trazado 3121" d="M372.9,152.891a.751.751,0,0,1,.856-.614.859.859,0,1,1,.568-1.558,2.558,2.558,0,0,1-.6-.859.862.862,0,0,1,.222-.98.98.98,0,0,1,.98,0c.47.238.826.67,1.307.872a5.561,5.561,0,0,0,1.578.209,2.812,2.812,0,0,1,1.6.67,1.891,1.891,0,0,1,.653,1.574,3.01,3.01,0,0,1,2.071.448,1.659,1.659,0,0,1,.627-1.552,2.117,2.117,0,0,1,2.055-.2,1.192,1.192,0,0,1,.709.653,1.219,1.219,0,0,1-.48,1.222,2.74,2.74,0,0,1-2.4.578,2.492,2.492,0,0,1,.163,1.071,7.334,7.334,0,0,1-.764,1.875h0l-.049.389-.379,1.617-1.013-.082.278-3.4s.189-1.427-1.052-1.378-3,1.339-5.38.84a2.646,2.646,0,0,1-1.1-.389A1.111,1.111,0,0,1,372.9,152.891Z" transform="translate(-332.221 -148.748)" fill="#263238"/>
        <path id="Trazado_3122" data-name="Trazado 3122" d="M405.943,162.2a1.45,1.45,0,0,1-.653.281,2.587,2.587,0,0,1-2.92-1.434,1.447,1.447,0,0,1-.18-.693c.029,0,.082.265.287.653a2.665,2.665,0,0,0,2.79,1.369C405.685,162.287,405.93,162.163,405.943,162.2Z" transform="translate(-351.948 -156.56)" fill="#263238"/>
        <path id="Trazado_3123" data-name="Trazado 3123" d="M403.6,165.188c-.026,0,0-.2-.059-.5a3.493,3.493,0,0,0-.474-1.1,9.3,9.3,0,0,1-.621-1.078,1.052,1.052,0,0,1-.131-.5,3.193,3.193,0,0,1,.238.451c.147.274.4.627.653,1.042a2.9,2.9,0,0,1,.451,1.173A.823.823,0,0,1,403.6,165.188Z" transform="translate(-352.035 -157.671)" fill="#263238"/>
        <path id="Trazado_3124" data-name="Trazado 3124" d="M345.346,215.257A36.33,36.33,0,0,1,342.057,213c-1.264-1.068-1.173-1.186-1.026-1.307.392-.35,2.287,1.8,2.146,1.091s-2.613-2.345-2.2-2.692c.555-.454,2.5,1.829,2.682,2.009s.441-.078.271-.232c-.245-.222-2.754-2.613-2.215-3.064.3-.252.686.343.686.343s2.189,2.421,2.437,2.2-.98-1.689-1.437-2.153-.415-.859-.052-.9a10.523,10.523,0,0,1,2.1,1.829c.438.467,1.607,1.777,1.542.653a2.977,2.977,0,0,1,.555-2.192c.261-.173.591.14.467.467a4.15,4.15,0,0,0-.144,1.13,2.744,2.744,0,0,0,.124.9c.078.252.157.474.232.67l.768,2.113-1.927,2.44Z" transform="translate(-310.701 -188.847)" fill="#ffbe9d"/>
        <path id="Trazado_3125" data-name="Trazado 3125" d="M372.673,206.908c.4.1,2.816,1.349,2.855,6.814.029,4.344-.3,13.987-3.267,15.421a5.364,5.364,0,0,1-5.151-.506c-4.991-3.224-13.83-13.618-13.83-13.618l3.956-4.214s10.27,10.453,10.708,10.067c.653-.581-.35-5.573.212-10.505C368.541,206.859,370.174,206.284,372.673,206.908Z" transform="translate(-319.014 -187.762)" fill="#455a64"/>
        <path id="Trazado_3126" data-name="Trazado 3126" d="M357.249,219.75a.385.385,0,0,1-.069.072l-.212.209c-.186.18-.461.448-.807.807a27.77,27.77,0,0,0-2.711,3.266v-.075c2.79,2.845,6.86,6.984,11.377,11.586a8.924,8.924,0,0,0,3.789,2.14,4.573,4.573,0,0,0,2.055.091,3.975,3.975,0,0,0,1.754-.885,6.834,6.834,0,0,0,1.937-3.1,16.618,16.618,0,0,0,.627-3.182c.265-1.96.405-3.593.467-4.694.033-.555.049-.98.062-1.28v-.327a.473.473,0,0,1,0-.111.44.44,0,0,1,0,.114v.327c0,.294,0,.725-.029,1.284-.042,1.114-.163,2.728-.415,4.707a16.621,16.621,0,0,1-.611,3.211,6.981,6.981,0,0,1-1.96,3.175,4.117,4.117,0,0,1-1.823.924,4.74,4.74,0,0,1-2.126-.091,9.054,9.054,0,0,1-3.868-2.175c-4.534-4.609-8.571-8.777-11.341-11.629l-.036-.036.029-.039A26.525,26.525,0,0,1,356.1,220.8c.356-.35.653-.611.833-.787l.222-.193Z" transform="translate(-319.034 -196.557)" fill="#263238"/>
        <path id="Trazado_3127" data-name="Trazado 3127" d="M365.379,210.743s.023,0,.056.046l.154.154.585.591c.506.516,1.248,1.254,2.179,2.159s2.055,1.983,3.322,3.165l2,1.852c.7.634,1.427,1.307,2.2,1.94l-.134.065c.023-.385.046-.794.069-1.205.131-2.159.252-4.217.363-6.089.069-.934.085-1.826.186-2.659a6.533,6.533,0,0,1,.634-2.241,3.74,3.74,0,0,1,1.254-1.45,2.91,2.91,0,0,1,1.372-.467,2.25,2.25,0,0,1,.908.111,1.169,1.169,0,0,1,.291.131,2.811,2.811,0,0,0-.3-.1,2.378,2.378,0,0,0-.9-.078,2.9,2.9,0,0,0-1.323.48,3.766,3.766,0,0,0-1.2,1.427,6.569,6.569,0,0,0-.6,2.2c-.091.823-.1,1.715-.167,2.649l-.35,6.089c-.023.412-.049.823-.069,1.205v.167l-.127-.1c-.8-.653-1.509-1.307-2.211-1.96s-1.362-1.267-2-1.862c-1.261-1.192-2.378-2.287-3.3-3.191s-1.65-1.672-2.143-2.2c-.252-.261-.434-.47-.562-.614l-.14-.16C365.392,210.762,365.376,210.743,365.379,210.743Z" transform="translate(-327.161 -187.7)" fill="#263238"/>
        <path id="Trazado_3128" data-name="Trazado 3128" d="M358.62,228.433a3.972,3.972,0,0,1,.5-.7c.327-.415.79-.98,1.323-1.591s1.026-1.15,1.392-1.532a4.169,4.169,0,0,1,.624-.591,4.467,4.467,0,0,1-.536.673l-1.352,1.561-1.359,1.558A4.527,4.527,0,0,1,358.62,228.433Z" transform="translate(-322.61 -199.432)" fill="#263238"/>
        <path id="Trazado_3129" data-name="Trazado 3129" d="M398.311,252.159a7.565,7.565,0,0,1-.5-1.245,7.723,7.723,0,0,1-.444-1.264,6.5,6.5,0,0,1,.941,2.509Z" transform="translate(-348.702 -216.69)" fill="#263238"/>
        <path id="Trazado_3130" data-name="Trazado 3130" d="M398.9,251.436a5.4,5.4,0,0,1-1.052-.846,5.612,5.612,0,0,1-.937-.98A10.624,10.624,0,0,1,398.9,251.436Z" transform="translate(-348.393 -216.663)" fill="#263238"/>
      </g>
      <g id="freepik--character-1--inject-352" transform="translate(33.839 90.624)">
        <path id="Trazado_3131" data-name="Trazado 3131" d="M75.927,392.629,65.435,402.1,62.56,398.42l9.2-11.39Z" transform="translate(-61.231 -309.207)" fill="#ffbe9d"/>
        <path id="Trazado_3132" data-name="Trazado 3132" d="M62.936,425.193l.359-.327L59.983,420.8l-1.493,1.307.2.255c.892,1.133,4.619,5.7,5.475,6.229C65.118,429.179,62.936,425.193,62.936,425.193Z" transform="translate(-58.49 -331.946)" fill="#f83f00"/>
        <g id="Grupo_664" data-name="Grupo 664" transform="translate(0.059 89.152)" opacity="0.5">
          <path id="Trazado_3133" data-name="Trazado 3133" d="M59.895,424.111a1.8,1.8,0,0,0,.392-1.235,1.738,1.738,0,0,0-.523-1.166l-1.094.98Z" transform="translate(-58.67 -421.71)" fill="#fff"/>
        </g>
        <path id="Trazado_3134" data-name="Trazado 3134" d="M63.945,429.738s.693,1.463.369,1.486-4.246-4.449-5.824-6.572l.095-.072,4.55,5.256S63.733,429.519,63.945,429.738Z" transform="translate(-58.49 -334.491)" fill="#fff" opacity="0.5"/>
        <path id="Trazado_3135" data-name="Trazado 3135" d="M58.62,424.39a.409.409,0,0,0,.052.072l.157.206.6.738c.506.621,1.222,1.467,2.028,2.385s1.558,1.734,2.11,2.319l.653.686.18.183a.432.432,0,0,0,.069.062l-.059-.072-.173-.189c-.173-.193-.389-.425-.653-.7-.542-.591-1.287-1.411-2.094-2.329s-1.525-1.761-2.045-2.375l-.611-.725-.167-.2A.371.371,0,0,0,58.62,424.39Z" transform="translate(-58.578 -334.363)" fill="#263238"/>
        <path id="Trazado_3136" data-name="Trazado 3136" d="M72.52,440.311a2.008,2.008,0,0,1,.457-.167,2.142,2.142,0,0,1,.487,0,.692.692,0,0,0-.5-.065.706.706,0,0,0-.448.232Z" transform="translate(-67.937 -344.914)" fill="#263238"/>
        <path id="Trazado_3137" data-name="Trazado 3137" d="M71.2,435.554a.558.558,0,0,0,.258,0c.14-.02.252-.052.248-.072a1.061,1.061,0,0,0-.506.082Z" transform="translate(-67.048 -341.829)" fill="#263238"/>
        <path id="Trazado_3138" data-name="Trazado 3138" d="M70.86,434.265a.75.75,0,0,0,.212.056,1.066,1.066,0,0,0,.222,0,.75.75,0,0,0-.216-.056C70.958,434.251,70.86,434.245,70.86,434.265Z" transform="translate(-66.819 -341.004)" fill="#263238"/>
        <path id="Trazado_3139" data-name="Trazado 3139" d="M71.45,432.677a1.242,1.242,0,0,0,.154.225c.1.114.189.2.2.186s-.056-.111-.157-.225S71.463,432.664,71.45,432.677Z" transform="translate(-67.217 -339.942)" fill="#263238"/>
        <path id="Trazado_3140" data-name="Trazado 3140" d="M72.06,431.76a.513.513,0,0,0,.134.287c.108.14.229.222.238.209a2.3,2.3,0,0,0-.186-.248,1.967,1.967,0,0,0-.186-.248Z" transform="translate(-67.627 -339.326)" fill="#263238"/>
        <path id="Trazado_3141" data-name="Trazado 3141" d="M72.526,435.165a.958.958,0,0,0,.225.248,1.762,1.762,0,0,0,.294.216.754.754,0,0,0,.2.1.183.183,0,0,0,.131,0,.131.131,0,0,0,.069-.127.624.624,0,0,0-.879-.385.233.233,0,0,0-.075.056.88.88,0,0,1,.327-.075.6.6,0,0,1,.327.091.512.512,0,0,1,.242.327c0,.065-.052.091-.118.072a1.216,1.216,0,0,1-.186-.088,2.453,2.453,0,0,1-.3-.2A3.312,3.312,0,0,0,72.526,435.165Z" transform="translate(-67.917 -341.607)" fill="#263238"/>
        <path id="Trazado_3142" data-name="Trazado 3142" d="M72.647,433.971a.327.327,0,0,0,.2-.124.542.542,0,0,0,.124-.232.327.327,0,0,0-.056-.327.137.137,0,0,0-.186.026.392.392,0,0,0-.075.14,1,1,0,0,0-.046.255.461.461,0,0,0,.023.232,1.589,1.589,0,0,0,.02-.229,1.4,1.4,0,0,1,.059-.238c.023-.082.1-.189.167-.137a.327.327,0,0,1,.039.261.552.552,0,0,1-.1.216A1.366,1.366,0,0,1,72.647,433.971Z" transform="translate(-67.993 -340.337)" fill="#263238"/>
        <path id="Trazado_3143" data-name="Trazado 3143" d="M62.11,421.739a1.834,1.834,0,0,1,.245.3,1.679,1.679,0,0,1,.3.862,1.711,1.711,0,0,1-.209.885c-.118.206-.225.327-.216.327s.033-.02.078-.069a1.282,1.282,0,0,0,.173-.229,1.591,1.591,0,0,0,.235-.911,1.614,1.614,0,0,0-.327-.885,1.256,1.256,0,0,0-.2-.209C62.146,421.756,62.113,421.736,62.11,421.739Z" transform="translate(-60.928 -332.578)" fill="#263238"/>
        <path id="Trazado_3144" data-name="Trazado 3144" d="M64.9,429.549a2.971,2.971,0,0,0,.454.617,2.941,2.941,0,0,0,.559.529s-.229-.255-.506-.572A5.148,5.148,0,0,0,64.9,429.549Z" transform="translate(-62.806 -337.837)" fill="#263238"/>
        <path id="Trazado_3145" data-name="Trazado 3145" d="M62.569,427.19c-.02,0-.036.069-.072.144s-.075.14-.062.154.078-.036.121-.127S62.585,427.19,62.569,427.19Z" transform="translate(-61.144 -336.248)" fill="#263238"/>
        <path id="Trazado_3146" data-name="Trazado 3146" d="M63.078,425.33c-.016,0-.036.059-.042.137s0,.14.023.14.036-.059.042-.137S63.094,425.33,63.078,425.33Z" transform="translate(-61.549 -334.996)" fill="#263238"/>
        <path id="Trazado_3147" data-name="Trazado 3147" d="M62.56,423.613a1.349,1.349,0,0,1,.065.14c.029.075.036.144.056.147s.042-.078,0-.17S62.567,423.6,62.56,423.613Z" transform="translate(-61.231 -333.837)" fill="#263238"/>
        <path id="Trazado_3148" data-name="Trazado 3148" d="M62,422.508v.088c0,.042.042.075.059.069s0-.046,0-.091S62.016,422.5,62,422.508Z" transform="translate(-60.853 -333.095)" fill="#263238"/>
        <path id="Trazado_3149" data-name="Trazado 3149" d="M147.157,403.87l1.264,14.3h-5.406l-2.385-14.3Z" transform="translate(-113.799 -320.546)" fill="#ffbe9d"/>
        <path id="Trazado_3150" data-name="Trazado 3150" d="M153.179,447.033v-.48l-5.249-.023.062,1.983h.327c1.444.026,7.337.039,8.287-.287C157.632,447.873,153.179,447.033,153.179,447.033Z" transform="translate(-118.714 -349.271)" fill="#f83f00"/>
        <g id="Grupo_665" data-name="Grupo 665" transform="translate(29.196 97.706)" opacity="0.5">
          <path id="Trazado_3151" data-name="Trazado 3151" d="M149.807,449.322a1.8,1.8,0,0,0-.706-1.088,1.764,1.764,0,0,0-1.231-.327l.052,1.46Z" transform="translate(-147.87 -447.897)" fill="#fff"/>
        </g>
        <path id="Trazado_3152" data-name="Trazado 3152" d="M155.412,449.56s1.568.392,1.385.653-6.141.474-8.777.327v-.118l6.951-.186S155.108,449.586,155.412,449.56Z" transform="translate(-118.775 -351.311)" fill="#fff" opacity="0.5"/>
        <path id="Trazado_3153" data-name="Trazado 3153" d="M147.78,451.594h1.3c.8,0,1.911,0,3.133-.056s2.329-.1,3.129-.16l.947-.072.258-.026h-.258l-.951.052c-.8.046-1.9.1-3.126.144s-2.329.062-3.133.072h-1.205Z" transform="translate(-118.613 -352.469)" fill="#263238"/>
        <path id="Trazado_3154" data-name="Trazado 3154" d="M169.3,450.2a2.171,2.171,0,0,1,.16-.461,2.144,2.144,0,0,1,.327-.372.676.676,0,0,0-.366.343.706.706,0,0,0-.121.49Z" transform="translate(-133.099 -351.183)" fill="#263238"/>
        <path id="Trazado_3155" data-name="Trazado 3155" d="M164.51,448.774a.607.607,0,0,0,.16-.206c.072-.124.118-.229.1-.238a.618.618,0,0,0-.157.209.6.6,0,0,0-.1.235Z" transform="translate(-129.878 -350.483)" fill="#263238"/>
        <path id="Trazado_3156" data-name="Trazado 3156" d="M163.2,448.431a.819.819,0,0,0,.18-.131c.088-.085.147-.163.134-.173s-.091.042-.18.127S163.183,448.412,163.2,448.431Z" transform="translate(-128.993 -350.346)" fill="#263238"/>
        <path id="Trazado_3157" data-name="Trazado 3157" d="M162.33,447.487a.592.592,0,0,0,.271.023.654.654,0,0,0,.274-.036.6.6,0,0,0-.274-.026C162.451,447.452,162.33,447.468,162.33,447.487Z" transform="translate(-128.411 -349.885)" fill="#263238"/>
        <path id="Trazado_3158" data-name="Trazado 3158" d="M162,446.52a.8.8,0,0,0,.634.026,1.454,1.454,0,0,0-.307,0,1.914,1.914,0,0,0-.327-.026Z" transform="translate(-128.188 -349.264)" fill="#263238"/>
        <path id="Trazado_3159" data-name="Trazado 3159" d="M165,447.3a.941.941,0,0,0,.327,0,2.041,2.041,0,0,0,.356-.091.979.979,0,0,0,.2-.091.19.19,0,0,0,.082-.108.134.134,0,0,0-.056-.131.611.611,0,0,0-.755.206.575.575,0,0,0-.1.229.17.17,0,0,0,0,.088,1.083,1.083,0,0,1,.144-.291.618.618,0,0,1,.278-.2.519.519,0,0,1,.4,0c.056.039.036.1-.023.14a1.169,1.169,0,0,1-.183.085,2.14,2.14,0,0,1-.343.1C165.131,447.281,165,447.288,165,447.3Z" transform="translate(-130.208 -349.467)" fill="#263238"/>
        <path id="Trazado_3160" data-name="Trazado 3160" d="M164.338,447.007a.346.346,0,0,0,.029-.232.526.526,0,0,0-.1-.242.327.327,0,0,0-.284-.163.137.137,0,0,0-.1.16.326.326,0,0,0,.062.147.934.934,0,0,0,.167.2.464.464,0,0,0,.2.131s-.069-.059-.167-.16a1.528,1.528,0,0,1-.147-.2c-.049-.072-.085-.2,0-.216s.173.072.225.134a.536.536,0,0,1,.1.216A1.4,1.4,0,0,1,164.338,447.007Z" transform="translate(-129.455 -349.163)" fill="#263238"/>
        <path id="Trazado_3161" data-name="Trazado 3161" d="M148,447.773a2,2,0,0,1,.385,0,1.652,1.652,0,0,1,.853.327,1.679,1.679,0,0,1,.552.722c.088.222.1.372.114.369a.365.365,0,0,0,0-.1,1.523,1.523,0,0,0-.069-.278,1.587,1.587,0,0,0-.555-.761,1.633,1.633,0,0,0-.889-.31,1.694,1.694,0,0,0-.287,0A.327.327,0,0,0,148,447.773Z" transform="translate(-118.761 -350.08)" fill="#263238"/>
        <path id="Trazado_3162" data-name="Trazado 3162" d="M155.76,450.537a2.884,2.884,0,0,0,.764.042,3.032,3.032,0,0,0,.761-.091c0-.02-.343.016-.764.029S155.76,450.521,155.76,450.537Z" transform="translate(-123.987 -351.932)" fill="#263238"/>
        <path id="Trazado_3163" data-name="Trazado 3163" d="M152.63,450.735s.029.072.069.147.059.147.075.147.026-.085-.02-.173S152.64,450.722,152.63,450.735Z" transform="translate(-121.879 -352.101)" fill="#263238"/>
        <path id="Trazado_3164" data-name="Trazado 3164" d="M151.4,449.314a.33.33,0,0,0,.078.118c.056.052.111.085.124.072s-.023-.065-.082-.118S151.41,449.3,151.4,449.314Z" transform="translate(-121.051 -351.144)" fill="#263238"/>
        <path id="Trazado_3165" data-name="Trazado 3165" d="M149.689,448.639c0,.02.072.016.15.039s.134.065.147.052-.033-.085-.131-.111S149.683,448.626,149.689,448.639Z" transform="translate(-119.899 -350.671)" fill="#263238"/>
        <path id="Trazado_3166" data-name="Trazado 3166" d="M148.47,448.4c0,.016.026.042.069.059a.16.16,0,0,0,.091,0c.007,0-.026-.042-.069-.059S148.477,448.388,148.47,448.4Z" transform="translate(-119.078 -350.525)" fill="#263238"/>
        <path id="Trazado_3167" data-name="Trazado 3167" d="M98.849,270.69s4.23,28.092,3.616,29.461-14.317,15.385-14.317,15.385L83,306.73s9.068-10.044,8.937-10.564S85.4,268.43,85.4,268.43Z" transform="translate(-74.994 -229.347)" fill="#263238"/>
        <path id="Trazado_3168" data-name="Trazado 3168" d="M129.006,285.724c-.042-.3-3.456-7.974-3.456-7.974l1.656-2.339.294-.062Z" transform="translate(-103.645 -234.007)" fill="#263238"/>
        <path id="Trazado_3169" data-name="Trazado 3169" d="M81.752,267.25l-.258,1.042A12.285,12.285,0,0,0,82.8,277.35l11.459,19.87a15.859,15.859,0,0,1,1.757,4.521L98.875,314.6h9.408s-1.163-8.82-2.2-15.251c-.784-4.857-7.284-19.926-10.433-27.06l1.96-2.4-3.387-.565Z" transform="translate(-73.745 -228.553)" fill="#263238"/>
        <path id="Trazado_3170" data-name="Trazado 3170" d="M126.31,282.53a9.887,9.887,0,0,0,.48,1.258c.327.768.745,1.829,1.2,3.008s.859,2.257,1.147,3.035a10.3,10.3,0,0,0,.5,1.251,1.427,1.427,0,0,0-.082-.356c-.062-.222-.16-.546-.287-.941-.258-.79-.653-1.872-1.1-3.057s-.911-2.238-1.258-2.992c-.173-.379-.327-.683-.421-.889a1.37,1.37,0,0,0-.18-.317Z" transform="translate(-104.156 -238.842)" fill="#455a64"/>
        <path id="Trazado_3171" data-name="Trazado 3171" d="M110.68,344.174a1.135,1.135,0,0,0,0-.222c-.02-.167-.042-.376-.072-.637a9.652,9.652,0,0,0-.15-1c-.075-.385-.147-.833-.274-1.307-.059-.242-.121-.5-.186-.758s-.157-.532-.242-.813c-.157-.565-.379-1.15-.595-1.77a40.132,40.132,0,0,0-1.748-3.92,68.293,68.293,0,0,0-4-6.654c-.552-.823-1.009-1.486-1.329-1.94l-.369-.506a1.231,1.231,0,0,0-.14-.173.958.958,0,0,0,.108.2l.343.539c.327.487.751,1.153,1.28,1.96,1.075,1.666,2.558,3.979,3.949,6.664a42.424,42.424,0,0,1,1.735,3.881c.219.614.448,1.2.611,1.754.085.278.173.546.248.807s.134.51.2.751c.137.477.216.918.3,1.307s.144.719.183.98.078.467.108.63A1.052,1.052,0,0,0,110.68,344.174Z" transform="translate(-87.498 -267.082)" fill="#455a64"/>
        <path id="Trazado_3172" data-name="Trazado 3172" d="M87.171,292.272a.992.992,0,0,1-.072-.1l-.2-.327h0a2.163,2.163,0,0,1,1.4-.96,3.438,3.438,0,0,1,1.307-.039,8.692,8.692,0,0,1,1.5.4,10.883,10.883,0,0,1,1.633.653,2.783,2.783,0,0,1,1.329,1.424,1.771,1.771,0,0,1,.062,1.058,5.309,5.309,0,0,1-.421.98,2.051,2.051,0,0,0-.278,1,1.4,1.4,0,0,0,.454.924,8.189,8.189,0,0,0,2.322,1.127,3.988,3.988,0,0,1,1.744,1.731,4.077,4.077,0,0,1,.49,2.169,3.734,3.734,0,0,1-.614,1.842,4.188,4.188,0,0,1-2.2,1.692,3.721,3.721,0,0,1-.748.154,1.8,1.8,0,0,1-.265,0,5.991,5.991,0,0,0,.98-.229,4.188,4.188,0,0,0,2.117-1.692,3.629,3.629,0,0,0,.575-1.783,4.011,4.011,0,0,0-.487-2.091,3.871,3.871,0,0,0-1.682-1.656c-.369-.183-.784-.307-1.2-.464a3.192,3.192,0,0,1-1.169-.689,1.568,1.568,0,0,1-.5-1.039,2.24,2.24,0,0,1,.3-1.081,5.249,5.249,0,0,0,.415-.954,1.591,1.591,0,0,0-.059-.964,2.613,2.613,0,0,0-1.248-1.349,10.855,10.855,0,0,0-1.607-.67,8.137,8.137,0,0,0-1.467-.412,3.267,3.267,0,0,0-1.264.016,2.156,2.156,0,0,0-1.385.9h0l.18.327A.512.512,0,0,1,87.171,292.272Z" transform="translate(-77.62 -244.413)" fill="#fafafa"/>
        <path id="Trazado_3173" data-name="Trazado 3173" d="M145.373,347.967a2.941,2.941,0,0,0-.774-.49,4.623,4.623,0,0,0-1.045-.274c-.415-.069-.9-.111-1.427-.2a4.815,4.815,0,0,1-1.669-.565,4.674,4.674,0,0,1-2.061-5.808,11.917,11.917,0,0,0,.908-2.175,4.246,4.246,0,0,0-.307-2.133,17.2,17.2,0,0,1-.634-1.911,3.721,3.721,0,0,1,0-1.761,3.959,3.959,0,0,1,1.346-2.13,2.754,2.754,0,0,1,.8-.474,6.052,6.052,0,0,0-.761.523,4,4,0,0,0-1.271,2.107,3.629,3.629,0,0,0,0,1.705,17.543,17.543,0,0,0,.653,1.888,4.374,4.374,0,0,1,.327,2.211,11.715,11.715,0,0,1-.911,2.215,4.537,4.537,0,0,0,1.96,5.618,4.759,4.759,0,0,0,1.633.572c.523.091,1.006.14,1.424.219a4.431,4.431,0,0,1,1.055.327,2.387,2.387,0,0,1,.585.372C145.321,347.9,145.38,347.96,145.373,347.967Z" transform="translate(-112.071 -270.839)" fill="#fafafa"/>
        <path id="Trazado_3174" data-name="Trazado 3174" d="M137.856,402.17c-.033,0-.042-.425-.212-1.081a6.123,6.123,0,0,0-.408-1.114,7.008,7.008,0,0,0-.774-1.228,6.914,6.914,0,0,0-1.032-1.022,6.211,6.211,0,0,0-1-.653c-.6-.307-1.019-.408-1.009-.441a.86.86,0,0,1,.294.056,2.182,2.182,0,0,1,.327.1,3.546,3.546,0,0,1,.431.176,5.659,5.659,0,0,1,1.045.624,6.039,6.039,0,0,1,1.849,2.306,5.677,5.677,0,0,1,.385,1.153,3.494,3.494,0,0,1,.078.461,2.051,2.051,0,0,1,.026.35A.9.9,0,0,1,137.856,402.17Z" transform="translate(-108.944 -315.671)" fill="#fafafa"/>
        <path id="Trazado_3175" data-name="Trazado 3175" d="M119.713,282.235a.493.493,0,0,0-.127.026,3.487,3.487,0,0,1-.376.033,4.948,4.948,0,0,1-1.372-.147,5.585,5.585,0,0,1-1.868-.836,5.226,5.226,0,0,1-2.322-4.279,5.641,5.641,0,0,1,.327-2.022,5.029,5.029,0,0,1,.627-1.231,2.857,2.857,0,0,1,.229-.294c.056-.065.088-.1.091-.095a7.224,7.224,0,0,0-.833,1.659,5.719,5.719,0,0,0-.274,1.979,5.187,5.187,0,0,0,2.234,4.155,5.733,5.733,0,0,0,1.806.849A7.12,7.12,0,0,0,119.713,282.235Z" transform="translate(-95.629 -232.687)" fill="#fafafa"/>
        <path id="Trazado_3176" data-name="Trazado 3176" d="M94.864,356.58a1.153,1.153,0,0,1,.183.082c.121.056.291.15.506.278a6.1,6.1,0,0,1,1.6,1.4,4.215,4.215,0,0,1,.7,1.307,3.619,3.619,0,0,1,.111,1.7,2.94,2.94,0,0,1-.862,1.666c-.483.47-1.192.627-1.6,1.143a3.371,3.371,0,0,0-.565,1.823,6.534,6.534,0,0,1-.327,1.842,2.479,2.479,0,0,1-1.14,1.251,3.574,3.574,0,0,1-1.418.425,6.954,6.954,0,0,1-2.117-.209c-.245-.059-.431-.108-.559-.144a.784.784,0,0,1-.189-.062,1.02,1.02,0,0,1,.2.029l.562.111a7.3,7.3,0,0,0,2.091.154,3.469,3.469,0,0,0,1.359-.425,2.371,2.371,0,0,0,1.068-1.189,6.628,6.628,0,0,0,.3-1.8,6.238,6.238,0,0,1,.15-.98,2.286,2.286,0,0,1,.451-.934c.47-.565,1.182-.719,1.633-1.156a2.783,2.783,0,0,0,.82-1.568,3.554,3.554,0,0,0-.091-1.633,4.21,4.21,0,0,0-.653-1.271A6.379,6.379,0,0,0,95.533,357c-.206-.137-.372-.238-.487-.3A.873.873,0,0,1,94.864,356.58Z" transform="translate(-79.155 -288.703)" fill="#fafafa"/>
        <path id="Trazado_3177" data-name="Trazado 3177" d="M96.73,149.455a4.4,4.4,0,0,0-4.665,2.316,7.718,7.718,0,0,0-.487,5.452,5.16,5.16,0,0,1,.255,2.313,16.74,16.74,0,0,1-1.156,2.241c-.6,1.512.163,3.188.908,4.632.327.653.774,1.388,1.5,1.532.813.16,1.529-.49,2.215-.957a5.824,5.824,0,0,1,4.129-.931c1.633.252,3.11,1.189,4.749,1.218a4.439,4.439,0,0,0,3.747-2.009,1.925,1.925,0,0,0-.049-2.469c-.464-.369-1.173-.356-1.581-.787-.5-.526-.281-1.372-.026-2.045s.51-1.5.056-2.058c-.506-.634-1.6-.513-2.087-1.163s.026-1.633,0-2.5a2.532,2.532,0,0,0-1.12-1.895c-.614-.448-.7-.591-1.545-2.13" transform="translate(-80.018 -149.169)" fill="#263238"/>
        <path id="Trazado_3178" data-name="Trazado 3178" d="M85.109,195.186l6.533.559s4.759-.7,6.582,11.374l7.232-.3.327,4.808-9.947.49-1.173-.7.118,9.888-16.453-1.212c.372-2.244,2.127-5.2,2.714-7.092-.6-1.5-3.9-7.595-4.067-10.727-.444-8.578,8.134-7.088,8.134-7.088" transform="translate(-70.926 -179.962)" fill="#f83f00"/>
        <path id="Trazado_3179" data-name="Trazado 3179" d="M132.626,222.48a4.841,4.841,0,0,1,1.176,2.407c.029,1.764-.415,2.669.137,4.6l-1.574.379a2.415,2.415,0,0,1-.036-1.476c.206-1.006.6-2.231.781-3.325A3.733,3.733,0,0,0,132.626,222.48Z" transform="translate(-108.153 -198.407)" opacity="0.3"/>
        <path id="Trazado_3180" data-name="Trazado 3180" d="M129.8,226.159a1.634,1.634,0,0,1-.1-.385,4.249,4.249,0,0,1,0-1.084,10.735,10.735,0,0,1,.327-1.565,14.5,14.5,0,0,0,.431-1.888,3.694,3.694,0,0,0-.2-1.875,4.838,4.838,0,0,0-.843-1.307c-.595-.676-1.016-1.052-.98-1.075a1.959,1.959,0,0,1,.31.245,9.47,9.47,0,0,1,.774.751,4.714,4.714,0,0,1,.9,1.336,3.727,3.727,0,0,1,.219,1.96,12.61,12.61,0,0,1-.448,1.908,12.818,12.818,0,0,0-.369,1.539,5.179,5.179,0,0,0-.056,1.062A1.829,1.829,0,0,1,129.8,226.159Z" transform="translate(-105.586 -194.704)" fill="#263238"/>
        <g id="Grupo_666" data-name="Grupo 666" transform="translate(14.928 25.765)" opacity="0.2">
          <path id="Trazado_3181" data-name="Trazado 3181" d="M113.689,233.226l-4.874.111a2.751,2.751,0,0,1-1.143-.134,2.684,2.684,0,0,1-1.13-1.192q-1.284-2.117-2.352-4.351s1.287,4.093,2.094,5.88a.931.931,0,0,0,1.14.588A21.943,21.943,0,0,0,113.689,233.226Z" transform="translate(-104.19 -227.66)"/>
        </g>
        <path id="Trazado_3182" data-name="Trazado 3182" d="M175.548,172.7a4.217,4.217,0,0,1,2.091.389,2.064,2.064,0,0,0,.892.209h.8V163.053a1.571,1.571,0,0,0-1.574-1.571h-10.2v-.692a2.126,2.126,0,0,1,.222-.924,4.188,4.188,0,0,0,.359-2.567,4.246,4.246,0,0,0-8.431.732,4.2,4.2,0,0,0,.363,1.709,2.163,2.163,0,0,1,.189.855v.889h-9.947a1.571,1.571,0,0,0-1.571,1.571v27.664a1.28,1.28,0,0,0,1.28,1.28h28.027a1.284,1.284,0,0,0,1.28-1.28v-10h-1.133a2.031,2.031,0,0,0-.764.15,4.185,4.185,0,0,1-1.581.31,4.249,4.249,0,1,1-.3-8.493Z" transform="translate(-119.26 -152.144)" fill="#f83f00"/>
        <path id="Trazado_3183" data-name="Trazado 3183" d="M175.548,172.7a4.217,4.217,0,0,1,2.091.389,2.064,2.064,0,0,0,.892.209h.8V163.053a1.571,1.571,0,0,0-1.574-1.571h-10.2v-.692a2.126,2.126,0,0,1,.222-.924,4.188,4.188,0,0,0,.359-2.567,4.246,4.246,0,0,0-8.431.732,4.2,4.2,0,0,0,.363,1.709,2.163,2.163,0,0,1,.189.855v.889h-9.947a1.571,1.571,0,0,0-1.571,1.571v27.664a1.28,1.28,0,0,0,1.28,1.28h28.027a1.284,1.284,0,0,0,1.28-1.28v-10h-1.133a2.031,2.031,0,0,0-.764.15,4.185,4.185,0,0,1-1.581.31,4.249,4.249,0,1,1-.3-8.493Z" transform="translate(-119.26 -152.144)" fill="#fff" opacity="0.2"/>
        <path id="Trazado_3184" data-name="Trazado 3184" d="M100.6,165.17l-.506-11.531,4.573-3.469,4.162,2.035s.14,5.226,0,7.493a2.726,2.726,0,0,1-2.424,2.509s.056,1.326.108,2.721A2.963,2.963,0,0,1,103.52,168h0A2.963,2.963,0,0,1,100.6,165.17Z" transform="translate(-86.501 -149.717)" fill="#ffbe9d"/>
        <path id="Trazado_3185" data-name="Trazado 3185" d="M124.271,167.461a.291.291,0,1,1-.291-.291A.291.291,0,0,1,124.271,167.461Z" transform="translate(-102.392 -161.164)" fill="#263238"/>
        <path id="Trazado_3186" data-name="Trazado 3186" d="M123.954,166.367c-.039.039-.252-.144-.565-.16s-.546.134-.578.092.023-.088.124-.157a.761.761,0,0,1,.911.056C123.941,166.279,123.97,166.337,123.954,166.367Z" transform="translate(-101.794 -160.387)" fill="#263238"/>
        <path id="Trazado_3187" data-name="Trazado 3187" d="M113.981,167.461a.291.291,0,1,1-.291-.291A.291.291,0,0,1,113.981,167.461Z" transform="translate(-95.464 -161.164)" fill="#263238"/>
        <path id="Trazado_3188" data-name="Trazado 3188" d="M113.354,166.355c-.039.039-.252-.144-.565-.16s-.546.134-.578.091.023-.088.124-.157a.764.764,0,0,1,.454-.131.774.774,0,0,1,.448.18C113.341,166.267,113.37,166.326,113.354,166.355Z" transform="translate(-94.656 -160.375)" fill="#263238"/>
        <path id="Trazado_3189" data-name="Trazado 3189" d="M113.252,184.906a5.658,5.658,0,0,1-3-1.016,3.082,3.082,0,0,0,3.025,1.6Z" transform="translate(-93.343 -172.423)" fill="#eb996e"/>
        <path id="Trazado_3190" data-name="Trazado 3190" d="M119.072,169.541a2.288,2.288,0,0,1,.51-.065c.078,0,.157,0,.176-.072a.467.467,0,0,0-.046-.255q-.1-.3-.216-.653c-.147-.461-.274-.879-.363-1.182a2.189,2.189,0,0,1-.114-.5,2.082,2.082,0,0,1,.2.474c.108.3.252.712.4,1.173l.206.653a.49.49,0,0,1,.029.327.2.2,0,0,1-.131.114.738.738,0,0,1-.137,0A2.143,2.143,0,0,1,119.072,169.541Z" transform="translate(-99.248 -160.922)" fill="#263238"/>
        <path id="Trazado_3191" data-name="Trazado 3191" d="M117.575,176a.748.748,0,0,0-.327.183.3.3,0,0,0,.327.506.428.428,0,0,0,.284-.212.327.327,0,0,0-.039-.35.265.265,0,0,0-.327-.049" transform="translate(-97.982 -167.11)" fill="#eb996e"/>
        <path id="Trazado_3192" data-name="Trazado 3192" d="M117.947,176.4c0,.046-.258.118-.536-.042s-.353-.425-.307-.434.163.163.392.287S117.941,176.347,117.947,176.4Z" transform="translate(-97.949 -167.055)" fill="#263238"/>
        <path id="Trazado_3193" data-name="Trazado 3193" d="M107.739,148.786a3.267,3.267,0,0,0-2.554,1.094,3.717,3.717,0,0,0-.9,2.652,1.633,1.633,0,0,0,.327,1.009,2.025,2.025,0,0,0,1.378.5,3.286,3.286,0,0,0,1.525-.078,1.131,1.131,0,0,0,.777-1.189.745.745,0,0,0,.3,1.016,2.149,2.149,0,0,0,1.16.209h1.712a.941.941,0,0,0,.562-.121.98.98,0,0,0,.281-.706,4.823,4.823,0,0,0-.242-2.695,3.227,3.227,0,0,0-1.891-1.486,9.7,9.7,0,0,0-2.447-.193" transform="translate(-89.322 -148.784)" fill="#263238"/>
        <path id="Trazado_3194" data-name="Trazado 3194" d="M99.558,166.311c.624.327,1.806-.96,2.192-1.552a3.061,3.061,0,0,0,.327-2.045c-.082-.7-.268-1.392-.284-2.1a17.389,17.389,0,0,1,.611-3.364,8.571,8.571,0,0,0-.154-3.688,1.563,1.563,0,0,0-.784-1.156,1.143,1.143,0,0,0-1.124.232,2.737,2.737,0,0,0-.679.98l-.363,2.75.271,3.851Z" transform="translate(-85.969 -151.185)" fill="#263238"/>
        <path id="Trazado_3195" data-name="Trazado 3195" d="M102.265,209.939l1.666,5.684s-8.718,3.172-13.438,3.113c-4.426-.052-5.694-.555-7.248-4.129s-3.332-7.676-3.694-10.038c0,0-3.557-9.871,5.968-8.9l1.307,7.513s1.055,3.485,1.13,3.688c.712,1.882,1.633,4.638,2.525,4.972S102.265,209.939,102.265,209.939Z" transform="translate(-72.233 -180.31)" fill="#f83f00"/>
        <path id="Trazado_3196" data-name="Trazado 3196" d="M116.136,213.984a1.091,1.091,0,0,1-.229.059l-.653.14c-.581.121-1.424.3-2.469.542s-2.287.539-3.711.8a22.818,22.818,0,0,1-4.7.434h-.056l-.02-.052c-.18-.467-.369-.96-.549-1.463-1.254-3.525-2.208-6.765-2.979-9.084-.382-1.163-.7-2.1-.931-2.744-.108-.327-.2-.559-.261-.742a1.476,1.476,0,0,1-.082-.265s.042.085.114.252.17.412.291.732c.248.637.585,1.568.98,2.728.8,2.313,1.777,5.553,3.028,9.065.18.5.366.98.546,1.46l-.078-.052a23.38,23.38,0,0,0,4.668-.412c1.411-.255,2.662-.546,3.714-.764s1.895-.389,2.483-.493l.673-.108A2.06,2.06,0,0,1,116.136,213.984Z" transform="translate(-86.104 -184.354)" fill="#263238"/>
        <path id="Trazado_3197" data-name="Trazado 3197" d="M108.954,245.558a1.5,1.5,0,0,1-.255.118c-.17.072-.421.17-.748.291-.653.242-1.614.562-2.812.911s-2.633.732-4.23,1.137a27.142,27.142,0,0,1-5.288.924A9.747,9.747,0,0,1,94.2,248.9a6.027,6.027,0,0,1-1.356-.284,6.5,6.5,0,0,1-2.218-1.356,13.328,13.328,0,0,1-2.613-3.525c-.588-1.1-.98-2.029-1.261-2.672-.134-.327-.235-.572-.3-.745a1.517,1.517,0,0,1-.095-.261,1.336,1.336,0,0,1,.124.248c.082.183.193.425.327.732.291.634.706,1.552,1.307,2.643a13.414,13.414,0,0,0,2.613,3.462,6.424,6.424,0,0,0,2.166,1.307,5.841,5.841,0,0,0,1.307.271,9.414,9.414,0,0,0,1.395.036,27.384,27.384,0,0,0,5.256-.908c1.6-.4,3.038-.761,4.246-1.1s2.162-.653,2.822-.859l.758-.261A1.838,1.838,0,0,1,108.954,245.558Z" transform="translate(-77.256 -210.245)" fill="#263238"/>
        <path id="Trazado_3198" data-name="Trazado 3198" d="M91.2,251.14s1.633,6.272,5.88,6.144a24.421,24.421,0,0,0,8.235-1.944l-.189-.2s-7.186,1.548-9.182.575A9.139,9.139,0,0,1,91.2,251.14Z" transform="translate(-80.515 -217.705)" opacity="0.2"/>
        <path id="Trazado_3199" data-name="Trazado 3199" d="M151.532,238.884h1.336c1.212-.118,1.888-.137,2.228-.457.454-.434-.17-.856-.17-.856s.875-.3.794-.836c-.056-.366-.47-.405-.47-.405s.774-.3.928-.627c.206-.438-.327-.673-.327-.673,1.055-.653.96-1.307.715-1.359A3.345,3.345,0,0,0,155.5,234c-.7.2-2.594.777-1.891-.268a3.248,3.248,0,0,0,.689-2.43.4.4,0,0,0-.725.18,4.5,4.5,0,0,1-.493,1.169,3.072,3.072,0,0,1-.634.8c-.3.265-.562.477-.787.653l-1.189,1.143Z" transform="translate(-120.425 -204.224)" fill="#ffbe9d"/>
      </g>
    </g>
  </g>
</svg>
