<svg xmlns="http://www.w3.org/2000/svg" width="71.829" height="56.556" viewBox="0 0 71.829 56.556">
  <path id="comillas-2" d="M56.4-231.727a4.213,4.213,0,0,1,1.018-2.962,3.942,3.942,0,0,1,3.055-1.111h22.4a4.481,4.481,0,0,1,2.916,1.111,3.65,3.65,0,0,1,1.342,2.962v19.994q0,3.98-.278,7.868a27.7,27.7,0,0,1-4.536,13.283,32.485,32.485,0,0,1-11.2,10.228,2.414,2.414,0,0,1-.694.278q-.6.185-1.3.37t-1.342.324a5.4,5.4,0,0,1-.833.139,1.867,1.867,0,0,1-1.2-.37,12.622,12.622,0,0,1-1.018-.926l-3.517-2.684a4.876,4.876,0,0,1-1.851-1.9,4.577,4.577,0,0,1-.278-1.527,3.61,3.61,0,0,1,1.25-2.314q1.25-1.3,2.777-3.055A23.96,23.96,0,0,0,65.886-196a10.2,10.2,0,0,0,1.25-5.091v-4.073a1.782,1.782,0,0,0-1.666-1.944H60.193a3.55,3.55,0,0,1-2.823-1.111,4.338,4.338,0,0,1-.972-2.962Zm-41.1,0a4.213,4.213,0,0,1,1.018-2.962,3.942,3.942,0,0,1,3.055-1.111h22.4a4.481,4.481,0,0,1,2.916,1.111,3.65,3.65,0,0,1,1.342,2.962v19.994q0,3.98-.278,7.868a27.7,27.7,0,0,1-4.536,13.283,32.485,32.485,0,0,1-11.2,10.228,2.414,2.414,0,0,1-.694.278q-.6.185-1.3.37t-1.342.324a5.4,5.4,0,0,1-.833.139,1.867,1.867,0,0,1-1.2-.37,12.619,12.619,0,0,1-1.018-.926l-3.517-2.684a4.876,4.876,0,0,1-1.851-1.9,4.577,4.577,0,0,1-.278-1.527,3.61,3.61,0,0,1,1.25-2.314q1.25-1.3,2.777-3.055A23.96,23.96,0,0,0,24.788-196a10.2,10.2,0,0,0,1.25-5.091v-4.073a1.782,1.782,0,0,0-1.666-1.944H19.1a3.55,3.55,0,0,1-2.823-1.111,4.338,4.338,0,0,1-.972-2.962Z" transform="translate(-15.3 235.8)" fill="#ddd"/>
</svg>
