<svg xmlns="http://www.w3.org/2000/svg" width="20" height="20" viewBox="0 0 20 20">
  <g id="download" transform="translate(-0.939 1)">
    <rect id="Rectángulo_926" data-name="Rectángulo 926" width="20" height="20" transform="translate(0.939 -1)" fill="none"/>
    <path id="Trazado_5768" data-name="Trazado 5768" d="M16.888,12.382a2.55,2.55,0,0,1-2.547,2.547H7.435a2.55,2.55,0,0,1-2.547-2.547,1.049,1.049,0,1,1,2.1,0,.45.45,0,0,0,.449.449h6.906a.45.45,0,0,0,.449-.449,1.049,1.049,0,0,1,2.1,0Zm-6.741-2.1a1.049,1.049,0,0,0,1.483,0l3.1-3.1A1.049,1.049,0,0,0,13.243,5.7L11.937,7V1.049a1.049,1.049,0,0,0-2.1,0V7L8.534,5.7A1.049,1.049,0,1,0,7.051,7.181Z" transform="translate(0.552 1.5)" fill="#f83f00" stroke="#fafafa" stroke-width="0.5"/>
  </g>
</svg>
