<svg xmlns="http://www.w3.org/2000/svg" width="378" height="228" viewBox="0 0 378 228">
  <g id="ethnic-friendship-pana" transform="translate(13.563 1.234)">
    <rect id="Rectángulo_991" data-name="Rectángulo 991" width="378" height="228" transform="translate(-13.563 -1.234)" fill="none"/>
    <g id="Grupo_1942" data-name="Grupo 1942" transform="translate(-1)">
      <g id="freepik--background-complete--inject-84" transform="translate(19.438 36.766)">
        <path id="Trazado_1942" data-name="Trazado 1942" d="M117.5,107.786l-1.772.288-4.739-4.761-.571-3.543s-2.768.275-1.7,4.872.531,3.454.531,3.454-5.811.965-6.2,1.546c-.292.443.483,6.227.93,9.371a3.423,3.423,0,0,0,2.954,3.025,2.351,2.351,0,0,0,.638,0c1.453-.235,8.672-2.613,8.672-2.613l3.06-.492Z" transform="translate(-65.984 -71.867)" fill="#ebebeb"/>
        <path id="Trazado_1943" data-name="Trazado 1943" d="M141.7,113.83l.872,12.294-3.034.487-1.922-11.869Z" transform="translate(-85.28 -79.7)" fill="#ebebeb"/>
        <path id="Trazado_1944" data-name="Trazado 1944" d="M492.163,69.065a6.227,6.227,0,0,0-1.041-3.587,5.983,5.983,0,0,0-2.768-2.365,4.762,4.762,0,0,0-5.611,1.608,4.819,4.819,0,0,0-4.774-3.1,5.975,5.975,0,0,0-3.379,1.4,6.227,6.227,0,0,0-2.108,3.1,7.555,7.555,0,0,0,.19,4.743,10.753,10.753,0,0,0,3.1,3.986c2.152,1.816,5,4.11,5,4.11s2.963-1.554,5.571-2.6a10.713,10.713,0,0,0,4.19-2.826A7.582,7.582,0,0,0,492.163,69.065Z" transform="translate(-271.676 -50.609)" fill="#ebebeb"/>
        <path id="Trazado_1945" data-name="Trazado 1945" d="M540.588,38.46a2.8,2.8,0,0,0-1.107-1.249,2.657,2.657,0,0,0-1.568-.443,2.148,2.148,0,0,0-1.966,1.723,2.113,2.113,0,0,0-.811-.487,2.179,2.179,0,0,0-1.705.151,2.657,2.657,0,0,0-1.1,1.209,2.75,2.75,0,0,0-.261,1.643,3.379,3.379,0,0,0,.979,1.878,4.872,4.872,0,0,0,2.011,1.023c1.213.323,2.8.7,2.8.7a25.7,25.7,0,0,1,1.771-2.113,4.735,4.735,0,0,0,1.151-1.935,3.388,3.388,0,0,0-.195-2.1Z" transform="translate(-305.021 -36.766)" fill="#f5f5f5"/>
        <path id="Trazado_1946" data-name="Trazado 1946" d="M185.6,77.989a2.768,2.768,0,0,0-1.1-1.249,2.657,2.657,0,0,0-1.572-.443,2.148,2.148,0,0,0-1.966,1.723,2.1,2.1,0,0,0-.806-.487,2.214,2.214,0,0,0-1.709.151,2.657,2.657,0,0,0-1.094,1.209,2.772,2.772,0,0,0-.266,1.643,3.4,3.4,0,0,0,.983,1.878,4.832,4.832,0,0,0,2.006,1.023c1.214.323,2.8.7,2.8.7a25.7,25.7,0,0,1,1.771-2.113,4.788,4.788,0,0,0,1.147-1.94,3.379,3.379,0,0,0-.19-2.1Z" transform="translate(-107.25 -58.789)" fill="#f5f5f5"/>
        <circle id="Elipse_176" data-name="Elipse 176" cx="18.029" cy="18.029" r="18.029" transform="translate(259.596 67.78) rotate(-87.83)" fill="#ebebeb"/>
        <path id="Trazado_1947" data-name="Trazado 1947" d="M654.658,145.94c.31,0,.616.492.81,1.435a10.724,10.724,0,0,1-.093,4.035,16.116,16.116,0,0,1-2.276,5.629,16.909,16.909,0,0,1-12.5,7.741,16,16,0,0,1-6.045-.443,10.629,10.629,0,0,1-3.649-1.709c-.762-.593-1.063-1.089-.93-1.364.3-.607,2.214-.146,5.062-.128a17.976,17.976,0,0,0,17.272-10.7C653.55,147.84,653.984,145.936,654.658,145.94Z" transform="translate(-359.564 -97.589)" fill="#e0e0e0"/>
        <path id="Trazado_1948" data-name="Trazado 1948" d="M639.555,151.348a7.727,7.727,0,0,0,5.093-1.931,4.49,4.49,0,0,0,1.479-2.967,2.392,2.392,0,0,0-1.82-2.325,3.388,3.388,0,0,0-2.152.567,6.679,6.679,0,0,1-2.064.921,5.284,5.284,0,0,1-3.1-.784,5.715,5.715,0,0,0-3.1-.855,2.032,2.032,0,0,0-1.771,1.072,2.9,2.9,0,0,0,.385,2.772,8.038,8.038,0,0,0,7.051,3.53Z" transform="translate(-360.675 -96.483)" fill="#fff"/>
        <path id="Trazado_1949" data-name="Trazado 1949" d="M628.326,135.243a1.625,1.625,0,0,0-1.586-.957,1.063,1.063,0,0,0-.567.155h0a1.771,1.771,0,0,0-.757,1.652,1.577,1.577,0,0,0,1.94,1.253,1.625,1.625,0,0,0,.97-2.1Z" transform="translate(-357.037 -91.095)" fill="#fff"/>
        <path id="Trazado_1950" data-name="Trazado 1950" d="M667.017,137.633a1.63,1.63,0,0,0-1.586-.957,1.063,1.063,0,0,0-.567.155h0a1.771,1.771,0,0,0-.757,1.647,1.577,1.577,0,0,0,1.94,1.253,1.625,1.625,0,0,0,.97-2.1Z" transform="translate(-378.593 -92.427)" fill="#fff"/>
        <circle id="Elipse_177" data-name="Elipse 177" cx="14.907" cy="14.907" r="14.907" transform="translate(108.812 30.904) rotate(-72.39)" fill="#ebebeb"/>
        <path id="Trazado_1951" data-name="Trazado 1951" d="M314.414,76.135c.221-.044.523.31.806,1.041a9.212,9.212,0,0,1,.509,3.26,13.38,13.38,0,0,1-.97,4.872,13.924,13.924,0,0,1-8.773,8.2,13.339,13.339,0,0,1-4.911.647,9.181,9.181,0,0,1-3.215-.726c-.709-.332-1.045-.655-.988-.886.128-.478,1.736-.354,4.092-.766a16.944,16.944,0,0,0,3.95-1.169,13.858,13.858,0,0,0,7.033-6.563,17.021,17.021,0,0,0,1.43-3.862C313.945,77.845,313.927,76.228,314.414,76.135Z" transform="translate(-174 -58.698)" fill="#e0e0e0"/>
        <path id="Trazado_1952" data-name="Trazado 1952" d="M305.214,79.107a2.98,2.98,0,0,1-.717,1.479,5.536,5.536,0,0,1-7.276,1.382,2.944,2.944,0,0,1-1.214-1.107c.035-.027.492.394,1.368.833a5.642,5.642,0,0,0,6.878-1.329C304.9,79.656,305.148,79.058,305.214,79.107Z" transform="translate(-173.52 -60.353)" fill="#fff"/>
        <path id="Trazado_1953" data-name="Trazado 1953" d="M289.353,74.94a1.329,1.329,0,0,0-1.435-.518.886.886,0,0,0-.443.217h0a1.453,1.453,0,0,0-.35,1.457,1.3,1.3,0,0,0,1.772.7,1.329,1.329,0,0,0,.456-1.86Z" transform="translate(-168.535 -57.719)" fill="#fff"/>
        <path id="Trazado_1954" data-name="Trazado 1954" d="M321.64,70.684a7.14,7.14,0,0,0-.407-1.089,2.365,2.365,0,0,0-.846-.841,2.152,2.152,0,0,0-1.4-.244,2.183,2.183,0,0,0-1.262.66,2.334,2.334,0,0,0-.545,1.072,7.885,7.885,0,0,0-.058,1.16c-.035.031-.341-.407-.257-1.213a2.462,2.462,0,0,1,.554-1.275,2.422,2.422,0,0,1,1.5-.828,2.387,2.387,0,0,1,2.6,1.377C321.84,70.188,321.685,70.684,321.64,70.684Z" transform="translate(-185.132 -54.194)" fill="#fff"/>
        <path id="Trazado_1955" data-name="Trazado 1955" d="M25.763,304.682s-3.986.4-2.108,9.194a101.466,101.466,0,0,0,3.609,13.362s.226,1.984-1.364,1.86-4.779-1.541-5.948.133-.3,3.919,2.113,6.262,7.489,7.666,7.945,8.149.766,1.453-.328,1.546-8.8-1.125-9.154,2.564,7.418,9.114,8.26,9.743.957,1.063.744,1.559-2.759-.177-4.974-.434-4.81-.159-4.836,1.984,3.95,7.728,16.014,12.237l5.726,1.723,4.429-4.043c8.977-9.234,10.186-15.979,9.238-17.91s-3.33-.886-5.217.279-3.911,2.852-4.314,2.5-.492-.819,0-1.727,5.222-9.137,3.317-12.321-8.348,1.2-9.376,1.594-1.16-.633-.957-1.258,2.529-7.617,3.689-10.753,1.067-5.509-.771-6.559-4.048,1.634-5.43,2.423-2.033-1.1-2.033-1.1a103.825,103.825,0,0,0-2.449-13.618c-2.051-8.747-5.926-7.361-5.926-7.361" transform="translate(-19.438 -185.999)" fill="#ebebeb"/>
        <path id="Trazado_1956" data-name="Trazado 1956" d="M51.456,386c-1.484-6.439-3.924-17.928-6.072-27.782S41.288,339.449,39.84,333l-1.723-7.631c-.2-.886-.359-1.594-.469-2.077l-.1-.527c-.027-.124-.035-.186-.035-.186s.022.062.053.182l.133.536c.12.483.288,1.178.5,2.068.443,1.8,1.041,4.4,1.772,7.622,1.479,6.439,3.454,15.35,5.6,25.2s4.57,21.347,6.019,27.795" transform="translate(-29.506 -196)" fill="#e0e0e0"/>
        <path id="Trazado_1957" data-name="Trazado 1957" d="M30.5,365.07a1.669,1.669,0,0,1,.376.217c.23.151.562.376.97.66.815.571,1.918,1.391,3.1,2.312l3.069,2.374.934.713a2.271,2.271,0,0,1,.332.275,1.668,1.668,0,0,1-.376-.217c-.235-.151-.562-.376-.97-.664-.806-.58-1.9-1.408-3.1-2.334l-3.1-2.352-.939-.709a2.272,2.272,0,0,1-.3-.275Z" transform="translate(-25.601 -219.672)" fill="#e0e0e0"/>
        <path id="Trazado_1958" data-name="Trazado 1958" d="M51.479,366.2c-.04-.031,1.541-2.378,3.543-5.248s3.649-5.168,3.689-5.142-1.541,2.378-3.543,5.248S51.523,366.226,51.479,366.2Z" transform="translate(-37.288 -214.513)" fill="#e0e0e0"/>
        <path id="Trazado_1959" data-name="Trazado 1959" d="M57.38,404.5a2.571,2.571,0,0,1,.332-.292l.93-.753c.784-.62,1.873-1.506,3.029-2.547s2.183-1.975,2.914-2.657l.886-.828a2.112,2.112,0,0,1,.332-.288,1.969,1.969,0,0,1-.279.341c-.19.208-.474.509-.828.886-.709.726-1.718,1.7-2.883,2.724s-2.263,1.9-3.069,2.507c-.407.306-.74.549-.97.709A1.643,1.643,0,0,1,57.38,404.5Z" transform="translate(-40.576 -237.533)" fill="#e0e0e0"/>
        <path id="Trazado_1960" data-name="Trazado 1960" d="M35.58,405.1a1.551,1.551,0,0,1,.394.111l1.045.368c.886.319,2.095.771,3.428,1.284s2.538.983,3.406,1.329l1.027.443a1.665,1.665,0,0,1,.368.177,1.549,1.549,0,0,1-.394-.111l-1.045-.368c-.886-.319-2.095-.775-3.428-1.284s-2.538-.983-3.406-1.329l-1.027-.443a1.96,1.96,0,0,1-.368-.177Z" transform="translate(-28.431 -241.974)" fill="#e0e0e0"/>
        <path id="Trazado_1961" data-name="Trazado 1961" d="M36.92,436.21a3.505,3.505,0,0,1,.5.151l1.329.465c1.129.4,2.688.974,4.4,1.612s3.282,1.222,4.4,1.665l1.329.523a2.844,2.844,0,0,1,.478.217,3.567,3.567,0,0,1-.5-.151l-1.329-.465c-1.129-.4-2.688-.974-4.4-1.612s-3.268-1.227-4.389-1.661l-1.329-.523A2.842,2.842,0,0,1,36.92,436.21Z" transform="translate(-29.178 -259.306)" fill="#e0e0e0"/>
        <path id="Trazado_1962" data-name="Trazado 1962" d="M64.4,434.069a3.3,3.3,0,0,1,.407-.385l1.147-1c.97-.846,2.3-2.015,3.738-3.353s2.706-2.573,3.623-3.477l1.094-1.072a3.1,3.1,0,0,1,.412-.376,3.326,3.326,0,0,1-.359.443c-.244.27-.6.651-1.041,1.116-.886.926-2.148,2.183-3.587,3.521s-2.79,2.493-3.782,3.313c-.5.412-.886.735-1.187.957A3.544,3.544,0,0,1,64.4,434.069Z" transform="translate(-44.487 -252.732)" fill="#e0e0e0"/>
        <path id="Trazado_1963" data-name="Trazado 1963" d="M602.008,373.246c-9.7-8.459-10.629-22.316-8.884-34.5.292-2.033.3-4.212,1.462-5.895s3.543-2.657,5.314-1.612c1.439.886,1.909,2.715,2.6,4.26a12.011,12.011,0,0,0,4.3,5.089,4.581,4.581,0,0,0,4.15.833c1.865-.784,2.334-3.193,2.538-5.222l1.138-11.355a19.517,19.517,0,0,1,1.262-5.961,6.3,6.3,0,0,1,4.429-3.831c2-.332,4.256,1.036,4.429,3.069a18.913,18.913,0,0,1-.217,2.533,2.144,2.144,0,0,0,1.036,2.144,2.5,2.5,0,0,0,2.33-.691,27.132,27.132,0,0,0,5.633-6.794,39.232,39.232,0,0,1,5.315-7.086,10.922,10.922,0,0,1,7.888-3.37c2.927.146,5.828,2.276,6.253,5.213s-1.55,5.664-3.618,7.786a45.615,45.615,0,0,1-10.4,7.972,3.834,3.834,0,0,0-1.772,1.523c-.585,1.329.554,2.79,1.838,3.379a23.4,23.4,0,0,0,4.681,1.045c1.581.359,3.2,1.24,3.64,2.8.607,2.166-1.36,4.15-3.224,5.39a38.972,38.972,0,0,1-12.2,5.394,13.119,13.119,0,0,0-4.491,1.617,3.781,3.781,0,0,0-1.67,4.172c.571,1.515,2.392,2.17,3.986,2.046a27.4,27.4,0,0,0,4.637-1.218c2.9-.753,6.484-.173,8.012,2.431a6.421,6.421,0,0,1,.071,5.757,15.153,15.153,0,0,1-3.618,4.686,38.789,38.789,0,0,1-17.888,9.934c-6.7,1.546-12.777,1.506-18.951-1.537" transform="translate(-338.655 -186.121)" fill="#ebebeb"/>
        <path id="Trazado_1964" data-name="Trazado 1964" d="M623.07,368.619a181.926,181.926,0,0,1,9.331-18.8l2.7-4.805c.886-1.572,1.772-3.136,2.728-4.61a91.32,91.32,0,0,1,5.983-8.153c2.033-2.489,4.03-4.8,5.948-6.918s3.724-4.088,5.452-5.8a72.236,72.236,0,0,1,8.756-7.485c1.1-.8,1.971-1.391,2.569-1.772l.682-.443a1.109,1.109,0,0,1,.239-.137,1.608,1.608,0,0,1-.217.168l-.66.474c-.585.412-1.444,1.023-2.529,1.838A76.525,76.525,0,0,0,655.4,319.7c-1.714,1.718-3.512,3.676-5.4,5.819s-3.9,4.429-5.912,6.949a91.188,91.188,0,0,0-5.943,8.136c-.952,1.466-1.825,3.016-2.715,4.593s-1.772,3.184-2.7,4.805a186.448,186.448,0,0,0-9.336,18.751" transform="translate(-355.736 -188.819)" fill="#e0e0e0"/>
        <path id="Trazado_1965" data-name="Trazado 1965" d="M655.93,350.514a4.08,4.08,0,0,1-.106-.886c-.049-.571-.089-1.4-.12-2.427-.071-2.055-.066-4.872-.053-8.016s-.027-5.961-.128-8.007c-.049-1.023-.093-1.851-.133-2.423a4.024,4.024,0,0,1,0-.886,4.23,4.23,0,0,1,.164.886c.084.567.168,1.4.252,2.418.168,2.05.248,4.872.235,8.02s-.04,5.881-.053,8.016v2.418a4.841,4.841,0,0,1-.057.886Z" transform="translate(-373.728 -198.947)" fill="#e0e0e0"/>
        <path id="Trazado_1966" data-name="Trazado 1966" d="M683.261,373.952a5.406,5.406,0,0,1-1.054,0c-.678,0-1.652-.035-2.861-.027-2.418,0-5.757.12-9.442.412s-7,.709-9.389,1.072c-1.2.177-2.166.345-2.83.443a6.1,6.1,0,0,1-1.045.142,5.2,5.2,0,0,1,1.014-.288c.66-.155,1.621-.363,2.817-.576,2.392-.443,5.718-.886,9.407-1.187a91.655,91.655,0,0,1,9.469-.3c1.214,0,2.214.089,2.87.146A5.574,5.574,0,0,1,683.261,373.952Z" transform="translate(-374.438 -224.439)" fill="#e0e0e0"/>
        <path id="Trazado_1967" data-name="Trazado 1967" d="M611.736,398.017a1.286,1.286,0,0,1-.146-.337l-.345-.992c-.292-.864-.686-2.121-1.156-3.685-.939-3.127-2.095-7.485-3.308-12.312s-2.33-9.19-3.2-12.33c-.443-1.528-.78-2.786-1.041-3.716-.111-.407-.2-.74-.279-1.014a.186.186,0,1,1,.075-.022l.341.988c.3.886.691,2.126,1.16,3.689.934,3.122,2.095,7.48,3.308,12.312s2.33,9.19,3.2,12.33c.443,1.523.779,2.781,1.041,3.716.111.4.2.74.275,1.014a1.267,1.267,0,0,1,.075.359Z" transform="translate(-344.03 -218.664)" fill="#e0e0e0"/>
        <path id="Trazado_1968" data-name="Trazado 1968" d="M659.8,424.939a1.5,1.5,0,0,1-.363.106l-1.041.23-3.844.8c-3.246.682-7.715,1.67-12.657,2.768s-9.424,2.051-12.684,2.657c-1.63.306-2.954.54-3.871.686l-1.054.159a.188.188,0,1,1-.013-.08l1.045-.226,3.84-.8c3.246-.682,7.719-1.67,12.657-2.772s9.424-2.046,12.684-2.657c1.634-.31,2.954-.545,3.871-.686l1.054-.159A1.829,1.829,0,0,1,659.8,424.939Z" transform="translate(-356.204 -253.026)" fill="#e0e0e0"/>
      </g>
      <g id="freepik--Characters--inject-84" transform="translate(37.206 66.069)">
        <path id="Trazado_1969" data-name="Trazado 1969" d="M349.938,161.88c-1.258,3.255-2.015,4.052-3.68,7.458-1.466,3-.151,7.064,2.29,9.3a12.631,12.631,0,0,0,5.868,2.542c4.69,1.085,9.562,1.878,14.292,1a21.006,21.006,0,0,0,11.639-6.515,21.484,21.484,0,0,0,5.39-12.321" transform="translate(-218.944 -135.773)" fill="#f83f00"/>
        <g id="Grupo_646" data-name="Grupo 646" transform="translate(126.7 26.107)" opacity="0.5">
          <path id="Trazado_1970" data-name="Trazado 1970" d="M349.938,161.88c-1.258,3.255-2.015,4.052-3.68,7.458-1.466,3-.151,7.064,2.29,9.3a12.631,12.631,0,0,0,5.868,2.542c4.69,1.085,9.562,1.878,14.292,1a21.006,21.006,0,0,0,11.639-6.515,21.484,21.484,0,0,0,5.39-12.321" transform="translate(-345.643 -161.88)"/>
        </g>
        <path id="Trazado_1971" data-name="Trazado 1971" d="M358.36,151.83a68.967,68.967,0,0,1-3.153-11.515,24.193,24.193,0,0,1,.8-11.812c.2-.571,1.953-4.393,2.555-4.345.443.04-.633,3.6-.412,3.986a20.481,20.481,0,0,1,2.454,11.931,54.032,54.032,0,0,1-2.245,11.78" transform="translate(-224.067 -114.757)" fill="#263238"/>
        <path id="Trazado_1972" data-name="Trazado 1972" d="M373.188,177.145a11.373,11.373,0,0,1-11.271-11.222l-.478-37.2c-.443-9.991,5-18.6,15-18.751l.926.04a17.874,17.874,0,0,1,17.13,17.161c.341,8.663.6,18.238.354,22.866-.514,9.584-10.186,10.678-10.186,10.678s-.027,2.214,0,5.04a11.373,11.373,0,0,1-11.47,11.391Z" transform="translate(-227.73 -106.853)" fill="#a36957"/>
        <path id="Trazado_1973" data-name="Trazado 1973" d="M398.49,219.247a23.155,23.155,0,0,1-12.33-4.207s2.755,7.086,12.361,6.643Z" transform="translate(-241.517 -165.389)" fill="#7c3b29"/>
        <path id="Trazado_1974" data-name="Trazado 1974" d="M424.367,160.593a1.368,1.368,0,0,1-1.377,1.329,1.329,1.329,0,0,1-1.36-1.293,1.377,1.377,0,0,1,1.377-1.329A1.329,1.329,0,0,1,424.367,160.593Z" transform="translate(-261.278 -134.335)" fill="#263238"/>
        <path id="Trazado_1975" data-name="Trazado 1975" d="M424.3,155.628c-.177.173-1.182-.638-2.657-.7s-2.582.633-2.737.443c-.075-.084.111-.4.6-.722a3.765,3.765,0,0,1,2.214-.58,3.6,3.6,0,0,1,2.1.779C424.255,155.22,424.392,155.553,424.3,155.628Z" transform="translate(-259.753 -131.421)" fill="#263238"/>
        <path id="Trazado_1976" data-name="Trazado 1976" d="M392.031,160.213a1.373,1.373,0,0,1-1.377,1.329,1.329,1.329,0,0,1-1.364-1.293,1.373,1.373,0,0,1,1.377-1.329A1.329,1.329,0,0,1,392.031,160.213Z" transform="translate(-243.26 -134.123)" fill="#263238"/>
        <path id="Trazado_1977" data-name="Trazado 1977" d="M391.664,155.192c-.182.128-1.187-.443-2.657-.5a26.87,26.87,0,0,0-2.737.328c-.075-.058.111-.288.6-.527a4.823,4.823,0,0,1,2.214-.443,4.477,4.477,0,0,1,2.108.567C391.606,154.909,391.748,155.139,391.664,155.192Z" transform="translate(-241.569 -131.406)" fill="#263238"/>
        <path id="Trazado_1978" data-name="Trazado 1978" d="M409.11,168.172a9.855,9.855,0,0,1,2.414-.332c.376-.022.735-.084.81-.337a1.922,1.922,0,0,0-.208-1.129q-.469-1.382-.992-2.91c-1.377-4.141-2.356-7.529-2.188-7.6s1.417,3.26,2.794,7.4c.328,1.023.647,2,.948,2.927a2.175,2.175,0,0,1,.133,1.484.956.956,0,0,1-.642.527,2.657,2.657,0,0,1-.642.062A9.647,9.647,0,0,1,409.11,168.172Z" transform="translate(-254.201 -132.423)" fill="#263238"/>
        <path id="Trazado_1979" data-name="Trazado 1979" d="M399.106,185.55c.244,0,.177,1.594,1.5,2.786s3.034,1.085,3.034,1.329c0,.1-.39.3-1.112.283a3.986,3.986,0,0,1-2.538-1,3.49,3.49,0,0,1-1.156-2.334C398.8,185.922,399,185.536,399.106,185.55Z" transform="translate(-248.577 -148.96)" fill="#263238"/>
        <path id="Trazado_1980" data-name="Trazado 1980" d="M390.346,142.564c-.164.394-1.625.146-3.366.283s-3.153.549-3.366.182c-.1-.177.159-.545.74-.886a5.85,5.85,0,0,1,5.128-.354C390.107,142.05,390.417,142.378,390.346,142.564Z" transform="translate(-240.087 -124.34)" fill="#263238"/>
        <path id="Trazado_1981" data-name="Trazado 1981" d="M423.895,144.434c-.27.328-1.271-.062-2.493-.128s-2.263.128-2.485-.23c-.1-.173.075-.5.54-.8a3.481,3.481,0,0,1,2.05-.443,3.446,3.446,0,0,1,1.966.757C423.891,143.925,424.015,144.279,423.895,144.434Z" transform="translate(-259.752 -125.152)" fill="#263238"/>
        <path id="Trazado_1982" data-name="Trazado 1982" d="M354.317,167.907c-.159-.075-6.506-2.214-6.568,4.345s6.541,5.27,6.555,5.084S354.317,167.907,354.317,167.907Z" transform="translate(-220.117 -138.912)" fill="#a36957"/>
        <path id="Trazado_1983" data-name="Trazado 1983" d="M354.441,177.424c-.031-.022-.115.08-.31.168a1.16,1.16,0,0,1-.855,0,2.836,2.836,0,0,1-1.289-2.551,3.8,3.8,0,0,1,.337-1.634,1.329,1.329,0,0,1,.886-.886.585.585,0,0,1,.673.323c.084.182.044.314.08.323s.142-.106.089-.376a.744.744,0,0,0-.252-.416.886.886,0,0,0-.633-.173,1.616,1.616,0,0,0-1.2,1.005,3.933,3.933,0,0,0-.412,1.829,2.96,2.96,0,0,0,1.643,2.848,1.213,1.213,0,0,0,1.045-.164C354.428,177.6,354.463,177.451,354.441,177.424Z" transform="translate(-222.234 -141.521)" fill="#7c3b29"/>
        <path id="Trazado_1984" data-name="Trazado 1984" d="M386.909,114.834c1.063-.589-2.121-4.03-4.734-5.217-3.942-1.772-9.969-2.9-13.61-1.869-4.38,1.222-8.02,3.437-10.235,7.423a25.7,25.7,0,0,0-2.905,13.18,7.828,7.828,0,0,0,.926,4.012c.912,1.453,2.657,2.365,2.6,4.367a2.728,2.728,0,0,0,.682,2.006c1.2,1.28,2.657.08,3.344-1.125,1.444-2.569,1.608-5.638,1.736-8.583a19.157,19.157,0,0,0-.412-6.245c-.319-1.094-.837-2.13-1.094-3.242a3.957,3.957,0,0,1,.465-3.277,4.308,4.308,0,0,1,.536-.536,6.829,6.829,0,0,1,6.789-1.289c3.7,1.329,10.009,3.264,11.661,2.011a10.158,10.158,0,0,0,2.941-2.981Z" transform="translate(-224.387 -105.396)" fill="#263238"/>
        <path id="Trazado_1985" data-name="Trazado 1985" d="M390.589,111.54a8.96,8.96,0,0,0-2.914-3.251,46.334,46.334,0,0,0-11.67-5.239c-2.839-.562-8.765,1.027-9.5,1.4s-7.471,4.172-8.171,4.973-3.361,6.019-3.361,7.6-.638,8.565-.638,8.565l.709,3.618s5.793-13.052,12.064-14.34,15.1-1.351,15.873-1.081,4.322,1.771,5.408,3.512a30.947,30.947,0,0,1,2.192,5.049S391.449,113.094,390.589,111.54Zm-22.179.784s1.515-6.05,6.572-6.811,8.543,3.689,8.6,4.522l.084,1.253Z" transform="translate(-223.789 -102.931)" fill="#f83f00"/>
        <path id="Trazado_1986" data-name="Trazado 1986" d="M419.861,124.181c0-.035.155-.1.31-.314a1.121,1.121,0,0,0,.151-.965,2.729,2.729,0,0,0-.509-.921c-.173-.217-.283-.359-.257-.385s.168.08.376.279a2.117,2.117,0,0,1,.611.97,1.169,1.169,0,0,1-.248,1.129C420.073,124.2,419.861,124.208,419.861,124.181Z" transform="translate(-260.12 -113.327)" fill="#263238"/>
        <path id="Trazado_1987" data-name="Trazado 1987" d="M415.526,123.655a.482.482,0,0,0-.053.3.337.337,0,0,0,.133.239.3.3,0,0,0,.443-.283.359.359,0,0,0-.164-.217c-.155-.093-.279-.04-.3-.071s.111-.159.363-.075a.484.484,0,1,1-.629.407C415.335,123.691,415.521,123.624,415.526,123.655Z" transform="translate(-257.76 -114.4)" fill="#263238"/>
        <path id="Trazado_1988" data-name="Trazado 1988" d="M408.975,124.065c.022.027-.075.12-.053.3a.336.336,0,0,0,.133.235.279.279,0,0,0,.3,0,.266.266,0,0,0,.133-.266.328.328,0,0,0-.164-.217c-.155-.093-.279-.04-.292-.071s.111-.159.359-.08a.478.478,0,0,1,.306.319.465.465,0,0,1-.217.5.474.474,0,0,1-.549,0,.492.492,0,0,1-.168-.407C408.785,124.1,408.971,124.034,408.975,124.065Z" transform="translate(-254.106 -114.637)" fill="#263238"/>
        <path id="Trazado_1989" data-name="Trazado 1989" d="M402.444,124.468a.557.557,0,0,0-.053.3.336.336,0,0,0,.133.239.261.261,0,0,0,.292,0,.275.275,0,0,0,.137-.266.359.359,0,0,0-.164-.217c-.155-.089-.283-.04-.3-.071s.111-.159.363-.075a.491.491,0,0,1,.306.314.478.478,0,0,1-.217.509.443.443,0,0,1-.549,0,.474.474,0,0,1-.168-.407C402.254,124.5,402.44,124.437,402.444,124.468Z" transform="translate(-250.467 -114.862)" fill="#263238"/>
        <path id="Trazado_1990" data-name="Trazado 1990" d="M395.9,124.845c.022.027-.075.12-.053.3a.323.323,0,0,0,.133.235.261.261,0,0,0,.3,0,.266.266,0,0,0,.133-.266.328.328,0,0,0-.164-.217c-.155-.093-.279-.04-.3-.071s.111-.159.363-.08a.478.478,0,0,1,.306.319.443.443,0,0,1-.217.5.446.446,0,0,1-.717-.407C395.714,124.889,395.9,124.819,395.9,124.845Z" transform="translate(-246.824 -115.071)" fill="#263238"/>
        <path id="Trazado_1991" data-name="Trazado 1991" d="M389.386,125.235c.022.027-.075.12-.053.3a.35.35,0,0,0,.128.239.3.3,0,0,0,.443-.279.332.332,0,0,0-.164-.217c-.155-.093-.283-.044-.3-.075s.111-.159.359-.075a.474.474,0,1,1-.624.407C389.2,125.271,389.381,125.2,389.386,125.235Z" transform="translate(-243.197 -115.28)" fill="#263238"/>
        <path id="Trazado_1992" data-name="Trazado 1992" d="M392.9,108.475c.536,0,.788-.771,1.329-.771a1.559,1.559,0,0,1,1.329.779,1.253,1.253,0,0,1,2.387.182,1.838,1.838,0,0,1,1.262-.1c.4.164.6.788.244,1.032a1.705,1.705,0,0,1,1.732-.089.983.983,0,0,1,.159,1.541,1.408,1.408,0,0,1,1.648,2.214.6.6,0,0,1-.376.221c-.275,0-.465-.27-.518-.54a3.443,3.443,0,0,0-.129-.8c-.111-.248-.443-.443-.655-.235.27.443.527,1.058.186,1.461-.23.279-.469.607-.833.616-2.068.044-12.458.943-14.522.988C386.127,114.976,387.938,108.714,392.9,108.475Z" transform="translate(-241.505 -105.583)" fill="#263238"/>
        <path id="Trazado_1993" data-name="Trazado 1993" d="M352.925,144.135c-.062.554-.647.886-1.187,1.01a6.169,6.169,0,0,0-1.621.368c-.492.261-.819.957-.443,1.377a1.224,1.224,0,0,0,1.289.151,6.36,6.36,0,0,0,4.136-4.309,1.777,1.777,0,0,0,2.281-.6,5.159,5.159,0,0,0,.766-2.454,4.318,4.318,0,0,0,4.349-4.2c-.022-1.249-.593-2.538-.142-3.7A25.6,25.6,0,0,0,357.89,136C356.42,138.006,352.925,144.135,352.925,144.135Z" transform="translate(-221.099 -118.998)" fill="#263238"/>
        <path id="Trazado_1994" data-name="Trazado 1994" d="M350.82,146.124a.492.492,0,0,0-.492.531.749.749,0,0,0,.5.607,1.709,1.709,0,0,0,.819.066,4.814,4.814,0,0,0,2.294-.886,1.466,1.466,0,0,0,1.59.669,2.086,2.086,0,0,0,1.377-1.147,3.862,3.862,0,0,0,.35-1.8,1.67,1.67,0,0,0,1.9-.066,2.6,2.6,0,0,0,.979-1.727,6.2,6.2,0,0,0-.08-2.024,1.139,1.139,0,0,0,1.7-.469,2.117,2.117,0,0,0-.279-1.958,1.679,1.679,0,0,0,.917-2.294.935.935,0,0,0,1.284-.368,2,2,0,0,0,.1-1.47,10.009,10.009,0,0,1-.372-1.466,2.524,2.524,0,0,1,.624-1.9,6.138,6.138,0,0,0-3.2,1.829,18.074,18.074,0,0,0-2.237,2.989l-5.536,8.548" transform="translate(-221.553 -118.246)" fill="#263238"/>
        <path id="Trazado_1995" data-name="Trazado 1995" d="M363.641,130.6a1.519,1.519,0,0,0-.372,1.643,7.874,7.874,0,0,0,.319.886,4.114,4.114,0,0,1,.319,1.094,1.524,1.524,0,0,1-.354,1.262,1.152,1.152,0,0,1-.669.314.828.828,0,0,1-.74-.27l.168-.093a2.516,2.516,0,0,1-.288,2.157,2.555,2.555,0,0,1-2.015,1.244l.1-.151a3.481,3.481,0,0,1-1.723,4.194l.062-.089a8.061,8.061,0,0,1-.328,1.572,2.954,2.954,0,0,1-.828,1.329,2.068,2.068,0,0,1-1.382.443,1.386,1.386,0,0,1-1.174-.647h.164a3.021,3.021,0,0,1-1.705,1.492,2.839,2.839,0,0,1-1.732.044,2.768,2.768,0,0,1-.988-.5,1.848,1.848,0,0,1-.217-.19c-.044-.049-.066-.075-.062-.08s.1.084.31.226a2.985,2.985,0,0,0,.983.443,2.83,2.83,0,0,0,3.242-1.519l.075-.155.089.151a1.2,1.2,0,0,0,1.023.54,1.869,1.869,0,0,0,1.24-.443,2.79,2.79,0,0,0,.753-1.218,7.97,7.97,0,0,0,.31-1.532v-.062l.058-.027a3.255,3.255,0,0,0,1.616-3.915l-.053-.146H360a2.352,2.352,0,0,0,1.842-1.134,2.321,2.321,0,0,0,.283-1.975l-.19-.523.359.443a.819.819,0,0,0,1.134-.049,1.391,1.391,0,0,0,.319-1.116,18.353,18.353,0,0,0-.589-1.975,1.811,1.811,0,0,1,.146-1.329A.815.815,0,0,1,363.641,130.6Z" transform="translate(-221.482 -118.346)" fill="#455a64"/>
        <path id="Trazado_1996" data-name="Trazado 1996" d="M406.131,114.429a.6.6,0,0,0-.031-.381.394.394,0,0,0-.341-.239.443.443,0,0,0-.443.306l-.133-.027a1.43,1.43,0,0,0-.748-1.408,1.386,1.386,0,0,0-1.82.629l-.146-.146a.331.331,0,0,0,.084-.443.6.6,0,0,0-.5-.283,2.83,2.83,0,0,0-1.377.261,3.211,3.211,0,0,0-1.621,1.6l-.155-.142a.443.443,0,0,0,.208-.443.6.6,0,0,0-.248-.443,1.585,1.585,0,0,0-1.05-.221,3.322,3.322,0,0,0-1.732.664,4.014,4.014,0,0,0-1.072,1.329.3.3,0,0,1,.031-.115,2.186,2.186,0,0,1,.137-.314,3.163,3.163,0,0,1,.819-.983,3.335,3.335,0,0,1,1.8-.744,1.723,1.723,0,0,1,1.187.244.824.824,0,0,1,.341.6.664.664,0,0,1-.323.66l-.275.146.124-.288a3.45,3.45,0,0,1,1.727-1.727,3.065,3.065,0,0,1,1.506-.275.811.811,0,0,1,.664.412.638.638,0,0,1,.058.4.47.47,0,0,1-.239.345l-.3.151.146-.292a1.532,1.532,0,0,1,2.9.886l-.128-.027a.545.545,0,0,1,.567-.376.474.474,0,0,1,.4.314A.305.305,0,0,1,406.131,114.429Z" transform="translate(-246.447 -108.118)" fill="#455a64"/>
        <path id="Trazado_1997" data-name="Trazado 1997" d="M435.951,145.271a2.551,2.551,0,0,0,.558,1.656,10.043,10.043,0,0,1,1.284,1.6,1.292,1.292,0,0,1-.443,1.771,2.75,2.75,0,0,1-1.532,4.256c-.137-2.892-.071-6.927-.084-9.819" transform="translate(-269.133 -126.224)" fill="#263238"/>
        <path id="Trazado_1998" data-name="Trazado 1998" d="M447.882,227.3a18.416,18.416,0,0,0-.443-2.471,2.79,2.79,0,0,0-1.581-1.842,1.55,1.55,0,0,0-2.015.943,2.994,2.994,0,0,0-5.124-.549,3.153,3.153,0,0,0-2.972-1.2,3.1,3.1,0,0,0-1.842,1.284,4.106,4.106,0,0,0-.886-1.665,2.75,2.75,0,0,0-2.555-.917.4.4,0,0,0-.239.128c-.089.12-.027.283.035.443a8.447,8.447,0,0,1,.713,3.051l3.122.221h0l1.187.089c.554,1.16.35,2.418.5,3.7s.837,2.715,2.113,2.892a2.483,2.483,0,0,0,2.489-1.935,7.252,7.252,0,0,0-.151-3.41,5.688,5.688,0,0,1,.589,2.657,5.558,5.558,0,0,0,.611,2.657,1.894,1.894,0,0,0,2.347.85,2.223,2.223,0,0,0,.921-2.254,9.1,9.1,0,0,1-.111-2.564,5.5,5.5,0,0,0,.323,2.7,1.883,1.883,0,0,0,2.254,1.067,1.953,1.953,0,0,0,1.023-1.732A9.124,9.124,0,0,0,447.882,227.3Z" transform="translate(-266.041 -168.626)" fill="#b78876"/>
        <path id="Trazado_1999" data-name="Trazado 1999" d="M449.651,231.473c-.031,0,0-.443-.04-1.169a14.738,14.738,0,0,0-.443-2.772,4.872,4.872,0,0,0-1.4-2.352c-.536-.469-.957-.651-.935-.686s.115,0,.3.1a3.544,3.544,0,0,1,.74.443,3.987,3.987,0,0,1,.886.965,5.477,5.477,0,0,1,.642,1.448,11.694,11.694,0,0,1,.368,2.83,3.4,3.4,0,0,1-.124,1.191Z" transform="translate(-275.322 -170.649)" fill="#aa6550"/>
        <path id="Trazado_2000" data-name="Trazado 2000" d="M460.189,232.618a8.536,8.536,0,0,1-.058-1.2c-.027-.74-.1-1.772-.23-2.874-.071-.558-.124-1.1-.23-1.563a2.838,2.838,0,0,0-.5-1.143,2.166,2.166,0,0,0-.926-.682,1.428,1.428,0,0,1,.323.053,1.793,1.793,0,0,1,.731.523,2.843,2.843,0,0,1,.58,1.2,13.333,13.333,0,0,1,.257,1.585,22.354,22.354,0,0,1,.164,2.9,4.871,4.871,0,0,1-.106,1.2Z" transform="translate(-281.674 -171.028)" fill="#aa6550"/>
        <path id="Trazado_2001" data-name="Trazado 2001" d="M438.77,224.3c.031.062-.576.416-1.151,1.05s-.886,1.267-.939,1.236a2.63,2.63,0,0,1,.771-1.391A2.657,2.657,0,0,1,438.77,224.3Z" transform="translate(-269.663 -170.548)" fill="#aa6550"/>
        <path id="Trazado_2002" data-name="Trazado 2002" d="M470.19,239.4s25.474.368,29.172,0,34.287,2.343,34.287,2.343l-4.491,7.675L473.14,259.468Z" transform="translate(-288.332 -178.94)" fill="#a36957"/>
        <path id="Trazado_2003" data-name="Trazado 2003" d="M397.705,253.8l-.257-22.587-17.21-2.852-20.319-1.484s1.209,7.343-8.22,8.579-14.677-9.269-14.677-9.269L317,231.163l1.909,38.158-.168,61.56h67.14s-3.716-65.581-3.9-71.4Z" transform="translate(-202.986 -171.601)" fill="#f5f5f5"/>
        <path id="Trazado_2004" data-name="Trazado 2004" d="M462.208,290.08a1.538,1.538,0,0,1-.031-.306c0-.221-.022-.514-.035-.886-.035-.788-.08-1.882-.133-3.22-.124-2.719-.368-6.47-.691-10.629s-.611-7.9-.775-10.629c-.08-1.355-.137-2.458-.164-3.22,0-.363-.022-.651-.031-.886a1.256,1.256,0,0,1,0-.306,1.926,1.926,0,0,1,.04.306c0,.221.04.514.071.886.058.788.142,1.878.239,3.215l.841,10.629c.323,4.141.54,7.9.62,10.629.044,1.36.066,2.462.062,3.224v.886A1.5,1.5,0,0,1,462.208,290.08Z" transform="translate(-282.844 -190.438)" fill="#263238"/>
        <path id="Trazado_2005" data-name="Trazado 2005" d="M385.652,338.229H321.32V324.571l63.407-.381Z" transform="translate(-205.393 -226.2)" fill="#455a64"/>
        <path id="Trazado_2006" data-name="Trazado 2006" d="M353.125,381.08a52.472,52.472,0,0,0,20.669,6.364,29.263,29.263,0,0,1,7.2,1.1c2.294.815,4.429,2.573,4.916,4.96.328,1.643-.487,3.689-2.139,3.946a4.354,4.354,0,0,1-1.794-.217A76.135,76.135,0,0,1,352,381.191" transform="translate(-222.485 -257.894)" fill="#e0e0e0"/>
        <path id="Trazado_2007" data-name="Trazado 2007" d="M391.9,397.024h-.128l-.381-.049-1.453-.217-1.05-.164c-.385-.066-.8-.155-1.24-.239-.886-.182-1.909-.359-3.016-.642l-1.745-.416c-.607-.146-1.227-.337-1.873-.518-1.3-.341-2.657-.8-4.1-1.267a82.164,82.164,0,0,1-17.693-8.468c-1.262-.828-2.471-1.6-3.543-2.4-.545-.394-1.085-.757-1.581-1.138l-1.417-1.094c-.917-.686-1.692-1.368-2.387-1.949-.345-.292-.673-.558-.965-.815l-.784-.717-1.081-1-.279-.266a.487.487,0,0,1-.089-.093.874.874,0,0,1,.106.075l.292.248,1.107.965.8.7.974.8c.709.567,1.488,1.24,2.409,1.918l1.422,1.081c.5.372,1.036.731,1.581,1.12,1.085.788,2.3,1.554,3.543,2.374a84.325,84.325,0,0,0,17.649,8.45c1.43.469,2.786.934,4.079,1.284.647.182,1.262.376,1.865.527l1.736.443c1.1.292,2.117.478,3,.669l1.236.261,1.045.182,1.448.257.376.075Z" transform="translate(-219.755 -254.83)" fill="#263238"/>
        <path id="Trazado_2008" data-name="Trazado 2008" d="M430.148,297.539a2.145,2.145,0,0,1,0-.261v-.726c0-.647-.022-1.554-.035-2.693l.066.066c-3.233.031-8.45.049-14.318.049l.115-.115h0v3.676l-.111-.115,10.186.053,3.02.031h1.112a1.843,1.843,0,0,1-.266,0h-.793l-2.994.035-10.266.049h-.115V293.85h0l.115-.12c5.868,0,11.072.022,14.318.049h.071v.071c0,1.156-.031,2.077-.04,2.733v.713A1.7,1.7,0,0,1,430.148,297.539Z" transform="translate(-258.002 -209.23)" fill="#263238"/>
        <path id="Trazado_2009" data-name="Trazado 2009" d="M363.853,249.3a6.779,6.779,0,0,1-.859.571c-.461.319-.793.638-.841.593s.217-.443.709-.784A1.6,1.6,0,0,1,363.853,249.3Z" transform="translate(-228.139 -184.477)" fill="#263238"/>
        <path id="Trazado_2010" data-name="Trazado 2010" d="M381.061,260.82a7.8,7.8,0,0,1-.394,1.165,7.607,7.607,0,0,1-.372,1.169,2.3,2.3,0,0,1,.151-1.245A2.237,2.237,0,0,1,381.061,260.82Z" transform="translate(-238.234 -190.895)" fill="#263238"/>
        <path id="Trazado_2011" data-name="Trazado 2011" d="M404.212,258.758c-.066,0-.248-.443-.6-.934s-.717-.819-.678-.886.5.213.864.74A1.7,1.7,0,0,1,404.212,258.758Z" transform="translate(-250.861 -188.726)" fill="#263238"/>
        <path id="Trazado_2012" data-name="Trazado 2012" d="M414.555,246.248c-.053.04-.412-.363-.965-.709s-1.067-.514-1.05-.58a1.842,1.842,0,0,1,1.174.385C414.307,245.717,414.6,246.213,414.555,246.248Z" transform="translate(-256.213 -182.058)" fill="#263238"/>
        <path id="Trazado_2013" data-name="Trazado 2013" d="M384.3,227.676a12.556,12.556,0,0,1,.483,1.962,15.217,15.217,0,0,1,.213,2.365,13.217,13.217,0,0,1-.292,3.127,12.4,12.4,0,0,1-1.355,3.543,11.7,11.7,0,0,1-2.857,3.313,13.671,13.671,0,0,1-4.247,2.3,15.683,15.683,0,0,1-5.129.788,14.287,14.287,0,0,1-9.234-3.459,15.1,15.1,0,0,1-4.38-6.829,15.719,15.719,0,0,1-.616-3.1,15.191,15.191,0,0,1,0-2.374q.044-.487.093-.886c.04-.248.084-.443.115-.62l.084-.381a1.2,1.2,0,0,1,.031-.128.608.608,0,0,1,0,.133c0,.1-.035.226-.058.385s-.062.381-.1.62-.044.54-.071.859a16.147,16.147,0,0,0,.049,2.356,15.875,15.875,0,0,0,.642,3.047,15.093,15.093,0,0,0,4.362,6.718,14.172,14.172,0,0,0,9.083,3.463,15.5,15.5,0,0,0,5.053-.775,13.517,13.517,0,0,0,4.185-2.25,11.572,11.572,0,0,0,2.821-3.242,12.21,12.21,0,0,0,1.364-3.5,13.337,13.337,0,0,0,.323-3.1,16.286,16.286,0,0,0-.173-2.352c-.106-.638-.2-1.134-.288-1.466l-.084-.376a.621.621,0,0,1-.022-.146Z" transform="translate(-225.179 -172.22)" fill="#263238"/>
        <path id="Trazado_2014" data-name="Trazado 2014" d="M225.127,180.093l.443-.111a36.381,36.381,0,0,1-.443-11.909c.443-4.792,1.275-9.579,1.045-14.389s-1.648-9.77-5.031-13.189l-10.629-6.076c-19.584-2.564-28.052,11.8-31,18.995s-3.893,15.031-5.341,22.675c-.589,3.1-1.391,6.413-3.76,8.5-1.652,1.457-3.95,2.214-5.2,3.986-1.528,2.214-1.063,5.465-2.857,7.471-1.621,1.816-4.429,1.9-6.466,3.268-2.214,1.492-3.131,4.331-3.211,7s.523,5.315.678,7.972c.261,4.544-.788,9.052-1.041,13.592a17.6,17.6,0,0,0,4.615,12.759l2.409-22.144s2.9-18.069,6.5-21.776a38.309,38.309,0,0,1,10.186-6.555c7.365-2.954,16.028-2.573,16.028-2.573.044,3.871,6.028,13.419,13.57,12.9s7.471-12.192,7.471-12.192l5.315,3.1a16.041,16.041,0,0,1,7.812,11.745l.053.421Z" transform="translate(-111.219 -120.305)" fill="#263238"/>
        <path id="Trazado_2015" data-name="Trazado 2015" d="M296.252,237.42l-16.5,5.385,1.621,25.124,18.53-4.965Z" transform="translate(-182.233 -177.858)" fill="#f5f5f5"/>
        <path id="Trazado_2016" data-name="Trazado 2016" d="M174.34,263.514c-3.6,3.711-6.98,21.82-6.98,21.82L187.1,295.441l-8.959,51.152h57.233s-1.249-37.923.992-49.748c.979-5.151-.478-18.326-1.612-26.883a16.028,16.028,0,0,0-7.812-11.763l-5.315-3.1s.044,11.67-7.485,12.2-13.525-9.026-13.57-12.9c0,0-8.667-.381-16.032,2.573A38.347,38.347,0,0,0,174.34,263.514Z" transform="translate(-119.618 -187.309)" fill="#f83f00"/>
        <path id="Trazado_2017" data-name="Trazado 2017" d="M159.818,324.7l-6.648,61.068,17.068.009,9.181-51.32Z" transform="translate(-111.712 -226.484)" fill="#b78876"/>
        <path id="Trazado_2018" data-name="Trazado 2018" d="M311.291,278.49c2.1,7.006,6.032,12.781,7.033,20.129a21.19,21.19,0,0,1-10.943,21.112" transform="translate(-197.626 -200.739)" fill="#f83f00"/>
        <path id="Trazado_2019" data-name="Trazado 2019" d="M312.228,281.691a.977.977,0,0,1-.111-.213l-.275-.624c-.235-.549-.562-1.329-.952-2.338-.788-1.98-1.816-4.739-3.065-7.737a16.042,16.042,0,0,0-2.214-3.955,17.449,17.449,0,0,0-2.573-2.657,24.488,24.488,0,0,0-2.006-1.515,8.938,8.938,0,0,1-.762-.531,1.143,1.143,0,0,1,.217.106c.137.08.341.186.593.35a19.8,19.8,0,0,1,2.059,1.461,16.829,16.829,0,0,1,2.657,2.657,15.981,15.981,0,0,1,2.263,3.986c1.249,3.007,2.254,5.757,3,7.768.363.974.664,1.772.886,2.361l.235.642A.8.8,0,0,1,312.228,281.691Z" transform="translate(-193.665 -191.619)" fill="#263238"/>
        <path id="Trazado_2020" data-name="Trazado 2020" d="M266.566,331.42a.79.79,0,0,1,.071.186c.035.128.1.31.155.558a10.724,10.724,0,0,1,.279,2.1,11.581,11.581,0,0,1-7.086,11.174,10.626,10.626,0,0,1-2.024.642c-.248.058-.443.075-.571.1a.571.571,0,0,1-.2,0l.748-.2a11.8,11.8,0,0,0,8.977-11.723,12.244,12.244,0,0,0-.2-2.09,5.544,5.544,0,0,1-.146-.748Z" transform="translate(-169.664 -230.228)" fill="#263238"/>
        <g id="Grupo_647" data-name="Grupo 647" transform="translate(81.428 107.6)" opacity="0.3">
          <path id="Trazado_2021" data-name="Trazado 2021" d="M252,353.547a69.516,69.516,0,0,1-7.874,1.484.965.965,0,0,0-.589.244c-.345.394.128.974.576,1.249a11.187,11.187,0,0,0,16.989-8.609c.062-.753-.066-1.7-.779-1.958-.824-.306-1.7.487-2.055,1.289-1.355,3.074-2.95,4.566-6.267,6.3" transform="translate(-243.422 -345.889)"/>
        </g>
        <path id="Trazado_2022" data-name="Trazado 2022" d="M190.512,312.338a5.222,5.222,0,0,1-.74-.226c-.469-.159-1.143-.4-1.975-.709-1.661-.611-3.937-1.51-6.422-2.578s-4.7-2.1-6.293-2.888c-.793-.39-1.435-.717-1.869-.948a5.282,5.282,0,0,1-.673-.381,4.734,4.734,0,0,1,.709.3c.487.221,1.129.518,1.9.886,1.608.744,3.831,1.771,6.311,2.826s4.748,1.98,6.4,2.635l1.944.775a4.785,4.785,0,0,1,.709.306Z" transform="translate(-122.504 -215.291)" fill="#fff"/>
        <path id="Trazado_2023" data-name="Trazado 2023" d="M242.89,342.68a2.312,2.312,0,0,1-.27.089l-.784.217c-.678.186-1.67.443-2.9.691A80.135,80.135,0,0,1,219.36,345.4c-1.262-.049-2.281-.111-2.981-.173l-.806-.075a1.328,1.328,0,0,1-.283-.044,1.73,1.73,0,0,1,.283,0l.81.035c.7.035,1.723.071,2.981.1a90.011,90.011,0,0,0,19.535-1.723c1.236-.248,2.214-.443,2.914-.62l.793-.173a1.027,1.027,0,0,1,.283-.049Z" transform="translate(-146.321 -236.501)" fill="#fff"/>
        <path id="Trazado_2024" data-name="Trazado 2024" d="M302.885,339.25a.829.829,0,0,1-.2.1l-.616.23-.443.173-.545.146a10.66,10.66,0,0,1-1.329.306l-.793.128c-.275.031-.567.049-.886.075-.6.066-1.24.053-1.913.071-1.329,0-2.826-.12-4.367-.257s-3.012-.275-4.349-.341c-.669,0-1.306-.049-1.9-.027-.3,0-.585,0-.886.022l-.788.062a12.641,12.641,0,0,0-1.355.173l-.554.089-.443.111-.633.151a.115.115,0,1,1,0-.044l.624-.19.443-.133c.168-.04.354-.071.554-.111a13.292,13.292,0,0,1,1.36-.208l.8-.075c.279-.022.567-.022.886-.035.6-.031,1.236,0,1.909,0,1.329.058,2.821.177,4.362.323s3.016.244,4.353.275c.669,0,1.3,0,1.9-.049.3-.022.585-.035.859-.062l.784-.115a22.708,22.708,0,0,0,3.175-.788Z" transform="translate(-182.737 -234.59)" fill="#fff"/>
        <path id="Trazado_2025" data-name="Trazado 2025" d="M266.484,301s-.031.022-.1.062l-.306.155c-.27.128-.655.35-1.182.567a28.717,28.717,0,0,1-4.575,1.568,41.987,41.987,0,0,1-7.086,1.138,86.325,86.325,0,0,1-8.773.2c-3.1-.066-6.072-.177-8.765-.186s-5.12.08-7.144.279a44.33,44.33,0,0,0-4.734.691c-.562.1-.988.221-1.284.279l-.332.071a.383.383,0,0,1-.115,0l.106-.035.332-.093c.288-.075.713-.208,1.271-.323a40.2,40.2,0,0,1,4.77-.771,67.8,67.8,0,0,1,7.161-.328c2.7,0,5.66.1,8.769.168s6.067.031,8.751-.182a43.245,43.245,0,0,0,7.055-1.085,31.021,31.021,0,0,0,4.575-1.488c.531-.2.921-.412,1.2-.527l.314-.137Z" transform="translate(-150.109 -213.28)" fill="#fff"/>
        <path id="Trazado_2026" data-name="Trazado 2026" d="M263.574,277.689s0,.031-.071.08l-.221.226c-.2.19-.474.5-.886.833a19.2,19.2,0,0,1-3.7,2.511,24.155,24.155,0,0,1-6.253,2.245,31.234,31.234,0,0,1-8.091.629,46.3,46.3,0,0,1-8.029-1.2c-2.431-.576-4.588-1.227-6.382-1.811s-3.233-1.089-4.225-1.444l-1.143-.416-.292-.111-.1-.049a.351.351,0,0,1,.106,0l.306.093,1.151.376c1.005.328,2.449.81,4.252,1.373s3.95,1.2,6.373,1.771a47.569,47.569,0,0,0,8,1.178,31.6,31.6,0,0,0,8.034-.607,24.486,24.486,0,0,0,6.2-2.17,20.435,20.435,0,0,0,3.716-2.436c.416-.323.7-.624.912-.8.1-.084.173-.155.239-.208S263.574,277.685,263.574,277.689Z" transform="translate(-151.274 -200.293)" fill="#fff"/>
        <path id="Trazado_2027" data-name="Trazado 2027" d="M233.983,263.924a9.9,9.9,0,0,1-1.4.128c-.886.058-2.064.142-3.379.266s-2.507.257-3.37.359a10.122,10.122,0,0,1-1.4.133,7.458,7.458,0,0,1,1.382-.292c.855-.146,2.051-.31,3.37-.443s2.524-.182,3.392-.2a7.864,7.864,0,0,1,1.408.049Z" transform="translate(-151.413 -192.59)" fill="#fff"/>
        <path id="Trazado_2028" data-name="Trazado 2028" d="M295.789,264.84a6.462,6.462,0,0,1-1.1.022c-.678,0-1.612.027-2.657.128a26.17,26.17,0,0,0-2.613.4,7.524,7.524,0,0,1-1.081.2,4.084,4.084,0,0,1,1.045-.359,17.378,17.378,0,0,1,5.292-.531A4.524,4.524,0,0,1,295.789,264.84Z" transform="translate(-187.019 -193.042)" fill="#fff"/>
        <path id="Trazado_2029" data-name="Trazado 2029" d="M199.061,282.7a3.669,3.669,0,0,1-.62-.217l-1.661-.655c-1.408-.549-3.361-1.275-5.549-1.984s-4.2-1.271-5.66-1.652l-1.732-.443a3.468,3.468,0,0,1-.629-.186,4.19,4.19,0,0,1,.651.1c.412.08,1.014.208,1.749.376,1.47.341,3.494.886,5.691,1.59s4.145,1.466,5.54,2.055c.7.292,1.253.54,1.634.722A3.563,3.563,0,0,1,199.061,282.7Z" transform="translate(-128.448 -200.221)" fill="#fff"/>
        <path id="Trazado_2030" data-name="Trazado 2030" d="M266.2,369.71a.61.61,0,0,1-.111.049l-.319.111-1.244.421c-.54.182-1.2.394-1.989.616s-1.661.5-2.657.735l-1.55.4c-.54.133-1.107.248-1.692.381-1.169.279-2.431.5-3.756.753-2.657.443-5.6.855-8.707,1.107s-6.076.292-8.778.252c-1.329-.044-2.631-.071-3.826-.164-.6-.04-1.178-.066-1.732-.115l-1.594-.151c-1.019-.084-1.931-.221-2.737-.319s-1.492-.2-2.055-.3l-1.293-.221-.337-.062-.115-.031a.481.481,0,0,1,.12,0l.337.04,1.3.177c.562.08,1.253.177,2.059.261s1.718.213,2.733.283l1.594.137c.554.044,1.134.066,1.732.1,1.191.084,2.471.106,3.818.142,2.693.027,5.656-.04,8.756-.27s6.023-.633,8.68-1.076c1.329-.248,2.586-.465,3.756-.731.585-.128,1.151-.239,1.692-.368l1.55-.381c.992-.23,1.878-.5,2.657-.7s1.453-.407,2-.58l1.253-.376.332-.093A.443.443,0,0,1,266.2,369.71Z" transform="translate(-149.898 -251.56)" fill="#fff"/>
        <path id="Trazado_2031" data-name="Trazado 2031" d="M253.014,401.08a.337.337,0,0,0-.124.04l-.385.093-1.47.341c-.638.151-1.422.319-2.334.5s-1.953.4-3.1.6c-2.3.443-5.066.886-8.136,1.293s-6.475.779-10.04,1.085-6.98.443-10.08.518-5.89.071-8.237,0c-1.174,0-2.214-.066-3.162-.106s-1.732-.08-2.387-.128l-1.506-.1-.39-.035h.394l1.506.062c.655.035,1.457.066,2.387.089s1.989.066,3.162.071c2.343.049,5.133.022,8.229-.049s6.5-.261,10.067-.536,6.949-.655,10.022-1.05,5.828-.824,8.136-1.24c1.156-.19,2.214-.394,3.1-.567s1.7-.323,2.343-.443l1.479-.3.385-.071A.442.442,0,0,1,253.014,401.08Z" transform="translate(-138.655 -269.037)" fill="#fff"/>
        <path id="Trazado_2032" data-name="Trazado 2032" d="M251.3,437.177a.49.49,0,0,1-.137.035l-.407.08-1.563.288c-.341.058-.722.133-1.138.195l-1.36.159-1.563.186c-.554.062-1.143.089-1.772.133l-1.935.133-2.1.062-1.112.035h-3.543c-3.268-.058-6.86-.213-10.629-.443s-7.352-.443-10.629-.607c-1.63-.058-3.18-.146-4.632-.164l-2.1-.049h-1.935c-1.236,0-2.352.035-3.335.071l-1.364.044-1.147.084-1.59.111-.412.022h-.142a69.291,69.291,0,0,1,7.972-.492l1.944-.022,2.1.035c1.453,0,3,.089,4.637.142,3.268.151,6.856.363,10.629.589s7.352.376,10.629.443h3.53l1.107-.027,2.1-.049,1.935-.115c.616-.044,1.2-.062,1.771-.12l1.563-.168,1.36-.142c.416-.058.793-.124,1.134-.173l1.572-.244.412-.058A.573.573,0,0,1,251.3,437.177Z" transform="translate(-135.992 -289.071)" fill="#fff"/>
        <path id="Trazado_2033" data-name="Trazado 2033" d="M215.939,279.2a1.177,1.177,0,0,1,.031.266c0,.2.027.443.044.766.031.664.053,1.63.058,2.821,0,2.378-.089,5.669-.412,9.3s-.788,6.882-1.178,9.23c-.195,1.174-.368,2.121-.5,2.772-.066.306-.115.554-.155.748a1.227,1.227,0,0,1-.071.261,1.125,1.125,0,0,1,0-.27c.031-.195.066-.443.115-.757.1-.686.248-1.63.443-2.781.35-2.352.788-5.607,1.107-9.221s.443-6.9.483-9.274v-3.578A1.417,1.417,0,0,1,215.939,279.2Z" transform="translate(-145.464 -201.135)" fill="#263238"/>
        <g id="Grupo_648" data-name="Grupo 648" transform="translate(62.676 135.081)" opacity="0.3">
          <path id="Trazado_2034" data-name="Trazado 2034" d="M201.173,407.94l-.093.195.084-.027A.922.922,0,0,0,201.173,407.94Z" transform="translate(-201.08 -407.94)"/>
        </g>
        <g id="Grupo_649" data-name="Grupo 649" transform="translate(59.022 127.902)" opacity="0.3">
          <path id="Trazado_2035" data-name="Trazado 2035" d="M206.355,391.73c-2.511,3.255-5.447,6.3-9.788,7.347-.155,1.7-2.471,16.059-3.738,21.679,2.657-2.927,5.381-5.988,6.493-9.774a24.1,24.1,0,0,1,1.461-4.832,14.671,14.671,0,0,1,2.781-3.22,9.85,9.85,0,0,0,2.529-3.4C206.586,398.2,207.432,392.664,206.355,391.73Z" transform="translate(-192.83 -391.73)"/>
        </g>
        <g id="Grupo_650" data-name="Grupo 650" transform="translate(66.21 91.369)" opacity="0.3">
          <path id="Trazado_2036" data-name="Trazado 2036" d="M212.78,309.24c-.961,6.284-1.36,14.354-2.914,20.7-.283,1.156-.806,4.283-.806,4.283.443,1.107,1.329.771,2.285.044l1.621-1.506C214.348,325.458,213.963,316.574,212.78,309.24Z" transform="translate(-209.06 -309.24)"/>
        </g>
        <path id="Trazado_2037" data-name="Trazado 2037" d="M273.786,150.3a13.175,13.175,0,0,0-2.44-11.816,17.356,17.356,0,0,0-7.835-5.08,18.536,18.536,0,0,0-12.445-.2c-3.959,1.5-7.272,5.009-7.861,9.2-.27,1.9,0,3.906-.682,5.7a4.25,4.25,0,0,0-.58,2.392,2,2,0,0,0,1.674,1.373,4.429,4.429,0,0,0,2.237-.363,23.937,23.937,0,0,0,6.488-4.287" transform="translate(-161.145 -119.248)" fill="#263238"/>
        <path id="Trazado_2038" data-name="Trazado 2038" d="M264.127,148.239l-18.707,3.986a3.5,3.5,0,0,0-3.26,3.428l.306,40.505a12.573,12.573,0,0,0,2.657,7.631l1.772,2.3a9.235,9.235,0,0,0,15.421-1.178,4.394,4.394,0,0,0,.443-1.063,7.549,7.549,0,0,0,.173-.912,29.007,29.007,0,0,0,.314-6.134c.177-3.609.23-5.089.23-5.053s7.657-.965,9.615-10.85c.965-4.907,1.019-13.016.841-19.65C273.764,155.286,270.088,147.828,264.127,148.239Z" transform="translate(-161.291 -128.164)" fill="#b78876"/>
        <path id="Trazado_2039" data-name="Trazado 2039" d="M300.017,190.084a1.267,1.267,0,0,1-1.275,1.24,1.218,1.218,0,0,1-1.271-1.2,1.275,1.275,0,0,1,1.275-1.24,1.218,1.218,0,0,1,1.271,1.2Z" transform="translate(-192.105 -150.819)" fill="#263238"/>
        <path id="Trazado_2040" data-name="Trazado 2040" d="M301.837,184.521c-.2.217-1.329-.8-3.012-.886s-2.919.815-3.1.58c-.089-.106.124-.5.669-.917a3.933,3.933,0,0,1,2.485-.744,3.826,3.826,0,0,1,2.387.974C301.771,184.008,301.935,184.424,301.837,184.521Z" transform="translate(-191.123 -147.289)" fill="#263238"/>
        <path id="Trazado_2041" data-name="Trazado 2041" d="M268.357,190.084a1.275,1.275,0,0,1-1.275,1.24,1.214,1.214,0,0,1-1.271-1.2,1.275,1.275,0,0,1,1.271-1.24,1.222,1.222,0,0,1,1.275,1.2Z" transform="translate(-174.467 -150.819)" fill="#263238"/>
        <path id="Trazado_2042" data-name="Trazado 2042" d="M271.377,185.428c-.2.19-1.351-.691-3.029-.748s-2.936.709-3.1.5c-.084-.089.124-.443.678-.793a4.429,4.429,0,0,1,2.5-.647,4.208,4.208,0,0,1,2.4.841C271.328,184.985,271.474,185.344,271.377,185.428Z" transform="translate(-174.143 -147.952)" fill="#263238"/>
        <path id="Trazado_2043" data-name="Trazado 2043" d="M289.224,195.443a8.967,8.967,0,0,1,2.241-.319c.354-.027.686-.084.753-.319a1.772,1.772,0,0,0-.195-1.045c-.3-.859-.611-1.771-.934-2.7A47.088,47.088,0,0,1,289.021,184a47.841,47.841,0,0,1,2.631,6.873l.886,2.719a2,2,0,0,1,.133,1.377.886.886,0,0,1-.593.492,2.342,2.342,0,0,1-.6.062A9.469,9.469,0,0,1,289.224,195.443Z" transform="translate(-187.39 -148.096)" fill="#263238"/>
        <path id="Trazado_2044" data-name="Trazado 2044" d="M273.721,241.459a25.319,25.319,0,0,1-13.171-4.039s3.1,7,13.065,6.435Z" transform="translate(-171.536 -177.858)" fill="#aa6550"/>
        <path id="Trazado_2045" data-name="Trazado 2045" d="M282.741,215.988a2.485,2.485,0,0,0-2.179-1,2.281,2.281,0,0,0-1.59.779,1.431,1.431,0,0,0-.168,1.63,1.661,1.661,0,0,0,1.772.518,5.173,5.173,0,0,0,1.772-.979,1.488,1.488,0,0,0,.407-.39.443.443,0,0,0,0-.509" transform="translate(-181.606 -165.359)" fill="#aa6550"/>
        <path id="Trazado_2046" data-name="Trazado 2046" d="M280,211.64c.221,0,.168,1.484,1.4,2.586s2.826,1,2.83,1.2c0,.1-.368.279-1.036.27a3.694,3.694,0,0,1-2.361-.921,3.2,3.2,0,0,1-1.085-2.166C279.719,211.99,279.9,211.631,280,211.64Z" transform="translate(-182.233 -163.495)" fill="#263238"/>
        <path id="Trazado_2047" data-name="Trazado 2047" d="M272.105,175.718c-.151.368-1.51.137-3.127.275s-2.932.523-3.131.182c-.089-.164.151-.5.686-.846a5.447,5.447,0,0,1,4.77-.35C271.875,175.239,272.163,175.54,272.105,175.718Z" transform="translate(-174.478 -142.852)" fill="#263238"/>
        <path id="Trazado_2048" data-name="Trazado 2048" d="M303.3,171.543c-.252.3-1.187-.053-2.321-.111s-2.1.133-2.312-.2c-.093-.159.071-.465.5-.748a3.233,3.233,0,0,1,1.9-.443,3.184,3.184,0,0,1,1.829.7C303.292,171.069,303.411,171.4,303.3,171.543Z" transform="translate(-192.759 -140.312)" fill="#263238"/>
        <path id="Trazado_2049" data-name="Trazado 2049" d="M238.1,199.319c.027-.74-.762-2.516-1.488-2.657-1.94-.376-5.461-.35-5.678,4.606-.292,6.767,6.563,5.664,6.586,5.474S238.016,201.87,238.1,199.319Z" transform="translate(-155.034 -155.071)" fill="#b78876"/>
        <path id="Trazado_2050" data-name="Trazado 2050" d="M237.723,206.788c-.031,0-.124.08-.328.164a1.187,1.187,0,0,1-.886-.022,2.9,2.9,0,0,1-1.236-2.657,3.871,3.871,0,0,1,.4-1.674,1.368,1.368,0,0,1,.926-.886.6.6,0,0,1,.682.354c.084.19.035.323.071.337s.151-.106.106-.385a.748.748,0,0,0-.248-.443.886.886,0,0,0-.642-.2,1.661,1.661,0,0,0-1.28,1,4.021,4.021,0,0,0-.492,1.869,3.11,3.11,0,0,0,1.594,3,1.271,1.271,0,0,0,1.085-.133C237.7,206.965,237.745,206.8,237.723,206.788Z" transform="translate(-157.19 -157.775)" fill="#995037"/>
        <path id="Trazado_2051" data-name="Trazado 2051" d="M260.33,138.2a9.269,9.269,0,0,1-6.408,6.971c-1.705.483-3.747.589-4.783,2.028s-.492,3.649-1.479,5.168c-1.364,2.1-5,1.94-6.032,4.225-.443,1-.248,2.214-.717,3.193a3.116,3.116,0,0,1-3.76,1.382,5.021,5.021,0,0,1-2.905-3.1,13.6,13.6,0,0,1-.642-4.314,23.984,23.984,0,0,1,.855-8.525c1.931-5.7,10.385-13.486,16.386-12.959" transform="translate(-156.502 -119.261)" fill="#263238"/>
        <path id="Trazado_2052" data-name="Trazado 2052" d="M264.143,196.741a8.319,8.319,0,0,0-2.369-1.284,8.416,8.416,0,0,0-2.684-.235,1.917,1.917,0,0,1,.793-.186,5.239,5.239,0,0,1,3.7,1.116,1.976,1.976,0,0,1,.558.589Z" transform="translate(-170.723 -154.234)" fill="#aa6550"/>
        <path id="Trazado_2053" data-name="Trazado 2053" d="M221.91,231.31a42.1,42.1,0,0,1,2.361,19.283c-.775,6.865-3.237,13.778-1.687,20.51a10.727,10.727,0,0,0,2.657,5.248,6.082,6.082,0,0,0,5.416,1.825,6.628,6.628,0,0,0,4.486-4.309,19.6,19.6,0,0,0,.921-6.386q.2-6.129.407-12.272c.12-3.543.173-7.347-1.771-10.328-1.129-1.772-2.963-3.339-2.852-5.421.133-2.542,3.167-4.278,3.136-6.82s-2.927-3.986-3.627-6.4c-.593-2.02.359-4.65-1.236-6.028-1.329-1.169-3.494-.394-4.827.793a10.217,10.217,0,0,0-2.874,10.434" transform="translate(-150.009 -167.948)" fill="#263238"/>
        <path id="Trazado_2054" data-name="Trazado 2054" d="M466.277,338.728h61.21L524.006,299.4,524.5,275.2l4.3-20.536-24.863-11.072-6.962-3.339-20.16,2.547-3.826,2.338-2.082,4.185-8.964,6.922a1.661,1.661,0,0,0-.638,1.492L463,280.463l3.335,23.849Z" transform="translate(-283.378 -179.435)" fill="#f83f00"/>
        <path id="Trazado_2055" data-name="Trazado 2055" d="M492.079,242.6c0,.266-1.949,5.926-1.949,5.926v2.746l15.39,11.851h0l12.551-14.137-3.911-7.927-2.458-.08,1.16-4.2-.412-.443-19.571,3.543Z" transform="translate(-299.441 -177.251)" fill="#ffbe9d"/>
        <path id="Trazado_2056" data-name="Trazado 2056" d="M537.615,245.57a1.815,1.815,0,0,1,.266.217c.168.155.443.372.735.678a14.175,14.175,0,0,1,2.245,2.932c.093.173.195.345.3.527s.173.376.266.571c.195.385.332.81.5,1.244a15.668,15.668,0,0,1,.678,2.888,24.563,24.563,0,0,1-.124,6.834l-.031.217-.164-.151a15.1,15.1,0,0,0-1.289-1.081,6.643,6.643,0,0,0-1.661-.934,3.139,3.139,0,0,0-1.8-.137,1.284,1.284,0,0,0-.726.443c-.208.208-.394.443-.594.673a3.166,3.166,0,0,1-.319.328c-.124.106-.239.186-.359.275l-.691.518-4.872,3.627-3.286,2.427-.886.651a2.151,2.151,0,0,1-.323.213,2.763,2.763,0,0,1,.3-.252l.886-.682,3.242-2.489,4.827-3.663.691-.523a3.18,3.18,0,0,0,.642-.576c.195-.221.381-.443.6-.686a2.513,2.513,0,0,1,.368-.31,1.187,1.187,0,0,1,.465-.182,3.339,3.339,0,0,1,1.927.137,6.809,6.809,0,0,1,1.723.965,15.641,15.641,0,0,1,1.307,1.1l-.19.071a24.73,24.73,0,0,0,.151-6.776,15.811,15.811,0,0,0-.647-2.857c-.164-.443-.3-.85-.483-1.231-.089-.195-.177-.385-.257-.571l-.288-.523a15.105,15.105,0,0,0-2.166-2.95c-.3-.314-.549-.536-.7-.7A1.97,1.97,0,0,1,537.615,245.57Z" transform="translate(-319.135 -182.398)" fill="#263238"/>
        <path id="Trazado_2057" data-name="Trazado 2057" d="M497.509,271.465l-.084-.022-.235-.084-.886-.345c-.788-.3-1.94-.726-3.4-1.236a103.087,103.087,0,0,0-12-3.361l.133-.08c-.558,2.073-1.165,4.314-1.772,6.643l-.261.961-.146.531-.08-.545a38.443,38.443,0,0,1-.288-9.106,35.3,35.3,0,0,1,1.4-7.268,33.337,33.337,0,0,1,1.794-4.633c.248-.531.469-.93.611-1.2l.164-.306c.04-.071.062-.1.062-.1a.373.373,0,0,1-.04.111l-.146.319c-.128.279-.337.682-.571,1.218a36.621,36.621,0,0,0-1.718,4.646,35.874,35.874,0,0,0-1.329,7.237,38.766,38.766,0,0,0,.31,9.052h-.226c.08-.306.168-.633.257-.961.629-2.321,1.24-4.562,1.8-6.643l.027-.1.1.022a95.218,95.218,0,0,1,11.993,3.45c1.457.523,2.6.974,3.379,1.3l.886.376.226.1Z" transform="translate(-292.878 -185.596)" fill="#263238"/>
        <path id="Trazado_2058" data-name="Trazado 2058" d="M601.713,302.215l2.657,5.47a2.334,2.334,0,0,0,3.144,1.067l14.947-7.7.678-2.923-3.432-4.247h-1.143s-6.714-17.715-7.529-19.987-8.158-6.608-8.158-6.608l-2.617,19.929Z" transform="translate(-360.797 -194.499)" fill="#f83f00"/>
        <path id="Trazado_2059" data-name="Trazado 2059" d="M602.779,310.65c.066,0,.226,7.387.359,16.5s.19,16.51.124,16.51-.221-7.387-.354-16.506S602.717,310.65,602.779,310.65Z" transform="translate(-362.186 -218.656)" fill="#263238"/>
        <path id="Trazado_2060" data-name="Trazado 2060" d="M658.865,251.257l-.044-5.97-.035-4.451a11.414,11.414,0,0,0-.08-1.329,4.181,4.181,0,0,0-2.449-3.074l-1.151-1.869a2.746,2.746,0,0,0-3.007-1.329,58.064,58.064,0,0,1-.19-7.972c.283-3.463-.089-4.128-1.639-3.592s-2.679,12.179-2.679,12.179-1.723-3.862-3.344-7.338-3.14-2.423-3.415-1.616c-.337,1.01,1.581,6.975,2.914,10.877.678,1.984,1.2,3.441,1.2,3.441s-.585,2.958-.766,4.956a6.073,6.073,0,0,0,0,1.532c.261,1.231,3.955,7.028,3.955,7.028l1.28,2.989" transform="translate(-383.378 -168.993)" fill="#ffbe9d"/>
        <path id="Trazado_2061" data-name="Trazado 2061" d="M657.35,269.81a1.589,1.589,0,0,0,.248-.518,4.521,4.521,0,0,0,.244-1.612,4.642,4.642,0,0,0-.735-2.418,4.907,4.907,0,0,0-2.586-2.006l-.057.345a8.739,8.739,0,0,0,3.4-.443,3.76,3.76,0,0,0,2.489-2.839,1.091,1.091,0,0,1,.027-.3v-.173l-.182-.027-5.687-.886a6.029,6.029,0,0,0-1.329-.1,2.214,2.214,0,0,0-1.218.443,3.543,3.543,0,0,0-1.165,1.913c-.19.66-.244,1.262-.345,1.772a6.791,6.791,0,0,1-.332,1.293,5.173,5.173,0,0,1-.558.992,1.146,1.146,0,0,0,.23-.2,2.891,2.891,0,0,0,.469-.731,6.575,6.575,0,0,0,.412-1.329c.12-.518.195-1.12.39-1.74a3.29,3.29,0,0,1,1.094-1.727,2.945,2.945,0,0,1,2.29-.235l5.7.948-.173-.2a2.524,2.524,0,0,1,0,.252,3.4,3.4,0,0,1-2.214,2.529,8.531,8.531,0,0,1-3.251.443h-1.2l1.147.359a4.667,4.667,0,0,1,2.453,1.829,4.614,4.614,0,0,1,.771,2.268,6.432,6.432,0,0,1-.323,2.1Z" transform="translate(-388.263 -189.787)" fill="#eb996e"/>
        <path id="Trazado_2062" data-name="Trazado 2062" d="M668.179,264.63c-.027,0-.062.137-.089.394a3.144,3.144,0,0,0,.062,1.112,1.617,1.617,0,0,0,1.187,1.209,1.2,1.2,0,0,0,1.032-.31,2.838,2.838,0,0,0,.62-.886,30.911,30.911,0,0,0,1.949-4.65,31.775,31.775,0,0,0-2.307,4.473c-.275.607-.717,1.112-1.231,1.01a1.351,1.351,0,0,1-.979-.93,4.291,4.291,0,0,1-.177-1.023C668.228,264.776,668.21,264.63,668.179,264.63Z" transform="translate(-398.574 -191.272)" fill="#eb996e"/>
        <path id="Trazado_2063" data-name="Trazado 2063" d="M669.381,257.832c.111.031.35-.647.886-1.329s1.125-1.067,1.072-1.169-.8.164-1.386.921S669.275,257.832,669.381,257.832Z" transform="translate(-399.284 -187.827)" fill="#eb996e"/>
        <path id="Trazado_2064" data-name="Trazado 2064" d="M661.129,254.265c.115,0,.279-.974.784-2.073a9.216,9.216,0,0,1,.744-1.329c.217-.314.443-.31.465-.359s-.053-.08-.19-.075a.788.788,0,0,0-.483.239,4.911,4.911,0,0,0-.886,1.373A3.6,3.6,0,0,0,661.129,254.265Z" transform="translate(-394.682 -185.106)" fill="#eb996e"/>
        <path id="Trazado_2065" data-name="Trazado 2065" d="M617.45,319.916c.115.443,4.074,5.757,8.286,11.568a11.466,11.466,0,0,0,11.772,4.477h0a11.47,11.47,0,0,0,8.973-11.169l-.642-37.2-9.978,3.791-3.366,23.663-.961-2.436Z" transform="translate(-370.374 -205.809)" fill="#ffbe9d"/>
        <path id="Trazado_2066" data-name="Trazado 2066" d="M627.77,332.1c.031.053-3.516,2.214-7.927,4.832s-8.012,4.69-8.043,4.637,3.516-2.214,7.927-4.836S627.739,332.055,627.77,332.1Z" transform="translate(-367.226 -230.606)" fill="#263238"/>
        <path id="Trazado_2067" data-name="Trazado 2067" d="M623.79,327c.035.053-3.1,2.192-7.033,4.774s-7.126,4.633-7.157,4.579,3.1-2.188,7.028-4.774S623.754,326.936,623.79,327Z" transform="translate(-366 -227.763)" fill="#263238"/>
        <g id="Grupo_651" data-name="Grupo 651" transform="translate(186.584 80.684)" opacity="0.3">
          <path id="Trazado_2068" data-name="Trazado 2068" d="M483.712,285.289c-.478-.164-1.059-.306-1.435.022a1.489,1.489,0,0,0-.381.815l-1.036,4.517.1.111q.93,1.771,1.851,3.592l1.4-4.991a72.011,72.011,0,0,1,12.653.137C492.672,287.981,488.008,286.75,483.712,285.289Z" transform="translate(-480.86 -285.113)"/>
        </g>
        <g id="Grupo_652" data-name="Grupo 652" transform="translate(206.69 72.986)" opacity="0.3">
          <path id="Trazado_2069" data-name="Trazado 2069" d="M526.26,280.879a80.275,80.275,0,0,1,9.929-5.124,2.99,2.99,0,0,1,1.391-.341,3.065,3.065,0,0,1,1.453.686l2.657,1.891a1.1,1.1,0,0,0,.779.292c.359-.058.562-.443.7-.779a13.835,13.835,0,0,0,.075-9.774,26.631,26.631,0,0,0-.593,6.2,4.431,4.431,0,0,0-4.15-2.086,7.139,7.139,0,0,0-3.273,1.772l-8.946,7.086" transform="translate(-526.26 -267.73)"/>
        </g>
        <g id="Grupo_653" data-name="Grupo 653" transform="translate(244.614 101.718)" opacity="0.3">
          <path id="Trazado_2070" data-name="Trazado 2070" d="M611.89,341.608a19.159,19.159,0,0,1,6.125-5.425,57.266,57.266,0,0,1,7.471-3.481c.235-.1.558-.168.7.044s-.133.554-.4.7l-13.229,7.715" transform="translate(-611.89 -332.607)"/>
        </g>
        <path id="Trazado_2071" data-name="Trazado 2071" d="M492.434,335.424a.982.982,0,0,1-.128.1l-.385.275a10.343,10.343,0,0,1-1.608.855,10.561,10.561,0,0,1-2.781.753,11.072,11.072,0,0,1-3.809-.155,10.053,10.053,0,0,1-4.167-1.971,10.961,10.961,0,0,1-3.22-4.2,10.266,10.266,0,0,1-.793-5.78,6.382,6.382,0,0,1,1.258-2.852,3.6,3.6,0,0,1,2.852-1.4,4.34,4.34,0,0,1,2.91,1.329,5.262,5.262,0,0,1,1.506,2.728,4.823,4.823,0,0,1-.323,2.989,3.176,3.176,0,0,1-.934,1.156,2.905,2.905,0,0,1-1.329.545,4.827,4.827,0,0,1-2.693-.554,20.664,20.664,0,0,1-2.214-1.306l-3.888-2.485-5.62-3.609-1.523-.992-.394-.261a.856.856,0,0,1-.128-.1.7.7,0,0,1,.142.075l.408.244,1.546.957,5.66,3.543,3.9,2.462a21.367,21.367,0,0,0,2.214,1.284,4.69,4.69,0,0,0,2.573.527,2.75,2.75,0,0,0,2.113-1.59,4.619,4.619,0,0,0,.3-2.848,5.075,5.075,0,0,0-1.444-2.609,4.141,4.141,0,0,0-2.755-1.258,3.379,3.379,0,0,0-2.657,1.329,6.1,6.1,0,0,0-1.209,2.75,10.044,10.044,0,0,0,.713,5.642,10.789,10.789,0,0,0,3.144,4.132,9.9,9.9,0,0,0,4.083,1.962,11.073,11.073,0,0,0,3.76.186,10.63,10.63,0,0,0,2.759-.709,10.938,10.938,0,0,0,1.621-.8l.4-.257Z" transform="translate(-285.451 -224.138)" fill="#fff"/>
        <path id="Trazado_2072" data-name="Trazado 2072" d="M562.265,277a1.852,1.852,0,0,1-.19.089,5.765,5.765,0,0,0-.571.244,7.916,7.916,0,0,0-1.962,1.329,11.513,11.513,0,0,0-2.237,3.034,21.723,21.723,0,0,0-1.8,4.659c-.514,1.772-.961,3.778-1.771,5.828a14.684,14.684,0,0,1-1.568,3.025,11.038,11.038,0,0,1-2.511,2.591,12.037,12.037,0,0,1-7.276,2.356,10.539,10.539,0,0,1-4.017-.833,8.932,8.932,0,0,1-3.4-2.493,6.027,6.027,0,0,1-1.448-3.937,5.718,5.718,0,0,1,1.5-3.787,4.336,4.336,0,0,1,1.687-1.112,4.176,4.176,0,0,1,1.975-.186,5.315,5.315,0,0,1,3.26,1.891,5.082,5.082,0,0,1,.908,1.608,5.46,5.46,0,0,1,.288,1.772,6.789,6.789,0,0,1-.886,3.277,7.471,7.471,0,0,1-2.117,2.374,9.046,9.046,0,0,1-2.626,1.306,12.467,12.467,0,0,1-4.991.443,20.028,20.028,0,0,1-3.72-.757c-1-.3-1.771-.576-2.272-.766l-.58-.221c-.128-.053-.195-.089-.195-.089a.52.52,0,0,1,.2.066l.589.2c.518.177,1.28.443,2.281.722a20.255,20.255,0,0,0,3.7.717,12.365,12.365,0,0,0,4.934-.483,8.887,8.887,0,0,0,2.569-1.3,7.245,7.245,0,0,0,2.055-2.321,6.6,6.6,0,0,0,.886-3.184,4.987,4.987,0,0,0-1.156-3.251,5.106,5.106,0,0,0-3.127-1.807,3.986,3.986,0,0,0-3.468,1.236,5.5,5.5,0,0,0-1.435,3.636,5.8,5.8,0,0,0,1.4,3.787,8.684,8.684,0,0,0,3.313,2.427,10.213,10.213,0,0,0,3.924.819,11.9,11.9,0,0,0,7.152-2.3,11.073,11.073,0,0,0,2.471-2.538,14.74,14.74,0,0,0,1.554-2.981c.8-2.028,1.253-4.017,1.771-5.8a21.626,21.626,0,0,1,1.842-4.677,11.317,11.317,0,0,1,2.312-3,7.466,7.466,0,0,1,2-1.329,6.558,6.558,0,0,1,.748-.283Z" transform="translate(-319.286 -199.909)" fill="#fff"/>
        <path id="Trazado_2073" data-name="Trazado 2073" d="M539.9,370.237c-.035.035-.567-.509-1.59-1.165a8.96,8.96,0,0,0-.886-.487c-.31-.173-.664-.31-1.032-.469a11.514,11.514,0,0,0-5.111-.74c-.4.049-.775.08-1.125.155a8.4,8.4,0,0,0-.965.226c-1.165.332-1.829.709-1.851.664a2,2,0,0,1,.443-.27,3.84,3.84,0,0,1,.567-.266,6.674,6.674,0,0,1,.779-.288,7.981,7.981,0,0,1,.974-.252,10.3,10.3,0,0,1,1.143-.182,12.214,12.214,0,0,1,2.657.062,11.958,11.958,0,0,1,2.555.7,9.2,9.2,0,0,1,1.045.5,7.666,7.666,0,0,1,.864.523,6.472,6.472,0,0,1,.664.5,3.913,3.913,0,0,1,.469.412,2.329,2.329,0,0,1,.4.39Z" transform="translate(-320.171 -250.116)" fill="#fff"/>
        <path id="Trazado_2074" data-name="Trazado 2074" d="M572.975,380.191s-.058.186-.146.554-.19.912-.341,1.616a8.15,8.15,0,0,1-.323,1.156,2.538,2.538,0,0,1-.8,1.187,2.1,2.1,0,0,1-.74.323,7.889,7.889,0,0,1-.833.168,9.57,9.57,0,0,1-1.838.084,16.478,16.478,0,0,1-4.141-.753,9.567,9.567,0,0,1-4.123-2.48,6.9,6.9,0,0,1-1.408-2.214,5.346,5.346,0,0,1-.323-2.724,4.97,4.97,0,0,1,1.187-2.578,3.875,3.875,0,0,1,5.381-.39,3.291,3.291,0,0,1,1.058,2.613,4.65,4.65,0,0,1-.926,2.582,5.681,5.681,0,0,1-2.046,1.652,11.714,11.714,0,0,1-4.712,1.032,12.747,12.747,0,0,1-4.172-.5,8.9,8.9,0,0,1-3.069-1.612,7.711,7.711,0,0,1-1.727-1.966,6.17,6.17,0,0,1-.678-1.515,3.963,3.963,0,0,1-.124-.562s.053.195.173.549a6.3,6.3,0,0,0,.7,1.479,7.721,7.721,0,0,0,1.732,1.913,8.893,8.893,0,0,0,3.034,1.559,12.711,12.711,0,0,0,4.123.465,11.515,11.515,0,0,0,4.619-1.032,5.451,5.451,0,0,0,1.966-1.59,4.429,4.429,0,0,0,.886-2.458,3.061,3.061,0,0,0-.983-2.436,3.654,3.654,0,0,0-5.062.372,4.721,4.721,0,0,0-1.129,2.458,5.147,5.147,0,0,0,.3,2.609,6.776,6.776,0,0,0,1.364,2.152,9.332,9.332,0,0,0,4.026,2.445,16.306,16.306,0,0,0,4.083.775,9.673,9.673,0,0,0,1.811-.071,3.844,3.844,0,0,0,1.519-.443,2.488,2.488,0,0,0,.775-1.125,8.855,8.855,0,0,0,.337-1.138c.164-.7.275-1.244.385-1.608A3.367,3.367,0,0,1,572.975,380.191Z" transform="translate(-331.754 -253.524)" fill="#fff"/>
        <path id="Trazado_2075" data-name="Trazado 2075" d="M474.09,393.288a3.336,3.336,0,0,0,1.067-.292,4.5,4.5,0,0,0,1.966-2.214c.27-.58.492-1.253.748-1.975a8.857,8.857,0,0,1,1.081-2.214,8.26,8.26,0,0,1,4.539-3.18,7.9,7.9,0,0,1,2.9-.266,7.268,7.268,0,0,1,2.6.762,8.264,8.264,0,0,1,3.313,3.1,7.67,7.67,0,0,1,1.05,2.888,3.7,3.7,0,0,0,.058.483,2.35,2.35,0,0,1,0,.354,1.423,1.423,0,0,1,0,.288,1.241,1.241,0,0,1-.04-.288,1.7,1.7,0,0,0-.027-.35c-.027-.133-.049-.3-.08-.474a7.853,7.853,0,0,0-1.1-2.817,8.233,8.233,0,0,0-3.273-3,7.042,7.042,0,0,0-2.529-.726,7.751,7.751,0,0,0-2.812.261,8.135,8.135,0,0,0-4.429,3.078,8.668,8.668,0,0,0-1.089,2.161c-.266.713-.5,1.391-.784,1.98a4.456,4.456,0,0,1-2.077,2.214,2.548,2.548,0,0,1-.81.217,1.289,1.289,0,0,1-.221,0C474.112,393.3,474.09,393.293,474.09,393.288Z" transform="translate(-290.505 -259.026)" fill="#fff"/>
        <path id="Trazado_2076" data-name="Trazado 2076" d="M499.916,444.968a11.042,11.042,0,0,1-1.949.443,14.567,14.567,0,0,1-5.434-.235,13.99,13.99,0,0,1-7.011-3.893,5.519,5.519,0,0,1-1.2-2.042,3.924,3.924,0,0,1,.053-2.467A2.963,2.963,0,0,1,486.2,435a5.314,5.314,0,0,1,2.626-.115,12.263,12.263,0,0,1,2.511.744,3.676,3.676,0,0,1,1.971,1.621,2.17,2.17,0,0,1,.19,1.258,2.906,2.906,0,0,1-.443,1.165,5.554,5.554,0,0,1-1.678,1.661,10.434,10.434,0,0,1-12.675-.642,7.969,7.969,0,0,1-1.382-1.444,1.038,1.038,0,0,1,.1.089l.257.283a11.759,11.759,0,0,0,1.085,1.005,10.749,10.749,0,0,0,4.872,2.214,10.51,10.51,0,0,0,7.626-1.687,5.451,5.451,0,0,0,1.612-1.6,2.272,2.272,0,0,0,.23-2.214,3.45,3.45,0,0,0-1.86-1.506,11.753,11.753,0,0,0-2.458-.731,5.159,5.159,0,0,0-2.511.106,2.746,2.746,0,0,0-1.687,1.63,3.729,3.729,0,0,0-.049,2.325,5.314,5.314,0,0,0,1.143,1.962,9.741,9.741,0,0,0,1.639,1.457,13.965,13.965,0,0,0,1.771,1.107,15.133,15.133,0,0,0,8.858,1.616,13.451,13.451,0,0,0,1.457-.252l.376-.084a.409.409,0,0,1,.137,0Z" transform="translate(-292.304 -287.81)" fill="#fff"/>
        <path id="Trazado_2077" data-name="Trazado 2077" d="M563.184,428.016a.966.966,0,0,1-.151-.089l-.443-.279a14.548,14.548,0,0,0-1.772-.926,14.019,14.019,0,0,0-2.989-.926,13.472,13.472,0,0,0-13.22,5.08,5.7,5.7,0,0,0-1.2,2.795,3.1,3.1,0,0,0,1.107,2.812,3.937,3.937,0,0,0,3.162.443,6.2,6.2,0,0,0,2.967-1.625,5.842,5.842,0,0,0,1.652-2.945,6.351,6.351,0,0,0-.155-3.286,6.2,6.2,0,0,0-1.74-2.657,9.148,9.148,0,0,0-2.609-1.652,13.566,13.566,0,0,0-2.826-.886l-.7-.137c-.235-.04-.465-.066-.7-.1-.443-.075-.921-.1-1.368-.133a19.68,19.68,0,0,0-5,.345,20.071,20.071,0,0,0-6.754,2.657c-.372.213-.682.443-.957.629s-.5.359-.678.5l-.412.314-.142.1a1.468,1.468,0,0,1,.128-.12l.4-.332a7.572,7.572,0,0,1,.664-.514,9.943,9.943,0,0,1,.948-.651,20.067,20.067,0,0,1,11.816-3.1c.443.031.921.053,1.386.124.235.035.469.058.709.1l.709.137a13.768,13.768,0,0,1,2.87.886,9.3,9.3,0,0,1,2.657,1.683,6.453,6.453,0,0,1,1.811,2.75,6.537,6.537,0,0,1,.159,3.41,6.1,6.1,0,0,1-1.714,3.06,6.413,6.413,0,0,1-3.1,1.678,5.214,5.214,0,0,1-1.736.106,3.352,3.352,0,0,1-1.608-.607,2.936,2.936,0,0,1-1-1.368,3.806,3.806,0,0,1-.195-1.648,5.917,5.917,0,0,1,1.245-2.9,13.7,13.7,0,0,1,9.247-5.266,13.4,13.4,0,0,1,4.172.182,13.771,13.771,0,0,1,3,.974,12.812,12.812,0,0,1,1.74.965c.19.124.328.23.443.3A.823.823,0,0,1,563.184,428.016Z" transform="translate(-320.678 -281.42)" fill="#fff"/>
        <path id="Trazado_2078" data-name="Trazado 2078" d="M484.3,270.124c0,.035-.314-.124-.828-.23a3.8,3.8,0,0,0-.908-.062,3.986,3.986,0,0,0-2.082.722,3.541,3.541,0,0,0-.673.611c-.337.4-.469.7-.509.686a1.772,1.772,0,0,1,.381-.788,3.272,3.272,0,0,1,.678-.682,3.8,3.8,0,0,1,2.214-.762,3.193,3.193,0,0,1,.952.12A1.772,1.772,0,0,1,484.3,270.124Z" transform="translate(-293.407 -195.796)" fill="#fff"/>
        <path id="Trazado_2079" data-name="Trazado 2079" d="M557.64,262.7a5.483,5.483,0,0,0-3.1-1.74A3.273,3.273,0,0,1,557.64,262.7Z" transform="translate(-335.325 -190.97)" fill="#fff"/>
        <path id="Trazado_2080" data-name="Trazado 2080" d="M619.458,313.053a1.729,1.729,0,0,1-.177.31,6.524,6.524,0,0,1-.624.815,7.927,7.927,0,0,1-3.1,2.126,7.587,7.587,0,0,1-5.505,0,8.221,8.221,0,0,1-2.79-1.771,7.942,7.942,0,0,1-1.116-1.36,3.986,3.986,0,0,1-.7-1.692,1.772,1.772,0,0,1,.164-.934,1.971,1.971,0,0,1,.6-.717,2.259,2.259,0,0,1,1.727-.443,2.617,2.617,0,0,1,1.479.886,3.232,3.232,0,0,1,.726,1.475,4.814,4.814,0,0,1-.443,2.954,7.53,7.53,0,0,1-1.506,2.13,7.835,7.835,0,0,1-3.211,1.926,7.152,7.152,0,0,1-1,.221,2.107,2.107,0,0,1-.354.031,1.979,1.979,0,0,1,.345-.08,8.946,8.946,0,0,0,.983-.257,8,8,0,0,0,3.131-1.944,7.476,7.476,0,0,0,1.448-2.095,4.659,4.659,0,0,0,.416-2.83,3.02,3.02,0,0,0-.682-1.373,2.387,2.387,0,0,0-1.355-.8,2.042,2.042,0,0,0-1.55.4,1.612,1.612,0,0,0-.669,1.453,3.756,3.756,0,0,0,.66,1.585,7.471,7.471,0,0,0,1.081,1.329,7.945,7.945,0,0,0,2.706,1.741,7.529,7.529,0,0,0,2.87.514,7.687,7.687,0,0,0,2.5-.483,8.033,8.033,0,0,0,3.074-2.037C619.193,313.469,619.436,313.04,619.458,313.053Z" transform="translate(-362.674 -217.937)" fill="#fff"/>
        <path id="Trazado_2081" data-name="Trazado 2081" d="M526.739,370.558a1.09,1.09,0,0,1,0-.19v-.554c0-.5,0-1.218-.035-2.135-.04-1.86-.1-4.535-.173-7.839-.164-6.643-.39-15.766-.642-25.864s-.443-19.252-.5-25.873c-.035-3.308-.035-5.988,0-7.843,0-.917.027-1.63.036-2.13v-.554a.1.1,0,1,1,.027,0v2.684c.022,1.864.057,4.539.1,7.843.111,6.643.323,15.766.567,25.868s.443,19.243.576,25.864c.062,3.313.089,5.992.1,7.843v2.688a1.589,1.589,0,0,1-.049.19Z" transform="translate(-319.057 -211.264)" fill="#263238"/>
        <g id="Grupo_654" data-name="Grupo 654" transform="translate(194.799 113.692)" opacity="0.3">
          <path id="Trazado_2082" data-name="Trazado 2082" d="M499.48,382.955a6.581,6.581,0,0,1,2.033-5.492,22.855,22.855,0,0,1,4.956-3.485,84.683,84.683,0,0,0,16.293-12.6c1.081-1.067,2.626-2.25,3.946-1.5a2.393,2.393,0,0,1,.624,3.122,7.353,7.353,0,0,1-2.5,2.423c-8.3,5.926-15.541,13.6-24.9,17.649" transform="translate(-499.409 -359.643)"/>
        </g>
        <path id="Trazado_2083" data-name="Trazado 2083" d="M528.423,360.58s0,.027-.08.075l-.261.2-1,.793-3.72,2.79-12.33,9.15-6.8,5.013-2.972,2.183a23.225,23.225,0,0,1-2.679,1.772,7.241,7.241,0,0,1-2.516.886,5.093,5.093,0,0,1-2.006-.1,3.857,3.857,0,0,1-1.16-.518,2.074,2.074,0,0,1-.345-.275,4.527,4.527,0,0,0,1.528.7,5.151,5.151,0,0,0,1.966.062,7.188,7.188,0,0,0,2.454-.886,23.394,23.394,0,0,0,2.657-1.8l2.958-2.214,6.794-5.035,12.356-9.075,3.764-2.737,1.027-.731.275-.19a.292.292,0,0,1,.093-.071Z" transform="translate(-300.789 -246.473)" fill="#263238"/>
        <path id="Trazado_2084" data-name="Trazado 2084" d="M513.749,135.023a6.882,6.882,0,0,0-.7-6.949,6.085,6.085,0,0,0-7.485-5.5c.443-.726-.319-1.581-1.027-2.046-2.343-1.541-5.465-2.5-7.923-1.143a5.7,5.7,0,0,0-8.769.886,9.376,9.376,0,0,0-4.743-.142,3.843,3.843,0,0,0-2.892,3.41,3.933,3.933,0,0,0-4.008,1.683,5.447,5.447,0,0,0-.62,4.429,3,3,0,0,0-3.313,1.825,4.327,4.327,0,0,0,.509,3.928,5.221,5.221,0,0,0-1.05,7.276,1.723,1.723,0,0,1,.483.828,2.015,2.015,0,0,1-.08.624,2.7,2.7,0,0,0,.917,2.56,2.285,2.285,0,0,1,.616.585,1.678,1.678,0,0,1,.035,1.085c-.314,1.7-.2,3.875,1.36,4.615a2.568,2.568,0,0,0-.886,2.724,12.246,12.246,0,0,0,1.258,2.768,20.01,20.01,0,0,0,1.492,2.95,3.168,3.168,0,0,0,2.795,1.47.886.886,0,0,0-.022,1.2,2.658,2.658,0,0,0,1.1.717,20.46,20.46,0,0,0,6.457,1.953,19.96,19.96,0,0,0,2.91-.08l3.849-.288a16.892,16.892,0,0,0,5.647-1.085,5.755,5.755,0,0,0,3.543-4.252" transform="translate(-288.618 -111.174)" fill="#263238"/>
        <path id="Trazado_2085" data-name="Trazado 2085" d="M491.049,151.482l-.159-3.171,18.942-4.216c5.859-.8,12.4,4.872,12.95,10.775.616,6.537,1.112,14.544.487,19.456-1.258,9.881-8.751,11.364-8.751,11.364l.261,15.784-21.789-.527Z" transform="translate(-299.864 -125.822)" fill="#ffbe9d"/>
        <path id="Trazado_2086" data-name="Trazado 2086" d="M553.976,180.109c-.155.168-1.129-.509-2.485-.443s-2.33.757-2.485.593c-.075-.071.075-.372.5-.7a3.481,3.481,0,0,1,1.98-.682,3.343,3.343,0,0,1,1.984.576C553.9,179.737,554.047,180.029,553.976,180.109Z" transform="translate(-332.232 -145.242)" fill="#263238"/>
        <path id="Trazado_2087" data-name="Trazado 2087" d="M522.631,181.689c-.151.168-1.129-.5-2.484-.443s-2.33.753-2.48.593c-.075-.071.075-.372.5-.7a3.45,3.45,0,0,1,1.98-.678,3.335,3.335,0,0,1,1.984.571C522.556,181.321,522.707,181.613,522.631,181.689Z" transform="translate(-314.772 -146.122)" fill="#263238"/>
        <path id="Trazado_2088" data-name="Trazado 2088" d="M538.994,187.8a8.811,8.811,0,0,1,2.192-.469c.345-.044.669-.124.722-.363a1.772,1.772,0,0,0-.266-1.019q-.527-1.244-1.107-2.6a45.818,45.818,0,0,1-2.511-6.829,45.642,45.642,0,0,1,3.056,6.608c.372.917.726,1.772,1.063,2.626a1.966,1.966,0,0,1,.221,1.329.886.886,0,0,1-.554.527,2.363,2.363,0,0,1-.585.1A10.069,10.069,0,0,1,538.994,187.8Z" transform="translate(-326.117 -143.928)" fill="#263238"/>
        <path id="Trazado_2089" data-name="Trazado 2089" d="M527.11,234.27a26.058,26.058,0,0,1-13.61-3.1s3.543,6.776,13.68,5.563Z" transform="translate(-312.461 -174.376)" fill="#eb996e"/>
        <path id="Trazado_2090" data-name="Trazado 2090" d="M531.032,204.36c.221,0,.27,1.453,1.563,2.462s2.852.793,2.87,1c.027.089-.341.3-1,.332a3.658,3.658,0,0,1-2.4-.753,3.18,3.18,0,0,1-1.213-2.064C530.779,204.728,530.93,204.356,531.032,204.36Z" transform="translate(-322.118 -159.439)" fill="#263238"/>
        <path id="Trazado_2091" data-name="Trazado 2091" d="M521.04,169.739c-.124.376-1.484.244-3.069.483s-2.861.717-3.1.39c-.1-.155.115-.509.624-.886a5.394,5.394,0,0,1,4.681-.664C520.788,169.282,521.089,169.566,521.04,169.739Z" transform="translate(-313.212 -139.628)" fill="#263238"/>
        <path id="Trazado_2092" data-name="Trazado 2092" d="M552.259,165.913c-.23.314-1.174,0-2.3.044s-2.068.27-2.3-.044c-.1-.155.04-.469.443-.771a3.326,3.326,0,0,1,3.7,0C552.224,165.443,552.361,165.758,552.259,165.913Z" transform="translate(-331.477 -137.277)" fill="#263238"/>
        <path id="Trazado_2093" data-name="Trazado 2093" d="M515,136.294a4.845,4.845,0,0,0,1.28,2.046,1.673,1.673,0,0,0,2.214,0,2.183,2.183,0,0,0,3.366-.443,2.98,2.98,0,0,0,3.614.137l2.967.443c1.072.164,2.4.226,2.994-.678.142-.213.235-.474.443-.589a1.329,1.329,0,0,1,.753-.04,2.516,2.516,0,0,0,2.13-1.165,7.6,7.6,0,0,0,.957-2.343c.35-1.253.589-2.861-.443-3.632a3.255,3.255,0,0,0-1.444-.469,7.3,7.3,0,0,0-3.1-.044,5.453,5.453,0,0,0-2.919,2.392,1.373,1.373,0,0,0-.943-1.647,2.719,2.719,0,0,0-2.037.31,5.461,5.461,0,0,0-2.17,2.086,4.429,4.429,0,0,0-3.809,2.657,3.215,3.215,0,0,0-2.542-.3,1.155,1.155,0,0,0-.735.523.514.514,0,0,0,.31.757" transform="translate(-313.297 -117.662)" fill="#263238"/>
        <path id="Trazado_2094" data-name="Trazado 2094" d="M536.24,140.861a3.246,3.246,0,0,0,5.19,3.477,2.989,2.989,0,0,0,3.472,1.727,4.7,4.7,0,0,0,2.657,3.986,3.627,3.627,0,0,0,.093,2.684,2.263,2.263,0,0,0,1.182,1.244,2.56,2.56,0,0,0,2.015-.266,3.61,3.61,0,0,0,1.94-2.126,2.08,2.08,0,0,0-1.081-2.48,7.862,7.862,0,0,0,1.8-2.927,2.529,2.529,0,0,0,.04-1.927,1.12,1.12,0,0,0-1.643-.443,2.892,2.892,0,0,0-3.317-4.026,2.4,2.4,0,0,0-4.079-1.528" transform="translate(-325.041 -122.23)" fill="#263238"/>
        <path id="Trazado_2095" data-name="Trazado 2095" d="M491.473,141.869a5.071,5.071,0,0,1-2.83,6.993,2.467,2.467,0,0,1-.195,4.783,4.615,4.615,0,0,1-.837,5.864c.912.469-.022,3.1-1.772,2.795-2.024-.341.089-2.985-3.6-2.733l-4.632,9.473a1.512,1.512,0,0,1-1.887-.983,3.322,3.322,0,0,1,.221-2.325,12.5,12.5,0,0,0,.859-2.214,1.121,1.121,0,0,0-.035-.713c-.159-.332-.549-.469-.886-.651a3.608,3.608,0,0,1-1.4-3.689,29.805,29.805,0,0,1,1.227-3.986,1.329,1.329,0,0,0,.031-.859c-.133-.323-.474-.5-.762-.691a3.06,3.06,0,0,1,.554-5.35,1.76,1.76,0,0,1-.443-2.392,8.968,8.968,0,0,1,1.865-1.958c1.24-1.174,2.161-2.759,3.707-3.481a4.194,4.194,0,0,1,4.721.886,6.051,6.051,0,0,1,3.375-1.036,2.461,2.461,0,0,1,2.369,2.214" transform="translate(-290.257 -123.238)" fill="#263238"/>
        <path id="Trazado_2096" data-name="Trazado 2096" d="M550.4,174.5a2.106,2.106,0,0,1-.345,0H544.2a4.624,4.624,0,0,0-1.276.124.886.886,0,0,0-.514.337,1.382,1.382,0,0,0-.19.633,6.252,6.252,0,0,0,.044,1.461,8.939,8.939,0,0,0,1.014,2.985,7.608,7.608,0,0,0,2.214,2.516,5.908,5.908,0,0,0,3.136,1.129,4.012,4.012,0,0,0,1.563-.252,3.786,3.786,0,0,0,1.262-.837,5.465,5.465,0,0,0,1.369-2.467,12.12,12.12,0,0,0,.372-2.48,3.755,3.755,0,0,0-.315-2,2,2,0,0,0-1.169-.93,4.874,4.874,0,0,0-.966-.208,2.5,2.5,0,0,1-.345-.053,1.623,1.623,0,0,1,.35,0,4.607,4.607,0,0,1,.988.173,2.086,2.086,0,0,1,1.258.952,3.907,3.907,0,0,1,.363,2.068,12.191,12.191,0,0,1-.35,2.52,5.7,5.7,0,0,1-1.4,2.569,3.853,3.853,0,0,1-1.329.886,4.146,4.146,0,0,1-1.652.275,6.107,6.107,0,0,1-3.26-1.169,7.779,7.779,0,0,1-2.3-2.591,9.008,9.008,0,0,1-1.023-3.065,6.006,6.006,0,0,1-.035-1.515,1.619,1.619,0,0,1,.226-.726,1.142,1.142,0,0,1,.62-.407,4.845,4.845,0,0,1,1.329-.115h1.213l3.663.062,1,.031A1.655,1.655,0,0,1,550.4,174.5Z" transform="translate(-328.321 -142.695)" fill="#263238"/>
        <path id="Trazado_2097" data-name="Trazado 2097" d="M512.9,174.129l.345-.027,1-.027,3.685-.084h1.218a4.66,4.66,0,0,1,1.329.12,1.085,1.085,0,0,1,.62.407,1.532,1.532,0,0,1,.226.722,6,6,0,0,1-.035,1.515,9.03,9.03,0,0,1-1.023,3.069,7.772,7.772,0,0,1-2.334,2.582,6.063,6.063,0,0,1-3.26,1.165,4.146,4.146,0,0,1-1.652-.275,3.853,3.853,0,0,1-1.329-.886,5.677,5.677,0,0,1-1.4-2.564,11.9,11.9,0,0,1-.35-2.52,3.84,3.84,0,0,1,.363-2.073,2.086,2.086,0,0,1,1.253-.952,4.545,4.545,0,0,1,.988-.168,1.9,1.9,0,0,1,.35,0,1.853,1.853,0,0,1-.345.053,5.677,5.677,0,0,0-.965.208,2.024,2.024,0,0,0-1.169.934,3.791,3.791,0,0,0-.314,2,12.345,12.345,0,0,0,.372,2.476,5.549,5.549,0,0,0,1.369,2.467,3.636,3.636,0,0,0,1.267.837,3.911,3.911,0,0,0,1.559.252,5.855,5.855,0,0,0,3.135-1.129,7.608,7.608,0,0,0,2.241-2.511,8.959,8.959,0,0,0,1.01-2.985,5.853,5.853,0,0,0,.044-1.466,1.435,1.435,0,0,0-.186-.633.93.93,0,0,0-.518-.337,4.456,4.456,0,0,0-1.275-.12h-5.846A1.642,1.642,0,0,1,512.9,174.129Z" transform="translate(-310.462 -142.517)" fill="#263238"/>
        <path id="Trazado_2098" data-name="Trazado 2098" d="M533.25,174.724q2.5-.137,5-.027a11.024,11.024,0,0,1-2.5.182,11.155,11.155,0,0,1-2.5-.155Z" transform="translate(-323.464 -142.886)" fill="#263238"/>
        <path id="Trazado_2099" data-name="Trazado 2099" d="M490.59,185.332c-.155-.071-6.267-2.02-6.2,4.265s6.346,4.938,6.355,4.756S490.59,185.332,490.59,185.332Z" transform="translate(-296.242 -148.649)" fill="#ffbe9d"/>
        <path id="Trazado_2100" data-name="Trazado 2100" d="M491.156,194.547c-.027,0-.111.08-.292.164a1.1,1.1,0,0,1-.819.022,2.7,2.7,0,0,1-1.271-2.418,3.609,3.609,0,0,1,.292-1.572,1.262,1.262,0,0,1,.815-.846.562.562,0,0,1,.651.3c.084.173.044.3.08.31s.133-.106.08-.363a.7.7,0,0,0-.248-.394.846.846,0,0,0-.607-.155,1.537,1.537,0,0,0-1.138.983,3.7,3.7,0,0,0-.363,1.772,2.837,2.837,0,0,0,1.616,2.7,1.178,1.178,0,0,0,1-.173C491.148,194.7,491.179,194.56,491.156,194.547Z" transform="translate(-298.439 -151.207)" fill="#eb996e"/>
        <path id="Trazado_2101" data-name="Trazado 2101" d="M531.493,142.58a4.03,4.03,0,0,1-6.842,4.154,2.028,2.028,0,0,1-3.826,1.329,1.909,1.909,0,0,1-1.174,1.772,1.241,1.241,0,0,1-1.621-1.036,1.47,1.47,0,0,1-2.555-.509,2.6,2.6,0,0,1-1.475.93c-.589.058-1.245-.531-1.005-1.076a1.279,1.279,0,0,1-1.851-1.3,1.772,1.772,0,0,1-2.91.177.886.886,0,0,1-1.169.027,2.511,2.511,0,0,1-.691-1.076,7.614,7.614,0,0,1-.713-2.467,5.2,5.2,0,0,1,2.507-4.455,13.488,13.488,0,0,1,4.429-1.617,6.527,6.527,0,0,1,3.242-.208,21.007,21.007,0,0,0,2.374.921,9.43,9.43,0,0,0,2.17-.137,5.315,5.315,0,0,1,3.286.85,2.011,2.011,0,0,0,1,.443,2.214,2.214,0,0,0,.948-.337,3.322,3.322,0,0,1,3.623.611,6.415,6.415,0,0,0,1.1,1.063,11.431,11.431,0,0,1,1.134.523c.332.244.5.81.168,1.058" transform="translate(-308.089 -121.96)" fill="#263238"/>
        <path id="Trazado_2102" data-name="Trazado 2102" d="M528.93,134.964a2.967,2.967,0,0,0,3.242.177,4.73,4.73,0,0,0,2.073-2.657,3.543,3.543,0,0,0,0-2.737,1.849,1.849,0,0,0-2.352-.921,5.337,5.337,0,0,0-.443-9.145,4.007,4.007,0,0,0,.292-3.733,2.3,2.3,0,0,0-3.3-.886,3.715,3.715,0,0,0-5.363-1.4,2.354,2.354,0,0,0-1.329-2.808,4.723,4.723,0,0,0-3.335-.066,1.772,1.772,0,0,1-1.214.08c-.314-.146-.5-.478-.748-.722-1.209-1.191-3.2-.044-4.464,1.089a1.529,1.529,0,0,0-2.05-.195,3.738,3.738,0,0,0-1.24,1.869,1.479,1.479,0,0,1-.487.775,1.772,1.772,0,0,1-1.129.058,3.6,3.6,0,0,0-3.756,2.485,2.613,2.613,0,0,0-2.8,3.454,2.345,2.345,0,0,0-1.453,3.64" transform="translate(-304.174 -106.669)" fill="#263238"/>
        <path id="Trazado_2103" data-name="Trazado 2103" d="M529.786,112.47a2.214,2.214,0,0,1,.62-.062,3.4,3.4,0,0,1,1.683.483,3.348,3.348,0,0,1,1.608,2.17,3.592,3.592,0,0,1-1.005,3.322l-.04-.168a3.14,3.14,0,0,1-.071,6.067l.058-.19a3.169,3.169,0,0,1,.368.536,3.317,3.317,0,0,1-.416,3.8,3.375,3.375,0,0,1-3.4.886l.044-.2a1.1,1.1,0,0,1,.828.735,1.408,1.408,0,0,1-.022,1.05,2.813,2.813,0,0,1-1.382,1.289,6.546,6.546,0,0,1-4.916.4,4.51,4.51,0,0,1-.487-.19.585.585,0,0,1-.164-.084s.235.084.669.208a6.643,6.643,0,0,0,4.818-.487,2.657,2.657,0,0,0,1.284-1.209,1.235,1.235,0,0,0,0-.908.886.886,0,0,0-.673-.6l.049-.2a3.162,3.162,0,0,0,3.175-.859,3.074,3.074,0,0,0,.04-4.026l-.115-.142.173-.049a3.007,3.007,0,0,0,2.214-3,3.051,3.051,0,0,0-2.117-2.657l-.168-.044.128-.124a3.419,3.419,0,0,0,.974-3.14,3.211,3.211,0,0,0-1.5-2.1,3.543,3.543,0,0,0-1.63-.527C530,112.443,529.786,112.487,529.786,112.47Z" transform="translate(-317.804 -108.209)" fill="#455a64"/>
        <path id="Trazado_2104" data-name="Trazado 2104" d="M562.48,128.83s.04,0,.106.071a1.686,1.686,0,0,1,.266.257,2.727,2.727,0,0,1,.607,1.244,2.657,2.657,0,0,1-.443,2.064,2.848,2.848,0,0,1-2.383,1.2l.089-.177a2.59,2.59,0,0,1,.576,1.621,2.48,2.48,0,0,1-.647,1.718,2.657,2.657,0,0,1-2.276.815l.049-.217a1.966,1.966,0,0,1,1.213,1.112,2.684,2.684,0,0,1,.2,1.492,2.533,2.533,0,0,1-.562,1.227,3.4,3.4,0,0,1-.886.753,4.658,4.658,0,0,1-1.515.589,4.177,4.177,0,0,1-.443.066.575.575,0,0,1-.151,0s.2-.044.562-.142a5.035,5.035,0,0,0,1.457-.633,3.406,3.406,0,0,0,.81-.74,2.391,2.391,0,0,0,.5-1.147,2.471,2.471,0,0,0-.2-1.377,1.772,1.772,0,0,0-1.081-.988l.049-.217a2.418,2.418,0,0,0,2.073-.753,2.264,2.264,0,0,0,.589-1.559,2.4,2.4,0,0,0-.518-1.484l-.151-.186h.239a2.657,2.657,0,0,0,2.214-1.089,2.538,2.538,0,0,0,.443-1.931,2.822,2.822,0,0,0-.527-1.227A3.988,3.988,0,0,0,562.48,128.83Z" transform="translate(-336.295 -117.36)" fill="#455a64"/>
        <path id="Trazado_2105" data-name="Trazado 2105" d="M474.383,161.155a.5.5,0,0,1-.058-.137,2.662,2.662,0,0,1-.12-.407,4.248,4.248,0,0,1-.044-1.585,4.331,4.331,0,0,1,1.01-2.188,4.526,4.526,0,0,1,2.657-1.488l-.089.142a2.414,2.414,0,0,1,3.623-2.759l-.173.08a2.719,2.719,0,0,1,1.772-2.214,2.467,2.467,0,0,1,2.214.323,2.573,2.573,0,0,1,.943,1.156,1.465,1.465,0,0,1,.111.385c0,.089.022.133,0,.137s-.049-.186-.19-.492a2.621,2.621,0,0,0-.952-1.072,2.352,2.352,0,0,0-2.086-.261,2.529,2.529,0,0,0-1.63,2.042l-.022.182-.146-.1a2.245,2.245,0,0,0-2.679.226,2.276,2.276,0,0,0-.611,2.281l.04.124h-.128a4.384,4.384,0,0,0-2.533,1.4,4.291,4.291,0,0,0-1.019,2.086,4.668,4.668,0,0,0,0,1.55C474.339,160.956,474.4,161.15,474.383,161.155Z" transform="translate(-290.514 -129.414)" fill="#455a64"/>
        <path id="Trazado_2106" data-name="Trazado 2106" d="M479.006,175.149a1.1,1.1,0,0,1-.261-.354,2.068,2.068,0,0,1-.19-1.2,1.966,1.966,0,0,1,.992-1.492,2.214,2.214,0,0,1,2.214.035l-.177.08.035-.159a1.931,1.931,0,0,1,.682-1,2.71,2.71,0,0,1,1.005-.487,3.543,3.543,0,0,1,1.851.106,7.442,7.442,0,0,1,1.152.443,1.563,1.563,0,0,1,.394.217c0,.044-.6-.244-1.59-.518a3.543,3.543,0,0,0-1.772-.053,2.059,2.059,0,0,0-1.515,1.329.766.766,0,0,1-.031.137l-.04.164-.137-.089a2,2,0,0,0-1.971-.044,1.811,1.811,0,0,0-.934,1.329,2.112,2.112,0,0,0,.111,1.138A3.552,3.552,0,0,1,479.006,175.149Z" transform="translate(-292.98 -140.574)" fill="#455a64"/>
        <path id="Trazado_2107" data-name="Trazado 2107" d="M598.32,245.258s-2.17,4.181-2.17,4.451a53.164,53.164,0,0,0,3.614,3.986s-.443,6.289,0,7.462,1.355,8.038,1.355,8.038a3.306,3.306,0,0,0,2.976-3.339,53.035,53.035,0,0,0,0-5.872s1.625-1.984,2.8-1.081,1,15.439,1,15.439.27,2.529,2.254,2.259l1.178-2.617,2.436-4.7,1.9-1.984s1.625-2.077,1.355-3.986-.089-5.509-.886-6.865a131.651,131.651,0,0,0-8.667-10.744,28.17,28.17,0,0,0-3.614-1.036C603.466,244.647,598.32,245.258,598.32,245.258Z" transform="translate(-358.507 -181.896)" fill="#a36957"/>
        <path id="Trazado_2108" data-name="Trazado 2108" d="M116.476,176.59c5.412-11.072,16.909-17.409,28.056-12.6l.115.049c10.518,4.646,17,12.808,16.107,17.44-2.936,15.191-7.861,17.941-7.861,17.941l-32.928,1.5s-7.905-12.635-3.618-23.986C116.391,176.816,116.422,176.7,116.476,176.59Z" transform="translate(-90.488 -136.04)" fill="#263238"/>
        <path id="Trazado_2109" data-name="Trazado 2109" d="M157.187,201.97c1.519-5.713.111-13.822-5.664-15.1l-18.893-1.426a3.454,3.454,0,0,0-4.048,2.347l-11.749,38.6a10.629,10.629,0,0,0,7,13.255h0a10.629,10.629,0,0,0,13.26-6.741l1.648-4.872s7.551,1.2,12.153-7.631C153.184,216.009,155.5,208.32,157.187,201.97Z" transform="translate(-91.207 -148.856)" fill="#ffbe9d"/>
        <path id="Trazado_2110" data-name="Trazado 2110" d="M196.4,227.984c-.186.133-1.36-.257-3.007-.106s-2.834.726-3.016.629c-.089-.044.1-.266.616-.531a6.723,6.723,0,0,1,2.409-.647,6.059,6.059,0,0,1,2.4.23C196.326,227.736,196.507,227.927,196.4,227.984Z" transform="translate(-132.427 -172.218)" fill="#263238"/>
        <path id="Trazado_2111" data-name="Trazado 2111" d="M167.329,219.77c-.248,0-1.072-1.05-2.657-1.9s-2.985-1.045-3.1-1.244c-.058-.093.244-.186.886-.111a7.263,7.263,0,0,1,2.551.864,6.493,6.493,0,0,1,2.015,1.648C167.4,219.491,167.444,219.775,167.329,219.77Z" transform="translate(-116.389 -166.196)" fill="#263238"/>
        <path id="Trazado_2112" data-name="Trazado 2112" d="M176.4,232.886a8.967,8.967,0,0,1,2.214.323c.341.075.673.115.806-.093a1.772,1.772,0,0,0,.106-1.05c-.044-.886-.089-1.838-.133-2.826a46.682,46.682,0,0,1,0-7.281,43.555,43.555,0,0,1,.58,7.263q.049,1.479.089,2.83a2,2,0,0,1-.261,1.329.886.886,0,0,1-.7.3,2.25,2.25,0,0,1-.58-.111A8.187,8.187,0,0,1,176.4,232.886Z" transform="translate(-124.654 -169.245)" fill="#263238"/>
        <path id="Trazado_2113" data-name="Trazado 2113" d="M152.572,272.239a25.041,25.041,0,0,1-11.382-7.529s1.01,7.458,10.629,9.708Z" transform="translate(-105.038 -193.062)" fill="#eb996e"/>
        <path id="Trazado_2114" data-name="Trazado 2114" d="M167.6,251.185a2.44,2.44,0,0,0-1.772-1.555,2.214,2.214,0,0,0-1.727.292,1.417,1.417,0,0,0-.616,1.5,1.643,1.643,0,0,0,1.537.992,5.146,5.146,0,0,0,1.975-.443,1.568,1.568,0,0,0,.5-.261.443.443,0,0,0,.155-.478" transform="translate(-117.441 -184.626)" fill="#f83f00"/>
        <path id="Trazado_2115" data-name="Trazado 2115" d="M166.439,245.775c.213.058-.252,1.457.611,2.848s2.4,1.736,2.347,1.935c0,.093-.421.159-1.054-.031a3.676,3.676,0,0,1-1.98-1.555,3.211,3.211,0,0,1-.443-2.361C166.072,246.028,166.364,245.736,166.439,245.775Z" transform="translate(-118.781 -182.511)" fill="#263238"/>
        <path id="Trazado_2116" data-name="Trazado 2116" d="M169.5,211.419c-.252.306-1.555-.314-3.211-.669s-3.1-.368-3.193-.753c-.044-.182.292-.443.926-.6a5.593,5.593,0,0,1,2.551,0,5.686,5.686,0,0,1,2.325,1.072C169.411,210.909,169.614,211.272,169.5,211.419Z" transform="translate(-117.24 -162.162)" fill="#263238"/>
        <path id="Trazado_2117" data-name="Trazado 2117" d="M198.138,218.946c-.323.217-1.112-.381-2.175-.753s-2.033-.465-2.139-.841c-.04-.177.2-.443.686-.567a3.339,3.339,0,0,1,3.477,1.284C198.262,218.494,198.284,218.835,198.138,218.946Z" transform="translate(-134.36 -166.311)" fill="#263238"/>
        <path id="Trazado_2118" data-name="Trazado 2118" d="M128,193.046c-.035.151,1.568,5.7,3.884,6.094,7.006,1.2,13.056-15.718,13.056-15.718l-1.63,6.408,10.757,2.976,1.466-7.493-.288,7.338,9.207,3.6s2.781-11.984-4.043-16.134S132.641,171.792,128,193.046Z" transform="translate(-97.689 -144.06)" fill="#263238"/>
        <path id="Trazado_2119" data-name="Trazado 2119" d="M128.9,218.022c-.1-.115-3.72-3.95-5.921,1.143s3.366,6.253,3.437,6.112S128.9,218.022,128.9,218.022Z" transform="translate(-94.607 -166.219)" fill="#ffbe9d"/>
        <path id="Trazado_2120" data-name="Trazado 2120" d="M127.606,224.735c0-.027-.115.027-.292.027a.961.961,0,0,1-.669-.27,2.419,2.419,0,0,1-.168-2.409,3.3,3.3,0,0,1,.8-1.165,1.116,1.116,0,0,1,.965-.39.487.487,0,0,1,.416.469c0,.168-.071.257-.044.279s.146-.04.195-.266a.638.638,0,0,0-.062-.407.744.744,0,0,0-.443-.341,1.364,1.364,0,0,0-1.271.39,3.282,3.282,0,0,0-.921,1.284,2.525,2.525,0,0,0,.345,2.759,1.036,1.036,0,0,0,.886.217C127.544,224.854,127.619,224.752,127.606,224.735Z" transform="translate(-96.502 -168.282)" fill="#eb996e"/>
        <path id="Trazado_2121" data-name="Trazado 2121" d="M124.581,232.559a.892.892,0,0,1-.1.345,1.8,1.8,0,0,1-.673.713,1.929,1.929,0,0,1-2.591-2.724,2.015,2.015,0,0,1,1.244-.775,1.846,1.846,0,0,1,.983.08c.217.089.31.177.306.19a2.418,2.418,0,0,0-1.244-.071,1.856,1.856,0,0,0-1.072.726,1.772,1.772,0,0,0,.992,2.578,1.851,1.851,0,0,0,1.28-.182A2.454,2.454,0,0,0,124.581,232.559Z" transform="translate(-93.734 -173.772)" fill="#fafafa"/>
        <path id="Trazado_2122" data-name="Trazado 2122" d="M166.407,222.349a1.276,1.276,0,0,1-1.275,1.24,1.227,1.227,0,0,1-1.271-1.2,1.28,1.28,0,0,1,1.275-1.24,1.222,1.222,0,0,1,1.271,1.2Z" transform="translate(-117.668 -168.792)" fill="#263238"/>
        <path id="Trazado_2123" data-name="Trazado 2123" d="M194.037,231.489a1.275,1.275,0,0,1-1.275,1.24,1.222,1.222,0,0,1-1.271-1.2,1.28,1.28,0,0,1,1.275-1.244,1.222,1.222,0,0,1,1.271,1.2Z" transform="translate(-133.061 -173.884)" fill="#263238"/>
        <path id="Trazado_2124" data-name="Trazado 2124" d="M186.017,187.088a1.112,1.112,0,0,1,.2.053l.576.186,2.175.735,7.71,2.657-.12.04a13.774,13.774,0,0,0,1.709-4.593,12.724,12.724,0,0,0-.2-5.434,12.4,12.4,0,0,0-1.807-3.928,11.839,11.839,0,0,0-1.329-1.581c-.478-.469-.992-.886-1.47-1.329-.957-.886-1.865-1.718-2.781-2.418s-1.842-1.253-2.657-1.772c-1.665-1.045-3.038-1.851-3.986-2.387l-1.112-.607-.288-.159a.368.368,0,0,1-.1-.062l.106.04.3.137c.261.124.647.314,1.134.571.974.514,2.365,1.3,4.043,2.33.833.527,1.772,1.072,2.7,1.771s1.847,1.541,2.812,2.414c.478.443.988.886,1.479,1.351a11.361,11.361,0,0,1,1.355,1.608,12.44,12.44,0,0,1,1.851,3.986,12.892,12.892,0,0,1,.195,5.532,14.022,14.022,0,0,1-1.772,4.659l-.04.071-.08-.031-7.679-2.759-2.152-.788-.567-.213Z" transform="translate(-128.075 -138.341)" fill="#455a64"/>
        <path id="Trazado_2125" data-name="Trazado 2125" d="M121.451,199.764a4.052,4.052,0,0,1-.35-1.329,5.709,5.709,0,0,1,.886-3.605,5.2,5.2,0,0,1,1.891-1.772,9.531,9.531,0,0,1,2.839-.908,29.712,29.712,0,0,0,3.189-.669,11.913,11.913,0,0,0,3.127-1.5,17.02,17.02,0,0,0,4.655-4.81,30.117,30.117,0,0,0,2.538-4.894c.611-1.453,1.045-2.657,1.355-3.477.151-.394.27-.713.359-.952a2.021,2.021,0,0,1,.137-.323,2.215,2.215,0,0,1-.093.341l-.319.965c-.283.833-.7,2.046-1.289,3.508a29.312,29.312,0,0,1-2.5,4.951,17.042,17.042,0,0,1-4.708,4.872,12.016,12.016,0,0,1-3.189,1.519,28.186,28.186,0,0,1-3.211.66,9.465,9.465,0,0,0-2.786.886,5.018,5.018,0,0,0-1.847,1.7,5.726,5.726,0,0,0-.921,3.508,8.114,8.114,0,0,0,.239,1.329Z" transform="translate(-93.833 -143.378)" fill="#455a64"/>
        <path id="Trazado_2126" data-name="Trazado 2126" d="M137.32,180.28c0-.049.713,0,1.834-.173a12.1,12.1,0,0,0,1.931-.443,11.914,11.914,0,0,0,4.181-2.431,11.634,11.634,0,0,0,1.355-1.448c.7-.886,1.014-1.528,1.058-1.506a2.374,2.374,0,0,1-.2.443,4.1,4.1,0,0,1-.292.509,7.4,7.4,0,0,1-.443.647,10.993,10.993,0,0,1-1.329,1.506,12.1,12.1,0,0,1-1.993,1.47,11.886,11.886,0,0,1-2.263,1,11.07,11.07,0,0,1-1.975.443,7.444,7.444,0,0,1-.775.058,4.181,4.181,0,0,1-.585,0A2.258,2.258,0,0,1,137.32,180.28Z" transform="translate(-102.882 -142.68)" fill="#455a64"/>
        <path id="Trazado_2127" data-name="Trazado 2127" d="M132,173.519c0-.044.527.186,1.4.359a7.809,7.809,0,0,0,1.546.151,8.415,8.415,0,0,0,3.671-.833,7.906,7.906,0,0,0,1.329-.8c.709-.531,1.067-.957,1.1-.926s-.071.12-.235.314a2.968,2.968,0,0,1-.314.332,4.245,4.245,0,0,1-.443.407,7.394,7.394,0,0,1-1.329.886,8.659,8.659,0,0,1-1.834.66,8.389,8.389,0,0,1-1.935.195,7.183,7.183,0,0,1-1.577-.2,5.593,5.593,0,0,1-.585-.168,3.024,3.024,0,0,1-.443-.168A1.572,1.572,0,0,1,132,173.519Z" transform="translate(-99.918 -141.114)" fill="#455a64"/>
        <path id="Trazado_2128" data-name="Trazado 2128" d="M175.043,189.175a6.068,6.068,0,0,1-.443-1.258,19.278,19.278,0,0,1-.735-6.408,5.758,5.758,0,0,1,.159-1.329,10.538,10.538,0,0,1,0,1.329,27.415,27.415,0,0,0,.168,3.2,27.84,27.84,0,0,0,.562,3.158,10.247,10.247,0,0,1,.288,1.306Z" transform="translate(-123.226 -145.968)" fill="#455a64"/>
        <path id="Trazado_2129" data-name="Trazado 2129" d="M181.93,190.885a3.782,3.782,0,0,1-.669-.939,9.3,9.3,0,0,1-1.165-5.372,3.7,3.7,0,0,1,.221-1.134,11.55,11.55,0,0,0,1.612,7.445Z" transform="translate(-126.694 -147.784)" fill="#455a64"/>
        <path id="Trazado_2130" data-name="Trazado 2130" d="M200.491,194.392a1.908,1.908,0,0,1-.443-.093,8.451,8.451,0,0,1-1.213-.416,11.706,11.706,0,0,1-1.7-.886,12.463,12.463,0,0,1-3.415-3.167,11.624,11.624,0,0,1-1-1.625,8.731,8.731,0,0,1-.5-1.182,1.89,1.89,0,0,1-.128-.443c.04,0,.261.616.779,1.559a13.111,13.111,0,0,0,1.023,1.577,14.083,14.083,0,0,0,1.541,1.7,14.509,14.509,0,0,0,1.816,1.408,14.171,14.171,0,0,0,1.648.886C199.858,194.18,200.5,194.348,200.491,194.392Z" transform="translate(-133.396 -149.534)" fill="#455a64"/>
        <path id="Trazado_2131" data-name="Trazado 2131" d="M208.017,254.289a7.036,7.036,0,0,0-2.781-.926,10.8,10.8,0,0,0-2.861,1.151,3.1,3.1,0,0,0-1.931-.084,5,5,0,0,0-1.909,1.5,5.275,5.275,0,0,0-1.329-.058c-.793.053-2.037,3.242-2.214,4.15-.244,1.28.5,2.064,1.594,1.329S198.7,257.7,198.7,257.7s-.443,4.429,1.408,4.291,1.625-3.756,1.625-3.756-.593,3.893,1.329,3.64a5.532,5.532,0,0,0,2.6-1.054s1.515.066,2.121-2.015A11.608,11.608,0,0,0,208.017,254.289Z" transform="translate(-134.987 -186.737)" fill="#ffbe9d"/>
        <path id="Trazado_2132" data-name="Trazado 2132" d="M206.128,263.136a1.036,1.036,0,0,1-.159.337,2.936,2.936,0,0,1-.638.8,1.661,1.661,0,0,1-.647.337,1.236,1.236,0,0,1-.846-.075,1.253,1.253,0,0,1-.589-.735,4.378,4.378,0,0,1-.168-.957,13.623,13.623,0,0,1-.031-3.335,5.65,5.65,0,0,1,.239-.988,1.049,1.049,0,0,1,.155-.341c.035,0-.146.509-.23,1.351a16.518,16.518,0,0,0,.1,3.291,4.092,4.092,0,0,0,.155.886,1.032,1.032,0,0,0,.469.62,1.253,1.253,0,0,0,1.293-.2,3.458,3.458,0,0,0,.664-.722C206.035,263.233,206.115,263.127,206.128,263.136Z" transform="translate(-139.453 -189.424)" fill="#eb996e"/>
        <path id="Trazado_2133" data-name="Trazado 2133" d="M212.146,263.782a.537.537,0,0,1-.235.252,1.1,1.1,0,0,1-.934.062,1.616,1.616,0,0,1-.886-1.058,5.076,5.076,0,0,1-.12-1.674,18.23,18.23,0,0,1,.266-3,3.986,3.986,0,0,1,.359-1.2c.035,0-.093.465-.2,1.222a26.5,26.5,0,0,0-.195,2.981,5.315,5.315,0,0,0,.093,1.6,1.484,1.484,0,0,0,.753.97,1.045,1.045,0,0,0,.828,0C212.053,263.866,212.128,263.769,212.146,263.782Z" transform="translate(-143.345 -188.861)" fill="#eb996e"/>
        <path id="Trazado_2134" data-name="Trazado 2134" d="M219.611,260.089a.544.544,0,0,1-.155.323.957.957,0,0,1-.943.235,1.488,1.488,0,0,1-.957-1.072,7.369,7.369,0,0,1-.151-1.74,26.185,26.185,0,0,1,.168-3.14,6.73,6.73,0,0,1,.208-1.284,8.5,8.5,0,0,1-.044,1.3c-.049.8-.115,1.9-.1,3.1a8.008,8.008,0,0,0,.124,1.687,1.329,1.329,0,0,0,.8.974.886.886,0,0,0,.837-.142C219.562,260.213,219.588,260.08,219.611,260.089Z" transform="translate(-147.497 -186.766)" fill="#eb996e"/>
        <path id="Trazado_2135" data-name="Trazado 2135" d="M109.884,303.467c-1.382-5.66-1.692-7.972-4.34-11.2-5.527-6.754-5.58-14.416-9.832-16.648-1.461-.766-1.949-2.1-3.1-2.529a12.989,12.989,0,0,0-6.679-.607h0s-6.758,3.282-10.16,7.923-8.113,24.8-8.113,24.8L67.341,337.9,59.56,356.572h41.458s5.6-29.349,7.033-35.528S110.584,306.323,109.884,303.467Z" transform="translate(-59.56 -197.287)" fill="#455a64"/>
        <path id="Trazado_2136" data-name="Trazado 2136" d="M138.865,314.08a.965.965,0,0,1,.239.124,5.924,5.924,0,0,1,.651.443,8.681,8.681,0,0,1,1.953,2.082,8.893,8.893,0,0,1,1.444,3.986,8.769,8.769,0,0,1-4.787,8.618,8.884,8.884,0,0,1-4.136.886,8.534,8.534,0,0,1-2.8-.558,6.872,6.872,0,0,1-.7-.323,1.055,1.055,0,0,1-.235-.137c0-.022.341.155.97.376a9.079,9.079,0,0,0,2.772.478,8.858,8.858,0,0,0,4.039-.886,8.649,8.649,0,0,0,4.668-8.415,8.857,8.857,0,0,0-1.368-3.906,9.163,9.163,0,0,0-1.873-2.1C139.179,314.284,138.851,314.1,138.865,314.08Z" transform="translate(-99.077 -220.567)" fill="#fff"/>
        <path id="Trazado_2137" data-name="Trazado 2137" d="M160.794,366.951a1.046,1.046,0,0,1-.173-.128,4.8,4.8,0,0,1-.443-.4,9.149,9.149,0,0,1-1.4-1.771,10.146,10.146,0,0,1-1.28-3.069,9.6,9.6,0,0,1,1.466-7.817,10.071,10.071,0,0,1,2.307-2.4,9.2,9.2,0,0,1,1.94-1.12c.244-.111.443-.164.571-.213a.607.607,0,0,1,.208-.053,12.5,12.5,0,0,0-2.622,1.515,10.261,10.261,0,0,0-2.214,2.387,9.544,9.544,0,0,0-1.435,7.648,10.228,10.228,0,0,0,1.174,3.074,13.168,13.168,0,0,0,1.9,2.347Z" transform="translate(-113.968 -240.568)" fill="#fff"/>
        <path id="Trazado_2138" data-name="Trazado 2138" d="M122.236,395.321a15.059,15.059,0,0,0-.328-1.771,7.618,7.618,0,0,0-6.036-5.5,17.669,17.669,0,0,0-1.771-.168,1.771,1.771,0,0,1,.487-.062,6.48,6.48,0,0,1,1.329.066,7.458,7.458,0,0,1,6.169,5.625,6.864,6.864,0,0,1,.19,1.329,1.683,1.683,0,0,1-.04.483Z" transform="translate(-89.946 -261.643)" fill="#fff"/>
        <path id="Trazado_2139" data-name="Trazado 2139" d="M139.481,447.946a14.581,14.581,0,0,0-2.259-.66,9.159,9.159,0,0,0-9.637,4.451,15.367,15.367,0,0,0-.965,2.148.487.487,0,0,1,.027-.164,4.172,4.172,0,0,1,.115-.443,8.207,8.207,0,0,1,.682-1.6,9.039,9.039,0,0,1,9.81-4.531,8.144,8.144,0,0,1,1.661.523,4.472,4.472,0,0,1,.443.208C139.437,447.906,139.486,447.937,139.481,447.946Z" transform="translate(-96.921 -294.591)" fill="#fff"/>
        <path id="Trazado_2140" data-name="Trazado 2140" d="M137.648,386.834a5.623,5.623,0,0,1-1.045-.846,16.2,16.2,0,0,1-2.139-2.445,16.466,16.466,0,0,1-1.621-2.821,5.621,5.621,0,0,1-.443-1.262,11.664,11.664,0,0,1,.607,1.2,22.418,22.418,0,0,0,1.661,2.755,21.23,21.23,0,0,0,2.068,2.462C137.289,386.466,137.67,386.807,137.648,386.834Z" transform="translate(-100.141 -256.992)" fill="#263238"/>
        <path id="Trazado_2141" data-name="Trazado 2141" d="M130.166,314.219c-.651-.952-3.756-.164-3.756-.164s2.214-7.294,2.476-8.964-2.024-1.28-2.024-1.28l-2.6,5.133s-5.315,7.972-6.484,10.106a11.192,11.192,0,0,0-1.107,4.9l-.5.075L79.855,336.872l6.081-16.657s12.135-28.269,12.755-31,.288-4.345-.93-8.158-5.589-5.594-11.448-5.257c-2.56.146-5.173,2.281-7.3,4.632A28.716,28.716,0,0,0,73.026,291l-5.111,16.147s-8.291,30.815-7.874,37.073,3.273,15.585,14.854,13.326,42.1-20.709,42.1-20.709a50.877,50.877,0,0,1,7.666-3.229c2.905-.766,7.772-5.691,7.71-6.488S130.817,315.171,130.166,314.219Z" transform="translate(-59.819 -199.218)" fill="#ffbe9d"/>
        <path id="Trazado_2142" data-name="Trazado 2142" d="M96.557,413.209c0,.04-.536.137-1.377.443a11.13,11.13,0,0,0-5.443,4.083c-.514.726-.762,1.222-.8,1.2a1.266,1.266,0,0,1,.142-.368,6.815,6.815,0,0,1,.518-.93,10.111,10.111,0,0,1,5.532-4.145,6.961,6.961,0,0,1,1.036-.239A1.182,1.182,0,0,1,96.557,413.209Z" transform="translate(-75.928 -275.793)" fill="#eb996e"/>
        <path id="Trazado_2143" data-name="Trazado 2143" d="M86.27,291.98s8.858-8.379,17.175-2.135,7.374,9.3,7.374,9.3,3.224-8.942,3.153-11.874,1.329-5.966-1.771-9.411-7.5-5.864-13.176-3.392S87.647,286.284,86.27,291.98Z" transform="translate(-74.441 -197.935)" fill="#455a64"/>
        <path id="Trazado_2144" data-name="Trazado 2144" d="M138.608,298.307a1.007,1.007,0,0,1,0-.244c.022-.186.053-.412.089-.7.075-.6.195-1.475.306-2.551a29.788,29.788,0,0,0-.173-8.415,16.077,16.077,0,0,0-3.543-7.556,12.174,12.174,0,0,0-1.869-1.745c-.483-.363-.766-.545-.757-.562a.97.97,0,0,1,.217.115,6.132,6.132,0,0,1,.593.372,10.991,10.991,0,0,1,1.935,1.71,13.852,13.852,0,0,1,2.148,3.175,17.273,17.273,0,0,1,1.484,4.451,28.168,28.168,0,0,1,.106,8.49c-.133,1.081-.27,1.949-.376,2.547-.053.3-.1.531-.133.691a.774.774,0,0,1-.027.217Z" transform="translate(-100.285 -199.653)" fill="#263238"/>
        <path id="Trazado_2145" data-name="Trazado 2145" d="M114.257,274a1,1,0,0,1,.106.155,3.736,3.736,0,0,1,.248.478,5.514,5.514,0,0,1,.443,1.931,5.757,5.757,0,0,1-.62,2.874,5.586,5.586,0,0,1-8.765,1.5,5.488,5.488,0,0,1-1.2-1.581,3.737,3.737,0,0,1-.208-.5c-.04-.115-.058-.177-.049-.182s.111.239.337.638a5.983,5.983,0,0,0,1.222,1.506,5.8,5.8,0,0,0,2.533,1.284,5.554,5.554,0,0,0,5.935-2.768,5.686,5.686,0,0,0,.647-2.764,5.944,5.944,0,0,0-.359-1.9C114.368,274.213,114.235,274,114.257,274Z" transform="translate(-84.438 -198.238)" fill="#fff"/>
        <path id="Trazado_2146" data-name="Trazado 2146" d="M137.441,304.564c0,.04-.443,0-1.169.066a6.44,6.44,0,0,0-1.231.248,7.6,7.6,0,0,0-1.417.6,7.455,7.455,0,0,0-1.249.886,6.843,6.843,0,0,0-.855.917c-.443.571-.629.983-.669.965s0-.115.106-.306a4.379,4.379,0,0,1,.443-.753,5.957,5.957,0,0,1,.846-.983,7.36,7.36,0,0,1,1.28-.939,7.148,7.148,0,0,1,1.466-.6,6.066,6.066,0,0,1,1.28-.208,4.6,4.6,0,0,1,.886.027A.924.924,0,0,1,137.441,304.564Z" transform="translate(-99.269 -215.2)" fill="#fff"/>
      </g>
      <g id="freepik--Desk--inject-84" transform="translate(26.09 225.247)">
        <path id="Trazado_2147" data-name="Trazado 2147" d="M336.094,462.465c0,.062-67.53.115-150.808.115s-150.826-.053-150.826-.115,67.516-.115,150.826-.115S336.094,462.4,336.094,462.465Z" transform="translate(-34.46 -462.35)" fill="#263238"/>
      </g>
    </g>
  </g>
</svg>
