<svg xmlns="http://www.w3.org/2000/svg" width="20" height="20" viewBox="0 0 20 20">
  <g id="external-link" transform="translate(-12 4.246)">
    <g id="Grupo_1872" data-name="Grupo 1872" transform="translate(13.235 -1.531)">
      <path id="Trazado_200" data-name="Trazado 200" d="M134.572,0h-5.519a.989.989,0,1,0,0,1.979h3.13L126.962,7.2a.989.989,0,1,0,1.4,1.4l5.222-5.222v3.13a.989.989,0,1,0,1.978,0V.989A.99.99,0,0,0,134.572,0Z" transform="translate(-119.511)" fill="#138bb2"/>
      <path id="Trazado_201" data-name="Trazado 201" d="M11.37,64.155H1.7V54.481H8.972l1.7-1.7H.848A.848.848,0,0,0,0,53.633V65a.848.848,0,0,0,.848.848h11.37A.848.848,0,0,0,13.066,65v-9.82l-1.7,1.7Z" transform="translate(0 -49.801)" fill="#138bb2"/>
    </g>
    <rect id="Rectángulo_922" data-name="Rectángulo 922" width="20" height="20" transform="translate(12 -4.246)" fill="none"/>
  </g>
</svg>
