<svg xmlns="http://www.w3.org/2000/svg" width="377.623" height="350" viewBox="0 0 377.623 350">
  <g id="filing-system-pana" transform="translate(-20.61 -32.84)">
    <g id="freepik--background-complete--inject-550" transform="translate(31.81 32.84)">
      <rect id="Rectángulo_845" data-name="Rectángulo 845" width="115.009" height="206.613" transform="translate(197.082 5.637)" fill="#ebebeb"/>
      <rect id="Rectángulo_846" data-name="Rectángulo 846" width="104.636" height="194.464" transform="translate(201.68 11.625)" fill="#fafafa"/>
      <path id="Trazado_5350" data-name="Trazado 5350" d="M385.458,49.341,280.82,182.438V47.05H385.458Z" transform="translate(-79.14 -35.425)" fill="#f5f5f5"/>
      <rect id="Rectángulo_847" data-name="Rectángulo 847" width="106.91" height="2.07" transform="translate(201.68 67.567)" fill="#ebebeb"/>
      <rect id="Rectángulo_848" data-name="Rectángulo 848" width="106.91" height="2.07" transform="translate(201.68 113.872)" fill="#ebebeb"/>
      <rect id="Rectángulo_849" data-name="Rectángulo 849" width="106.91" height="2.07" transform="translate(201.68 160.185)" fill="#ebebeb"/>
      <rect id="Rectángulo_850" data-name="Rectángulo 850" width="142.997" height="5.285" transform="translate(251.355 211.603) rotate(-90)" fill="#ebebeb"/>
      <rect id="Rectángulo_851" data-name="Rectángulo 851" width="2.397" height="56.973" transform="translate(221.83 11.625)" fill="#ebebeb"/>
      <rect id="Rectángulo_852" data-name="Rectángulo 852" width="2.397" height="56.973" transform="translate(242.479 11.625)" fill="#ebebeb"/>
      <rect id="Rectángulo_853" data-name="Rectángulo 853" width="2.397" height="56.973" transform="translate(263.136 11.625)" fill="#ebebeb"/>
      <rect id="Rectángulo_854" data-name="Rectángulo 854" width="2.397" height="56.973" transform="translate(283.793 11.625)" fill="#ebebeb"/>
      <rect id="Rectángulo_855" data-name="Rectángulo 855" width="4.868" height="211.391" transform="translate(192.214 2.127)" fill="#f5f5f5"/>
      <path id="Trazado_5351" data-name="Trazado 5351" d="M420.644,247.42l-4.863-1.865V35.44h4.863Z" transform="translate(-103.689 -33.313)" fill="#e0e0e0"/>
      <rect id="Rectángulo_856" data-name="Rectángulo 856" width="124.737" height="5.637" transform="translate(192.214 0)" fill="#e0e0e0"/>
      <rect id="Rectángulo_857" data-name="Rectángulo 857" width="131.486" height="5.252" transform="translate(188.77 214.802)" fill="#e0e0e0"/>
      <path id="Trazado_5352" data-name="Trazado 5352" d="M388.363,292.271l8.157,2.559H265.04l8.311-2.559Z" transform="translate(-76.271 -80.031)" fill="#ebebeb"/>
      <path id="Trazado_5353" data-name="Trazado 5353" d="M264.777,437.586c13.718-8.237,17.866-25.007,18.408-40.308.088-2.551.554-5.217-.5-7.537s-3.779-4.041-6.135-3.123c-1.956.752-2.93,2.9-4.092,4.646a14.918,14.918,0,0,1-6.362,5.291c-1.687.73-3.733,1.108-5.271.107-2.112-1.355-2.158-4.414-1.973-6.943q.542-7.079,1.072-14.163a23.42,23.42,0,0,0-.244-7.576c-.623-2.454-2.2-4.817-4.565-5.662s-5.439.344-6.128,2.791a23.445,23.445,0,0,0-.286,3.149,2.665,2.665,0,0,1-1.733,2.4c-1.023.222-2-.559-2.7-1.353-2.451-2.737-3.982-6.16-5.415-9.551a47.165,47.165,0,0,0-4.99-9.822c-2.175-2.957-5.31-5.4-8.926-5.857s-7.632,1.526-8.794,5.017.662,7.283,2.732,10.322a56.529,56.529,0,0,0,11,12.051,4.622,4.622,0,0,1,1.824,2.258c.435,1.726-1.282,3.271-2.986,3.73-1.938.5-3.967.166-5.962.254s-4.189.818-5.066,2.634c-1.218,2.522.762,5.383,2.766,7.314a48.613,48.613,0,0,0,13.76,9.27,16.64,16.64,0,0,1,5.154,2.952c1.416,1.406,2.161,3.757,1.128,5.483s-3.4,2.126-5.332,1.633-3.6-1.677-5.408-2.51c-3.4-1.555-7.9-1.638-10.339,1.228a8.041,8.041,0,0,0-1.353,7.029,18.507,18.507,0,0,0,3.413,6.545,48.776,48.776,0,0,0,19.788,16.064c7.881,3.357,15.315,4.631,23.545,2.249" transform="translate(-67.31 -89.441)" fill="#f5f5f5"/>
      <path id="Trazado_5354" data-name="Trazado 5354" d="M263.236,438.733c-.139-6.089.933-2.717-.82-10.571A227.48,227.48,0,0,0,255.1,403.1q-1.154-3.274-2.261-6.482c-.742-2.117-1.487-4.221-2.329-6.233a113.172,113.172,0,0,0-5.557-11.3c-1.938-3.508-3.9-6.768-5.728-9.819s-3.655-5.825-5.405-8.3a89.533,89.533,0,0,0-9.089-11.05c-1.169-1.218-2.112-2.126-2.759-2.742l-.735-.688a2.536,2.536,0,0,0-.261-.22,1.894,1.894,0,0,0,.227.256l.706.718c.62.64,1.536,1.572,2.69,2.808a94.516,94.516,0,0,1,8.95,11.108c1.726,2.456,3.5,5.276,5.352,8.313s3.8,6.3,5.728,9.817a115.372,115.372,0,0,1,5.5,11.265c.818,2,1.57,4.089,2.314,6.216l2.261,6.472a234.31,234.31,0,0,1,7.361,25c1.743,7.83.7,4.426.874,10.488" transform="translate(-68.256 -89.849)" fill="#e0e0e0"/>
      <path id="Trazado_5355" data-name="Trazado 5355" d="M256.94,394.007a4.926,4.926,0,0,0,.327-1.064c.178-.684.41-1.689.669-2.944.542-2.5,1.155-5.972,1.824-9.814s1.335-7.29,1.9-9.775c.283-1.235.522-2.246.693-2.939a5.7,5.7,0,0,0,.22-1.089,4.691,4.691,0,0,0-.391,1.04c-.232.679-.518,1.636-.82,2.91-.654,2.456-1.372,5.933-2.036,9.771s-1.235,7.207-1.687,9.814c-.21,1.182-.391,2.177-.53,2.973A4.979,4.979,0,0,0,256.94,394.007Z" transform="translate(-74.797 -93.511)" fill="#e0e0e0"/>
      <path id="Trazado_5356" data-name="Trazado 5356" d="M217.64,390a6.481,6.481,0,0,0,1.292.244c.82.132,2.029.322,3.511.6,2.961.522,7.026,1.4,11.455,2.559s8.416,2.4,11.265,3.374c1.431.474,2.576.889,3.369,1.167a6.552,6.552,0,0,0,1.245.4,7,7,0,0,0-1.179-.571c-.779-.337-1.907-.82-3.33-1.318-2.832-1.055-6.8-2.339-11.257-3.506a114.781,114.781,0,0,0-11.526-2.456c-1.5-.229-2.708-.366-3.552-.444A7.138,7.138,0,0,0,217.64,390Z" transform="translate(-67.649 -97.801)" fill="#e0e0e0"/>
      <path id="Trazado_5357" data-name="Trazado 5357" d="M271.22,436.6a1.6,1.6,0,0,0,.254-.381l.637-1.138c.547-.991,1.309-2.456,2.224-4.263,1.826-3.623,4.2-8.706,6.743-14.35s4.861-10.747,6.609-14.4l2.087-4.321.564-1.177a1.648,1.648,0,0,0,.166-.435,2.651,2.651,0,0,0-.247.386l-.637,1.133c-.559,1-1.311,2.456-2.227,4.263-1.833,3.623-4.207,8.716-6.743,14.36s-4.858,10.742-6.606,14.4l-2.1,4.326-.557,1.182A1.85,1.85,0,0,0,271.22,436.6Z" transform="translate(-77.395 -98.921)" fill="#e0e0e0"/>
      <path id="Trazado_5358" data-name="Trazado 5358" d="M219.49,424.88a1.718,1.718,0,0,0,.417.21l1.228.513,4.5,1.831c3.828,1.548,9.089,3.73,14.9,6.162s11.094,4.561,14.956,6.03c1.931.728,3.491,1.309,4.58,1.685l1.26.425a2.028,2.028,0,0,0,.449.117,1.894,1.894,0,0,0-.415-.21l-1.228-.5-4.534-1.826c-3.821-1.548-9.08-3.73-14.9-6.162s-11.084-4.565-14.946-6.025c-1.931-.732-3.494-1.313-4.587-1.68l-1.262-.464A1.516,1.516,0,0,0,219.49,424.88Z" transform="translate(-67.985 -104.151)" fill="#e0e0e0"/>
      <rect id="Rectángulo_858" data-name="Rectángulo 858" width="30.933" height="9.956" transform="translate(102.353 31.383)" fill="#f5f5f5"/>
      <rect id="Rectángulo_859" data-name="Rectángulo 859" width="30.933" height="9.956" transform="translate(131.363 51.295)" fill="#fafafa"/>
      <path id="Trazado_5359" data-name="Trazado 5359" d="M204.8,93.278a1.2,1.2,0,0,1,0-.187V90.6c0-1.734-.042-4.205-.073-7.281l.139.14-30.268.073c.089-.1-.223.212.2-.213h0v9.957l-.214-.2,21.566.09,6.357.058h2.323a4.477,4.477,0,0,1-.558,0h-1.636l-6.3.057-21.77.1h-.2V83.338h0c.425-.425.122-.123.22-.213l30.271.073H205v.14c0,3.117-.057,5.612-.074,7.363V92.64C204.925,93.114,204.811,93.286,204.8,93.278Z" transform="translate(-59.778 -41.983)" fill="#e0e0e0"/>
      <rect id="Rectángulo_860" data-name="Rectángulo 860" width="30.933" height="9.956" transform="translate(324.928 116.376)" fill="#fafafa"/>
      <path id="Trazado_5360" data-name="Trazado 5360" d="M475.229,172.512a.615.615,0,0,1,0-.189v-2.487c0-1.735-.044-4.2-.078-7.281l.142.139-30.273.074c.093-.1-.22.212.21-.214h0V172.5l-.215-.205,21.621.09,6.348.065h2.334a4.385,4.385,0,0,1-.566,0h-1.636l-6.3.056-21.86.189h-.205V162.548h0c.425-.425.122-.122.22-.214l30.273.076h.137v.138c0,3.116-.059,5.612-.073,7.363v1.938A1.888,1.888,0,0,1,475.229,172.512Z" transform="translate(-108.957 -56.39)" fill="#e0e0e0"/>
      <rect id="Rectángulo_861" data-name="Rectángulo 861" width="30.933" height="9.956" transform="translate(311.911 228.497)" fill="#f5f5f5"/>
      <rect id="Rectángulo_862" data-name="Rectángulo 862" width="30.933" height="9.956" transform="translate(322.678 238.11)" fill="#fafafa"/>
      <path id="Trazado_5361" data-name="Trazado 5361" d="M435.766,345.715a.546.546,0,0,1,0-.178v-2.5c0-1.736-.039-4.2-.073-7.283l.137.139-30.269.076c.088-.093-.22.21.205-.215h0v9.956l-.215-.2,21.626.1,6.348.056h2.329a4.31,4.31,0,0,1-.562,0h-1.641l-6.294.059-21.772.1h-.205V335.667h0c.43-.422.127-.112.22-.21l30.273.071h.137v.139c0,3.12-.059,5.615-.073,7.363v1.948A1.217,1.217,0,0,1,435.766,345.715Z" transform="translate(-101.798 -87.882)" fill="#e0e0e0"/>
      <rect id="Rectángulo_863" data-name="Rectángulo 863" width="30.933" height="9.956" transform="translate(0 93.6)" fill="#fafafa"/>
      <path id="Trazado_5362" data-name="Trazado 5362" d="M82.069,144.959v-2.682c0-1.727-.049-4.2-.082-7.281l.139.139-30.27.073.213-.205h0v9.956l-.205-.211,21.623.1,6.348.057h1.718a3.344,3.344,0,0,1,.605,0,4.235,4.235,0,0,1-.557,0H79.965l-6.3.056-21.762.1h-.2V134.9h0c.426-.435.115-.123.213-.221l30.27.073h.033v.139c0,3.116-.065,5.613-.082,7.362v1.938A3.49,3.49,0,0,1,82.069,144.959Z" transform="translate(-37.465 -51.36)" fill="#e0e0e0"/>
    </g>
    <g id="freepik--Floor--inject-550" transform="translate(20.61 382.303)">
      <path id="Trazado_5363" data-name="Trazado 5363" d="M394.305,460.245c0,.112-83.66.21-186.839.21s-186.856-.1-186.856-.21S104.253,460,207.458,460,394.305,460.127,394.305,460.245Z" transform="translate(-20.61 -460)" fill="#263238"/>
    </g>
    <g id="freepik--Box--inject-550" transform="translate(317.182 335.99)">
      <path id="Trazado_5364" data-name="Trazado 5364" d="M431.54,409.471l-1.1,20.259a1.371,1.371,0,0,1-1.357,1.289l-36.445.273a1.383,1.383,0,0,1-1.382-1.362l-.117-15.771a1.369,1.369,0,0,1,1.367-1.372h22.417a1.389,1.389,0,0,0,.967-.405l3.867-3.867a1.374,1.374,0,0,1,.957-.4l9.448-.063a1.338,1.338,0,0,1,1,.41A1.386,1.386,0,0,1,431.54,409.471Z" transform="translate(-384.578 -404.237)" fill="#f83f00"/>
      <path id="Trazado_5365" data-name="Trazado 5365" d="M431.54,409.471l-1.1,20.259a1.371,1.371,0,0,1-1.357,1.289l-36.445.273a1.383,1.383,0,0,1-1.382-1.362l-.117-15.771a1.369,1.369,0,0,1,1.367-1.372h22.417a1.389,1.389,0,0,0,.967-.405l3.867-3.867a1.374,1.374,0,0,1,.957-.4l9.448-.063a1.338,1.338,0,0,1,1,.41A1.386,1.386,0,0,1,431.54,409.471Z" transform="translate(-384.578 -404.237)" opacity="0.3"/>
      <rect id="Rectángulo_864" data-name="Rectángulo 864" width="39.825" height="23.799" transform="translate(46.535 29.673) rotate(179.58)" fill="#f5f5f5"/>
      <path id="Trazado_5366" data-name="Trazado 5366" d="M433.551,412.937l-2.856,24.834a.9.9,0,0,1-.869.82l-38.809.278a.871.871,0,0,1-.884-.82L388,413.225a.863.863,0,0,1,.864-.947l43.813-.327a.876.876,0,0,1,.654.3A.9.9,0,0,1,433.551,412.937Z" transform="translate(-384.008 -404.947)" fill="#f83f00"/>
      <path id="Trazado_5367" data-name="Trazado 5367" d="M444.65,404.806l-1.1,20.254a1.372,1.372,0,0,1-1.357,1.294l-36.445.264a1.371,1.371,0,0,1-1.387-1.348l-.112-15.776a1.362,1.362,0,0,1,.4-.972,1.387,1.387,0,0,1,.972-.4h22.417a1.368,1.368,0,0,0,.962-.4l3.872-3.867a1.353,1.353,0,0,1,.957-.4l9.448-.068a1.366,1.366,0,0,1,.986.415A1.393,1.393,0,0,1,444.65,404.806Z" transform="translate(-386.964 -403.39)" fill="#f83f00"/>
      <path id="Trazado_5368" data-name="Trazado 5368" d="M444.65,404.806l-1.1,20.254a1.372,1.372,0,0,1-1.357,1.294l-36.445.264a1.371,1.371,0,0,1-1.387-1.348l-.112-15.776a1.362,1.362,0,0,1,.4-.972,1.387,1.387,0,0,1,.972-.4h22.417a1.368,1.368,0,0,0,.962-.4l3.872-3.867a1.353,1.353,0,0,1,.957-.4l9.448-.068a1.366,1.366,0,0,1,.986.415A1.393,1.393,0,0,1,444.65,404.806Z" transform="translate(-386.964 -403.39)" opacity="0.3"/>
      <rect id="Rectángulo_865" data-name="Rectángulo 865" width="39.825" height="23.799" transform="translate(57.264 25.849) rotate(179.58)" fill="#f5f5f5"/>
      <path id="Trazado_5369" data-name="Trazado 5369" d="M446.657,408.267,443.8,433.111a.868.868,0,0,1-.869.815l-38.813.288a.877.877,0,0,1-.879-.82l-2.134-24.8a.834.834,0,0,1,.229-.664.861.861,0,0,1,.64-.288l43.809-.327a.879.879,0,0,1,.879.957Z" transform="translate(-386.388 -404.102)" fill="#f83f00"/>
      <path id="Trazado_5370" data-name="Trazado 5370" d="M446.657,408.267,443.8,433.111a.868.868,0,0,1-.869.815l-38.813.288a.877.877,0,0,1-.879-.82l-2.134-24.8a.834.834,0,0,1,.229-.664.861.861,0,0,1,.64-.288l43.809-.327a.879.879,0,0,1,.879.957Z" transform="translate(-386.388 -404.102)" opacity="0.3"/>
      <path id="Trazado_5371" data-name="Trazado 5371" d="M459.416,410.605l-1.1,20.249a1.376,1.376,0,0,1-1.357,1.3l-36.445.264a1.384,1.384,0,0,1-1.387-1.362L419,415.288a1.374,1.374,0,0,1,1.362-1.372H442.78a1.335,1.335,0,0,0,.967-.4l3.867-3.862a1.362,1.362,0,0,1,.957-.4l9.453-.073a1.369,1.369,0,0,1,1.392,1.426Z" transform="translate(-389.648 -404.444)" fill="#f83f00"/>
      <rect id="Rectángulo_866" data-name="Rectángulo 866" width="39.825" height="23.799" transform="translate(69.337 30.593) rotate(179.58)" fill="#f5f5f5"/>
      <path id="Trazado_5372" data-name="Trazado 5372" d="M461.432,414.056,458.575,438.9a.881.881,0,0,1-.869.776l-38.818.288a.861.861,0,0,1-.869-.82l-2.139-24.8a.865.865,0,0,1,.225-.669.879.879,0,0,1,.64-.288l43.8-.317a.858.858,0,0,1,.669.3A.874.874,0,0,1,461.432,414.056Z" transform="translate(-389.08 -405.149)" fill="#f83f00"/>
      <path id="Trazado_5373" data-name="Trazado 5373" d="M415.87,418.41v34.448h49.707V418.41Zm16.221,6.211a2.546,2.546,0,0,1,2.549-2.544h12.173a2.543,2.543,0,1,1,0,5.078H434.64A2.548,2.548,0,0,1,432.091,424.621Z" transform="translate(-389.078 -406.123)" fill="#455a64"/>
      <path id="Trazado_5374" data-name="Trazado 5374" d="M383.12,418.41v34.448h26.8V418.41Z" transform="translate(-383.12 -406.123)" fill="#263238"/>
    </g>
    <g id="freepik--Character--inject-550" transform="translate(175.887 88.333)">
      <path id="Trazado_5375" data-name="Trazado 5375" d="M264.274,428.71l-2.6,14.961s-16.074,2.388-16.819,5.1l28.813,6.074,5-23.14Z" transform="translate(-216.676 -160.341)" fill="#f83f00"/>
      <g id="Grupo_1787" data-name="Grupo 1787" transform="translate(52.542 283.813)" opacity="0.6">
        <path id="Trazado_5376" data-name="Trazado 5376" d="M276.269,447.731a1.208,1.208,0,0,1,.53,1.514,1.154,1.154,0,0,1-1.5.537,1.272,1.272,0,0,1-.559-1.636,1.2,1.2,0,0,1,1.638-.386" transform="translate(-274.634 -447.584)" fill="#fff"/>
      </g>
      <path id="Trazado_5377" data-name="Trazado 5377" d="M273.666,459.041l.41-2.354-27.817-4.907s-1.4.288-1.438,1.221Z" transform="translate(-216.67 -164.537)" fill="#fff" opacity="0.6"/>
      <path id="Trazado_5378" data-name="Trazado 5378" d="M264.88,446.687c0,.132.671.347,1.267.947s.818,1.265.981,1.235.1-.884-.637-1.6S264.88,446.545,264.88,446.687Z" transform="translate(-220.318 -163.595)" fill="#263238"/>
      <path id="Trazado_5379" data-name="Trazado 5379" d="M260.868,447.44c-.063.122.5.493.818,1.187s.354,1.357.5,1.382.391-.752-.059-1.636S260.9,447.3,260.868,447.44Z" transform="translate(-219.588 -163.739)" fill="#263238"/>
      <path id="Trazado_5380" data-name="Trazado 5380" d="M257.7,450.834c.125.054.466-.6.264-1.45s-.818-1.294-.876-1.187.239.605.393,1.3S257.562,450.795,257.7,450.834Z" transform="translate(-218.899 -163.882)" fill="#263238"/>
      <path id="Trazado_5381" data-name="Trazado 5381" d="M266.07,442.549c0,.137.718.083,1.494.3s1.36.605,1.458.5-.393-.737-1.326-.986S266.011,442.427,266.07,442.549Z" transform="translate(-220.532 -162.805)" fill="#263238"/>
      <path id="Trazado_5382" data-name="Trazado 5382" d="M267.856,432.341,267.39,435l14.194,2.856.525-2.378Z" transform="translate(-220.774 -161.002)" opacity="0.3"/>
      <path id="Trazado_5383" data-name="Trazado 5383" d="M266.78,438.576a2.828,2.828,0,0,0,1.438.3,7.082,7.082,0,0,0,1.638-.146,7.444,7.444,0,0,0,.916-.273,1.667,1.667,0,0,0,.51-.244.629.629,0,0,0,.227-.737.815.815,0,0,0-.557-.449,2.337,2.337,0,0,0-.554-.039,4.822,4.822,0,0,0-.957.122,4.926,4.926,0,0,0-1.514.586c-.82.488-1.147.957-1.1,1s.466-.312,1.26-.679a5.343,5.343,0,0,1,1.438-.459,6.722,6.722,0,0,1,.884-.083c.32,0,.579.044.63.19s0,.083-.063.156a1.369,1.369,0,0,1-.378.176,6.208,6.208,0,0,1-.818.278,8.319,8.319,0,0,1-1.514.239A10.853,10.853,0,0,0,266.78,438.576Z" transform="translate(-220.662 -161.845)" fill="#263238"/>
      <path id="Trazado_5384" data-name="Trazado 5384" d="M266.71,438.152a2.46,2.46,0,0,0,.669-1.313,4.767,4.767,0,0,0,.139-1.641,5.139,5.139,0,0,0-.186-.957,1.19,1.19,0,0,0-.762-.913.671.671,0,0,0-.686.269,1.95,1.95,0,0,0-.264.5,3.271,3.271,0,0,0-.2.972,3.382,3.382,0,0,0,.3,1.641c.4.864.957,1.152.972,1.108a5.655,5.655,0,0,1-.645-1.24,3.358,3.358,0,0,1-.171-1.455,2.7,2.7,0,0,1,.2-.82c.107-.3.278-.518.383-.469a1.1,1.1,0,0,1,.4.581,5.078,5.078,0,0,1,.2.859,5.5,5.5,0,0,1,0,1.5C266.857,437.62,266.6,438.113,266.71,438.152Z" transform="translate(-220.415 -161.177)" fill="#263238"/>
      <path id="Trazado_5385" data-name="Trazado 5385" d="M384.442,427.22l-6.235-8.145-.317-.415-10.64,7.9,9.819,10.8-.356,10.928c-5.474,1.416-6.3,4.15-6.3,4.15h11.377l10.342-19.912Z" transform="translate(-238.94 -158.512)" fill="#f83f00"/>
      <path id="Trazado_5386" data-name="Trazado 5386" d="M392.869,435.338l-10.342,19.917-11.377,0,1.279-1.709,9.253-.518,9.541-18.823Z" transform="translate(-239.646 -161.34)" fill="#fff" opacity="0.6"/>
      <path id="Trazado_5387" data-name="Trazado 5387" d="M378.928,448.587c.088.112.747-.264,1.641-.239s1.523.391,1.631.278-.537-.771-1.631-.776S378.83,448.495,378.928,448.587Z" transform="translate(-241.063 -163.822)" fill="#263238"/>
      <path id="Trazado_5388" data-name="Trazado 5388" d="M379.157,445.136c.112.083.61-.586,1.519-.767s1.641.239,1.709.122-.088-.244-.41-.415a2.128,2.128,0,0,0-2.607.522C379.147,444.887,379.1,445.107,379.157,445.136Z" transform="translate(-241.1 -163.089)" fill="#263238"/>
      <path id="Trazado_5389" data-name="Trazado 5389" d="M379.053,440.855c.122.059.518-.6,1.309-.874s1.509,0,1.563-.137-.112-.225-.435-.337a1.973,1.973,0,0,0-2.314.82C379,440.62,379,440.83,379.053,440.855Z" transform="translate(-241.081 -162.282)" fill="#263238"/>
      <path id="Trazado_5390" data-name="Trazado 5390" d="M375.331,437.463c.132.054.449-.6,1.162-1.05s1.406-.537,1.416-.674-.82-.327-1.694.254S375.189,437.448,375.331,437.463Z" transform="translate(-240.398 -161.593)" fill="#263238"/>
      <path id="Trazado_5391" data-name="Trazado 5391" d="M373.372,433.992a5.2,5.2,0,0,0,.991-1.2l.962-1.362a3.794,3.794,0,0,0,.527-.928.917.917,0,0,0-.068-.688.684.684,0,0,0-.688-.356,2.071,2.071,0,0,0-1.06.547,4.144,4.144,0,0,0-.7.82,3.821,3.821,0,0,0-.591,1.636,2.135,2.135,0,0,0,.254,1.553,13.953,13.953,0,0,1,.088-1.5,3.783,3.783,0,0,1,1.255-2.119,1.737,1.737,0,0,1,.82-.42.207.207,0,0,1,.22.093.471.471,0,0,1,0,.327,4,4,0,0,1-.435.82l-.874,1.426A4.861,4.861,0,0,0,373.372,433.992Z" transform="translate(-239.929 -160.474)" fill="#263238"/>
      <path id="Trazado_5392" data-name="Trazado 5392" d="M372.076,434.951c.054,0,0-.605-.605-1.284a2.828,2.828,0,0,0-3.369-.605.486.486,0,0,0-.181.4.612.612,0,0,0,.137.361,1.7,1.7,0,0,0,.41.361,5.389,5.389,0,0,0,2.314.874,2.24,2.24,0,0,0,1.406-.132,12.176,12.176,0,0,0-1.348-.215,5.405,5.405,0,0,1-1.353-.488,4.458,4.458,0,0,1-.684-.449,1.228,1.228,0,0,1-.3-.254c-.059-.1-.039-.073,0-.1a.92.92,0,0,1,.327-.122,2.622,2.622,0,0,1,.43-.068,2.7,2.7,0,0,1,.815.059,2.735,2.735,0,0,1,1.226.62A11.529,11.529,0,0,1,372.076,434.951Z" transform="translate(-239.062 -161.075)" fill="#263238"/>
      <circle id="Elipse_229" data-name="Elipse 229" cx="1.35" cy="1.35" r="1.35" transform="translate(144.142 272.306)" fill="#fff" opacity="0.6"/>
      <path id="Trazado_5393" data-name="Trazado 5393" d="M368.48,427.784l2.183,2.393,9.189-9.106-1.279-1.66Z" transform="translate(-239.163 -158.649)" opacity="0.3"/>
      <path id="Trazado_5394" data-name="Trazado 5394" d="M293.581,250.121s-10.635,36.094-20.141,76.9c-5.73,24.741-11.169,70.774-11.169,70.774l25.246,5.564,10.825-59.182,11.553-35.029c3.965-11.062,9.67-19.146,16.592-25.134,7.527-10.635,11.45-22.8,9.937-35.752h0Z" transform="translate(-219.844 -127.516)" fill="#263238"/>
      <path id="Trazado_5395" data-name="Trazado 5395" d="M298,256l9.436,77.72c.913,7.5,2.183,14.727,7.275,20.315l38.2,45.3,18.923-16.982L331.347,326.99l7.036-78.03-39.614,6.758" transform="translate(-226.344 -127.644)" fill="#263238"/>
      <path id="Trazado_5396" data-name="Trazado 5396" d="M337.941,343.626a41.227,41.227,0,0,0-3.271,2.686,30.678,30.678,0,0,0-2.5,3.379,6.992,6.992,0,0,1,2.124-3.73A7.528,7.528,0,0,1,337.941,343.626Z" transform="translate(-232.555 -144.862)" fill="#455a64"/>
      <path id="Trazado_5397" data-name="Trazado 5397" d="M337.05,344.274a26.456,26.456,0,0,1-3.328.278,23.493,23.493,0,0,1-3.333.359,7.18,7.18,0,0,1,3.274-.874A7,7,0,0,1,337.05,344.274Z" transform="translate(-232.233 -144.926)" fill="#455a64"/>
      <path id="Trazado_5398" data-name="Trazado 5398" d="M343.253,269.84a6.017,6.017,0,0,1-.139.881c-.063.31-.127.662-.21,1.072s-.256.9-.41,1.431a33.724,33.724,0,0,1-4.189,8.494c-2.207,3.364-5.276,7.019-8.542,11.157a69.68,69.68,0,0,0-4.741,6.75,81.549,81.549,0,0,0-4.133,7.837c-2.544,5.532-4.6,10.962-6.338,15.947s-3.193,9.507-4.419,13.308-2.192,6.833-2.9,9c-.342,1.021-.62,1.841-.815,2.454a6.418,6.418,0,0,1-.327.818,5.174,5.174,0,0,1,.22-.876l.728-2.451,2.734-9.065c1.174-3.813,2.59-8.364,4.312-13.364s3.762-10.452,6.311-16.006a81.044,81.044,0,0,1,4.185-7.881,65.4,65.4,0,0,1,4.8-6.782c3.271-4.141,6.384-7.754,8.608-11.062a35.393,35.393,0,0,0,4.312-8.342c.164-.535.334-1,.449-1.416s.188-.752.264-1.047A5.371,5.371,0,0,1,343.253,269.84Z" transform="translate(-227.815 -131.444)" fill="#455a64"/>
      <path id="Trazado_5399" data-name="Trazado 5399" d="M234.616,223.1l-6.631,3.452L216.472,232.2a3.418,3.418,0,0,0-1.838,1.523l-4.224,7.429h8.076l2.151-3.625a6.939,6.939,0,0,0,7.729-2.158l11.726-4.092Z" transform="translate(-210.41 -122.94)" fill="#ffbe9d"/>
      <path id="Trazado_5400" data-name="Trazado 5400" d="M334.21,110.972a5.235,5.235,0,0,1,9.866,1.178,14.716,14.716,0,0,0,.547,3.068,3.137,3.137,0,0,0,3.538,1.694,4.393,4.393,0,0,1-1.836,1.824.754.754,0,0,1,1.138.442,1.217,1.217,0,0,1-.581,1.235,3.351,3.351,0,0,1-1.382.417c-2.332.352-4.91.442-6.87-.819-2.144-1.382-3.1-3.983-3.9-6.4" transform="translate(-232.927 -101.998)" fill="#263238"/>
      <path id="Trazado_5401" data-name="Trazado 5401" d="M303.164,103.38c-2.458.212-4.5,2.02-5.925,4.033s-2.415,4.32-3.9,6.283c-1.111,1.465-2.529,2.789-3.076,4.541-.876,2.8.662,6.021-.557,8.679-.693,1.506-2.151,2.528-2.874,4.017-.9,1.857-.491,4.091.059,6.053a7.094,7.094,0,0,0,2,3.723,6.93,6.93,0,0,0,3.118,1.169,41.59,41.59,0,0,0,24.795-3.068" transform="translate(-224.215 -101.164)" fill="#263238"/>
      <path id="Trazado_5402" data-name="Trazado 5402" d="M324.685,117.721a12.7,12.7,0,0,0-13.364-12.434,12.976,12.976,0,0,0-12.07,13.008,140.193,140.193,0,0,0,.415,14.1c1.023,6.438,5.164,8.4,6.8,8.933a8.4,8.4,0,0,0,1.765.172h0a.051.051,0,0,1,.044.049l-.354,7.617c.059,4.908,3.4,8.876,8.347,8.876s8.22-4.279,8.252-9.244Z" transform="translate(-226.568 -101.507)" fill="#ffbe9d"/>
      <path id="Trazado_5403" data-name="Trazado 5403" d="M302.22,125.06a1.038,1.038,0,0,0,1.008,1.039.976.976,0,0,0,1.06-.932,1.027,1.027,0,0,0-1-1.046,1,1,0,0,0-1.072.94Z" transform="translate(-227.11 -104.936)" fill="#263238"/>
      <path id="Trazado_5404" data-name="Trazado 5404" d="M301.406,122.818c.12.139.906-.441,2.029-.441s1.929.555,2.051.425-.071-.3-.432-.564a2.828,2.828,0,0,0-1.636-.508,2.688,2.688,0,0,0-1.636.524C301.455,122.515,301.341,122.769,301.406,122.818Z" transform="translate(-226.958 -104.502)" fill="#263238"/>
      <path id="Trazado_5405" data-name="Trazado 5405" d="M315.56,125.06a1.019,1.019,0,0,0,1,1.039.984.984,0,0,0,1.064-.932,1.033,1.033,0,0,0-1-1.046.984.984,0,0,0-1.06.94Z" transform="translate(-229.537 -104.936)" fill="#263238"/>
      <path id="Trazado_5406" data-name="Trazado 5406" d="M314.805,123.075c.132.131.918-.449,2.029-.449s1.934.564,2.056.426-.063-.3-.425-.565a2.9,2.9,0,0,0-1.636-.507,2.773,2.773,0,0,0-1.638.522C314.866,122.765,314.742,123.01,314.805,123.075Z" transform="translate(-229.396 -104.547)" fill="#263238"/>
      <path id="Trazado_5407" data-name="Trazado 5407" d="M309.225,131.372a6.892,6.892,0,0,0-1.809-.327c-.286,0-.554-.09-.605-.278a1.47,1.47,0,0,1,.188-.818l.82-2.168a36.934,36.934,0,0,0,1.89-5.67,37.551,37.551,0,0,0-2.341,5.507c-.286.76-.549,1.488-.815,2.184a1.631,1.631,0,0,0-.151,1.113.729.729,0,0,0,.466.416,2.434,2.434,0,0,0,.493.074A7.229,7.229,0,0,0,309.225,131.372Z" transform="translate(-227.863 -104.571)" fill="#263238"/>
      <path id="Trazado_5408" data-name="Trazado 5408" d="M310.272,148.918s4.312.353,9.695-2.888c0,0-1.7,5.728-9.817,4.911Z" transform="translate(-228.552 -108.922)" fill="#eb996e"/>
      <path id="Trazado_5409" data-name="Trazado 5409" d="M310.415,136.542a2.034,2.034,0,0,1,1.8-.745,1.858,1.858,0,0,1,1.267.679,1.18,1.18,0,0,1,.09,1.333,1.34,1.34,0,0,1-1.465.369,4.156,4.156,0,0,1-1.423-.819,1.2,1.2,0,0,1-.317-.326.374.374,0,0,1,0-.419" transform="translate(-228.579 -107.058)" fill="#eb996e"/>
      <path id="Trazado_5410" data-name="Trazado 5410" d="M313.08,134.37c-.181,0-.181,1.2-1.221,2.062s-2.322.729-2.329.892.286.237.815.253a3.046,3.046,0,0,0,1.948-.679,2.6,2.6,0,0,0,.94-1.726C313.3,134.664,313.187,134.361,313.08,134.37Z" transform="translate(-228.438 -106.801)" fill="#263238"/>
      <path id="Trazado_5411" data-name="Trazado 5411" d="M314.2,120.745c.107.3,1.218.154,2.529.319s2.371.507,2.544.237c.073-.131-.1-.417-.532-.7a4.458,4.458,0,0,0-3.872-.435C314.389,120.36,314.15,120.6,314.2,120.745Z" transform="translate(-229.288 -104.169)" fill="#263238"/>
      <path id="Trazado_5412" data-name="Trazado 5412" d="M301.9,120.017c.2.253.964,0,1.892,0s1.7.171,1.88-.1c.081-.131,0-.385-.386-.621a2.718,2.718,0,0,0-3.044.1C301.919,119.632,301.814,119.893,301.9,120.017Z" transform="translate(-227.047 -103.983)" fill="#263238"/>
      <path id="Trazado_5413" data-name="Trazado 5413" d="M297.279,116.059c1.638,1.848,5.725,0,8.049-1.808a6.149,6.149,0,0,0,8.057-2.928c1.738,1.636,4.614.605,5.4-1.637s-.254-5.063-2.012-6.683a9.651,9.651,0,0,0-6.284-2.316A13.634,13.634,0,0,0,297.6,108.3a9.139,9.139,0,0,0-.32,7.748" transform="translate(-226.08 -100.671)" fill="#263238"/>
      <path id="Trazado_5414" data-name="Trazado 5414" d="M320.435,103.3c4.673-1.636,10,2.5,10.981,5.85,1.7,5.817,1,6.676,2.5,9.368.979,1.749,3.7,3.271,4.907,5.063a11.692,11.692,0,0,1,1.431,7.657c-.334,1.931-2.061,7.428-2.061,7.428s-7.175.818-10.964.409a6.052,6.052,0,0,1-2.754-.818c-.82-.522.327-2.913.063-3.82-.759-2.578-2.952-3.813-2.764-6.5.247-3.558,2.927-4.091,2.354-7.657-.3-1.874-3.491-4.155-4.016-5.973s-2.554-8.14.288-10.995" transform="translate(-230.148 -101.081)" fill="#263238"/>
      <path id="Trazado_5415" data-name="Trazado 5415" d="M335.168,115.774c-.12,0-.039-1.211-.278-2.643s-.669-2.552-.554-2.6a4.812,4.812,0,0,1,.972,2.528A4.645,4.645,0,0,1,335.168,115.774Z" transform="translate(-232.948 -102.464)" fill="#f83f00"/>
      <path id="Trazado_5416" data-name="Trazado 5416" d="M332.229,113.382a1.578,1.578,0,0,1-.5.2,4.98,4.98,0,0,1-1.455.14,5.737,5.737,0,0,1-2.119-.525,6.06,6.06,0,0,1-2.1-1.636,11.5,11.5,0,0,0-1.782-1.857,5.956,5.956,0,0,0-1.833-.917,13.327,13.327,0,0,0-1.9-.327,1.092,1.092,0,0,1,.53-.1,4.933,4.933,0,0,1,1.448.131,5.886,5.886,0,0,1,1.987.891,10.838,10.838,0,0,1,1.873,1.866,5.919,5.919,0,0,0,3.928,2.135A14.6,14.6,0,0,0,332.229,113.382Z" transform="translate(-230.441 -102.068)" fill="#455a64"/>
      <path id="Trazado_5417" data-name="Trazado 5417" d="M347.84,119.667a1.044,1.044,0,0,1-.586.294,2.71,2.71,0,0,1-1.785-.237,4.208,4.208,0,0,1-1.858-1.9c-.493-.876-.82-1.923-1.274-2.922a4.478,4.478,0,0,0-1.934-2.266,3.522,3.522,0,0,0-2.4-.2,4.338,4.338,0,0,0-1.938,1.244,1.268,1.268,0,0,1,.344-.557,3.315,3.315,0,0,1,1.506-.974,3.728,3.728,0,0,1,2.656.131,4.711,4.711,0,0,1,2.153,2.455c.491,1.039.815,2.07,1.235,2.913a3.968,3.968,0,0,0,1.636,1.816,2.708,2.708,0,0,0,1.636.343C347.613,119.75,347.816,119.635,347.84,119.667Z" transform="translate(-233.264 -102.726)" fill="#455a64"/>
      <path id="Trazado_5418" data-name="Trazado 5418" d="M332.221,112.069a1.22,1.22,0,0,1-.588.065,2.967,2.967,0,0,1-1.506-.63,6.228,6.228,0,0,1-1.538-1.841,13.631,13.631,0,0,0-1.55-2.356,5.916,5.916,0,0,0-4.551-1.8,10.189,10.189,0,0,0-2.087.426,2.145,2.145,0,0,1,.5-.311,5.147,5.147,0,0,1,1.565-.409,5.931,5.931,0,0,1,4.91,1.8,13.1,13.1,0,0,1,1.577,2.455,6.1,6.1,0,0,0,1.384,1.8A3.383,3.383,0,0,0,332.221,112.069Z" transform="translate(-230.418 -101.491)" fill="#455a64"/>
      <path id="Trazado_5419" data-name="Trazado 5419" d="M334.334,141.061s.3-.45.818-1.268a15.715,15.715,0,0,0,1.636-3.69,11.364,11.364,0,0,0,.205-5.874A9.174,9.174,0,0,0,332.9,124.5c-1.108-.654-2.327-1.1-3.4-1.759a6.041,6.041,0,0,1-2.454-2.692A19.127,19.127,0,0,1,326,116.967a15.039,15.039,0,0,0-.942-2.617,4.706,4.706,0,0,0-2.871-2.578,3.979,3.979,0,0,0-1.455-.089,1.39,1.39,0,0,1,.374-.115,2.794,2.794,0,0,1,1.121,0,4.807,4.807,0,0,1,3.1,2.6,14.8,14.8,0,0,1,1.008,2.66,18.6,18.6,0,0,0,1.072,3.01,5.614,5.614,0,0,0,2.3,2.5c1.033.638,2.249,1.072,3.4,1.76a9.472,9.472,0,0,1,4.229,6.028,11.416,11.416,0,0,1-.3,6.055,14.217,14.217,0,0,1-1.782,3.69,9.149,9.149,0,0,1-.657.891C334.441,140.971,334.351,141.069,334.334,141.061Z" transform="translate(-230.477 -102.643)" fill="#455a64"/>
      <path id="Trazado_5420" data-name="Trazado 5420" d="M293.712,143.684a1.36,1.36,0,0,1-.222-.229,6.962,6.962,0,0,1-.515-.745,8.459,8.459,0,0,1-1.1-3.158,8.8,8.8,0,0,1,.654-4.91,21.586,21.586,0,0,1,1.475-2.527,6.069,6.069,0,0,0,1.052-2.79c.139-2.061-.818-3.983-.947-5.865a9.971,9.971,0,0,1,.632-4.908,7.866,7.866,0,0,1,1.88-2.749,5.817,5.817,0,0,1,.693-.58,1.085,1.085,0,0,1,.271-.172s-.317.3-.82.867a8.633,8.633,0,0,0-1.716,2.749,10.022,10.022,0,0,0-.522,4.745,20.924,20.924,0,0,0,.588,2.815,9.624,9.624,0,0,1,.4,3.141,6.528,6.528,0,0,1-1.121,2.969,22.4,22.4,0,0,0-1.47,2.456,8.674,8.674,0,0,0-.723,4.7,9.2,9.2,0,0,0,.942,3.108C293.482,143.315,293.743,143.642,293.712,143.684Z" transform="translate(-225.21 -103.286)" fill="#455a64"/>
      <path id="Trazado_5421" data-name="Trazado 5421" d="M309.924,101.714a20.8,20.8,0,0,0-3.064.63,11.383,11.383,0,0,0-5.908,4.385,14.024,14.024,0,0,0-2.109,7.118,18.06,18.06,0,0,0,.3,3.118,2.6,2.6,0,0,1-.3-.819,9.741,9.741,0,0,1-.3-2.316,13.565,13.565,0,0,1,2.051-7.362,11.18,11.18,0,0,1,6.177-4.443,10.138,10.138,0,0,1,2.307-.375A2.749,2.749,0,0,1,309.924,101.714Z" transform="translate(-226.44 -100.847)" fill="#455a64"/>
      <path id="Trazado_5422" data-name="Trazado 5422" d="M305.648,112.245a1.925,1.925,0,0,1-.2-.7,7.437,7.437,0,0,1-.093-2.029,8.289,8.289,0,0,1,9.409-7.56,7.584,7.584,0,0,1,1.956.516,1.975,1.975,0,0,1,.654.36,14.865,14.865,0,0,0-2.642-.574,8.266,8.266,0,0,0-9.075,7.29A15.113,15.113,0,0,0,305.648,112.245Z" transform="translate(-227.673 -100.89)" fill="#455a64"/>
      <path id="Trazado_5423" data-name="Trazado 5423" d="M330.112,238.054l-8.843-34.188,3.059-13.376,4.409-25.109s-4.048-5.538-14.536-6.071l-.706-5.08-17.957.63-.337,4.8a19.56,19.56,0,0,0-12.563,9.816h0l-12.756,23.988L235,210.926l4.6,10.807s35.017-13.27,37.979-14.569c1.97-.861,4.089-4.492,5.964-8.387,1.4,6.692,2.847,11.993,2.847,11.993l-.3,26.229Z" transform="translate(-214.884 -110.414)" fill="#f83f00"/>
      <path id="Trazado_5424" data-name="Trazado 5424" d="M325.024,171.586s-.459.131-1.27.377-1.98.612-3.418,1.1a53.257,53.257,0,0,1-5.115,1.554,11.492,11.492,0,0,1-3.181.353,8.371,8.371,0,0,1-3.274-1.113c-1.033-.548-1.978-1.162-2.944-1.636a13.4,13.4,0,0,0-2.9-1.089,14.467,14.467,0,0,0-5.227-.326,18.7,18.7,0,0,0-4.678,1.333,1.235,1.235,0,0,1,.286-.189,7.54,7.54,0,0,1,.876-.441,13.514,13.514,0,0,1,3.474-1.006,14.068,14.068,0,0,1,8.352,1.34c.991.5,1.948,1.112,2.964,1.636a8.033,8.033,0,0,0,3.086,1.072,11.33,11.33,0,0,0,3.059-.319c1.946-.432,3.662-1.014,5.112-1.456s2.634-.817,3.467-.98c.42-.1.745-.157.964-.189A.919.919,0,0,1,325.024,171.586Z" transform="translate(-225.436 -113.346)" fill="#fafafa"/>
      <path id="Trazado_5425" data-name="Trazado 5425" d="M328.359,192.986c0,.046-.688-.125-1.948-.19a16.455,16.455,0,0,0-5.234.713,48.289,48.289,0,0,0-7.3,3,32.858,32.858,0,0,1-9.194,3.2,15.178,15.178,0,0,1-2.578.139,12.122,12.122,0,0,1-2.5-.369,15.681,15.681,0,0,1-4.294-1.97c-2.527-1.638-4.663-3.274-6.807-3.953a7.905,7.905,0,0,0-5.164-.237,8.2,8.2,0,0,0-1.726.891,2.685,2.685,0,0,1,.383-.344,5.317,5.317,0,0,1,1.287-.7,7.929,7.929,0,0,1,5.315.1c2.212.681,4.412,2.341,6.921,3.9a15.253,15.253,0,0,0,4.192,1.9,11.738,11.738,0,0,0,2.4.349,14.516,14.516,0,0,0,2.5-.137,33.355,33.355,0,0,0,9.089-3.125,46.107,46.107,0,0,1,7.363-2.937,15.636,15.636,0,0,1,5.334-.583,9.852,9.852,0,0,1,1.443.222A3.017,3.017,0,0,1,328.359,192.986Z" transform="translate(-223.361 -117.392)" fill="#fafafa"/>
      <path id="Trazado_5426" data-name="Trazado 5426" d="M297.569,178.45a1.167,1.167,0,0,1-.083.352c-.081.229-.164.554-.31.981-.288.818-.742,2.061-1.335,3.542s-1.306,3.274-1.953,5.234a26.142,26.142,0,0,0-.82,3.184,13.513,13.513,0,0,0-.276,3.477,46.029,46.029,0,0,0,1,6.758c.427,2.061.876,3.9,1.252,5.457s.681,2.808.869,3.682c.1.435.164.818.2,1.008a1.1,1.1,0,0,1,.039.359,9.658,9.658,0,0,1-.405-1.326l-1.008-3.623c-.408-1.548-.889-3.389-1.34-5.449a42.624,42.624,0,0,1-1.04-6.814,13.594,13.594,0,0,1,.3-3.584,25.779,25.779,0,0,1,.818-3.225c.669-2.012,1.431-3.762,2.056-5.227s1.118-2.659,1.455-3.484A9.438,9.438,0,0,1,297.569,178.45Z" transform="translate(-225.315 -114.819)" fill="#263238"/>
      <path id="Trazado_5427" data-name="Trazado 5427" d="M272.284,221.333a1.26,1.26,0,0,1-.63-.073,4.441,4.441,0,0,1-1.506-.82,8.434,8.434,0,0,1-1.709-1.9,9.135,9.135,0,0,1-1.1-2.927,20.018,20.018,0,0,0-.82-2.913,5.643,5.643,0,0,0-1.367-2,4.111,4.111,0,0,0-1.985-.981,1.548,1.548,0,0,1,.63,0,3.361,3.361,0,0,1,1.553.759,5.694,5.694,0,0,1,1.531,2.063,16.994,16.994,0,0,1,.9,2.969,9.406,9.406,0,0,0,1.021,2.815,8.314,8.314,0,0,0,1.57,1.873,5.309,5.309,0,0,0,1.367.918C272.072,221.259,272.291,221.291,272.284,221.333Z" transform="translate(-220.008 -120.501)" fill="#fafafa"/>
      <path id="Trazado_5428" data-name="Trazado 5428" d="M248.815,230.678c-.071,0,0-.72-.178-1.865a17.408,17.408,0,0,0-1.187-4.329,16.963,16.963,0,0,0-2.224-3.887c-.7-.916-1.245-1.389-1.2-1.448a4.892,4.892,0,0,1,1.433,1.252,14.334,14.334,0,0,1,2.38,3.918,14.14,14.14,0,0,1,1.089,4.458A5.081,5.081,0,0,1,248.815,230.678Z" transform="translate(-216.524 -122.221)" fill="#fafafa"/>
      <path id="Trazado_5429" data-name="Trazado 5429" d="M332.662,214.5a13.091,13.091,0,0,0-1.44.115,22.2,22.2,0,0,0-3.87.728c-1.633.435-3.467,1.113-5.547,1.865a36.51,36.51,0,0,1-6.953,1.938,27.647,27.647,0,0,1-12.942-1.111,26.137,26.137,0,0,1-3.65-1.562c-.417-.222-.725-.41-.94-.532a1.651,1.651,0,0,1-.32-.229,13.962,13.962,0,0,1,1.316.605,32.091,32.091,0,0,0,3.674,1.423,28.509,28.509,0,0,0,12.822.981,38.434,38.434,0,0,0,6.885-1.89c2.08-.728,3.97-1.392,5.605-1.792a18.754,18.754,0,0,1,3.926-.6,8.921,8.921,0,0,1,1.084,0A1.32,1.32,0,0,1,332.662,214.5Z" transform="translate(-226.159 -121.363)" fill="#fafafa"/>
      <g id="Grupo_1788" data-name="Grupo 1788" transform="translate(81.483 49.266)" opacity="0.3">
        <path id="Trazado_5430" data-name="Trazado 5430" d="M310.115,160.89a15.985,15.985,0,0,0,15.486.073q-7.786.385-15.591.057" transform="translate(-310.01 -160.89)"/>
      </g>
      <path id="Trazado_5431" data-name="Trazado 5431" d="M327.445,160.307a2.79,2.79,0,0,1-.71.247,14.142,14.142,0,0,1-2,.425,35.4,35.4,0,0,1-6.746.228c-2.634-.115-5-.269-6.714-.278s-2.781.05-2.781,0a2.656,2.656,0,0,1,.735-.132c.483-.063,1.177-.114,2.046-.145,1.726-.066,4.092.04,6.733.155a44.216,44.216,0,0,0,6.692-.107C326.4,160.494,327.428,160.233,327.445,160.307Z" transform="translate(-228.249 -111.517)" fill="#263238"/>
      <path id="Trazado_5432" data-name="Trazado 5432" d="M313.177,206.4c.481.959,28.781,23.53,36.9,29.985a2.742,2.742,0,0,1,.422,3.862l-18.879,23.438a2.733,2.733,0,0,1-3.828.435l-36.169-28.635a2.734,2.734,0,0,1-.361-3.943Z" transform="translate(-224.993 -119.901)" fill="#263238"/>
      <path id="Trazado_5433" data-name="Trazado 5433" d="M312.548,201.51c.5.989,30.8,25.139,37.673,30.605a1.745,1.745,0,0,1,.271,2.451l-20.117,24.985a1.75,1.75,0,0,1-2.454.271L290.175,229.9a1.748,1.748,0,0,1-.239-2.52Z" transform="translate(-224.797 -119.014)" fill="#f83f00"/>
      <path id="Trazado_5434" data-name="Trazado 5434" d="M312.516,201.51c.5,1,31.386,25.6,37.861,30.759a1.5,1.5,0,0,1,.232,2.119L330.155,259.75a1.513,1.513,0,0,1-2.119.237l-38.125-30.271a1.505,1.505,0,0,1-.2-2.175Z" transform="translate(-224.767 -119.014)" opacity="0.4"/>
      <path id="Trazado_5435" data-name="Trazado 5435" d="M315.771,201.809c9.6,7.993,35.539,28.635,35.539,28.635L331.2,255.42a3.526,3.526,0,0,1-4.91.557l-34.9-27.666a3.537,3.537,0,0,1-.466-5.09l18.218-20.854A4.779,4.779,0,0,1,315.771,201.809Z" transform="translate(-224.898 -118.872)" fill="#455a64"/>
      <path id="Trazado_5436" data-name="Trazado 5436" d="M350.86,225.8l.508,3.535,9.194,7.9,1.809-2.251Z" transform="translate(-235.959 -123.431)" fill="#fafafa"/>
      <path id="Trazado_5437" data-name="Trazado 5437" d="M315.409,264.6h0l8.672-7.231-4.211-10.029-5.842,5.3a24.315,24.315,0,0,1-4.18.728,6.293,6.293,0,0,1-2.168-.161,10.069,10.069,0,0,1-2.546-.911.837.837,0,0,0-1.323.869c.261.7,2.141,2.026,4.795,2.454,2.378.369-.312,2.126-1.841,3.059a.637.637,0,0,0-.247.818C307.313,261.3,310.436,267.194,315.409,264.6Z" transform="translate(-227.392 -127.349)" fill="#ffbe9d"/>
      <path id="Trazado_5438" data-name="Trazado 5438" d="M331.426,178.667c-.647-9,7.705-18.13,12.583-10.563,5.347,8.3,17.073,27.816,19.958,41.07,1.35,6.176-35.674,35.626-37.957,37.444-.068.057-.667-.762-.713-.818l-9.158-9.491c-.039-.057,2.156-2.3,2.212-2.355l26.072-25.543a.147.147,0,0,0,0-.171c-.874-1.594-12.385-22.6-13-29.363Z" transform="translate(-229.643 -112.426)" fill="#f83f00"/>
      <path id="Trazado_5439" data-name="Trazado 5439" d="M358.221,217.557c-.056.161-1.78-.386-3.984-.435s-3.948.369-4,.2,1.709-.867,4.023-.818A6.985,6.985,0,0,1,358.221,217.557Z" transform="translate(-235.843 -121.739)" fill="#263238"/>
      <path id="Trazado_5440" data-name="Trazado 5440" d="M356.64,220.585c-.139.115-1.194-1.055-2.888-1.914s-3.271-1.074-3.232-1.252,1.694-.222,3.5.728A5.391,5.391,0,0,1,356.64,220.585Z" transform="translate(-235.895 -121.887)" fill="#263238"/>
      <path id="Trazado_5441" data-name="Trazado 5441" d="M347.289,208.022a2.376,2.376,0,0,1-.288-.483l-.745-1.406-2.649-5.21c-2.227-4.459-5.264-10.547-8.608-17.272a24.664,24.664,0,0,1-3.076-10.178,10.946,10.946,0,0,1,2.456-8.18,6.78,6.78,0,0,1,2.83-1.815,6.1,6.1,0,0,1,2.517-.3,4.956,4.956,0,0,1,1.558.392,4.123,4.123,0,0,1,.366.2c.085.042.125.074.117.082a6.4,6.4,0,0,0-2.048-.505,5.949,5.949,0,0,0-2.451.367,6.649,6.649,0,0,0-2.693,1.792,10.815,10.815,0,0,0-2.307,7.993,24.8,24.8,0,0,0,3.108,9.989c3.315,6.74,6.309,12.852,8.5,17.327,1.052,2.194,1.912,3.977,2.527,5.27l.669,1.447A4.1,4.1,0,0,1,347.289,208.022Z" transform="translate(-232.507 -112.035)" fill="#263238"/>
      <g id="Grupo_1789" data-name="Grupo 1789" transform="translate(98.657 61.185)" opacity="0.3">
        <path id="Trazado_5442" data-name="Trazado 5442" d="M332.212,175.46c-.95,7.977-1.638,16.044-.9,24.037.393,4.211,4.849,9.49,8.359,11.853l-.94-3.623c.518-2.349,2.234-9.768,2.234-9.768s-3.2-6.333-4.475-8.65a32.348,32.348,0,0,1-4.277-13.849" transform="translate(-331.001 -175.46)"/>
      </g>
      <path id="Trazado_5443" data-name="Trazado 5443" d="M367.316,209.229a5.364,5.364,0,0,1-.566.522c-.188.156-.432.334-.725.532s-.623.427-1.008.647a19.627,19.627,0,0,1-2.8,1.365,24.006,24.006,0,0,1-3.65,1.106,23.666,23.666,0,0,1-3.777.474,18.011,18.011,0,0,1-3.12-.149,10.021,10.021,0,0,1-1.174-.21,5.97,5.97,0,0,1-.869-.222,2.354,2.354,0,0,1-.718-.276c0-.076,1.06.244,2.805.405a20.643,20.643,0,0,0,3.059.066,28.23,28.23,0,0,0,3.706-.505,27.492,27.492,0,0,0,3.6-1.055,24.689,24.689,0,0,0,2.791-1.26C366.408,209.859,367.267,209.173,367.316,209.229Z" transform="translate(-235.604 -120.417)" fill="#fafafa"/>
      <path id="Trazado_5444" data-name="Trazado 5444" d="M350.938,239.7a14.967,14.967,0,0,1-.818-2.307,37.41,37.41,0,0,0-2.151-5.447,17.811,17.811,0,0,0-1.694-2.725,10.146,10.146,0,0,0-1.826-1.848c-1.174-.908-2.058-1.26-2.019-1.333a1.854,1.854,0,0,1,.63.205,8.768,8.768,0,0,1,1.57.881,9.767,9.767,0,0,1,1.956,1.851,15.859,15.859,0,0,1,1.758,2.771,28.507,28.507,0,0,1,2.063,5.566A11.909,11.909,0,0,1,350.938,239.7Z" transform="translate(-234.423 -123.475)" fill="#fafafa"/>
      <path id="Trazado_5445" data-name="Trazado 5445" d="M338.458,251.559a8.205,8.205,0,0,1-2.144-.818,20.321,20.321,0,0,1-4.6-3.035,20.784,20.784,0,0,1-3.625-4.155,7.651,7.651,0,0,1-1.06-2.021c.056,0,.491.72,1.316,1.848a23.866,23.866,0,0,0,8.108,7.092C337.641,251.159,338.458,251.493,338.458,251.559Z" transform="translate(-231.622 -126.292)" fill="#fafafa"/>
      <path id="Trazado_5446" data-name="Trazado 5446" d="M348.714,172a1.861,1.861,0,0,1-.637.28,10.557,10.557,0,0,1-1.841.391c-1.577.239-3.789.1-6.16.231a11.676,11.676,0,0,0-3.274.614,7.336,7.336,0,0,0-2.332,1.34,7.622,7.622,0,0,0-1.531,1.973,1.487,1.487,0,0,1,.208-.663,5.011,5.011,0,0,1,1.118-1.531,7.158,7.158,0,0,1,2.4-1.488,11.693,11.693,0,0,1,3.367-.671c2.456-.132,4.607.05,6.165-.106S348.692,171.916,348.714,172Z" transform="translate(-232.697 -113.642)" fill="#fafafa"/>
      <path id="Trazado_5447" data-name="Trazado 5447" d="M358.7,190.61a1.457,1.457,0,0,1-.361.662,4.13,4.13,0,0,1-1.633,1.2,9.835,9.835,0,0,1-2.961.6,32.42,32.42,0,0,0-3.6.466,29.741,29.741,0,0,0-6.284,1.98c-1.545.688-2.454,1.218-2.454,1.162a2.5,2.5,0,0,1,.6-.442,18.206,18.206,0,0,1,1.77-.991,24.906,24.906,0,0,1,6.323-2.126c2.571-.557,4.99-.3,6.543-.933A4.6,4.6,0,0,0,358.7,190.61Z" transform="translate(-234.238 -117.031)" fill="#fafafa"/>
    </g>
    <g id="freepik--Plant--inject-550" transform="translate(87.267 80.577)">
      <path id="Trazado_5448" data-name="Trazado 5448" d="M114.594,91.19a12.447,12.447,0,0,1,8.663,4.509,21.923,21.923,0,0,1,4.329,8.924c1.636,6.243.531,13.6-1.3,19.781-6.733-2.454-10.831-9.7-12.681-13.5-2.921-6.012-4.557-18.635,1.031-19.717" transform="translate(-103.695 -91.19)" fill="#f83f00"/>
      <path id="Trazado_5449" data-name="Trazado 5449" d="M141.074,137.175a10.64,10.64,0,0,1-.408-10.636,14.088,14.088,0,0,1,8.54-6.749c1.636-.491,3.568-.687,4.991.287a4.561,4.561,0,0,1,1.709,4.261,9.2,9.2,0,0,1-1.979,4.344c-3.323,4.418-7.363,8.083-12.854,8.492" transform="translate(-108.88 -96.318)" fill="#f83f00"/>
      <g id="Grupo_1790" data-name="Grupo 1790" transform="translate(30.556 23.065)" opacity="0.3">
        <path id="Trazado_5450" data-name="Trazado 5450" d="M141.074,137.175a10.64,10.64,0,0,1-.408-10.636,14.088,14.088,0,0,1,8.54-6.749c1.636-.491,3.568-.687,4.991.287a4.561,4.561,0,0,1,1.709,4.261,9.2,9.2,0,0,1-1.979,4.344c-3.323,4.418-7.363,8.083-12.854,8.492" transform="translate(-139.437 -119.383)" fill="#fff"/>
      </g>
      <path id="Trazado_5451" data-name="Trazado 5451" d="M127.1,146.648a24.805,24.805,0,0,0-19.487-11.561c-2-.1-4.393.287-5.244,2.094s.376,3.911,1.768,5.36a21.2,21.2,0,0,0,23.046,4.637" transform="translate(-102.087 -99.172)" fill="#f83f00"/>
      <g id="Grupo_1791" data-name="Grupo 1791" transform="translate(0 35.901)" opacity="0.3">
        <path id="Trazado_5452" data-name="Trazado 5452" d="M127.1,146.648a24.805,24.805,0,0,0-19.487-11.561c-2-.1-4.393.287-5.244,2.094s.376,3.911,1.768,5.36a21.2,21.2,0,0,0,23.046,4.637" transform="translate(-102.087 -135.073)" fill="#fff"/>
      </g>
      <path id="Trazado_5453" data-name="Trazado 5453" d="M141.2,160.279a7.364,7.364,0,0,1-.277-1.324c-.148-.861-.353-2.1-.558-3.64a47.034,47.034,0,0,1-.271-12.151,23.013,23.013,0,0,1,4.5-11.224,15.123,15.123,0,0,1,2.61-2.616,9.9,9.9,0,0,1,.817-.59,1.207,1.207,0,0,1,.313-.173,22.941,22.941,0,0,0-3.5,3.56,23.818,23.818,0,0,0-4.319,11.1,51.421,51.421,0,0,0,.155,12.059c.173,1.481.311,2.716.416,3.649A9.431,9.431,0,0,1,141.2,160.279Z" transform="translate(-108.952 -97.987)" fill="#263238"/>
      <path id="Trazado_5454" data-name="Trazado 5454" d="M118,102.81a4.171,4.171,0,0,1,.262.515c.171.385.4.884.679,1.515.581,1.309,1.4,3.223,2.4,5.594,1.987,4.738,4.647,11.323,7.419,18.661s5.138,14.039,6.782,18.915c.818,2.455,1.472,4.41,1.907,5.776.2.654.36,1.187.482,1.587a2.388,2.388,0,0,1,.148.557,2.93,2.93,0,0,1-.229-.532c-.139-.392-.327-.907-.564-1.554-.492-1.4-1.187-3.346-2.03-5.726-1.718-4.844-4.089-11.528-6.887-18.857s-5.392-13.909-7.306-18.7l-2.275-5.646c-.244-.637-.449-1.154-.605-1.545A2.693,2.693,0,0,1,118,102.81Z" transform="translate(-104.981 -93.304)" fill="#263238"/>
      <path id="Trazado_5455" data-name="Trazado 5455" d="M112.74,141.41a8.467,8.467,0,0,1,1.293.072,11.653,11.653,0,0,1,1.5.212,18.1,18.1,0,0,1,1.973.435l1.129.311c.392.114.818.278,1.2.416a27.482,27.482,0,0,1,2.577,1.1,28.135,28.135,0,0,1,9.907,8.041c.581.819,1.154,1.547,1.637,2.307.228.377.466.728.654,1.089l.54,1.047a18.335,18.335,0,0,1,.818,1.832,11.519,11.519,0,0,1,.508,1.431,8.4,8.4,0,0,1,.343,1.251c-.1,0-.573-1.759-1.947-4.375-.179-.328-.36-.671-.557-1.024s-.433-.687-.671-1.053a26.7,26.7,0,0,0-1.636-2.26,29.194,29.194,0,0,0-9.768-7.936c-.884-.408-1.71-.817-2.535-1.111-.4-.148-.819-.321-1.171-.443l-1.113-.334C114.589,141.605,112.724,141.508,112.74,141.41Z" transform="translate(-104.025 -100.325)" fill="#263238"/>
      <path id="Trazado_5456" data-name="Trazado 5456" d="M125.85,159.94h24.241v14.186a10.055,10.055,0,0,1-10.054,10.055H135.9a10.055,10.055,0,0,1-10.055-10.055Z" transform="translate(-106.409 -103.695)" fill="#f83f00"/>
      <path id="Trazado_5457" data-name="Trazado 5457" d="M125.85,159.94h24.241v14.186a10.055,10.055,0,0,1-10.054,10.055H135.9a10.055,10.055,0,0,1-10.055-10.055Z" transform="translate(-106.409 -103.695)" opacity="0.3"/>
      <path id="Trazado_5458" data-name="Trazado 5458" d="M142.29,160a2.408,2.408,0,0,1-.277.719,12.346,12.346,0,0,1-1.082,1.8,14.457,14.457,0,0,1-11.91,6.079,12.329,12.329,0,0,1-2.087-.182,2.318,2.318,0,0,1-.743-.2c0-.073,1.079.138,2.822.082a15.319,15.319,0,0,0,11.682-5.964C141.759,160.982,142.217,160,142.29,160Z" transform="translate(-106.472 -103.706)" fill="#fafafa"/>
      <path id="Trazado_5459" data-name="Trazado 5459" d="M153.441,176.381a2.434,2.434,0,0,1-.818-.164,9.625,9.625,0,0,1-2-.9,10.3,10.3,0,0,1-4.375-12.656,9.936,9.936,0,0,1,1.012-1.94,2.814,2.814,0,0,1,.516-.612,21.294,21.294,0,0,0-1.243,2.657,10.4,10.4,0,0,0,4.253,12.271A21.179,21.179,0,0,0,153.441,176.381Z" transform="translate(-109.99 -103.726)" fill="#fafafa"/>
      <path id="Trazado_5460" data-name="Trazado 5460" d="M143.639,186.047a14.877,14.877,0,0,0-.508-3.584,11.008,11.008,0,0,0-1.808-3.442,12.488,12.488,0,0,0-3.583-3.118,13.687,13.687,0,0,0-8.411-1.636,29.638,29.638,0,0,0-3.56.817,4.505,4.505,0,0,1,.9-.409,12.818,12.818,0,0,1,2.617-.663,13.364,13.364,0,0,1,8.665,1.548,12.393,12.393,0,0,1,3.682,3.271,10.8,10.8,0,0,1,1.782,3.6,9.209,9.209,0,0,1,.336,2.682A3.754,3.754,0,0,1,143.639,186.047Z" transform="translate(-106.395 -106.225)" fill="#fafafa"/>
    </g>
    <g id="freepik--filing-cabinet--inject-550" transform="translate(51.657 161.062)">
      <rect id="Rectángulo_867" data-name="Rectángulo 867" width="76.305" height="221.486" transform="translate(0 0)" fill="#263238"/>
      <rect id="Rectángulo_868" data-name="Rectángulo 868" width="83.545" height="221.486" transform="translate(33.722 0)" fill="#455a64"/>
      <rect id="Rectángulo_869" data-name="Rectángulo 869" width="74.456" height="45.724" transform="translate(39.081 62.863)" fill="#455a64"/>
      <path id="Trazado_5461" data-name="Trazado 5461" d="M137,398.39h25.5v1.152a1.743,1.743,0,0,1-.505,1.274,1.765,1.765,0,0,1-1.27.522H138.768a1.759,1.759,0,0,1-1.76-1.758v-1.152Z" transform="translate(-72.827 -227.555)" fill="#263238"/>
      <path id="Trazado_5462" data-name="Trazado 5462" d="M180.515,398.363V410.7c0,7.959.057,19.4.09,33.418v.166h-.164l-74.448.044h-.254V398.25h.2l53.717.049h15.282l-15.38.063-53.586.146.2-.2v45.669l-.212-.215h0l74.447.039-.172.176c0-13.975.074-25.366.09-33.315,0-3.965,0-7.06.042-9.179v-2.407A3.166,3.166,0,0,0,180.515,398.363Z" transform="translate(-67.142 -227.528)" fill="#263238"/>
      <rect id="Rectángulo_870" data-name="Rectángulo 870" width="22.171" height="5.989" transform="translate(66.512 182.004)" fill="#e0e0e0"/>
      <rect id="Rectángulo_871" data-name="Rectángulo 871" width="74.456" height="45.724" transform="translate(39.081 113.758)" fill="#455a64"/>
      <path id="Trazado_5463" data-name="Trazado 5463" d="M136.876,335.87h25.5v1.155a1.758,1.758,0,0,1-1.759,1.758H138.609a1.758,1.758,0,0,1-1.759-1.758V335.87Z" transform="translate(-72.8 -216.18)" fill="#263238"/>
      <path id="Trazado_5464" data-name="Trazado 5464" d="M181.391,335.834v3.191c0,2.112,0,5.188.042,9.138,0,7.961.056,19.4.089,33.418v.164h-.131l-74.447.012h-.254V335.68h.2l53.716.046,15.332.044h-.066l-15.38.063-53.586.149.2-.205v45.669l-.212-.215h0l74.448.039-.172.176c.04-13.975.073-25.364.09-33.315V336.547A2.512,2.512,0,0,0,181.391,335.834Z" transform="translate(-67.315 -216.146)" fill="#263238"/>
      <rect id="Rectángulo_872" data-name="Rectángulo 872" width="22.171" height="5.989" transform="translate(65.743 130.504)" fill="#e0e0e0"/>
      <path id="Trazado_5465" data-name="Trazado 5465" d="M137.21,197h25.5v1.155a1.759,1.759,0,0,1-1.759,1.758H138.968a1.758,1.758,0,0,1-1.758-1.758Z" transform="translate(-72.866 -190.922)" fill="#263238"/>
      <path id="Trazado_5466" data-name="Trazado 5466" d="M180.725,196.975v3.2c0,2.1,0,5.188.042,9.138,0,7.952.049,19.4.089,33.413v.164h-.171l-74.448.042H106V196.86h.2l53.708.051h15.3l-15.371.063-53.588.149.2-.2v45.659l-.212-.212h0l74.448.049-.164.164c0-13.975.065-25.361.09-33.315,0-3.958,0-7.051.04-9.167V197.7A1.9,1.9,0,0,1,180.725,196.975Z" transform="translate(-67.189 -190.896)" fill="#263238"/>
      <rect id="Rectángulo_873" data-name="Rectángulo 873" width="22.171" height="5.989" transform="translate(65.612 15.781)" fill="#e0e0e0"/>
      <path id="Trazado_5467" data-name="Trazado 5467" d="M106.62,280.113V262.936a2.685,2.685,0,0,1,2.684-2.686h45.764a2.641,2.641,0,0,1,2.643,2.642v17.183Z" transform="translate(-67.302 -202.425)" fill="#f83f00"/>
      <path id="Trazado_5468" data-name="Trazado 5468" d="M106.62,280.113V262.936a2.685,2.685,0,0,1,2.684-2.686h45.764a2.641,2.641,0,0,1,2.643,2.642v17.183Z" transform="translate(-67.302 -202.425)" opacity="0.3"/>
      <path id="Trazado_5469" data-name="Trazado 5469" d="M112.34,281.111v-15.1a.277.277,0,0,1,.261-.278h46.15v15.381Z" transform="translate(-68.342 -203.423)" fill="#fafafa"/>
      <path id="Trazado_5470" data-name="Trazado 5470" d="M170.445,261.423,169.128,279.7H119.46l1.326-16.963a2.865,2.865,0,0,1,2.61-2.869l24.159.132h0a1.874,1.874,0,0,1,1.636-2.021h18.652C169.373,258,170.576,259.574,170.445,261.423Z" transform="translate(-69.637 -202.014)" fill="#f83f00"/>
      <path id="Trazado_5471" data-name="Trazado 5471" d="M131.48,277.943V260.76a2.684,2.684,0,0,1,2.692-2.681h45.765a2.642,2.642,0,0,1,2.643,2.642V277.95Z" transform="translate(-71.824 -202.032)" fill="#f83f00"/>
      <path id="Trazado_5472" data-name="Trazado 5472" d="M131.48,277.943V260.76a2.684,2.684,0,0,1,2.692-2.681h45.765a2.642,2.642,0,0,1,2.643,2.642V277.95Z" transform="translate(-71.824 -202.032)" opacity="0.3"/>
      <path id="Trazado_5473" data-name="Trazado 5473" d="M137.21,278.941v-15.11a.269.269,0,0,1,.074-.193.263.263,0,0,1,.187-.078h46.15v15.381Z" transform="translate(-72.866 -203.029)" fill="#fafafa"/>
      <path id="Trazado_5474" data-name="Trazado 5474" d="M195.311,259.237l-1.349,18.293H144.32l1.373-16.968a2.864,2.864,0,0,1,2.61-2.864l24.16.122h0A1.873,1.873,0,0,1,174.1,255.8h18.628C194.241,255.8,195.443,257.4,195.311,259.237Z" transform="translate(-74.159 -201.617)" fill="#f83f00"/>
      <path id="Trazado_5475" data-name="Trazado 5475" d="M166.08,279.151V261.973a2.688,2.688,0,0,1,2.683-2.693h45.765a2.644,2.644,0,0,1,2.644,2.654v17.217Z" transform="translate(-78.117 -202.249)" fill="#f83f00"/>
      <path id="Trazado_5476" data-name="Trazado 5476" d="M166.08,279.151V261.973a2.688,2.688,0,0,1,2.683-2.693h45.765a2.644,2.644,0,0,1,2.644,2.654v17.217Z" transform="translate(-78.117 -202.249)" opacity="0.3"/>
      <path id="Trazado_5477" data-name="Trazado 5477" d="M171.81,280.151v-15.1a.27.27,0,0,1,.254-.276h46.15v15.381Z" transform="translate(-79.159 -203.25)" fill="#fafafa"/>
      <rect id="Rectángulo_874" data-name="Rectángulo 874" width="46.812" height="27.439" transform="translate(94.974 57.587)" fill="#e0e0e0"/>
      <rect id="Rectángulo_875" data-name="Rectángulo 875" width="47.172" height="29.256" transform="translate(98.467 45.405)" fill="#f5f5f5"/>
      <path id="Trazado_5478" data-name="Trazado 5478" d="M189.383,273.548c-.122,0-.212-5.056-.212-11.289s.09-11.289.212-11.289.215,5.054.215,11.289S189.5,273.548,189.383,273.548Z" transform="translate(-82.317 -200.738)" fill="#263238"/>
      <path id="Trazado_5479" data-name="Trazado 5479" d="M193.475,273.548c-.115,0-.215-5.056-.215-11.289s.1-11.289.215-11.289.212,5.054.212,11.289S193.6,273.548,193.475,273.548Z" transform="translate(-83.062 -200.738)" fill="#263238"/>
      <path id="Trazado_5480" data-name="Trazado 5480" d="M197.955,273.548c-.125,0-.215-5.056-.215-11.289s.09-11.289.215-11.289.212,5.054.212,11.289S198.06,273.548,197.955,273.548Z" transform="translate(-83.877 -200.738)" fill="#263238"/>
      <path id="Trazado_5481" data-name="Trazado 5481" d="M202.4,273.548c-.115,0-.212-5.056-.212-11.289s.1-11.289.212-11.289.212,5.054.212,11.289S202.517,273.548,202.4,273.548Z" transform="translate(-84.686 -200.738)" fill="#263238"/>
      <path id="Trazado_5482" data-name="Trazado 5482" d="M206.865,273.548c-.117,0-.215-5.056-.215-11.289s.1-11.289.215-11.289.21,5.054.21,11.289S206.985,273.548,206.865,273.548Z" transform="translate(-85.496 -200.738)" fill="#263238"/>
      <path id="Trazado_5483" data-name="Trazado 5483" d="M211.333,273.548c-.125,0-.212-5.056-.212-11.289s.088-11.289.212-11.289.212,5.054.212,11.289S211.447,273.548,211.333,273.548Z" transform="translate(-86.31 -200.738)" fill="#263238"/>
      <path id="Trazado_5484" data-name="Trazado 5484" d="M215.8,273.548c-.115,0-.215-5.056-.215-11.289s.1-11.289.215-11.289.212,5.054.212,11.289S215.924,273.548,215.8,273.548Z" transform="translate(-87.121 -200.738)" fill="#263238"/>
      <path id="Trazado_5485" data-name="Trazado 5485" d="M220.252,273.548c-.115,0-.212-5.056-.212-11.289s.1-11.289.212-11.289.212,5.054.212,11.289S220.374,273.548,220.252,273.548Z" transform="translate(-87.933 -200.738)" fill="#263238"/>
      <path id="Trazado_5486" data-name="Trazado 5486" d="M224.72,273.548c-.122,0-.22-5.056-.22-11.289s.1-11.289.22-11.289.212,5.054.212,11.289S224.835,273.548,224.72,273.548Z" transform="translate(-88.744 -200.738)" fill="#263238"/>
      <path id="Trazado_5487" data-name="Trazado 5487" d="M229.185,273.548c-.122,0-.215-5.056-.215-11.289s.093-11.289.215-11.289.212,5.054.212,11.289S229.3,273.548,229.185,273.548Z" transform="translate(-89.557 -200.738)" fill="#263238"/>
      <path id="Trazado_5488" data-name="Trazado 5488" d="M229.906,264.555,228.6,279.6H178.92l1.333-13.962a2.615,2.615,0,0,1,2.6-2.368l24.167.107h0a1.637,1.637,0,0,1,1.636-1.636h18.628a2.607,2.607,0,0,1,2.62,2.815Z" transform="translate(-80.453 -202.698)" fill="#f83f00"/>
      <rect id="Rectángulo_876" data-name="Rectángulo 876" width="74.456" height="45.724" transform="translate(38.893 68.541)" fill="#263238"/>
      <rect id="Rectángulo_877" data-name="Rectángulo 877" width="74.456" height="45.724" transform="translate(83.946 68.541)" fill="#455a64"/>
      <path id="Trazado_5489" data-name="Trazado 5489" d="M235.593,318.866v-12.3c0-7.874-.057-19.194-.092-33.071l.165.171-74.447.044h0l.212-.215v45.383l-.2-.2,53.552.1,15.374.049h.039l-15.331.056-53.684.09h-.2v-45.7h.221l74.448.049h.171v.166c0,13.906-.073,25.271-.089,33.164,0,3.921,0,6.978-.042,9.065v2.356A7.3,7.3,0,0,0,235.593,318.866Z" transform="translate(-77.192 -204.796)" fill="#263238"/>
      <path id="Trazado_5490" data-name="Trazado 5490" d="M193.92,273.35h25.5v1a1.763,1.763,0,0,1-1.76,1.763H195.68a1.765,1.765,0,0,1-1.76-1.763v-1Z" transform="translate(-83.181 -204.809)" fill="#263238"/>
      <rect id="Rectángulo_878" data-name="Rectángulo 878" width="22.171" height="5.989" transform="translate(112.882 78.792)" fill="#e0e0e0"/>
      <path id="Trazado_5491" data-name="Trazado 5491" d="M222.236,238.455A45.232,45.232,0,0,0,221,247.169c0,.376,0,.818.327,1.021s.818-.359,1.086-.693c.525-.6,2.456-3.943,2.456-3.943a5.556,5.556,0,0,0,5.046-5.393" transform="translate(-88.106 -198.408)" fill="#ffbe9d"/>
      <path id="Trazado_5492" data-name="Trazado 5492" d="M229.831,238.16a2.1,2.1,0,0,1,0,.605,5.357,5.357,0,0,1-.415,1.638,5.619,5.619,0,0,1-1.572,2.068,6.067,6.067,0,0,1-3.049,1.277l.144-.1c-.613,1.062-1.292,2.224-2.061,3.4-.122.171-.229.344-.376.522s-.254.31-.41.474a1.137,1.137,0,0,1-.613.386.659.659,0,0,1-.679-.41,2.553,2.553,0,0,1-.1-1.243c0-.376.049-.745.081-1.1a37.749,37.749,0,0,1,.515-3.813c.2-1.072.4-1.929.564-2.52a3.934,3.934,0,0,1,.3-.9,3.9,3.9,0,0,1-.137.935c-.107.6-.271,1.465-.427,2.544s-.32,2.356-.417,3.779l-.073,1.1a2.309,2.309,0,0,0,.073,1.033c.056.129.173.2.237.186a.92.92,0,0,0,.376-.269l.386-.457c.122-.156.237-.317.344-.486.759-1.16,1.448-2.322,2.078-3.369l.049-.09h.1a5.8,5.8,0,0,0,2.888-1.145,5.326,5.326,0,0,0,1.553-1.907A9.126,9.126,0,0,0,229.831,238.16Z" transform="translate(-88.047 -198.408)" fill="#eb996e"/>
    </g>
  </g>
</svg>
