<svg xmlns="http://www.w3.org/2000/svg" width="24" height="24" viewBox="0 0 24 24">
  <g id="headset" transform="translate(2 2)">
    <rect id="Rectángulo_923" data-name="Rectángulo 923" width="24" height="24" transform="translate(-2 -2)" fill="none"/>
    <g id="Grupo_572" data-name="Grupo 572">
      <g id="Grupo_571" data-name="Grupo 571">
        <path id="Trazado_1085" data-name="Trazado 1085" d="M4.688,7.93H3.144A6.876,6.876,0,0,1,16.45,6.052a.781.781,0,0,0,1.465-.542A8.438,8.438,0,0,0,1.564,8.349,3.126,3.126,0,0,0,0,11.055v2.656a3.129,3.129,0,0,0,3.125,3.125H4.688a.781.781,0,0,0,.781-.781V8.711A.781.781,0,0,0,4.688,7.93Zm-.781,7.344H3.125a1.564,1.564,0,0,1-1.562-1.562V11.055A1.564,1.564,0,0,1,3.125,9.492h.781Z" fill="#f83f00"/>
        <path id="Trazado_1086" data-name="Trazado 1086" d="M224.438,203h-1.562a.781.781,0,0,0-.781.781v8.164a.782.782,0,0,1-.781.781H218.93v.025a1.563,1.563,0,1,0,0,1.513v.025h2.383a2.346,2.346,0,0,0,2.344-2.344v-.039h.781a3.129,3.129,0,0,0,3.125-3.125v-2.656A3.129,3.129,0,0,0,224.438,203ZM226,208.781a1.564,1.564,0,0,1-1.562,1.563h-.781v-5.781h.781A1.564,1.564,0,0,1,226,206.125Z" transform="translate(-207.563 -195.07)" fill="#f83f00"/>
      </g>
    </g>
  </g>
</svg>
