<svg xmlns="http://www.w3.org/2000/svg" width="449.226" height="370" viewBox="0 0 449.226 370">
  <defs>
    <style>
      .cls-1 {
        fill: #e0e0e0;
      }

      .cls-2 {
        fill: #f5f5f5;
      }

      .cls-3 {
        fill: #fff;
      }

      .cls-4 {
        fill: #263238;
      }

      .cls-5 {
        fill: #f83f00;
      }

      .cls-6 {
        fill: #ffbe9d;
      }

      .cls-7 {
        fill: #eb996e;
      }

      .cls-8 {
        opacity: 0.3;
      }

      .cls-9 {
        fill: #fafafa;
      }

      .cls-10 {
        fill: #455a64;
      }

      .cls-11 {
        fill: #b78876;
      }

      .cls-12 {
        fill: #7c5142;
      }

      .cls-13 {
        opacity: 0.6;
      }
    </style>
  </defs>
  <g id="high-five-pana" transform="translate(-25.579 -62.52)">
    <g id="freepik--background-complete--inject-488" transform="translate(25.579 62.52)">
      <rect id="Rectángulo_440" data-name="Rectángulo 440" class="cls-1" width="49.516" height="71.771" transform="translate(285.365 78.099)"/>
      <rect id="Rectángulo_441" data-name="Rectángulo 441" class="cls-2" width="49.516" height="71.771" transform="translate(282.887 78.099)"/>
      <rect id="Rectángulo_442" data-name="Rectángulo 442" class="cls-3" width="37.213" height="56.23" transform="translate(289.038 85.87)"/>
      <path id="Trazado_1312" data-name="Trazado 1312" class="cls-1" d="M355.521,205.705V189.967c0-9.873,0-23.953-.059-40.481l.118.118h-37.2l.138-.138v56.22l-.109-.1h-.237V149.12h37.47v.128c0,16.568-.049,30.608-.059,40.57v15.393a2.365,2.365,0,0,1-.059.494Z" transform="translate(-29.28 -63.615)"/>
      <path id="Trazado_1313" data-name="Trazado 1313" class="cls-1" d="M362.294,141.62a8.7,8.7,0,0,1-.879,1.284c-.573.76-1.392,1.807-2.32,2.962s-1.807,2.133-2.449,2.844a9.454,9.454,0,0,1-1.1,1.116,10.629,10.629,0,0,1,.987-1.234l2.389-2.893,2.38-2.893A8.752,8.752,0,0,1,362.294,141.62Z" transform="translate(-29.753 -63.521)"/>
      <path id="Trazado_1314" data-name="Trazado 1314" class="cls-3" d="M356.2,206.25a46.406,46.406,0,0,0,6.5,8.116" transform="translate(-29.761 -64.338)"/>
      <path id="Trazado_1315" data-name="Trazado 1315" class="cls-1" d="M362.7,214.367a6.91,6.91,0,0,1-1.135-.987,36.381,36.381,0,0,1-2.449-2.765,34.408,34.408,0,0,1-2.152-2.962,7.254,7.254,0,0,1-.76-1.333,8.7,8.7,0,0,1,.918,1.224c.543.77,1.313,1.817,2.2,2.962s1.757,2.1,2.379,2.8A9.88,9.88,0,0,1,362.7,214.367Z" transform="translate(-29.761 -64.339)"/>
      <path id="Trazado_1316" data-name="Trazado 1316" class="cls-3" d="M312.09,214.148l6.477-8" transform="translate(-29.203 -64.337)"/>
      <path id="Trazado_1317" data-name="Trazado 1317" class="cls-1" d="M318.567,206.15a49.357,49.357,0,0,1-3.13,4.078c-1.8,2.212-3.3,3.949-3.347,3.949a48.382,48.382,0,0,1,3.13-4.088A51.181,51.181,0,0,1,318.567,206.15Z" transform="translate(-29.203 -64.337)"/>
      <path id="Trazado_1318" data-name="Trazado 1318" class="cls-1" d="M312.09,141.62a43.55,43.55,0,0,1,3.15,3.762,47.552,47.552,0,0,1,2.962,3.949,43.551,43.551,0,0,1-3.15-3.762,44.3,44.3,0,0,1-2.962-3.949Z" transform="translate(-29.203 -63.521)"/>
      <rect id="Rectángulo_443" data-name="Rectángulo 443" class="cls-1" width="12.46" height="35.377" transform="translate(302.199 97.284)"/>
      <path id="Trazado_1319" data-name="Trazado 1319" class="cls-2" d="M264.829,345a17.634,17.634,0,0,0-10.367,9.113,31.1,31.1,0,0,0-2.962,13.744c-.118,9.153,3.841,18.908,8.442,26.816,8.442-5.667,11.661-17,12.934-22.857,1.975-9.261,0-27.2-8.037-26.816" transform="translate(-28.437 -66.093)"/>
      <path id="Trazado_1320" data-name="Trazado 1320" class="cls-2" d="M248.867,409a15.037,15.037,0,0,0-3.021-14.81,19.935,19.935,0,0,0-14.02-6.418c-2.439-.128-5.144.247-6.783,2.064a6.428,6.428,0,0,0-.918,6.447,13,13,0,0,0,4.186,5.322c6.052,4.937,12.836,8.659,20.557,7.376" transform="translate(-28.084 -66.634)"/>
      <path id="Trazado_1321" data-name="Trazado 1321" class="cls-1" d="M255.347,431.118a29.727,29.727,0,0,0-.276-6.043,27.643,27.643,0,0,0-1.5-6.437,61.593,61.593,0,0,0-3.031-7.474,30.015,30.015,0,0,0-9.4-11.2,22.037,22.037,0,0,0-3.949-2.143,4.937,4.937,0,0,0-1.57-.454c-.079.168,2.123.987,5.055,3.179a32.258,32.258,0,0,1,8.886,11.078,72.7,72.7,0,0,1,3.051,7.326,31.272,31.272,0,0,1,1.678,6.22C254.9,428.837,255.189,431.137,255.347,431.118Z" transform="translate(-28.236 -66.755)"/>
      <path id="Trazado_1322" data-name="Trazado 1322" class="cls-1" d="M265.181,359a17.38,17.38,0,0,0-.691,2.962c-.375,1.975-.879,4.739-1.471,8.2-1.195,6.911-2.725,16.528-4.167,27.172s-2.458,20.31-3.051,27.33c-.3,3.505-.5,6.339-.612,8.3a16.075,16.075,0,0,0-.059,3.061,17.6,17.6,0,0,0,.454-3.021c.247-2.143.563-4.937.987-8.274.78-6.99,1.915-16.637,3.347-27.261s2.853-20.063,3.861-27.2c.474-3.337.859-6.122,1.155-8.244A17.7,17.7,0,0,0,265.181,359Z" transform="translate(-28.482 -66.27)"/>
      <path id="Trazado_1323" data-name="Trazado 1323" class="cls-2" d="M260.35,413.993a35.17,35.17,0,0,1,25.266-19.846c2.784-.513,6.22-.415,7.751,1.975s.188,5.569-1.5,7.9a30.035,30.035,0,0,1-31.536,10.713" transform="translate(-28.548 -66.712)"/>
      <path id="Trazado_1324" data-name="Trazado 1324" class="cls-1" d="M281.667,401.6a4.937,4.937,0,0,0-1.57.336c-.987.276-2.419.76-4.147,1.4a39.494,39.494,0,0,0-12.46,7.346A24.879,24.879,0,0,0,258.553,417a23.742,23.742,0,0,0-2.261,6.151,24.072,24.072,0,0,0-.553,4.364,4.779,4.779,0,0,0,0,1.609c.207,0,.286-2.281,1.2-5.8a24.565,24.565,0,0,1,7.208-11.9,44.5,44.5,0,0,1,12.046-7.425C279.6,402.538,281.746,401.758,281.667,401.6Z" transform="translate(-28.489 -66.809)"/>
      <path id="Trazado_1325" data-name="Trazado 1325" class="cls-2" d="M454.667,169.758s-10.347-3.051-14.534,20.734-4.522,36.887-4.522,36.887-1.451,5.164-5.282,3.248-10.338-8.659-14.929-5.677c-4.769,3.09-4.7,9.449-1.076,17.7s10.861,26.659,11.532,28.317.434,4.394-2.38,3.515-20.734-11.68-25.375-2.794,9.242,30.173,10.713,32.583,1.3,3.614.276,4.621-6.714-3.189-11.947-6.052-11.8-5.263-14.03.049,1.975,23.222,27.468,46.633l12.5,10.071,15.136-5.569c31.664-13.9,41.469-29.463,41.094-35.219s-7.385-5.648-13.26-4.66-12.618,3.15-13.27,1.856-.395-2.528,1.767-4.285,22.2-17.476,20.685-27.32-21.988-5.43-24.94-5.509-2.241-2.755-1.116-4.088,13.991-16.41,20.093-23.055,8.225-12.628,4.72-17.1c-3.377-4.315-11.73,0-15.965.533s-3.949-4.779-3.949-4.779,3.949-12.5,7.672-36.374-7.306-24.289-7.306-24.289" transform="translate(-30.095 -63.875)"/>
      <path id="Trazado_1326" data-name="Trazado 1326" class="cls-1" d="M451.345,191.35a3.9,3.9,0,0,1-.049.5l-.207,1.471c-.2,1.313-.484,3.219-.839,5.648-.74,4.937-1.856,12.006-3.268,20.734-2.824,17.525-6.911,41.7-11.542,68.384s-8.787,50.849-11.7,68.354c-1.451,8.738-2.626,15.8-3.436,20.734-.4,2.429-.721,4.325-.987,5.638-.109.622-.188,1.106-.257,1.461s-.109.494-.109.494a3.27,3.27,0,0,1,.059-.5c.059-.336.118-.839.2-1.471.2-1.313.484-3.219.839-5.648.741-4.937,1.856-12.006,3.268-20.734,2.824-17.525,6.911-41.706,11.552-68.394s8.817-50.839,11.779-68.384c1.441-8.738,2.617-15.8,3.436-20.734l.938-5.638.257-1.461A4.488,4.488,0,0,1,451.345,191.35Z" transform="translate(-30.555 -64.15)"/>
      <path id="Trazado_1327" data-name="Trazado 1327" class="cls-1" d="M424.66,235.62a5.185,5.185,0,0,1,.711.918c.434.612.987,1.511,1.757,2.626,1.451,2.241,3.377,5.381,5.43,8.886l5.223,9.015,1.59,2.715a4.109,4.109,0,0,1,.543.987,4.994,4.994,0,0,1-.721-.908c-.424-.612-.987-1.511-1.738-2.636-1.432-2.261-3.318-5.43-5.371-8.936l-5.282-8.975c-.632-1.066-1.175-1.975-1.609-2.715A4.237,4.237,0,0,1,424.66,235.62Z" transform="translate(-30.627 -64.71)"/>
      <path id="Trazado_1328" data-name="Trazado 1328" class="cls-1" d="M441.63,260.762c-.089-.128,6.22-4.374,14.089-9.5s14.3-9.163,14.386-9.044-6.23,4.384-14.089,9.5S441.709,260.871,441.63,260.762Z" transform="translate(-30.842 -64.793)"/>
      <path id="Trazado_1329" data-name="Trazado 1329" class="cls-1" d="M432.57,302.033a5.4,5.4,0,0,1,1.116-.4l3.081-.938c2.6-.8,6.191-1.906,10.1-3.278s7.425-2.705,9.962-3.7l2.962-1.175a4.473,4.473,0,0,1,1.135-.375,5.517,5.517,0,0,1-1.047.563c-.691.336-1.688.8-2.962,1.343-2.488,1.086-5.983,2.5-9.874,3.861s-7.543,2.429-10.17,3.13c-1.323.346-2.389.612-3.14.78a4.937,4.937,0,0,1-1.165.2Z" transform="translate(-30.727 -65.425)"/>
      <path id="Trazado_1330" data-name="Trazado 1330" class="cls-1" d="M412.17,282.6a4.513,4.513,0,0,1,.869.671c.533.454,1.3,1.126,2.231,1.975,1.876,1.688,4.433,4.038,7.237,6.655s5.322,5.016,7.129,6.773c.9.869,1.619,1.59,2.113,2.093a5.065,5.065,0,0,1,.731.82,3.872,3.872,0,0,1-.869-.662c-.543-.454-1.3-1.135-2.241-1.975-1.866-1.679-4.433-4.028-7.237-6.655s-5.322-5.016-7.119-6.763c-.908-.879-1.629-1.59-2.123-2.1a4.246,4.246,0,0,1-.721-.829Z" transform="translate(-30.469 -65.304)"/>
      <path id="Trazado_1331" data-name="Trazado 1331" class="cls-1" d="M399.55,317.94a6.508,6.508,0,0,1,1.106.869l2.873,2.518c2.409,2.143,5.707,5.124,9.34,8.452s6.911,6.359,9.232,8.57l2.755,2.646a6.989,6.989,0,0,1,.987.987,7.9,7.9,0,0,1-1.106-.869l-2.873-2.518c-2.409-2.143-5.707-5.134-9.34-8.452s-6.911-6.358-9.222-8.57l-2.784-2.587A6.8,6.8,0,0,1,399.55,317.94Z" transform="translate(-30.309 -65.751)"/>
      <path id="Trazado_1332" data-name="Trazado 1332" class="cls-1" d="M425.68,341.387a8.564,8.564,0,0,1,1.392-.543l3.87-1.333c3.258-1.126,7.761-2.7,12.687-4.562s9.34-3.663,12.52-4.986l3.782-1.57a8.2,8.2,0,0,1,1.412-.513,7.123,7.123,0,0,1-1.323.711c-.869.425-2.133.987-3.712,1.718-3.15,1.422-7.553,3.278-12.49,5.144s-9.459,3.406-12.757,4.394c-1.649.513-2.962.908-3.949,1.165A7.53,7.53,0,0,1,425.68,341.387Z" transform="translate(-30.64 -65.877)"/>
      <path id="Trazado_1333" data-name="Trazado 1333" class="cls-2" d="M102.85,381.367c22.8-13.013,30.2-40.343,31.6-65.392.237-4.186,1.1-8.531-.553-12.372s-6.043-6.763-9.933-5.351c-3.229,1.175-4.937,4.65-6.911,7.474a24.526,24.526,0,0,1-10.634,8.442c-2.784,1.135-6.141,1.669-8.629,0-3.416-2.32-3.387-7.326-2.962-11.463Q96,291.093,97.084,279.522c.4-4.137.81-8.373-.118-12.421s-3.446-7.978-7.287-9.439-8.936.355-10.14,4.344c-.494,1.659-.316,3.436-.583,5.144s-1.254,3.545-2.962,3.88-3.248-.987-4.374-2.32c-3.949-4.581-6.309-10.239-8.531-15.857s-4.354-11.335-7.82-16.262-8.5-9.024-14.405-9.873-12.569,2.212-14.6,7.9.819,11.947,4.1,17.022a93.324,93.324,0,0,0,17.654,20.093c1.224,1.047,2.547,2.182,2.962,3.762.642,2.844-2.231,5.351-5.035,6.013-3.189.741-6.517.109-9.775.2s-6.911,1.185-8.4,4.137c-2.093,4.078,1.047,8.886,4.265,12.075a79.4,79.4,0,0,0,22.225,15.689c2.962,1.392,6.062,2.666,8.323,5.035s3.406,6.23,1.659,9.015-5.658,3.377-8.8,2.488-5.835-2.883-8.778-4.3c-5.5-2.676-12.895-2.962-16.992,1.629-2.7,3.021-3.318,7.5-2.459,11.473s3.011,7.524,5.342,10.861C40.7,361.353,51.6,371.049,64.4,376.845s24.921,8.156,38.507,4.562" transform="translate(-25.579 -64.595)"/>
      <path id="Trazado_1334" data-name="Trazado 1334" class="cls-1" d="M101.58,399.946a183.646,183.646,0,0,0-3.643-34.794,374.384,374.384,0,0,0-11.088-41.36l-3.5-10.673c-1.145-3.505-2.281-6.981-3.6-10.318a185.533,185.533,0,0,0-8.679-18.71c-3.051-5.816-6.151-11.226-9.093-16.262s-5.8-9.676-8.56-13.823a148.382,148.382,0,0,0-14.494-18.4c-1.876-2.034-3.377-3.564-4.413-4.591l-1.185-1.155a3.474,3.474,0,0,0-.425-.375,3.817,3.817,0,0,0,.365.425l1.135,1.214c.987,1.056,2.468,2.626,4.3,4.69a156,156,0,0,1,14.267,18.542c2.735,4.117,5.539,8.768,8.462,13.823s6,10.466,9.024,16.272A189.82,189.82,0,0,1,79.1,303.057c1.3,3.318,2.429,6.763,3.564,10.278s2.291,7.069,3.466,10.683A384.853,384.853,0,0,1,97.246,365.26a186.807,186.807,0,0,1,3.791,34.656" transform="translate(-25.672 -64.632)"/>
      <path id="Trazado_1335" data-name="Trazado 1335" class="cls-1" d="M80.17,303.113a7.306,7.306,0,0,0,.573-1.728c.326-1.126.731-2.765,1.214-4.808.987-4.078,2.1-9.745,3.337-16s2.449-11.9,3.475-15.946c.5-1.975.928-3.663,1.244-4.789a8.8,8.8,0,0,0,.395-1.777,7.749,7.749,0,0,0-.681,1.688c-.395,1.106-.908,2.725-1.481,4.739-1.165,4.018-2.468,9.666-3.7,15.936l-3.12,16.084c-.385,1.925-.711,3.554-.987,4.858A9.369,9.369,0,0,0,80.17,303.113Z" transform="translate(-26.27 -64.993)"/>
      <path id="Trazado_1336" data-name="Trazado 1336" class="cls-1" d="M27.11,288.66a12.439,12.439,0,0,0,2.1.444c1.363.247,3.327.592,5.737,1.106,4.838.987,11.463,2.547,18.7,4.611s13.7,4.236,18.345,5.924c2.32.829,4.186,1.55,5.47,2.044a11.011,11.011,0,0,0,2.034.7,10.92,10.92,0,0,0-1.915-.987c-1.254-.583-3.09-1.382-5.4-2.281-4.6-1.836-11.058-4.078-18.325-6.161a187.3,187.3,0,0,0-18.809-4.413c-2.429-.434-4.413-.7-5.786-.859A10.622,10.622,0,0,0,27.11,288.66Z" transform="translate(-25.598 -65.38)"/>
      <path id="Trazado_1337" data-name="Trazado 1337" class="cls-1" d="M98.19,365a2.538,2.538,0,0,0,.425-.622l1.1-1.846c.987-1.6,2.231-3.949,3.791-6.911,3.13-5.865,7.208-14.109,11.572-23.272s8.353-17.437,11.364-23.361l3.574-7.01.987-1.915a3.269,3.269,0,0,0,.286-.691,2.962,2.962,0,0,0-.425.612l-1.086,1.846c-.938,1.609-2.231,3.949-3.8,6.911-3.13,5.875-7.2,14.119-11.572,23.282s-8.353,17.427-11.355,23.361l-3.584,7.01-.987,1.915a2.7,2.7,0,0,0-.286.691Z" transform="translate(-26.498 -65.516)"/>
      <path id="Trazado_1338" data-name="Trazado 1338" class="cls-1" d="M28.57,336.14a2.667,2.667,0,0,0,.681.355l1.975.879,7.356,3.16c6.22,2.656,14.81,6.438,24.19,10.624s18.009,7.9,24.289,10.426c3.13,1.274,5.677,2.271,7.454,2.962l2.044.75a3.316,3.316,0,0,0,.731.207,2.461,2.461,0,0,0-.671-.355l-1.975-.879-7.4-3.189c-6.22-2.666-14.81-6.447-24.19-10.634s-18.019-7.9-24.289-10.426c-3.13-1.264-5.677-2.271-7.455-2.962l-2.044-.74a3.091,3.091,0,0,0-.7-.178Z" transform="translate(-25.617 -65.981)"/>
      <path id="Trazado_1339" data-name="Trazado 1339" class="cls-1" d="M173.286,81.7v81.5H56.246L52.02,82.273Z" transform="translate(-25.914 -62.763)"/>
      <rect id="Rectángulo_444" data-name="Rectángulo 444" class="cls-3" width="80.746" height="117.041" transform="translate(26.106 100.266) rotate(-90)"/>
      <path id="Trazado_1340" data-name="Trazado 1340" class="cls-1" d="M169.616,163.581H51.46V81.72H169.616ZM52.576,162.466H168.5V82.826H52.576Z" transform="translate(-25.906 -62.763)"/>
      <rect id="Rectángulo_445" data-name="Rectángulo 445" class="cls-3" width="91.685" height="60.683" transform="translate(38.784 29.542)"/>
      <path id="Trazado_1341" data-name="Trazado 1341" class="cls-1" d="M156.551,92.436h-6.744l-18.9.069-66,.128.267-.267v60.683h0l-.3-.286,91.7.059-.237.227c.059-18.463.1-33.57.128-44.144,0-5.272,0-9.39.059-12.214V96.6c0,2.8,0,6.911.059,12.154,0,10.575.069,25.77.118,44.293v.237h-.227l-91.7.059H64.49v-.3h0V92.1h.257l66.153.138,18.839.069h6.21Z" transform="translate(-26.071 -62.894)"/>
      <path id="Trazado_1342" data-name="Trazado 1342" class="cls-1" d="M52,82.05a10.248,10.248,0,0,1,1.975,1.3c1.2.869,2.834,2.093,4.591,3.505s3.308,2.735,4.4,3.732a9.369,9.369,0,0,1,1.669,1.718c-.109.128-2.962-2.192-6.438-5.006A71.633,71.633,0,0,1,52,82.05Z" transform="translate(-25.913 -62.767)"/>
      <path id="Trazado_1343" data-name="Trazado 1343" class="cls-1" d="M170.408,82.28a56.421,56.421,0,0,1-6.161,5.243,56.17,56.17,0,0,1-6.517,4.789,57.868,57.868,0,0,1,6.191-5.243,56.611,56.611,0,0,1,6.487-4.789Z" transform="translate(-27.251 -62.77)"/>
      <path id="Trazado_1344" data-name="Trazado 1344" class="cls-3" d="M170.3,163.944,157.26,153.36" transform="translate(-27.245 -63.669)"/>
      <path id="Trazado_1345" data-name="Trazado 1345" class="cls-1" d="M157.26,153.36a63.964,63.964,0,0,1,6.7,5.065,60.36,60.36,0,0,1,6.339,5.519,62.341,62.341,0,0,1-6.7-5.065C159.965,155.967,157.151,153.488,157.26,153.36Z" transform="translate(-27.245 -63.669)"/>
      <path id="Trazado_1346" data-name="Trazado 1346" class="cls-1" d="M52,163.943a55.963,55.963,0,0,1,6.1-5.193,56.638,56.638,0,0,1,6.447-4.739,55.221,55.221,0,0,1-6.092,5.193A56.642,56.642,0,0,1,52,163.943Z" transform="translate(-25.913 -63.677)"/>
      <rect id="Rectángulo_446" data-name="Rectángulo 446" class="cls-1" width="20.32" height="57.691" transform="translate(57.406 68.779) rotate(-90)"/>
      <rect id="Rectángulo_447" data-name="Rectángulo 447" class="cls-1" width="62.578" height="90.708" transform="translate(355.052 0)"/>
      <rect id="Rectángulo_448" data-name="Rectángulo 448" class="cls-2" width="62.578" height="90.708" transform="translate(351.922 0)"/>
      <rect id="Rectángulo_449" data-name="Rectángulo 449" class="cls-3" width="47.028" height="71.06" transform="translate(359.693 9.824)"/>
      <path id="Trazado_1347" data-name="Trazado 1347" class="cls-1" d="M436.916,143.528V123.662c0-12.529-.049-30.282-.079-51.174l.158.158H389.879l.178-.168v71.089l-.138-.138,34.232.079h.089l-34.32.069h-.128V72.3h47.393v.158c0,20.942-.049,38.714-.069,51.273,0,6.25,0,11.206-.049,14.6v4.848A.782.782,0,0,0,436.916,143.528Z" transform="translate(-30.186 -62.644)"/>
      <path id="Trazado_1348" data-name="Trazado 1348" class="cls-1" d="M445.461,62.52a9.981,9.981,0,0,1-1.116,1.619c-.731.987-1.758,2.3-2.962,3.732s-2.281,2.7-3.1,3.594a11.021,11.021,0,0,1-1.343,1.4,11.2,11.2,0,0,1,1.195-1.56l3.011-3.653c1.135-1.392,2.172-2.646,3.011-3.663a11.558,11.558,0,0,1,1.3-1.471Z" transform="translate(-30.782 -62.52)"/>
      <path id="Trazado_1349" data-name="Trazado 1349" class="cls-3" d="M437.76,144.21a58.651,58.651,0,0,0,8.2,10.259" transform="translate(-30.793 -63.553)"/>
      <path id="Trazado_1350" data-name="Trazado 1350" class="cls-1" d="M445.965,154.469a9.422,9.422,0,0,1-1.432-1.3,43.13,43.13,0,0,1-3.1-3.485,46.584,46.584,0,0,1-2.715-3.791,9.565,9.565,0,0,1-.987-1.679,12.346,12.346,0,0,1,1.155,1.55c.691.987,1.659,2.291,2.784,3.7s2.212,2.656,3.011,3.535a13.547,13.547,0,0,1,1.284,1.471Z" transform="translate(-30.792 -63.553)"/>
      <path id="Trazado_1351" data-name="Trazado 1351" class="cls-3" d="M382,154.19l8.195-10.11" transform="translate(-30.087 -63.552)"/>
      <path id="Trazado_1352" data-name="Trazado 1352" class="cls-1" d="M390.2,144.08a60.662,60.662,0,0,1-3.949,5.164,62.454,62.454,0,0,1-4.236,4.937,62.213,62.213,0,0,1,3.949-5.164,62.592,62.592,0,0,1,4.236-4.937Z" transform="translate(-30.088 -63.552)"/>
      <path id="Trazado_1353" data-name="Trazado 1353" class="cls-1" d="M382,62.52a57.476,57.476,0,0,1,3.949,4.759,58.07,58.07,0,0,1,3.712,4.937,55.3,55.3,0,0,1-3.949-4.759A58.081,58.081,0,0,1,382,62.52Z" transform="translate(-30.087 -62.52)"/>
      <rect id="Rectángulo_450" data-name="Rectángulo 450" class="cls-1" width="15.748" height="44.707" transform="translate(376.33 24.249)"/>
    </g>
    <g id="freepik--Floor--inject-488" transform="translate(26.794 432.007)">
      <path id="Trazado_1354" data-name="Trazado 1354" class="cls-4" d="M456.426,437c0,.148-96.188.257-214.8.257S26.81,437.184,26.81,437s96.158-.257,214.818-.257S456.426,436.9,456.426,437Z" transform="translate(-26.81 -436.74)"/>
    </g>
    <g id="freepik--character-2--inject-488" transform="translate(255.544 134.336)">
      <path id="Trazado_1355" data-name="Trazado 1355" class="cls-4" d="M339.463,264a17.052,17.052,0,0,1-5.085,16.686c-3.011,2.666-6.911,4.206-9.676,7.139a15.018,15.018,0,0,0-3.011,14.494,19.165,19.165,0,0,0,10.1,11.2,22.423,22.423,0,0,0,20.339-.691c7.632-4.315,12.075-12.974,13.2-21.672s-.642-17.506-2.962-25.967" transform="translate(-259.28 -136.884)"/>
      <path id="Trazado_1356" data-name="Trazado 1356" class="cls-4" d="M437.19,419.134c7.9-1.293,15.3,1.116,23.124,2.844a13.825,13.825,0,0,0,6.408.346c3.387-.869,5.8-4.167,6.319-7.622a12.48,12.48,0,0,0-1.975-8.649,8.3,8.3,0,0,0-2.705-2.7,9.409,9.409,0,0,0-3.782-.987A26.865,26.865,0,0,0,450.658,405a41.052,41.052,0,0,0-11.552,8.373c-1.659,1.659-1.165,3.564-1.9,5.8" transform="translate(-260.75 -138.633)"/>
      <path id="Trazado_1357" data-name="Trazado 1357" class="cls-4" d="M274.989,289.769a61.216,61.216,0,0,1,.454-22.709,29.819,29.819,0,0,1,3.949-10.318,6.615,6.615,0,0,1,2.893-2.715,5.035,5.035,0,0,1,5.144,1.214,8.6,8.6,0,0,1,2.37,6.655,21.1,21.1,0,0,1-1.757,7.03c-3.051,7.8-7.9,14.277-13.082,20.833" transform="translate(-258.688 -136.755)"/>
      <path id="Trazado_1358" data-name="Trazado 1358" class="cls-5" d="M429.676,319.14c1.787,1.274,41.469,86.749,41.469,86.749h0a16.855,16.855,0,0,0-10.12-.987l-2.152.573a36.017,36.017,0,0,0-10.811,4.937l-11.325,7.662h0a3.238,3.238,0,0,1-1.609-2.5v-.326l-30.766-52.8Z" transform="translate(-260.335 -137.582)"/>
      <path id="Trazado_1359" data-name="Trazado 1359" class="cls-6" d="M278.847,181.32l10.584,60.159c3.406,8.1,43.127,57.148,43.127,57.148l-13.132,42.2L267.256,269.49a27.261,27.261,0,0,1-7.346-19.135l2.034-64.277Z" transform="translate(-258.508 -135.839)"/>
      <path id="Trazado_1360" data-name="Trazado 1360" class="cls-5" d="M335.939,290.58l27.241,2.064,23.756,3.683s41.676,10.95,41.676,15.511c0,1.521-11.374,37.746-17.772,59.448a150.878,150.878,0,0,0-3.831,16.035l21.6,47.827H326.1V391.3s-6.911-57.592-5.7-65.461S335.939,290.58,335.939,290.58Z" transform="translate(-259.271 -137.221)"/>
      <path id="Trazado_1361" data-name="Trazado 1361" class="cls-7" d="M266,156.441a120.593,120.593,0,0,1,1.876-18.266c.148-.859.5-1.9,1.363-1.975,1.066-.138,1.609,1.234,1.748,2.3a64.365,64.365,0,0,1-.9,21.83" transform="translate(-258.585 -135.268)"/>
      <path id="Trazado_1362" data-name="Trazado 1362" class="cls-5" d="M278.258,285.118c11.69-10.446,12.085-28.544,11.088-42.95a4.828,4.828,0,0,1,.454-3.09c1.116-1.59,3.831-.987,4.937.612s.987,3.7.928,5.638c.6-1.639,3.169-1.629,4.374-.365s1.412,3.169,1.55,4.937l.385,4.818L336.127,287.3s.938-2.962,3.446-1.254,4.127,5.312,4.127,5.312l-24.062,52.517-44.658-54.3A18.135,18.135,0,0,1,278.258,285.118Z" transform="translate(-258.699 -136.557)"/>
      <path id="Trazado_1363" data-name="Trazado 1363" class="cls-5" d="M325.126,322.53a45.28,45.28,0,0,0-7.84,15.274,27.843,27.843,0,0,0,.5,17,23.578,23.578,0,0,0,18.1,14.593" transform="translate(-259.22 -137.625)"/>
      <path id="Trazado_1364" data-name="Trazado 1364" class="cls-6" d="M437.173,419.177,435.88,436.6h25.306l5.924-30.855h0a31.872,31.872,0,0,0-21.4,6.7Z" transform="translate(-260.734 -138.677)"/>
      <path id="Trazado_1365" data-name="Trazado 1365" class="cls-4" d="M290.35,281.337a8.478,8.478,0,0,1,.553-1.392c.395-.869.928-2.152,1.53-3.752s1.244-3.535,1.846-5.707a68.236,68.236,0,0,0,1.491-7.2,66.929,66.929,0,0,0,.622-7.316c0-2.261,0-4.3-.138-6s-.267-3.081-.395-4.028a9.532,9.532,0,0,1-.138-1.491,7.485,7.485,0,0,1,.336,1.461,39.818,39.818,0,0,1,.563,4.028,55.135,55.135,0,0,1,.247,6.043,57.145,57.145,0,0,1-2.133,14.623,54.233,54.233,0,0,1-1.975,5.717c-.652,1.6-1.234,2.863-1.688,3.712A9.871,9.871,0,0,1,290.35,281.337Z" transform="translate(-258.893 -136.637)"/>
      <path id="Trazado_1366" data-name="Trazado 1366" class="cls-4" d="M297.88,272.291a24.422,24.422,0,0,1,1.106-2.488,36.849,36.849,0,0,0,2.962-12.648,24.259,24.259,0,0,1,.148-2.715,10.221,10.221,0,0,1,.217,2.725,30.076,30.076,0,0,1-2.962,12.786A9.775,9.775,0,0,1,297.88,272.291Z" transform="translate(-258.988 -136.763)"/>
      <path id="Trazado_1367" data-name="Trazado 1367" class="cls-4" d="M338.473,300.018c-.079-.049.336-.691.573-1.856a9.8,9.8,0,0,0-.257-4.571,34.281,34.281,0,0,0-1.708-4.364,7.464,7.464,0,0,1-.691-1.856,8.885,8.885,0,0,1,.987,1.7,22.618,22.618,0,0,1,1.886,4.384,8.955,8.955,0,0,1,.109,4.8A3.525,3.525,0,0,1,338.473,300.018Z" transform="translate(-259.475 -137.18)"/>
      <path id="Trazado_1368" data-name="Trazado 1368" class="cls-4" d="M332.28,370.094a2.035,2.035,0,0,1-.434-.247l-1.165-.77c-.987-.681-2.458-1.679-4.177-3.031a35.8,35.8,0,0,1-5.539-5.3,21.247,21.247,0,0,1-4.285-8.343,26.233,26.233,0,0,1-.573-9.38,37.035,37.035,0,0,1,1.688-7.474,48.843,48.843,0,0,1,1.886-4.808c.257-.553.454-.987.6-1.264a2.18,2.18,0,0,1,.247-.434,16.765,16.765,0,0,1-.662,1.777c-.444,1.126-1.086,2.765-1.728,4.838a39.208,39.208,0,0,0-1.56,7.415,26.4,26.4,0,0,0,.592,9.2,21.071,21.071,0,0,0,4.157,8.175,37.519,37.519,0,0,0,5.4,5.312c1.678,1.382,3.09,2.419,4.068,3.16l1.106.849C332.162,369.966,332.29,370.074,332.28,370.094Z" transform="translate(-259.216 -137.707)"/>
      <path id="Trazado_1369" data-name="Trazado 1369" class="cls-4" d="M388.7,380.233a1.683,1.683,0,0,1-.434.158c-.3.079-.721.227-1.284.336a26.063,26.063,0,0,1-4.838.583,27.182,27.182,0,0,1-25.74-16.281,25.559,25.559,0,0,1-1.55-4.621c-.138-.563-.188-.987-.247-1.3a2.061,2.061,0,0,1-.049-.464,13.467,13.467,0,0,1,.494,1.708,27.646,27.646,0,0,0,27.083,20.6,29.78,29.78,0,0,0,4.808-.415A16.925,16.925,0,0,1,388.7,380.233Z" transform="translate(-259.705 -138.081)"/>
      <path id="Trazado_1370" data-name="Trazado 1370" class="cls-4" d="M405.05,399.689c-.138,0,1.165-5.5,2.962-12.194s3.278-12.095,3.406-12.055-1.165,5.49-2.913,12.184S405.188,399.689,405.05,399.689Z" transform="translate(-260.344 -138.294)"/>
      <path id="Trazado_1371" data-name="Trazado 1371" class="cls-4" d="M418.778,387.835c-.118.069-4.088-6.418-8.886-14.494s-8.55-14.682-8.422-14.751,4.088,6.408,8.886,14.484S418.946,387.756,418.778,387.835Z" transform="translate(-260.299 -138.081)"/>
      <path id="Trazado_1372" data-name="Trazado 1372" class="cls-4" d="M457.12,404.4c0,.1-1.441.217-3.693.79a29.125,29.125,0,0,0-3.861,1.274,32.156,32.156,0,0,0-4.423,2.291,31.225,31.225,0,0,0-3.949,3.011,28.979,28.979,0,0,0-2.814,2.962c-1.481,1.787-2.212,3.041-2.3,2.962a4.389,4.389,0,0,1,.464-.908,18.345,18.345,0,0,1,1.55-2.31,26.431,26.431,0,0,1,2.774-3.061,28.578,28.578,0,0,1,4.009-3.1,29.1,29.1,0,0,1,4.522-2.291,25.107,25.107,0,0,1,3.949-1.195,17.888,17.888,0,0,1,2.745-.415A3.588,3.588,0,0,1,457.12,404.4Z" transform="translate(-260.736 -138.66)"/>
      <path id="Trazado_1373" data-name="Trazado 1373" class="cls-4" d="M461.983,398.377c0,.109-1.59-.089-4.127.128a26.384,26.384,0,0,0-17.3,8.669c-1.688,1.9-2.478,3.278-2.567,3.229a4.522,4.522,0,0,1,.523-.987,9.548,9.548,0,0,1,.711-1.1,17.331,17.331,0,0,1,1.056-1.382,23.991,23.991,0,0,1,3.219-3.179,27.647,27.647,0,0,1,4.66-3.021,27.219,27.219,0,0,1,5.194-1.915,23.832,23.832,0,0,1,4.483-.681,17.21,17.21,0,0,1,1.728,0,11.715,11.715,0,0,1,1.313.079,4.415,4.415,0,0,1,1.106.158Z" transform="translate(-260.76 -138.581)"/>
      <g id="Grupo_603" data-name="Grupo 603" class="cls-8" transform="translate(94.858 222.662)">
        <path id="Trazado_1374" data-name="Trazado 1374" d="M355.617,360.77c-2.32,4.4-.385,9.775,1.738,14.287,1.649,3.5,3.485,7.04,6.487,9.479a13.823,13.823,0,0,0,20.093-2.8,31.19,31.19,0,0,1-28.791-20.369" transform="translate(-354.563 -360.77)"/>
      </g>
      <g id="Grupo_604" data-name="Grupo 604" class="cls-8" transform="translate(140.407 220.509)">
        <path id="Trazado_1375" data-name="Trazado 1375" d="M401.529,358.59c-1.777,4.236-.434,10.032,1.422,14.228s3.831,8.886,2.34,13.24a5.568,5.568,0,0,0-.583,2.488c.1.849.987,1.669,1.787,1.274a1.975,1.975,0,0,0,.8-1.224q2.1-6.339,4.216-12.668" transform="translate(-400.696 -358.59)"/>
      </g>
      <path id="Trazado_1376" data-name="Trazado 1376" class="cls-9" d="M306.94,301.9a61.82,61.82,0,0,1,.987-7.9,61.383,61.383,0,0,1,1.511-7.78,58.438,58.438,0,0,1-.987,7.9,60.286,60.286,0,0,1-1.511,7.78Z" transform="translate(-259.103 -137.165)"/>
      <path id="Trazado_1377" data-name="Trazado 1377" class="cls-9" d="M296.3,299.763c-.128.079-1.827-2.291-4.177-5.016s-4.423-4.769-4.325-4.878a24.371,24.371,0,0,1,4.72,4.542A25.288,25.288,0,0,1,296.3,299.763Z" transform="translate(-258.861 -137.212)"/>
      <path id="Trazado_1378" data-name="Trazado 1378" class="cls-9" d="M305.332,274.13a8.511,8.511,0,0,1-1.116,1.777c-.75,1.057-1.846,2.468-3.12,3.949s-2.5,2.814-3.416,3.722a7.986,7.986,0,0,1-1.57,1.382c-.109-.1,2.054-2.439,4.591-5.44S305.213,274,305.332,274.13Z" transform="translate(-258.966 -137.012)"/>
      <path id="Trazado_1379" data-name="Trazado 1379" class="cls-9" d="M301.869,261.481c-.148.059-.711-1.195-1.8-2.449s-2.251-1.975-2.172-2.123a4.818,4.818,0,0,1,2.557,1.787A4.936,4.936,0,0,1,301.869,261.481Z" transform="translate(-258.988 -136.795)"/>
      <path id="Trazado_1380" data-name="Trazado 1380" class="cls-9" d="M292.733,269.3a7.088,7.088,0,0,1-2.567.662,6.812,6.812,0,0,1-2.646.158,13.823,13.823,0,0,1,5.213-.819Z" transform="translate(-258.857 -136.951)"/>
      <path id="Trazado_1381" data-name="Trazado 1381" class="cls-9" d="M315.785,280.3a26.961,26.961,0,0,0-.326-4.591,26.209,26.209,0,0,0-1.609-4.315,7.751,7.751,0,0,1,2.1,4.206A7.9,7.9,0,0,1,315.785,280.3Z" transform="translate(-259.19 -136.978)"/>
      <path id="Trazado_1382" data-name="Trazado 1382" class="cls-9" d="M328.008,293.538a23.123,23.123,0,0,0-7.158-7.218,12.48,12.48,0,0,1,7.158,7.218Z" transform="translate(-259.279 -137.167)"/>
      <path id="Trazado_1383" data-name="Trazado 1383" class="cls-9" d="M308.254,316.566a11.848,11.848,0,0,1-9.054-.306c.049-.148,1.975.474,4.512.543S308.215,316.418,308.254,316.566Z" transform="translate(-259.005 -137.545)"/>
      <path id="Trazado_1384" data-name="Trazado 1384" class="cls-9" d="M317.63,321.186c-.138-.059.632-2.33,1.274-5.213s.928-5.272,1.076-5.253a16.656,16.656,0,0,1-.573,5.361A16.843,16.843,0,0,1,317.63,321.186Z" transform="translate(-259.238 -137.475)"/>
      <path id="Trazado_1385" data-name="Trazado 1385" class="cls-9" d="M337.754,321.974a35.156,35.156,0,0,1-4.315-4.344,36.9,36.9,0,0,1-3.949-4.7,36.035,36.035,0,0,1,4.3,4.354A38.135,38.135,0,0,1,337.754,321.974Z" transform="translate(-259.388 -137.503)"/>
      <path id="Trazado_1386" data-name="Trazado 1386" class="cls-9" d="M347.2,345.38a18.867,18.867,0,0,1-3.219-2.962,19.3,19.3,0,0,1-2.844-3.317,18.869,18.869,0,0,1,3.219,2.962A17.893,17.893,0,0,1,347.2,345.38Z" transform="translate(-259.535 -137.834)"/>
      <path id="Trazado_1387" data-name="Trazado 1387" class="cls-9" d="M329.661,347.69a14.337,14.337,0,0,1-3.949,2.962,13.97,13.97,0,0,1-4.562,1.975c0-.138,1.975-.987,4.3-2.38S329.562,347.571,329.661,347.69Z" transform="translate(-259.283 -137.943)"/>
      <path id="Trazado_1388" data-name="Trazado 1388" class="cls-9" d="M337.83,369.769c-.148,0,.444-2.626.741-5.875s.207-5.924.355-5.924a18.966,18.966,0,0,1,.158,5.924A18.691,18.691,0,0,1,337.83,369.769Z" transform="translate(-259.493 -138.073)"/>
      <path id="Trazado_1389" data-name="Trazado 1389" class="cls-9" d="M368.045,351.741a16.6,16.6,0,0,1-4.275-3.762,16.184,16.184,0,0,1-3.15-4.729c.128-.089,1.481,2.054,3.535,4.394S368.144,351.613,368.045,351.741Z" transform="translate(-259.782 -137.887)"/>
      <path id="Trazado_1390" data-name="Trazado 1390" class="cls-9" d="M379.21,361.158c-.118-.089,1.382-2.143,3.061-4.779s2.913-4.848,3.041-4.779a21.177,21.177,0,0,1-2.616,5.055,20.6,20.6,0,0,1-3.485,4.5Z" transform="translate(-260.017 -137.992)"/>
      <path id="Trazado_1391" data-name="Trazado 1391" class="cls-9" d="M377.464,338.166a51.682,51.682,0,0,1-9.873-2.666,27.166,27.166,0,0,1,5.016,1.086,25.283,25.283,0,0,1,4.858,1.58Z" transform="translate(-259.87 -137.789)"/>
      <path id="Trazado_1392" data-name="Trazado 1392" class="cls-9" d="M369.518,378.7a20.938,20.938,0,0,1,0-4.68,22.121,22.121,0,0,1,.533-4.65,20.616,20.616,0,0,1,0,4.68,21.717,21.717,0,0,1-.533,4.65Z" transform="translate(-259.893 -138.217)"/>
      <path id="Trazado_1393" data-name="Trazado 1393" class="cls-9" d="M376.5,392.6a39.676,39.676,0,0,0,1.244-4.868,38.2,38.2,0,0,0,.079-5.026,11.848,11.848,0,0,1-1.323,9.874Z" transform="translate(-259.983 -138.386)"/>
      <path id="Trazado_1394" data-name="Trazado 1394" class="cls-9" d="M358.408,389.534a15.235,15.235,0,0,1,1.9-9.873c.138.059-.77,2.142-1.284,4.878S358.556,389.524,358.408,389.534Z" transform="translate(-259.752 -138.347)"/>
      <path id="Trazado_1395" data-name="Trazado 1395" class="cls-9" d="M341.792,396.617a55.318,55.318,0,0,1-4.641-3.6,57.357,57.357,0,0,1-4.571-3.683,23.972,23.972,0,0,1,4.937,3.278,25.088,25.088,0,0,1,4.275,4.009Z" transform="translate(-259.427 -138.47)"/>
      <path id="Trazado_1396" data-name="Trazado 1396" class="cls-9" d="M352.928,377.09a85.265,85.265,0,0,1-11.848,6.27,44.329,44.329,0,0,1,5.845-3.4,43.107,43.107,0,0,1,6-2.873Z" transform="translate(-259.535 -138.315)"/>
      <path id="Trazado_1397" data-name="Trazado 1397" class="cls-4" d="M387.151,420.721a4.476,4.476,0,0,1-.642.158c-.425.079-1.047.237-1.856.346a39.609,39.609,0,0,1-6.911.444,42.658,42.658,0,0,1-37.174-23.223,39.062,39.062,0,0,1-2.646-6.428c-.267-.78-.395-1.4-.513-1.817a3.12,3.12,0,0,1-.128-.652,3.611,3.611,0,0,1,.227.622c.148.4.306.987.6,1.787a44.728,44.728,0,0,0,8.59,14.721A43.364,43.364,0,0,0,377.752,421.3a44.912,44.912,0,0,0,6.911-.276c.82-.079,1.442-.207,1.866-.247a2.781,2.781,0,0,1,.622-.059Z" transform="translate(-259.487 -138.472)"/>
      <path id="Trazado_1398" data-name="Trazado 1398" class="cls-9" d="M357.908,415.831a7.671,7.671,0,0,1,.464-4.67,7.592,7.592,0,0,1,2.725-3.821,24.3,24.3,0,0,0-2.241,4.009A25.041,25.041,0,0,0,357.908,415.831Z" transform="translate(-259.745 -138.697)"/>
      <path id="Trazado_1399" data-name="Trazado 1399" class="cls-9" d="M349.626,412.5a17.248,17.248,0,0,0-2.567,2.449,18.047,18.047,0,0,0-1.619,3.15,6.053,6.053,0,0,1,4.186-5.6Z" transform="translate(-259.59 -138.763)"/>
      <path id="Trazado_1400" data-name="Trazado 1400" class="cls-9" d="M381.229,431.277a10.111,10.111,0,0,1-7.9-4.937A17.773,17.773,0,0,0,381.229,431.277Z" transform="translate(-259.943 -138.938)"/>
      <path id="Trazado_1401" data-name="Trazado 1401" class="cls-9" d="M386.181,403.64a7.78,7.78,0,0,1-5.361,6.319,21.085,21.085,0,0,0,3.2-2.715,20.412,20.412,0,0,0,2.162-3.6Z" transform="translate(-260.037 -138.651)"/>
      <path id="Trazado_1402" data-name="Trazado 1402" class="cls-9" d="M400.24,424.184c-.118-.1,1.185-1.748,2.389-4.018s1.846-4.275,1.975-4.226a15.186,15.186,0,0,1-4.384,8.244Z" transform="translate(-260.283 -138.806)"/>
      <path id="Trazado_1403" data-name="Trazado 1403" class="cls-9" d="M418.646,427c.059.148-1.738.859-3.545,2.35s-2.893,3.09-3.021,2.962a8.008,8.008,0,0,1,2.7-3.406A7.9,7.9,0,0,1,418.646,427Z" transform="translate(-260.433 -138.946)"/>
      <path id="Trazado_1404" data-name="Trazado 1404" class="cls-9" d="M404.546,403.182c-.158.049-.987-2.834-2.834-6.033s-3.821-5.45-3.693-5.549a6.159,6.159,0,0,1,1.412,1.382,24.515,24.515,0,0,1,4.66,8.274,6.535,6.535,0,0,1,.454,1.925Z" transform="translate(-260.255 -138.498)"/>
      <path id="Trazado_1405" data-name="Trazado 1405" class="cls-9" d="M407.269,373.56a45.85,45.85,0,0,1-9.478,2.182A46.255,46.255,0,0,1,407.269,373.56Z" transform="translate(-260.252 -138.27)"/>
      <path id="Trazado_1406" data-name="Trazado 1406" class="cls-9" d="M398.808,364.567a21.724,21.724,0,0,1-3.021-3.475,21.432,21.432,0,0,1-2.617-3.781,19.836,19.836,0,0,1,3.021,3.466,20.091,20.091,0,0,1,2.616,3.791Z" transform="translate(-260.194 -138.065)"/>
      <path id="Trazado_1407" data-name="Trazado 1407" class="cls-9" d="M419.882,359.292a23,23,0,0,1-9.242-2.192,40.24,40.24,0,0,1,4.631,1.076A39.042,39.042,0,0,1,419.882,359.292Z" transform="translate(-260.414 -138.062)"/>
      <path id="Trazado_1408" data-name="Trazado 1408" class="cls-9" d="M435,358.945a38.283,38.283,0,0,1,1.511-4.107,34.948,34.948,0,0,1,1.511-4.117,12.9,12.9,0,0,1-.987,4.3,12.577,12.577,0,0,1-2.034,3.93Z" transform="translate(-260.723 -137.981)"/>
      <path id="Trazado_1409" data-name="Trazado 1409" class="cls-9" d="M431.479,379.31a14.81,14.81,0,0,1-7.9-4.68c.1-.118,1.659,1.244,3.821,2.518S431.528,379.162,431.479,379.31Z" transform="translate(-260.578 -138.284)"/>
      <path id="Trazado_1410" data-name="Trazado 1410" class="cls-9" d="M441.32,378.6a35.786,35.786,0,0,1,1.086-5.865,35.177,35.177,0,0,1,1.56-5.737,68.746,68.746,0,0,1-2.676,11.611Z" transform="translate(-260.802 -138.187)"/>
      <path id="Trazado_1411" data-name="Trazado 1411" class="cls-9" d="M433.106,401.355a60.347,60.347,0,0,1-6.576-8.995,30.834,30.834,0,0,1,3.5,4.344,30.265,30.265,0,0,1,3.08,4.65Z" transform="translate(-260.616 -138.508)"/>
      <path id="Trazado_1412" data-name="Trazado 1412" class="cls-9" d="M447,392.687c-.138.069-1.037-1.718-2.458-3.712s-2.794-3.446-2.686-3.554a11.474,11.474,0,0,1,3.11,3.258A11.137,11.137,0,0,1,447,392.687Z" transform="translate(-260.809 -138.42)"/>
      <path id="Trazado_1413" data-name="Trazado 1413" class="cls-9" d="M460.009,390.724a49.057,49.057,0,0,1-3.159-4.137,51.4,51.4,0,0,1-3.16-4.127,26.756,26.756,0,0,1,6.319,8.264Z" transform="translate(-260.959 -138.383)"/>
      <path id="Trazado_1414" data-name="Trazado 1414" class="cls-9" d="M456.951,399.386a9.516,9.516,0,0,0-1.175-3.367,9.724,9.724,0,0,0-2.636-2.409c0-.059.454,0,1.076.306a5.332,5.332,0,0,1,1.975,1.817,5.42,5.42,0,0,1,.879,2.547C457.168,398.932,457.04,399.386,456.951,399.386Z" transform="translate(-260.952 -138.523)"/>
      <path id="Trazado_1415" data-name="Trazado 1415" class="cls-9" d="M446.845,411.257c-.079,0-.049-.267-.128-.612a2.024,2.024,0,0,0-.681-1.135,1.975,1.975,0,0,0-1.264-.385c-.355,0-.583.089-.622,0s.148-.267.573-.385a1.876,1.876,0,0,1,2.35,1.836C447.063,411.05,446.9,411.277,446.845,411.257Z" transform="translate(-260.838 -138.714)"/>
      <path id="Trazado_1416" data-name="Trazado 1416" class="cls-9" d="M342.736,430.1A14.228,14.228,0,0,1,334.6,422a24.052,24.052,0,0,0,8.136,8.136Z" transform="translate(-259.453 -138.883)"/>
      <path id="Trazado_1417" data-name="Trazado 1417" class="cls-6" d="M278.953,181.409c-1.59-15.018-4.463-29.147-5.243-43.868a2.666,2.666,0,0,0-.7-2.034,1.836,1.836,0,0,0-2.557.741,5.608,5.608,0,0,0-.494,2.962,67.95,67.95,0,0,1-3.949,22.976c-1.688,4.789-3.949,9.38-5.213,14.287s1.116,6.576,3.327,11.147" transform="translate(-258.515 -135.256)"/>
      <path id="Trazado_1418" data-name="Trazado 1418" class="cls-6" d="M264.131,187.809a13.754,13.754,0,0,1-5.223-13c.5-2.962,1.975-5.648,3.14-8.412s2.064-5.835,1.353-8.748a14.729,14.729,0,0,1-.79-3.347c0-1.145.74-2.429,1.886-2.478a2.8,2.8,0,0,1,2.143,1.293c1.925,2.38,3.466,9.33,2.5,14.524" transform="translate(-258.493 -135.465)"/>
      <path id="Trazado_1419" data-name="Trazado 1419" class="cls-7" d="M269.134,167.634s.1-.8.158-2.241a26.9,26.9,0,0,0-.5-6.062,21.95,21.95,0,0,0-1.185-4.019,8.135,8.135,0,0,0-1.106-1.975,2.814,2.814,0,0,0-1.846-1.254A1.777,1.777,0,0,0,263,153.466,4.186,4.186,0,0,0,263.16,156a13.149,13.149,0,0,1,.691,2.794,11.187,11.187,0,0,1-.109,2.962c-.691,4.009-2.824,7.247-3.949,10.456a14.168,14.168,0,0,0-.879,4.68,13.7,13.7,0,0,0,.612,4.107,14.09,14.09,0,0,0,2.962,5.243c.987,1.056,1.629,1.52,1.6,1.57a2.606,2.606,0,0,1-.494-.326,10.991,10.991,0,0,1-1.254-1.116,13.506,13.506,0,0,1-3.16-5.263,13.665,13.665,0,0,1-.691-4.216,14.476,14.476,0,0,1,.859-4.838c1.086-3.278,3.189-6.516,3.841-10.377a10.228,10.228,0,0,0,.109-2.844,12.532,12.532,0,0,0-.662-2.715,4.63,4.63,0,0,1-.138-2.834,2.744,2.744,0,0,1,.78-1.214,1.817,1.817,0,0,1,1.363-.484,3.229,3.229,0,0,1,2.251,1.392,8.632,8.632,0,0,1,1.145,2.133,20.734,20.734,0,0,1,1.145,4.107,24.386,24.386,0,0,1,.346,6.141,12.28,12.28,0,0,1-.217,1.659,2.241,2.241,0,0,1-.178.612Z" transform="translate(-258.49 -135.462)"/>
      <path id="Trazado_1420" data-name="Trazado 1420" class="cls-4" d="M399.914,248.84a6.813,6.813,0,0,0,6.092,5.272,8.551,8.551,0,0,0,7.435-3.653,11.523,11.523,0,0,0,1.846-8.254c-.563-4.157-3.327-8.156-7.336-9.39s-8.995.987-10.1,5.016l-4.621,6.447Z" transform="translate(-260.194 -136.486)"/>
      <path id="Trazado_1421" data-name="Trazado 1421" class="cls-6" d="M393.742,235.833a26.886,26.886,0,0,0-24.16-30.114c-14.327-1.363-27.073,9.311-29.216,23.548-1.886,12.48-3.505,25.079-3.446,29.621.178,13.823,8.244,19.174,11.522,20.734a18.114,18.114,0,0,0,3.633.9h0a.089.089,0,0,1,.069.109l-3.061,15.8c-1.392,10.377,4.4,19.638,14.761,21.149s18.523-6.457,20.112-16.844Z" transform="translate(-259.482 -136.146)"/>
      <path id="Trazado_1422" data-name="Trazado 1422" class="cls-4" d="M342.82,237.718c.227.326,2.044-.652,4.384-.306s3.87,1.767,4.167,1.511c.148-.109-.059-.652-.721-1.3a6.043,6.043,0,0,0-3.288-1.57,5.845,5.845,0,0,0-3.545.6C343,237.1,342.7,237.57,342.82,237.718Z" transform="translate(-259.556 -136.53)"/>
      <path id="Trazado_1423" data-name="Trazado 1423" class="cls-4" d="M363.86,242.278c.227.326,2.054-.652,4.384-.306s3.88,1.767,4.177,1.511c.138-.109-.059-.652-.731-1.313a6.033,6.033,0,0,0-3.278-1.56,5.835,5.835,0,0,0-3.545.6C364.067,241.656,363.751,242.13,363.86,242.278Z" transform="translate(-259.823 -136.588)"/>
      <path id="Trazado_1424" data-name="Trazado 1424" class="cls-4" d="M355.607,253.233A15.726,15.726,0,0,0,351.914,252c-.592-.148-1.135-.355-1.175-.77a3.071,3.071,0,0,1,.652-1.708l2.429-4.285c3.387-6.112,5.924-11.167,5.687-11.305s-3.2,4.71-6.586,10.861l-2.36,4.315a3.6,3.6,0,0,0-.652,2.3,1.55,1.55,0,0,0,.859.987,4.264,4.264,0,0,0,.987.286,15.37,15.37,0,0,0,3.851.553Z" transform="translate(-259.646 -136.504)"/>
      <path id="Trazado_1425" data-name="Trazado 1425" class="cls-7" d="M352.349,281.541s8.886,2.054,21.179-3.081c0,0-5.292,11.4-22,7.346Z" transform="translate(-259.667 -137.067)"/>
      <path id="Trazado_1426" data-name="Trazado 1426" class="cls-7" d="M355.845,259.316a4.255,4.255,0,0,1,3.949-.987,3.95,3.95,0,0,1,2.449,1.817,2.439,2.439,0,0,1-.227,2.8,2.824,2.824,0,0,1-3.169.326,8.769,8.769,0,0,1-2.725-2.212,2.5,2.5,0,0,1-.573-.79.77.77,0,0,1,.138-.869" transform="translate(-259.717 -136.811)"/>
      <path id="Trazado_1427" data-name="Trazado 1427" class="cls-4" d="M362.293,256.13c-.375-.079-.75,2.458-3.179,3.949s-5.095.81-5.164,1.165c-.059.158.533.583,1.669.78a6.4,6.4,0,0,0,4.285-.829,5.568,5.568,0,0,0,2.508-3.327C362.658,256.811,362.471,256.14,362.293,256.13Z" transform="translate(-259.697 -136.785)"/>
      <path id="Trazado_1428" data-name="Trazado 1428" class="cls-4" d="M365.49,234.585c.138.671,2.518.711,5.2,1.442s4.808,1.8,5.253,1.284c.2-.247-.1-.9-.9-1.649a9.4,9.4,0,0,0-7.968-2.073C365.994,233.844,365.441,234.269,365.49,234.585Z" transform="translate(-259.843 -136.497)"/>
      <path id="Trazado_1429" data-name="Trazado 1429" class="cls-4" d="M345.21,230.426c.326.592,2.024.276,3.949.533s3.525.869,3.949.375c.207-.247,0-.819-.622-1.422a5.766,5.766,0,0,0-6.4-.731C345.367,229.626,345.061,230.139,345.21,230.426Z" transform="translate(-259.586 -136.436)"/>
      <path id="Trazado_1430" data-name="Trazado 1430" class="cls-4" d="M337.662,226.073c2.853,4.354,11.917,1.659,17.387-1.333a13.013,13.013,0,0,0,17.772-3.673c3.13,3.949,9.5,2.666,11.848-1.827s.987-10.683-2.172-14.613-7.84-5.924-12.441-6.763c-10.91-1.975-22.788,2.212-29.314,12.075-3.011,4.552-4.818,10.683-3.031,16.133" transform="translate(-259.483 -136.042)"/>
      <path id="Trazado_1431" data-name="Trazado 1431" class="cls-10" d="M367.855,199.434c0,.2-2.577-.3-6.625.375a24.092,24.092,0,0,0-13.7,7.375,29.857,29.857,0,0,0-6.536,14.277,39.493,39.493,0,0,0-.346,6.615,6.049,6.049,0,0,1-.365-1.777,20.5,20.5,0,0,1,.079-4.937,28.761,28.761,0,0,1,6.536-14.81,23.7,23.7,0,0,1,14.3-7.415,21.021,21.021,0,0,1,4.937-.079,5.8,5.8,0,0,1,1.728.375Z" transform="translate(-259.523 -136.062)"/>
      <path id="Trazado_1432" data-name="Trazado 1432" class="cls-10" d="M353.267,219.751a4.482,4.482,0,0,1-.217-1.55,15.312,15.312,0,0,1,.444-4.255,17.525,17.525,0,0,1,22-12.954,16.028,16.028,0,0,1,3.949,1.679,4.285,4.285,0,0,1,1.254.987,32.269,32.269,0,0,0-5.351-1.975,17.486,17.486,0,0,0-21.228,12.5C353.149,217.48,353.455,219.751,353.267,219.751Z" transform="translate(-259.686 -136.078)"/>
      <path id="Trazado_1433" data-name="Trazado 1433" class="cls-4" d="M379.756,215.078a51.6,51.6,0,0,0-1.836,11.848,17.446,17.446,0,0,0,3.545,11.2c3.811,4.591,10.17,5.993,16.035,7.109a46.406,46.406,0,0,0,2.735-24.684c-.671-4.038-1.975-8.156-4.818-11.1a13.418,13.418,0,0,0-16.291-1.975" transform="translate(-260.001 -136.145)"/>
      <path id="Trazado_1434" data-name="Trazado 1434" class="cls-4" d="M382.993,234.56c-1.54,3.337-1.432,7.2-.9,10.861s1.461,7.247,1.422,10.92-1.2,7.573-4.088,9.873a17.375,17.375,0,0,0-2.449,1.975,2.557,2.557,0,0,0-.513,2.893c.553.889,2.221.869,2.458-.148l-.148.257a1.629,1.629,0,0,0,1.382,2.458,7.4,7.4,0,0,0,5.272-2.587c1.886-2.182,2.636-5.114,3.13-7.9,1.521-8.718,1.224-17.772,3.633-26.273" transform="translate(-259.979 -136.512)"/>
      <path id="Trazado_1435" data-name="Trazado 1435" class="cls-5" d="M349.058,292.545a21.238,21.238,0,0,0,28.367,15.067c5.115-1.975,9.242-5.825,13.221-9.587a30.973,30.973,0,0,1-28.7,36c-6.546.395-13.576-1.6-17.693-6.7a19.849,19.849,0,0,1-3.949-12.836,46.76,46.76,0,0,1,2.587-13.428c1.165-3.732,3.011-7.9,6.783-8.936" transform="translate(-259.525 -137.24)"/>
      <path id="Trazado_1436" data-name="Trazado 1436" class="cls-4" d="M396.4,245.931c3.949,2.123,6.062,6.566,6.823,10.95s.375,8.886.563,13.319,1.037,9.093,3.851,12.539c2.962,3.673,7.652,5.411,11.848,7.652,9.2,4.937,16.785,13.359,19.55,23.45s.257,21.722-7.3,28.979c-6.911,6.576-16.884,8.886-26.4,8.886-6.783,0-14.238-1.461-18.473-6.763s-3.949-12.737-2.468-19.273,4.2-12.885,4.3-19.589a34.9,34.9,0,0,1-5.213,11.592c-.7.987-1.9,2.073-2.962,1.5s-.74-2.419-.188-3.653c8.175-18.2,5.332-54.877,10.18-74.97" transform="translate(-260.025 -136.588)"/>
      <path id="Trazado_1437" data-name="Trazado 1437" class="cls-6" d="M389.766,243.908c.247-.079,9.795-1.886,8.56,7.553s-10.446,6.26-10.426,5.993S389.766,243.908,389.766,243.908Z" transform="translate(-260.127 -136.628)"/>
      <path id="Trazado_1438" data-name="Trazado 1438" class="cls-7" d="M391.29,254.3a3.709,3.709,0,0,0,.415.3,1.668,1.668,0,0,0,1.224.188c1.047-.237,2.093-1.718,2.36-3.406a5.6,5.6,0,0,0-.158-2.419,1.906,1.906,0,0,0-1.076-1.422.849.849,0,0,0-.987.326c-.158.247-.128.444-.178.454s-.178-.188-.059-.563a1.056,1.056,0,0,1,.454-.543,1.244,1.244,0,0,1,.987-.128,2.34,2.34,0,0,1,1.53,1.688,5.708,5.708,0,0,1,.227,2.705c-.306,1.9-1.511,3.545-2.962,3.762a1.757,1.757,0,0,1-1.471-.444C391.28,254.524,391.26,254.307,391.29,254.3Z" transform="translate(-260.17 -136.67)"/>
      <path id="Trazado_1439" data-name="Trazado 1439" class="cls-4" d="M339.29,312.879a23.318,23.318,0,0,1,1.6-2.913,39.307,39.307,0,0,0,3.406-7.2,17.772,17.772,0,0,0,.849-7.82,30.53,30.53,0,0,0-.75-3.209,2.666,2.666,0,0,1,.425.8,10.484,10.484,0,0,1,.691,2.36,16.785,16.785,0,0,1-.721,8.027,33.151,33.151,0,0,1-3.584,7.227c-.553.869-.987,1.56-1.353,2.024A4.993,4.993,0,0,1,339.29,312.879Z" transform="translate(-259.512 -137.235)"/>
      <path id="Trazado_1440" data-name="Trazado 1440" class="cls-9" d="M344.122,302.091c-.138,0-.4-.81-1.254-1.372s-1.7-.563-1.718-.711.207-.168.592-.178a2.478,2.478,0,0,1,1.422.464,2.6,2.6,0,0,1,.928,1.175C344.221,301.834,344.191,302.071,344.122,302.091Z" transform="translate(-259.536 -137.338)"/>
      <path id="Trazado_1441" data-name="Trazado 1441" class="cls-9" d="M350.27,302.053a18.586,18.586,0,0,0-2.429-2.281,16.331,16.331,0,0,0-3.061-1.323,4.433,4.433,0,0,1,3.337.9,4.581,4.581,0,0,1,2.152,2.705Z" transform="translate(-259.581 -137.32)"/>
      <path id="Trazado_1442" data-name="Trazado 1442" class="cls-9" d="M354.22,322.288a16.4,16.4,0,0,1,.573-4.028,16.222,16.222,0,0,1,1.076-3.949,16.452,16.452,0,0,1-.573,4.038A16.22,16.22,0,0,1,354.22,322.288Z" transform="translate(-259.701 -137.521)"/>
      <path id="Trazado_1443" data-name="Trazado 1443" class="cls-9" d="M369.818,325.341a36.038,36.038,0,0,1,.267-8.5,34.689,34.689,0,0,1-.267,8.5Z" transform="translate(-259.897 -137.553)"/>
    </g>
    <g id="freepik--character-1--inject-488" transform="translate(35.76 120.308)">
      <path id="Trazado_1444" data-name="Trazado 1444" class="cls-11" d="M51.115,369.89l-15.225,66.3,32.2.1,14.87-58.3Z" transform="translate(-35.89 -124.196)"/>
      <path id="Trazado_1445" data-name="Trazado 1445" class="cls-4" d="M211.048,287.058c-3.061-4.1-6.576-8.037-8.185-12.895-.78-2.35-1.086-4.838-1.915-7.168s-2.34-4.6-4.65-5.48-4.068,0-5.569,1.659L179.68,295.49l6.368,24.822c6.359-1.432,14.317-3.13,20.26-5.806s9.873-6.961,10.288-13.467C216.883,295.935,214.109,291.166,211.048,287.058Z" transform="translate(-37.709 -122.821)"/>
      <path id="Trazado_1446" data-name="Trazado 1446" class="cls-5" d="M108.8,281.578S70.395,298.294,65.6,305.838,45,367.162,45,367.162L85.481,379.01,84.79,435h99.229l-.82-98.735-12.441-54.561s-21.909-1.412-23.943-2.409S108.8,281.578,108.8,281.578Z" transform="translate(-36.005 -123.048)"/>
      <path id="Trazado_1447" data-name="Trazado 1447" class="cls-11" d="M247.853,142.881c.316-2.261-1.274-4.749-.128-6.734a5.608,5.608,0,0,1,3.071-2.083,4.937,4.937,0,0,1,1.9-.444,1.669,1.669,0,0,1,1.55.987,2.113,2.113,0,0,1-.76,2.044,6.023,6.023,0,0,0-1.491,1.718,10.308,10.308,0,0,0,.365,4.858,85.832,85.832,0,0,1,3.268,10.565" transform="translate(-38.564 -121.208)"/>
      <path id="Trazado_1448" data-name="Trazado 1448" class="cls-11" d="M239.65,143.519c.138-3.426,2.962-16.923,3.061-20.349,2.32.711,3.663,3.179,4.1,5.569s.207,4.848.622,7.237c.553,3.209,2.222,6.1,3.9,8.886s3.436,5.618,4.2,8.778,3.624,11.374,1.392,13.744" transform="translate(-38.467 -121.076)"/>
      <path id="Trazado_1449" data-name="Trazado 1449" class="cls-11" d="M238.157,167.18l-13.734,65.244c-.484,2.962-52.053,47.936-52.053,47.936l10.18,40.669,67.14-65.688a27.29,27.29,0,0,0,7.356-19.145L255.9,174.98Z" transform="translate(-37.616 -121.632)"/>
      <path id="Trazado_1450" data-name="Trazado 1450" class="cls-11" d="M236.612,143.907l2.35,22.709,17.772,7.82s.217-1.609.987-9.479c.839-8.669-8.481-12.391-12.638-18.76-1.777-2.735-1.313-7.77-2.686-14.01-.158-.721-1.145-5.085-1.678-7.425a5.272,5.272,0,0,0-2.133-3.209c-.81-.533-1.718-.8-2.38,0S236.612,143.907,236.612,143.907Z" transform="translate(-38.421 -121.049)"/>
      <path id="Trazado_1451" data-name="Trazado 1451" class="cls-11" d="M247.69,170.63c1.975-1.708,2.449-4.769,1.708-7.306a18.631,18.631,0,0,0-4.2-6.674,26.481,26.481,0,0,1-4.631-6.418c-.75-1.7-1.106-3.574-1.975-5.243s-2.34-3.2-4.2-3.268c1.491,9.39,1.451,14.81,4.5,25.1" transform="translate(-38.401 -121.31)"/>
      <path id="Trazado_1452" data-name="Trazado 1452" class="cls-12" d="M236.241,152.445s-.069-.257-.178-.75-.3-1.313-.474-2.152c-.425-1.975-.987-4.492-1.57-7.385l-.059-.276h.286a4.6,4.6,0,0,1,3.317,1.244,9.962,9.962,0,0,1,2.784,4.749,24.623,24.623,0,0,0,1.55,4.1,12.636,12.636,0,0,0,1.738,2.4,3.584,3.584,0,0,1,.592.938,7.28,7.28,0,0,1-.75-.81,11.217,11.217,0,0,1-1.9-2.35,23.283,23.283,0,0,1-1.7-4.137,9.765,9.765,0,0,0-2.666-4.522,4.2,4.2,0,0,0-2.962-1.135l.237-.3C235.688,148,236.458,152.454,236.241,152.445Z" transform="translate(-38.395 -121.312)"/>
      <path id="Trazado_1453" data-name="Trazado 1453" class="cls-12" d="M244.324,146.492a85.075,85.075,0,0,1-1.639-9.261,86.059,86.059,0,0,1-1.135-9.34,82.788,82.788,0,0,1,1.639,9.271A86.065,86.065,0,0,1,244.324,146.492Z" transform="translate(-38.491 -121.135)"/>
      <path id="Trazado_1454" data-name="Trazado 1454" class="cls-12" d="M250.053,147.342a1.107,1.107,0,0,1,.128.346h-.148a53.158,53.158,0,0,1-1.8-6.457c-.425-1.906-.731-3.643-.918-4.937a7.651,7.651,0,0,1-.178-2.064c.148,0,.75,3.071,1.6,6.911.681,3.071,1.313,5.658,1.442,6.526h-.148C250.023,147.46,250.023,147.342,250.053,147.342Z" transform="translate(-38.562 -121.216)"/>
      <path id="Trazado_1455" data-name="Trazado 1455" class="cls-12" d="M253.512,160.115c-.079,0-.434-.513-1.145-1.274a11.108,11.108,0,0,0-7.158-3.456,11.842,11.842,0,0,1-1.708-.109,3.95,3.95,0,0,1,1.718-.257,9.716,9.716,0,0,1,7.415,3.584,3.87,3.87,0,0,1,.879,1.511Z" transform="translate(-38.516 -121.478)"/>
      <path id="Trazado_1456" data-name="Trazado 1456" class="cls-12" d="M240.571,168.752a13.441,13.441,0,0,1-1.175-2.686,59.543,59.543,0,0,1-2.034-6.773,58.649,58.649,0,0,1-1.244-6.911,14.339,14.339,0,0,1-.178-2.962,19.953,19.953,0,0,1,.533,2.873c.3,1.767.75,4.216,1.382,6.911s1.343,5.055,1.886,6.773a20.815,20.815,0,0,1,.829,2.774Z" transform="translate(-38.42 -121.408)"/>
      <path id="Trazado_1457" data-name="Trazado 1457" class="cls-5" d="M160.16,282.75a6.26,6.26,0,0,1,8.412-1.975c7.247-5.924,14.662-11.671,21.909-17.565-2.37,11.848-3.949,28.367,1.353,39.208,0,0,6.684,12.421,17.328,10.525l-9.5,9.3-14.978,13.892" transform="translate(-37.462 -122.847)"/>
      <path id="Trazado_1458" data-name="Trazado 1458" class="cls-4" d="M157.78,288.5a8,8,0,0,1,1.392-4.453,8.087,8.087,0,0,1,3.318-3.3A17.308,17.308,0,0,0,157.78,288.5Z" transform="translate(-37.432 -123.069)"/>
      <path id="Trazado_1459" data-name="Trazado 1459" class="cls-4" d="M165.695,295.812a6.091,6.091,0,0,1-.829-2.152,13.922,13.922,0,0,1,1.906-10.772,6.18,6.18,0,0,1,1.52-1.748c.069.059-.5.731-1.2,1.975a15.7,15.7,0,0,0-1.866,5.085,15.956,15.956,0,0,0,0,5.421A21.714,21.714,0,0,1,165.695,295.812Z" transform="translate(-37.517 -123.074)"/>
      <path id="Trazado_1460" data-name="Trazado 1460" class="cls-9" d="M202.143,321.053a8.02,8.02,0,0,1-2.36.987,13.121,13.121,0,0,1-6.911-.207,16.646,16.646,0,0,1-8.313-5.924,27.981,27.981,0,0,1-4.937-11.562,87.234,87.234,0,0,1-1.185-22.828c.227-2.962.553-5.272.829-6.911.128-.81.247-1.432.336-1.856a3.247,3.247,0,0,1,.158-.642,2.765,2.765,0,0,1-.059.661l-.237,1.866c-.207,1.619-.484,3.949-.662,6.911a91.518,91.518,0,0,0,1.323,22.709,27.883,27.883,0,0,0,4.789,11.285,16.312,16.312,0,0,0,8.047,5.924,13.291,13.291,0,0,0,6.763.365A18.969,18.969,0,0,0,202.143,321.053Z" transform="translate(-37.69 -122.96)"/>
      <path id="Trazado_1461" data-name="Trazado 1461" class="cls-4" d="M86.187,396.367c-.138,0-.257-14.04-.257-31.348s.118-31.348.257-31.348.257,14.03.257,31.348S86.335,396.367,86.187,396.367Z" transform="translate(-36.523 -123.738)"/>
      <path id="Trazado_1462" data-name="Trazado 1462" class="cls-4" d="M85.209,322.463c-.109,0-.079-1.4-.563-3.584a19.865,19.865,0,0,0-1.234-3.712,22.3,22.3,0,0,0-2.439-4.107,22.559,22.559,0,0,0-3.327-3.436,20.414,20.414,0,0,0-3.248-2.172c-1.975-1.037-3.347-1.382-3.318-1.481a3.456,3.456,0,0,1,.987.2,7.454,7.454,0,0,1,1.1.365,10.781,10.781,0,0,1,1.412.6,18.115,18.115,0,0,1,3.337,2.113,22.175,22.175,0,0,1,3.426,3.5,20.992,20.992,0,0,1,2.468,4.236A18.268,18.268,0,0,1,85,318.81a12.063,12.063,0,0,1,.207,1.521,8.429,8.429,0,0,1,.059,1.155A4.256,4.256,0,0,1,85.209,322.463Z" transform="translate(-36.335 -123.363)"/>
      <path id="Trazado_1463" data-name="Trazado 1463" class="cls-4" d="M153.242,281.17a4.592,4.592,0,0,1,.168.839,20.6,20.6,0,0,1,.257,2.419,25.177,25.177,0,0,1-1.234,8.837,25.928,25.928,0,0,1-7.158,11.078,25.483,25.483,0,0,1-30.42,2.33,25.908,25.908,0,0,1-8.728-9.873,25.266,25.266,0,0,1-2.537-8.55,22.366,22.366,0,0,1-.109-2.429,5.054,5.054,0,0,1,0-.849,5.051,5.051,0,0,1,.069.839,24,24,0,0,0,.2,2.409,26.085,26.085,0,0,0,2.666,8.412,25.77,25.77,0,0,0,8.659,9.666,25.177,25.177,0,0,0,29.838-2.241,25.76,25.76,0,0,0,7.129-10.861,26.432,26.432,0,0,0,1.382-8.718,16.819,16.819,0,0,0-.168-2.409A2.6,2.6,0,0,1,153.242,281.17Z" transform="translate(-36.745 -123.074)"/>
      <path id="Trazado_1464" data-name="Trazado 1464" class="cls-9" d="M84.865,367.776c0,.138-8.2-2.439-18.217-5.746s-18.1-6.1-18.049-6.24,8.2,2.439,18.217,5.746S84.9,367.638,84.865,367.776Z" transform="translate(-36.051 -124.018)"/>
      <path id="Trazado_1465" data-name="Trazado 1465" class="cls-9" d="M182.754,354.049c0,.148-21.771.355-48.627.464s-48.637.089-48.637,0,21.771-.355,48.637-.464S182.754,353.911,182.754,354.049Z" transform="translate(-36.517 -123.995)"/>
      <path id="Trazado_1466" data-name="Trazado 1466" class="cls-9" d="M183.248,362.757c0,.138-21.89.257-48.874.257s-48.884-.118-48.884-.257,21.88-.257,48.884-.257S183.248,362.609,183.248,362.757Z" transform="translate(-36.517 -124.103)"/>
      <path id="Trazado_1467" data-name="Trazado 1467" class="cls-4" d="M170.183,373.34a4.49,4.49,0,0,1-.276.8c-.217.553-.513,1.3-.879,2.251l-.652,1.619c-.257.592-.563,1.214-.879,1.9-.652,1.343-1.323,2.9-2.261,4.542l-1.422,2.587c-.494.9-1.086,1.787-1.659,2.735-1.126,1.906-2.508,3.821-3.949,5.865a106.475,106.475,0,0,1-10.565,12.243,106.108,106.108,0,0,1-12.451,10.328c-2.073,1.382-4.019,2.735-5.924,3.821-.987.553-1.856,1.126-2.765,1.609L123.857,425c-1.649.9-3.229,1.55-4.581,2.172-.681.3-1.313.592-1.906.839l-1.639.622-2.261.839a4.33,4.33,0,0,1-.81.257,5.127,5.127,0,0,1,.77-.355l2.231-.928,1.609-.661c.592-.257,1.214-.563,1.886-.879,1.343-.642,2.9-1.313,4.532-2.231l2.6-1.382c.9-.494,1.8-1.076,2.745-1.629,1.906-1.1,3.831-2.458,5.924-3.841a99.987,99.987,0,0,0,22.907-22.462c1.432-2.024,2.824-3.949,3.949-5.815.583-.938,1.185-1.817,1.688-2.705l1.432-2.567c.987-1.609,1.649-3.16,2.32-4.492.326-.671.652-1.284.918-1.866s.484-1.116.691-1.6c.4-.928.731-1.659.987-2.212A8.12,8.12,0,0,1,170.183,373.34Z" transform="translate(-36.861 -124.24)"/>
      <g id="Grupo_605" data-name="Grupo 605" class="cls-8" transform="translate(80.273 257.65)">
        <path id="Trazado_1468" data-name="Trazado 1468" d="M166.232,382c-6.635,8.076-13.586,13.931-23.331,17.7-4.67,1.8-9.558,3.031-14.08,5.174s-8.787,5.371-10.861,9.943c-1.57,3.535-.81,8.886,2.962,9.656a8.007,8.007,0,0,0,4.295-.662c19.3-7,31.99-24.684,40.955-41.814" transform="translate(-117.191 -382)"/>
      </g>
      <path id="Trazado_1469" data-name="Trazado 1469" class="cls-4" d="M96.705,204.08c-4.167,3.268-4.443,9.38-4.236,14.672s.267,11.315-3.594,14.968c-3.16,3.011-8.689,4.127-9.6,8.4a4.937,4.937,0,0,0,7.978,4.887c-1.343,3.347-.731,7.632,2.123,9.874s7.84,1.175,8.886-2.261a4.364,4.364,0,1,0,8.491,1.975" transform="translate(-36.437 -122.099)"/>
      <path id="Trazado_1470" data-name="Trazado 1470" class="cls-4" d="M157.774,242.269a5.263,5.263,0,1,0,9.874-3.574c-.82-2.054-2.962-3.6-3.011-5.806-.128-2.666,2.676-4.433,5.134-5.47s5.342-2.419,5.727-5.055-1.817-4.66-3.653-6.467-3.6-4.552-2.31-6.783c.662-1.135,1.975-1.748,2.824-2.745,1.915-2.212,1.145-5.924-1.066-7.81s-5.381-2.32-8.274-1.975-5.658,1.432-8.491,2.133a34.942,34.942,0,0,1-27.646-4.937" transform="translate(-37.041 -121.969)"/>
      <path id="Trazado_1471" data-name="Trazado 1471" class="cls-11" d="M99.794,224.28l10.16,58.886a18.947,18.947,0,0,0,22.008,15.462h0A18.957,18.957,0,0,0,147.5,278.288c-.464-5.223-.859-9.548-.859-9.548s14.751-3.791,13.477-18.76c-.622-7.247-3.1-22.067-5.509-35.456A28.021,28.021,0,0,0,124.3,191.608l-1.442.138A27.833,27.833,0,0,0,99.794,224.28Z" transform="translate(-36.693 -121.94)"/>
      <path id="Trazado_1472" data-name="Trazado 1472" class="cls-4" d="M152.076,224.588a2.133,2.133,0,0,1-1.846,2.36,2.044,2.044,0,0,1-2.389-1.708,2.133,2.133,0,0,1,1.846-2.36,2.044,2.044,0,0,1,2.389,1.708Z" transform="translate(-37.306 -122.336)"/>
      <path id="Trazado_1473" data-name="Trazado 1473" class="cls-4" d="M152.682,222.516c-.237.3-1.975-.741-4.275-.513s-3.88,1.55-4.157,1.293c-.128-.118.089-.642.77-1.254a5.865,5.865,0,0,1,3.3-1.372,5.687,5.687,0,0,1,3.436.75C152.514,221.894,152.8,222.378,152.682,222.516Z" transform="translate(-37.26 -122.309)"/>
      <path id="Trazado_1474" data-name="Trazado 1474" class="cls-4" d="M129.275,227.258a2.152,2.152,0,0,1-1.856,2.35,2.054,2.054,0,0,1-2.389-1.708,2.152,2.152,0,0,1,1.846-2.36,2.063,2.063,0,0,1,2.4,1.718Z" transform="translate(-37.017 -122.37)"/>
      <path id="Trazado_1475" data-name="Trazado 1475" class="cls-4" d="M129.812,225.176c-.237.306-1.975-.731-4.275-.5s-3.87,1.55-4.157,1.293c-.128-.118.089-.642.77-1.254a5.924,5.924,0,0,1,3.3-1.372,5.618,5.618,0,0,1,3.436.75C129.644,224.564,129.891,225.048,129.812,225.176Z" transform="translate(-36.971 -122.342)"/>
      <path id="Trazado_1476" data-name="Trazado 1476" class="cls-4" d="M140.032,241.426a15.083,15.083,0,0,1,3.663-1.047c.583-.118,1.135-.286,1.195-.7a3.1,3.1,0,0,0-.563-1.7l-2.182-4.3c-3.031-6.141-5.282-11.206-5.036-11.325s2.9,4.759,5.924,10.861l2.1,4.344a3.387,3.387,0,0,1,.523,2.271,1.471,1.471,0,0,1-.879.987,4.426,4.426,0,0,1-.987.237,15.57,15.57,0,0,1-3.762.375Z" transform="translate(-37.17 -122.33)"/>
      <path id="Trazado_1477" data-name="Trazado 1477" class="cls-4" d="M129.5,215.983c-.168.652-2.488.573-5.154,1.165s-4.789,1.54-5.193.987c-.188-.247.128-.879.987-1.57a8.886,8.886,0,0,1,3.752-1.738,8.767,8.767,0,0,1,4.137.089C129.023,215.242,129.566,215.686,129.5,215.983Z" transform="translate(-36.942 -122.232)"/>
      <path id="Trazado_1478" data-name="Trazado 1478" class="cls-4" d="M151.178,215.844c-.355.563-1.975.178-3.949.336s-3.485.7-3.949.188c-.188-.247,0-.8.671-1.363a5.44,5.44,0,0,1,3.09-1.165,5.38,5.38,0,0,1,3.209.75C151.05,215.064,151.326,215.578,151.178,215.844Z" transform="translate(-37.247 -122.222)"/>
      <path id="Trazado_1479" data-name="Trazado 1479" class="cls-4" d="M114.389,206.356l-.079.079a11.848,11.848,0,0,0-3.633,8.037v.306c-.168,4.334.355,8.669.148,12.994s-1.264,8.807-4.137,12.056c-1.175,1.333-3.387,2.389-4.591,1.076a3.663,3.663,0,0,1-.731-1.906c-1.8-10.229-5.509-19.105-6.536-29.9a9.093,9.093,0,0,1,3.051-7.761c2.093-1.846,4.69-3.791,7.316-2.844s6.329,5.322,8.471,7.119" transform="translate(-36.635 -122.025)"/>
      <path id="Trazado_1480" data-name="Trazado 1480" class="cls-11" d="M105.46,231.057c-.267-.079-10.584-2.034-9.261,8.165s11.3,6.773,11.276,6.477S105.46,231.057,105.46,231.057Z" transform="translate(-36.651 -122.438)"/>
      <path id="Trazado_1481" data-name="Trazado 1481" class="cls-12" d="M103.935,242.29a2.7,2.7,0,0,1-.444.316,1.748,1.748,0,0,1-1.323.207c-1.126-.257-2.261-1.856-2.547-3.683a5.924,5.924,0,0,1,.168-2.616,2.093,2.093,0,0,1,1.165-1.54.918.918,0,0,1,1.106.355c.178.267.138.484.2.494s.2-.2.059-.612a1.155,1.155,0,0,0-.484-.592,1.362,1.362,0,0,0-.987-.128,2.538,2.538,0,0,0-1.659,1.827,6.21,6.21,0,0,0-.247,2.962c.336,2.044,1.639,3.831,3.169,4.068a1.886,1.886,0,0,0,1.59-.484A1.053,1.053,0,0,0,103.935,242.29Z" transform="translate(-36.687 -122.483)"/>
      <path id="Trazado_1482" data-name="Trazado 1482" class="cls-4" d="M105.11,199.955c-2.962-3.851,3.416-10.407,8.313-12.49s11.8-.276,16.992.9c3.268.75,6.576,1.906,9.874,1.442a22.708,22.708,0,0,0,6.329-2.281,16.617,16.617,0,0,1,6.418-1.975,6.2,6.2,0,0,1,5.727,2.893c1.047,1.975.109,4.937-2.083,5.48a5.055,5.055,0,1,1,2.251,9.182c1.353-1.244,3.762.365,3.762,2.192s-1.53,3.327-3.13,4.226c-4.088,2.291-9.123,2.172-13.685,1.116s-8.886-2.962-13.428-4.147-12.154-3.318-16.4-1.333c-3.12,1.451-5,5.569-6.911,4.937a6.27,6.27,0,0,1-3.683-4.285,18.128,18.128,0,0,1-.375-5.845" transform="translate(-36.756 -121.864)"/>
      <path id="Trazado_1483" data-name="Trazado 1483" class="cls-4" d="M105.71,232.756a89.266,89.266,0,0,0,1.856,16.133,30.164,30.164,0,0,0,7.316,14.267c4.937,5.065,11.414,9.873,18.424,11.068,7.652,1.264,17.012-.336,23.242-4.937,2.962-2.182,5.1-6.911,4.186-10.486a7.78,7.78,0,0,0,4.443-6.517c.158-2.765-1.53-6.22-3.712-6.586,1.639-.277,2.113-2.883,1.491-4.354s-2.784-1.915-4.423-1.6a11.414,11.414,0,0,0-4.413,2.271,15.571,15.571,0,0,1-4.275,2.547c-5.292,1.718-10.654-2.962-16.212-2.735-5.026.2-9.5,4.374-14.484,3.673a10.041,10.041,0,0,1-6.714-4.67c-1.54-2.36-.869-11.078-1.471-13.823" transform="translate(-36.773 -122.389)"/>
      <g id="Grupo_606" data-name="Grupo 606" class="cls-13" transform="translate(101.352 132.843)">
        <path id="Trazado_1484" data-name="Trazado 1484" class="cls-10" d="M146.459,256.627a9.425,9.425,0,0,1-1.224-.375,6.556,6.556,0,0,0-5.707,1.037c-.632.454-.987.82-.987.77a2.453,2.453,0,0,1,.8-.987,5.924,5.924,0,0,1,6.033-1.086C146.1,256.232,146.488,256.577,146.459,256.627Z" transform="translate(-138.54 -255.593)"/>
      </g>
      <path id="Trazado_1485" data-name="Trazado 1485" class="cls-3" d="M135.607,245.15c.375-.059.622,2.439,2.962,3.949s4.937,1.037,5,1.382c.049.148-.543.543-1.669.681a6.231,6.231,0,0,1-4.157-.987,5.421,5.421,0,0,1-2.291-3.377C135.222,245.792,135.439,245.15,135.607,245.15Z" transform="translate(-37.148 -122.619)"/>
      <path id="Trazado_1486" data-name="Trazado 1486" class="cls-10" d="M128.09,272.718a2.646,2.646,0,0,1,.642.237c.425.158,1.047.375,1.866.6a33.29,33.29,0,0,0,7.109,1.116,31.365,31.365,0,0,0,4.937-.1,27.646,27.646,0,0,0,5.579-1.086,22.709,22.709,0,0,0,5.687-2.6,17.259,17.259,0,0,0,4.937-4.483A10.259,10.259,0,0,0,160.821,259V258.8l.178-.079a8.007,8.007,0,0,0,3.09-2.537,9.016,9.016,0,0,0,.987-1.659,5.994,5.994,0,0,0,.434-1.787,7.04,7.04,0,0,0-2.37-5.973l-.148-.119.118-.148a4.147,4.147,0,0,0,.612-4.058,3.949,3.949,0,0,0-2.271-2.231,4.344,4.344,0,0,0-2.064-.286c-.484.059-.721.148-.731.118a2.5,2.5,0,0,1,.721-.217,4.3,4.3,0,0,1,4.621,2.5,4.5,4.5,0,0,1-.592,4.413v-.267a7.455,7.455,0,0,1,2.587,6.309,6.507,6.507,0,0,1-.464,1.975,10.261,10.261,0,0,1-1.037,1.757,8.373,8.373,0,0,1-3.278,2.715l.148-.3a10.614,10.614,0,0,1-1.975,7.82,17.714,17.714,0,0,1-5.085,4.611,22.224,22.224,0,0,1-5.815,2.616,27.23,27.23,0,0,1-5.677,1.066,31.817,31.817,0,0,1-5.026,0,31.132,31.132,0,0,1-7.139-1.293,16.064,16.064,0,0,1-1.846-.7,3.653,3.653,0,0,1-.711-.326Z" transform="translate(-37.056 -122.55)"/>
      <path id="Trazado_1487" data-name="Trazado 1487" class="cls-10" d="M82.737,246.195a1.561,1.561,0,0,1-.523-.257,2.962,2.962,0,0,1-.987-1.3,4.433,4.433,0,0,1-.207-2.626,5.3,5.3,0,0,1,1.975-2.893,13.191,13.191,0,0,1,3.752-1.975,24.323,24.323,0,0,0,4.364-1.856,8.531,8.531,0,0,0,3.288-3.87,14.149,14.149,0,0,0,1.165-5.43c.079-3.861-.81-7.524-.908-10.93s.494-6.586,2.044-8.718a8.215,8.215,0,0,1,4.937-3.387,5.589,5.589,0,0,1,1.659-.079,4.047,4.047,0,0,1,.573.109,8.816,8.816,0,0,0-2.182.168,8.166,8.166,0,0,0-4.729,3.4c-1.442,2.073-2.044,5.154-1.866,8.491s.987,7,.987,10.969a14.653,14.653,0,0,1-1.254,5.628,8.975,8.975,0,0,1-3.505,4.068,23.34,23.34,0,0,1-4.492,1.856,12.983,12.983,0,0,0-3.663,1.837,5,5,0,0,0-1.906,2.666,4.216,4.216,0,0,0,.109,2.488A3.288,3.288,0,0,0,82.737,246.195Z" transform="translate(-36.459 -122.083)"/>
      <path id="Trazado_1488" data-name="Trazado 1488" class="cls-10" d="M157.07,193.852a2.25,2.25,0,0,1,.444-.207,3.312,3.312,0,0,1,.583-.2,4.939,4.939,0,0,1,.82-.168,6.112,6.112,0,0,1,5.035,1.807h0a8.185,8.185,0,0,1,1.53,6.122,10.041,10.041,0,0,1-4.048,6.684,15.511,15.511,0,0,1-8.59,2.962,34.439,34.439,0,0,1-9.962-1.066,45.182,45.182,0,0,1-14.475-6.408,45.49,45.49,0,0,0-5.924-3.446,16.192,16.192,0,0,0-5.727-1.461,17.1,17.1,0,0,0-8.4,1.56c-1.846.869-2.725,1.619-2.765,1.56a12.124,12.124,0,0,1,2.676-1.748,17.032,17.032,0,0,1,8.511-1.738,16.487,16.487,0,0,1,5.924,1.432,45.945,45.945,0,0,1,6.013,3.446,45.507,45.507,0,0,0,14.336,6.3,34.3,34.3,0,0,0,9.814,1.106,15.234,15.234,0,0,0,8.343-2.844,9.735,9.735,0,0,0,3.949-6.378,7.9,7.9,0,0,0-1.372-5.924h0A6.013,6.013,0,0,0,159,193.4a12.837,12.837,0,0,0-1.925.454Z" transform="translate(-36.772 -121.962)"/>
      <path id="Trazado_1489" data-name="Trazado 1489" class="cls-10" d="M151.822,185.05a5.775,5.775,0,0,1-.464,2.261,9.627,9.627,0,0,1-4.226,4.611,12.1,12.1,0,0,1-4.117,1.481,17.386,17.386,0,0,1-5.016,0c-3.525-.444-7.168-1.827-11-3.021s-7.691-1.906-11.088-1.175a14.652,14.652,0,0,0-7.79,4.542,15.215,15.215,0,0,0-3.15,5.292c-.454,1.4-.543,2.222-.6,2.212a2.429,2.429,0,0,1,0-.592,11.3,11.3,0,0,1,.365-1.678,14.583,14.583,0,0,1,3.071-5.48,14.81,14.81,0,0,1,7.958-4.759c3.515-.78,7.484-.059,11.335,1.145s7.464,2.587,10.91,3.041a16.914,16.914,0,0,0,4.887,0,11.848,11.848,0,0,0,4.009-1.372,9.637,9.637,0,0,0,4.216-4.374A14.068,14.068,0,0,0,151.822,185.05Z" transform="translate(-36.756 -121.858)"/>
    </g>
    <g id="freepik--Lines--inject-488" transform="translate(190.24 75.02)">
      <path id="Trazado_1490" data-name="Trazado 1490" class="cls-4" d="M227.807,121.5c-.089.109-5.638-4.4-12.4-10.081S203.241,101,203.34,100.93s5.638,4.4,12.4,10.091S227.905,121.388,227.807,121.5Z" transform="translate(-192.489 -75.506)"/>
      <path id="Trazado_1491" data-name="Trazado 1491" class="cls-4" d="M256.614,114.407c-.138,0-.7-8.768-1.244-19.6s-.879-19.619-.74-19.629.7,8.768,1.254,19.609S256.752,114.407,256.614,114.407Z" transform="translate(-193.137 -75.18)"/>
      <path id="Trazado_1492" data-name="Trazado 1492" class="cls-4" d="M238.387,108.271c-.138,0-1.866-4.937-3.87-11.187S231,85.79,231.14,85.75s1.866,4.937,3.87,11.177S238.515,108.232,238.387,108.271Z" transform="translate(-192.84 -75.314)"/>
      <path id="Trazado_1493" data-name="Trazado 1493" class="cls-4" d="M222.1,131.052a68.138,68.138,0,0,1-7.612-3.209,66.146,66.146,0,0,1-7.405-3.683,68.126,68.126,0,0,1,7.613,3.209,67.136,67.136,0,0,1,7.405,3.683Z" transform="translate(-192.536 -75.8)"/>
      <path id="Trazado_1494" data-name="Trazado 1494" class="cls-4" d="M195.954,119.643c0,.138-.839.158-1.836,0s-1.787-.336-1.767-.474.839-.158,1.827,0S195.954,119.5,195.954,119.643Z" transform="translate(-192.35 -75.735)"/>
      <path id="Trazado_1495" data-name="Trazado 1495" class="cls-4" d="M231.787,79.244c-.148,0-.257-.8-.257-1.8s.109-1.807.257-1.807.257.81.257,1.807S231.925,79.244,231.787,79.244Z" transform="translate(-192.845 -75.186)"/>
      <path id="Trazado_1496" data-name="Trazado 1496" class="cls-4" d="M291.734,93.41c.109.1-4.453,5.322-10.17,11.67S271.128,116.5,271,116.405s4.453-5.312,10.17-11.67S291.636,93.321,291.734,93.41Z" transform="translate(-193.344 -75.411)"/>
      <path id="Trazado_1497" data-name="Trazado 1497" class="cls-4" d="M299.315,86.14c.1.1-.425.79-1.175,1.54s-1.432,1.264-1.53,1.165.425-.79,1.175-1.53S299.216,86,299.315,86.14Z" transform="translate(-193.668 -75.318)"/>
      <path id="Trazado_1498" data-name="Trazado 1498" class="cls-4" d="M316.7,111.74a9.007,9.007,0,0,1-1.343.8c-.879.484-2.162,1.165-3.762,1.975-3.209,1.619-7.7,3.732-12.757,5.835s-9.725,3.782-13.142,4.937c-1.7.563-3.081.987-4.048,1.274a7.9,7.9,0,0,1-1.511.385,9.336,9.336,0,0,1,1.451-.573l3.949-1.432c3.377-1.214,8.007-2.962,13.063-5.035s9.548-4.157,12.836-5.687l3.831-1.817a10.66,10.66,0,0,1,1.432-.662Z" transform="translate(-193.46 -75.642)"/>
      <path id="Trazado_1499" data-name="Trazado 1499" class="cls-4" d="M302.313,136.36a13.444,13.444,0,0,1-2.626.859c-1.639.454-3.949.987-6.5,1.432s-4.937.691-6.605.81a12.7,12.7,0,0,1-2.755.049,18.27,18.27,0,0,1,2.725-.415c1.679-.207,4-.523,6.546-.987s4.848-.908,6.507-1.264A14.913,14.913,0,0,1,302.313,136.36Z" transform="translate(-193.507 -75.954)"/>
      <path id="Trazado_1500" data-name="Trazado 1500" class="cls-4" d="M315.767,133.9a15.876,15.876,0,0,1-5.687,0A15.879,15.879,0,0,1,315.767,133.9Z" transform="translate(-193.839 -75.919)"/>
    </g>
    <g id="freepik--Plant--inject-488" transform="translate(226.105 377.959)">
      <path id="Trazado_1501" data-name="Trazado 1501" class="cls-5" d="M240.632,382a10.515,10.515,0,0,1,6.911,4.423,18.494,18.494,0,0,1,2.962,7.83c.9,5.371-.553,11.473-2.547,16.548-5.48-2.577-8.4-8.955-9.676-12.292-1.975-5.263-2.478-16.015,2.3-16.509" transform="translate(-228.778 -382)"/>
      <path id="Trazado_1502" data-name="Trazado 1502" class="cls-5" d="M256.313,418.669a8.936,8.936,0,0,1-.207-8.985,11.848,11.848,0,0,1,7.287-5.588,5.016,5.016,0,0,1,4.216.3,3.831,3.831,0,0,1,1.382,3.624,7.82,7.82,0,0,1-1.718,3.643c-2.863,3.693-6.3,6.734-10.96,7.01" transform="translate(-229.007 -382.275)"/>
      <path id="Trazado_1503" data-name="Trazado 1503" class="cls-4" d="M254.923,435.765a4.147,4.147,0,0,1-.188-1.126c-.069-.731-.168-1.8-.237-3.11a38.791,38.791,0,0,1,.622-10.268,19.461,19.461,0,0,1,4.67-9.153,12.6,12.6,0,0,1,2.429-1.975,3.219,3.219,0,0,1,.987-.513,25.24,25.24,0,0,0-3.14,2.794,20.22,20.22,0,0,0-4.384,8.985,44.007,44.007,0,0,0-.79,10.13A35.19,35.19,0,0,1,254.923,435.765Z" transform="translate(-229 -382.349)"/>
      <path id="Trazado_1504" data-name="Trazado 1504" class="cls-4" d="M242,390.29a11.849,11.849,0,0,1,.691,1.757c.4,1.145.987,2.8,1.639,4.868,1.353,4.127,3.12,9.874,4.937,16.242s3.278,12.194,4.285,16.42c.5,2.113.889,3.821,1.135,5.016a11.1,11.1,0,0,1,.336,1.856,10.442,10.442,0,0,1-.563-1.8c-.346-1.284-.79-2.962-1.323-4.937-1.116-4.2-2.666-9.992-4.463-16.36s-3.5-12.125-4.739-16.281l-1.451-4.937A11.493,11.493,0,0,1,242,390.29Z" transform="translate(-228.843 -382.105)"/>
      <path id="Trazado_1505" data-name="Trazado 1505" class="cls-5" d="M248.684,423.846A20.951,20.951,0,0,0,233.715,412c-1.659-.316-3.7-.276-4.631,1.145s-.128,3.317.869,4.68a17.881,17.881,0,0,0,18.76,6.556" transform="translate(-228.674 -382.377)"/>
      <path id="Trazado_1506" data-name="Trazado 1506" class="cls-4" d="M235.62,416.79a3.789,3.789,0,0,1,1.1.118,8.744,8.744,0,0,1,1.254.267,15.177,15.177,0,0,1,1.639.484,22.1,22.1,0,0,1,4.028,1.886,23.261,23.261,0,0,1,7.78,7.534,21.96,21.96,0,0,1,1.975,3.949,14.171,14.171,0,0,1,.543,1.619,8.6,8.6,0,0,1,.316,1.254,3.435,3.435,0,0,1,.138,1.086c-.109,0-.415-1.511-1.392-3.791a24.68,24.68,0,0,0-2.083-3.821,26.794,26.794,0,0,0-3.406-4.088,27.23,27.23,0,0,0-4.186-3.278,25.108,25.108,0,0,0-3.89-1.975C237.141,417.165,235.6,416.908,235.62,416.79Z" transform="translate(-228.762 -382.44)"/>
    </g>
  </g>
</svg>
