<svg xmlns="http://www.w3.org/2000/svg" width="13" height="13" viewBox="0 0 13 13">
  <path id="phone-call" d="M10.629,13a2.284,2.284,0,0,0,1.447-.45A2.964,2.964,0,0,0,13,10.082,2.1,2.1,0,0,0,11.249,8a7.419,7.419,0,0,1-.937-.221,1.526,1.526,0,0,0-1.529.377l-.555.551a.5.5,0,0,1-.618.08,10.443,10.443,0,0,1-3.4-3.4.5.5,0,0,1,.079-.616l.553-.557a1.525,1.525,0,0,0,.376-1.528A7.4,7.4,0,0,1,5,1.751,2.1,2.1,0,0,0,2.918,0,2.965,2.965,0,0,0,.45.924a2.848,2.848,0,0,0-.3,2.524A12.657,12.657,0,0,0,2.623,8.4a.508.508,0,1,0,.788-.64A11.633,11.633,0,0,1,1.132,3.207v0A1.932,1.932,0,0,1,1.25,1.549a2.055,2.055,0,0,1,1.668-.534,1.086,1.086,0,0,1,1.077.9,8.428,8.428,0,0,0,.251,1.066.512.512,0,0,1-.124.514l-.553.557a1.517,1.517,0,0,0-.23,1.857A11.505,11.505,0,0,0,7.086,9.661,1.518,1.518,0,0,0,8.945,9.43L9.5,8.879a.512.512,0,0,1,.515-.125,8.445,8.445,0,0,0,1.066.251,1.086,1.086,0,0,1,.9,1.077,2.055,2.055,0,0,1-.534,1.668,1.932,1.932,0,0,1-1.654.119A11.928,11.928,0,0,1,5.365,9.683a.508.508,0,0,0-.627.8,12.952,12.952,0,0,0,4.813,2.373A4.473,4.473,0,0,0,10.629,13Zm0,0" fill="#f83f00"/>
</svg>
