<svg xmlns="http://www.w3.org/2000/svg" width="12" height="16.083" viewBox="0 0 12 16.083">
  <g id="location" transform="translate(-396.08 -603.398)">
    <path id="Path_140" data-name="Path 140" d="M402.08,603.4a6.016,6.016,0,0,0-6,6c0,3.126,5,9.2,5.572,9.881a.556.556,0,0,0,.377.2.54.54,0,0,0,.408-.128.576.576,0,0,0,.071-.07c.57-.684,5.572-6.78,5.572-9.881A6.018,6.018,0,0,0,402.08,603.4Zm.1,14.523-.1.12-.1-.12c-.8-1.007-4.788-6.151-4.788-8.522a4.885,4.885,0,0,1,9.77,0C406.965,611.771,402.975,616.913,402.176,617.921Z" fill="#f83f00"/>
    <path id="Path_141" data-name="Path 141" d="M402.692,606.731h0a3.279,3.279,0,0,0,0,6.559h0a3.3,3.3,0,0,0,2.346-.989.558.558,0,1,0-.8-.78,2.163,2.163,0,1,1,.615-1.51.558.558,0,1,0,1.116,0A3.288,3.288,0,0,0,402.692,606.731Z" transform="translate(-0.612 -0.612)" fill="#f83f00"/>
  </g>
</svg>
