<svg xmlns="http://www.w3.org/2000/svg" width="35" height="29.499" viewBox="0 0 35 29.499">
  <g id="Group_461" data-name="Group 461" transform="translate(-684.677 -726)">
    <path id="money-growth" d="M18.629,59.16a9.315,9.315,0,1,1-9.315-9.315A9.325,9.325,0,0,1,18.629,59.16Zm-2.258,0a7.056,7.056,0,1,0-7.056,7.056A7.064,7.064,0,0,0,16.371,59.16Zm17.5,7.056h-.776V47.588a1.129,1.129,0,0,0-2.258,0V66.217H25.121V52.1a1.129,1.129,0,0,0-2.258,0V66.217h-4.8a1.129,1.129,0,0,0,0,2.258H33.871a1.129,1.129,0,1,0,0-2.258ZM17.381,51.138,21.416,47.1l1.777,1.777a1.129,1.129,0,0,0,1.6,0l6.046-6.046v.52a1.129,1.129,0,1,0,2.258,0c0-3.583.005-3.279-.012-3.405a1.129,1.129,0,0,0-.685-.884c-.279-.116-.193-.086-3.678-.086a1.129,1.129,0,0,0,0,2.258h.52l-5.248,5.248-1.777-1.777a1.129,1.129,0,0,0-1.6,0l-4.834,4.834a1.129,1.129,0,0,0,1.6,1.6Z" transform="translate(684.677 687.025)" fill="#f83f00"/>
    <g id="Group_458" data-name="Group 458" transform="translate(691.359 740.636)">
      <g id="Group_450" data-name="Group 450">
        <path id="Trazado_208" data-name="Trazado 208" d="M216.943,177.307a.858.858,0,0,1-.857-.856.857.857,0,1,0-1.714,0,2.574,2.574,0,0,0,1.723,2.425v.686a.857.857,0,1,0,1.714,0v-.693a2.57,2.57,0,0,0-.866-4.99.857.857,0,1,1,.857-.857h0a.857.857,0,1,0,1.714,0,2.574,2.574,0,0,0-1.7-2.42v-.62a.857.857,0,1,0-1.714,0v.614a2.57,2.57,0,0,0,.847,5,.857.857,0,1,1,0,1.714Z" transform="translate(-214.369 -169.127)" fill="#f83f00"/>
      </g>
    </g>
  </g>
</svg>
