<svg id="message" xmlns="http://www.w3.org/2000/svg" width="12" height="9" viewBox="0 0 12 9">
  <path id="Path_138" data-name="Path 138" d="M12,.5h0a.491.491,0,0,0-.022-.139c0-.005,0-.011,0-.016s0-.008-.006-.012a.488.488,0,0,0-.063-.122L11.892.194A.5.5,0,0,0,11.8.106L11.788.093a.5.5,0,0,0-.12-.062L11.64.023A.478.478,0,0,0,11.5,0H.5A.5.5,0,0,0,.359.022L.332.031a.5.5,0,0,0-.12.062L.2.105A.5.5,0,0,0,.108.193L.093.211A.508.508,0,0,0,.031.333s0,.008-.006.012,0,.011,0,.016A.5.5,0,0,0,0,.5H0v8A.5.5,0,0,0,.5,9H2A.5.5,0,0,0,2,8H1V1.482L5.706,4.9a.5.5,0,0,0,.588,0L11,1.482V8H4A.5.5,0,0,0,4,9h7.5a.5.5,0,0,0,.5-.5V.5ZM6,3.882,2.037,1H9.963Zm0,0" fill="#f83f00"/>
  <path id="Path_139" data-name="Path 139" d="M226.5,193a.5.5,0,0,0,0-1h-2a.5.5,0,0,0,0,1Zm0,0" transform="translate(-217 -186)" fill="#f83f00"/>
</svg>
