<svg id="piggy-bank" xmlns="http://www.w3.org/2000/svg" width="35" height="35" viewBox="0 0 35 35">
  <g id="Group_437" data-name="Group 437" transform="translate(26.797 17.568)">
    <g id="Group_436" data-name="Group 436">
      <circle id="Ellipse_73" data-name="Ellipse 73" cx="1.025" cy="1.025" r="1.025" fill="#f83f00"/>
    </g>
  </g>
  <g id="Group_439" data-name="Group 439" transform="translate(12.305)">
    <g id="Group_438" data-name="Group 438">
      <path id="Path_210" data-name="Path 210" d="M216.1,0A4.1,4.1,0,1,1,212,4.1,4.106,4.106,0,0,1,216.1,0Zm0,6.152A2.051,2.051,0,1,0,214.051,4.1,2.053,2.053,0,0,0,216.1,6.152Z" transform="translate(-212 0)" fill="#f83f00"/>
    </g>
  </g>
  <g id="Group_441" data-name="Group 441" transform="translate(0 8.34)">
    <g id="Group_440" data-name="Group 440">
      <path id="Path_211" data-name="Path 211" d="M1.025,128.152a1.025,1.025,0,0,1,1.025,1.025V130.2a2.055,2.055,0,0,0,2.49,2.007,11.3,11.3,0,0,1,10.84-8.159l6.851.014a.992.992,0,0,0,.736-.339A5.107,5.107,0,0,1,26.8,122h3.076a1.025,1.025,0,0,1,1,1.267l-1.038,4.277A11.206,11.206,0,0,1,31.72,130.2h.2A3.08,3.08,0,0,1,35,133.279v3.039a3.08,3.08,0,0,1-1.3,2.513l-1.808,1.277a11.223,11.223,0,0,1-2.638,3.573,1.141,1.141,0,0,0-.4.812v2.418A1.751,1.751,0,0,1,27.1,148.66h-3.68a1.751,1.751,0,0,1-1.749-1.749v-.3H15.381v.3a1.751,1.751,0,0,1-1.749,1.749H9.952A1.751,1.751,0,0,1,8.2,146.912V145.36A3.1,3.1,0,0,0,7.3,143.2a11.245,11.245,0,0,1-3.2-7.866c0-.346.016-.688.047-1.026H4.1A4.1,4.1,0,0,1,0,130.2v-1.025A1.025,1.025,0,0,1,1.025,128.152Zm5.647,10.241a9.288,9.288,0,0,0,2.094,3.373,5.14,5.14,0,0,1,1.487,3.594v1.249H13.33v-3.076a1.025,1.025,0,0,1,2.051,0v1.025H21.67v-1.025a1.025,1.025,0,0,1,2.051,0v3.076H26.8v-2.116a3.138,3.138,0,0,1,1.076-2.33,9.318,9.318,0,0,0,2.258-3.142,1.025,1.025,0,0,1,.348-.427l2.036-1.438a1.027,1.027,0,0,0,.434-.838v-3.039a1.027,1.027,0,0,0-1.025-1.025c-.821,0-1.069.028-1.307-.106a1.021,1.021,0,0,1-.485-.507v0a9.2,9.2,0,0,0-2.124-3.016L28,128.61l-.03-.029a1.026,1.026,0,0,1-.259-.979l.862-3.551H26.8a3.055,3.055,0,0,0-2.291,1.031,3.03,3.03,0,0,1-2.274,1.02l-6.851-.014a9.247,9.247,0,0,0-8.708,12.305Z" transform="translate(0 -122)" fill="#f83f00"/>
    </g>
  </g>
  <g id="Group_443" data-name="Group 443" transform="translate(14.355 14.492)">
    <g id="Group_442" data-name="Group 442">
      <path id="Path_212" data-name="Path 212" d="M202.807,212h4.8a1.025,1.025,0,0,1,0,2.051h-4.8a1.025,1.025,0,0,1,0-2.051Z" transform="translate(-201.782 -212)" fill="#f83f00"/>
    </g>
  </g>
</svg>
