<svg xmlns="http://www.w3.org/2000/svg" width="16" height="16" viewBox="0 0 16 16">
  <g id="location" transform="translate(-394.08 -603.398)">
    <rect id="Rectángulo_921" data-name="Rectángulo 921" width="16" height="15.917" transform="translate(394.08 603.398)" fill="none"/>
    <path id="Trazado_140" data-name="Trazado 140" d="M402.08,603.4a6,6,0,0,0-6,5.969c0,3.11,5,9.152,5.572,9.83a.557.557,0,0,0,.377.2.542.542,0,0,0,.408-.127.573.573,0,0,0,.071-.07c.57-.681,5.572-6.745,5.572-9.83A6,6,0,0,0,402.08,603.4Zm.1,14.447-.1.119-.1-.119c-.8-1-4.788-6.12-4.788-8.478a4.885,4.885,0,0,1,9.77,0C406.965,611.727,402.975,616.843,402.176,617.845Z" transform="translate(0 0)" fill="#f83f00"/>
    <path id="Trazado_141" data-name="Trazado 141" d="M402.692,606.731h0a3.262,3.262,0,1,0,0,6.525h0a3.305,3.305,0,0,0,2.346-.984.552.552,0,0,0-.01-.785.562.562,0,0,0-.789.01,2.173,2.173,0,0,1-3.059.039,2.145,2.145,0,0,1-.039-3.044,2.164,2.164,0,0,1,3.713,1.5.558.558,0,0,0,1.116,0A3.279,3.279,0,0,0,402.692,606.731Z" transform="translate(-0.612 -0.626)" fill="#f83f00"/>
  </g>
</svg>
