<svg id="Component_19_1" data-name="Component 19 – 1" xmlns="http://www.w3.org/2000/svg" width="148.554" height="35" viewBox="0 0 148.554 35">
  <g id="Group_1" data-name="Group 1">
    <path id="Path_1" data-name="Path 1" d="M186.208,525.455h3.574a.751.751,0,0,1,.751.751v19.323h9.738v3.621H186.208Z" transform="translate(-186.208 -525.455)" fill="#002e75"/>
    <path id="Path_2" data-name="Path 2" d="M208.58,527.811a2.427,2.427,0,1,1-2.426-2.356A2.311,2.311,0,0,1,208.58,527.811Zm-4.605,21.339v-17.12H208.3V548.4a.751.751,0,0,1-.751.751Z" transform="translate(-186.82 -525.455)" fill="#002e75"/>
    <path id="Path_3" data-name="Path 3" d="M212.646,525.455h4.324v8.93h.07a6.192,6.192,0,0,1,5.483-2.743c4.184,0,7.171,3.481,7.137,8.684,0,6.152-3.9,9.21-7.77,9.21a5.89,5.89,0,0,1-5.413-2.953h-.07l-.154,1.878a.751.751,0,0,1-.748.689h-3c.069-1.16.14-3.058.14-4.817Zm4.324,16.628a4.764,4.764,0,0,0,.105,1.019,3.95,3.95,0,0,0,3.832,3.024c2.707,0,4.358-2.144,4.358-5.624,0-3.024-1.441-5.485-4.324-5.485a4.02,4.02,0,0,0-3.832,3.165,5.208,5.208,0,0,0-.14,1.124Z" transform="translate(-187.127 -525.455)" fill="#002e75"/>
    <path id="Path_4" data-name="Path 4" d="M236.979,542.026c.105,3.093,2.5,4.429,5.273,4.429a13.86,13.86,0,0,0,3.969-.528.754.754,0,0,1,.95.562l.459,2.146a15.384,15.384,0,0,1-5.976,1.09c-5.555,0-8.824-3.41-8.824-8.648,0-4.746,2.883-9.211,8.366-9.211,5.555,0,7.383,4.57,7.383,8.331,0,.436-.02.821-.05,1.144a.752.752,0,0,1-.749.685ZM244.5,539c.036-1.582-.668-4.184-3.55-4.184-2.671,0-3.8,2.425-3.972,4.184Z" transform="translate(-187.837 -525.679)" fill="#002e75"/>
    <path id="Path_5" data-name="Path 5" d="M252.75,537.772c0-2.32-.036-4.008-.141-5.519h3.015a.75.75,0,0,1,.75.71l.137,2.524h.106a5.121,5.121,0,0,1,4.711-3.621,4.593,4.593,0,0,1,1.019.105v3.2a.746.746,0,0,1-.784.749c-.158-.009-.329-.013-.516-.013a3.809,3.809,0,0,0-3.868,3.27,7.581,7.581,0,0,0-.105,1.3v8.894H252.75Z" transform="translate(-188.528 -525.679)" fill="#002e75"/>
    <path id="Path_6" data-name="Path 6" d="M277.94,548.846a12.539,12.539,0,0,1-4.851.878c-5.343,0-8.824-3.445-8.824-8.753,0-5.133,3.516-9.105,9.527-9.105a11.539,11.539,0,0,1,4.184.774l-.572,2.417a.746.746,0,0,1-.951.545,7.98,7.98,0,0,0-2.521-.361c-3.3,0-5.273,2.426-5.237,5.554,0,3.516,2.284,5.52,5.237,5.52a8.722,8.722,0,0,0,2.612-.379.75.75,0,0,1,.96.578Z" transform="translate(-188.935 -525.679)" fill="#f83f00"/>
    <path id="Path_7" data-name="Path 7" d="M297.658,540.655c0,6.292-4.43,9.1-8.789,9.1-4.816,0-8.577-3.3-8.577-8.824,0-5.624,3.691-9.07,8.859-9.07C294.249,531.866,297.658,535.452,297.658,540.655Zm-12.9.176c0,3.3,1.652,5.8,4.254,5.8,2.461,0,4.184-2.391,4.184-5.872,0-2.671-1.2-5.765-4.148-5.765C285.987,534.995,284.756,537.983,284.756,540.831Z" transform="translate(-189.495 -525.679)" fill="#f83f00"/>
    <path id="Path_8" data-name="Path 8" d="M318.2,540.655c0,6.292-4.43,9.1-8.789,9.1-4.817,0-8.578-3.3-8.578-8.824,0-5.624,3.691-9.07,8.859-9.07C314.793,531.866,318.2,535.452,318.2,540.655Zm-12.9.176c0,3.3,1.652,5.8,4.254,5.8,2.46,0,4.184-2.391,4.184-5.872,0-2.671-1.2-5.765-4.149-5.765C306.531,534.995,305.3,537.983,305.3,540.831Z" transform="translate(-190.212 -525.679)" fill="#f83f00"/>
    <path id="Path_9" data-name="Path 9" d="M322.5,537.948c0-2.25-.07-4.077-.141-5.695h3.1a.751.751,0,0,1,.748.691l.156,1.946h.069a6.67,6.67,0,0,1,5.871-3.024c3.937,0,7.206,3.375,7.206,8.718,0,6.187-3.9,9.175-7.8,9.175a5.622,5.622,0,0,1-4.817-2.284h-.07v8.858H322.5Zm4.324,4.254a6.561,6.561,0,0,0,.105,1.195,3.95,3.95,0,0,0,3.832,3.024c2.742,0,4.359-2.285,4.359-5.66,0-3.023-1.477-5.483-4.254-5.483a4.1,4.1,0,0,0-3.9,3.2,5.771,5.771,0,0,0-.141,1.09Z" transform="translate(-190.965 -525.679)" fill="#f83f00"/>
  </g>
  <g id="Group_2" data-name="Group 2" transform="translate(0 26.365)">
    <path id="Path_10" data-name="Path 10" d="M191.027,559.2a4.13,4.13,0,0,1-1.624.279,2.955,2.955,0,0,1-3.194-3.157,3.155,3.155,0,0,1,3.352-3.305,3.537,3.537,0,0,1,1.513.279l-.241.909a3.086,3.086,0,0,0-1.226-.241,2.084,2.084,0,0,0-2.191,2.3,2.045,2.045,0,0,0,2.182,2.256,3.463,3.463,0,0,0,1.244-.223Z" transform="translate(-186.208 -552.782)" fill="#002e75"/>
    <path id="Path_11" data-name="Path 11" d="M196.3,557.135a2.24,2.24,0,0,1-2.321,2.4,2.187,2.187,0,0,1-2.266-2.331,2.232,2.232,0,0,1,2.34-2.4A2.169,2.169,0,0,1,196.3,557.135Zm-3.408.046c0,.872.436,1.532,1.123,1.532.65,0,1.1-.632,1.1-1.551,0-.705-.316-1.523-1.1-1.523C193.217,555.64,192.891,556.43,192.891,557.181Z" transform="translate(-186.4 -552.845)" fill="#002e75"/>
    <path id="Path_12" data-name="Path 12" d="M201.726,557.135a2.24,2.24,0,0,1-2.321,2.4,2.187,2.187,0,0,1-2.266-2.331,2.233,2.233,0,0,1,2.34-2.4A2.169,2.169,0,0,1,201.726,557.135Zm-3.408.046c0,.872.436,1.532,1.123,1.532.65,0,1.1-.632,1.1-1.551,0-.705-.316-1.523-1.1-1.523C198.644,555.64,198.318,556.43,198.318,557.181Z" transform="translate(-186.59 -552.845)" fill="#002e75"/>
    <path id="Path_13" data-name="Path 13" d="M202.864,556.42c0-.595-.019-1.076-.038-1.5h1l.056.7h.018a1.761,1.761,0,0,1,1.551-.8,2.054,2.054,0,0,1,1.9,2.3,2.153,2.153,0,0,1-2.061,2.423,1.484,1.484,0,0,1-1.272-.6h-.018v2.34h-1.142Zm1.142,1.124a1.678,1.678,0,0,0,.028.316,1.043,1.043,0,0,0,1.011.8c.725,0,1.151-.6,1.151-1.495,0-.8-.39-1.449-1.123-1.449a1.083,1.083,0,0,0-1.031.844,1.565,1.565,0,0,0-.037.289Z" transform="translate(-186.789 -552.845)" fill="#002e75"/>
    <path id="Path_14" data-name="Path 14" d="M209.291,557.5a1.223,1.223,0,0,0,1.393,1.17,3.639,3.639,0,0,0,1.253-.2l.168.78a4.065,4.065,0,0,1-1.579.288,2.139,2.139,0,0,1-2.331-2.283,2.239,2.239,0,0,1,2.21-2.433,1.966,1.966,0,0,1,1.95,2.2,2.814,2.814,0,0,1-.038.483Zm1.986-.8a.972.972,0,0,0-.937-1.1,1.117,1.117,0,0,0-1.049,1.1Z" transform="translate(-186.976 -552.845)" fill="#002e75"/>
    <path id="Path_15" data-name="Path 15" d="M213.458,556.374c0-.613-.01-1.058-.038-1.457h.984l.046.854h.028a1.353,1.353,0,0,1,1.244-.956,1.206,1.206,0,0,1,.269.028v1.067a1.846,1.846,0,0,0-.344-.028,1.006,1.006,0,0,0-1.021.864,2,2,0,0,0-.028.344v2.349h-1.142Z" transform="translate(-187.159 -552.845)" fill="#002e75"/>
    <path id="Path_16" data-name="Path 16" d="M220.3,558.351a6.057,6.057,0,0,0,.075,1.087h-1.032l-.083-.5h-.028a1.652,1.652,0,0,1-1.337.6,1.342,1.342,0,0,1-1.421-1.346c0-1.133,1.011-1.718,2.683-1.708v-.074c0-.3-.121-.789-.919-.789a2.4,2.4,0,0,0-1.217.334l-.222-.743a3.261,3.261,0,0,1,1.634-.4,1.693,1.693,0,0,1,1.865,1.913Zm-1.114-1.123c-.808-.009-1.578.158-1.578.845a.6.6,0,0,0,.649.65.936.936,0,0,0,.9-.622.772.772,0,0,0,.028-.251Z" transform="translate(-187.265 -552.845)" fill="#002e75"/>
    <path id="Path_17" data-name="Path 17" d="M222.921,553.717v1.161h1.086v.854h-1.086v2c0,.558.149.836.585.836a1.472,1.472,0,0,0,.446-.046l.018.864a2.515,2.515,0,0,1-.826.121,1.309,1.309,0,0,1-.984-.372,1.78,1.78,0,0,1-.362-1.272v-2.126h-.641v-.854h.641v-.845Z" transform="translate(-187.429 -552.807)" fill="#002e75"/>
    <path id="Path_18" data-name="Path 18" d="M226.22,553.589a.641.641,0,1,1-.641-.622A.61.61,0,0,1,226.22,553.589ZM225,559.373v-4.521h1.142v4.521Z" transform="translate(-187.561 -552.781)" fill="#002e75"/>
    <path id="Path_19" data-name="Path 19" d="M228.174,554.92l.733,2.293c.13.4.223.761.307,1.133h.028c.083-.372.185-.725.306-1.133l.725-2.293h1.2l-1.727,4.521H228.62l-1.68-4.521Z" transform="translate(-187.631 -552.849)" fill="#002e75"/>
    <path id="Path_20" data-name="Path 20" d="M235.8,558.351a6.067,6.067,0,0,0,.074,1.087h-1.031l-.084-.5h-.027a1.654,1.654,0,0,1-1.338.6,1.342,1.342,0,0,1-1.421-1.346c0-1.133,1.012-1.718,2.684-1.708v-.074c0-.3-.121-.789-.92-.789a2.392,2.392,0,0,0-1.216.334l-.223-.743a3.261,3.261,0,0,1,1.634-.4,1.694,1.694,0,0,1,1.866,1.913Zm-1.114-1.123c-.809-.009-1.579.158-1.579.845a.6.6,0,0,0,.65.65.937.937,0,0,0,.9-.622.772.772,0,0,0,.028-.251Z" transform="translate(-187.807 -552.845)" fill="#002e75"/>
    <path id="Path_21" data-name="Path 21" d="M243.338,552.774v5.32c0,.464.018.966.038,1.272h-1.012l-.056-.715h-.018a1.623,1.623,0,0,1-1.467.817,2.072,2.072,0,0,1-1.941-2.312,2.151,2.151,0,0,1,2.024-2.414,1.433,1.433,0,0,1,1.272.585h.019v-2.554ZM242.2,556.73a1.728,1.728,0,0,0-.028-.307,1,1,0,0,0-.984-.8c-.733,0-1.142.649-1.142,1.485s.408,1.44,1.133,1.44a1.006,1.006,0,0,0,.983-.808,1.271,1.271,0,0,0,.038-.335Z" transform="translate(-188.048 -552.774)" fill="#002e75"/>
    <path id="Path_22" data-name="Path 22" d="M245.567,557.5a1.224,1.224,0,0,0,1.393,1.17,3.645,3.645,0,0,0,1.254-.2l.167.78a4.064,4.064,0,0,1-1.578.288,2.138,2.138,0,0,1-2.331-2.283,2.239,2.239,0,0,1,2.21-2.433,1.966,1.966,0,0,1,1.949,2.2,2.718,2.718,0,0,1-.038.483Zm1.987-.8a.973.973,0,0,0-.938-1.1,1.117,1.117,0,0,0-1.049,1.1Z" transform="translate(-188.243 -552.845)" fill="#002e75"/>
    <path id="Path_23" data-name="Path 23" d="M253.012,557.606l-.539,1.773h-1.178l2.005-6.258h1.457l2.033,6.258h-1.234l-.566-1.773Zm1.791-.864-.491-1.541c-.122-.381-.223-.808-.317-1.17h-.018c-.093.362-.195.8-.3,1.17l-.483,1.541Z" transform="translate(-188.482 -552.786)" fill="#002e75"/>
    <path id="Path_24" data-name="Path 24" d="M257.8,552.774h1.142v2.684h.018a1.5,1.5,0,0,1,.566-.51,1.6,1.6,0,0,1,.789-.2c.77,0,1.578.51,1.578,1.959v2.665h-1.142v-2.544c0-.649-.241-1.151-.872-1.151a.954.954,0,0,0-.892.641,1.015,1.015,0,0,0-.046.344v2.711H257.8Z" transform="translate(-188.709 -552.774)" fill="#002e75"/>
    <path id="Path_25" data-name="Path 25" d="M267.591,557.135a2.241,2.241,0,0,1-2.321,2.4A2.186,2.186,0,0,1,263,557.209a2.232,2.232,0,0,1,2.34-2.4A2.17,2.17,0,0,1,267.591,557.135Zm-3.408.046c0,.872.436,1.532,1.123,1.532.65,0,1.105-.632,1.105-1.551,0-.705-.316-1.523-1.1-1.523C264.509,555.64,264.183,556.43,264.183,557.181Z" transform="translate(-188.891 -552.845)" fill="#002e75"/>
    <path id="Path_26" data-name="Path 26" d="M268.729,556.374c0-.613-.01-1.058-.038-1.457h.983l.046.854h.028a1.354,1.354,0,0,1,1.245-.956,1.218,1.218,0,0,1,.269.028v1.067a1.864,1.864,0,0,0-.344-.028,1,1,0,0,0-1.02.864,1.914,1.914,0,0,0-.028.344v2.349h-1.142Z" transform="translate(-189.09 -552.845)" fill="#002e75"/>
    <path id="Path_27" data-name="Path 27" d="M272.154,556.374c0-.613-.01-1.058-.038-1.457h.984l.046.854h.028a1.353,1.353,0,0,1,1.245-.956,1.219,1.219,0,0,1,.269.028v1.067a1.861,1.861,0,0,0-.344-.028,1.007,1.007,0,0,0-1.022.864,2,2,0,0,0-.028.344v2.349h-1.142Z" transform="translate(-189.209 -552.845)" fill="#002e75"/>
    <path id="Path_28" data-name="Path 28" d="M279.782,557.135a2.24,2.24,0,0,1-2.321,2.4,2.186,2.186,0,0,1-2.265-2.331,2.232,2.232,0,0,1,2.339-2.4A2.169,2.169,0,0,1,279.782,557.135Zm-3.407.046c0,.872.435,1.532,1.122,1.532.65,0,1.105-.632,1.105-1.551,0-.705-.316-1.523-1.1-1.523C276.7,555.64,276.375,556.43,276.375,557.181Z" transform="translate(-189.317 -552.845)" fill="#002e75"/>
    <path id="Path_29" data-name="Path 29" d="M283.617,554.92l.808,2.423c.093.278.195.622.261.872h.028c.064-.251.148-.595.24-.882l.705-2.414h1.216L285.743,558a6.894,6.894,0,0,1-1.569,2.906,2.407,2.407,0,0,1-1.2.576l-.261-.956a2.113,2.113,0,0,0,1.291-1.031.431.431,0,0,0,.066-.2.579.579,0,0,0-.056-.223l-1.663-4.15Z" transform="translate(-189.567 -552.849)" fill="#002e75"/>
    <path id="Path_30" data-name="Path 30" d="M294.236,559.2a4.134,4.134,0,0,1-1.624.279,2.954,2.954,0,0,1-3.193-3.157,3.154,3.154,0,0,1,3.351-3.305,3.537,3.537,0,0,1,1.513.279l-.241.909a3.09,3.09,0,0,0-1.226-.241,2.084,2.084,0,0,0-2.191,2.3,2.045,2.045,0,0,0,2.182,2.256,3.458,3.458,0,0,0,1.244-.223Z" transform="translate(-189.814 -552.782)" fill="#002e75"/>
    <path id="Path_31" data-name="Path 31" d="M295.343,556.374c0-.613-.009-1.058-.037-1.457h.984l.046.854h.028a1.353,1.353,0,0,1,1.244-.956,1.212,1.212,0,0,1,.269.028v1.067a1.854,1.854,0,0,0-.344-.028,1.008,1.008,0,0,0-1.022.864,2,2,0,0,0-.028.344v2.349h-1.142Z" transform="translate(-190.019 -552.845)" fill="#002e75"/>
    <path id="Path_32" data-name="Path 32" d="M299.48,557.43a1.224,1.224,0,0,0,1.394,1.17,3.649,3.649,0,0,0,1.254-.2l.167.78a4.069,4.069,0,0,1-1.579.288,2.139,2.139,0,0,1-2.331-2.283,2.24,2.24,0,0,1,2.211-2.433,1.965,1.965,0,0,1,1.948,2.2,2.839,2.839,0,0,1-.037.483Zm1.988-.8a.973.973,0,0,0-.938-1.1,1.118,1.118,0,0,0-1.05,1.1Zm.511-3.742-1.133,1.373h-.788l.807-1.373Z" transform="translate(-190.127 -552.778)" fill="#002e75"/>
    <path id="Path_33" data-name="Path 33" d="M307.808,552.774v5.32c0,.464.018.966.037,1.272h-1.012l-.056-.715h-.018a1.622,1.622,0,0,1-1.467.817,2.072,2.072,0,0,1-1.94-2.312,2.15,2.15,0,0,1,2.024-2.414,1.435,1.435,0,0,1,1.272.585h.018v-2.554Zm-1.143,3.956a1.724,1.724,0,0,0-.027-.307,1,1,0,0,0-.984-.8c-.734,0-1.143.649-1.143,1.485s.408,1.44,1.133,1.44a1.009,1.009,0,0,0,.984-.808,1.273,1.273,0,0,0,.037-.335Z" transform="translate(-190.3 -552.774)" fill="#002e75"/>
    <path id="Path_34" data-name="Path 34" d="M310.453,553.589a.641.641,0,1,1-.641-.622A.609.609,0,0,1,310.453,553.589Zm-1.216,5.785v-4.521h1.142v4.521Z" transform="translate(-190.504 -552.781)" fill="#002e75"/>
    <path id="Path_35" data-name="Path 35" d="M313,553.717v1.161h1.087v.854H313v2c0,.558.149.836.585.836a1.472,1.472,0,0,0,.446-.046l.018.864a2.514,2.514,0,0,1-.826.121,1.309,1.309,0,0,1-.984-.372,1.784,1.784,0,0,1-.362-1.272v-2.126h-.641v-.854h.641v-.845Z" transform="translate(-190.576 -552.807)" fill="#002e75"/>
    <path id="Path_36" data-name="Path 36" d="M319.311,557.135a2.24,2.24,0,0,1-2.321,2.4,2.186,2.186,0,0,1-2.265-2.331,2.232,2.232,0,0,1,2.339-2.4A2.17,2.17,0,0,1,319.311,557.135Zm-3.408.046c0,.872.436,1.532,1.123,1.532.65,0,1.105-.632,1.105-1.551,0-.705-.316-1.523-1.1-1.523C316.229,555.64,315.9,556.43,315.9,557.181Z" transform="translate(-190.698 -552.845)" fill="#002e75"/>
  </g>
</svg>
