<svg xmlns="http://www.w3.org/2000/svg" width="357.753" height="320" viewBox="0 0 357.753 320">
  <g id="make-it-rain-pana-2" transform="translate(-23.57 -55.02)">
    <g id="freepik--background-complete--inject-432" transform="translate(66.647 57.015)">
      <path id="Trazado_3200" data-name="Trazado 3200" d="M185.449,422.383c18.494-12.016,23.384-35.3,23.384-56.389,0-3.515.514-7.2-1.051-10.349s-5.4-5.38-8.6-4.005c-2.654,1.138-3.895,4.14-5.443,6.6a20.578,20.578,0,0,1-8.508,7.6c-2.275,1.082-5.072,1.7-7.244.4-2.97-1.77-3.16-5.972-3.049-9.48l.79-19.544c.134-3.492.269-7.062-.7-10.42s-3.279-6.517-6.573-7.56-7.473.735-8.287,4.132a31.759,31.759,0,0,0-.245,4.345c-.142,1.446-.877,3.034-2.275,3.389s-2.773-.672-3.784-1.73c-3.484-3.658-5.783-8.287-7.9-12.885s-4.2-9.306-7.347-13.264-7.568-7.173-12.561-7.624-10.444,2.457-11.85,7.331,1.272,9.986,4.266,14.078a78.2,78.2,0,0,0,15.681,16.029,6.292,6.292,0,0,1,2.623,3.01c.679,2.37-1.58,4.6-3.95,5.285-2.639.79-5.459.411-8.192.64s-5.735,1.335-6.849,3.879c-1.58,3.523,1.3,7.371,4.163,9.922a66.989,66.989,0,0,0,19.4,12.095c2.536,1.027,5.214,1.943,7.228,3.823s3.16,5.056,1.825,7.481-4.582,3.1-7.26,2.5-5.04-2.133-7.576-3.16c-4.74-1.983-10.957-1.856-14.172,2.188-2.117,2.662-2.425,6.454-1.509,9.749a25.629,25.629,0,0,0,5,8.816,67.26,67.26,0,0,0,28.021,21.148c11.012,4.242,21.33,5.64,32.524,1.967" transform="translate(-85.601 -107.53)" fill="#ebebeb"/>
      <path id="Trazado_3201" data-name="Trazado 3201" d="M184.772,423.835c-.482-8.366-.079-3.342-2.836-14.07a314,314,0,0,0-11.3-34.151q-1.73-4.456-3.421-8.8c-1.13-2.884-2.244-5.743-3.515-8.477a155.734,155.734,0,0,0-8.184-15.278c-2.836-4.74-5.7-9.124-8.413-13.209s-5.325-7.829-7.845-11.154A124.412,124.412,0,0,0,126.2,303.93c-1.667-1.62-3.01-2.828-3.95-3.642l-1.051-.909a2.647,2.647,0,0,0-.371-.3,1.994,1.994,0,0,0,.332.348l1,.964c.885.837,2.2,2.078,3.839,3.721a130.822,130.822,0,0,1,12.869,14.867c2.488,3.326,5.072,7.11,7.766,11.17s5.53,8.492,8.35,13.216a157.592,157.592,0,0,1,8.121,15.239c1.256,2.718,2.37,5.53,3.492,8.445l3.413,8.8a320.856,320.856,0,0,1,11.321,34.064c2.781,10.689,2.425,5.617,2.962,13.951" transform="translate(-87.073 -108.271)" fill="#e0e0e0"/>
      <path id="Trazado_3202" data-name="Trazado 3202" d="M174.867,363.821a7.431,7.431,0,0,0,.395-1.477c.213-.964.482-2.37.79-4.092.616-3.468,1.3-8.279,2.03-13.588s1.485-10.1,2.149-13.548c.324-1.722.6-3.113.79-4.076a6.778,6.778,0,0,0,.245-1.509,7.278,7.278,0,0,0-.49,1.446c-.276.948-.624,2.331-1.011,4.045-.79,3.436-1.58,8.232-2.37,13.548s-1.351,9.985-1.841,13.6c-.237,1.635-.435,3.018-.593,4.124A6.626,6.626,0,0,0,174.867,363.821Z" transform="translate(-98.42 -113.826)" fill="#e0e0e0"/>
      <path id="Trazado_3203" data-name="Trazado 3203" d="M118.33,361.43a9.277,9.277,0,0,0,1.785.276c1.153.142,2.812.34,4.866.648,4.1.585,9.741,1.58,15.91,2.97s11.7,2.891,15.673,4.092c1.991.585,3.587,1.1,4.692,1.454a9.921,9.921,0,0,0,1.738.49,9.055,9.055,0,0,0-1.659-.727c-1.082-.427-2.662-1.011-4.637-1.659-3.95-1.311-9.48-2.883-15.666-4.282a158.988,158.988,0,0,0-16-2.82c-2.062-.245-3.737-.371-4.9-.442A10.552,10.552,0,0,0,118.33,361.43Z" transform="translate(-86.548 -121.357)" fill="#e0e0e0"/>
      <path id="Trazado_3204" data-name="Trazado 3204" d="M197.51,423.028a2.166,2.166,0,0,0,.332-.537l.79-1.58c.711-1.39,1.683-3.428,2.852-5.972,2.37-5.072,5.356-12.189,8.579-20.081s6.17-15.01,8.405-20.145c1.1-2.488,2-4.534,2.662-6.059.292-.656.521-1.2.719-1.651a2.007,2.007,0,0,0,.205-.593,2.769,2.769,0,0,0-.324.537l-.79,1.58c-.711,1.4-1.683,3.436-2.852,5.98-2.37,5.072-5.364,12.189-8.587,20.081s-6.17,15.01-8.405,20.145c-1.09,2.489-1.991,4.534-2.662,6.051l-.711,1.659A2.687,2.687,0,0,0,197.51,423.028Z" transform="translate(-103.177 -122.411)" fill="#e0e0e0"/>
      <path id="Trazado_3205" data-name="Trazado 3205" d="M122.73,411.15a2.491,2.491,0,0,0,.585.261l1.714.64,6.32,2.291c5.348,1.935,12.7,4.693,20.808,7.75s15.492,5.751,20.871,7.576c2.694.909,4.882,1.628,6.4,2.094l1.754.521a2.063,2.063,0,0,0,.624.142,2.487,2.487,0,0,0-.585-.269l-1.714-.64-6.32-2.283c-5.34-1.935-12.687-4.693-20.8-7.75s-15.492-5.751-20.879-7.576c-2.686-.917-4.874-1.628-6.391-2.094l-1.754-.529A2.162,2.162,0,0,0,122.73,411.15Z" transform="translate(-87.472 -131.807)" fill="#e0e0e0"/>
      <path id="Trazado_3206" data-name="Trazado 3206" d="M369.545,230.492s-9.527-5.032-18.336,17.443-11.723,35.225-11.723,35.225-2.449,4.74-5.814,2.141-8.406-10.531-13.493-8.516c-5.285,2.086-6.478,8.318-4.566,17.127s5.388,28.25,5.7,30.02-.442,4.392-3.026,2.97-18.02-15.555-24.284-7.829,3.089,31.378,4.061,33.969.561,3.8-.648,4.59-5.941-4.456-10.5-8.295-10.507-7.489-13.754-2.725-2.623,23.131,17.672,51.088l10.27,12.34,15.918-2.457c33.756-7.347,46.451-20.642,47.21-26.354s-6.122-6.952-12.079-7.11-12.979.577-13.359-.79.118-2.552,2.575-3.847,25.193-12.719,25.659-22.649S346.572,337.156,343.7,336.5s-1.659-3.16-.284-4.226,16.945-13.3,24.237-18.6,10.546-10.744,8-15.8c-2.457-4.89-11.479-2.37-15.744-2.631S357,289.78,357,289.78s6.32-11.463,14.709-34.1-2.37-25.232-2.37-25.232" transform="translate(-118.755 -93.765)" fill="#ebebeb"/>
      <path id="Trazado_3207" data-name="Trazado 3207" d="M309.39,412c6.233-16.59,15.01-39.452,24.845-64.676s18.652-48.047,24.971-64.613l7.457-19.623,2.038-5.332.537-1.382c.126-.316.2-.466.2-.466a1.281,1.281,0,0,1-.15.482l-.5,1.4-1.943,5.372c-1.691,4.661-4.187,11.384-7.307,19.679-6.233,16.59-15.01,39.46-24.837,64.668s-18.66,48.055-24.979,64.621" transform="translate(-126.673 -99.205)" fill="#e0e0e0"/>
      <path id="Trazado_3208" data-name="Trazado 3208" d="M341.29,303.39a5.287,5.287,0,0,1,.505,1.043c.3.679.7,1.683,1.193,2.923.98,2.48,2.236,5.941,3.555,9.788s2.449,7.228,3.334,9.851l1.035,2.978a5.079,5.079,0,0,1,.332,1.114,5.585,5.585,0,0,1-.513-1.043c-.3-.679-.7-1.683-1.177-2.931-.956-2.488-2.165-5.964-3.484-9.812l-3.429-9.828-1.051-2.97A5.273,5.273,0,0,1,341.29,303.39Z" transform="translate(-133.373 -109.176)" fill="#e0e0e0"/>
      <path id="Trazado_3209" data-name="Trazado 3209" d="M355.79,335.29c-.055-.126,6.968-3.034,15.681-6.486s15.8-6.162,15.863-6.035-6.968,3.041-15.681,6.494S355.837,335.424,355.79,335.29Z" transform="translate(-136.418 -113.245)" fill="#e0e0e0"/>
      <path id="Trazado_3210" data-name="Trazado 3210" d="M334.52,385.7a5.209,5.209,0,0,1,1.169-.166l3.207-.308c2.7-.26,6.438-.632,10.538-1.2s7.813-1.185,10.483-1.667l3.16-.561a5.137,5.137,0,0,1,1.177-.15,5.7,5.7,0,0,1-1.137.34c-.735.19-1.809.442-3.16.719-2.662.569-6.367,1.256-10.483,1.817s-7.9.885-10.586,1.059c-1.359.079-2.457.127-3.215.142A5.093,5.093,0,0,1,334.52,385.7Z" transform="translate(-131.951 -125.612)" fill="#e0e0e0"/>
      <path id="Trazado_3211" data-name="Trazado 3211" d="M314.39,357.8a4.826,4.826,0,0,1,.711.83l1.793,2.37c1.493,2.014,3.531,4.827,5.759,7.947s4.226,5.964,5.648,8.034l1.659,2.465a4.913,4.913,0,0,1,.561.948,4.592,4.592,0,0,1-.719-.829c-.482-.648-1.082-1.446-1.793-2.37-1.493-2.022-3.531-4.827-5.759-7.947s-4.219-5.964-5.64-8.034l-1.667-2.465A4.215,4.215,0,0,1,314.39,357.8Z" transform="translate(-127.723 -120.603)" fill="#e0e0e0"/>
      <path id="Trazado_3212" data-name="Trazado 3212" d="M290.21,397.93a6.976,6.976,0,0,1,.9,1.074l2.315,3.034c1.928,2.575,4.566,6.154,7.458,10.128s5.49,7.584,7.355,10.214l2.18,3.16a7.058,7.058,0,0,1,.743,1.193,7.524,7.524,0,0,1-.9-1.074l-2.307-3.041c-1.936-2.576-4.574-6.154-7.465-10.128s-5.53-7.584-7.355-10.214l-2.18-3.16A8.027,8.027,0,0,1,290.21,397.93Z" transform="translate(-122.645 -129.031)" fill="#e0e0e0"/>
      <path id="Trazado_3213" data-name="Trazado 3213" d="M316.34,431.658a7.665,7.665,0,0,1,1.477-.253l4.053-.537c3.421-.45,8.137-1.09,13.327-1.951s9.867-1.738,13.248-2.41l4.013-.79a9.149,9.149,0,0,1,1.477-.237,7.439,7.439,0,0,1-1.438.427c-.932.245-2.291.569-3.95.948-3.373.79-8.05,1.706-13.248,2.56s-9.93,1.446-13.367,1.809c-1.714.174-3.1.308-4.068.371A9.322,9.322,0,0,1,316.34,431.658Z" transform="translate(-128.133 -134.817)" fill="#e0e0e0"/>
      <path id="Trazado_3214" data-name="Trazado 3214" d="M366.178,158.39s-4.534,5.933-13.374,4.25c-5.467-1.043-16.306-1.58-17.7,2.465l1.628,12.189a33.74,33.74,0,0,1,14.5-.118c7.2,1.73,17.593-3.373,17.593-3.373Z" transform="translate(-132.073 -78.724)" fill="#ebebeb"/>
      <path id="Trazado_3215" data-name="Trazado 3215" d="M354.371,177.093a5.877,5.877,0,0,1-5.222-7.2c.79-2.955,5.214-4.321,8.168-3.508a5.53,5.53,0,0,1,3.879,6.826C360.383,176.137,357.428,177.346,354.371,177.093Z" transform="translate(-134.991 -80.355)" fill="#f5f5f5"/>
      <path id="Trazado_3216" data-name="Trazado 3216" d="M354.507,175.461c0-.095.253-.126.648-.15a6.534,6.534,0,0,0,1.58-.19,2.584,2.584,0,0,0,.845-.427,1.2,1.2,0,0,0,.466-.735.924.924,0,0,0-.269-.79,1.509,1.509,0,0,0-1.035-.269h-.79a3.018,3.018,0,0,1-.964-.205,1.911,1.911,0,0,1-.474-.277,1.8,1.8,0,0,1-.4-.419,1.9,1.9,0,0,1-.3-1.019,1.936,1.936,0,0,1,.853-1.58,2.812,2.812,0,0,1,1.311-.482,3.781,3.781,0,0,1,1.059,0,4.744,4.744,0,0,1,.735.182c.395.142.593.269.577.355s-.253.134-.648.158a7.411,7.411,0,0,0-1.58.182,2.2,2.2,0,0,0-.79.427.79.79,0,0,0-.3.7.649.649,0,0,0,.118.34.553.553,0,0,0,.126.111.662.662,0,0,0,.182.095,4.742,4.742,0,0,0,1.343.1,4.237,4.237,0,0,1,.948.126,2.51,2.51,0,0,1,.506.205,1.932,1.932,0,0,1,.45.34,2.126,2.126,0,0,1,.553,1.936,2.237,2.237,0,0,1-1.035,1.4,3.161,3.161,0,0,1-1.3.442,4.289,4.289,0,0,1-1.8-.213C354.689,175.682,354.492,175.548,354.507,175.461Z" transform="translate(-136.004 -80.928)" fill="#ebebeb"/>
      <path id="Trazado_3217" data-name="Trazado 3217" d="M358.266,176.635c-.182,0-.561-1.951-.853-4.408s-.379-4.463-.2-4.487.561,1.951.853,4.408S358.447,176.572,358.266,176.635Z" transform="translate(-136.697 -80.688)" fill="#ebebeb"/>
      <path id="Trazado_3218" data-name="Trazado 3218" d="M356.994,176.674a13.151,13.151,0,0,1-.79-4c-.253-2.228-.332-4.061-.15-4.076s.545,1.77.79,4S357.176,176.65,356.994,176.674Z" transform="translate(-136.452 -80.868)" fill="#ebebeb"/>
      <g id="Grupo_667" data-name="Grupo 667" transform="translate(204.244 81.894)" opacity="0.5">
        <path id="Trazado_3219" data-name="Trazado 3219" d="M338.086,176.591l-1.446-11.1.087-.071c4.321-3.16,12.292-1.841,17.569-.956.908.15,1.77.292,2.512.395a9.843,9.843,0,0,0,8.737-3.65h.395l1.793,11.929-.1.071a22.91,22.91,0,0,1-18.328,2.844c-4.2-1.224-10.941.482-11,.5Zm-1.027-10.918,1.359,10.428c1.208-.292,7.07-1.58,11-.442a22.491,22.491,0,0,0,17.854-2.71l-1.635-11.115a8.6,8.6,0,0,1-.79.79,10.464,10.464,0,0,1-8.105,2.678c-.742-.1-1.58-.245-2.52-.4C349.058,163.983,341.261,162.679,337.059,165.673Z" transform="translate(-336.64 -161.21)" fill="#fafafa"/>
      </g>
      <path id="Trazado_3220" data-name="Trazado 3220" d="M286.317,69.928a13.688,13.688,0,0,1-13.43-3.95c-3.95-3.95-12.64-10.4-16.068-7.852l-5.459,11.06a33.591,33.591,0,0,1,12.095,8c5.008,5.451,16.479,7.023,16.479,7.023Z" transform="translate(-114.486 -57.545)" fill="#ebebeb"/>
      <path id="Trazado_3221" data-name="Trazado 3221" d="M267.525,78.068a5.87,5.87,0,0,1-.316-8.887c2.323-2,6.739-.671,8.737,1.651a5.53,5.53,0,0,1-.6,7.829C273.024,80.683,269.9,80.011,267.525,78.068Z" transform="translate(-117.419 -59.784)" fill="#f5f5f5"/>
      <path id="Trazado_3222" data-name="Trazado 3222" d="M268.715,76.467c.071-.071.284,0,.616.237a6.708,6.708,0,0,0,1.4.7,2.322,2.322,0,0,0,.94.119,1.185,1.185,0,0,0,.79-.348.932.932,0,0,0,.213-.79c-.047-.245-.292-.513-.711-.79-.2-.142-.427-.292-.664-.474a2.918,2.918,0,0,1-.687-.7,2.306,2.306,0,0,1-.245-.506,1.793,1.793,0,0,1,.237-1.58,1.968,1.968,0,0,1,.735-.64,1.991,1.991,0,0,1,.861-.205,2.773,2.773,0,0,1,1.351.34,3.9,3.9,0,0,1,.861.616,4.95,4.95,0,0,1,.506.569c.245.332.34.545.276.608s-.276,0-.624-.229a7.226,7.226,0,0,0-1.39-.711,2.227,2.227,0,0,0-.908-.1.79.79,0,0,0-.64.419.631.631,0,0,0-.087.348.385.385,0,0,0,.039.158,1,1,0,0,0,.095.182,4.788,4.788,0,0,0,1.059.837,4.328,4.328,0,0,1,.719.632,2.625,2.625,0,0,1,.3.45,1.729,1.729,0,0,1,.182.537,2.093,2.093,0,0,1-.616,1.912,2.243,2.243,0,0,1-1.643.585,3.271,3.271,0,0,1-1.319-.355,4.123,4.123,0,0,1-1.375-1.185C268.738,76.751,268.652,76.522,268.715,76.467Z" transform="translate(-118.127 -60.474)" fill="#ebebeb"/>
      <path id="Trazado_3223" data-name="Trazado 3223" d="M270.995,79.282c-.158-.087.624-1.935,1.762-4.132s2.18-3.95,2.37-3.831-.624,1.935-1.754,4.132A16.046,16.046,0,0,1,270.995,79.282Z" transform="translate(-118.605 -60.437)" fill="#ebebeb"/>
      <path id="Trazado_3224" data-name="Trazado 3224" d="M269.994,78.64c-.158-.079.545-1.77,1.58-3.76s1.991-3.547,2.157-3.46-.545,1.77-1.58,3.76A13.834,13.834,0,0,1,269.994,78.64Z" transform="translate(-118.395 -60.458)" fill="#ebebeb"/>
      <g id="Grupo_668" data-name="Grupo 668" transform="translate(138.422 1.08)" opacity="0.5">
        <path id="Trazado_3225" data-name="Trazado 3225" d="M253.32,68.935l5.009-10.017h.111c5.356-.221,11.226,5.34,15.113,9.014.663.64,1.3,1.232,1.856,1.738a9.843,9.843,0,0,0,9.29,1.849l.332.205L279.808,82.61h-.126a22.909,22.909,0,0,1-16.74-7.829c-2.8-3.357-9.346-5.712-9.409-5.735Zm5.277-9.63-4.74,9.409c1.161.442,6.747,2.646,9.369,5.783a22.53,22.53,0,0,0,16.321,7.726l4.874-10.175a8.314,8.314,0,0,1-1.074.221,10.593,10.593,0,0,1-8.224-2.307c-.553-.506-1.193-1.106-1.864-1.746C269.475,64.614,263.732,59.171,258.6,59.305Z" transform="translate(-253.32 -58.912)" fill="#fafafa"/>
      </g>
      <path id="Trazado_3226" data-name="Trazado 3226" d="M160.794,135.255s-7.457-.513-10.918-8.816c-2.149-5.135-7.694-14.457-11.85-13.43L128.76,121.1a33.582,33.582,0,0,1,8.089,12.047c2.536,6.96,12.521,12.814,12.521,12.814Z" transform="translate(-88.739 -69.177)" fill="#f5f5f5"/>
      <path id="Trazado_3227" data-name="Trazado 3227" d="M140.811,135.27a5.87,5.87,0,0,1,3.16-8.319c2.915-.948,6.478,1.975,7.434,4.89a5.53,5.53,0,0,1-3.555,6.991C144.927,139.781,142.288,138.011,140.811,135.27Z" transform="translate(-91.12 -72.083)" fill="#ebebeb"/>
      <path id="Trazado_3228" data-name="Trazado 3228" d="M142.7,134.191c.087,0,.245.142.474.458a6.9,6.9,0,0,0,1.019,1.185,2.568,2.568,0,0,0,.79.474,1.233,1.233,0,0,0,.861,0,.924.924,0,0,0,.506-.656,1.517,1.517,0,0,0-.34-1.011c-.134-.213-.292-.434-.435-.7a3,3,0,0,1-.363-.916,1.852,1.852,0,0,1,0-.553,1.533,1.533,0,0,1,.134-.561,1.816,1.816,0,0,1,.687-.79,1.9,1.9,0,0,1,.924-.316,2.141,2.141,0,0,1,.869.142,2.8,2.8,0,0,1,1.122.829,3.465,3.465,0,0,1,.553.9,3.943,3.943,0,0,1,.253.719c.1.4.111.64,0,.672s-.253-.126-.49-.45a7.11,7.11,0,0,0-1.011-1.193,2.266,2.266,0,0,0-.79-.442.79.79,0,0,0-.79.134.664.664,0,0,0-.213.292.386.386,0,0,0,0,.166,1.026,1.026,0,0,0,0,.205,4.736,4.736,0,0,0,.656,1.177,3.945,3.945,0,0,1,.419.861,2.24,2.24,0,0,1,.1.529,1.949,1.949,0,0,1,0,.569,2.117,2.117,0,0,1-1.311,1.525,2.22,2.22,0,0,1-1.73-.095,3.158,3.158,0,0,1-1.09-.829,4.25,4.25,0,0,1-.79-1.619C142.617,134.459,142.625,134.222,142.7,134.191Z" transform="translate(-91.654 -72.931)" fill="#f5f5f5"/>
      <path id="Trazado_3229" data-name="Trazado 3229" d="M143.4,137.746c-.119-.142,1.319-1.58,3.207-3.16s3.523-2.781,3.634-2.639-1.319,1.58-3.207,3.16S143.517,137.88,143.4,137.746Z" transform="translate(-91.811 -73.168)" fill="#f5f5f5"/>
      <path id="Trazado_3230" data-name="Trazado 3230" d="M142.8,136.732c-.118-.134,1.177-1.422,2.891-2.876s3.207-2.5,3.318-2.37-1.177,1.43-2.891,2.876S142.956,136.875,142.8,136.732Z" transform="translate(-91.685 -73.072)" fill="#f5f5f5"/>
      <g id="Grupo_669" data-name="Grupo 669" transform="translate(41.696 44.749)" opacity="0.5">
        <path id="Trazado_3231" data-name="Trazado 3231" d="M130.88,121.521l8.461-7.331h.111c5.032,1.856,8.311,9.243,10.483,14.133.379.837.735,1.635,1.051,2.307a9.816,9.816,0,0,0,7.9,5.277l.229.316-9,8.058-.119-.055a22.949,22.949,0,0,1-12.442-13.69c-1.3-4.179-6.431-8.864-6.486-8.911Zm8.54-6.881-7.955,6.889c.916.845,5.222,5.024,6.438,8.927a22.523,22.523,0,0,0,12.1,13.43l8.405-7.521a7.821,7.821,0,0,1-1.074-.213,10.6,10.6,0,0,1-6.707-5.285c-.324-.679-.671-1.477-1.051-2.323C147.454,123.725,144.239,116.5,139.42,114.64Z" transform="translate(-130.88 -114.19)" fill="#ebebeb"/>
      </g>
      <path id="Trazado_3232" data-name="Trazado 3232" d="M96.514,229.67a9.48,9.48,0,0,1-7.592,6.036c-3.784.671-10.91,3.01-10.823,5.956l4.061,7.465a23.312,23.312,0,0,1,9.33-3.65c5.072-.656,10.523-6.51,10.523-6.51Z" transform="translate(-78.099 -93.694)" fill="#f5f5f5"/>
      <path id="Trazado_3233" data-name="Trazado 3233" d="M93.318,246.147a4.068,4.068,0,0,1-5.151-3.357c-.205-2.109,2.307-4.076,4.416-4.274a3.839,3.839,0,0,1,4.187,3.452C96.967,244.077,95.356,245.578,93.318,246.147Z" transform="translate(-80.211 -95.548)" fill="#ebebeb"/>
      <path id="Trazado_3234" data-name="Trazado 3234" d="M92.845,245.382c0-.063.134-.142.387-.253a4.95,4.95,0,0,0,.948-.506,1.721,1.721,0,0,0,.442-.482.79.79,0,0,0,.118-.585.647.647,0,0,0-.363-.442,1.066,1.066,0,0,0-.735.079c-.166.063-.34.134-.537.19a1.959,1.959,0,0,1-.671.11,1.575,1.575,0,0,1-.379-.063,1.243,1.243,0,0,1-.355-.174,1.359,1.359,0,0,1-.442-.585,1.438,1.438,0,0,1-.071-.679,1.382,1.382,0,0,1,.229-.561,1.865,1.865,0,0,1,.727-.632,2.37,2.37,0,0,1,.7-.237,3.747,3.747,0,0,1,.513-.063c.292,0,.45,0,.458.087s-.126.15-.371.261a4.964,4.964,0,0,0-.956.506,1.336,1.336,0,0,0-.419.474.537.537,0,0,0,0,.521.427.427,0,0,0,.158.19l.111.047h.142a3.287,3.287,0,0,0,.893-.269,2.922,2.922,0,0,1,.64-.15,1.528,1.528,0,0,1,.379,0,1.009,1.009,0,0,1,.371.111,1.461,1.461,0,0,1,.837,1.106,1.58,1.58,0,0,1-.324,1.161,2.109,2.109,0,0,1-.727.6,2.805,2.805,0,0,1-1.217.308C93.019,245.485,92.861,245.445,92.845,245.382Z" transform="translate(-80.845 -95.968)" fill="#f5f5f5"/>
      <path id="Trazado_3235" data-name="Trazado 3235" d="M95.458,245.393a20.945,20.945,0,0,1-2.868-5.483,10.887,10.887,0,0,1,1.643,2.639A10.267,10.267,0,0,1,95.458,245.393Z" transform="translate(-81.142 -95.844)" fill="#f5f5f5"/>
      <path id="Trazado_3236" data-name="Trazado 3236" d="M94.667,245.759a8.454,8.454,0,0,1-1.509-2.37,8.793,8.793,0,0,1-1.1-2.6,8.79,8.79,0,0,1,1.5,2.37A9.054,9.054,0,0,1,94.667,245.759Z" transform="translate(-81.031 -96.029)" fill="#f5f5f5"/>
      <g id="Grupo_670" data-name="Grupo 670" transform="translate(0.712 137.54)" opacity="0.5">
        <path id="Trazado_3237" data-name="Trazado 3237" d="M82.689,248.453,79,241.643v-.071c2.007-3.113,7.481-4.219,11.107-4.945.624-.126,1.217-.245,1.722-.363a6.786,6.786,0,0,0,4.74-4.511l.245-.1,4.076,7.284-.047.063a15.847,15.847,0,0,1-11.107,6.32c-3.01.245-6.944,3-6.983,3.033Zm-3.35-6.794,3.444,6.4c.711-.49,4.179-2.765,6.991-2.994a15.579,15.579,0,0,0,10.862-6.154l-3.808-6.8a4.638,4.638,0,0,1-.308.7,7.268,7.268,0,0,1-4.574,3.729c-.506.119-1.1.237-1.722.363C86.671,237.606,81.315,238.689,79.34,241.659Z" transform="translate(-79 -231.65)" fill="#ebebeb"/>
      </g>
      <path id="Trazado_3238" data-name="Trazado 3238" d="M461.42,143.06a9.48,9.48,0,0,1-9.685.466c-3.468-1.667-10.618-3.95-12.261-1.493L438.4,150.47a23.132,23.132,0,0,1,9.709,2.488c4.5,2.425,12.347.861,12.347.861Z" transform="translate(-153.767 -75.062)" fill="#f5f5f5"/>
      <path id="Trazado_3239" data-name="Trazado 3239" d="M450.555,152.779a4.06,4.06,0,0,1-2.212-5.735c1.067-1.825,4.25-1.959,6.075-.893A3.832,3.832,0,0,1,455.8,151.4C454.734,153.23,452.546,153.514,450.555,152.779Z" transform="translate(-155.755 -76.012)" fill="#ebebeb"/>
      <path id="Trazado_3240" data-name="Trazado 3240" d="M451,151.57c0-.055.19,0,.458,0a4.528,4.528,0,0,0,1.066.142,1.818,1.818,0,0,0,.64-.134.861.861,0,0,0,.443-.4.656.656,0,0,0-.04-.569,1.066,1.066,0,0,0-.648-.363c-.166-.047-.348-.095-.545-.166a2.163,2.163,0,0,1-.608-.3,1.728,1.728,0,0,1-.269-.269,1.263,1.263,0,0,1-.182-.356,1.3,1.3,0,0,1,0-.735,1.321,1.321,0,0,1,.34-.585,1.25,1.25,0,0,1,.513-.324,1.968,1.968,0,0,1,.956-.095,2.748,2.748,0,0,1,.7.213,4.409,4.409,0,0,1,.458.253c.237.166.348.284.324.34s-.19.047-.458,0a5.158,5.158,0,0,0-1.074-.15,1.5,1.5,0,0,0-.616.142.545.545,0,0,0-.324.411.416.416,0,0,0,0,.245.276.276,0,0,0,.063.1.4.4,0,0,0,.1.095,3.16,3.16,0,0,0,.877.308,2.482,2.482,0,0,1,.616.253,1.945,1.945,0,0,1,.3.221,1.775,1.775,0,0,1,.237.308,1.454,1.454,0,0,1,0,1.39,1.58,1.58,0,0,1-.932.79,2.371,2.371,0,0,1-.948.071,2.916,2.916,0,0,1-1.161-.466C451.095,151.751,451,151.625,451,151.57Z" transform="translate(-156.413 -76.414)" fill="#f5f5f5"/>
      <path id="Trazado_3241" data-name="Trazado 3241" d="M453.291,152.91a10.525,10.525,0,0,1,.213-3.1,10.507,10.507,0,0,1,.664-3.033,11.22,11.22,0,0,1-.213,3.1A10.5,10.5,0,0,1,453.291,152.91Z" transform="translate(-156.888 -76.286)" fill="#f5f5f5"/>
      <path id="Trazado_3242" data-name="Trazado 3242" d="M452.448,152.742a8.769,8.769,0,0,1,.174-2.812,8.563,8.563,0,0,1,.624-2.749,9.04,9.04,0,0,1-.174,2.812,8.891,8.891,0,0,1-.624,2.749Z" transform="translate(-156.708 -76.37)" fill="#f5f5f5"/>
      <g id="Grupo_671" data-name="Grupo 671" transform="translate(285.549 66.638)" opacity="0.5">
        <path id="Trazado_3243" data-name="Trazado 3243" d="M439.56,149.981l1-7.671h.079c3.444-1.359,8.532.948,11.905,2.473.577.261,1.122.513,1.58.711a6.794,6.794,0,0,0,6.486-.893l.261.055-.948,8.295h-.079a15.839,15.839,0,0,1-12.711-1.351c-2.591-1.58-7.394-1.619-7.442-1.619Zm1.256-7.473-.948,7.2c.861,0,5.008.2,7.426,1.651a15.547,15.547,0,0,0,12.411,1.359l.877-7.75a4.738,4.738,0,0,1-.648.387,7.283,7.283,0,0,1-5.893.355L452.46,145C449.135,143.5,444.158,141.252,440.816,142.508Z" transform="translate(-439.56 -141.898)" fill="#ebebeb"/>
      </g>
    </g>
    <g id="freepik--Floor--inject-432" transform="translate(23.57 374.601)">
      <path id="Trazado_3244" data-name="Trazado 3244" d="M381.323,459.765c0,.118-80.089.213-178.869.213s-178.885-.071-178.885-.213,80.073-.205,178.885-.205S381.323,459.655,381.323,459.765Z" transform="translate(-23.57 -459.56)" fill="#263238"/>
    </g>
    <g id="freepik--Character--inject-432" transform="translate(37.501 170.919)">
      <path id="Trazado_3245" data-name="Trazado 3245" d="M226.333,232.239a43.635,43.635,0,0,1-2.82-8.089,14.6,14.6,0,0,1,.5-8.453,8.848,8.848,0,0,1,6.186-5.443c1.73-.34,3.587-.055,5.245-.663,1.92-.711,3.2-2.473,4.693-3.871a14.946,14.946,0,0,1,8.571-3.9,8.863,8.863,0,0,1,4.914.711,4.985,4.985,0,0,1,2.82,3.895,23.7,23.7,0,0,1,6-1.446,7.955,7.955,0,0,1,5.783,1.714,4.85,4.85,0,0,1,1.335,5.593,3.95,3.95,0,0,1,5.088,1.438,5.1,5.1,0,0,1-.324,5.53,9.48,9.48,0,0,1-5.68,3.263,13.76,13.76,0,0,1-6.012-.166" transform="translate(-79.407 -201.73)" fill="#263238"/>
      <path id="Trazado_3246" data-name="Trazado 3246" d="M231.965,291.553l27.65-2.212c.174-3.231-.055-15.721-.055-15.721s11.5-1.793,11.644-13.3-1.849-37.919-1.849-37.919h0a39.981,39.981,0,0,0-40.179,5.048l-1.706,1.311Z" transform="translate(-80.323 -205.389)" fill="#b78876"/>
      <path id="Trazado_3247" data-name="Trazado 3247" d="M264.13,286.756a26.75,26.75,0,0,1-15.01-4.266s3.547,8.279,15.01,7.244Z" transform="translate(-84.869 -218.691)" fill="#aa6550"/>
      <path id="Trazado_3248" data-name="Trazado 3248" d="M227.235,246.311c-.19-.087-7.9-2.37-7.647,5.53s8.089,6,8.1,5.767S227.235,246.311,227.235,246.311Z" transform="translate(-78.666 -211.015)" fill="#b78876"/>
      <path id="Trazado_3249" data-name="Trazado 3249" d="M225.707,255.356a3.4,3.4,0,0,1-.363.213,1.358,1.358,0,0,1-1.019.047c-.845-.277-1.58-1.58-1.667-2.986a4.543,4.543,0,0,1,.316-1.975,1.58,1.58,0,0,1,1-1.082.7.7,0,0,1,.79.348c.111.213.063.371.1.387s.166-.142.095-.458a.9.9,0,0,0-.324-.49,1.074,1.074,0,0,0-.79-.174,1.935,1.935,0,0,0-1.39,1.264,4.582,4.582,0,0,0-.4,2.212c.095,1.58.956,3.041,2.1,3.334a1.454,1.454,0,0,0,1.248-.253C225.7,255.569,225.739,255.356,225.707,255.356Z" transform="translate(-79.184 -211.693)" fill="#aa6550"/>
      <path id="Trazado_3250" data-name="Trazado 3250" d="M274.848,245.444a1.643,1.643,0,0,1-1.58,1.651,1.58,1.58,0,0,1-1.7-1.477,1.643,1.643,0,0,1,1.58-1.659,1.58,1.58,0,0,1,1.7,1.485Z" transform="translate(-89.584 -210.598)" fill="#263238"/>
      <path id="Trazado_3251" data-name="Trazado 3251" d="M276.005,243.294c-.206.221-1.446-.7-3.216-.7s-3.065.885-3.255.671.111-.482.68-.9a4.52,4.52,0,0,1,2.607-.79,4.394,4.394,0,0,1,2.56.79C275.918,242.812,276.108,243.2,276.005,243.294Z" transform="translate(-89.145 -210.099)" fill="#263238"/>
      <path id="Trazado_3252" data-name="Trazado 3252" d="M252.849,245.444a1.643,1.643,0,0,1-1.58,1.651,1.58,1.58,0,0,1-1.7-1.477,1.643,1.643,0,0,1,1.58-1.659,1.58,1.58,0,0,1,1.7,1.485Z" transform="translate(-84.964 -210.598)" fill="#263238"/>
      <path id="Trazado_3253" data-name="Trazado 3253" d="M254.014,243.714c-.205.213-1.446-.7-3.215-.7s-3.065.893-3.255.671c-.095-.095.111-.482.679-.893a4.463,4.463,0,0,1,2.607-.79,4.337,4.337,0,0,1,2.56.79C253.927,243.232,254.117,243.619,254.014,243.714Z" transform="translate(-84.534 -210.187)" fill="#263238"/>
      <path id="Trazado_3254" data-name="Trazado 3254" d="M263.641,256.853a11.551,11.551,0,0,1,2.876-.521c.45-.047.877-.134.956-.442a2.37,2.37,0,0,0-.3-1.335l-1.335-3.444c-1.856-4.89-3.2-8.919-3-8.99s1.864,3.839,3.713,8.69q.671,1.809,1.28,3.46a2.6,2.6,0,0,1,.237,1.77,1.138,1.138,0,0,1-.743.664,2.894,2.894,0,0,1-.79.1A11.2,11.2,0,0,1,263.641,256.853Z" transform="translate(-87.746 -210.212)" fill="#263238"/>
      <path id="Trazado_3255" data-name="Trazado 3255" d="M257.2,262.32c.284,0,.292,1.9,1.935,3.262s3.681,1.154,3.7,1.422c0,.119-.458.371-1.319.395a4.8,4.8,0,0,1-3.089-1.082,4.164,4.164,0,0,1-1.5-2.733C256.855,262.778,257.069,262.3,257.2,262.32Z" transform="translate(-86.506 -214.455)" fill="#263238"/>
      <path id="Trazado_3256" data-name="Trazado 3256" d="M275.318,239.343c-.316.395-1.533,0-2.994,0s-2.709.269-2.994-.15c-.126-.205.071-.608.616-.987a4.337,4.337,0,0,1,4.819.15C275.287,238.695,275.453,239.145,275.318,239.343Z" transform="translate(-89.106 -209.252)" fill="#263238"/>
      <path id="Trazado_3257" data-name="Trazado 3257" d="M250.989,235.455c-.2.221-.648.126-1.24,0a10.942,10.942,0,0,0-4.376-.142c-.6.071-1.059.134-1.24-.095s0-.719.616-1.224a4.653,4.653,0,0,1,5.712.189C251.037,234.744,251.179,235.258,250.989,235.455Z" transform="translate(-83.808 -208.319)" fill="#263238"/>
      <path id="Trazado_3258" data-name="Trazado 3258" d="M269.56,224.976a26.994,26.994,0,0,1-16.764-.853c-5.964-2.259-12.719-2.97-14.062-1.683s-1.059,7.165-6.509,9.44c0,0,1.517,11.115-2.97,11.163s-3.452-17.506-3.452-17.506l10.341-6.415,11.629-3.421L258.9,214.58l10.665,2.133Z" transform="translate(-79.951 -204.429)" fill="#263238"/>
      <path id="Trazado_3259" data-name="Trazado 3259" d="M313.2,336.061s20.034,20.627,27.1,17.561c19.2-8.295,34.815-25.864,40.187-32.16.229-1.185.458-2.575.656-4.234a12.642,12.642,0,0,0-.237-4.29,19.531,19.531,0,0,0-1.691-5.1c-.877-1.414.387-3.113,1.77-2.536s4.74,4.313,5.443,9.575a2.156,2.156,0,0,0,2.986,1.367c3.476-1.146,15.286-5.727,17.38-6.217,1.872-.435,4.108-.324,2.86,1.043s-9.954,6.462-9.954,6.462,11.281-6.9,12.213-5.214c.64,1.169-1.738,3.855-9.654,7.679,0,0,9.338-5.617,10.933-5.435,3.586.419-7.584,7.292-7.584,7.292,7.9-4.74,7.5-5.064,8.35-4.14.64.687-.742,2.259-4.621,5.419-3.16,2.567-5.893,5.854-10.475,10.017h0s-47.4,65.924-77.221,45.693c-16.076-10.91-20.492-16.408-29.617-24.671" transform="translate(-93.879 -223.457)" fill="#b78876"/>
      <path id="Trazado_3260" data-name="Trazado 3260" d="M429.879,328.2c.119.2,2.591-1.153,5.53-3.026s5.214-3.547,5.08-3.737-2.607,1.169-5.53,3.033S429.768,328.024,429.879,328.2Z" transform="translate(-122.831 -226.866)" fill="#aa6550"/>
      <path id="Trazado_3261" data-name="Trazado 3261" d="M427.169,324.71c.111.2,2.836-1.1,6.075-2.9s5.775-3.42,5.664-3.626-2.828,1.1-6.075,2.9S427.034,324.5,427.169,324.71Z" transform="translate(-122.261 -226.183)" fill="#aa6550"/>
      <path id="Trazado_3262" data-name="Trazado 3262" d="M424.379,321.1c.111.206,2.7-.98,5.791-2.638s5.53-3.16,5.4-3.381-2.7.98-5.79,2.639S424.268,320.9,424.379,321.1Z" transform="translate(-121.675 -225.53)" fill="#aa6550"/>
      <path id="Trazado_3263" data-name="Trazado 3263" d="M141.916,364.61s-10.1,26.923-17.791,26.946c-20.935.063-42.256-9.756-49.7-13.374-.679-1-1.454-2.18-2.3-3.618a12.813,12.813,0,0,1-1.5-4.021,19.971,19.971,0,0,1-.49-5.356,1.606,1.606,0,0,0-2.639-1.58c-1.059,1.122-2.623,5.854-1.153,10.957a2.157,2.157,0,0,1-2.188,2.449c-3.642.34-16.3.869-18.422,1.264-1.888.355-3.895,1.351-2.2,2.1,1.232.545,6.857,1.319,9.843,1.7-3.626-.411-11.281-1.114-11.407.348-.079.861,1.264,1.793,4.574,2.433-2.259-.15-4.3-.182-4.843.142-3.16,1.817,9.867,3.634,9.867,3.634-9.116-1.193-8.9-1.627-9.314-.442-.308.885,1.58,1.777,6.407,3.16,3.95,1.09,7.742,2.994,13.611,4.977,0,0,69.851,41.411,89.055,10.933,10.357-16.432,12.205-23.241,17.253-34.475Z" transform="translate(-41.204 -235.629)" fill="#b78876"/>
      <path id="Trazado_3264" data-name="Trazado 3264" d="M57.926,395.87c0,.229-2.836,0-6.32-.561s-6.193-1.153-6.146-1.383,2.86,0,6.32.561S57.95,395.641,57.926,395.87Z" transform="translate(-42.098 -242.075)" fill="#aa6550"/>
      <path id="Trazado_3265" data-name="Trazado 3265" d="M58.737,391.625c0,.229-3.034.134-6.723-.213s-6.667-.79-6.644-1.059,3.026-.127,6.723.221S58.752,391.427,58.737,391.625Z" transform="translate(-42.079 -241.314)" fill="#aa6550"/>
      <path id="Trazado_3266" data-name="Trazado 3266" d="M59.977,387.186c0,.229-2.868.19-6.367-.1s-6.32-.7-6.32-.932,2.868-.182,6.367.1S59.993,386.957,59.977,387.186Z" transform="translate(-42.482 -240.431)" fill="#aa6550"/>
      <path id="Trazado_3267" data-name="Trazado 3267" d="M306.852,353.1l-33.045-36.877c-9.2-9.045-14.117-11.747-26.923-13.264-2.093-.245-3.76-.4-4.953-.553a48.914,48.914,0,0,1-29.49,0h0c-4.558.19-8.334,1.58-12.205,2.37-12.213,2.37-21,11.234-23.439,19.442h0L149.25,378.028l23.265,19.552,21.251-33.732,1.3,35.9-1.319,26.86,81.566.237L271.6,363.863l21.954,17.87Z" transform="translate(-63.895 -222.874)" fill="#f83f00"/>
      <path id="Trazado_3268" data-name="Trazado 3268" d="M205.964,351.57a5.069,5.069,0,0,1,.1,1.2c0,.79.055,1.88.079,3.263,0,2.749.055,6.557,0,10.76s-.071,8.01-.134,10.76c0,1.382-.071,2.5-.1,3.263a4.824,4.824,0,0,1-.118,1.193,4.737,4.737,0,0,1-.111-1.193c0-.79-.055-1.888-.079-3.263-.04-2.757-.055-6.557,0-10.768s.071-8,.134-10.76c0-1.375.071-2.488.111-3.263A4.451,4.451,0,0,1,205.964,351.57Z" transform="translate(-75.722 -233.199)" fill="#263238"/>
      <path id="Trazado_3269" data-name="Trazado 3269" d="M304.986,397.445a12.15,12.15,0,0,1-.237-1.848c-.118-1.3-.269-3-.458-5.056-.355-4.274-.79-10.183-1.264-16.708s-.853-12.4-1.106-16.677c-.1-2.062-.2-3.776-.261-5.072a11.225,11.225,0,0,1,0-1.864,11.418,11.418,0,0,1,.245,1.849c.118,1.3.269,3,.45,5.056.355,4.274.79,10.183,1.272,16.708s.845,12.434,1.1,16.716c.111,2.062.2,3.776.269,5.072A11.688,11.688,0,0,1,304.986,397.445Z" transform="translate(-95.895 -232.915)" fill="#263238"/>
      <g id="Grupo_672" data-name="Grupo 672" transform="translate(110.587 105.558)" opacity="0.3">
        <path id="Trazado_3270" data-name="Trazado 3270" d="M291.788,335.555c0,.111-24.75.205-55.3.205s-55.3-.095-55.3-.205,24.75-.205,55.3-.205S291.788,335.437,291.788,335.555Z" transform="translate(-181.19 -335.35)" fill="#ebebeb"/>
      </g>
      <g id="Grupo_673" data-name="Grupo 673" transform="translate(95.008 138.327)" opacity="0.3">
        <path id="Trazado_3271" data-name="Trazado 3271" d="M296.186,377.035c0,.118-30.162.205-67.354.205s-67.362-.087-67.362-.205,30.154-.205,67.362-.205S296.186,376.964,296.186,377.035Z" transform="translate(-161.47 -376.83)" fill="#ebebeb"/>
      </g>
      <g id="Grupo_674" data-name="Grupo 674" transform="translate(131.513 175.693)" opacity="0.3">
        <path id="Trazado_3272" data-name="Trazado 3272" d="M285.92,424.336c0,.118-17.514.205-39.12.205s-39.12-.087-39.12-.205,17.514-.206,39.12-.206S285.92,424.225,285.92,424.336Z" transform="translate(-207.68 -424.13)" fill="#ebebeb"/>
      </g>
      <g id="Grupo_675" data-name="Grupo 675" transform="translate(140.061 80.95)" opacity="0.3">
        <path id="Trazado_3273" data-name="Trazado 3273" d="M218.705,427.138c-.111,0-.205-27.523-.205-61.461s.095-61.477.205-61.477.19,27.492.19,61.461S218.824,427.138,218.705,427.138Z" transform="translate(-218.5 -304.2)" fill="#ebebeb"/>
      </g>
      <g id="Grupo_676" data-name="Grupo 676" transform="translate(186.734 80.618)" opacity="0.3">
        <path id="Trazado_3274" data-name="Trazado 3274" d="M278.386,427.057V425.8c0-.838,0-2.046-.04-3.587,0-3.16-.063-7.655-.1-13.209-.1-11.178-.245-26.575-.395-43.583s-.261-32.437-.269-43.592V308.623c0-1.58,0-2.749.039-3.587v-.94a1.681,1.681,0,0,1,0-.316v1.256c0,.837,0,2.046.04,3.587,0,3.16.063,7.647.1,13.208.1,11.171.245,26.575.395,43.592s.261,32.389.269,43.576v17.743A1.693,1.693,0,0,1,278.386,427.057Z" transform="translate(-277.58 -303.78)" fill="#ebebeb"/>
      </g>
      <g id="Grupo_677" data-name="Grupo 677" transform="translate(220.774 106.893)" opacity="0.3">
        <path id="Trazado_3275" data-name="Trazado 3275" d="M320.875,381.5c-.111,0-.205-9.954-.205-22.23s.095-22.23.205-22.23.206,9.946.206,22.23S320.994,381.5,320.875,381.5Z" transform="translate(-320.67 -337.04)" fill="#ebebeb"/>
      </g>
      <g id="Grupo_678" data-name="Grupo 678" transform="translate(103.058 118.522)" opacity="0.3">
        <path id="Trazado_3276" data-name="Trazado 3276" d="M171.865,393.7c-.118,0-.205-9.385-.205-20.966s.087-20.974.205-20.974.205,9.385.205,20.974S171.976,393.7,171.865,393.7Z" transform="translate(-171.66 -351.76)" fill="#ebebeb"/>
      </g>
      <path id="Trazado_3277" data-name="Trazado 3277" d="M225.38,301.264l4.5-9.464,14.749,10.4,14.551-9.78,5.119,8.311-14.583,9.48h-9.748l-14.591-7.845" transform="translate(-79.884 -220.646)" fill="#f83f00"/>
      <path id="Trazado_3278" data-name="Trazado 3278" d="M244.687,304.542a1.1,1.1,0,0,1-.276.079,2.938,2.938,0,0,0-.79.213,4.636,4.636,0,0,0-2.2,1.856,23.568,23.568,0,0,0-2.03,3.95c-.348.79-.7,1.58-1.138,2.425a9.069,9.069,0,0,1-1.7,2.37l-.142.134-.142-.15-.837-.869c-2.923-3.065-5.411-5.98-7.11-8.145-.869-1.082-1.58-1.967-2.007-2.591a6.036,6.036,0,0,1-.679-1,6.079,6.079,0,0,1,.79.893l2.1,2.512c1.785,2.109,4.305,4.993,7.213,8.042l.837.869H236.3a8.42,8.42,0,0,0,1.627-2.267c.434-.79.79-1.619,1.145-2.37a22.505,22.505,0,0,1,2.141-3.95,4.646,4.646,0,0,1,2.37-1.841,2.647,2.647,0,0,1,.79-.142C244.584,304.495,244.687,304.495,244.687,304.542Z" transform="translate(-79.938 -222.96)" fill="#263238"/>
      <path id="Trazado_3279" data-name="Trazado 3279" d="M269.168,303.33a5.526,5.526,0,0,1-.719.948c-.5.593-1.225,1.43-2.173,2.417a58.689,58.689,0,0,1-8.129,6.984c-.64.45-1.28.885-1.9,1.288l-.284.182V314.8a18.567,18.567,0,0,0-1.2-4.85,12.434,12.434,0,0,0-1.951-3.492,4.844,4.844,0,0,0-2.094-1.58c-.585-.2-.94-.221-.932-.261s.087,0,.253,0a2.809,2.809,0,0,1,.727.118,4.834,4.834,0,0,1,2.251,1.541,12.281,12.281,0,0,1,2.086,3.539,18.74,18.74,0,0,1,1.272,4.969l-.316-.158c.608-.411,1.24-.837,1.88-1.287a65.613,65.613,0,0,0,8.153-6.849c.98-.956,1.738-1.762,2.267-2.315A6.957,6.957,0,0,1,269.168,303.33Z" transform="translate(-85.01 -223.067)" fill="#263238"/>
      <path id="Trazado_3280" data-name="Trazado 3280" d="M255.376,427.486v-1.24c0-.829,0-2.022-.047-3.547,0-3.1-.087-7.56-.158-13.059-.158-11.02-.514-26.243-1.28-43.046s-1.825-31.995-2.67-42.983c-.442-5.482-.79-9.922-1.043-13.019-.119-1.517-.213-2.7-.285-3.531,0-.4-.047-.7-.055-.924a1.366,1.366,0,0,1,0-.316,1.552,1.552,0,0,0,.047.308c.047.205.055.537.1.924.087.83.205,2.014.355,3.531.308,3.065.711,7.5,1.177,13,.924,10.981,2.014,26.18,2.789,42.991s1.074,32.034,1.161,43.062c.047,5.53.047,9.978,0,13.059v4.471a1.673,1.673,0,0,1-.095.316Z" transform="translate(-85.018 -223.59)" fill="#263238"/>
      <g id="Grupo_679" data-name="Grupo 679" transform="translate(164.401 81.558)" opacity="0.2">
        <path id="Trazado_3281" data-name="Trazado 3281" d="M249.31,304.994c1.793,1.019,2.457,3.286,2.465,5.34s-.482,4.108-.308,6.162a3.5,3.5,0,0,0,1.375,2.789c1.248.79,2.836.047,4.116-.656a34.779,34.779,0,0,0,7.781-5.246,11.233,11.233,0,0,0,3.16-8.413c-3.792,4.068-7.616,6.525-11.763,9.733a17.177,17.177,0,0,0-2.086-6.154c-1.074-1.864-2.6-3.792-4.74-3.555" transform="translate(-249.31 -304.97)"/>
      </g>
      <g id="Grupo_680" data-name="Grupo 680" transform="translate(150.852 82.688)" opacity="0.2">
        <path id="Trazado_3282" data-name="Trazado 3282" d="M232.16,309.971c1.4,2.741,2.868,5.53,5.277,7.481,1.067.845,2.631,1.485,3.745.7.893-.64,1.043-1.88,1.114-2.978.19-2.781,1.011-5.98,1.2-8.769-2.2,2.488-3.413,6.873-5.735,9.883-2.37-1.493-3.737-4.045-5.443-6.264" transform="translate(-232.16 -306.4)"/>
      </g>
      <g id="Grupo_681" data-name="Grupo 681" transform="translate(207.036 132.212)" opacity="0.2">
        <path id="Trazado_3283" data-name="Trazado 3283" d="M318.859,389.559l11-20.469c-3.255.324-5.443,3.4-7.11,6.209s-3.713,5.933-6.944,6.494c-2.244.387-4.487-.616-6.446-1.786s-3.855-2.552-6.083-3.041Z" transform="translate(-303.28 -369.09)"/>
      </g>
      <g id="Grupo_682" data-name="Grupo 682" transform="translate(95.861 147.151)" opacity="0.2">
        <path id="Trazado_3284" data-name="Trazado 3284" d="M192.633,388s-7.663,8.066-12.829,9.251a18.794,18.794,0,0,1-15.1-3.16,2.829,2.829,0,0,0-1.145-.608.861.861,0,0,0-1,.616,1.248,1.248,0,0,0,.537.972q7.9,7.355,16.463,14Z" transform="translate(-162.55 -388)"/>
      </g>
      <g id="Grupo_683" data-name="Grupo 683" transform="translate(156.261 92.168)" opacity="0.2">
        <path id="Trazado_3285" data-name="Trazado 3285" d="M244.776,318.4q-4.361,34.83-5.7,69.945c-.134,3.658-.229,7.426,1.074,10.847,1.517,3.95,4.74,7.031,7.9,9.922,1.335,1.232,3.16,2.56,4.787,1.793a4.462,4.462,0,0,0,1.54-1.438,22.524,22.524,0,0,0,4.558-8.437c2.291-9.843-7-19.584-4.906-29.474" transform="translate(-239.007 -318.4)"/>
      </g>
      <path id="Trazado_3286" data-name="Trazado 3286" d="M244.8,308.122l6.976-.182,1.864,3.753-2.236,6.273h-5.7l-3.018-5.617Z" transform="translate(-83.519 -224.035)" fill="#455a64"/>
      <path id="Trazado_3287" data-name="Trazado 3287" d="M245.643,320.63l-3.263,79.836,9.48,10.309,8.761-12.45-9.282-77.7Z" transform="translate(-83.454 -226.701)" fill="#455a64"/>
      <path id="Trazado_3288" data-name="Trazado 3288" d="M251.9,320.66a13.685,13.685,0,0,1-2.639,0,13.547,13.547,0,0,1-2.631-.087A9.628,9.628,0,0,1,251.9,320.66Z" transform="translate(-84.347 -226.62)" fill="#263238"/>
      <path id="Trazado_3289" data-name="Trazado 3289" d="M253.1,309.649a4.737,4.737,0,0,1-.885,1.209,19.5,19.5,0,0,1-2.623,2.48,19.827,19.827,0,0,1-3.01,1.975,4.478,4.478,0,0,1-1.382.584c-.055-.111,1.967-1.153,4.14-2.883S253,309.562,253.1,309.649Z" transform="translate(-84.046 -224.394)" fill="#263238"/>
      <path id="Trazado_3290" data-name="Trazado 3290" d="M252.92,330.5a30.876,30.876,0,0,1-3.4,3.666,30.205,30.205,0,0,1-3.7,3.373,30.586,30.586,0,0,1,3.413-3.666,29.827,29.827,0,0,1,3.7-3.373Z" transform="translate(-84.174 -228.773)" fill="#263238"/>
      <path id="Trazado_3291" data-name="Trazado 3291" d="M253.316,337.78a77.187,77.187,0,0,1-7.916,7.836,37.922,37.922,0,0,1,3.816-4.068A37.486,37.486,0,0,1,253.316,337.78Z" transform="translate(-84.088 -230.302)" fill="#ebebeb"/>
      <path id="Trazado_3292" data-name="Trazado 3292" d="M254.12,344.5a50.827,50.827,0,0,1-4.44,4.692,51.6,51.6,0,0,1-4.74,4.408,50.249,50.249,0,0,1,4.44-4.7,49.514,49.514,0,0,1,4.74-4.4Z" transform="translate(-83.992 -231.714)" fill="#263238"/>
      <path id="Trazado_3293" data-name="Trazado 3293" d="M254.7,351.58a62.488,62.488,0,0,1-4.843,5.1,61.6,61.6,0,0,1-5.127,4.8,59.253,59.253,0,0,1,4.835-5.1,60.312,60.312,0,0,1,5.135-4.811Z" transform="translate(-83.948 -233.2)" fill="#ebebeb"/>
      <path id="Trazado_3294" data-name="Trazado 3294" d="M255.24,358.71a71.694,71.694,0,0,1-5.23,5.482,68.465,68.465,0,0,1-5.53,5.2,70.9,70.9,0,0,1,5.23-5.53,67.424,67.424,0,0,1,5.53-5.151Z" transform="translate(-83.895 -234.698)" fill="#263238"/>
      <path id="Trazado_3295" data-name="Trazado 3295" d="M255.862,365.68c.087.079-2.5,2.773-5.751,6.02a82.564,82.564,0,0,1-6.051,5.727,81.5,81.5,0,0,1,5.759-6.02A81.647,81.647,0,0,1,255.862,365.68Z" transform="translate(-83.807 -236.161)" fill="#ebebeb"/>
      <path id="Trazado_3296" data-name="Trazado 3296" d="M256.385,372.8c.079.079-2.694,2.962-6.186,6.446s-6.391,6.225-6.47,6.146,2.686-2.962,6.178-6.438S256.3,372.721,256.385,372.8Z" transform="translate(-83.737 -237.657)" fill="#263238"/>
      <path id="Trazado_3297" data-name="Trazado 3297" d="M257.038,379.8c.079.079-2.883,3.16-6.612,6.865s-6.818,6.652-6.9,6.573,2.876-3.16,6.612-6.865S256.951,379.721,257.038,379.8Z" transform="translate(-83.695 -239.127)" fill="#ebebeb"/>
      <path id="Trazado_3298" data-name="Trazado 3298" d="M257.368,387.119c.079.079-3.065,3.342-7.023,7.276s-7.228,7.07-7.315,6.991,3.065-3.342,7.023-7.276S257.289,387.025,257.368,387.119Z" transform="translate(-83.59 -240.664)" fill="#263238"/>
      <path id="Trazado_3299" data-name="Trazado 3299" d="M258.13,394c.079.079-3.239,3.516-7.41,7.671s-7.631,7.465-7.71,7.386,3.239-3.515,7.418-7.679S258.051,393.937,258.13,394Z" transform="translate(-83.586 -242.109)" fill="#ebebeb"/>
      <path id="Trazado_3300" data-name="Trazado 3300" d="M259.2,400.36c.079.087-3.634,3.911-8.287,8.548s-8.5,8.342-8.579,8.263,3.626-3.911,8.287-8.556S259.117,400.281,259.2,400.36Z" transform="translate(-83.443 -243.444)" fill="#263238"/>
      <path id="Trazado_3301" data-name="Trazado 3301" d="M246.14,421.955c-.079-.079,3.057-3.365,7.015-7.339s7.22-7.11,7.307-7.047-3.065,3.365-7.015,7.339S246.219,422.034,246.14,421.955Z" transform="translate(-84.243 -244.959)" fill="#ebebeb"/>
      <path id="Trazado_3302" data-name="Trazado 3302" d="M250.73,427.226a77.187,77.187,0,0,1,5.53-6.075,80.017,80.017,0,0,1,5.8-5.79,81.632,81.632,0,0,1-5.53,6.075A80.03,80.03,0,0,1,250.73,427.226Z" transform="translate(-85.207 -246.595)" fill="#263238"/>
      <path id="Trazado_3303" data-name="Trazado 3303" d="M252.238,323.73a24.488,24.488,0,0,1-3.018,3.278A24.081,24.081,0,0,1,245.91,330a24.839,24.839,0,0,1,3.018-3.286A24.217,24.217,0,0,1,252.238,323.73Z" transform="translate(-84.195 -227.352)" fill="#ebebeb"/>
      <path id="Trazado_3304" data-name="Trazado 3304" d="M149.763,395.815c-1.153-.1-1.58-1.667-1.217-2.765s1.24-1.983,1.58-3.089c.213-.624.308-1.375.853-1.754a1.715,1.715,0,0,1,1.975.087c3.215,2.749,5.585,5.427,9.093,8.406,3.381,2.86,7.023,6.533,10.594,9.164,2.007,1.485,4.463,3.018,4.74,5.53a4.005,4.005,0,0,1-3.539,4.242c-2.038.142-3.8-1.3-5.324-2.662q-9.543-8.516-19.094-17.024" transform="translate(-63.721 -240.836)" fill="#f83f00"/>
      <path id="Trazado_3305" data-name="Trazado 3305" d="M177.342,408.88a7.142,7.142,0,0,1-.98-.7c-.616-.474-1.525-1.122-2.662-1.928a38.747,38.747,0,0,1-3.831-3.034l-4.416-4.013c-3.16-2.868-5.941-5.475-7.963-7.379l-2.37-2.275a5.945,5.945,0,0,1-.79-.869,6.839,6.839,0,0,1,.94.79l2.473,2.173c2.07,1.849,4.906,4.424,8.034,7.284,1.58,1.438,3.034,2.8,4.384,4.045a42.418,42.418,0,0,0,3.76,3.081c1.114.838,2,1.533,2.591,2.038A6,6,0,0,1,177.342,408.88Z" transform="translate(-64.962 -240.992)" fill="#263238"/>
      <path id="Trazado_3306" data-name="Trazado 3306" d="M174.607,411.611a6.167,6.167,0,0,1-1.027-.585c-.64-.395-1.58-1-2.678-1.754-2.244-1.517-5.285-3.7-8.508-6.32s-6.028-5.072-7.995-6.928c-.987-.924-1.777-1.691-2.3-2.236a5.973,5.973,0,0,1-.79-.869,7.863,7.863,0,0,1,.909.79l2.37,2.133c2.022,1.8,4.843,4.242,8.058,6.826s6.225,4.8,8.421,6.367l2.6,1.856A7.021,7.021,0,0,1,174.607,411.611Z" transform="translate(-64.328 -241.882)" fill="#263238"/>
      <g id="Grupo_684" data-name="Grupo 684" transform="translate(90.884 154.047)" opacity="0.3">
        <path id="Trazado_3307" data-name="Trazado 3307" d="M161.582,396.73a17.767,17.767,0,0,1-2.52,2.8,17.518,17.518,0,0,1-2.812,2.52A34.918,34.918,0,0,1,161.582,396.73Z" transform="translate(-156.25 -396.73)" fill="#ebebeb"/>
      </g>
      <g id="Grupo_685" data-name="Grupo 685" transform="translate(102.861 165.139)" opacity="0.3">
        <path id="Trazado_3308" data-name="Trazado 3308" d="M177.145,410.77a19.452,19.452,0,0,1-2.726,2.907,19.961,19.961,0,0,1-3.01,2.615,18.959,18.959,0,0,1,2.726-2.907A19.54,19.54,0,0,1,177.145,410.77Z" transform="translate(-171.41 -410.77)" fill="#ebebeb"/>
      </g>
      <g id="Grupo_686" data-name="Grupo 686" transform="translate(149.999 75.618)" opacity="0.5">
        <path id="Trazado_3309" data-name="Trazado 3309" d="M236.807,297.45a34.342,34.342,0,0,1-2.694,4.55,33.652,33.652,0,0,1-3.034,4.329,35.553,35.553,0,0,1,2.694-4.55A32.742,32.742,0,0,1,236.807,297.45Z" transform="translate(-231.08 -297.45)" fill="#ebebeb"/>
      </g>
      <g id="Grupo_687" data-name="Grupo 687" transform="translate(174.797 75.278)" opacity="0.5">
        <path id="Trazado_3310" data-name="Trazado 3310" d="M266.839,306.531a34.682,34.682,0,0,1-2.37-4.669,33.118,33.118,0,0,1-2-4.843,65.815,65.815,0,0,1,4.376,9.48Z" transform="translate(-262.47 -297.02)" fill="#ebebeb"/>
      </g>
      <path id="Trazado_3311" data-name="Trazado 3311" d="M331.033,392.189a2.512,2.512,0,0,1-2.623,1.493c-1.153-.126-2.2-.79-3.365-.877-.656-.071-1.406,0-1.9-.45a2.093,2.093,0,0,1-.355-1.935c.735-4.369,3.1-8.279,5.648-11.905s5.332-7.11,7.11-11.194c1-2.291,1.943-5.024,4.306-5.846A4.005,4.005,0,0,1,344.795,364c.592,1.959-.427,4-1.414,5.783l-12.348,22.4" transform="translate(-100.321 -235.243)" fill="#f83f00"/>
      <path id="Trazado_3312" data-name="Trazado 3312" d="M339.877,366.68a6.788,6.788,0,0,1-.372,1.114c-.261.7-.663,1.714-1.169,2.955-1.019,2.481-2.5,5.886-4.242,9.59s-3.452,7.007-4.74,9.369c-.632,1.177-1.161,2.125-1.541,2.773a6.475,6.475,0,0,1-.624.987,7.11,7.11,0,0,1,.482-1.059l1.43-2.844c1.209-2.37,2.86-5.7,4.606-9.4s3.271-7.11,4.353-9.535c.521-1.169.956-2.141,1.288-2.9A6.532,6.532,0,0,1,339.877,366.68Z" transform="translate(-101.265 -236.372)" fill="#263238"/>
      <path id="Trazado_3313" data-name="Trazado 3313" d="M337.651,361.14a6.744,6.744,0,0,1-.6,1.066l-1.714,2.828c-1.446,2.37-3.4,5.7-5.435,9.48s-3.76,7.189-4.985,9.693l-1.438,2.978a7.543,7.543,0,0,1-.569,1.074,6.443,6.443,0,0,1,.419-1.138c.3-.727.75-1.762,1.327-3.033,1.153-2.544,2.844-6.02,4.882-9.772s4.045-7.055,5.53-9.409c.79-1.177,1.382-2.117,1.825-2.757a6.111,6.111,0,0,1,.758-1.011Z" transform="translate(-100.366 -235.208)" fill="#263238"/>
      <g id="Grupo_688" data-name="Grupo 688" transform="translate(225.324 147.697)" opacity="0.5">
        <path id="Trazado_3314" data-name="Trazado 3314" d="M334.567,392.332A13.435,13.435,0,0,1,330.285,391a13.733,13.733,0,0,1-3.855-2.3c.063-.1,1.778.932,4.021,1.928S334.6,392.222,334.567,392.332Z" transform="translate(-326.43 -388.691)" fill="#ebebeb"/>
      </g>
      <g id="Grupo_689" data-name="Grupo 689" transform="translate(234.891 130.056)" opacity="0.5">
        <path id="Trazado_3315" data-name="Trazado 3315" d="M346.8,371.321a35.7,35.7,0,0,1-4.187-2.37,36.6,36.6,0,0,1-4.076-2.591,23.808,23.808,0,0,1,4.29,2.244,23.474,23.474,0,0,1,3.974,2.718Z" transform="translate(-338.54 -366.36)" fill="#ebebeb"/>
      </g>
    </g>
    <g id="freepik--Stars--inject-432" transform="translate(90.592 55.02)">
      <path id="Trazado_3316" data-name="Trazado 3316" d="M363.516,55.02l-1.58,2.883-2.876,1.572,2.876,1.58,1.58,2.876,1.572-2.876,2.883-1.58L365.088,57.9Z" transform="translate(-161.05 -55.02)" fill="#455a64"/>
      <path id="Trazado_3317" data-name="Trazado 3317" d="M434.976,271.3l-1.58,2.876-2.876,1.58,2.876,1.572,1.58,2.876,1.572-2.876,2.883-1.572-2.883-1.58Z" transform="translate(-176.057 -100.442)" fill="#455a64"/>
      <path id="Trazado_3318" data-name="Trazado 3318" d="M112.866,66.36l-1.58,2.876-2.876,1.58,2.876,1.572,1.58,2.876,1.572-2.876,2.883-1.572-2.883-1.58Z" transform="translate(-108.41 -57.402)" fill="#455a64"/>
      <path id="Trazado_3319" data-name="Trazado 3319" d="M409.181,170.51l-.972,1.77-1.77.964,1.77.972.972,1.77.972-1.77,1.762-.972-1.762-.964Z" transform="translate(-171 -79.274)" fill="#455a64"/>
      <path id="Trazado_3320" data-name="Trazado 3320" d="M246.591,106.92l-.972,1.777-1.77.964,1.77.964.972,1.777.964-1.777,1.77-.964-1.77-.964Z" transform="translate(-136.854 -65.92)" fill="#455a64"/>
      <path id="Trazado_3321" data-name="Trazado 3321" d="M176.843,164.61l-.869,1.572-1.564.861,1.564.861.869,1.572.861-1.572,1.564-.861-1.564-.861Z" transform="translate(-122.271 -78.035)" fill="#455a64"/>
      <path id="Trazado_3322" data-name="Trazado 3322" d="M308.743,260.54l-.861,1.58-1.572.861,1.572.861.861,1.572.869-1.572,1.564-.861-1.564-.861Z" transform="translate(-149.972 -98.182)" fill="#455a64"/>
      <path id="Trazado_3323" data-name="Trazado 3323" d="M116.923,279.33l-.861,1.572-1.572.861,1.572.861.861,1.572.861-1.572,1.572-.861-1.572-.861Z" transform="translate(-109.687 -102.128)" fill="#455a64"/>
    </g>
    <g id="freepik--floating-money--inject-432" transform="translate(42.727 56.639)">
      <path id="Trazado_3324" data-name="Trazado 3324" d="M72.43,107.225a9.881,9.881,0,0,1,10.049,1.28c3.271,2.37,10.215,5.972,12.355,3.768l2.631-8.492A24.2,24.2,0,0,1,87.93,99.46c-4.195-3.318-12.553-3.16-12.553-3.16Z" transform="translate(-52.988 -65.308)" fill="#f83f00"/>
      <g id="Grupo_690" data-name="Grupo 690" transform="translate(27.662 34.404)" opacity="0.4">
        <path id="Trazado_3325" data-name="Trazado 3325" d="M89.436,101.442a4.25,4.25,0,0,1,1.24,6.32c-1.43,1.691-4.74,1.248-6.423-.19a4.005,4.005,0,0,1-.466-5.648C85.217,100.217,87.524,100.328,89.436,101.442Z" transform="translate(-82.836 -100.62)" fill="#fff"/>
      </g>
      <path id="Trazado_3326" data-name="Trazado 3326" d="M89.937,103.469c0,.055-.205,0-.466-.1a4.944,4.944,0,0,0-1.074-.34,1.792,1.792,0,0,0-.679,0,.908.908,0,0,0-.529.332.687.687,0,0,0-.063.592c.063.174.269.332.6.5.158.079.34.158.529.261a1.984,1.984,0,0,1,.569.427,1.58,1.58,0,0,1,.229.324,1.217,1.217,0,0,1,.126.395,1.28,1.28,0,0,1-.111.79,1.382,1.382,0,0,1-.45.545,1.461,1.461,0,0,1-.593.245,2.053,2.053,0,0,1-1-.087,2.591,2.591,0,0,1-.679-.348,3.2,3.2,0,0,1-.427-.34c-.213-.213-.308-.355-.269-.411s.2,0,.466.095a4.742,4.742,0,0,0,1.074.348,1.581,1.581,0,0,0,.664,0,.6.6,0,0,0,.411-.363.426.426,0,0,0,0-.261.455.455,0,0,0,0-.111.622.622,0,0,0-.095-.119,3.508,3.508,0,0,0-.845-.474,2.67,2.67,0,0,1-.585-.371,2.287,2.287,0,0,1-.269-.284,1.327,1.327,0,0,1-.19-.363,1.509,1.509,0,0,1,.2-1.509,1.627,1.627,0,0,1,1.106-.6,2.29,2.29,0,0,1,.98.1,2.939,2.939,0,0,1,1.114.687C89.874,103.271,89.977,103.421,89.937,103.469Z" transform="translate(-55.762 -66.552)" fill="#f83f00"/>
      <path id="Trazado_3327" data-name="Trazado 3327" d="M88.532,101.48a10.925,10.925,0,0,1-.79,3.16,11.06,11.06,0,0,1-1.232,3,11.652,11.652,0,0,1,.79-3.16A11.385,11.385,0,0,1,88.532,101.48Z" transform="translate(-55.945 -66.397)" fill="#f83f00"/>
      <path id="Trazado_3328" data-name="Trazado 3328" d="M89.393,102a9.189,9.189,0,0,1-.687,2.868,8.431,8.431,0,0,1-1.145,2.71,9.607,9.607,0,0,1,.7-2.86A9.329,9.329,0,0,1,89.393,102Z" transform="translate(-56.166 -66.506)" fill="#f83f00"/>
      <g id="Grupo_691" data-name="Grupo 691" transform="translate(20.484 32.084)" opacity="0.5">
        <path id="Trazado_3329" data-name="Trazado 3329" d="M96.675,104.617l-2.425,7.71h-.079c-3.8.79-8.619-2.528-11.8-4.74-.553-.379-1.074-.735-1.525-1.027A7.11,7.11,0,0,0,74,106.3l-.253-.1,2.481-8.366h.087a16.59,16.59,0,0,1,12.837,3.705c2.37,2.078,7.315,3.01,7.363,3.018Zm-2.646,7.465,2.283-7.252c-.885-.174-5.119-1.106-7.339-3.049a16.281,16.281,0,0,0-12.521-3.65l-2.323,7.813a5.29,5.29,0,0,1,.743-.284,7.647,7.647,0,0,1,6.122.711l1.533,1.027C85.647,109.538,90.363,112.761,94.029,112.082Z" transform="translate(-73.75 -97.683)" fill="#fff"/>
      </g>
      <path id="Trazado_3330" data-name="Trazado 3330" d="M441.615,196.65s-.055,9.211-10,14.125c-6.162,3.041-17.222,10.641-15.586,15.594l10.681,10.783a41.472,41.472,0,0,1,14.172-10.9c8.366-3.658,14.8-16.408,14.8-16.408Z" transform="translate(-125.114 -86.384)" fill="#f83f00"/>
      <g id="Grupo_692" data-name="Grupo 692" transform="translate(303.865 124.803)" opacity="0.4">
        <path id="Trazado_3331" data-name="Trazado 3331" d="M443.284,228.227a7.252,7.252,0,0,1-10.491-3.16c-1.4-3.515,1.92-8.129,5.427-9.527a6.849,6.849,0,0,1,8.887,3.8C448.514,222.848,446.5,226.237,443.284,228.227Z" transform="translate(-432.465 -215.052)" fill="#fff"/>
      </g>
      <path id="Trazado_3332" data-name="Trazado 3332" d="M441.8,227.517c-.047-.111.158-.316.53-.624a8.564,8.564,0,0,0,1.382-1.343,3.16,3.16,0,0,0,.513-1.051,1.485,1.485,0,0,0-.087-1.059,1.121,1.121,0,0,0-.845-.569,1.888,1.888,0,0,0-1.216.5c-.253.182-.514.4-.79.592a3.824,3.824,0,0,1-1.1.521,2.455,2.455,0,0,1-.679.079,1.9,1.9,0,0,1-.7-.126,2.267,2.267,0,0,1-1.059-.79,2.433,2.433,0,0,1-.348-2.2,3.554,3.554,0,0,1,.932-1.446,4.743,4.743,0,0,1,1.074-.751,5.113,5.113,0,0,1,.861-.363c.482-.158.79-.182.79-.087s-.142.324-.513.64a8.815,8.815,0,0,0-1.39,1.335,2.669,2.669,0,0,0-.482,1.027,1.012,1.012,0,0,0,.229.916.79.79,0,0,0,.371.237.57.57,0,0,0,.205,0,.932.932,0,0,0,.245-.04,5.949,5.949,0,0,0,1.406-.893,4.8,4.8,0,0,1,1.019-.592,3.383,3.383,0,0,1,.648-.166,2.1,2.1,0,0,1,.7,0,2.583,2.583,0,0,1,1.975,1.485,2.773,2.773,0,0,1,0,2.149,3.947,3.947,0,0,1-.94,1.4,5.2,5.2,0,0,1-1.927,1.13C442.163,227.635,441.863,227.635,441.8,227.517Z" transform="translate(-129.613 -91.023)" fill="#f83f00"/>
      <path id="Trazado_3333" data-name="Trazado 3333" d="M446.094,226.558c-.158.158-2-1.5-4.108-3.7s-3.7-4.108-3.539-4.266,2.007,1.5,4.124,3.705S446.26,226.4,446.094,226.558Z" transform="translate(-129.855 -90.989)" fill="#f83f00"/>
      <path id="Trazado_3334" data-name="Trazado 3334" d="M444.916,227.583c-.158.158-1.849-1.335-3.76-3.334s-3.342-3.745-3.16-3.9,1.849,1.343,3.76,3.342S445.106,227.433,444.916,227.583Z" transform="translate(-129.759 -91.358)" fill="#f83f00"/>
      <g id="Grupo_693" data-name="Grupo 693" transform="translate(291.955 112.857)" opacity="0.5">
        <path id="Trazado_3335" data-name="Trazado 3335" d="M427.067,235.8l-9.677-9.843.047-.134c1.88-6.32,10.72-10.957,16.59-14.014,1-.521,1.959-1.019,2.765-1.469,5.4-3,6.114-9.582,5.877-10.1l.371-.308,10.61,10.452-.047.142a28.275,28.275,0,0,1-15.879,16.384c-5.04,1.928-10.4,8.611-10.459,8.69Zm-9.132-9.978,9.1,9.251c.972-1.185,5.783-6.818,10.491-8.611a27.793,27.793,0,0,0,15.547-15.95l-9.922-9.733a9.3,9.3,0,0,1-.174,1.335c-.284,1.414-1.58,6.2-5.988,8.69-.79.45-1.762.956-2.773,1.477C428.489,215.232,419.855,219.735,417.935,225.818Z" transform="translate(-417.39 -199.93)" fill="#fff"/>
      </g>
      <path id="Trazado_3336" data-name="Trazado 3336" d="M447.453,95.349a11.023,11.023,0,0,1-10.412-4.305c-2.812-3.476-9.2-9.393-12.142-7.647l-5.309,8.311a26.968,26.968,0,0,1,8.966,7.426c3.531,4.74,12.545,7.023,12.545,7.023Z" transform="translate(-125.897 -62.533)" fill="#f83f00"/>
      <g id="Grupo_694" data-name="Grupo 694" transform="translate(302.336 27.995)" opacity="0.4">
        <path id="Trazado_3337" data-name="Trazado 3337" d="M431.9,100.172a4.74,4.74,0,0,1,.514-7.11c2.03-1.4,5.435.047,6.833,2.07a4.463,4.463,0,0,1-1.153,6.2C436.068,102.716,433.627,101.926,431.9,100.172Z" transform="translate(-430.53 -92.507)" fill="#fff"/>
      </g>
      <path id="Trazado_3338" data-name="Trazado 3338" d="M432.995,99.017c.063-.047.221.055.474.245a5.27,5.27,0,0,0,1.051.679,1.8,1.8,0,0,0,.743.174.924.924,0,0,0,.655-.205.736.736,0,0,0,.245-.616,1.241,1.241,0,0,0-.5-.7c-.15-.134-.324-.269-.49-.434a2.371,2.371,0,0,1-.49-.624,1.578,1.578,0,0,1-.15-.419,1.486,1.486,0,0,1,0-.458,1.455,1.455,0,0,1,.347-.79,1.512,1.512,0,0,1,.64-.45,1.485,1.485,0,0,1,.7-.087,2.371,2.371,0,0,1,1.051.379,3.034,3.034,0,0,1,.632.569,3.39,3.39,0,0,1,.356.5c.174.284.229.466.174.513s-.221-.047-.482-.237a5.52,5.52,0,0,0-1.051-.687,1.721,1.721,0,0,0-.711-.158.648.648,0,0,0-.553.276.506.506,0,0,0-.095.269.261.261,0,0,0,0,.134.781.781,0,0,0,.063.15,3.616,3.616,0,0,0,.79.79,3.058,3.058,0,0,1,.521.569,2.017,2.017,0,0,1,.205.387,1.441,1.441,0,0,1,.1.442,1.7,1.7,0,0,1-.663,1.469,1.8,1.8,0,0,1-1.359.324,2.367,2.367,0,0,1-1.019-.4,3.159,3.159,0,0,1-1-1.066C432.995,99.206,432.939,99.017,432.995,99.017Z" transform="translate(-128.707 -65.102)" fill="#f83f00"/>
      <path id="Trazado_3339" data-name="Trazado 3339" d="M434.477,101.4a12.886,12.886,0,0,1,1.754-3.16,11.83,11.83,0,0,1,2.2-2.86,12.322,12.322,0,0,1-1.762,3.16A11.994,11.994,0,0,1,434.477,101.4Z" transform="translate(-129.021 -65.115)" fill="#f83f00"/>
      <path id="Trazado_3340" data-name="Trazado 3340" d="M433.747,100.822a10.367,10.367,0,0,1,1.58-2.868,10.367,10.367,0,0,1,2.015-2.575,10.26,10.26,0,0,1-1.58,2.868A10.347,10.347,0,0,1,433.747,100.822Z" transform="translate(-128.867 -65.114)" fill="#f83f00"/>
      <g id="Grupo_695" data-name="Grupo 695" transform="translate(294.997 21.361)" opacity="0.5">
        <path id="Trazado_3341" data-name="Trazado 3341" d="M421.24,91.678,426.1,84.11h.087c4.3.284,8.5,5.23,11.289,8.5.474.561.932,1.09,1.327,1.58a7.9,7.9,0,0,0,7.26,2.275l.245.19-5.1,8.247h-.095a18.383,18.383,0,0,1-12.687-7.726c-1.951-2.915-6.968-5.356-7.023-5.38Zm5.016-7.236-4.558,7.11c.893.442,5.159,2.686,6.983,5.411a18.052,18.052,0,0,0,12.363,7.6l4.74-7.694a5.869,5.869,0,0,1-.877.079,8.468,8.468,0,0,1-6.359-2.544c-.4-.45-.861-.987-1.343-1.58C434.48,89.616,430.388,84.813,426.256,84.442Z" transform="translate(-421.24 -84.11)" fill="#fff"/>
      </g>
      <path id="Trazado_3342" data-name="Trazado 3342" d="M353.148,105.215s-7.339,5.53-17.293.679c-6.162-3.034-18.889-7.181-21.867-2.86l-2.038,15.01a41.391,41.391,0,0,1,17.277,4.6c8,4.4,22.025,1.73,22.025,1.73Z" transform="translate(-103.291 -66.332)" fill="#f83f00"/>
      <g id="Grupo_696" data-name="Grupo 696" transform="translate(222.034 41.315)" opacity="0.4">
        <path id="Trazado_3343" data-name="Trazado 3343" d="M333.628,122.381a7.244,7.244,0,0,1-3.863-10.27c1.928-3.247,7.616-3.429,10.862-1.5a6.849,6.849,0,0,1,2.37,9.385C341.077,123.25,337.159,123.724,333.628,122.381Z" transform="translate(-328.88 -109.368)" fill="#fff"/>
      </g>
      <path id="Trazado_3344" data-name="Trazado 3344" d="M334.467,120.246c.048-.1.34-.071.79.04a8.069,8.069,0,0,0,1.9.269,2.939,2.939,0,0,0,1.145-.229,1.47,1.47,0,0,0,.79-.711,1.153,1.153,0,0,0-.063-1.019,1.927,1.927,0,0,0-1.145-.656c-.292-.087-.616-.174-.964-.292a4.019,4.019,0,0,1-1.082-.553,2.832,2.832,0,0,1-.482-.49,2.088,2.088,0,0,1-.324-.632,2.324,2.324,0,0,1,0-1.311,2.432,2.432,0,0,1,.608-1.043,2.469,2.469,0,0,1,.924-.569,3.46,3.46,0,0,1,1.714-.142,4.568,4.568,0,0,1,1.248.387,5.531,5.531,0,0,1,.79.458c.418.292.616.506.569.608s-.34.079-.79,0a8.611,8.611,0,0,0-1.9-.284,2.655,2.655,0,0,0-1.106.237,1.019,1.019,0,0,0-.585.743.725.725,0,0,0,0,.434.6.6,0,0,0,.1.182,1.349,1.349,0,0,0,.19.166,5.743,5.743,0,0,0,1.58.569,4.74,4.74,0,0,1,1.082.45,3.345,3.345,0,0,1,.537.411,2.589,2.589,0,0,1,.427.553,2.631,2.631,0,0,1,0,2.481,2.757,2.757,0,0,1-1.69,1.319,3.777,3.777,0,0,1-1.683.111,5.112,5.112,0,0,1-2.07-.845C334.6,120.57,334.412,120.341,334.467,120.246Z" transform="translate(-108.018 -68.786)" fill="#f83f00"/>
      <path id="Trazado_3345" data-name="Trazado 3345" d="M338.477,122.645c-.221,0,0-2.5.435-5.53s1-5.435,1.224-5.4,0,2.5-.427,5.53S338.706,122.677,338.477,122.645Z" transform="translate(-108.844 -68.547)" fill="#f83f00"/>
      <path id="Trazado_3346" data-name="Trazado 3346" d="M336.973,122.364c-.221,0-.063-2.283.348-5.016s.94-4.93,1.161-4.9.063,2.283-.356,5.016S337.2,122.364,336.973,122.364Z" transform="translate(-108.525 -68.7)" fill="#f83f00"/>
      <g id="Grupo_697" data-name="Grupo 697" transform="translate(210.279 36.083)" opacity="0.5">
        <path id="Trazado_3347" data-name="Trazado 3347" d="M314,117.166l1.912-13.667.135-.055c6.178-2.37,15.215,1.825,21.2,4.6,1.035.482,2.006.932,2.852,1.3,5.664,2.449,11.328-.987,11.589-1.485l.466.1-1.817,14.812-.142.047a28.258,28.258,0,0,1-22.665-2.615c-4.606-2.82-13.169-3-13.256-3Zm2.37-13.319-1.8,12.853c1.541.047,8.935.427,13.224,3.065a27.783,27.783,0,0,0,22.12,2.615l1.7-13.809a8.9,8.9,0,0,1-1.169.679c-1.288.632-5.854,2.552-10.515.537-.853-.371-1.833-.79-2.868-1.3-5.854-2.694-14.7-6.794-20.69-4.614Z" transform="translate(-314 -102.746)" fill="#fff"/>
      </g>
      <path id="Trazado_3348" data-name="Trazado 3348" d="M346.56,229.2s-7.3-1.58-9.535-10.27c-1.383-5.4-5.53-15.421-9.764-15.01l-10.341,6.668a33.637,33.637,0,0,1,6.273,13.074c1.509,7.244,10.546,14.48,10.546,14.48Z" transform="translate(-104.335 -87.907)" fill="#f83f00"/>
      <g id="Grupo_698" data-name="Grupo 698" transform="translate(220.183 127.364)" opacity="0.4">
        <path id="Trazado_3349" data-name="Trazado 3349" d="M326.9,226.135a5.878,5.878,0,0,1,4.29-7.789c3.018-.521,6.13,2.883,6.652,5.9a5.53,5.53,0,0,1-4.527,6.415C330.284,231.183,327.938,229.019,326.9,226.135Z" transform="translate(-326.537 -218.293)" fill="#fff"/>
      </g>
      <path id="Trazado_3350" data-name="Trazado 3350" d="M328.964,225.314q.13,0,.4.521a7.019,7.019,0,0,0,.837,1.319,2.465,2.465,0,0,0,.742.585,1.2,1.2,0,0,0,.861.1.909.909,0,0,0,.593-.569,1.581,1.581,0,0,0-.2-1.051c-.1-.229-.221-.474-.332-.751a3.2,3.2,0,0,1-.229-.956,2.142,2.142,0,0,1,.047-.553,1.825,1.825,0,0,1,1.011-1.24,2,2,0,0,1,.972-.174,2.094,2.094,0,0,1,.837.269,2.851,2.851,0,0,1,.988.98,3.949,3.949,0,0,1,.419.972,4.269,4.269,0,0,1,.142.743c.047.419,0,.648-.071.671s-.229-.166-.419-.513a6.865,6.865,0,0,0-.829-1.327,2.069,2.069,0,0,0-.727-.553.838.838,0,0,0-.79,0,.729.729,0,0,0-.253.261.466.466,0,0,0-.047.158.586.586,0,0,0,0,.205,4.666,4.666,0,0,0,.474,1.256,3.677,3.677,0,0,1,.292.916,2.433,2.433,0,0,1,0,.537,1.922,1.922,0,0,1-.119.561A2.125,2.125,0,0,1,332.053,229a2.22,2.22,0,0,1-1.7-.348,3.112,3.112,0,0,1-.956-.98,4.084,4.084,0,0,1-.569-1.714C328.846,225.566,328.885,225.329,328.964,225.314Z" transform="translate(-106.836 -91.822)" fill="#f83f00"/>
      <path id="Trazado_3351" data-name="Trazado 3351" d="M329.079,229.036c-.1-.158,1.525-1.343,3.626-2.646s3.879-2.244,3.95-2.094a16.306,16.306,0,0,1-3.626,2.654C330.927,228.262,329.174,229.186,329.079,229.036Z" transform="translate(-106.887 -92.186)" fill="#f83f00"/>
      <path id="Trazado_3352" data-name="Trazado 3352" d="M328.649,227.923c-.1-.158,1.367-1.24,3.271-2.425s3.531-2.022,3.634-1.872-1.374,1.248-3.278,2.425S328.743,228.073,328.649,227.923Z" transform="translate(-106.797 -92.045)" fill="#f83f00"/>
      <g id="Grupo_699" data-name="Grupo 699" transform="translate(214.229 117.029)" opacity="0.5">
        <path id="Trazado_3353" data-name="Trazado 3353" d="M319,211.238l9.432-6.028.1.055c4.74,2.552,6.9,10.333,8.342,15.484.245.893.482,1.73.7,2.441a9.824,9.824,0,0,0,7.031,6.359l.174.34-10.064,6.675-.1-.063a22.909,22.909,0,0,1-10.341-15.342c-.687-4.321-5.088-9.7-5.135-9.756Zm9.48-5.577-8.927,5.7c.79.972,4.44,5.727,5.08,9.764a22.49,22.49,0,0,0,10.048,15.01l9.4-6.225a8.618,8.618,0,0,1-1.035-.364,10.566,10.566,0,0,1-5.87-6.2c-.221-.719-.458-1.58-.711-2.449-1.414-5.087-3.555-12.7-8.05-15.239Z" transform="translate(-319 -205.21)" fill="#fff"/>
      </g>
      <path id="Trazado_3354" data-name="Trazado 3354" d="M259.522,159.863a10.863,10.863,0,0,1-10.128-4.566c-2.67-3.5-8.793-9.527-11.739-7.9l-5.475,8.05a26.645,26.645,0,0,1,8.611,7.584c3.334,4.819,12.15,7.3,12.15,7.3Z" transform="translate(-86.538 -75.983)" fill="#f83f00"/>
      <g id="Grupo_700" data-name="Grupo 700" transform="translate(154.039 78.652)" opacity="0.4">
        <path id="Trazado_3355" data-name="Trazado 3355" d="M244.074,164.127a4.661,4.661,0,0,1,.719-7.007c2.038-1.311,5.356.213,6.675,2.251a4.392,4.392,0,0,1-1.319,6.067C248.1,166.758,245.725,165.9,244.074,164.127Z" transform="translate(-242.809 -156.632)" fill="#fff"/>
      </g>
      <path id="Trazado_3356" data-name="Trazado 3356" d="M245.2,162.968c.063-.047.221.055.458.253a5.118,5.118,0,0,0,1.019.7,1.983,1.983,0,0,0,.719.2.917.917,0,0,0,.656-.19.711.711,0,0,0,.261-.6,1.287,1.287,0,0,0-.466-.7c-.15-.134-.308-.276-.474-.442a2.47,2.47,0,0,1-.466-.632,1.728,1.728,0,0,1-.134-.419,1.43,1.43,0,0,1,0-.45,1.509,1.509,0,0,1,1.011-1.185,1.58,1.58,0,0,1,.7-.063,2.243,2.243,0,0,1,1.027.4,3.029,3.029,0,0,1,.6.585,3.311,3.311,0,0,1,.34.5c.158.284.205.466.15.506s-.213-.047-.458-.245a6.037,6.037,0,0,0-1.019-.711,1.81,1.81,0,0,0-.7-.174.624.624,0,0,0-.545.253.474.474,0,0,0-.1.269.355.355,0,0,0,0,.126.5.5,0,0,0,.063.15,3.482,3.482,0,0,0,.735.79,3.024,3.024,0,0,1,.49.577,1.576,1.576,0,0,1,.19.387,1.412,1.412,0,0,1,.087.435,1.659,1.659,0,0,1-.7,1.43,1.746,1.746,0,0,1-1.351.276,2.369,2.369,0,0,1-1-.419,3.326,3.326,0,0,1-.948-1.074C245.188,163.189,245.148,163.039,245.2,162.968Z" transform="translate(-89.268 -78.565)" fill="#f83f00"/>
      <path id="Trazado_3357" data-name="Trazado 3357" d="M246.577,165.458a12.105,12.105,0,0,1,1.825-3.042,12.824,12.824,0,0,1,2.251-2.757,12.357,12.357,0,0,1-1.825,3.049A12.887,12.887,0,0,1,246.577,165.458Z" transform="translate(-89.559 -78.614)" fill="#f83f00"/>
      <path id="Trazado_3358" data-name="Trazado 3358" d="M245.877,164.82a10.158,10.158,0,0,1,1.643-2.781,10.349,10.349,0,0,1,2.062-2.481,10.249,10.249,0,0,1-1.635,2.781A10.5,10.5,0,0,1,245.877,164.82Z" transform="translate(-89.412 -78.593)" fill="#f83f00"/>
      <g id="Grupo_701" data-name="Grupo 701" transform="translate(146.93 71.944)" opacity="0.5">
        <path id="Trazado_3359" data-name="Trazado 3359" d="M233.81,155.447l5.008-7.307h.095c4.226.4,8.216,5.4,10.862,8.69.458.569.885,1.114,1.264,1.58a7.789,7.789,0,0,0,7.11,2.457l.237.2-5.277,7.971h-.095a18.1,18.1,0,0,1-12.268-7.987c-1.833-2.931-6.707-5.49-6.755-5.53Zm5.159-6.984-4.74,6.865c.869.474,5.009,2.8,6.723,5.53a17.862,17.862,0,0,0,11.968,7.852l4.93-7.45a5.889,5.889,0,0,1-.861.055,8.35,8.35,0,0,1-6.2-2.7c-.379-.45-.79-1-1.272-1.58C246.94,153.812,243.037,148.922,238.969,148.464Z" transform="translate(-233.81 -148.14)" fill="#fff"/>
      </g>
      <path id="Trazado_3360" data-name="Trazado 3360" d="M75.161,295.7a10.862,10.862,0,0,1-10.128-4.566c-2.67-3.5-8.793-9.527-11.739-7.9l-5.475,8.05a26.648,26.648,0,0,1,8.611,7.584c3.334,4.819,12.15,7.3,12.15,7.3Z" transform="translate(-47.82 -104.511)" fill="#f83f00"/>
      <g id="Grupo_702" data-name="Grupo 702" transform="translate(8.401 185.996)" opacity="0.4">
        <path id="Trazado_3361" data-name="Trazado 3361" d="M59.723,300.007A4.653,4.653,0,0,1,60.442,293c2.038-1.311,5.356.213,6.667,2.251a4.393,4.393,0,0,1-1.319,6.067C63.752,302.606,61.366,301.753,59.723,300.007Z" transform="translate(-58.454 -292.512)" fill="#fff"/>
      </g>
      <path id="Trazado_3362" data-name="Trazado 3362" d="M60.853,298.807c.055-.047.213.055.45.253a5.124,5.124,0,0,0,1.019.7,1.985,1.985,0,0,0,.727.2.94.94,0,0,0,.656-.19.727.727,0,0,0,.253-.6,1.24,1.24,0,0,0-.466-.7c-.142-.134-.308-.276-.474-.442a2.457,2.457,0,0,1-.474-.6,1.445,1.445,0,0,1-.134-.419,1.233,1.233,0,0,1,0-.45,1.446,1.446,0,0,1,.355-.79,1.477,1.477,0,0,1,.656-.426,1.5,1.5,0,0,1,.687-.063,2.245,2.245,0,0,1,1.027.4,2.889,2.889,0,0,1,.608.585,3.155,3.155,0,0,1,.332.5c.158.284.213.466.158.513s-.221-.055-.466-.253a5.94,5.94,0,0,0-1.011-.711,1.883,1.883,0,0,0-.7-.174.663.663,0,0,0-.553.253.545.545,0,0,0-.1.269.34.34,0,0,0,0,.126.507.507,0,0,0,.063.15,3.48,3.48,0,0,0,.735.79,3.05,3.05,0,0,1,.5.577,2.511,2.511,0,0,1,.19.387,1.405,1.405,0,0,1,.079.434,1.667,1.667,0,0,1-.679,1.462,1.8,1.8,0,0,1-1.343.276,2.368,2.368,0,0,1-1-.427,3.16,3.16,0,0,1-.98-1.114C60.837,299,60.789,298.847,60.853,298.807Z" transform="translate(-50.551 -107.093)" fill="#f83f00"/>
      <path id="Trazado_3363" data-name="Trazado 3363" d="M62.217,301.278a12.1,12.1,0,0,1,1.825-3.042,12.814,12.814,0,0,1,2.251-2.757,12.066,12.066,0,0,1-1.825,3.049A12.412,12.412,0,0,1,62.217,301.278Z" transform="translate(-50.841 -107.138)" fill="#f83f00"/>
      <path id="Trazado_3364" data-name="Trazado 3364" d="M61.527,300.66a10,10,0,0,1,1.635-2.781,10.562,10.562,0,0,1,2.062-2.481,10.246,10.246,0,0,1-1.635,2.781A10.359,10.359,0,0,1,61.527,300.66Z" transform="translate(-50.696 -107.121)" fill="#f83f00"/>
      <g id="Grupo_703" data-name="Grupo 703" transform="translate(1.288 179.272)" opacity="0.5">
        <path id="Trazado_3365" data-name="Trazado 3365" d="M49.45,291.292,54.466,284h.087c4.226.4,8.224,5.4,10.862,8.69.458.577.885,1.114,1.272,1.58a7.774,7.774,0,0,0,7.11,2.457l.237.2L68.765,304.9h-.1a18.1,18.1,0,0,1-12.3-8.011c-1.833-2.931-6.707-5.49-6.754-5.53Zm5.174-6.984-4.74,6.865c.869.474,5,2.8,6.715,5.53a17.831,17.831,0,0,0,11.984,7.837l4.922-7.45a5.833,5.833,0,0,1-.861.055,8.334,8.334,0,0,1-6.17-2.686c-.387-.45-.79-1-1.272-1.58C62.587,289.656,58.677,284.79,54.624,284.308Z" transform="translate(-49.45 -284)" fill="#fff"/>
      </g>
      <path id="Trazado_3366" data-name="Trazado 3366" d="M183.189,204.84s-2.157,7.031-10.894,8.508c-5.411.908-15.6,4.155-15.515,8.35l5.688,10.7a33.132,33.132,0,0,1,13.359-5.08c7.244-.877,15.089-9.156,15.089-9.156Z" transform="translate(-70.703 -88.104)" fill="#f83f00"/>
      <g id="Grupo_704" data-name="Grupo 704" transform="translate(97.423 126.606)" opacity="0.4">
        <path id="Trazado_3367" data-name="Trazado 3367" d="M178.448,228.248a5.783,5.783,0,0,1-7.292-4.851c-.269-3.01,3.334-5.783,6.32-6.043a5.475,5.475,0,0,1,5.925,4.977C183.67,225.341,181.363,227.466,178.448,228.248Z" transform="translate(-171.142 -217.334)" fill="#fff"/>
      </g>
      <path id="Trazado_3368" data-name="Trazado 3368" d="M177.789,227.154c0-.095.19-.205.553-.355a6.5,6.5,0,0,0,1.359-.711,2.3,2.3,0,0,0,.632-.687,1.129,1.129,0,0,0,.182-.829.908.908,0,0,0-.513-.624,1.517,1.517,0,0,0-1.051.1c-.229.079-.482.182-.79.261a2.764,2.764,0,0,1-.956.142,2.059,2.059,0,0,1-.537-.087,1.58,1.58,0,0,1-.506-.261,1.777,1.777,0,0,1-.624-.837,1.841,1.841,0,0,1-.095-.964,1.983,1.983,0,0,1,.332-.79,2.789,2.789,0,0,1,1.043-.893,3.949,3.949,0,0,1,1-.332,4.741,4.741,0,0,1,.743-.079c.4,0,.632.04.648.126s-.182.213-.537.371a6.675,6.675,0,0,0-1.375.7,2.037,2.037,0,0,0-.6.671.79.79,0,0,0-.04.751.6.6,0,0,0,.229.269.507.507,0,0,0,.15.063.791.791,0,0,0,.205,0,4.656,4.656,0,0,0,1.272-.363,3.867,3.867,0,0,1,.924-.213,2.369,2.369,0,0,1,.529,0,1.771,1.771,0,0,1,.537.166,2.085,2.085,0,0,1,1.177,1.58,2.22,2.22,0,0,1-.482,1.643,2.963,2.963,0,0,1-1.043.853,3.949,3.949,0,0,1-1.73.419C178.034,227.3,177.805,227.233,177.789,227.154Z" transform="translate(-74.617 -91.332)" fill="#f83f00"/>
      <path id="Trazado_3369" data-name="Trazado 3369" d="M181.526,227.182c-.158.087-1.185-1.58-2.3-3.776s-1.88-4-1.722-4.076,1.193,1.58,2.3,3.776S181.684,227.1,181.526,227.182Z" transform="translate(-75.051 -91.146)" fill="#f83f00"/>
      <path id="Trazado_3370" data-name="Trazado 3370" d="M180.384,227.695c-.158.087-1.106-1.446-2.109-3.413s-1.7-3.634-1.54-3.713,1.106,1.446,2.117,3.413S180.542,227.616,180.384,227.695Z" transform="translate(-74.889 -91.406)" fill="#f83f00"/>
      <g id="Grupo_705" data-name="Grupo 705" transform="translate(87.128 118.964)" opacity="0.5">
        <path id="Trazado_3371" data-name="Trazado 3371" d="M163.253,231.446l-5.143-9.764.063-.095c2.9-4.416,10.728-5.917,15.9-6.912.893-.174,1.73-.332,2.449-.49a9.7,9.7,0,0,0,6.825-6.375l.355-.15,5.72,10.436-.071.1a22.6,22.6,0,0,1-15.926,8.887c-4.3.308-9.938,4.195-9.993,4.234Zm-4.693-9.74,4.835,9.172c1.019-.679,5.988-3.887,10.009-4.179a22.207,22.207,0,0,0,15.563-8.627l-5.34-9.748a7.8,7.8,0,0,1-.442.988,10.39,10.39,0,0,1-6.573,5.253c-.727.158-1.58.316-2.465.49C169.083,216.034,161.42,217.5,158.56,221.706Z" transform="translate(-158.11 -207.66)" fill="#fff"/>
      </g>
      <path id="Trazado_3372" data-name="Trazado 3372" d="M119.353,178.732s-7.228,5.7-17.277,1c-6.217-2.915-19.015-6.825-21.914-2.457L78.4,192.343a41.538,41.538,0,0,1,17.38,4.282c8.074,4.25,22.049,1.327,22.049,1.327Z" transform="translate(-54.242 -81.903)" fill="#f83f00"/>
      <g id="Grupo_706" data-name="Grupo 706" transform="translate(37.451 99.653)" opacity="0.4">
        <path id="Trazado_3373" data-name="Trazado 3373" d="M100.1,196.262a7.252,7.252,0,0,1-4.053-10.191c1.88-3.286,7.56-3.571,10.839-1.7a6.841,6.841,0,0,1,2.552,9.338C107.561,196.988,103.659,197.533,100.1,196.262Z" transform="translate(-95.227 -183.215)" fill="#fff"/>
      </g>
      <path id="Trazado_3374" data-name="Trazado 3374" d="M100.908,194.114c.047-.1.34-.071.79,0a7.994,7.994,0,0,0,1.912.237,2.931,2.931,0,0,0,1.138-.253,1.461,1.461,0,0,0,.79-.727,1.138,1.138,0,0,0-.079-1.011,1.935,1.935,0,0,0-1.153-.64c-.3-.087-.624-.158-.972-.277a3.849,3.849,0,0,1-1.09-.529,2.83,2.83,0,0,1-.49-.482,2.213,2.213,0,0,1-.387-1.935,2.409,2.409,0,0,1,1.5-1.643,3.508,3.508,0,0,1,1.714-.174,4.741,4.741,0,0,1,1.256.371,6.251,6.251,0,0,1,.79.442c.427.284.624.5.577.592s-.332.087-.79,0a8.9,8.9,0,0,0-1.912-.245,2.606,2.606,0,0,0-1.1.261,1,1,0,0,0-.569.743.79.79,0,0,0,0,.442.842.842,0,0,0,.118.174.921.921,0,0,0,.182.166,5.883,5.883,0,0,0,1.58.537,5.052,5.052,0,0,1,1.09.434,3.667,3.667,0,0,1,.545.4,2.442,2.442,0,0,1,.434.553,2.6,2.6,0,0,1,.071,2.473,2.765,2.765,0,0,1-1.667,1.359,3.9,3.9,0,0,1-1.675.134,5.087,5.087,0,0,1-2.086-.79C101.05,194.438,100.861,194.209,100.908,194.114Z" transform="translate(-58.968 -84.282)" fill="#f83f00"/>
      <path id="Trazado_3375" data-name="Trazado 3375" d="M104.971,196.459c-.229,0-.079-2.5.324-5.53s.908-5.451,1.13-5.419.079,2.5-.324,5.53S105.2,196.491,104.971,196.459Z" transform="translate(-59.8 -84.044)" fill="#f83f00"/>
      <path id="Trazado_3376" data-name="Trazado 3376" d="M103.47,196.168c-.221,0-.111-2.275.261-5.016s.845-4.945,1.066-4.922.1,2.283-.261,5.024S103.691,196.2,103.47,196.168Z" transform="translate(-59.483 -84.195)" fill="#f83f00"/>
      <g id="Grupo_707" data-name="Grupo 707" transform="translate(25.785 94.71)" opacity="0.5">
        <path id="Trazado_3377" data-name="Trazado 3377" d="M80.46,191.448l1.659-13.667.126-.047c6.13-2.488,15.255,1.58,21.33,4.2,1.035.466,2.022.893,2.876,1.248,5.7,2.37,11.3-1.193,11.558-1.706l.466.1-1.58,14.812-.142.047a28.274,28.274,0,0,1-22.712-2.188c-4.645-2.741-13.216-2.765-13.3-2.765Zm2.1-13.359-1.58,12.877c1.533,0,8.935.269,13.272,2.828a27.824,27.824,0,0,0,22.183,2.2l1.446-13.833a9,9,0,0,1-1.161.7c-1.272.664-5.806,2.654-10.507.727-.853-.348-1.841-.79-2.883-1.248C97.421,179.733,88.5,175.79,82.561,178.089Z" transform="translate(-80.46 -176.958)" fill="#fff"/>
      </g>
      <path id="Trazado_3378" data-name="Trazado 3378" d="M198.514,57.07s1.011,8.058-7.11,13.493c-5.04,3.373-13.825,11.249-11.85,15.436l10.562,8.192a36.664,36.664,0,0,1,11.139-11.163c6.9-4.155,11.06-16.045,11.06-16.045Z" transform="translate(-75.426 -57.07)" fill="#f83f00"/>
      <g id="Grupo_708" data-name="Grupo 708" transform="translate(114.615 13.129)" opacity="0.4">
        <path id="Trazado_3379" data-name="Trazado 3379" d="M202.973,84.995a6.4,6.4,0,0,1-9.543-1.58c-1.627-2.915.79-7.331,3.658-8.958a6.043,6.043,0,0,1,8.216,2.323C206.931,79.694,205.557,82.885,202.973,84.995Z" transform="translate(-192.905 -73.689)" fill="#fff"/>
      </g>
      <path id="Trazado_3380" data-name="Trazado 3380" d="M201.473,84.706c-.055-.079.1-.284.395-.6a7.472,7.472,0,0,0,1.051-1.335,2.662,2.662,0,0,0,.324-.972,1.287,1.287,0,0,0-.2-.916.987.987,0,0,0-.79-.4,1.706,1.706,0,0,0-1.011.577c-.2.19-.4.4-.648.616a3.6,3.6,0,0,1-.9.577,2.545,2.545,0,0,1-.585.15,1.834,1.834,0,0,1-.624,0,2.022,2.022,0,0,1-1.011-.561,2.062,2.062,0,0,1-.529-.924,2.324,2.324,0,0,1,0-.956,3.16,3.16,0,0,1,.648-1.375,4.157,4.157,0,0,1,.853-.79,4.942,4.942,0,0,1,.711-.419c.411-.2.656-.253.711-.174s-.087.3-.379.616a8.01,8.01,0,0,0-1.059,1.335,2.259,2.259,0,0,0-.3.948.885.885,0,0,0,.3.79.7.7,0,0,0,.355.166.729.729,0,0,0,.182,0,.791.791,0,0,0,.205-.063,5.134,5.134,0,0,0,1.122-.948,4.743,4.743,0,0,1,.79-.632,3.284,3.284,0,0,1,.545-.221,2.062,2.062,0,0,1,.616-.079,2.307,2.307,0,0,1,1.9,1.074,2.417,2.417,0,0,1,.261,1.872,3.318,3.318,0,0,1-.656,1.327,4.59,4.59,0,0,1-1.58,1.209C201.782,84.753,201.529,84.793,201.473,84.706Z" transform="translate(-79.128 -61.29)" fill="#f83f00"/>
      <path id="Trazado_3381" data-name="Trazado 3381" d="M204.976,83.487c-.126.15-1.928-1.082-4.029-2.765s-3.705-3.16-3.579-3.326,1.928,1.082,4.029,2.765S205.118,83.329,204.976,83.487Z" transform="translate(-79.226 -61.336)" fill="#f83f00"/>
      <path id="Trazado_3382" data-name="Trazado 3382" d="M204.084,84.526c-.118.158-1.77-.956-3.673-2.481s-3.373-2.9-3.223-3.049,1.77.964,3.673,2.488S204.21,84.368,204.084,84.526Z" transform="translate(-79.187 -61.672)" fill="#f83f00"/>
      <g id="Grupo_709" data-name="Grupo 709" transform="translate(104.918 2.188)" opacity="0.5">
        <path id="Trazado_3383" data-name="Trazado 3383" d="M190.22,92.988l-9.59-7.5v-.126c.924-5.759,8.113-10.815,12.877-14.157.79-.577,1.58-1.122,2.251-1.58,4.369-3.247,4.242-9.085,3.95-9.48l.284-.308,10.483,7.9v.126a24.908,24.908,0,0,1-12,16.155c-4.187,2.259-8.105,8.69-8.145,8.785Zm-9.132-7.679,9.022,7.047c.711-1.153,4.266-6.628,8.176-8.745a24.49,24.49,0,0,0,11.763-15.744l-9.788-7.394a7.235,7.235,0,0,1,0,1.193,11.443,11.443,0,0,1-4.234,8.263c-.656.49-1.438,1.035-2.259,1.58C189.1,74.834,182.068,79.779,181.088,85.309Z" transform="translate(-180.63 -59.84)" fill="#fff"/>
      </g>
    </g>
    <g id="freepik--Money--inject-432" transform="translate(66.577 338.925)">
      <rect id="Rectngulo_514" data-name="Rectngulo 514" width="41.601" height="8.998" transform="translate(237.873 8.903)" fill="#263238"/>
      <path id="Trazado_3384" data-name="Trazado 3384" d="M400.03,425.67l.687,9h5.87l.308-9Z" transform="translate(-145.638 -416.767)" fill="#e0e0e0"/>
      <rect id="Rectngulo_515" data-name="Rectngulo 515" width="41.601" height="8.998" transform="translate(227.785 8.903)" fill="#455a64"/>
      <path id="Trazado_3385" data-name="Trazado 3385" d="M407.85,427.4c0,.118-9.251.205-20.666.205s-20.674-.087-20.674-.205,9.251-.206,20.674-.206S407.85,427.285,407.85,427.4Z" transform="translate(-138.599 -417.086)" fill="#263238"/>
      <path id="Trazado_3386" data-name="Trazado 3386" d="M407.83,430.006c0,.11-9.251.205-20.666.205s-20.674-.095-20.674-.205,9.259-.206,20.674-.206S407.83,429.895,407.83,430.006Z" transform="translate(-138.595 -417.634)" fill="#263238"/>
      <path id="Trazado_3387" data-name="Trazado 3387" d="M407.83,432.615c0,.111-9.251.205-20.666.205s-20.674-.095-20.674-.205,9.259-.206,20.674-.206S407.83,432.5,407.83,432.615Z" transform="translate(-138.595 -418.182)" fill="#263238"/>
      <path id="Trazado_3388" data-name="Trazado 3388" d="M407.83,435.215c0,.119-9.251.206-20.666.206s-20.674-.087-20.674-.206,9.259-.205,20.674-.205S407.83,435.1,407.83,435.215Z" transform="translate(-138.595 -418.728)" fill="#263238"/>
      <path id="Trazado_3389" data-name="Trazado 3389" d="M387.25,425.67l.687,9h5.878l.3-9Z" transform="translate(-142.955 -416.767)" fill="#e0e0e0"/>
      <rect id="Rectngulo_516" data-name="Rectngulo 516" width="41.601" height="8.998" transform="translate(242.921 0)" fill="#263238"/>
      <path id="Trazado_3390" data-name="Trazado 3390" d="M406.42,414.4l.687,9h5.87l.308-9Z" transform="translate(-146.98 -414.4)" fill="#e0e0e0"/>
      <rect id="Rectngulo_517" data-name="Rectngulo 517" width="41.601" height="8.998" transform="translate(232.833 0)" fill="#455a64"/>
      <path id="Trazado_3391" data-name="Trazado 3391" d="M414.24,416.136c0,.111-9.259.205-20.666.205s-20.674-.095-20.674-.205,9.251-.205,20.674-.205S414.24,415.985,414.24,416.136Z" transform="translate(-139.941 -414.721)" fill="#263238"/>
      <path id="Trazado_3392" data-name="Trazado 3392" d="M414.22,418.735c0,.119-9.251.205-20.666.205s-20.674-.087-20.674-.205,9.259-.205,20.674-.205S414.22,418.625,414.22,418.735Z" transform="translate(-139.937 -415.267)" fill="#263238"/>
      <path id="Trazado_3393" data-name="Trazado 3393" d="M414.22,421.346c0,.111-9.251.205-20.666.205s-20.674-.095-20.674-.205,9.259-.206,20.674-.206S414.22,421.235,414.22,421.346Z" transform="translate(-139.937 -415.815)" fill="#263238"/>
      <path id="Trazado_3394" data-name="Trazado 3394" d="M414.22,423.945c0,.111-9.251.205-20.666.205s-20.674-.095-20.674-.205,9.259-.206,20.674-.206S414.22,423.835,414.22,423.945Z" transform="translate(-139.937 -416.361)" fill="#263238"/>
      <path id="Trazado_3395" data-name="Trazado 3395" d="M393.64,414.4l.687,9h5.87l.308-9Z" transform="translate(-144.297 -414.4)" fill="#e0e0e0"/>
      <rect id="Rectngulo_518" data-name="Rectngulo 518" width="41.601" height="8.998" transform="translate(240.101 26.804)" fill="#263238"/>
      <path id="Trazado_3396" data-name="Trazado 3396" d="M402.84,448.32l.687,9.006H409.4l.3-9.006Z" transform="translate(-146.229 -421.524)" fill="#e0e0e0"/>
      <rect id="Rectngulo_519" data-name="Rectngulo 519" width="41.601" height="8.998" transform="translate(230.005 26.796)" fill="#455a64"/>
      <path id="Trazado_3397" data-name="Trazado 3397" d="M410.66,450.055c0,.119-9.251.205-20.666.205s-20.674-.087-20.674-.205,9.259-.205,20.674-.205S410.66,449.969,410.66,450.055Z" transform="translate(-139.189 -421.845)" fill="#263238"/>
      <path id="Trazado_3398" data-name="Trazado 3398" d="M410.65,452.665c0,.111-9.259.206-20.674.206s-20.666-.095-20.666-.206,9.251-.205,20.666-.205S410.65,452.547,410.65,452.665Z" transform="translate(-139.187 -422.393)" fill="#263238"/>
      <path id="Trazado_3399" data-name="Trazado 3399" d="M410.65,455.265c0,.119-9.259.213-20.674.213s-20.666-.095-20.666-.213,9.251-.205,20.666-.205S410.65,455.155,410.65,455.265Z" transform="translate(-139.187 -422.939)" fill="#263238"/>
      <path id="Trazado_3400" data-name="Trazado 3400" d="M410.65,457.875c0,.119-9.259.205-20.674.205s-20.666-.087-20.666-.205,9.251-.205,20.666-.205S410.65,457.765,410.65,457.875Z" transform="translate(-139.187 -423.487)" fill="#263238"/>
      <path id="Trazado_3401" data-name="Trazado 3401" d="M390.07,448.32l.687,9.006h5.87l.3-9.006Z" transform="translate(-143.547 -421.524)" fill="#e0e0e0"/>
      <rect id="Rectngulo_520" data-name="Rectngulo 520" width="41.601" height="8.998" transform="translate(245.149 17.901)" fill="#263238"/>
      <path id="Trazado_3402" data-name="Trazado 3402" d="M409.23,437.06l.687,9h5.877l.3-9Z" transform="translate(-147.571 -419.159)" fill="#e0e0e0"/>
      <rect id="Rectngulo_521" data-name="Rectngulo 521" width="41.601" height="8.998" transform="translate(235.053 17.901)" fill="#455a64"/>
      <path id="Trazado_3403" data-name="Trazado 3403" d="M417.01,438.785c0,.119-9.25.213-20.666.213s-20.674-.095-20.674-.213,9.259-.205,20.674-.205S417.01,438.675,417.01,438.785Z" transform="translate(-140.523 -419.478)" fill="#263238"/>
      <path id="Trazado_3404" data-name="Trazado 3404" d="M417.012,441.4c0,.118-9.251.205-20.666.205s-20.666-.087-20.666-.205,9.251-.205,20.666-.205S417.012,441.285,417.012,441.4Z" transform="translate(-140.525 -420.026)" fill="#263238"/>
      <path id="Trazado_3405" data-name="Trazado 3405" d="M417.012,444.005c0,.111-9.251.205-20.666.205s-20.666-.095-20.666-.205,9.251-.205,20.666-.205S417.012,443.887,417.012,444.005Z" transform="translate(-140.525 -420.574)" fill="#263238"/>
      <path id="Trazado_3406" data-name="Trazado 3406" d="M417.012,446.605c0,.118-9.251.213-20.666.213s-20.666-.095-20.666-.213,9.251-.206,20.666-.206S417.012,446.495,417.012,446.605Z" transform="translate(-140.525 -421.12)" fill="#263238"/>
      <path id="Trazado_3407" data-name="Trazado 3407" d="M396.45,437.06l.687,9h5.877l.3-9Z" transform="translate(-144.887 -419.159)" fill="#e0e0e0"/>
      <rect id="Rectngulo_522" data-name="Rectngulo 522" width="41.601" height="8.998" transform="translate(212.111 17.806)" fill="#f83f00"/>
      <rect id="Rectngulo_523" data-name="Rectngulo 523" width="41.601" height="8.998" transform="translate(212.111 17.806)" opacity="0.2"/>
      <path id="Trazado_3408" data-name="Trazado 3408" d="M367.42,436.94l.687,9h5.87l.308-9Z" transform="translate(-138.79 -419.134)" fill="#e0e0e0"/>
      <rect id="Rectngulo_524" data-name="Rectngulo 524" width="41.601" height="8.998" transform="translate(207.545 26.804)" fill="#f83f00"/>
      <rect id="Rectngulo_525" data-name="Rectngulo 525" width="41.601" height="8.998" transform="translate(207.545 26.804)" opacity="0.2"/>
      <path id="Trazado_3409" data-name="Trazado 3409" d="M361.64,448.32l.679,9.006H368.2l.3-9.006Z" transform="translate(-137.576 -421.524)" fill="#e0e0e0"/>
      <rect id="Rectngulo_526" data-name="Rectngulo 526" width="41.601" height="8.998" transform="translate(197.449 26.804)" fill="#f83f00"/>
      <g id="Grupo_710" data-name="Grupo 710" transform="translate(197.584 28.005)" opacity="0.2">
        <path id="Trazado_3410" data-name="Trazado 3410" d="M369.46,450.055c0,.119-9.259.205-20.674.205s-20.666-.087-20.666-.205,9.251-.205,20.666-.205S369.46,449.969,369.46,450.055Z" transform="translate(-328.12 -449.85)"/>
      </g>
      <g id="Grupo_711" data-name="Grupo 711" transform="translate(197.568 30.067)" opacity="0.2">
        <path id="Trazado_3411" data-name="Trazado 3411" d="M369.44,452.665c0,.111-9.259.206-20.666.206s-20.674-.095-20.674-.206,9.251-.205,20.674-.205S369.44,452.547,369.44,452.665Z" transform="translate(-328.1 -452.46)"/>
      </g>
      <g id="Grupo_712" data-name="Grupo 712" transform="translate(197.568 32.121)" opacity="0.2">
        <path id="Trazado_3412" data-name="Trazado 3412" d="M369.44,455.265c0,.119-9.259.213-20.666.213s-20.674-.095-20.674-.213,9.251-.205,20.674-.205S369.44,455.155,369.44,455.265Z" transform="translate(-328.1 -455.06)"/>
      </g>
      <g id="Grupo_713" data-name="Grupo 713" transform="translate(197.568 34.183)" opacity="0.2">
        <path id="Trazado_3413" data-name="Trazado 3413" d="M369.44,457.875c0,.119-9.259.205-20.666.205s-20.674-.087-20.674-.205,9.251-.205,20.674-.205S369.44,457.765,369.44,457.875Z" transform="translate(-328.1 -457.67)"/>
      </g>
      <path id="Trazado_3414" data-name="Trazado 3414" d="M348.86,448.32l.687,9.006h5.87l.308-9.006Z" transform="translate(-134.892 -421.524)" fill="#e0e0e0"/>
      <rect id="Rectngulo_527" data-name="Rectngulo 527" width="41.601" height="8.998" transform="translate(203.453 17.806)" fill="#f83f00"/>
      <g id="Grupo_714" data-name="Grupo 714" transform="translate(203.587 19.007)" opacity="0.2">
        <path id="Trazado_3415" data-name="Trazado 3415" d="M377.06,438.665c0,.119-9.259.206-20.666.206s-20.674-.087-20.674-.206,9.251-.205,20.674-.205S377.06,438.555,377.06,438.665Z" transform="translate(-335.72 -438.46)"/>
      </g>
      <g id="Grupo_715" data-name="Grupo 715" transform="translate(203.548 21.069)" opacity="0.2">
        <path id="Trazado_3416" data-name="Trazado 3416" d="M377.01,441.275c0,.111-9.251.205-20.666.205s-20.674-.095-20.674-.205,9.251-.205,20.674-.205S377.01,441.157,377.01,441.275Z" transform="translate(-335.67 -441.07)"/>
      </g>
      <g id="Grupo_716" data-name="Grupo 716" transform="translate(203.548 23.131)" opacity="0.2">
        <path id="Trazado_3417" data-name="Trazado 3417" d="M377.01,443.885c0,.111-9.251.205-20.666.205s-20.674-.095-20.674-.205,9.251-.205,20.674-.205S377.01,443.767,377.01,443.885Z" transform="translate(-335.67 -443.68)"/>
      </g>
      <g id="Grupo_717" data-name="Grupo 717" transform="translate(203.548 25.185)" opacity="0.2">
        <path id="Trazado_3418" data-name="Trazado 3418" d="M377.01,446.485c0,.119-9.251.205-20.666.205s-20.674-.087-20.674-.205,9.251-.205,20.674-.205S377.01,446.375,377.01,446.485Z" transform="translate(-335.67 -446.28)"/>
      </g>
      <path id="Trazado_3419" data-name="Trazado 3419" d="M356.46,436.94l.687,9h5.87l.308-9Z" transform="translate(-136.488 -419.134)" fill="#e0e0e0"/>
      <rect id="Rectngulo_528" data-name="Rectngulo 528" width="41.601" height="8.998" transform="translate(15.16 26.804)" fill="#263238"/>
      <path id="Trazado_3420" data-name="Trazado 3420" d="M118.1,448.32l.687,9.006h5.877l.3-9.006Z" transform="translate(-86.429 -421.524)" fill="#e0e0e0"/>
      <rect id="Rectngulo_529" data-name="Rectngulo 529" width="41.601" height="8.998" transform="translate(5.064 26.796)" fill="#455a64"/>
      <path id="Trazado_3421" data-name="Trazado 3421" d="M125.92,450.055c0,.119-9.251.205-20.666.205s-20.674-.087-20.674-.205,9.259-.205,20.674-.205S125.92,449.969,125.92,450.055Z" transform="translate(-79.39 -421.845)" fill="#263238"/>
      <path id="Trazado_3422" data-name="Trazado 3422" d="M125.9,452.665c0,.111-9.251.206-20.666.206s-20.666-.095-20.666-.206,9.251-.205,20.666-.205S125.9,452.547,125.9,452.665Z" transform="translate(-79.388 -422.393)" fill="#263238"/>
      <path id="Trazado_3423" data-name="Trazado 3423" d="M125.9,455.265c0,.119-9.251.213-20.666.213s-20.666-.095-20.666-.213,9.251-.205,20.666-.205S125.9,455.155,125.9,455.265Z" transform="translate(-79.388 -422.939)" fill="#263238"/>
      <path id="Trazado_3424" data-name="Trazado 3424" d="M125.9,457.875c0,.119-9.251.205-20.666.205s-20.666-.087-20.666-.205,9.251-.205,20.666-.205S125.9,457.765,125.9,457.875Z" transform="translate(-79.388 -423.487)" fill="#263238"/>
      <path id="Trazado_3425" data-name="Trazado 3425" d="M105.32,448.32l.687,9.006h5.878l.3-9.006Z" transform="translate(-83.745 -421.524)" fill="#f5f5f5"/>
      <rect id="Rectngulo_530" data-name="Rectngulo 530" width="41.601" height="8.998" transform="translate(10.096 17.901)" fill="#263238"/>
      <path id="Trazado_3426" data-name="Trazado 3426" d="M111.7,437.06l.679,9h5.877l.308-9Z" transform="translate(-85.085 -419.159)" fill="#e0e0e0"/>
      <rect id="Rectngulo_531" data-name="Rectngulo 531" width="41.601" height="8.998" transform="translate(0 17.901)" fill="#455a64"/>
      <path id="Trazado_3427" data-name="Trazado 3427" d="M119.52,438.785c0,.119-9.259.213-20.674.213s-20.666-.095-20.666-.213,9.251-.205,20.666-.205S119.52,438.675,119.52,438.785Z" transform="translate(-78.046 -419.478)" fill="#263238"/>
      <path id="Trazado_3428" data-name="Trazado 3428" d="M119.5,441.4c0,.118-9.259.205-20.674.205s-20.666-.087-20.666-.205,9.251-.205,20.666-.205S119.5,441.285,119.5,441.4Z" transform="translate(-78.042 -420.026)" fill="#263238"/>
      <path id="Trazado_3429" data-name="Trazado 3429" d="M119.5,444.005c0,.111-9.259.205-20.674.205s-20.666-.095-20.666-.205,9.251-.205,20.666-.205S119.5,443.887,119.5,444.005Z" transform="translate(-78.042 -420.574)" fill="#263238"/>
      <path id="Trazado_3430" data-name="Trazado 3430" d="M119.5,446.605c0,.118-9.259.213-20.674.213s-20.666-.095-20.666-.213,9.251-.206,20.666-.206S119.5,446.495,119.5,446.605Z" transform="translate(-78.042 -421.12)" fill="#263238"/>
      <path id="Trazado_3431" data-name="Trazado 3431" d="M98.92,437.06l.687,9h5.87l.308-9Z" transform="translate(-82.401 -419.159)" fill="#f5f5f5"/>
    </g>
  </g>
</svg>
