<svg xmlns="http://www.w3.org/2000/svg" width="276" height="160" viewBox="0 0 276 160">
  <g id="make-it-rain-pana" transform="translate(42.12 -119.41)">
    <rect id="Rectángulo_921" data-name="Rectángulo 921" width="276" height="160" transform="translate(-42.12 119.41)" fill="#fff"/>
    <g id="Grupo_1873" data-name="Grupo 1873" transform="translate(-7 -102)">
      <g id="freepik--background-complete--inject-432" transform="translate(47.38 237.22)">
        <path id="Trazado_3200" data-name="Trazado 3200" d="M142.921,347.077c7.513-4.881,9.5-14.342,9.5-22.908,0-1.428.209-2.927-.427-4.2a2.906,2.906,0,0,0-3.492-1.627c-1.078.462-1.582,1.682-2.211,2.68a8.36,8.36,0,0,1-3.456,3.087,3.188,3.188,0,0,1-2.943.164c-1.207-.719-1.284-2.426-1.239-3.851l.321-7.94a13.361,13.361,0,0,0-.286-4.233,4.4,4.4,0,0,0-2.67-3.071,2.672,2.672,0,0,0-3.367,1.678,12.9,12.9,0,0,0-.1,1.765,1.491,1.491,0,0,1-.924,1.377,1.728,1.728,0,0,1-1.537-.7,18.8,18.8,0,0,1-3.209-5.234,25.855,25.855,0,0,0-2.985-5.388,7.687,7.687,0,0,0-5.1-3.1,4.587,4.587,0,0,0-4.814,2.978c-.571,1.98.517,4.057,1.733,5.719a31.771,31.771,0,0,0,6.371,6.512A2.556,2.556,0,0,1,123.148,312c.276.963-.642,1.868-1.6,2.147a16.182,16.182,0,0,1-3.328.26,3.2,3.2,0,0,0-2.782,1.576c-.642,1.431.53,2.994,1.691,4.031a27.214,27.214,0,0,0,7.882,4.913,9.149,9.149,0,0,1,2.937,1.553,2.63,2.63,0,0,1,.741,3.039,2.676,2.676,0,0,1-2.949,1.017,20.054,20.054,0,0,1-3.078-1.284c-1.926-.806-4.451-.754-5.758.889a4.493,4.493,0,0,0-.613,3.96,10.412,10.412,0,0,0,2.032,3.582,27.325,27.325,0,0,0,11.383,8.591c4.474,1.723,8.665,2.291,13.213.8" transform="translate(-102.358 -219.168)" fill="#ebebeb"/>
        <path id="Trazado_3201" data-name="Trazado 3201" d="M146.806,349.762c-.2-3.4-.032-1.358-1.152-5.716a127.569,127.569,0,0,0-4.589-13.874q-.7-1.81-1.39-3.575c-.459-1.171-.911-2.333-1.428-3.444a63.267,63.267,0,0,0-3.325-6.207c-1.152-1.926-2.317-3.707-3.418-5.366s-2.163-3.18-3.187-4.531a50.543,50.543,0,0,0-5.305-6c-.677-.658-1.223-1.149-1.6-1.479l-.427-.369a1.077,1.077,0,0,0-.151-.122.81.81,0,0,0,.135.141l.408.392c.359.34.892.844,1.56,1.512a53.149,53.149,0,0,1,5.228,6.04c1.011,1.351,2.06,2.888,3.155,4.538s2.247,3.45,3.392,5.369a64.016,64.016,0,0,1,3.3,6.191c.51,1.1.963,2.246,1.419,3.431l1.386,3.575a130.349,130.349,0,0,1,4.6,13.839c1.13,4.342.985,2.282,1.2,5.668" transform="translate(-107.116 -221.564)" fill="#e0e0e0"/>
        <path id="Trazado_3202" data-name="Trazado 3202" d="M174.862,341.086a3.019,3.019,0,0,0,.16-.6c.087-.392.2-.963.321-1.662.25-1.409.526-3.363.825-5.52s.6-4.1.873-5.5c.132-.7.244-1.265.321-1.656a2.754,2.754,0,0,0,.1-.613,2.956,2.956,0,0,0-.2.587c-.112.385-.254.947-.411,1.643-.321,1.4-.642,3.344-.963,5.5s-.549,4.057-.748,5.526c-.1.664-.177,1.226-.241,1.675A2.691,2.691,0,0,0,174.862,341.086Z" transform="translate(-143.805 -239.525)" fill="#e0e0e0"/>
        <path id="Trazado_3203" data-name="Trazado 3203" d="M118.33,361.407a3.768,3.768,0,0,0,.725.112c.469.058,1.143.138,1.977.263,1.666.237,3.957.642,6.464,1.207s4.753,1.175,6.367,1.662c.809.237,1.457.446,1.906.591a4.03,4.03,0,0,0,.706.2,3.679,3.679,0,0,0-.674-.3c-.44-.173-1.082-.411-1.884-.674-1.6-.533-3.851-1.171-6.364-1.739a64.592,64.592,0,0,0-6.5-1.146c-.838-.1-1.518-.151-1.99-.18A4.289,4.289,0,0,0,118.33,361.407Z" transform="translate(-105.419 -263.877)" fill="#e0e0e0"/>
        <path id="Trazado_3204" data-name="Trazado 3204" d="M197.51,389.411a.88.88,0,0,0,.135-.218l.321-.642c.289-.565.684-1.393,1.159-2.426.963-2.06,2.176-4.952,3.485-8.158s2.506-6.1,3.415-8.184c.446-1.011.812-1.842,1.082-2.462.119-.266.212-.488.292-.671a.816.816,0,0,0,.083-.241,1.125,1.125,0,0,0-.132.218l-.321.642c-.289.568-.684,1.4-1.159,2.429-.963,2.06-2.179,4.952-3.489,8.158s-2.506,6.1-3.415,8.184c-.443,1.011-.809,1.842-1.082,2.458l-.289.674A1.091,1.091,0,0,0,197.51,389.411Z" transform="translate(-159.187 -267.285)" fill="#e0e0e0"/>
        <path id="Trazado_3205" data-name="Trazado 3205" d="M122.73,411.15a1.011,1.011,0,0,0,.237.106l.7.26,2.567.931c2.173.786,5.157,1.906,8.453,3.148s6.293,2.336,8.479,3.078c1.094.369,1.983.661,2.6.85l.712.212a.838.838,0,0,0,.254.058,1.008,1.008,0,0,0-.238-.109l-.7-.26-2.567-.928c-2.17-.786-5.154-1.906-8.45-3.148s-6.293-2.336-8.482-3.078c-1.091-.372-1.98-.661-2.6-.85l-.712-.215A.88.88,0,0,0,122.73,411.15Z" transform="translate(-108.406 -297.667)" fill="#e0e0e0"/>
        <path id="Trazado_3206" data-name="Trazado 3206" d="M311.441,230.206s-3.87-2.044-7.449,7.086a113.125,113.125,0,0,0-4.763,14.31s-.995,1.926-2.362.87-3.415-4.278-5.482-3.46c-2.147.847-2.632,3.379-1.855,6.958s2.189,11.477,2.314,12.2-.18,1.784-1.229,1.207-7.32-6.319-9.865-3.18,1.255,12.747,1.65,13.8.228,1.544-.263,1.865-2.413-1.81-4.265-3.37-4.268-3.042-5.587-1.107-1.065,9.4,7.179,20.755l4.172,5.013,6.467-1c13.713-2.985,18.871-8.386,19.179-10.706s-2.487-2.824-4.907-2.888-5.273.234-5.427-.321.048-1.037,1.046-1.563,10.234-5.167,10.424-9.2-8.309-3.931-9.477-4.2-.674-1.284-.116-1.717,6.884-5.4,9.846-7.555,4.284-4.365,3.251-6.419c-1-1.987-4.663-.963-6.4-1.069s-1.181-2.221-1.181-2.221a113.024,113.024,0,0,0,5.976-13.851c3.408-9.195-.963-10.251-.963-10.251" transform="translate(-209.558 -174.661)" fill="#ebebeb"/>
        <path id="Trazado_3207" data-name="Trazado 3207" d="M309.39,319.323c2.532-6.74,6.1-16.027,10.093-26.275s7.577-19.519,10.145-26.249l3.03-7.972.828-2.166.218-.562c.051-.128.08-.189.08-.189a.521.521,0,0,1-.061.2l-.2.568-.789,2.182c-.687,1.894-1.7,4.625-2.969,7.994-2.532,6.74-6.1,16.031-10.09,26.272s-7.58,19.522-10.148,26.252" transform="translate(-235.161 -192.248)" fill="#e0e0e0"/>
        <path id="Trazado_3208" data-name="Trazado 3208" d="M341.29,303.39a2.148,2.148,0,0,1,.205.424c.122.276.286.684.485,1.187.4,1.008.908,2.413,1.444,3.976s.995,2.936,1.354,4l.42,1.21a2.063,2.063,0,0,1,.135.453,2.27,2.27,0,0,1-.209-.424c-.122-.276-.286-.684-.478-1.191-.388-1.011-.879-2.423-1.415-3.986l-1.393-3.992-.427-1.207A2.142,2.142,0,0,1,341.29,303.39Z" transform="translate(-256.824 -224.491)" fill="#e0e0e0"/>
        <path id="Trazado_3209" data-name="Trazado 3209" d="M355.79,327.853c-.022-.051,2.831-1.232,6.371-2.635s6.419-2.5,6.444-2.452-2.831,1.236-6.371,2.638S355.809,327.908,355.79,327.853Z" transform="translate(-266.67 -237.647)" fill="#e0e0e0"/>
        <path id="Trazado_3210" data-name="Trazado 3210" d="M334.52,383.3a2.116,2.116,0,0,1,.475-.067l1.3-.125c1.1-.106,2.616-.257,4.281-.488s3.174-.481,4.259-.677l1.284-.228a2.086,2.086,0,0,1,.478-.061,2.318,2.318,0,0,1-.462.138c-.3.077-.735.18-1.284.292-1.082.231-2.587.51-4.259.738s-3.209.359-4.3.43c-.552.032-1,.051-1.306.058A2.067,2.067,0,0,1,334.52,383.3Z" transform="translate(-252.226 -277.634)" fill="#e0e0e0"/>
        <path id="Trazado_3211" data-name="Trazado 3211" d="M314.39,357.8a1.96,1.96,0,0,1,.289.337l.729.963c.607.818,1.435,1.961,2.34,3.229s1.717,2.423,2.295,3.264l.674,1a2,2,0,0,1,.228.385,1.867,1.867,0,0,1-.292-.337c-.2-.263-.44-.587-.729-.963-.607-.822-1.435-1.961-2.34-3.229s-1.714-2.423-2.291-3.264l-.677-1A1.713,1.713,0,0,1,314.39,357.8Z" transform="translate(-238.557 -261.439)" fill="#e0e0e0"/>
        <path id="Trazado_3212" data-name="Trazado 3212" d="M290.21,397.93a2.835,2.835,0,0,1,.366.436l.94,1.232c.783,1.046,1.855,2.5,3.03,4.114s2.23,3.081,2.988,4.15l.886,1.284a2.869,2.869,0,0,1,.3.485,3.058,3.058,0,0,1-.366-.436l-.937-1.236c-.786-1.046-1.858-2.5-3.033-4.114s-2.246-3.081-2.988-4.15l-.886-1.284A3.259,3.259,0,0,1,290.21,397.93Z" transform="translate(-222.137 -288.69)" fill="#e0e0e0"/>
        <path id="Trazado_3213" data-name="Trazado 3213" d="M316.34,427.99a3.112,3.112,0,0,1,.6-.1l1.646-.218c1.39-.183,3.306-.443,5.414-.793s4.008-.706,5.382-.979l1.63-.321a3.72,3.72,0,0,1,.6-.1,3.019,3.019,0,0,1-.584.173c-.379.1-.931.231-1.6.385-1.37.321-3.27.693-5.382,1.04s-4.034.587-5.43.735c-.7.071-1.261.125-1.653.151A3.792,3.792,0,0,1,316.34,427.99Z" transform="translate(-239.881 -307.398)" fill="#e0e0e0"/>
        <path id="Trazado_3214" data-name="Trazado 3214" d="M347.725,158.39a5.573,5.573,0,0,1-5.433,1.727c-2.221-.424-6.624-.642-7.192,1l.661,4.952a13.707,13.707,0,0,1,5.892-.048c2.924.7,7.147-1.37,7.147-1.37Z" transform="translate(-252.62 -126.026)" fill="#ebebeb"/>
        <path id="Trazado_3215" data-name="Trazado 3215" d="M351.178,170.6a2.388,2.388,0,0,1-2.121-2.924c.321-1.2,2.118-1.756,3.318-1.425a2.247,2.247,0,0,1,1.576,2.773A2.449,2.449,0,0,1,351.178,170.6Z" transform="translate(-262.055 -131.3)" fill="#f5f5f5"/>
        <path id="Trazado_3216" data-name="Trazado 3216" d="M354.1,171.555c0-.038.1-.051.263-.061a2.654,2.654,0,0,0,.642-.077,1.049,1.049,0,0,0,.343-.173.488.488,0,0,0,.189-.3.375.375,0,0,0-.109-.321.613.613,0,0,0-.42-.109h-.321a1.226,1.226,0,0,1-.392-.083.776.776,0,0,1-.193-.112.73.73,0,0,1-.16-.17.774.774,0,0,1-.122-.414.786.786,0,0,1,.347-.642,1.143,1.143,0,0,1,.533-.2,1.537,1.537,0,0,1,.43,0,1.926,1.926,0,0,1,.3.074c.16.058.241.109.234.144s-.1.055-.263.064a3.011,3.011,0,0,0-.642.074.9.9,0,0,0-.321.173.321.321,0,0,0-.122.286.263.263,0,0,0,.048.138.225.225,0,0,0,.051.045.269.269,0,0,0,.074.038,1.926,1.926,0,0,0,.546.042,1.721,1.721,0,0,1,.385.051,1.019,1.019,0,0,1,.205.083.785.785,0,0,1,.183.138.864.864,0,0,1,.225.786.909.909,0,0,1-.42.568,1.284,1.284,0,0,1-.526.18,1.743,1.743,0,0,1-.732-.087C354.173,171.645,354.093,171.591,354.1,171.555Z" transform="translate(-265.332 -133.151)" fill="#ebebeb"/>
        <path id="Trazado_3217" data-name="Trazado 3217" d="M357.585,171.354a6.394,6.394,0,0,1-.347-1.791,6.243,6.243,0,0,1-.08-1.823,12.413,12.413,0,0,1,.427,3.614Z" transform="translate(-267.573 -132.375)" fill="#ebebeb"/>
        <path id="Trazado_3218" data-name="Trazado 3218" d="M356.377,171.88a10.474,10.474,0,0,1-.382-3.28,5.067,5.067,0,0,1,.321,1.624A5.476,5.476,0,0,1,356.377,171.88Z" transform="translate(-266.782 -132.959)" fill="#ebebeb"/>
        <g id="Grupo_667" data-name="Grupo 667" transform="translate(82.974 33.269)" opacity="0.5">
          <path id="Trazado_3219" data-name="Trazado 3219" d="M337.227,167.459l-.587-4.509.035-.029c1.755-1.284,4.994-.748,7.138-.388.369.061.719.119,1.021.16a4,4,0,0,0,3.549-1.483h.16l.729,4.846-.042.029a9.307,9.307,0,0,1-7.446,1.155,10.761,10.761,0,0,0-4.471.2Zm-.417-4.435.552,4.236a10.439,10.439,0,0,1,4.467-.18,9.137,9.137,0,0,0,7.253-1.1l-.664-4.515a3.492,3.492,0,0,1-.321.321,4.251,4.251,0,0,1-3.293,1.088c-.3-.042-.642-.1-1.024-.164C341.685,162.336,338.517,161.807,336.81,163.023Z" transform="translate(-336.64 -161.21)" fill="#fafafa"/>
        </g>
        <path id="Trazado_3220" data-name="Trazado 3220" d="M265.561,62.576a5.561,5.561,0,0,1-5.456-1.6c-1.6-1.6-5.135-4.227-6.528-3.19l-2.218,4.493a13.646,13.646,0,0,1,4.913,3.251c2.035,2.214,6.695,2.853,6.695,2.853Z" transform="translate(-195.755 -57.545)" fill="#ebebeb"/>
        <path id="Trazado_3221" data-name="Trazado 3221" d="M266.22,72.211a2.385,2.385,0,0,1-.128-3.61c.944-.812,2.738-.273,3.55.671a2.247,2.247,0,0,1-.244,3.18A2.408,2.408,0,0,1,266.22,72.211Z" transform="translate(-205.24 -64.783)" fill="#f5f5f5"/>
        <path id="Trazado_3222" data-name="Trazado 3222" d="M268.7,73.512c.029-.029.116,0,.25.1a2.725,2.725,0,0,0,.568.286.943.943,0,0,0,.382.048.481.481,0,0,0,.321-.141.379.379,0,0,0,.087-.321c-.019-.1-.119-.209-.289-.321-.08-.058-.173-.119-.27-.193a1.186,1.186,0,0,1-.279-.286.936.936,0,0,1-.1-.205.728.728,0,0,1,.1-.642.8.8,0,0,1,.3-.26.809.809,0,0,1,.35-.083,1.127,1.127,0,0,1,.549.138,1.584,1.584,0,0,1,.35.25,2.01,2.01,0,0,1,.205.231c.1.135.138.221.112.247s-.112,0-.254-.093a2.935,2.935,0,0,0-.565-.289.9.9,0,0,0-.369-.042.321.321,0,0,0-.26.17.256.256,0,0,0-.035.141.157.157,0,0,0,.016.064.408.408,0,0,0,.039.074,1.945,1.945,0,0,0,.43.34,1.758,1.758,0,0,1,.292.257,1.066,1.066,0,0,1,.122.183.7.7,0,0,1,.074.218.85.85,0,0,1-.25.777.911.911,0,0,1-.668.237,1.329,1.329,0,0,1-.536-.144,1.675,1.675,0,0,1-.558-.481C268.712,73.627,268.677,73.534,268.7,73.512Z" transform="translate(-207.527 -67.015)" fill="#ebebeb"/>
        <path id="Trazado_3223" data-name="Trazado 3223" d="M270.983,74.55a6.281,6.281,0,0,1,.716-1.678,5.6,5.6,0,0,1,.963-1.557,5.7,5.7,0,0,1-.712,1.678A6.519,6.519,0,0,1,270.983,74.55Z" transform="translate(-209.074 -66.894)" fill="#ebebeb"/>
        <path id="Trazado_3224" data-name="Trazado 3224" d="M269.981,74.35a10.392,10.392,0,0,1,1.518-2.933,5.116,5.116,0,0,1-.642,1.528A5.62,5.62,0,0,1,269.981,74.35Z" transform="translate(-208.394 -66.964)" fill="#ebebeb"/>
        <g id="Grupo_668" data-name="Grupo 668" transform="translate(56.234 0.439)" opacity="0.5">
          <path id="Trazado_3225" data-name="Trazado 3225" d="M253.32,62.984l2.035-4.069h.045c2.176-.09,4.56,2.17,6.139,3.662.27.26.526.5.754.706a4,4,0,0,0,3.774.751l.135.083-2.121,4.422h-.051a9.307,9.307,0,0,1-6.8-3.18,10.816,10.816,0,0,0-3.822-2.33Zm2.144-3.912-1.926,3.822a10.536,10.536,0,0,1,3.806,2.349,9.153,9.153,0,0,0,6.63,3.139l1.98-4.134a3.379,3.379,0,0,1-.436.09,4.3,4.3,0,0,1-3.341-.937c-.225-.205-.485-.449-.757-.709C259.883,61.228,257.55,59.017,255.464,59.072Z" transform="translate(-253.32 -58.912)" fill="#fafafa"/>
        </g>
        <path id="Trazado_3226" data-name="Trazado 3226" d="M141.774,122a5.569,5.569,0,0,1-4.435-3.582c-.873-2.086-3.126-5.873-4.814-5.456l-3.765,3.286a13.643,13.643,0,0,1,3.286,4.894c1.03,2.827,5.087,5.206,5.087,5.206Z" transform="translate(-112.501 -95.156)" fill="#f5f5f5"/>
        <path id="Trazado_3227" data-name="Trazado 3227" d="M140.389,130.223a2.385,2.385,0,0,1,1.284-3.379c1.184-.385,2.632.8,3.02,1.987a2.246,2.246,0,0,1-1.444,2.84A2.435,2.435,0,0,1,140.389,130.223Z" transform="translate(-120.202 -104.553)" fill="#ebebeb"/>
        <path id="Trazado_3228" data-name="Trazado 3228" d="M142.668,132.182c.035,0,.1.058.193.186a2.8,2.8,0,0,0,.414.481,1.044,1.044,0,0,0,.321.193.5.5,0,0,0,.35,0,.375.375,0,0,0,.205-.266.616.616,0,0,0-.138-.411c-.055-.087-.119-.176-.177-.282a1.22,1.22,0,0,1-.148-.372.752.752,0,0,1,0-.225.623.623,0,0,1,.055-.228.738.738,0,0,1,.279-.321.773.773,0,0,1,.375-.128.87.87,0,0,1,.353.058,1.136,1.136,0,0,1,.456.337,1.407,1.407,0,0,1,.225.366,1.6,1.6,0,0,1,.1.292c.042.164.045.26,0,.273s-.1-.051-.2-.183a2.888,2.888,0,0,0-.411-.485.921.921,0,0,0-.321-.18.321.321,0,0,0-.321.055.27.27,0,0,0-.087.119.156.156,0,0,0,0,.067.417.417,0,0,0,0,.083,1.924,1.924,0,0,0,.266.478,1.6,1.6,0,0,1,.17.35.911.911,0,0,1,.042.215.792.792,0,0,1,0,.231.86.86,0,0,1-.533.619.9.9,0,0,1-.7-.039,1.283,1.283,0,0,1-.443-.337,1.727,1.727,0,0,1-.321-.658C142.633,132.291,142.636,132.195,142.668,132.182Z" transform="translate(-121.929 -107.295)" fill="#f5f5f5"/>
        <path id="Trazado_3229" data-name="Trazado 3229" d="M143.394,134.3a6.009,6.009,0,0,1,1.3-1.284,6.548,6.548,0,0,1,1.476-1.072,6.1,6.1,0,0,1-1.3,1.284A6.592,6.592,0,0,1,143.394,134.3Z" transform="translate(-122.437 -108.061)" fill="#f5f5f5"/>
        <path id="Trazado_3230" data-name="Trazado 3230" d="M142.794,133.611a10.213,10.213,0,0,1,2.523-2.131,5.3,5.3,0,0,1-1.175,1.168A4.908,4.908,0,0,1,142.794,133.611Z" transform="translate(-122.029 -107.749)" fill="#f5f5f5"/>
        <g id="Grupo_669" data-name="Grupo 669" transform="translate(16.939 18.179)" opacity="0.5">
          <path id="Trazado_3231" data-name="Trazado 3231" d="M130.88,117.168l3.437-2.978h.045c2.044.754,3.376,3.755,4.259,5.741.154.34.3.664.427.937a3.988,3.988,0,0,0,3.209,2.144l.093.128-3.655,3.273-.048-.022a9.323,9.323,0,0,1-5.055-5.562,10.758,10.758,0,0,0-2.635-3.62Zm3.469-2.8-3.232,2.8a10.4,10.4,0,0,1,2.616,3.627,9.15,9.15,0,0,0,4.917,5.456l3.415-3.055a3.179,3.179,0,0,1-.436-.087,4.305,4.305,0,0,1-2.725-2.147c-.132-.276-.273-.6-.427-.944C137.613,118.064,136.307,115.13,134.349,114.373Z" transform="translate(-130.88 -114.19)" fill="#ebebeb"/>
        </g>
        <path id="Trazado_3232" data-name="Trazado 3232" d="M85.58,229.67a3.851,3.851,0,0,1-3.084,2.452c-1.537.273-4.432,1.223-4.4,2.42l1.65,3.033a9.47,9.47,0,0,1,3.79-1.483c2.06-.266,4.275-2.645,4.275-2.645Z" transform="translate(-78.099 -174.43)" fill="#f5f5f5"/>
        <path id="Trazado_3233" data-name="Trazado 3233" d="M90.252,241.605a1.653,1.653,0,0,1-2.092-1.364c-.083-.857.937-1.656,1.794-1.736a1.56,1.56,0,0,1,1.7,1.4A1.676,1.676,0,0,1,90.252,241.605Z" transform="translate(-84.928 -180.424)" fill="#ebebeb"/>
        <path id="Trazado_3234" data-name="Trazado 3234" d="M91.853,242.483c0-.026.055-.058.157-.1a2.01,2.01,0,0,0,.385-.205.7.7,0,0,0,.18-.2.321.321,0,0,0,.048-.237.263.263,0,0,0-.148-.18.433.433,0,0,0-.3.032c-.067.026-.138.055-.218.077a.8.8,0,0,1-.273.045.64.64,0,0,1-.154-.026.5.5,0,0,1-.144-.071.552.552,0,0,1-.18-.237.584.584,0,0,1-.029-.276.561.561,0,0,1,.093-.228.758.758,0,0,1,.3-.257.963.963,0,0,1,.282-.1,1.522,1.522,0,0,1,.209-.026c.119,0,.183,0,.186.035s-.051.061-.151.106a2.017,2.017,0,0,0-.388.205.543.543,0,0,0-.17.193.218.218,0,0,0,0,.212.174.174,0,0,0,.064.077l.045.019H91.7a1.335,1.335,0,0,0,.363-.109,1.187,1.187,0,0,1,.26-.061.622.622,0,0,1,.154,0,.41.41,0,0,1,.151.045.594.594,0,0,1,.34.449.642.642,0,0,1-.132.472.857.857,0,0,1-.3.244,1.14,1.14,0,0,1-.494.125C91.923,242.525,91.859,242.509,91.853,242.483Z" transform="translate(-86.977 -181.784)" fill="#f5f5f5"/>
        <path id="Trazado_3235" data-name="Trazado 3235" d="M93.755,242.137a8.509,8.509,0,0,1-1.165-2.227,4.423,4.423,0,0,1,.668,1.072A4.171,4.171,0,0,1,93.755,242.137Z" transform="translate(-87.939 -181.383)" fill="#f5f5f5"/>
        <path id="Trazado_3236" data-name="Trazado 3236" d="M93.119,242.809a3.434,3.434,0,0,1-.613-.963,3.572,3.572,0,0,1-.446-1.056,3.571,3.571,0,0,1,.61.963A3.678,3.678,0,0,1,93.119,242.809Z" transform="translate(-87.579 -181.981)" fill="#f5f5f5"/>
        <g id="Grupo_670" data-name="Grupo 670" transform="translate(0.289 55.876)" opacity="0.5">
          <path id="Trazado_3237" data-name="Trazado 3237" d="M80.5,238.476,79,235.71v-.029c.815-1.264,3.039-1.714,4.512-2.009.254-.051.494-.1.7-.148a2.757,2.757,0,0,0,1.926-1.833l.1-.042,1.656,2.959-.019.026a6.438,6.438,0,0,1-4.512,2.567,7.426,7.426,0,0,0-2.837,1.232Zm-1.361-2.76,1.4,2.6a7.19,7.19,0,0,1,2.84-1.216,6.329,6.329,0,0,0,4.413-2.5l-1.547-2.763a1.885,1.885,0,0,1-.125.282,2.953,2.953,0,0,1-1.858,1.515c-.205.048-.446.1-.7.148C82.116,234.07,79.94,234.51,79.138,235.716Z" transform="translate(-79 -231.65)" fill="#ebebeb"/>
        </g>
        <path id="Trazado_3238" data-name="Trazado 3238" d="M447.752,141.81a3.851,3.851,0,0,1-3.935.189c-1.409-.677-4.313-1.6-4.981-.607l-.436,3.428a9.4,9.4,0,0,1,3.944,1.011c1.829.985,5.016.35,5.016.35Z" transform="translate(-322.768 -114.186)" fill="#f5f5f5"/>
        <path id="Trazado_3239" data-name="Trazado 3239" d="M448.957,148.445a1.65,1.65,0,0,1-.9-2.33,1.943,1.943,0,0,1,2.468-.363,1.557,1.557,0,0,1,.562,2.131A1.672,1.672,0,0,1,448.957,148.445Z" transform="translate(-329.194 -117.258)" fill="#ebebeb"/>
        <path id="Trazado_3240" data-name="Trazado 3240" d="M451,149.09c0-.022.077,0,.186,0a1.84,1.84,0,0,0,.433.058.738.738,0,0,0,.26-.055.35.35,0,0,0,.18-.164.266.266,0,0,0-.016-.231.433.433,0,0,0-.263-.148c-.067-.019-.141-.039-.221-.067a.879.879,0,0,1-.247-.122.7.7,0,0,1-.109-.109.513.513,0,0,1-.074-.144.526.526,0,0,1,0-.3.536.536,0,0,1,.138-.238.507.507,0,0,1,.209-.132.8.8,0,0,1,.388-.039,1.116,1.116,0,0,1,.286.087,1.8,1.8,0,0,1,.186.1c.1.067.141.116.132.138s-.077.019-.186,0a2.1,2.1,0,0,0-.436-.061.61.61,0,0,0-.25.058.222.222,0,0,0-.132.167.169.169,0,0,0,0,.1.112.112,0,0,0,.026.042.163.163,0,0,0,.042.039,1.284,1.284,0,0,0,.356.125,1.008,1.008,0,0,1,.25.1.792.792,0,0,1,.122.09.722.722,0,0,1,.1.125.591.591,0,0,1,0,.565.642.642,0,0,1-.379.321.963.963,0,0,1-.385.029,1.185,1.185,0,0,1-.472-.189C451.039,149.163,451,149.112,451,149.09Z" transform="translate(-331.324 -118.558)" fill="#f5f5f5"/>
        <path id="Trazado_3241" data-name="Trazado 3241" d="M453.272,149.27a8.609,8.609,0,0,1,.356-2.49,4.559,4.559,0,0,1-.087,1.258A4.268,4.268,0,0,1,453.272,149.27Z" transform="translate(-332.858 -118.142)" fill="#f5f5f5"/>
        <path id="Trazado_3242" data-name="Trazado 3242" d="M452.423,149.439a3.562,3.562,0,0,1,.071-1.143,3.478,3.478,0,0,1,.254-1.117,3.673,3.673,0,0,1-.071,1.143,3.613,3.613,0,0,1-.254,1.117Z" transform="translate(-332.278 -118.413)" fill="#f5f5f5"/>
        <g id="Grupo_671" data-name="Grupo 671" transform="translate(116.004 27.072)" opacity="0.5">
          <path id="Trazado_3243" data-name="Trazado 3243" d="M439.56,145.182l.408-3.116H440c1.4-.552,3.466.385,4.836,1,.234.106.456.209.642.289a2.76,2.76,0,0,0,2.635-.363l.106.022-.385,3.37H447.8a6.435,6.435,0,0,1-5.164-.549,7.316,7.316,0,0,0-3.023-.658Zm.51-3.036-.385,2.927a7.1,7.1,0,0,1,3.017.671,6.316,6.316,0,0,0,5.042.552l.356-3.148a1.923,1.923,0,0,1-.263.157,2.959,2.959,0,0,1-2.394.144l-.642-.292C443.45,142.55,441.428,141.635,440.07,142.146Z" transform="translate(-439.56 -141.898)" fill="#ebebeb"/>
        </g>
      </g>
      <g id="freepik--Floor--inject-432" transform="translate(29.88 366.24)">
        <path id="Trazado_3244" data-name="Trazado 3244" d="M168.907,459.643c0,.048-32.536.087-72.665.087s-72.672-.029-72.672-.087,32.53-.083,72.672-.083S168.907,459.6,168.907,459.643Z" transform="translate(-23.57 -459.56)" fill="#263238"/>
      </g>
      <g id="freepik--Character--inject-432" transform="translate(35.54 283.494)">
        <path id="Trazado_3245" data-name="Trazado 3245" d="M224.42,214.124a17.727,17.727,0,0,1-1.146-3.286,5.931,5.931,0,0,1,.2-3.434,3.6,3.6,0,0,1,2.513-2.211,13.768,13.768,0,0,0,2.131-.27,6.312,6.312,0,0,0,1.906-1.573,6.072,6.072,0,0,1,3.482-1.585,3.6,3.6,0,0,1,2,.289,2.025,2.025,0,0,1,1.146,1.582,9.627,9.627,0,0,1,2.439-.587,3.232,3.232,0,0,1,2.349.7,1.97,1.97,0,0,1,.542,2.272,1.6,1.6,0,0,1,2.067.584,2.07,2.07,0,0,1-.132,2.247,3.851,3.851,0,0,1-2.307,1.325,5.59,5.59,0,0,1-2.442-.067" transform="translate(-164.731 -201.73)" fill="#263238"/>
        <path id="Trazado_3246" data-name="Trazado 3246" d="M229.3,248.567l11.233-.9c.071-1.313-.022-6.387-.022-6.387s4.673-.728,4.731-5.4-.751-15.4-.751-15.4h0a16.242,16.242,0,0,0-16.323,2.051l-.693.533Z" transform="translate(-167.691 -213.562)" fill="#b78876"/>
        <path id="Trazado_3247" data-name="Trazado 3247" d="M255.218,284.223a10.867,10.867,0,0,1-6.1-1.733s1.441,3.363,6.1,2.943Z" transform="translate(-182.393 -256.571)" fill="#aa6550"/>
        <path id="Trazado_3248" data-name="Trazado 3248" d="M222.691,246.091c-.077-.035-3.209-.963-3.107,2.247s3.286,2.436,3.29,2.343S222.691,246.091,222.691,246.091Z" transform="translate(-162.335 -231.751)" fill="#b78876"/>
        <path id="Trazado_3249" data-name="Trazado 3249" d="M223.534,251.683a1.378,1.378,0,0,1-.148.087.552.552,0,0,1-.414.019,1.378,1.378,0,0,1-.677-1.213,1.846,1.846,0,0,1,.128-.8.642.642,0,0,1,.408-.44.286.286,0,0,1,.321.141c.045.087.026.151.042.157s.067-.058.039-.186a.366.366,0,0,0-.132-.2.436.436,0,0,0-.321-.071.786.786,0,0,0-.565.514,1.862,1.862,0,0,0-.164.9,1.443,1.443,0,0,0,.854,1.354.591.591,0,0,0,.507-.1C223.53,251.77,223.547,251.683,223.534,251.683Z" transform="translate(-164.009 -233.945)" fill="#aa6550"/>
        <path id="Trazado_3250" data-name="Trazado 3250" d="M272.9,244.559a.667.667,0,0,1-.642.671.642.642,0,0,1-.69-.6.668.668,0,0,1,.642-.674.642.642,0,0,1,.69.6Z" transform="translate(-197.638 -230.403)" fill="#263238"/>
        <path id="Trazado_3251" data-name="Trazado 3251" d="M272.13,242.276c-.084.09-.587-.286-1.306-.282s-1.245.359-1.322.273.045-.2.276-.366a1.836,1.836,0,0,1,1.059-.321,1.785,1.785,0,0,1,1.04.321C272.094,242.08,272.171,242.238,272.13,242.276Z" transform="translate(-196.218 -228.791)" fill="#263238"/>
        <path id="Trazado_3252" data-name="Trazado 3252" d="M250.9,244.559a.668.668,0,0,1-.642.671.642.642,0,0,1-.69-.6.668.668,0,0,1,.642-.674.642.642,0,0,1,.69.6Z" transform="translate(-182.699 -230.403)" fill="#263238"/>
        <path id="Trazado_3253" data-name="Trazado 3253" d="M250.159,242.7c-.083.087-.587-.286-1.306-.286s-1.245.363-1.322.273c-.039-.039.045-.2.276-.363a1.813,1.813,0,0,1,1.059-.321,1.762,1.762,0,0,1,1.04.321C250.124,242.5,250.2,242.657,250.159,242.7Z" transform="translate(-181.308 -229.076)" fill="#263238"/>
        <path id="Trazado_3254" data-name="Trazado 3254" d="M263.151,248.1a4.693,4.693,0,0,1,1.168-.212c.183-.019.356-.055.388-.18a.963.963,0,0,0-.122-.542l-.542-1.4a23.956,23.956,0,0,1-1.22-3.652,24.246,24.246,0,0,1,1.508,3.53q.273.735.52,1.406a1.055,1.055,0,0,1,.1.719.462.462,0,0,1-.3.27,1.175,1.175,0,0,1-.321.042A4.551,4.551,0,0,1,263.151,248.1Z" transform="translate(-191.693 -229.157)" fill="#263238"/>
        <path id="Trazado_3255" data-name="Trazado 3255" d="M257.03,262.32c.116,0,.119.77.786,1.325s1.5.469,1.5.578c0,.048-.186.151-.536.16a1.948,1.948,0,0,1-1.255-.44,1.691,1.691,0,0,1-.61-1.11C256.889,262.506,256.976,262.313,257.03,262.32Z" transform="translate(-187.685 -242.874)" fill="#263238"/>
        <path id="Trazado_3256" data-name="Trazado 3256" d="M271.741,238.276c-.128.16-.623,0-1.216,0s-1.1.109-1.216-.061c-.051-.083.029-.247.25-.4a1.762,1.762,0,0,1,1.958.061C271.728,238.013,271.8,238.2,271.741,238.276Z" transform="translate(-196.092 -226.052)" fill="#263238"/>
        <path id="Trazado_3257" data-name="Trazado 3257" d="M246.878,234.06c-.08.09-.263.051-.5,0A4.446,4.446,0,0,0,244.6,234c-.244.029-.43.055-.5-.038s0-.292.25-.5a1.89,1.89,0,0,1,2.32.077C246.9,233.772,246.955,233.98,246.878,234.06Z" transform="translate(-178.961 -223.036)" fill="#263238"/>
        <path id="Trazado_3258" data-name="Trazado 3258" d="M243.518,218.8a10.966,10.966,0,0,1-6.81-.347c-2.423-.918-5.167-1.207-5.713-.684s-.43,2.911-2.644,3.835c0,0,.616,4.515-1.207,4.535s-1.4-7.112-1.4-7.112l4.2-2.606,4.724-1.39,4.519-.456,4.333.867Z" transform="translate(-166.489 -210.456)" fill="#263238"/>
        <path id="Trazado_3259" data-name="Trazado 3259" d="M300.624,317.728s8.139,8.38,11.008,7.134c7.8-3.37,14.143-10.507,16.326-13.065.093-.481.186-1.046.266-1.72a5.136,5.136,0,0,0-.1-1.743,7.934,7.934,0,0,0-.687-2.073c-.356-.574.157-1.264.719-1.03a5.538,5.538,0,0,1,2.211,3.89.876.876,0,0,0,1.213.555c1.412-.465,6.21-2.327,7.06-2.526.761-.177,1.669-.132,1.162.424a40.376,40.376,0,0,1-4.044,2.625s4.583-2.8,4.962-2.118c.26.475-.706,1.566-3.922,3.119,0,0,3.793-2.282,4.442-2.208,1.457.17-3.081,2.962-3.081,2.962,3.209-1.926,3.046-2.057,3.392-1.682.26.279-.3.918-1.877,2.2-1.284,1.043-2.394,2.378-4.256,4.069h0s-19.256,26.782-31.371,18.563c-6.531-4.432-8.325-6.666-12.032-10.023" transform="translate(-211.525 -271.982)" fill="#b78876"/>
        <path id="Trazado_3260" data-name="Trazado 3260" d="M429.877,324.172a19.191,19.191,0,0,0,4.31-2.747,9.815,9.815,0,0,0-2.247,1.232A10.391,10.391,0,0,0,429.877,324.172Z" transform="translate(-305.138 -283.006)" fill="#aa6550"/>
        <path id="Trazado_3261" data-name="Trazado 3261" d="M427.166,320.823a11.225,11.225,0,0,0,2.468-1.178,11.071,11.071,0,0,0,2.3-1.473,11.13,11.13,0,0,0-2.468,1.178A10.653,10.653,0,0,0,427.166,320.823Z" transform="translate(-303.297 -280.796)" fill="#aa6550"/>
        <path id="Trazado_3262" data-name="Trazado 3262" d="M424.377,317.513a9.924,9.924,0,0,0,2.352-1.072,9.3,9.3,0,0,0,2.192-1.374,9.453,9.453,0,0,0-2.352,1.072A9.828,9.828,0,0,0,424.377,317.513Z" transform="translate(-301.404 -278.687)" fill="#aa6550"/>
        <path id="Trazado_3263" data-name="Trazado 3263" d="M82.119,363.738s-4.1,10.937-7.227,10.947c-8.5.026-17.167-3.964-20.19-5.433-.276-.4-.591-.886-.934-1.47a5.205,5.205,0,0,1-.61-1.634,8.113,8.113,0,0,1-.2-2.176.652.652,0,0,0-1.072-.642,5.506,5.506,0,0,0-.469,4.451.876.876,0,0,1-.889.995c-1.479.138-6.621.353-7.484.513-.767.144-1.582.549-.9.854a28.821,28.821,0,0,0,4,.69c-1.473-.167-4.583-.453-4.634.141-.032.35.513.729,1.858.988a5.69,5.69,0,0,0-1.967.058c-1.284.738,4.008,1.476,4.008,1.476-3.7-.485-3.617-.661-3.784-.18-.125.359.642.722,2.6,1.284,1.6.443,3.145,1.216,5.53,2.022,0,0,28.377,16.823,36.179,4.442,4.207-6.675,4.958-9.442,7.009-14.005Z" transform="translate(-41.204 -311.339)" fill="#b78876"/>
        <path id="Trazado_3264" data-name="Trazado 3264" d="M50.524,394.664a9.442,9.442,0,0,1-2.567-.228,9.87,9.87,0,0,1-2.5-.562,9.4,9.4,0,0,1,2.567.228A10.157,10.157,0,0,1,50.524,394.664Z" transform="translate(-44.094 -332.185)" fill="#aa6550"/>
        <path id="Trazado_3265" data-name="Trazado 3265" d="M50.8,390.786a11.114,11.114,0,0,1-2.731-.087,10.128,10.128,0,0,1-2.7-.43,10.33,10.33,0,0,1,2.731.09A11.829,11.829,0,0,1,50.8,390.786Z" transform="translate(-44.033 -329.723)" fill="#aa6550"/>
        <path id="Trazado_3266" data-name="Trazado 3266" d="M52.444,386.486a9.846,9.846,0,0,1-2.587-.042,10.332,10.332,0,0,1-2.567-.379,10.015,10.015,0,0,1,2.587.042A10.091,10.091,0,0,1,52.444,386.486Z" transform="translate(-45.337 -326.866)" fill="#aa6550"/>
        <path id="Trazado_3267" data-name="Trazado 3267" d="M213.276,323l-13.425-14.981c-3.739-3.675-5.735-4.772-10.937-5.388-.85-.1-1.528-.164-2.012-.225a19.872,19.872,0,0,1-11.98,0h0a29.088,29.088,0,0,0-4.958.963c-4.962.963-8.53,4.564-9.522,7.9h0L149.25,333.13l9.451,7.943,8.633-13.7.526,14.586-.536,10.912,33.136.1-1.505-25.588,8.919,7.26Z" transform="translate(-114.575 -270.098)" fill="#f83f00"/>
        <path id="Trazado_3268" data-name="Trazado 3268" d="M205.727,351.57a2.059,2.059,0,0,1,.042.488c0,.321.022.764.032,1.325,0,1.117.022,2.664,0,4.371s-.029,3.254-.055,4.371c0,.562-.029,1.014-.042,1.325a1.959,1.959,0,0,1-.048.485,1.924,1.924,0,0,1-.045-.485c0-.321-.022-.767-.032-1.325-.016-1.12-.022-2.664,0-4.374s.029-3.251.055-4.371c0-.558.029-1.011.045-1.325A1.809,1.809,0,0,1,205.727,351.57Z" transform="translate(-152.816 -303.482)" fill="#263238"/>
        <path id="Trazado_3269" data-name="Trazado 3269" d="M302.988,369.405a4.933,4.933,0,0,1-.1-.751c-.048-.526-.109-1.22-.186-2.054-.144-1.736-.321-4.137-.514-6.788s-.347-5.039-.449-6.775c-.042-.838-.08-1.534-.106-2.06a4.558,4.558,0,0,1,0-.757,4.638,4.638,0,0,1,.1.751c.048.526.109,1.22.183,2.054.144,1.736.321,4.137.517,6.788s.343,5.051.446,6.791c.045.838.08,1.534.109,2.06A4.745,4.745,0,0,1,302.988,369.405Z" transform="translate(-218.045 -302.565)" fill="#263238"/>
        <g id="Grupo_672" data-name="Grupo 672" transform="translate(44.926 42.883)" opacity="0.3">
          <path id="Trazado_3270" data-name="Trazado 3270" d="M226.12,335.433c0,.045-10.055.083-22.465.083s-22.465-.039-22.465-.083,10.055-.083,22.465-.083S226.12,335.385,226.12,335.433Z" transform="translate(-181.19 -335.35)" fill="#ebebeb"/>
        </g>
        <g id="Grupo_673" data-name="Grupo 673" transform="translate(38.597 56.195)" opacity="0.3">
          <path id="Trazado_3271" data-name="Trazado 3271" d="M216.2,376.913c0,.048-12.253.083-27.363.083s-27.366-.035-27.366-.083,12.25-.083,27.366-.083S216.2,376.885,216.2,376.913Z" transform="translate(-161.47 -376.83)" fill="#ebebeb"/>
        </g>
        <g id="Grupo_674" data-name="Grupo 674" transform="translate(53.427 71.375)" opacity="0.3">
          <path id="Trazado_3272" data-name="Trazado 3272" d="M239.465,424.213c0,.048-7.115.083-15.893.083s-15.893-.035-15.893-.083,7.115-.083,15.893-.083S239.465,424.169,239.465,424.213Z" transform="translate(-207.68 -424.13)" fill="#ebebeb"/>
        </g>
        <g id="Grupo_675" data-name="Grupo 675" transform="translate(56.9 32.886)" opacity="0.3">
          <path id="Trazado_3273" data-name="Trazado 3273" d="M218.583,354.143c-.045,0-.083-11.181-.083-24.969s.038-24.975.083-24.975.077,11.168.077,24.969S218.632,354.143,218.583,354.143Z" transform="translate(-218.5 -304.2)" fill="#ebebeb"/>
        </g>
        <g id="Grupo_676" data-name="Grupo 676" transform="translate(75.861 32.751)" opacity="0.3">
          <path id="Trazado_3274" data-name="Trazado 3274" d="M277.907,353.861v-.51c0-.34,0-.831-.016-1.457,0-1.284-.026-3.11-.042-5.366-.042-4.541-.1-10.8-.16-17.706s-.106-13.178-.109-17.709v-5.366c0-.642,0-1.117.016-1.457v-.382a.683.683,0,0,1,0-.128v.51c0,.34,0,.831.016,1.457,0,1.284.026,3.107.042,5.366.042,4.538.1,10.8.16,17.709s.106,13.158.109,17.7v7.208A.687.687,0,0,1,277.907,353.861Z" transform="translate(-277.58 -303.78)" fill="#ebebeb"/>
        </g>
        <g id="Grupo_677" data-name="Grupo 677" transform="translate(89.689 43.425)" opacity="0.3">
          <path id="Trazado_3275" data-name="Trazado 3275" d="M320.753,355.1c-.045,0-.083-4.044-.083-9.031s.038-9.031.083-9.031.083,4.04.083,9.031S320.8,355.1,320.753,355.1Z" transform="translate(-320.67 -337.04)" fill="#ebebeb"/>
        </g>
        <g id="Grupo_678" data-name="Grupo 678" transform="translate(41.867 48.149)" opacity="0.3">
          <path id="Trazado_3276" data-name="Trazado 3276" d="M171.743,368.8c-.048,0-.083-3.813-.083-8.518s.035-8.521.083-8.521.083,3.813.083,8.521S171.788,368.8,171.743,368.8Z" transform="translate(-171.66 -351.76)" fill="#ebebeb"/>
        </g>
        <path id="Trazado_3277" data-name="Trazado 3277" d="M225.38,295.645l1.829-3.845,5.992,4.223,5.912-3.973,2.08,3.376-5.924,3.851h-3.96l-5.928-3.187" transform="translate(-166.272 -262.894)" fill="#f83f00"/>
        <path id="Trazado_3278" data-name="Trazado 3278" d="M233.378,303.52a.446.446,0,0,1-.112.032,1.194,1.194,0,0,0-.321.087,1.884,1.884,0,0,0-.892.754,9.572,9.572,0,0,0-.825,1.6c-.141.321-.282.642-.462.985a3.684,3.684,0,0,1-.69.963l-.058.055-.058-.061-.34-.353c-1.187-1.245-2.2-2.429-2.888-3.309-.353-.44-.642-.8-.815-1.053a2.453,2.453,0,0,1-.276-.4,2.467,2.467,0,0,1,.321.363l.854,1.021c.725.857,1.749,2.028,2.93,3.267l.34.353h-.116a3.421,3.421,0,0,0,.661-.921c.177-.321.321-.658.465-.963a9.142,9.142,0,0,1,.87-1.6,1.887,1.887,0,0,1,.963-.748,1.076,1.076,0,0,1,.321-.058C233.336,303.5,233.378,303.5,233.378,303.52Z" transform="translate(-166.449 -270.377)" fill="#263238"/>
        <path id="Trazado_3279" data-name="Trazado 3279" d="M257.662,303.33a2.245,2.245,0,0,1-.292.385c-.2.241-.5.581-.883.982a23.842,23.842,0,0,1-3.3,2.837c-.26.183-.52.359-.77.523l-.116.074v-.141a7.544,7.544,0,0,0-.488-1.971,5.052,5.052,0,0,0-.793-1.418,1.968,1.968,0,0,0-.85-.642c-.237-.08-.382-.09-.379-.106s.035,0,.1,0a1.14,1.14,0,0,1,.3.048,1.964,1.964,0,0,1,.915.626,4.988,4.988,0,0,1,.847,1.438,7.612,7.612,0,0,1,.517,2.019l-.128-.064c.247-.167.5-.34.764-.523a26.657,26.657,0,0,0,3.312-2.783c.4-.388.706-.716.921-.94A2.828,2.828,0,0,1,257.662,303.33Z" transform="translate(-182.848 -270.723)" fill="#263238"/>
        <path id="Trazado_3280" data-name="Trazado 3280" d="M252.082,355.247v-.5c0-.337,0-.822-.019-1.441,0-1.261-.035-3.071-.064-5.305-.064-4.477-.209-10.661-.52-17.488s-.741-13-1.085-17.462c-.18-2.227-.321-4.031-.424-5.289-.048-.616-.087-1.1-.116-1.435,0-.16-.019-.282-.022-.376a.557.557,0,0,1,0-.128.63.63,0,0,0,.019.125c.019.083.022.218.042.375.035.337.083.818.144,1.435.125,1.245.289,3.049.478,5.283.375,4.461.818,10.636,1.133,17.465s.436,13.014.472,17.494c.019,2.247.019,4.053,0,5.305v1.817a.68.68,0,0,1-.038.128Z" transform="translate(-182.874 -272.414)" fill="#263238"/>
        <g id="Grupo_679" data-name="Grupo 679" transform="translate(66.788 33.133)" opacity="0.2">
          <path id="Trazado_3281" data-name="Trazado 3281" d="M249.31,304.98a2.435,2.435,0,0,1,1,2.169c0,.834-.2,1.669-.125,2.5a1.422,1.422,0,0,0,.558,1.133c.507.321,1.152.019,1.672-.266a14.128,14.128,0,0,0,3.161-2.131,4.564,4.564,0,0,0,1.284-3.418,35.525,35.525,0,0,1-4.779,3.954,6.978,6.978,0,0,0-.847-2.5c-.436-.757-1.056-1.54-1.926-1.444" transform="translate(-249.31 -304.97)"/>
        </g>
        <g id="Grupo_680" data-name="Grupo 680" transform="translate(61.284 33.592)" opacity="0.2">
          <path id="Trazado_3282" data-name="Trazado 3282" d="M232.16,307.851a8.953,8.953,0,0,0,2.144,3.039,1.336,1.336,0,0,0,1.521.282,1.542,1.542,0,0,0,.453-1.21c.077-1.13.411-2.429.488-3.562-.9,1.011-1.386,2.792-2.33,4.015a9.613,9.613,0,0,1-2.211-2.545" transform="translate(-232.16 -306.4)"/>
        </g>
        <g id="Grupo_681" data-name="Grupo 681" transform="translate(84.108 53.711)" opacity="0.2">
          <path id="Trazado_3283" data-name="Trazado 3283" d="M309.609,377.405l4.471-8.315c-1.322.132-2.211,1.38-2.888,2.522s-1.508,2.41-2.821,2.638a3.964,3.964,0,0,1-2.619-.725,8.661,8.661,0,0,0-2.471-1.236Z" transform="translate(-303.28 -369.09)"/>
        </g>
        <g id="Grupo_682" data-name="Grupo 682" transform="translate(38.944 59.78)" opacity="0.2">
          <path id="Trazado_3284" data-name="Trazado 3284" d="M174.771,388s-3.113,3.277-5.212,3.758a7.635,7.635,0,0,1-6.136-1.284,1.149,1.149,0,0,0-.465-.247.35.35,0,0,0-.408.25.507.507,0,0,0,.218.395q3.209,2.988,6.688,5.687Z" transform="translate(-162.55 -388)"/>
        </g>
        <g id="Grupo_683" data-name="Grupo 683" transform="translate(63.481 37.443)" opacity="0.2">
          <path id="Trazado_3285" data-name="Trazado 3285" d="M241.351,318.4q-1.771,14.15-2.314,28.415a11.174,11.174,0,0,0,.436,4.406,11.347,11.347,0,0,0,3.209,4.031c.542.5,1.284,1.04,1.945.728a1.813,1.813,0,0,0,.626-.584,9.151,9.151,0,0,0,1.852-3.428c.931-4-2.843-7.956-1.993-11.974" transform="translate(-239.007 -318.4)"/>
        </g>
        <path id="Trazado_3286" data-name="Trazado 3286" d="M243.547,308.014l2.834-.074.757,1.524-.908,2.548h-2.314l-1.226-2.282Z" transform="translate(-178.027 -273.854)" fill="#455a64"/>
        <path id="Trazado_3287" data-name="Trazado 3287" d="M243.705,320.63l-1.325,32.433,3.851,4.188,3.559-5.058-3.771-31.564Z" transform="translate(-177.816 -282.471)" fill="#455a64"/>
        <path id="Trazado_3288" data-name="Trazado 3288" d="M248.771,320.416a5.561,5.561,0,0,1-1.072,0,5.5,5.5,0,0,1-1.069-.035A3.912,3.912,0,0,1,248.771,320.416Z" transform="translate(-180.702 -282.212)" fill="#263238"/>
        <path id="Trazado_3289" data-name="Trazado 3289" d="M248.408,309.647a1.924,1.924,0,0,1-.359.491,7.922,7.922,0,0,1-1.065,1.008,8.056,8.056,0,0,1-1.223.8,1.819,1.819,0,0,1-.562.237c-.022-.045.8-.469,1.682-1.171S248.37,309.612,248.408,309.647Z" transform="translate(-179.73 -275.012)" fill="#263238"/>
        <path id="Trazado_3290" data-name="Trazado 3290" d="M248.7,330.5a12.543,12.543,0,0,1-1.383,1.489,12.269,12.269,0,0,1-1.505,1.37,12.425,12.425,0,0,1,1.386-1.489,12.118,12.118,0,0,1,1.5-1.37Z" transform="translate(-180.145 -289.174)" fill="#263238"/>
        <path id="Trazado_3291" data-name="Trazado 3291" d="M248.616,337.78a31.361,31.361,0,0,1-3.216,3.184,15.4,15.4,0,0,1,1.55-1.653A15.227,15.227,0,0,1,248.616,337.78Z" transform="translate(-179.867 -294.117)" fill="#ebebeb"/>
        <path id="Trazado_3292" data-name="Trazado 3292" d="M248.669,344.5a20.65,20.65,0,0,1-1.8,1.906,20.963,20.963,0,0,1-1.926,1.791,20.409,20.409,0,0,1,1.8-1.909,20.116,20.116,0,0,1,1.926-1.788Z" transform="translate(-179.555 -298.681)" fill="#263238"/>
        <path id="Trazado_3293" data-name="Trazado 3293" d="M248.78,351.58a25.389,25.389,0,0,1-1.967,2.073,25.028,25.028,0,0,1-2.083,1.951,24.077,24.077,0,0,1,1.964-2.07,24.5,24.5,0,0,1,2.086-1.954Z" transform="translate(-179.412 -303.488)" fill="#ebebeb"/>
        <path id="Trazado_3294" data-name="Trazado 3294" d="M248.851,358.71a29.131,29.131,0,0,1-2.125,2.227,27.819,27.819,0,0,1-2.247,2.112A28.8,28.8,0,0,1,246.6,360.8a27.386,27.386,0,0,1,2.247-2.092Z" transform="translate(-179.242 -308.33)" fill="#263238"/>
        <path id="Trazado_3295" data-name="Trazado 3295" d="M248.855,365.678c.035.032-1.014,1.126-2.336,2.446a33.541,33.541,0,0,1-2.458,2.327,69.083,69.083,0,0,1,4.795-4.772Z" transform="translate(-178.957 -313.062)" fill="#ebebeb"/>
        <path id="Trazado_3296" data-name="Trazado 3296" d="M248.87,372.8c.032.032-1.094,1.2-2.513,2.619s-2.6,2.529-2.628,2.5,1.091-1.2,2.51-2.616S248.835,372.766,248.87,372.8Z" transform="translate(-178.732 -317.897)" fill="#263238"/>
        <path id="Trazado_3297" data-name="Trazado 3297" d="M249.017,379.8c.032.032-1.171,1.284-2.686,2.789s-2.77,2.7-2.8,2.67,1.168-1.284,2.686-2.789S248.981,379.767,249.017,379.8Z" transform="translate(-178.596 -322.65)" fill="#ebebeb"/>
        <path id="Trazado_3298" data-name="Trazado 3298" d="M248.853,387.118c.032.032-1.245,1.358-2.853,2.956s-2.937,2.872-2.972,2.84,1.245-1.358,2.853-2.956S248.821,387.08,248.853,387.118Z" transform="translate(-178.256 -327.621)" fill="#263238"/>
        <path id="Trazado_3299" data-name="Trazado 3299" d="M249.151,394c.032.032-1.316,1.428-3.01,3.116s-3.1,3.033-3.132,3,1.316-1.428,3.014-3.119S249.119,393.974,249.151,394Z" transform="translate(-178.243 -332.294)" fill="#ebebeb"/>
        <path id="Trazado_3300" data-name="Trazado 3300" d="M249.181,400.359c.032.035-1.476,1.589-3.367,3.473s-3.453,3.389-3.485,3.357,1.473-1.589,3.367-3.476S249.149,400.327,249.181,400.359Z" transform="translate(-177.781 -336.612)" fill="#263238"/>
        <path id="Trazado_3301" data-name="Trazado 3301" d="M246.139,413.413c-.032-.032,1.242-1.367,2.85-2.981s2.933-2.888,2.969-2.863-1.245,1.367-2.85,2.981S246.171,413.445,246.139,413.413Z" transform="translate(-180.368 -341.509)" fill="#ebebeb"/>
        <path id="Trazado_3302" data-name="Trazado 3302" d="M250.728,420.18a31.355,31.355,0,0,1,2.247-2.468,32.494,32.494,0,0,1,2.356-2.352,33.158,33.158,0,0,1-2.247,2.468A32.513,32.513,0,0,1,250.728,420.18Z" transform="translate(-183.485 -346.799)" fill="#263238"/>
        <path id="Trazado_3303" data-name="Trazado 3303" d="M248.481,323.73a9.949,9.949,0,0,1-1.226,1.332,9.784,9.784,0,0,1-1.345,1.216,10.09,10.09,0,0,1,1.226-1.335A9.839,9.839,0,0,1,248.481,323.73Z" transform="translate(-180.213 -284.576)" fill="#ebebeb"/>
        <path id="Trazado_3304" data-name="Trazado 3304" d="M148.966,391.137c-.469-.042-.642-.677-.494-1.123s.5-.806.642-1.255c.087-.254.125-.558.347-.713a.7.7,0,0,1,.8.035c1.306,1.117,2.269,2.2,3.694,3.415,1.374,1.162,2.853,2.654,4.3,3.723.815.6,1.813,1.226,1.926,2.247a1.627,1.627,0,0,1-1.438,1.723,3.17,3.17,0,0,1-2.163-1.082q-3.877-3.46-7.757-6.916" transform="translate(-114.011 -328.177)" fill="#f83f00"/>
        <path id="Trazado_3305" data-name="Trazado 3305" d="M163.679,396.886a2.9,2.9,0,0,1-.4-.286c-.25-.193-.619-.456-1.082-.783a15.734,15.734,0,0,1-1.557-1.232l-1.794-1.63c-1.284-1.165-2.413-2.224-3.235-3l-.963-.924a2.413,2.413,0,0,1-.321-.353,2.776,2.776,0,0,1,.382.321l1,.883c.841.751,1.993,1.8,3.264,2.959.642.584,1.232,1.136,1.781,1.643a17.243,17.243,0,0,0,1.528,1.252c.453.34.812.623,1.053.828A2.437,2.437,0,0,1,163.679,396.886Z" transform="translate(-118.024 -328.682)" fill="#263238"/>
        <path id="Trazado_3306" data-name="Trazado 3306" d="M160.774,400.513a2.5,2.5,0,0,1-.417-.238c-.26-.16-.642-.4-1.088-.712-.911-.616-2.147-1.505-3.456-2.567s-2.449-2.06-3.248-2.815c-.4-.375-.722-.687-.934-.908a2.427,2.427,0,0,1-.321-.353,3.2,3.2,0,0,1,.369.321l.963.867c.822.732,1.967,1.723,3.273,2.773s2.529,1.948,3.421,2.587l1.056.754A2.853,2.853,0,0,1,160.774,400.513Z" transform="translate(-115.974 -331.561)" fill="#263238"/>
        <g id="Grupo_684" data-name="Grupo 684" transform="translate(36.922 62.582)" opacity="0.3">
          <path id="Trazado_3307" data-name="Trazado 3307" d="M158.416,396.73a7.215,7.215,0,0,1-1.024,1.139,7.116,7.116,0,0,1-1.143,1.024A14.185,14.185,0,0,1,158.416,396.73Z" transform="translate(-156.25 -396.73)" fill="#ebebeb"/>
        </g>
        <g id="Grupo_685" data-name="Grupo 685" transform="translate(41.787 67.088)" opacity="0.3">
          <path id="Trazado_3308" data-name="Trazado 3308" d="M173.74,410.77a7.9,7.9,0,0,1-1.107,1.181,8.109,8.109,0,0,1-1.223,1.062,7.7,7.7,0,0,1,1.107-1.181A7.935,7.935,0,0,1,173.74,410.77Z" transform="translate(-171.41 -410.77)" fill="#ebebeb"/>
        </g>
        <g id="Grupo_686" data-name="Grupo 686" transform="translate(60.937 30.72)" opacity="0.5">
          <path id="Trazado_3309" data-name="Trazado 3309" d="M233.407,297.45a13.951,13.951,0,0,1-1.094,1.849,13.671,13.671,0,0,1-1.232,1.759,14.441,14.441,0,0,1,1.094-1.849A13.3,13.3,0,0,1,233.407,297.45Z" transform="translate(-231.08 -297.45)" fill="#ebebeb"/>
        </g>
        <g id="Grupo_687" data-name="Grupo 687" transform="translate(71.011 30.582)" opacity="0.5">
          <path id="Trazado_3310" data-name="Trazado 3310" d="M264.245,300.884a14.089,14.089,0,0,1-.963-1.9,13.456,13.456,0,0,1-.812-1.967,26.736,26.736,0,0,1,1.778,3.851Z" transform="translate(-262.47 -297.02)" fill="#ebebeb"/>
        </g>
        <path id="Trazado_3311" data-name="Trazado 3311" d="M326.083,373.852a1.02,1.02,0,0,1-1.065.607c-.469-.051-.9-.321-1.367-.356-.266-.029-.571,0-.77-.183a.85.85,0,0,1-.144-.786,12.188,12.188,0,0,1,2.295-4.836,26.746,26.746,0,0,0,2.888-4.548c.4-.931.789-2.041,1.749-2.375a1.627,1.627,0,0,1,2.006,1.027,3.163,3.163,0,0,1-.574,2.349l-5.016,9.1" transform="translate(-232.356 -310.092)" fill="#f83f00"/>
        <path id="Trazado_3312" data-name="Trazado 3312" d="M332.344,366.68a2.76,2.76,0,0,1-.151.452c-.106.286-.27.7-.475,1.2-.414,1.008-1.014,2.391-1.723,3.9s-1.4,2.847-1.926,3.806c-.257.478-.472.863-.626,1.126a2.63,2.63,0,0,1-.254.4,2.886,2.886,0,0,1,.2-.43l.581-1.155c.491-.963,1.162-2.317,1.871-3.819s1.329-2.888,1.768-3.874c.212-.475.388-.87.523-1.178A2.653,2.653,0,0,1,332.344,366.68Z" transform="translate(-235.408 -313.742)" fill="#263238"/>
        <path id="Trazado_3313" data-name="Trazado 3313" d="M328.9,361.14a2.739,2.739,0,0,1-.244.433l-.7,1.149c-.587.963-1.38,2.317-2.208,3.851s-1.528,2.921-2.025,3.938l-.584,1.21a3.059,3.059,0,0,1-.231.436,2.621,2.621,0,0,1,.17-.462c.122-.3.3-.716.539-1.232.469-1.033,1.155-2.446,1.983-3.97s1.643-2.866,2.247-3.822c.321-.478.562-.86.741-1.12a2.483,2.483,0,0,1,.308-.411Z" transform="translate(-232.502 -309.98)" fill="#263238"/>
        <g id="Grupo_688" data-name="Grupo 688" transform="translate(91.538 60.002)" opacity="0.5">
          <path id="Trazado_3314" data-name="Trazado 3314" d="M329.736,390.17a5.457,5.457,0,0,1-1.74-.542,5.578,5.578,0,0,1-1.566-.934c.026-.042.722.379,1.634.783S329.748,390.125,329.736,390.17Z" transform="translate(-326.43 -388.691)" fill="#ebebeb"/>
        </g>
        <g id="Grupo_689" data-name="Grupo 689" transform="translate(95.425 52.835)" opacity="0.5">
          <path id="Trazado_3315" data-name="Trazado 3315" d="M341.9,368.375a14.5,14.5,0,0,1-1.7-.963,14.867,14.867,0,0,1-1.656-1.053,9.674,9.674,0,0,1,1.743.911,9.535,9.535,0,0,1,1.614,1.1Z" transform="translate(-338.54 -366.36)" fill="#ebebeb"/>
        </g>
      </g>
      <g id="freepik--Stars--inject-432" transform="translate(57.108 236.41)">
        <path id="Trazado_3316" data-name="Trazado 3316" d="M360.87,55.02l-.642,1.171-1.168.639,1.168.642.642,1.168.639-1.168,1.171-.642-1.171-.639Z" transform="translate(-278.618 -55.02)" fill="#455a64"/>
        <path id="Trazado_3317" data-name="Trazado 3317" d="M432.33,271.3l-.642,1.168-1.168.642,1.168.639.642,1.168.639-1.168,1.171-.639-1.171-.642Z" transform="translate(-327.145 -201.889)" fill="#455a64"/>
        <path id="Trazado_3318" data-name="Trazado 3318" d="M110.22,66.36l-.642,1.168-1.168.642,1.168.639.642,1.168.639-1.168,1.171-.639-1.171-.642Z" transform="translate(-108.41 -62.721)" fill="#455a64"/>
        <path id="Trazado_3319" data-name="Trazado 3319" d="M407.554,170.51l-.395.719-.719.392.719.395.395.719.395-.719.716-.395-.716-.392Z" transform="translate(-310.793 -133.446)" fill="#455a64"/>
        <path id="Trazado_3320" data-name="Trazado 3320" d="M244.964,106.92l-.395.722-.719.392.719.392.395.722.392-.722.719-.392-.719-.392Z" transform="translate(-200.383 -90.264)" fill="#455a64"/>
        <path id="Trazado_3321" data-name="Trazado 3321" d="M175.4,164.61l-.353.639-.635.35.635.35.353.639.35-.639.635-.35-.635-.35Z" transform="translate(-153.228 -129.439)" fill="#455a64"/>
        <path id="Trazado_3322" data-name="Trazado 3322" d="M307.3,260.54l-.35.642-.639.35.639.35.35.639.353-.639.635-.35-.635-.35Z" transform="translate(-242.798 -194.582)" fill="#455a64"/>
        <path id="Trazado_3323" data-name="Trazado 3323" d="M115.478,279.33l-.35.639-.639.35.639.35.35.639.35-.639.639-.35-.639-.35Z" transform="translate(-112.539 -207.342)" fill="#455a64"/>
      </g>
      <g id="freepik--floating-money--inject-432" transform="translate(37.663 237.068)">
        <path id="Trazado_3324" data-name="Trazado 3324" d="M72.43,100.737a4.014,4.014,0,0,1,4.082.52c1.329.963,4.15,2.426,5.019,1.531l1.069-3.45a9.83,9.83,0,0,1-3.874-1.756c-1.7-1.348-5.1-1.284-5.1-1.284Z" transform="translate(-64.532 -83.709)" fill="#f83f00"/>
        <g id="Grupo_690" data-name="Grupo 690" transform="translate(11.238 13.977)" opacity="0.4">
          <path id="Trazado_3325" data-name="Trazado 3325" d="M85.517,100.954a1.727,1.727,0,0,1,.5,2.567,2.028,2.028,0,0,1-2.609-.077,1.627,1.627,0,0,1-.189-2.295A1.742,1.742,0,0,1,85.517,100.954Z" transform="translate(-82.836 -100.62)" fill="#fff"/>
        </g>
        <path id="Trazado_3326" data-name="Trazado 3326" d="M87.385,102.728c0,.022-.083,0-.189-.042a2.008,2.008,0,0,0-.436-.138.728.728,0,0,0-.276,0,.369.369,0,0,0-.215.135.279.279,0,0,0-.026.241c.026.071.109.135.244.2.064.032.138.064.215.106a.806.806,0,0,1,.231.173.642.642,0,0,1,.093.132.494.494,0,0,1,.051.16.52.52,0,0,1-.045.321.562.562,0,0,1-.183.221.594.594,0,0,1-.241.1.834.834,0,0,1-.408-.035,1.053,1.053,0,0,1-.276-.141,1.3,1.3,0,0,1-.173-.138c-.087-.087-.125-.144-.109-.167s.08,0,.189.039a1.926,1.926,0,0,0,.436.141.642.642,0,0,0,.27,0,.244.244,0,0,0,.167-.148.173.173,0,0,0,0-.106.185.185,0,0,0,0-.045.253.253,0,0,0-.039-.048,1.425,1.425,0,0,0-.343-.193,1.085,1.085,0,0,1-.237-.151.929.929,0,0,1-.109-.116.539.539,0,0,1-.077-.148.613.613,0,0,1,.08-.613.661.661,0,0,1,.449-.244.93.93,0,0,1,.4.042,1.194,1.194,0,0,1,.453.279C87.359,102.648,87.4,102.709,87.385,102.728Z" transform="translate(-73.502 -87.731)" fill="#f83f00"/>
        <path id="Trazado_3327" data-name="Trazado 3327" d="M87.332,101.48a4.438,4.438,0,0,1-.321,1.284,4.493,4.493,0,0,1-.5,1.22,4.734,4.734,0,0,1,.321-1.284A4.625,4.625,0,0,1,87.332,101.48Z" transform="translate(-74.093 -87.227)" fill="#f83f00"/>
        <path id="Trazado_3328" data-name="Trazado 3328" d="M88.3,102a3.733,3.733,0,0,1-.279,1.165,3.425,3.425,0,0,1-.465,1.1,3.9,3.9,0,0,1,.282-1.162A3.79,3.79,0,0,1,88.3,102Z" transform="translate(-74.806 -87.581)" fill="#f83f00"/>
        <g id="Grupo_691" data-name="Grupo 691" transform="translate(8.322 13.034)" opacity="0.5">
          <path id="Trazado_3329" data-name="Trazado 3329" d="M83.063,100.5l-.985,3.132h-.032c-1.544.321-3.5-1.027-4.795-1.926-.225-.154-.436-.3-.619-.417a2.888,2.888,0,0,0-2.779-.106l-.1-.042,1.008-3.4h.035a6.74,6.74,0,0,1,5.215,1.505A7.747,7.747,0,0,0,83,100.474Zm-1.075,3.033.927-2.946a7.467,7.467,0,0,1-2.981-1.239,6.614,6.614,0,0,0-5.087-1.483l-.944,3.174a2.149,2.149,0,0,1,.3-.116,3.107,3.107,0,0,1,2.487.289l.623.417C78.583,102.5,80.5,103.809,81.988,103.533Z" transform="translate(-73.75 -97.683)" fill="#fff"/>
        </g>
        <path id="Trazado_3330" data-name="Trazado 3330" d="M426.325,196.65a6.876,6.876,0,0,1-4.063,5.738c-2.5,1.236-7,4.323-6.332,6.335l4.339,4.381a16.848,16.848,0,0,1,5.758-4.429c3.4-1.486,6.011-6.666,6.011-6.666Z" transform="translate(-297.747 -151.854)" fill="#f83f00"/>
        <g id="Grupo_692" data-name="Grupo 692" transform="translate(123.445 50.701)" opacity="0.4">
          <path id="Trazado_3331" data-name="Trazado 3331" d="M436.86,220.4a2.946,2.946,0,0,1-4.262-1.284c-.568-1.428.78-3.3,2.2-3.87a2.782,2.782,0,0,1,3.61,1.544A2.983,2.983,0,0,1,436.86,220.4Z" transform="translate(-432.465 -215.052)" fill="#fff"/>
        </g>
        <path id="Trazado_3332" data-name="Trazado 3332" d="M439.118,222.305c-.019-.045.064-.128.215-.254a3.479,3.479,0,0,0,.562-.546,1.284,1.284,0,0,0,.209-.427.6.6,0,0,0-.035-.43.456.456,0,0,0-.343-.231.767.767,0,0,0-.494.2c-.1.074-.209.16-.321.241a1.554,1.554,0,0,1-.446.212,1,1,0,0,1-.276.032.774.774,0,0,1-.282-.051.921.921,0,0,1-.43-.321.988.988,0,0,1-.141-.9,1.444,1.444,0,0,1,.379-.587,1.927,1.927,0,0,1,.436-.3,2.078,2.078,0,0,1,.35-.148c.2-.064.321-.074.321-.035s-.058.132-.209.26a3.582,3.582,0,0,0-.565.542,1.085,1.085,0,0,0-.2.417.411.411,0,0,0,.093.372.321.321,0,0,0,.151.1.231.231,0,0,0,.083,0,.378.378,0,0,0,.1-.016,2.416,2.416,0,0,0,.571-.363,1.951,1.951,0,0,1,.414-.241,1.372,1.372,0,0,1,.263-.067.854.854,0,0,1,.286,0,1.049,1.049,0,0,1,.8.6,1.126,1.126,0,0,1,0,.873,1.6,1.6,0,0,1-.382.568,2.114,2.114,0,0,1-.783.459C439.266,222.353,439.144,222.353,439.118,222.305Z" transform="translate(-312.292 -166.854)" fill="#f83f00"/>
        <path id="Trazado_3333" data-name="Trazado 3333" d="M441.547,221.819a7.753,7.753,0,0,1-1.669-1.505,7.946,7.946,0,0,1-1.438-1.733,7.775,7.775,0,0,1,1.675,1.505A7.58,7.58,0,0,1,441.547,221.819Z" transform="translate(-313.075 -166.744)" fill="#f83f00"/>
        <path id="Trazado_3334" data-name="Trazado 3334" d="M440.8,223.28a6.368,6.368,0,0,1-1.528-1.354,6.107,6.107,0,0,1-1.284-1.585,6.23,6.23,0,0,1,1.528,1.358A6.1,6.1,0,0,1,440.8,223.28Z" transform="translate(-312.765 -167.938)" fill="#f83f00"/>
        <g id="Grupo_693" data-name="Grupo 693" transform="translate(118.607 45.848)" opacity="0.5">
          <path id="Trazado_3335" data-name="Trazado 3335" d="M421.321,214.5l-3.931-4,.019-.055c.764-2.567,4.355-4.451,6.74-5.693.408-.212.8-.414,1.123-.6a4.922,4.922,0,0,0,2.388-4.1l.151-.125,4.31,4.246-.019.058a11.486,11.486,0,0,1-6.451,6.656c-2.048.783-4.227,3.5-4.249,3.53Zm-3.71-4.053,3.7,3.758a12.85,12.85,0,0,1,4.262-3.5,11.291,11.291,0,0,0,6.316-6.48l-4.031-3.954a3.777,3.777,0,0,1-.071.542,5.364,5.364,0,0,1-2.433,3.53c-.321.183-.716.388-1.126.6C421.9,206.146,418.391,207.976,417.611,210.447Z" transform="translate(-417.39 -199.93)" fill="#fff"/>
        </g>
        <path id="Trazado_3336" data-name="Trazado 3336" d="M430.909,88.065a4.478,4.478,0,0,1-4.23-1.749c-1.143-1.412-3.739-3.816-4.933-3.107l-2.157,3.376a10.956,10.956,0,0,1,3.643,3.017c1.435,1.926,5.1,2.853,5.1,2.853Z" transform="translate(-300.277 -74.733)" fill="#f83f00"/>
        <g id="Grupo_694" data-name="Grupo 694" transform="translate(122.824 11.373)" opacity="0.4">
          <path id="Trazado_3337" data-name="Trazado 3337" d="M431.085,95.621a1.925,1.925,0,0,1,.209-2.888c.825-.568,2.208.019,2.776.841a1.813,1.813,0,0,1-.469,2.519A1.952,1.952,0,0,1,431.085,95.621Z" transform="translate(-430.53 -92.507)" fill="#fff"/>
        </g>
        <path id="Trazado_3338" data-name="Trazado 3338" d="M432.983,96.82c.026-.019.09.022.193.1a2.142,2.142,0,0,0,.427.276.732.732,0,0,0,.3.071.375.375,0,0,0,.266-.083.3.3,0,0,0,.1-.25.5.5,0,0,0-.2-.286c-.061-.055-.132-.109-.2-.176a.963.963,0,0,1-.2-.254.641.641,0,0,1-.061-.17.6.6,0,0,1,0-.186.591.591,0,0,1,.141-.321.614.614,0,0,1,.26-.183.6.6,0,0,1,.286-.035.963.963,0,0,1,.427.154,1.233,1.233,0,0,1,.257.231,1.377,1.377,0,0,1,.144.2c.071.116.093.189.071.209s-.09-.019-.2-.1a2.243,2.243,0,0,0-.427-.279.7.7,0,0,0-.289-.064.263.263,0,0,0-.225.112.205.205,0,0,0-.039.109.106.106,0,0,0,0,.055.321.321,0,0,0,.026.061,1.471,1.471,0,0,0,.321.321,1.241,1.241,0,0,1,.212.231.819.819,0,0,1,.083.157.586.586,0,0,1,.042.18.69.69,0,0,1-.27.6.732.732,0,0,1-.552.132.962.962,0,0,1-.414-.16,1.284,1.284,0,0,1-.4-.433C432.983,96.9,432.96,96.82,432.983,96.82Z" transform="translate(-309.366 -83.042)" fill="#f83f00"/>
        <path id="Trazado_3339" data-name="Trazado 3339" d="M434.47,97.822a5.234,5.234,0,0,1,.712-1.284,4.807,4.807,0,0,1,.9-1.162,5,5,0,0,1-.716,1.284A4.873,4.873,0,0,1,434.47,97.822Z" transform="translate(-310.378 -83.082)" fill="#f83f00"/>
        <path id="Trazado_3340" data-name="Trazado 3340" d="M433.739,97.587a8.306,8.306,0,0,1,1.46-2.211,8.306,8.306,0,0,1-1.46,2.211Z" transform="translate(-309.881 -83.081)" fill="#f83f00"/>
        <g id="Grupo_695" data-name="Grupo 695" transform="translate(119.842 8.678)" opacity="0.5">
          <path id="Trazado_3341" data-name="Trazado 3341" d="M421.24,87.185l1.974-3.075h.035c1.746.116,3.453,2.125,4.586,3.453.192.228.379.443.539.642a3.209,3.209,0,0,0,2.949.924l.1.077-2.073,3.351h-.039a7.468,7.468,0,0,1-5.154-3.139,8.668,8.668,0,0,0-2.853-2.186Zm2.038-2.94-1.852,2.888a8.386,8.386,0,0,1,2.837,2.2,7.333,7.333,0,0,0,5.023,3.087l1.926-3.126a2.384,2.384,0,0,1-.356.032,3.44,3.44,0,0,1-2.583-1.033c-.164-.183-.35-.4-.546-.642C426.619,86.347,424.956,84.4,423.278,84.245Z" transform="translate(-421.24 -84.11)" fill="#fff"/>
        </g>
        <path id="Trazado_3342" data-name="Trazado 3342" d="M328.687,102.815a6.92,6.92,0,0,1-7.025.276c-2.5-1.232-7.673-2.917-8.883-1.162l-.828,6.1a16.815,16.815,0,0,1,7.019,1.868c3.251,1.788,8.948.7,8.948.7Z" transform="translate(-227.182 -87.018)" fill="#f83f00"/>
        <g id="Grupo_696" data-name="Grupo 696" transform="translate(90.201 16.784)" opacity="0.4">
          <path id="Trazado_3343" data-name="Trazado 3343" d="M330.809,114.654a2.943,2.943,0,0,1-1.569-4.172c.783-1.319,3.094-1.393,4.413-.61a2.782,2.782,0,0,1,.963,3.813A2.976,2.976,0,0,1,330.809,114.654Z" transform="translate(-328.88 -109.368)" fill="#fff"/>
        </g>
        <path id="Trazado_3344" data-name="Trazado 3344" d="M334.462,115.859c.019-.042.138-.029.321.016a3.278,3.278,0,0,0,.773.109,1.194,1.194,0,0,0,.465-.093.6.6,0,0,0,.321-.289.468.468,0,0,0-.026-.414.783.783,0,0,0-.465-.266c-.119-.035-.25-.071-.392-.119a1.633,1.633,0,0,1-.44-.225,1.151,1.151,0,0,1-.2-.2.849.849,0,0,1-.132-.257.944.944,0,0,1,0-.533.988.988,0,0,1,.247-.424,1,1,0,0,1,.375-.231,1.406,1.406,0,0,1,.7-.058,1.856,1.856,0,0,1,.507.157,2.248,2.248,0,0,1,.321.186c.17.119.25.205.231.247s-.138.032-.321,0a3.5,3.5,0,0,0-.773-.116,1.078,1.078,0,0,0-.449.1.414.414,0,0,0-.237.3.3.3,0,0,0,0,.177.243.243,0,0,0,.042.074.548.548,0,0,0,.077.067,2.333,2.333,0,0,0,.642.231,1.925,1.925,0,0,1,.44.183,1.357,1.357,0,0,1,.218.167,1.053,1.053,0,0,1,.173.225,1.069,1.069,0,0,1,0,1.008,1.12,1.12,0,0,1-.687.536,1.534,1.534,0,0,1-.684.045,2.077,2.077,0,0,1-.841-.343C334.516,115.991,334.439,115.9,334.462,115.859Z" transform="translate(-242.467 -94.954)" fill="#f83f00"/>
        <path id="Trazado_3345" data-name="Trazado 3345" d="M338.425,116.158a8.323,8.323,0,0,1,.177-2.247,7.371,7.371,0,0,1,.5-2.192,8.376,8.376,0,0,1-.173,2.247A7.123,7.123,0,0,1,338.425,116.158Z" transform="translate(-245.137 -94.181)" fill="#f83f00"/>
        <path id="Trazado_3346" data-name="Trazado 3346" d="M336.914,116.477a6.481,6.481,0,0,1,.141-2.038,6.359,6.359,0,0,1,.472-1.99,6.426,6.426,0,0,1-.144,2.038A6.543,6.543,0,0,1,336.914,116.477Z" transform="translate(-244.107 -94.676)" fill="#f83f00"/>
        <g id="Grupo_697" data-name="Grupo 697" transform="translate(85.426 14.659)" opacity="0.5">
          <path id="Trazado_3347" data-name="Trazado 3347" d="M314,108.6l.777-5.552.055-.022c2.51-.963,6.181.741,8.614,1.868.42.2.815.379,1.159.526a4.931,4.931,0,0,0,4.708-.6l.189.042-.738,6.017-.058.019a11.48,11.48,0,0,1-9.208-1.062c-1.871-1.146-5.35-1.22-5.385-1.22Zm.963-5.411-.732,5.222a12.838,12.838,0,0,1,5.372,1.245,11.287,11.287,0,0,0,8.986,1.062l.69-5.61a3.614,3.614,0,0,1-.475.276,5.287,5.287,0,0,1-4.272.218c-.347-.151-.745-.321-1.165-.53-2.378-1.094-5.973-2.76-8.405-1.874Z" transform="translate(-314 -102.746)" fill="#fff"/>
        </g>
        <path id="Trazado_3348" data-name="Trazado 3348" d="M328.961,214.179a5.569,5.569,0,0,1-3.874-4.172c-.562-2.192-2.247-6.265-3.967-6.1l-4.2,2.709a13.665,13.665,0,0,1,2.548,5.311c.613,2.943,4.284,5.883,4.284,5.883Z" transform="translate(-230.557 -156.781)" fill="#f83f00"/>
        <g id="Grupo_698" data-name="Grupo 698" transform="translate(89.449 51.742)" opacity="0.4">
          <path id="Trazado_3349" data-name="Trazado 3349" d="M326.686,221.479a2.388,2.388,0,0,1,1.743-3.164c1.226-.212,2.49,1.171,2.7,2.4a2.247,2.247,0,0,1-1.839,2.606A2.42,2.42,0,0,1,326.686,221.479Z" transform="translate(-326.537 -218.293)" fill="#fff"/>
        </g>
        <path id="Trazado_3350" data-name="Trazado 3350" d="M328.885,223.669q.053,0,.164.212a2.85,2.85,0,0,0,.34.536,1,1,0,0,0,.3.238.488.488,0,0,0,.35.042.369.369,0,0,0,.241-.231.642.642,0,0,0-.08-.427c-.042-.093-.09-.193-.135-.3a1.3,1.3,0,0,1-.093-.388.871.871,0,0,1,.019-.225.741.741,0,0,1,.411-.5.812.812,0,0,1,.395-.071.851.851,0,0,1,.34.109,1.158,1.158,0,0,1,.4.4,1.6,1.6,0,0,1,.17.395,1.736,1.736,0,0,1,.058.3c.019.17,0,.263-.029.273s-.093-.067-.17-.209a2.788,2.788,0,0,0-.337-.539.841.841,0,0,0-.3-.225.34.34,0,0,0-.321,0,.3.3,0,0,0-.1.106.189.189,0,0,0-.019.064.239.239,0,0,0,0,.083,1.9,1.9,0,0,0,.193.51,1.494,1.494,0,0,1,.119.372.989.989,0,0,1,0,.218.781.781,0,0,1-.048.228.863.863,0,0,1-.616.536.9.9,0,0,1-.69-.141,1.264,1.264,0,0,1-.388-.4,1.659,1.659,0,0,1-.231-.7C328.836,223.771,328.852,223.675,328.885,223.669Z" transform="translate(-238.645 -169.438)" fill="#f83f00"/>
        <path id="Trazado_3351" data-name="Trazado 3351" d="M329.076,226.212a6.108,6.108,0,0,1,1.473-1.075,6.749,6.749,0,0,1,1.6-.85,6.624,6.624,0,0,1-1.473,1.078A6.342,6.342,0,0,1,329.076,226.212Z" transform="translate(-238.811 -170.617)" fill="#f83f00"/>
        <path id="Trazado_3352" data-name="Trazado 3352" d="M328.646,225.361a5.085,5.085,0,0,1,1.329-.985,5.262,5.262,0,0,1,1.476-.761,5.137,5.137,0,0,1-1.332.985A5.42,5.42,0,0,1,328.646,225.361Z" transform="translate(-238.518 -170.161)" fill="#f83f00"/>
        <g id="Grupo_699" data-name="Grupo 699" transform="translate(87.03 47.543)" opacity="0.5">
          <path id="Trazado_3353" data-name="Trazado 3353" d="M319,207.659l3.832-2.449.042.022c1.926,1.037,2.8,4.2,3.389,6.29.1.363.2.7.286.992A3.991,3.991,0,0,0,329.4,215.1l.071.138-4.089,2.712-.042-.026a9.307,9.307,0,0,1-4.2-6.233,10.823,10.823,0,0,0-2.086-3.964Zm3.851-2.266-3.627,2.317a10.38,10.38,0,0,1,2.064,3.967,9.137,9.137,0,0,0,4.082,6.1l3.819-2.529a3.5,3.5,0,0,1-.42-.148,4.292,4.292,0,0,1-2.384-2.519c-.09-.292-.186-.642-.289-.995-.574-2.067-1.444-5.157-3.27-6.191Z" transform="translate(-319 -205.21)" fill="#fff"/>
        </g>
        <path id="Trazado_3354" data-name="Trazado 3354" d="M243.287,152.3a4.413,4.413,0,0,1-4.114-1.855c-1.085-1.422-3.572-3.87-4.769-3.209l-2.224,3.27a10.824,10.824,0,0,1,3.5,3.081c1.354,1.958,4.936,2.965,4.936,2.965Z" transform="translate(-173.013 -118.223)" fill="#f83f00"/>
        <g id="Grupo_700" data-name="Grupo 700" transform="translate(62.578 31.953)" opacity="0.4">
          <path id="Trazado_3355" data-name="Trazado 3355" d="M243.323,159.677a1.893,1.893,0,0,1,.292-2.847c.828-.533,2.176.087,2.712.915a1.784,1.784,0,0,1-.536,2.465A1.917,1.917,0,0,1,243.323,159.677Z" transform="translate(-242.809 -156.632)" fill="#fff"/>
        </g>
        <path id="Trazado_3356" data-name="Trazado 3356" d="M245.19,160.863c.026-.019.09.022.186.1a2.079,2.079,0,0,0,.414.286.805.805,0,0,0,.292.08.372.372,0,0,0,.266-.077.289.289,0,0,0,.106-.244.523.523,0,0,0-.189-.286c-.061-.055-.125-.112-.193-.18a1,1,0,0,1-.189-.257.7.7,0,0,1-.055-.17.582.582,0,0,1,0-.183.613.613,0,0,1,.411-.481.642.642,0,0,1,.282-.026.911.911,0,0,1,.417.164,1.231,1.231,0,0,1,.244.238,1.346,1.346,0,0,1,.138.2c.064.116.083.189.061.205s-.087-.019-.186-.1a2.453,2.453,0,0,0-.414-.289.735.735,0,0,0-.286-.071.254.254,0,0,0-.221.1.192.192,0,0,0-.042.109.144.144,0,0,0,0,.051.205.205,0,0,0,.026.061,1.415,1.415,0,0,0,.3.321,1.229,1.229,0,0,1,.2.234.641.641,0,0,1,.077.157.574.574,0,0,1,.035.177.674.674,0,0,1-.282.581.709.709,0,0,1-.549.112.963.963,0,0,1-.4-.17,1.351,1.351,0,0,1-.385-.436C245.183,160.953,245.167,160.892,245.19,160.863Z" transform="translate(-181.841 -126.574)" fill="#f83f00"/>
        <path id="Trazado_3357" data-name="Trazado 3357" d="M246.57,162.013a4.917,4.917,0,0,1,.741-1.236,5.21,5.21,0,0,1,.915-1.12,5.019,5.019,0,0,1-.741,1.239A5.236,5.236,0,0,1,246.57,162.013Z" transform="translate(-182.782 -126.732)" fill="#f83f00"/>
        <path id="Trazado_3358" data-name="Trazado 3358" d="M245.869,161.694a4.126,4.126,0,0,1,.668-1.13,4.2,4.2,0,0,1,.838-1.008,4.164,4.164,0,0,1-.664,1.13A4.264,4.264,0,0,1,245.869,161.694Z" transform="translate(-182.305 -126.664)" fill="#f83f00"/>
        <g id="Grupo_701" data-name="Grupo 701" transform="translate(59.69 29.227)" opacity="0.5">
          <path id="Trazado_3359" data-name="Trazado 3359" d="M233.81,151.109l2.035-2.969h.039c1.717.164,3.338,2.2,4.413,3.53.186.231.359.453.513.642a3.164,3.164,0,0,0,2.888,1l.1.08-2.144,3.238h-.039a7.352,7.352,0,0,1-4.984-3.245,8.716,8.716,0,0,0-2.744-2.247Zm2.1-2.837-1.926,2.789a8.361,8.361,0,0,1,2.731,2.247,7.256,7.256,0,0,0,4.862,3.19l2-3.026a2.39,2.39,0,0,1-.35.022,3.392,3.392,0,0,1-2.519-1.1c-.154-.183-.321-.4-.517-.642C239.144,150.444,237.559,148.458,235.906,148.272Z" transform="translate(-233.81 -148.14)" fill="#fff"/>
        </g>
        <path id="Trazado_3360" data-name="Trazado 3360" d="M58.927,288.139a4.413,4.413,0,0,1-4.114-1.855c-1.085-1.422-3.572-3.87-4.769-3.209l-2.224,3.27a10.826,10.826,0,0,1,3.5,3.081c1.354,1.958,4.936,2.965,4.936,2.965Z" transform="translate(-47.82 -210.467)" fill="#f83f00"/>
        <g id="Grupo_702" data-name="Grupo 702" transform="translate(3.413 75.561)" opacity="0.4">
          <path id="Trazado_3361" data-name="Trazado 3361" d="M58.969,295.557a1.89,1.89,0,0,1,.292-2.847c.828-.533,2.176.087,2.709.915a1.784,1.784,0,0,1-.536,2.465A1.943,1.943,0,0,1,58.969,295.557Z" transform="translate(-58.454 -292.512)" fill="#fff"/>
        </g>
        <path id="Trazado_3362" data-name="Trazado 3362" d="M60.836,296.7c.022-.019.087.022.183.1a2.081,2.081,0,0,0,.414.286.806.806,0,0,0,.3.08.382.382,0,0,0,.266-.077.3.3,0,0,0,.1-.244.5.5,0,0,0-.189-.286c-.058-.055-.125-.112-.193-.18a1,1,0,0,1-.193-.244.587.587,0,0,1-.055-.17.5.5,0,0,1,0-.183.587.587,0,0,1,.144-.321.6.6,0,0,1,.266-.173.609.609,0,0,1,.279-.026.912.912,0,0,1,.417.164,1.174,1.174,0,0,1,.247.238,1.282,1.282,0,0,1,.135.2c.064.116.087.189.064.209s-.09-.022-.189-.1a2.413,2.413,0,0,0-.411-.289.764.764,0,0,0-.286-.071.27.27,0,0,0-.225.1.222.222,0,0,0-.042.109.138.138,0,0,0,0,.051.206.206,0,0,0,.026.061,1.414,1.414,0,0,0,.3.321,1.239,1.239,0,0,1,.2.234,1.021,1.021,0,0,1,.077.157.571.571,0,0,1,.032.176.677.677,0,0,1-.276.594.731.731,0,0,1-.546.112.962.962,0,0,1-.4-.173,1.284,1.284,0,0,1-.4-.452C60.83,296.782,60.81,296.718,60.836,296.7Z" transform="translate(-56.651 -218.818)" fill="#f83f00"/>
        <path id="Trazado_3363" data-name="Trazado 3363" d="M62.21,297.833a4.915,4.915,0,0,1,.741-1.236,5.207,5.207,0,0,1,.915-1.12,4.9,4.9,0,0,1-.741,1.239A5.042,5.042,0,0,1,62.21,297.833Z" transform="translate(-57.589 -218.963)" fill="#f83f00"/>
        <path id="Trazado_3364" data-name="Trazado 3364" d="M61.519,297.534a4.063,4.063,0,0,1,.664-1.13,4.291,4.291,0,0,1,.838-1.008,4.162,4.162,0,0,1-.664,1.13A4.209,4.209,0,0,1,61.519,297.534Z" transform="translate(-57.119 -218.909)" fill="#f83f00"/>
        <g id="Grupo_703" data-name="Grupo 703" transform="translate(0.523 72.829)" opacity="0.5">
          <path id="Trazado_3365" data-name="Trazado 3365" d="M49.45,286.962,51.488,284h.035c1.717.164,3.341,2.2,4.413,3.53.186.234.359.453.517.642a3.158,3.158,0,0,0,2.888,1l.1.08L57.3,292.489h-.042a7.352,7.352,0,0,1-5-3.254,8.714,8.714,0,0,0-2.744-2.246Zm2.1-2.837-1.926,2.789a8.357,8.357,0,0,1,2.728,2.246,7.244,7.244,0,0,0,4.869,3.184l2-3.026a2.37,2.37,0,0,1-.35.022,3.386,3.386,0,0,1-2.506-1.091c-.157-.183-.321-.4-.517-.642C54.787,286.3,53.2,284.321,51.552,284.125Z" transform="translate(-49.45 -284)" fill="#fff"/>
        </g>
        <path id="Trazado_3366" data-name="Trazado 3366" d="M167.508,204.84a5.493,5.493,0,0,1-4.426,3.456c-2.2.369-6.338,1.688-6.3,3.392l2.311,4.349a13.46,13.46,0,0,1,5.427-2.064c2.943-.356,6.13-3.72,6.13-3.72Z" transform="translate(-121.811 -157.416)" fill="#f83f00"/>
        <g id="Grupo_704" data-name="Grupo 704" transform="translate(39.578 51.434)" opacity="0.4">
          <path id="Trazado_3367" data-name="Trazado 3367" d="M174.11,221.768a2.349,2.349,0,0,1-2.962-1.971c-.109-1.223,1.354-2.349,2.567-2.455a2.224,2.224,0,0,1,2.407,2.022A2.376,2.376,0,0,1,174.11,221.768Z" transform="translate(-171.142 -217.334)" fill="#fff"/>
        </g>
        <path id="Trazado_3368" data-name="Trazado 3368" d="M176.381,223.031c0-.039.077-.083.225-.144a2.641,2.641,0,0,0,.552-.289.934.934,0,0,0,.257-.279.459.459,0,0,0,.074-.337.369.369,0,0,0-.209-.254.616.616,0,0,0-.427.042c-.093.032-.2.074-.321.106a1.123,1.123,0,0,1-.388.058.837.837,0,0,1-.218-.035.642.642,0,0,1-.205-.106.722.722,0,0,1-.254-.34.748.748,0,0,1-.038-.392.805.805,0,0,1,.135-.321,1.133,1.133,0,0,1,.424-.363,1.6,1.6,0,0,1,.4-.135,1.924,1.924,0,0,1,.3-.032c.164,0,.257.016.263.051s-.074.087-.218.151a2.711,2.711,0,0,0-.558.286.827.827,0,0,0-.244.273.321.321,0,0,0-.016.3.244.244,0,0,0,.093.109.205.205,0,0,0,.061.026.321.321,0,0,0,.083,0,1.891,1.891,0,0,0,.517-.148,1.571,1.571,0,0,1,.376-.087.961.961,0,0,1,.215,0,.719.719,0,0,1,.218.067.847.847,0,0,1,.478.642.9.9,0,0,1-.2.668,1.2,1.2,0,0,1-.424.347,1.6,1.6,0,0,1-.7.17C176.48,223.089,176.387,223.063,176.381,223.031Z" transform="translate(-134.467 -167.853)" fill="#f83f00"/>
        <path id="Trazado_3369" data-name="Trazado 3369" d="M179.126,222.518a5.948,5.948,0,0,1-.934-1.534,6.354,6.354,0,0,1-.7-1.656,5.918,5.918,0,0,1,.934,1.534A6.491,6.491,0,0,1,179.126,222.518Z" transform="translate(-135.871 -167.253)" fill="#f83f00"/>
        <path id="Trazado_3370" data-name="Trazado 3370" d="M178.2,223.462a5.066,5.066,0,0,1-.857-1.386,5.26,5.26,0,0,1-.626-1.508,5.183,5.183,0,0,1,.86,1.386A5.087,5.087,0,0,1,178.2,223.462Z" transform="translate(-135.346 -168.095)" fill="#f83f00"/>
        <g id="Grupo_705" data-name="Grupo 705" transform="translate(35.396 48.329)" opacity="0.5">
          <path id="Trazado_3371" data-name="Trazado 3371" d="M160.2,217.323l-2.089-3.967.026-.039c1.178-1.794,4.358-2.4,6.46-2.808.363-.071.7-.135.995-.2a3.939,3.939,0,0,0,2.773-2.59l.144-.061,2.324,4.24-.029.042a9.182,9.182,0,0,1-6.47,3.611,10.586,10.586,0,0,0-4.06,1.72Zm-1.906-3.957,1.964,3.726a10.3,10.3,0,0,1,4.066-1.7,9.022,9.022,0,0,0,6.322-3.5l-2.17-3.96a3.166,3.166,0,0,1-.18.4,4.221,4.221,0,0,1-2.67,2.134c-.3.064-.642.128-1,.2C162.568,211.062,159.455,211.656,158.293,213.366Z" transform="translate(-158.11 -207.66)" fill="#fff"/>
        </g>
        <path id="Trazado_3372" data-name="Trazado 3372" d="M95.037,176.7a6.873,6.873,0,0,1-7.019.4c-2.526-1.184-7.725-2.773-8.9-1l-.716,6.123a16.875,16.875,0,0,1,7.061,1.739c3.28,1.727,8.957.539,8.957.539Z" transform="translate(-68.586 -137.367)" fill="#f83f00"/>
        <g id="Grupo_706" data-name="Grupo 706" transform="translate(15.215 40.484)" opacity="0.4">
          <path id="Trazado_3373" data-name="Trazado 3373" d="M97.205,188.515a2.946,2.946,0,0,1-1.646-4.14c.764-1.335,3.071-1.451,4.4-.69A2.779,2.779,0,0,1,101,187.478,2.99,2.99,0,0,1,97.205,188.515Z" transform="translate(-95.227 -183.215)" fill="#fff"/>
        </g>
        <path id="Trazado_3374" data-name="Trazado 3374" d="M100.9,189.677c.019-.042.138-.029.321,0a3.248,3.248,0,0,0,.777.1,1.191,1.191,0,0,0,.462-.1.594.594,0,0,0,.321-.3.462.462,0,0,0-.032-.411.786.786,0,0,0-.469-.26c-.122-.035-.254-.064-.395-.112a1.564,1.564,0,0,1-.443-.215,1.149,1.149,0,0,1-.2-.2.9.9,0,0,1-.157-.786.979.979,0,0,1,.61-.668,1.425,1.425,0,0,1,.7-.071,1.926,1.926,0,0,1,.51.151,2.543,2.543,0,0,1,.321.18c.173.116.254.2.234.241s-.135.035-.321,0a3.617,3.617,0,0,0-.777-.1,1.059,1.059,0,0,0-.446.106.4.4,0,0,0-.231.3.321.321,0,0,0,0,.18.342.342,0,0,0,.048.071.375.375,0,0,0,.074.067,2.391,2.391,0,0,0,.642.218,2.051,2.051,0,0,1,.443.177,1.488,1.488,0,0,1,.221.16.992.992,0,0,1,.177.225,1.056,1.056,0,0,1,.029,1,1.123,1.123,0,0,1-.677.552,1.585,1.585,0,0,1-.68.055,2.067,2.067,0,0,1-.847-.321C100.962,189.809,100.885,189.716,100.9,189.677Z" transform="translate(-83.866 -145.058)" fill="#f83f00"/>
        <path id="Trazado_3375" data-name="Trazado 3375" d="M104.908,189.958a7.632,7.632,0,0,1,.132-2.247,7.785,7.785,0,0,1,.459-2.2,7.767,7.767,0,0,1-.132,2.247A7.655,7.655,0,0,1,104.908,189.958Z" transform="translate(-86.557 -144.289)" fill="#f83f00"/>
        <path id="Trazado_3376" data-name="Trazado 3376" d="M103.4,190.267a6.352,6.352,0,0,1,.106-2.038,6.575,6.575,0,0,1,.433-2,6.49,6.49,0,0,1-.106,2.041A6.4,6.4,0,0,1,103.4,190.267Z" transform="translate(-85.533 -144.778)" fill="#f83f00"/>
        <g id="Grupo_707" data-name="Grupo 707" transform="translate(10.475 38.476)" opacity="0.5">
          <path id="Trazado_3377" data-name="Trazado 3377" d="M80.46,182.845l.674-5.552.051-.019c2.49-1.011,6.2.642,8.665,1.707.42.189.822.363,1.168.507a4.887,4.887,0,0,0,4.7-.693l.189.042-.642,6.018-.058.019a11.486,11.486,0,0,1-9.227-.889c-1.887-1.114-5.369-1.123-5.4-1.123Zm.854-5.427-.642,5.231a12.725,12.725,0,0,1,5.392,1.149,11.3,11.3,0,0,0,9.012.9l.587-5.62a3.657,3.657,0,0,1-.472.282,5.278,5.278,0,0,1-4.268.3c-.347-.141-.748-.321-1.171-.507C87.35,178.085,83.727,176.484,81.314,177.418Z" transform="translate(-80.46 -176.958)" fill="#fff"/>
        </g>
        <path id="Trazado_3378" data-name="Trazado 3378" d="M187.088,57.07a6.06,6.06,0,0,1-2.888,5.482c-2.048,1.37-5.616,4.57-4.814,6.271l4.291,3.328a14.9,14.9,0,0,1,4.525-4.535c2.8-1.688,4.493-6.518,4.493-6.518Z" transform="translate(-137.084 -57.07)" fill="#f83f00"/>
        <g id="Grupo_708" data-name="Grupo 708" transform="translate(46.563 5.334)" opacity="0.4">
          <path id="Trazado_3379" data-name="Trazado 3379" d="M197,78.282a2.6,2.6,0,0,1-3.877-.642c-.661-1.184.321-2.978,1.486-3.639a2.455,2.455,0,0,1,3.338.944A2.636,2.636,0,0,1,197,78.282Z" transform="translate(-192.905 -73.689)" fill="#fff"/>
        </g>
        <path id="Trazado_3380" data-name="Trazado 3380" d="M198.756,80.229c-.022-.032.042-.116.16-.244a3.037,3.037,0,0,0,.427-.542,1.082,1.082,0,0,0,.132-.395.523.523,0,0,0-.08-.372.4.4,0,0,0-.321-.164.693.693,0,0,0-.411.234c-.08.077-.164.164-.263.25a1.464,1.464,0,0,1-.366.234,1.034,1.034,0,0,1-.238.061.745.745,0,0,1-.254,0,.822.822,0,0,1-.411-.228.837.837,0,0,1-.215-.375.944.944,0,0,1,0-.388,1.284,1.284,0,0,1,.263-.558,1.689,1.689,0,0,1,.347-.321,2.009,2.009,0,0,1,.289-.17c.167-.08.266-.1.289-.071s-.035.122-.154.25a3.254,3.254,0,0,0-.43.542.917.917,0,0,0-.122.385.359.359,0,0,0,.122.321.286.286,0,0,0,.144.067.3.3,0,0,0,.074,0,.321.321,0,0,0,.083-.026,2.086,2.086,0,0,0,.456-.385,1.927,1.927,0,0,1,.321-.257,1.334,1.334,0,0,1,.221-.09.838.838,0,0,1,.25-.032.937.937,0,0,1,.773.436.982.982,0,0,1,.106.761,1.348,1.348,0,0,1-.266.539,1.865,1.865,0,0,1-.642.491C198.881,80.248,198.779,80.264,198.756,80.229Z" transform="translate(-149.053 -70.717)" fill="#f83f00"/>
        <path id="Trazado_3381" data-name="Trazado 3381" d="M200.455,79.862a6.881,6.881,0,0,1-1.637-1.123,6.68,6.68,0,0,1-1.454-1.351A6.655,6.655,0,0,1,199,78.511,6.585,6.585,0,0,1,200.455,79.862Z" transform="translate(-149.369 -70.863)" fill="#f83f00"/>
        <path id="Trazado_3382" data-name="Trazado 3382" d="M199.983,81.235a5.642,5.642,0,0,1-1.492-1.008,5.4,5.4,0,0,1-1.309-1.239,11.2,11.2,0,0,1,2.8,2.247Z" transform="translate(-149.243 -71.95)" fill="#f83f00"/>
        <g id="Grupo_709" data-name="Grupo 709" transform="translate(42.623 0.889)" opacity="0.5">
          <path id="Trazado_3383" data-name="Trazado 3383" d="M184.526,73.306l-3.9-3.046v-.051c.375-2.34,3.3-4.394,5.231-5.751.321-.234.642-.456.915-.642a4.288,4.288,0,0,0,1.6-3.851l.116-.125,4.259,3.209V63.1a10.119,10.119,0,0,1-4.875,6.563,11.577,11.577,0,0,0-3.309,3.569Zm-3.71-3.119,3.665,2.863A11.319,11.319,0,0,1,187.8,69.5a9.949,9.949,0,0,0,4.779-6.4l-3.976-3a2.94,2.94,0,0,1,0,.485,4.649,4.649,0,0,1-1.72,3.357c-.266.2-.584.42-.918.642C184.07,65.931,181.214,67.94,180.816,70.187Z" transform="translate(-180.63 -59.84)" fill="#fff"/>
        </g>
      </g>
      <g id="freepik--Money--inject-432" transform="translate(47.352 351.747)">
        <rect id="Rectángulo_514" data-name="Rectángulo 514" width="16.9" height="3.655" transform="translate(96.636 3.617)" fill="#263238"/>
        <path id="Trazado_3384" data-name="Trazado 3384" d="M400.03,425.67l.279,3.655h2.385l.125-3.655Z" transform="translate(-296.683 -422.053)" fill="#e0e0e0"/>
        <rect id="Rectángulo_515" data-name="Rectángulo 515" width="16.9" height="3.655" transform="translate(92.538 3.617)" fill="#455a64"/>
        <path id="Trazado_3385" data-name="Trazado 3385" d="M383.3,427.273c0,.048-3.758.083-8.4.083s-8.4-.035-8.4-.083,3.758-.083,8.4-.083S383.3,427.228,383.3,427.273Z" transform="translate(-273.921 -423.085)" fill="#263238"/>
        <path id="Trazado_3386" data-name="Trazado 3386" d="M383.284,429.883c0,.045-3.758.083-8.4.083s-8.4-.039-8.4-.083,3.761-.083,8.4-.083S383.284,429.839,383.284,429.883Z" transform="translate(-273.908 -424.858)" fill="#263238"/>
        <path id="Trazado_3387" data-name="Trazado 3387" d="M383.284,432.493c0,.045-3.758.083-8.4.083s-8.4-.039-8.4-.083,3.761-.083,8.4-.083S383.284,432.445,383.284,432.493Z" transform="translate(-273.908 -426.63)" fill="#263238"/>
        <path id="Trazado_3388" data-name="Trazado 3388" d="M383.284,435.093c0,.048-3.758.083-8.4.083s-8.4-.035-8.4-.083,3.761-.083,8.4-.083S383.284,435.048,383.284,435.093Z" transform="translate(-273.908 -428.396)" fill="#263238"/>
        <path id="Trazado_3389" data-name="Trazado 3389" d="M387.25,425.67l.279,3.655h2.388l.122-3.655Z" transform="translate(-288.005 -422.053)" fill="#e0e0e0"/>
        <rect id="Rectángulo_516" data-name="Rectángulo 516" width="16.9" height="3.655" transform="translate(98.687 0)" fill="#263238"/>
        <path id="Trazado_3390" data-name="Trazado 3390" d="M406.42,414.4l.279,3.655h2.385l.125-3.655Z" transform="translate(-301.023 -414.4)" fill="#e0e0e0"/>
        <rect id="Rectángulo_517" data-name="Rectángulo 517" width="16.9" height="3.655" transform="translate(94.588 0)" fill="#455a64"/>
        <path id="Trazado_3391" data-name="Trazado 3391" d="M389.694,416.013c0,.045-3.761.083-8.4.083s-8.4-.038-8.4-.083,3.758-.083,8.4-.083S389.694,415.952,389.694,416.013Z" transform="translate(-278.26 -415.439)" fill="#263238"/>
        <path id="Trazado_3392" data-name="Trazado 3392" d="M389.674,418.613c0,.048-3.758.083-8.4.083s-8.4-.035-8.4-.083,3.761-.083,8.4-.083S389.674,418.569,389.674,418.613Z" transform="translate(-278.247 -417.205)" fill="#263238"/>
        <path id="Trazado_3393" data-name="Trazado 3393" d="M389.674,421.223c0,.045-3.758.083-8.4.083s-8.4-.038-8.4-.083,3.761-.083,8.4-.083S389.674,421.179,389.674,421.223Z" transform="translate(-278.247 -418.977)" fill="#263238"/>
        <path id="Trazado_3394" data-name="Trazado 3394" d="M389.674,423.823c0,.045-3.758.083-8.4.083s-8.4-.039-8.4-.083,3.761-.083,8.4-.083S389.674,423.779,389.674,423.823Z" transform="translate(-278.247 -420.742)" fill="#263238"/>
        <path id="Trazado_3395" data-name="Trazado 3395" d="M393.64,414.4l.279,3.655H396.3l.125-3.655Z" transform="translate(-292.344 -414.4)" fill="#e0e0e0"/>
        <rect id="Rectángulo_518" data-name="Rectángulo 518" width="16.9" height="3.655" transform="translate(97.541 10.889)" fill="#263238"/>
        <path id="Trazado_3396" data-name="Trazado 3396" d="M402.84,448.32l.279,3.659h2.388l.122-3.659Z" transform="translate(-298.592 -437.434)" fill="#e0e0e0"/>
        <rect id="Rectángulo_519" data-name="Rectángulo 519" width="16.9" height="3.655" transform="translate(93.439 10.886)" fill="#455a64"/>
        <path id="Trazado_3397" data-name="Trazado 3397" d="M386.114,449.933c0,.048-3.758.083-8.4.083s-8.4-.035-8.4-.083,3.761-.083,8.4-.083S386.114,449.9,386.114,449.933Z" transform="translate(-275.829 -438.473)" fill="#263238"/>
        <path id="Trazado_3398" data-name="Trazado 3398" d="M386.1,452.543c0,.045-3.761.083-8.4.083s-8.4-.039-8.4-.083,3.758-.083,8.4-.083S386.1,452.5,386.1,452.543Z" transform="translate(-275.822 -440.245)" fill="#263238"/>
        <path id="Trazado_3399" data-name="Trazado 3399" d="M386.1,455.143c0,.048-3.761.087-8.4.087s-8.4-.039-8.4-.087,3.758-.083,8.4-.083S386.1,455.1,386.1,455.143Z" transform="translate(-275.822 -442.011)" fill="#263238"/>
        <path id="Trazado_3400" data-name="Trazado 3400" d="M386.1,457.753c0,.048-3.761.083-8.4.083s-8.4-.035-8.4-.083,3.758-.083,8.4-.083S386.1,457.708,386.1,457.753Z" transform="translate(-275.822 -443.783)" fill="#263238"/>
        <path id="Trazado_3401" data-name="Trazado 3401" d="M390.07,448.32l.279,3.659h2.384l.122-3.659Z" transform="translate(-289.92 -437.434)" fill="#e0e0e0"/>
        <rect id="Rectángulo_520" data-name="Rectángulo 520" width="16.9" height="3.655" transform="translate(99.592 7.272)" fill="#263238"/>
        <path id="Trazado_3402" data-name="Trazado 3402" d="M409.23,437.06l.279,3.655H411.9l.122-3.655Z" transform="translate(-302.931 -429.788)" fill="#e0e0e0"/>
        <rect id="Rectángulo_521" data-name="Rectángulo 521" width="16.9" height="3.655" transform="translate(95.49 7.272)" fill="#455a64"/>
        <path id="Trazado_3403" data-name="Trazado 3403" d="M392.464,438.663c0,.048-3.758.087-8.4.087s-8.4-.038-8.4-.087,3.761-.083,8.4-.083S392.464,438.618,392.464,438.663Z" transform="translate(-280.141 -430.82)" fill="#263238"/>
        <path id="Trazado_3404" data-name="Trazado 3404" d="M392.471,441.273c0,.048-3.758.083-8.4.083s-8.4-.035-8.4-.083,3.758-.083,8.4-.083S392.471,441.229,392.471,441.273Z" transform="translate(-280.148 -432.592)" fill="#263238"/>
        <path id="Trazado_3405" data-name="Trazado 3405" d="M392.471,443.883c0,.045-3.758.083-8.4.083s-8.4-.038-8.4-.083,3.758-.083,8.4-.083S392.471,443.835,392.471,443.883Z" transform="translate(-280.148 -434.365)" fill="#263238"/>
        <path id="Trazado_3406" data-name="Trazado 3406" d="M392.471,446.483c0,.048-3.758.087-8.4.087s-8.4-.039-8.4-.087,3.758-.083,8.4-.083S392.471,446.438,392.471,446.483Z" transform="translate(-280.148 -436.13)" fill="#263238"/>
        <path id="Trazado_3407" data-name="Trazado 3407" d="M396.45,437.06l.279,3.655h2.388l.122-3.655Z" transform="translate(-294.252 -429.788)" fill="#e0e0e0"/>
        <rect id="Rectángulo_522" data-name="Rectángulo 522" width="16.9" height="3.655" transform="translate(86.17 7.234)" fill="#f83f00"/>
        <rect id="Rectángulo_523" data-name="Rectángulo 523" width="16.9" height="3.655" transform="translate(86.17 7.234)" opacity="0.2"/>
        <path id="Trazado_3408" data-name="Trazado 3408" d="M367.42,436.94l.279,3.655h2.385l.125-3.655Z" transform="translate(-274.539 -429.706)" fill="#e0e0e0"/>
        <rect id="Rectángulo_524" data-name="Rectángulo 524" width="16.9" height="3.655" transform="translate(84.315 10.889)" fill="#f83f00"/>
        <rect id="Rectángulo_525" data-name="Rectángulo 525" width="16.9" height="3.655" transform="translate(84.315 10.889)" opacity="0.2"/>
        <path id="Trazado_3409" data-name="Trazado 3409" d="M361.64,448.32l.276,3.659H364.3l.122-3.659Z" transform="translate(-270.614 -437.434)" fill="#e0e0e0"/>
        <rect id="Rectángulo_526" data-name="Rectángulo 526" width="16.9" height="3.655" transform="translate(80.214 10.889)" fill="#f83f00"/>
        <g id="Grupo_710" data-name="Grupo 710" transform="translate(80.268 11.377)" opacity="0.2">
          <path id="Trazado_3410" data-name="Trazado 3410" d="M344.914,449.933c0,.048-3.761.083-8.4.083s-8.4-.035-8.4-.083,3.758-.083,8.4-.083S344.914,449.9,344.914,449.933Z" transform="translate(-328.12 -449.85)"/>
        </g>
        <g id="Grupo_711" data-name="Grupo 711" transform="translate(80.262 12.215)" opacity="0.2">
          <path id="Trazado_3411" data-name="Trazado 3411" d="M344.894,452.543c0,.045-3.761.083-8.4.083s-8.4-.039-8.4-.083,3.758-.083,8.4-.083S344.894,452.5,344.894,452.543Z" transform="translate(-328.1 -452.46)"/>
        </g>
        <g id="Grupo_712" data-name="Grupo 712" transform="translate(80.262 13.049)" opacity="0.2">
          <path id="Trazado_3412" data-name="Trazado 3412" d="M344.894,455.143c0,.048-3.761.087-8.4.087s-8.4-.039-8.4-.087,3.758-.083,8.4-.083S344.894,455.1,344.894,455.143Z" transform="translate(-328.1 -455.06)"/>
        </g>
        <g id="Grupo_713" data-name="Grupo 713" transform="translate(80.262 13.887)" opacity="0.2">
          <path id="Trazado_3413" data-name="Trazado 3413" d="M344.894,457.753c0,.048-3.761.083-8.4.083s-8.4-.035-8.4-.083,3.758-.083,8.4-.083S344.894,457.708,344.894,457.753Z" transform="translate(-328.1 -457.67)"/>
        </g>
        <path id="Trazado_3414" data-name="Trazado 3414" d="M348.86,448.32l.279,3.659h2.385l.125-3.659Z" transform="translate(-261.935 -437.434)" fill="#e0e0e0"/>
        <rect id="Rectángulo_527" data-name="Rectángulo 527" width="16.9" height="3.655" transform="translate(82.653 7.234)" fill="#f83f00"/>
        <g id="Grupo_714" data-name="Grupo 714" transform="translate(82.707 7.722)" opacity="0.2">
          <path id="Trazado_3415" data-name="Trazado 3415" d="M352.514,438.543c0,.048-3.761.083-8.4.083s-8.4-.035-8.4-.083,3.758-.083,8.4-.083S352.514,438.5,352.514,438.543Z" transform="translate(-335.72 -438.46)"/>
        </g>
        <g id="Grupo_715" data-name="Grupo 715" transform="translate(82.691 8.559)" opacity="0.2">
          <path id="Trazado_3416" data-name="Trazado 3416" d="M352.464,441.153c0,.045-3.758.083-8.4.083s-8.4-.039-8.4-.083,3.758-.083,8.4-.083S352.464,441.105,352.464,441.153Z" transform="translate(-335.67 -441.07)"/>
        </g>
        <g id="Grupo_716" data-name="Grupo 716" transform="translate(82.691 9.397)" opacity="0.2">
          <path id="Trazado_3417" data-name="Trazado 3417" d="M352.464,443.763c0,.045-3.758.083-8.4.083s-8.4-.039-8.4-.083,3.758-.083,8.4-.083S352.464,443.715,352.464,443.763Z" transform="translate(-335.67 -443.68)"/>
        </g>
        <g id="Grupo_717" data-name="Grupo 717" transform="translate(82.691 10.231)" opacity="0.2">
          <path id="Trazado_3418" data-name="Trazado 3418" d="M352.464,446.363c0,.048-3.758.083-8.4.083s-8.4-.035-8.4-.083,3.758-.083,8.4-.083S352.464,446.319,352.464,446.363Z" transform="translate(-335.67 -446.28)"/>
        </g>
        <path id="Trazado_3419" data-name="Trazado 3419" d="M356.46,436.94l.279,3.655h2.385l.125-3.655Z" transform="translate(-267.096 -429.706)" fill="#e0e0e0"/>
        <rect id="Rectángulo_528" data-name="Rectángulo 528" width="16.9" height="3.655" transform="translate(6.159 10.889)" fill="#263238"/>
        <path id="Trazado_3420" data-name="Trazado 3420" d="M118.1,448.32l.279,3.659h2.388l.122-3.659Z" transform="translate(-105.234 -437.434)" fill="#e0e0e0"/>
        <rect id="Rectángulo_529" data-name="Rectángulo 529" width="16.9" height="3.655" transform="translate(2.057 10.886)" fill="#455a64"/>
        <path id="Trazado_3421" data-name="Trazado 3421" d="M101.374,449.933c0,.048-3.758.083-8.4.083s-8.4-.035-8.4-.083,3.761-.083,8.4-.083S101.374,449.9,101.374,449.933Z" transform="translate(-82.471 -438.473)" fill="#263238"/>
        <path id="Trazado_3422" data-name="Trazado 3422" d="M101.361,452.543c0,.045-3.758.083-8.4.083s-8.4-.039-8.4-.083,3.758-.083,8.4-.083S101.361,452.5,101.361,452.543Z" transform="translate(-82.465 -440.245)" fill="#263238"/>
        <path id="Trazado_3423" data-name="Trazado 3423" d="M101.361,455.143c0,.048-3.758.087-8.4.087s-8.4-.039-8.4-.087,3.758-.083,8.4-.083S101.361,455.1,101.361,455.143Z" transform="translate(-82.465 -442.011)" fill="#263238"/>
        <path id="Trazado_3424" data-name="Trazado 3424" d="M101.361,457.753c0,.048-3.758.083-8.4.083s-8.4-.035-8.4-.083,3.758-.083,8.4-.083S101.361,457.708,101.361,457.753Z" transform="translate(-82.465 -443.783)" fill="#263238"/>
        <path id="Trazado_3425" data-name="Trazado 3425" d="M105.32,448.32l.279,3.659h2.388l.122-3.659Z" transform="translate(-96.555 -437.434)" fill="#f5f5f5"/>
        <rect id="Rectángulo_530" data-name="Rectángulo 530" width="16.9" height="3.655" transform="translate(4.102 7.272)" fill="#263238"/>
        <path id="Trazado_3426" data-name="Trazado 3426" d="M111.7,437.06l.276,3.655h2.388l.125-3.655Z" transform="translate(-100.888 -429.788)" fill="#e0e0e0"/>
        <rect id="Rectángulo_531" data-name="Rectángulo 531" width="16.9" height="3.655" transform="translate(0 7.272)" fill="#455a64"/>
        <path id="Trazado_3427" data-name="Trazado 3427" d="M94.974,438.663c0,.048-3.761.087-8.4.087s-8.4-.038-8.4-.087,3.758-.083,8.4-.083S94.974,438.618,94.974,438.663Z" transform="translate(-78.125 -430.82)" fill="#263238"/>
        <path id="Trazado_3428" data-name="Trazado 3428" d="M94.954,441.273c0,.048-3.761.083-8.4.083s-8.4-.035-8.4-.083,3.758-.083,8.4-.083S94.954,441.229,94.954,441.273Z" transform="translate(-78.112 -432.592)" fill="#263238"/>
        <path id="Trazado_3429" data-name="Trazado 3429" d="M94.954,443.883c0,.045-3.761.083-8.4.083s-8.4-.038-8.4-.083,3.758-.083,8.4-.083S94.954,443.835,94.954,443.883Z" transform="translate(-78.112 -434.365)" fill="#263238"/>
        <path id="Trazado_3430" data-name="Trazado 3430" d="M94.954,446.483c0,.048-3.761.087-8.4.087s-8.4-.039-8.4-.087,3.758-.083,8.4-.083S94.954,446.438,94.954,446.483Z" transform="translate(-78.112 -436.13)" fill="#263238"/>
        <path id="Trazado_3431" data-name="Trazado 3431" d="M98.92,437.06l.279,3.655h2.385l.125-3.655Z" transform="translate(-92.209 -429.788)" fill="#f5f5f5"/>
      </g>
    </g>
  </g>
</svg>
