<svg xmlns="http://www.w3.org/2000/svg" width="514.883" height="300" viewBox="0 0 514.883 300">
  <defs>
    <style>
      .cls-1 {
        fill: #f5f5f5;
      }

      .cls-2 {
        fill: #e0e0e0;
      }

      .cls-3 {
        fill: #ebebeb;
      }

      .cls-4 {
        fill: #f83f00;
      }

      .cls-5 {
        opacity: 0.2;
      }

      .cls-6 {
        opacity: 0.3;
      }

      .cls-7 {
        fill: #fff;
      }

      .cls-8 {
        fill: #fafafa;
      }

      .cls-9 {
        fill: #263238;
      }

      .cls-10 {
        fill: #455a64;
      }

      .cls-11 {
        opacity: 0.4;
      }

      .cls-12 {
        opacity: 0.8;
      }

      .cls-13 {
        fill: #ffbe9d;
      }

      .cls-14 {
        opacity: 0.6;
      }

      .cls-15 {
        fill: #eb996e;
      }
    </style>
  </defs>
  <g id="market-launch-pana" transform="translate(-64.444 -70.499)">
    <g id="freepik--background-complete--inject-317" transform="translate(77.509 78.41)">
      <path id="Trazado_1507" data-name="Trazado 1507" class="cls-1" d="M178.18,433.268c.353-2.545-3.236-4.634-5.937-4.854a15.211,15.211,0,0,1-3.84-.33c-2.647-.927-3.7-4.335-6.283-5.427-1.932-.785-4.147-.086-6.016.856s-3.715,2.121-5.8,2.254c-1.814.118-3.786-.558-5.372.33-1.186.66-1.806,2.026-2.9,2.827a6.848,6.848,0,0,1-3.786,1.029,10.72,10.72,0,0,0-3.927.636,3.1,3.1,0,0,0-1.948,3.141Z" transform="translate(-92.078 -153.918)"/>
      <path id="Trazado_1508" data-name="Trazado 1508" class="cls-1" d="M639.409,144.943c.573-4.186-5.333-7.626-9.778-7.987-2.113-.173-4.312.149-6.283-.55-4.343-1.508-6.079-7.123-10.32-8.914-3.142-1.335-6.825-.149-9.9,1.4s-6.11,3.495-9.55,3.715c-2.984.188-6.228-.919-8.843.542-1.948,1.084-2.969,3.33-4.759,4.657s-4.045,1.571-6.228,1.689-4.437.141-6.417,1.045-3.628,3.008-3.212,5.152Z" transform="translate(-184.736 -90.518)"/>
      <path id="Trazado_1509" data-name="Trazado 1509" class="cls-1" d="M100.259,277.983l18.943-2.9a19.178,19.178,0,1,1-16.846-16.147Z" transform="translate(-81.079 -118.828)"/>
      <path id="Trazado_1510" data-name="Trazado 1510" class="cls-2" d="M112.691,259l-2.3,14.687,14.42-2.7S122.689,262.786,112.691,259Z" transform="translate(-87.37 -118.867)"/>
      <path id="Trazado_1511" data-name="Trazado 1511" class="cls-3" d="M558.121,354.008a18.663,18.663,0,0,1,4.909.785l3.2-3.314,6.519,3.927-1.461,4.375a18.41,18.41,0,0,1,2.937,4.005l4.61-.086,1.806,7.406-4.115,2.058a18.661,18.661,0,0,1-.785,4.909l3.314,3.2-3.927,6.519-4.375-1.461a18.411,18.411,0,0,1-4.005,2.937l.086,4.6-7.406,1.814-2.058-4.115a18.661,18.661,0,0,1-4.909-.785l-3.2,3.314-6.519-3.927L544.2,385.8a18.6,18.6,0,0,1-2.937-4.005l-4.6.086-1.814-7.406,4.115-2.058a18.661,18.661,0,0,1,.785-4.909l-3.314-3.2,3.927-6.519,4.367,1.461a18.6,18.6,0,0,1,4.005-2.937l-.086-4.6,7.406-1.814,2.058,4.115Zm-1.948,10.752a8.176,8.176,0,1,0,9.88,5.992A8.176,8.176,0,0,0,556.173,364.759Z" transform="translate(-178.468 -138.376)"/>
      <path id="Trazado_1512" data-name="Trazado 1512" class="cls-3" d="M560.24,368.734a6.079,6.079,0,0,1,1.995-.314,8.066,8.066,0,0,1,5.184,1.775,8.153,8.153,0,0,1,2.356,3.024,8.418,8.418,0,0,1,.723,4.359,8.37,8.37,0,0,1-1.9,4.508,8.349,8.349,0,0,1-9.652,2.356,8.451,8.451,0,0,1-5.136-7.335,8.27,8.27,0,0,1,4.484-7.752,6.07,6.07,0,0,1,1.924-.644,19.583,19.583,0,0,0-1.838.785,8.152,8.152,0,0,0-3.558,3.927,7.932,7.932,0,0,0-.628,3.621,7.993,7.993,0,0,0,4.932,6.9,7.924,7.924,0,0,0,9.118-2.238,7.374,7.374,0,0,0,1.241-2.034,7.468,7.468,0,0,0,.581-2.207,7.987,7.987,0,0,0-2.874-7.068,8.137,8.137,0,0,0-4.979-1.854,18.952,18.952,0,0,0-1.971.189Z" transform="translate(-182.535 -142.35)"/>
      <path id="Trazado_1513" data-name="Trazado 1513" class="cls-3" d="M318.937,380.477a6.719,6.719,0,0,1-.173-1.516,13.077,13.077,0,0,0-.2-1.83,17.775,17.775,0,0,0-.479-2.45,22.98,22.98,0,0,0-2.545-6.283,23.687,23.687,0,0,0-5.867-6.754,23.146,23.146,0,0,0-9.715-4.563,23.436,23.436,0,0,0-12.26.785,21.834,21.834,0,0,0-5.961,3.039,21.5,21.5,0,0,0-5.026,4.822,23.169,23.169,0,0,0-.668,27.488,28.03,28.03,0,0,0,2.207,2.757,27.439,27.439,0,0,0,2.584,2.309,21.8,21.8,0,0,0,5.8,3.322,23.561,23.561,0,0,0,28.36-9.173,22.776,22.776,0,0,0,2.843-6.173,16.581,16.581,0,0,0,.6-2.419,11.368,11.368,0,0,0,.291-1.814,6.438,6.438,0,0,1,.251-1.508,7.342,7.342,0,0,1,0,1.531,10.258,10.258,0,0,1-.173,1.853,16.129,16.129,0,0,1-.487,2.5,22.47,22.47,0,0,1-2.717,6.424,24.221,24.221,0,0,1-29.42,9.911,22.909,22.909,0,0,1-6.134-3.463,27.341,27.341,0,0,1-2.733-2.427,27.045,27.045,0,0,1-2.356-2.89,24.347,24.347,0,0,1,.707-29,28.81,28.81,0,0,1,2.474-2.78,28.157,28.157,0,0,1,2.851-2.285,22.965,22.965,0,0,1,6.283-3.141,24.208,24.208,0,0,1,28.9,11.325,22.241,22.241,0,0,1,2.4,6.55,16.024,16.024,0,0,1,.369,2.521,9.833,9.833,0,0,1,.079,1.853A7.458,7.458,0,0,1,318.937,380.477Z" transform="translate(-121.735 -139.58)"/>
      <path id="Trazado_1514" data-name="Trazado 1514" class="cls-3" d="M315.843,368.049c.055.071-.377.448-1.21,1.068l-1.571,1.1c-.3.212-.62.448-.974.668l-1.178.613a26.978,26.978,0,0,1-13.98,3.542l-2.128-.094-2.042-.322c-.33-.055-.66-.1-.99-.165l-.95-.259c-.628-.173-1.249-.322-1.838-.51a30.559,30.559,0,0,1-5.961-2.741c-3.2-1.94-4.759-3.7-4.634-3.809s1.869,1.327,5.089,3a36.214,36.214,0,0,0,5.835,2.387c.573.173,1.17.3,1.775.448l.911.228.95.141,1.956.291,2.026.079a29.059,29.059,0,0,0,13.595-3.047l1.194-.518c.361-.188.691-.393,1.005-.573l1.634-.9C315.262,368.207,315.78,367.971,315.843,368.049Z" transform="translate(-123.424 -142.074)"/>
      <path id="Trazado_1515" data-name="Trazado 1515" class="cls-3" d="M277.419,403.367c-.055-.079.377-.448,1.21-1.068l1.571-1.1c.306-.212.62-.448.982-.668l1.17-.62a26.993,26.993,0,0,1,14.05-3.534l2.121.094,2.042.322c.33.055.668.1.99.165l.958.251c.62.173,1.241.322,1.83.51a30.574,30.574,0,0,1,5.961,2.749c3.2,1.932,4.759,3.691,4.642,3.809s-1.869-1.327-5.1-3a35.494,35.494,0,0,0-5.867-2.4c-.573-.165-1.17-.291-1.767-.448l-.919-.228-.95-.141-1.948-.283-2.026-.086a29.138,29.138,0,0,0-13.6,3.055l-1.186.518c-.361.188-.691.393-1.013.565l-1.626.9C278,403.21,277.474,403.438,277.419,403.367Z" transform="translate(-123.217 -148.349)"/>
      <path id="Trazado_1516" data-name="Trazado 1516" class="cls-3" d="M319.1,387.6c0,.361-10.713.393-23.9.071s-23.876-.872-23.868-1.233,10.7-.4,23.9-.079S319.1,387.248,319.1,387.6Z" transform="translate(-121.911 -146.154)"/>
      <path id="Trazado_1517" data-name="Trazado 1517" class="cls-3" d="M300.259,403.891c-.361,0-.4-10.7-.079-23.891s.872-23.868,1.233-23.86.4,10.7.079,23.9S300.62,403.938,300.259,403.891Z" transform="translate(-128.056 -139.715)"/>
      <path id="Trazado_1518" data-name="Trazado 1518" class="cls-3" d="M297.093,403.85c-.094.134-2.725-1.649-5.757-5.686a32.1,32.1,0,0,1-4.272-7.752,28.682,28.682,0,0,1-1.846-10.7,27.237,27.237,0,0,1,2.411-10.595,33.082,33.082,0,0,1,4.665-7.516c3.212-3.927,5.867-5.608,5.961-5.5s-2.278,2.1-5.231,6.04a35.851,35.851,0,0,0-4.288,7.422A27.49,27.49,0,0,0,286.53,379.7a29.058,29.058,0,0,0,1.657,10.3,34.273,34.273,0,0,0,3.927,7.626C294.855,401.7,297.227,403.7,297.093,403.85Z" transform="translate(-124.89 -139.705)"/>
      <path id="Trazado_1519" data-name="Trazado 1519" class="cls-3" d="M302.182,356.148c.086-.133,2.717,1.649,5.757,5.686a32.1,32.1,0,0,1,4.265,7.752,28.682,28.682,0,0,1,1.854,10.7,27.49,27.49,0,0,1-2.411,10.595,33.637,33.637,0,0,1-4.665,7.516c-3.22,3.888-5.875,5.608-5.961,5.5s2.278-2.1,5.231-6.04a35.843,35.843,0,0,0,4.28-7.422,27.489,27.489,0,0,0,2.254-10.171A29.263,29.263,0,0,0,311.111,370a33.948,33.948,0,0,0-3.927-7.626C304.412,358.3,302.048,356.3,302.182,356.148Z" transform="translate(-128.282 -139.715)"/>
      <rect id="Rectángulo_451" data-name="Rectángulo 451" class="cls-1" width="39.952" height="26.931" transform="translate(99.757 107.402) rotate(-5.08)"/>
      <path id="Trazado_1520" data-name="Trazado 1520" class="cls-2" d="M247.873,212.84a2.859,2.859,0,0,1-.346.385c-.251.275-.6.628-1.021,1.068-.927.95-2.215,2.27-3.809,3.888l-12.692,12.77-.1.1-.126-.086-.3-.2L214.3,220.654l-4.579-3.1-1.233-.864a2.781,2.781,0,0,1-.416-.314,2.264,2.264,0,0,1,.456.259l1.272.785,4.642,3,15.236,10.037.3.2h-.228l12.762-12.692,3.927-3.8,1.068-1.021A3.343,3.343,0,0,1,247.873,212.84Z" transform="translate(-108.334 -108.96)"/>
      <path id="Trazado_1521" data-name="Trazado 1521" class="cls-2" d="M211.11,246.734c-.079-.063,2.584-4.005,5.953-8.8s6.173-8.639,6.283-8.6-2.584,4-5.953,8.8S211.2,246.789,211.11,246.734Z" transform="translate(-108.986 -112.499)"/>
      <path id="Trazado_1522" data-name="Trazado 1522" class="cls-2" d="M243.46,227.41c.071-.071,3.354,3.314,7.328,7.563s7.131,7.744,7.068,7.854-3.354-3.322-7.328-7.571S243.381,227.473,243.46,227.41Z" transform="translate(-115.929 -112.087)"/>
      <path id="Trazado_1523" data-name="Trazado 1523" class="cls-3" d="M226.991,136.2c.88-6.393-8.152-11.663-14.922-12.2-3.236-.267-6.6.228-9.66-.84-6.644-2.309-9.3-10.893-15.778-13.626-4.846-2.042-10.43-.228-15.126,2.136s-9.338,5.341-14.584,5.678c-4.571.291-9.527-1.4-13.516.832-2.977,1.657-4.539,5.089-7.28,7.108s-6.189,2.4-9.519,2.584-6.778.212-9.809,1.571-5.5,4.594-4.909,7.854Z" transform="translate(-87.672 -86.597)"/>
      <path id="Trazado_1524" data-name="Trazado 1524" class="cls-3" d="M427.866,446.849c.558-4.013-5.1-7.312-9.362-7.657-2.026-.157-4.131.149-6.055-.518-4.163-1.453-5.828-6.833-9.888-8.545-3.039-1.28-6.534-.141-9.48,1.343s-5.851,3.346-9.142,3.558c-2.867.181-5.969-.88-8.474.518-1.869,1.037-2.843,3.189-4.563,4.461s-3.88,1.5-5.961,1.618a17.045,17.045,0,0,0-6.149,1c-1.9.864-3.471,2.882-3.079,4.94Z" transform="translate(-140.008 -155.475)"/>
      <path id="Trazado_1525" data-name="Trazado 1525" class="cls-1" d="M412.648,98.611c.573-4.194-5.333-7.634-9.778-8-2.113-.165-4.312.157-6.322-.542-4.343-1.516-6.079-7.131-10.32-8.922-3.142-1.335-6.825-.149-9.9,1.4s-6.11,3.495-9.542,3.715c-2.992.2-6.236-.911-8.851.542-1.948,1.092-2.961,3.338-4.759,4.657s-4.045,1.571-6.228,1.689-4.43.141-6.417,1.052-3.628,3-3.212,5.144Z" transform="translate(-136.06 -80.572)"/>
    </g>
    <g id="freepik--Sheet--inject-317" transform="translate(268.257 166.748)">
      <path id="Trazado_1526" data-name="Trazado 1526" class="cls-4" d="M373.005,229.608l-25.344,13.351a3.6,3.6,0,0,1-4.846-1.508l-18.449-35.083a3.581,3.581,0,0,1,1.5-4.838l16.077-8.451,19.195,6.283,13.351,25.431a3.581,3.581,0,0,1-1.484,4.814Z" transform="translate(-323.954 -193.056)"/>
      <path id="Trazado_1527" data-name="Trazado 1527" class="cls-4" d="M346.86,193.05l5.2,9.872a3.33,3.33,0,0,0,4.5,1.4l9.5-4.987Z" transform="translate(-328.87 -193.05)"/>
      <g id="Grupo_607" data-name="Grupo 607" class="cls-5" transform="translate(23.771 6.283)">
        <path id="Trazado_1528" data-name="Trazado 1528" d="M354.22,205.44a3.707,3.707,0,0,0,4.272,1.814l.353-.094c1.359-.432,10.281-3.275,10.21-3.456s-1.39-2.655-1.39-2.655l-9.5,4.987S355.728,207.207,354.22,205.44Z" transform="translate(-354.22 -201.05)"/>
      </g>
      <g id="Grupo_608" data-name="Grupo 608" class="cls-6" transform="translate(17.99)">
        <path id="Trazado_1529" data-name="Trazado 1529" class="cls-7" d="M346.86,193.05l5.2,9.872a3.33,3.33,0,0,0,4.5,1.4l9.5-4.987Z" transform="translate(-346.86 -193.05)"/>
      </g>
      <path id="Trazado_1530" data-name="Trazado 1530" class="cls-8" d="M347.3,206.528a43.176,43.176,0,0,1-5.741,3.314,41.3,41.3,0,0,1-5.985,2.851,47.7,47.7,0,0,1,5.741-3.314A37.275,37.275,0,0,1,347.3,206.528Z" transform="translate(-326.446 -195.941)"/>
      <path id="Trazado_1531" data-name="Trazado 1531" class="cls-8" d="M358.607,208.569c.071.126-4.2,2.5-9.527,5.3s-9.707,4.971-9.77,4.846,4.194-2.5,9.527-5.3S358.544,208.443,358.607,208.569Z" transform="translate(-327.249 -196.38)"/>
      <path id="Trazado_1532" data-name="Trazado 1532" class="cls-8" d="M363.47,213.339c.063.126-4.594,2.71-10.4,5.765s-10.579,5.427-10.642,5.3,4.587-2.71,10.4-5.765S363.4,213.213,363.47,213.339Z" transform="translate(-327.919 -197.403)"/>
      <path id="Trazado_1533" data-name="Trazado 1533" class="cls-8" d="M366.41,218.939c.071.126-4.587,2.71-10.4,5.765S345.44,230.13,345.37,230s4.594-2.71,10.4-5.765S366.347,218.813,366.41,218.939Z" transform="translate(-328.55 -198.605)"/>
      <path id="Trazado_1534" data-name="Trazado 1534" class="cls-8" d="M369.36,224.539c.063.126-4.594,2.71-10.4,5.765s-10.579,5.427-10.642,5.3,4.587-2.7,10.4-5.765S369.274,224.413,369.36,224.539Z" transform="translate(-329.183 -199.807)"/>
      <path id="Trazado_1535" data-name="Trazado 1535" class="cls-8" d="M372.3,230.139c.071.133-4.587,2.71-10.4,5.765s-10.571,5.427-10.642,5.3,4.594-2.7,10.406-5.765S372.261,230.029,372.3,230.139Z" transform="translate(-329.814 -201.009)"/>
    </g>
    <g id="freepik--Stopwatch--inject-317" transform="translate(212.701 211.189)">
      <rect id="Rectángulo_452" data-name="Rectángulo 452" class="cls-9" width="2.568" height="4.005" transform="translate(7.251 21.814) rotate(-63.36)"/>
      <path id="Trazado_1536" data-name="Trazado 1536" class="cls-10" d="M264.352,273.062,262,277.774l-3.856-1.932a10.108,10.108,0,0,1,2.356-4.712Z" transform="translate(-254.272 -254.249)"/>
      <path id="Trazado_1537" data-name="Trazado 1537" class="cls-9" d="M262.437,278.055a8.087,8.087,0,0,1-2.081-.856,8.436,8.436,0,0,1-1.956-1.139,8.8,8.8,0,0,1,2.089.864A8.529,8.529,0,0,1,262.437,278.055Z" transform="translate(-254.328 -255.307)"/>
      <path id="Trazado_1538" data-name="Trazado 1538" class="cls-9" d="M263,276.876a9.182,9.182,0,0,1-2.1-.95,11.882,11.882,0,0,1-1.979-1.186,7.43,7.43,0,0,1,2.121.911A8.143,8.143,0,0,1,263,276.876Z" transform="translate(-254.44 -255.023)"/>
      <path id="Trazado_1539" data-name="Trazado 1539" class="cls-9" d="M263.758,275.333a8.937,8.937,0,0,1-2.121-.966,10.9,10.9,0,0,1-1.987-1.217,7.548,7.548,0,0,1,2.128.942,9.1,9.1,0,0,1,1.979,1.241Z" transform="translate(-254.596 -254.682)"/>
      <path id="Trazado_1540" data-name="Trazado 1540" class="cls-9" d="M264.469,273.954a8.024,8.024,0,0,1-2.081-.88,8.742,8.742,0,0,1-1.948-1.154,8.025,8.025,0,0,1,2.081.88,8.74,8.74,0,0,1,1.948,1.154Z" transform="translate(-254.766 -254.418)"/>
      <rect id="Rectángulo_453" data-name="Rectángulo 453" class="cls-9" width="2.568" height="4.005" transform="translate(38.765 7.329) rotate(23.63)"/>
      <path id="Trazado_1541" data-name="Trazado 1541" class="cls-10" d="M305.228,260.73l-4.838-2.113,1.728-3.927a9.99,9.99,0,0,1,4.838,2.121Z" transform="translate(-263.34 -250.72)"/>
      <path id="Trazado_1542" data-name="Trazado 1542" class="cls-9" d="M301.42,259.011a8.472,8.472,0,0,1,.746-2.128,8.591,8.591,0,0,1,1.029-2,8.215,8.215,0,0,1-.746,2.128,8.593,8.593,0,0,1-1.029,2Z" transform="translate(-263.561 -250.761)"/>
      <path id="Trazado_1543" data-name="Trazado 1543" class="cls-9" d="M302.59,259.506a9.032,9.032,0,0,1,.84-2.144,11.784,11.784,0,0,1,1.076-2.042,7.069,7.069,0,0,1-.785,2.168,8.293,8.293,0,0,1-1.131,2.018Z" transform="translate(-263.812 -250.855)"/>
      <path id="Trazado_1544" data-name="Trazado 1544" class="cls-9" d="M304.16,260.188a8.8,8.8,0,0,1,.856-2.168,10.837,10.837,0,0,1,1.107-2.05,7.556,7.556,0,0,1-.832,2.176,9.531,9.531,0,0,1-1.131,2.042Z" transform="translate(-264.149 -250.995)"/>
      <path id="Trazado_1545" data-name="Trazado 1545" class="cls-9" d="M305.61,260.871a16.548,16.548,0,0,1,1.822-4.131,8.284,8.284,0,0,1-.785,2.128,8.457,8.457,0,0,1-1.037,2Z" transform="translate(-264.46 -251.16)"/>
      <rect id="Rectángulo_454" data-name="Rectángulo 454" class="cls-9" width="3.039" height="4.744" transform="translate(19.796 7.65) rotate(-22.67)"/>
      <path id="Trazado_1546" data-name="Trazado 1546" class="cls-4" d="M282.474,257.482l-5.773,2.411-1.971-4.712a11.906,11.906,0,0,1,5.78-2.411Z" transform="translate(-257.833 -250.308)"/>
      <path id="Trazado_1547" data-name="Trazado 1547" class="cls-9" d="M280.579,252.76a6.786,6.786,0,0,1-5.859,2.474,15.3,15.3,0,0,0,3.142-.785A16.011,16.011,0,0,0,280.579,252.76Z" transform="translate(-257.831 -250.306)"/>
      <path id="Trazado_1548" data-name="Trazado 1548" class="cls-9" d="M279.2,259.7a7.98,7.98,0,0,1-.982-1.963,7.855,7.855,0,0,1-.707-2.081,8.151,8.151,0,0,1,.99,1.963A7.97,7.97,0,0,1,279.2,259.7Z" transform="translate(-258.43 -250.928)"/>
      <path id="Trazado_1549" data-name="Trazado 1549" class="cls-9" d="M280.616,259.15a7.8,7.8,0,0,1-.99-1.971,7.924,7.924,0,0,1-.707-2.089,8.113,8.113,0,0,1,.99,1.971A8.284,8.284,0,0,1,280.616,259.15Z" transform="translate(-258.732 -250.806)"/>
      <path id="Trazado_1550" data-name="Trazado 1550" class="cls-9" d="M282.006,258.54a7.8,7.8,0,0,1-.99-1.971,7.924,7.924,0,0,1-.707-2.089,8.111,8.111,0,0,1,.99,1.971A8.285,8.285,0,0,1,282.006,258.54Z" transform="translate(-259.031 -250.675)"/>
      <path id="Trazado_1551" data-name="Trazado 1551" class="cls-9" d="M283.126,257.97a9.612,9.612,0,0,1-1.06-2.136,9.425,9.425,0,0,1-.785-2.254,9,9,0,0,1,1.052,2.136A9.163,9.163,0,0,1,283.126,257.97Z" transform="translate(-259.239 -250.482)"/>
      <path id="Trazado_1552" data-name="Trazado 1552" class="cls-9" d="M277.826,260.14a9.613,9.613,0,0,1-1.06-2.136,9.424,9.424,0,0,1-.785-2.254,18.99,18.99,0,0,1,1.83,4.39Z" transform="translate(-258.101 -250.948)"/>
      <circle id="Elipse_171" data-name="Elipse 171" class="cls-4" cx="22.101" cy="22.101" r="22.101" transform="translate(0 36.837) rotate(-56.45)"/>
      <circle id="Elipse_172" data-name="Elipse 172" class="cls-8" cx="18.558" cy="18.558" r="18.558" transform="translate(6.425 40.785) rotate(-68.15)"/>
      <path id="Trazado_1553" data-name="Trazado 1553" class="cls-9" d="M304.154,276.187a2.813,2.813,0,0,1-.141-.267l-.393-.785-.291-.581c-.11-.212-.259-.432-.408-.675a14.292,14.292,0,0,0-1.092-1.61,17.741,17.741,0,0,0-3.8-3.746,18.456,18.456,0,0,0-6.354-3.016,17.961,17.961,0,0,0-10.736.463c-.377.141-.785.259-1.131.424l-1.1.526c-.181.094-.377.173-.55.275l-.534.322c-.353.22-.715.432-1.068.668a21.209,21.209,0,0,0-1.987,1.61,19.752,19.752,0,0,0-1.806,1.9c-.283.346-.526.715-.785,1.076a8.966,8.966,0,0,0-.73,1.131,21.75,21.75,0,0,0-1.249,2.45,21.017,21.017,0,0,0-.84,2.662,17.885,17.885,0,0,0-.471,5.694,19.572,19.572,0,0,0,1.359,5.725,19.8,19.8,0,0,0,3.142,4.995,17.867,17.867,0,0,0,4.382,3.668,20.649,20.649,0,0,0,2.49,1.272,20.132,20.132,0,0,0,2.607.84,9.716,9.716,0,0,0,1.327.275c.44.063.88.149,1.319.188a19.589,19.589,0,0,0,2.623.055,19.249,19.249,0,0,0,2.545-.283c.416-.079.785-.2,1.225-.291l.6-.149c.2-.055.393-.134.589-.2l1.147-.408c.377-.149.73-.338,1.092-.5a17.218,17.218,0,0,0,2.05-1.147,18.558,18.558,0,0,0,8.152-12.81,17.49,17.49,0,0,0,0-5.333,13.145,13.145,0,0,0-.377-1.916c-.071-.275-.126-.526-.189-.785l-.212-.613-.291-.833c-.063-.188-.086-.291-.086-.291s.047.094.118.275l.314.832c.071.181.141.385.228.613a6.249,6.249,0,0,1,.2.785,14.088,14.088,0,0,1,.408,1.924,17.546,17.546,0,0,1,.047,5.372,18.692,18.692,0,0,1-8.184,13,19.063,19.063,0,0,1-2.073,1.17c-.369.165-.73.361-1.107.511l-1.162.424c-.2.063-.393.149-.6.2l-.613.149c-.408.1-.785.22-1.233.3a20.013,20.013,0,0,1-2.584.3,20.28,20.28,0,0,1-2.67-.047c-.44-.047-.888-.126-1.343-.188a9.85,9.85,0,0,1-1.335-.283,17.333,17.333,0,0,1-5.191-2.136,18.063,18.063,0,0,1-4.453-3.723,18.5,18.5,0,0,1-4.555-10.9,18.246,18.246,0,0,1,.487-5.788,17.334,17.334,0,0,1,2.128-5.191,9.2,9.2,0,0,1,.738-1.147c.275-.369.526-.746.785-1.092a20.931,20.931,0,0,1,3.864-3.558c.353-.243.73-.448,1.084-.675l.542-.322c.181-.11.377-.188.558-.283l1.123-.526c.377-.165.785-.283,1.139-.424a16.731,16.731,0,0,1,2.293-.652,18.668,18.668,0,0,1,14.993,3.306,17.647,17.647,0,0,1,3.793,3.817A12.628,12.628,0,0,1,303,273.846c.141.243.291.463.4.675l.275.589c.157.346.275.613.369.785A.935.935,0,0,1,304.154,276.187Z" transform="translate(-256.462 -252.865)"/>
      <path id="Trazado_1554" data-name="Trazado 1554" class="cls-9" d="M309.824,279.88a10.878,10.878,0,0,1-2.914,1.021,10.658,10.658,0,0,1,2.662-1.571c1.524-.746,2.819-1.2,2.906-1.021S311.371,279.2,309.824,279.88Z" transform="translate(-264.74 -255.781)"/>
      <path id="Trazado_1555" data-name="Trazado 1555" class="cls-9" d="M310.24,295.3a10.445,10.445,0,0,1-2.78-1.319,10.681,10.681,0,0,1,2.984.785c1.571.542,2.851,1.131,2.78,1.319S311.811,295.912,310.24,295.3Z" transform="translate(-264.858 -259.153)"/>
      <path id="Trazado_1556" data-name="Trazado 1556" class="cls-9" d="M300.172,306.04a10.367,10.367,0,0,1-1.052-2.89,10.154,10.154,0,0,1,1.571,2.639c.785,1.508,1.233,2.812,1.052,2.9S300.864,307.587,300.172,306.04Z" transform="translate(-263.068 -261.121)"/>
      <path id="Trazado_1557" data-name="Trazado 1557" class="cls-9" d="M284.9,306.606a10.36,10.36,0,0,1,1.288-2.8,10.862,10.862,0,0,1-.73,2.992c-.526,1.571-1.107,2.859-1.3,2.8S284.307,308.192,284.9,306.606Z" transform="translate(-259.847 -261.262)"/>
      <path id="Trazado_1558" data-name="Trazado 1558" class="cls-9" d="M273.12,296.706A10.21,10.21,0,0,1,276,295.63a10.782,10.782,0,0,1-2.631,1.61c-1.5.785-2.8,1.257-2.882,1.084S271.58,297.389,273.12,296.706Z" transform="translate(-256.922 -259.507)"/>
      <path id="Trazado_1559" data-name="Trazado 1559" class="cls-9" d="M272.31,281.424a10.729,10.729,0,0,1,2.812,1.264,10.633,10.633,0,0,1-3-.707c-1.618-.5-2.875-1.068-2.812-1.257S270.715,280.851,272.31,281.424Z" transform="translate(-256.669 -256.296)"/>
      <path id="Trazado_1560" data-name="Trazado 1560" class="cls-9" d="M282.952,269.526a10.366,10.366,0,0,1,1.107,2.867,10.524,10.524,0,0,1-1.634-2.607c-.785-1.492-1.288-2.78-1.115-2.867S282.222,267.995,282.952,269.526Z" transform="translate(-259.238 -253.344)"/>
      <path id="Trazado_1561" data-name="Trazado 1561" class="cls-9" d="M298.4,268.538a10.642,10.642,0,0,1-1.225,2.827,10.374,10.374,0,0,1,.668-3.008c.487-1.618,1.037-2.882,1.225-2.827S298.953,266.943,298.4,268.538Z" transform="translate(-262.649 -253.046)"/>
      <path id="Trazado_1562" data-name="Trazado 1562" class="cls-9" d="M309.459,279.053a10.688,10.688,0,0,1-2.859,1.17,10.681,10.681,0,0,1,2.592-1.665c1.484-.785,2.765-1.319,2.859-1.147S310.982,278.314,309.459,279.053Z" transform="translate(-264.673 -255.59)"/>
      <path id="Trazado_1563" data-name="Trazado 1563" class="cls-7" d="M271.857,268.38a7.592,7.592,0,0,1-.723.785,23.239,23.239,0,0,0-1.846,2.191,21.37,21.37,0,0,0-3.691,17.867,22.616,22.616,0,0,0,.825,2.741,8.641,8.641,0,0,1,.353.99.942.942,0,0,1-.134-.236c-.079-.165-.2-.393-.33-.715a18.1,18.1,0,0,1-.927-2.725,20.813,20.813,0,0,1,3.731-18.064,19.513,19.513,0,0,1,1.94-2.144c.236-.236.448-.4.581-.518A.962.962,0,0,1,271.857,268.38Z" transform="translate(-255.682 -253.658)"/>
      <path id="Trazado_1564" data-name="Trazado 1564" class="cls-7" d="M279.429,264a10.247,10.247,0,0,1-1.861,1.17,9.777,9.777,0,0,1-1.948,1.029,6.675,6.675,0,0,1,1.791-1.3,6.464,6.464,0,0,1,2.018-.9Z" transform="translate(-258.024 -252.718)"/>
      <g id="Grupo_609" data-name="Grupo 609" class="cls-11" transform="translate(21.177 16.52)">
        <path id="Trazado_1565" data-name="Trazado 1565" d="M280.18,300.64s14.726,10.3,25.5-2.623c11.239-13.493-3.864-27.347-3.864-27.347S314.289,281.532,304,296.3c-2.56,3.683-6.354,5.27-9.377,6.189C286.911,304.842,280.18,300.64,280.18,300.64Z" transform="translate(-280.18 -270.67)"/>
      </g>
      <path id="Trazado_1566" data-name="Trazado 1566" class="cls-2" d="M293.323,274.31a63.04,63.04,0,0,1,2.922,7.626,10.436,10.436,0,0,1,.573,2.882,3.825,3.825,0,0,1-.966,2.717,2.356,2.356,0,0,1-2.7.558Z" transform="translate(-261.786 -254.931)"/>
      <path id="Trazado_1567" data-name="Trazado 1567" class="cls-4" d="M290.94,283.344l1.846-13.084,1.186,13.406-1.681,1.374Z" transform="translate(-261.312 -254.062)"/>
      <g id="Grupo_610" data-name="Grupo 610" class="cls-11" transform="translate(31.332 16.198)">
        <path id="Trazado_1568" data-name="Trazado 1568" d="M293.251,270.26,293.11,282.9l1.327.77Z" transform="translate(-293.11 -270.26)"/>
      </g>
      <path id="Trazado_1569" data-name="Trazado 1569" class="cls-8" d="M294.071,287.636a2.168,2.168,0,1,1-2.835-1.162A2.168,2.168,0,0,1,294.071,287.636Z" transform="translate(-261.09 -257.506)"/>
      <path id="Trazado_1570" data-name="Trazado 1570" class="cls-9" d="M294.029,287.6a3.183,3.183,0,0,0-.314-.424,2.1,2.1,0,0,0-1.162-.73,2.042,2.042,0,1,0-.424,4.021,2.073,2.073,0,0,0,1.681-1,2.136,2.136,0,0,0,.306-1.343c-.039-.338-.11-.518-.086-.526a1.037,1.037,0,0,1,.2.51,2.176,2.176,0,0,1-.236,1.469,2.262,2.262,0,0,1-1.861,1.162,2.309,2.309,0,0,1-1.673-4.013,2.285,2.285,0,0,1,2.144-.5,2.191,2.191,0,0,1,1.21.872,1.06,1.06,0,0,1,.212.5Z" transform="translate(-261.048 -257.471)"/>
      <path id="Trazado_1571" data-name="Trazado 1571" class="cls-10" d="M293.711,288.01a1.618,1.618,0,1,1-2.113-.864A1.618,1.618,0,0,1,293.711,288.01Z" transform="translate(-261.24 -257.659)"/>
    </g>
    <g id="freepik--Video--inject-317" transform="translate(176.206 271.521)">
      <path id="Trazado_1572" data-name="Trazado 1572" class="cls-4" d="M245.037,351.387a2.207,2.207,0,0,0,.974-.652,2.074,2.074,0,0,0,.479-1.312,3.26,3.26,0,0,0-.157-.9c-.079-.322-.165-.668-.259-1.029-.723-2.929-1.767-7.139-3.055-12.323q-.471-1.956-1.005-4.092c-.173-.707-.346-1.437-.526-2.175a6.284,6.284,0,0,0-.314-1.068,1.932,1.932,0,0,0-.715-.785,1.783,1.783,0,0,0-1.045-.251,10.654,10.654,0,0,0-1.147.259l-2.4.628-5.011,1.3-22.336,5.757a1.885,1.885,0,0,0-1.343,2.128c.236.982.471,1.948.7,2.914q.707,2.906,1.382,5.718c.911,3.754,1.783,7.367,2.615,10.815l.306,1.288a2.058,2.058,0,0,0,.558,1.045,1.846,1.846,0,0,0,1.045.487,3.142,3.142,0,0,0,1.178-.173l4.712-1.217,8.5-2.16,12.315-3.142,3.354-.785.872-.2.3-.063-.291.1-.864.236-3.33.9-12.283,3.228-8.49,2.215-4.712,1.225a3.5,3.5,0,0,1-1.3.2,2.16,2.16,0,0,1-1.249-.589,2.356,2.356,0,0,1-.66-1.217c-.1-.424-.212-.848-.314-1.28L208.878,345.6l-1.39-5.718q-.353-1.461-.707-2.945a2.262,2.262,0,0,1,1.626-2.568l22.336-5.741,5.019-1.288,2.4-.613a8.12,8.12,0,0,1,1.217-.267,2.113,2.113,0,0,1,1.233.306,2.254,2.254,0,0,1,.887.9,6.282,6.282,0,0,1,.322,1.139c.181.738.353,1.469.526,2.175q.51,2.136.982,4.092c1.233,5.207,2.23,9.425,2.929,12.354.086.369.165.715.243,1.037a3.652,3.652,0,0,1,.141.935,2.2,2.2,0,0,1-.534,1.367,2.05,2.05,0,0,1-.738.518A1.2,1.2,0,0,1,245.037,351.387Z" transform="translate(-206.747 -326.455)"/>
      <path id="Trazado_1573" data-name="Trazado 1573" class="cls-4" d="M231.873,344.005l4.791,1.445-3.589,3.573-3.589,3.566-1.2-5.019-1.194-5.011Z" transform="translate(-211.113 -329.911)"/>
    </g>
    <g id="freepik--Photos--inject-317" transform="translate(124.977 231.086)">
      <rect id="Rectángulo_455" data-name="Rectángulo 455" class="cls-3" width="25.993" height="20.777" transform="translate(0 24.68) rotate(-14.452)"/>
      <path id="Trazado_1574" data-name="Trazado 1574" class="cls-9" d="M166.857,297.106h-.126l-.346.1-1.367.361-5.136,1.351-18.119,4.712.047-.079c1.571,5.969,3.346,12.817,5.231,20.066h0l-.094-.047,25.132-6.526-.047.079c-1.571-6.047-2.851-11.066-3.754-14.569-.456-1.751-.785-3.142-1.045-4.076l-.275-1.076c-.063-.243-.086-.369-.086-.369l.094.353c.071.243.165.6.283,1.06l1.076,4.053c.919,3.511,2.238,8.537,3.833,14.592v.055H172.1l-25.132,6.55h-.071v-.079h0l-5.223-20.074v-.063h.063l18.181-4.712,5.136-1.319,1.351-.346.346-.086Z" transform="translate(-141.551 -279.702)"/>
      <rect id="Rectángulo_456" data-name="Rectángulo 456" class="cls-4" width="24.119" height="18.134" transform="matrix(0.968, -0.252, 0.252, 0.968, 1.39, 24.968)"/>
      <path id="Trazado_1575" data-name="Trazado 1575" class="cls-4" d="M149.1,325.549l5.317-13.029,6.825,5.513,2.482-4.539,8.726,5.985Z" transform="translate(-143.145 -283.029)"/>
      <path id="Trazado_1576" data-name="Trazado 1576" class="cls-4" d="M163.567,308.05a1.908,1.908,0,1,1-.894-1.173A1.9,1.9,0,0,1,163.567,308.05Z" transform="translate(-145.447 -281.763)"/>
      <g id="Grupo_611" data-name="Grupo 611" class="cls-5" transform="translate(5.955 29.491)">
        <path id="Trazado_1577" data-name="Trazado 1577" d="M149.1,325.549l5.317-13.029,6.825,5.513,2.482-4.539,8.726,5.985Z" transform="translate(-149.1 -312.52)"/>
      </g>
      <g id="Grupo_612" data-name="Grupo 612" class="cls-5" transform="translate(14.378 24.859)">
        <path id="Trazado_1578" data-name="Trazado 1578" d="M163.567,308.05a1.908,1.908,0,1,1-.894-1.173A1.9,1.9,0,0,1,163.567,308.05Z" transform="translate(-159.825 -306.622)"/>
      </g>
      <rect id="Rectángulo_457" data-name="Rectángulo 457" class="cls-3" width="39.206" height="31.344" transform="translate(12.674 2.805) rotate(-4.03)"/>
      <path id="Trazado_1579" data-name="Trazado 1579" class="cls-9" d="M196.735,274.994h-.188l-.55.039-2.128.165-8,.589-28.274,2.042.094-.11c.66,9.307,1.414,19.98,2.215,31.266h0l-.118-.1,39.1-2.741-.086.1c-.644-9.425-1.178-17.223-1.571-22.682-.181-2.725-.322-4.869-.424-6.338-.047-.723-.079-1.288-.1-1.673a3.608,3.608,0,0,1,0-.581l.047.565c0,.377.071.927.126,1.649.11,1.461.267,3.6.471,6.283.4,5.5.966,13.3,1.649,22.729v.094H198.9l-39.1,2.78h-.118v-.118h0c-.785-11.286-1.571-21.991-2.191-31.266v-.1h.1l28.274-1.94,7.979-.534,2.1-.141h.542Z" transform="translate(-144.946 -274.97)"/>
      <rect id="Rectángulo_458" data-name="Rectángulo 458" class="cls-4" width="36.449" height="27.394" transform="translate(14.152 4.677) rotate(-4.03)"/>
      <path id="Trazado_1580" data-name="Trazado 1580" class="cls-4" d="M162.01,310.833l11.5-17.883,8.616,10.069,4.94-6.055,11.3,11.3Z" transform="translate(-145.916 -278.829)"/>
      <path id="Trazado_1581" data-name="Trazado 1581" class="cls-4" d="M189.171,288.56A2.874,2.874,0,1,1,186.1,285.9a2.874,2.874,0,0,1,3.071,2.662Z" transform="translate(-150.513 -277.314)"/>
      <g id="Grupo_613" data-name="Grupo 613" class="cls-5" transform="translate(16.094 14.121)">
        <path id="Trazado_1582" data-name="Trazado 1582" d="M162.01,310.833l11.5-17.883,8.616,10.069,4.94-6.055,11.3,11.3Z" transform="translate(-162.01 -292.95)"/>
      </g>
      <g id="Grupo_614" data-name="Grupo 614" class="cls-5" transform="translate(32.916 8.577)">
        <path id="Trazado_1583" data-name="Trazado 1583" d="M189.171,288.56A2.874,2.874,0,1,1,186.1,285.9a2.874,2.874,0,0,1,3.071,2.662Z" transform="translate(-183.429 -285.891)"/>
      </g>
    </g>
    <g id="freepik--light-bulb--inject-317" transform="translate(79.274 270.784)">
      <path id="Trazado_1584" data-name="Trazado 1584" class="cls-4" d="M106.082,333.75a11.631,11.631,0,1,0-12.707,14.922l.872,2.8,9.731-3.032s-.424-1.571-.84-3a11.639,11.639,0,0,0,2.945-11.694Z" transform="translate(-83.326 -325.517)"/>
      <path id="Trazado_1585" data-name="Trazado 1585" class="cls-9" d="M102.324,352.657v-.134a.925.925,0,0,0-.079-.416c-.063-.369-.165-.9-.275-1.571s-.228-1.571-.306-2.552a16.61,16.61,0,0,1,.047-3.4,10.706,10.706,0,0,1,.393-1.948,2.1,2.1,0,0,1,.55-.919,1.2,1.2,0,0,1,1.06-.291.809.809,0,0,1,.62.911,1.634,1.634,0,0,1-.628,1.005,3.189,3.189,0,0,1-4.5-.785,2.356,2.356,0,0,1-.463-1.257,1.037,1.037,0,0,1,.785-1.084.785.785,0,0,1,.691.212,1.044,1.044,0,0,1,.3.66,2.286,2.286,0,0,1-.432,1.343A3.448,3.448,0,0,1,97.729,344a3.032,3.032,0,0,1-2.647-.927,1.759,1.759,0,0,1-.495-1.319.9.9,0,0,1,.338-.644.856.856,0,0,1,.7-.149,1.076,1.076,0,0,1,.62.338,1.861,1.861,0,0,1,.369.589,3.189,3.189,0,0,1,.228,1.319,3.464,3.464,0,0,1-.982,2.356,3.511,3.511,0,0,1-2.2,1.029,1.83,1.83,0,0,1-1.17-.212.911.911,0,0,1-.393-1.052.785.785,0,0,1,.424-.4,1.162,1.162,0,0,1,.565-.063,1.7,1.7,0,0,1,.911.55c.471.518.872,1.029,1.272,1.524,1.571,1.956,2.8,3.6,3.613,4.752.408.573.723,1.021.927,1.327l.243.353.071.118a.911.911,0,0,1-.086-.11l-.251-.346c-.22-.3-.534-.746-.95-1.312-.832-1.131-2.05-2.772-3.644-4.712-.4-.487-.785-1.005-1.272-1.508a1.516,1.516,0,0,0-.856-.51.7.7,0,0,0-.5,1.3,1.752,1.752,0,0,0,1.084.2,3.424,3.424,0,0,0,2.121-1.005,3.354,3.354,0,0,0,.723-3.526,1.272,1.272,0,0,0-.887-.84.707.707,0,0,0-.589.126.785.785,0,0,0-.283.542A1.626,1.626,0,0,0,95.193,343a2.859,2.859,0,0,0,2.513.88,3.33,3.33,0,0,0,2.262-1.492,2.144,2.144,0,0,0,.408-1.257.9.9,0,0,0-.259-.565.6.6,0,0,0-.558-.181.785.785,0,0,0-.495.353,1.052,1.052,0,0,0-.165.6,2.356,2.356,0,0,0,.44,1.186,3.142,3.142,0,0,0,2.05,1.312,3.055,3.055,0,0,0,2.262-.526,1.524,1.524,0,0,0,.589-.927.683.683,0,0,0-.526-.785,1.076,1.076,0,0,0-.966.259,2.1,2.1,0,0,0-.518.872,10.77,10.77,0,0,0-.4,1.924,17.727,17.727,0,0,0-.063,3.385c.071.99.188,1.846.283,2.545s.2,1.233.251,1.571l.063.416Z" transform="translate(-85.2 -328.669)"/>
      <path id="Trazado_1586" data-name="Trazado 1586" class="cls-9" d="M106.878,356.979l-8.349,2.6a.66.66,0,0,1-.785-.432h0a.644.644,0,0,1,.432-.785l8.356-2.607a.644.644,0,0,1,.785.432h0a.652.652,0,0,1-.44.793Z" transform="translate(-86.416 -332.001)"/>
      <path id="Trazado_1587" data-name="Trazado 1587" class="cls-9" d="M107.187,357.99,98.862,360.6a.66.66,0,1,0,.393,1.257l.919-.291,1.908,1.916a.84.84,0,0,0,.848.2l2.984-.927a.848.848,0,0,0,.581-.66l.463-2.678.62-.2a.655.655,0,0,0-.393-1.249Z" transform="translate(-86.552 -332.478)"/>
      <g id="Grupo_615" data-name="Grupo 615" class="cls-5" transform="translate(1.124 3.433)">
        <path id="Trazado_1588" data-name="Trazado 1588" class="cls-7" d="M85.953,333.259a8.521,8.521,0,0,1,1.759-2.176,6.2,6.2,0,0,1,1.571-1.029c.408-.173.66-.2.707-.126a19.561,19.561,0,0,1-1.571,1.861,9.535,9.535,0,0,0-1.374,10.257c.581,1.312,1.155,2.05,1,2.2s-.306,0-.652-.306a6.283,6.283,0,0,1-1.2-1.4,8.467,8.467,0,0,1-1.139-2.552,9.228,9.228,0,0,1-.22-3.456" transform="translate(-84.758 -329.888)"/>
      </g>
      <g id="Grupo_616" data-name="Grupo 616" class="cls-5" transform="translate(7.56 1.649)">
        <path id="Trazado_1589" data-name="Trazado 1589" class="cls-7" d="M94.561,329.088c-.707.212-1.39.212-1.571-.134-.094-.181,0-.416.181-.652a2.23,2.23,0,0,1,.974-.581,2.176,2.176,0,0,1,1.131-.055c.3.079.487.236.518.424" transform="translate(-92.953 -327.616)"/>
      </g>
      <path id="Trazado_1590" data-name="Trazado 1590" class="cls-10" d="M107.527,363.545h-.636a5.033,5.033,0,0,0-1.469.267,4.822,4.822,0,0,0-1.327.7c-.306.228-.479.4-.495.385a1.7,1.7,0,0,1,.432-.463,4.257,4.257,0,0,1,1.343-.785,4.115,4.115,0,0,1,1.524-.228A1.838,1.838,0,0,1,107.527,363.545Z" transform="translate(-87.678 -333.651)"/>
      <path id="Trazado_1591" data-name="Trazado 1591" class="cls-10" d="M107.5,359.889c0,.039-1.492.534-3.354,1.115s-3.385,1.021-3.393.982,1.484-.534,3.354-1.115S107.481,359.85,107.5,359.889Z" transform="translate(-87.066 -332.893)"/>
      <path id="Trazado_1592" data-name="Trazado 1592" class="cls-10" d="M107.54,361.36a5.076,5.076,0,0,1-.785.338c-.495.188-1.194.44-1.971.691s-1.477.463-1.995.6a4.383,4.383,0,0,1-.848.2,7.14,7.14,0,0,1,.785-.291l1.987-.644,1.979-.652A4.953,4.953,0,0,1,107.54,361.36Z" transform="translate(-87.321 -333.209)"/>
    </g>
    <g id="freepik--Character--inject-317" transform="translate(64.444 70.498)">
      <path id="Trazado_1593" data-name="Trazado 1593" class="cls-4" d="M403.855,268.179c-8.639-8-23.954-7.068-31.557,1.94-2.992,3.55-5.026,8.2-9.142,10.351-6.283,3.306-13.948-.864-21.048-.259-8.325.707-15.158,9.158-14.137,17.443.463,3.738,2.238,7.72.479,11.05-2.238,4.249-8.718,4.422-11.443,8.372-2.458,3.573-.542,8.843,3.032,11.309s8.176,2.772,12.511,2.576,8.733-.785,12.959.157c4.657,1.052,8.639,3.927,13.108,5.686,10.658,4.272,23.137,1.893,32.986-3.974s17.514-14.836,24.174-24.19" transform="translate(-118.413 -111.754)"/>
      <g id="Grupo_617" data-name="Grupo 617" class="cls-12" transform="translate(197.489 150.97)">
        <path id="Trazado_1594" data-name="Trazado 1594" class="cls-7" d="M403.855,268.179c-8.639-8-23.954-7.068-31.557,1.94-2.992,3.55-5.026,8.2-9.142,10.351-6.283,3.306-13.948-.864-21.048-.259-8.325.707-15.158,9.158-14.137,17.443.463,3.738,2.238,7.72.479,11.05-2.238,4.249-8.718,4.422-11.443,8.372-2.458,3.573-.542,8.843,3.032,11.309s8.176,2.772,12.511,2.576,8.733-.785,12.959.157c4.657,1.052,8.639,3.927,13.108,5.686,10.658,4.272,23.137,1.893,32.986-3.974s17.514-14.836,24.174-24.19" transform="translate(-315.902 -262.725)"/>
      </g>
      <path id="Trazado_1595" data-name="Trazado 1595" class="cls-4" d="M409.575,282.287c-7.068-6.9-20.1-5.93-26.035,1.932-3.621,4.8-5.7,12.134-11.663,12.935-4.037.55-7.854-2.49-11.93-2.176-5.419.408-8.694,7.013-7.3,12.26s6.008,9.024,10.854,11.49c16.784,8.521,39.151,4.013,51.332-10.343" transform="translate(-126.23 -114.961)"/>
      <path id="Trazado_1596" data-name="Trazado 1596" class="cls-13" d="M626.457,300.09l-9.087-12.88,11.82-8.38,8.278,16.815L627,299.98" transform="translate(-183.114 -115.211)"/>
      <path id="Trazado_1597" data-name="Trazado 1597" class="cls-4" d="M639.319,297.31l6.432,11.6s13.948-2.639,15.346-.613L639.06,321.57,628.3,303.907Z" transform="translate(-185.46 -119.177)"/>
      <g id="Grupo_618" data-name="Grupo 618" class="cls-14" transform="translate(452.624 192.576)">
        <path id="Trazado_1598" data-name="Trazado 1598" class="cls-7" d="M641.026,316.006a1.052,1.052,0,0,0,0,1.406,1.021,1.021,0,0,0,1.39,0,1.115,1.115,0,0,0,0-1.492,1.052,1.052,0,0,0-1.445.149" transform="translate(-640.757 -315.699)"/>
      </g>
      <g id="Grupo_619" data-name="Grupo 619" class="cls-14" transform="translate(452.586 188.516)">
        <path id="Trazado_1599" data-name="Trazado 1599" class="cls-7" d="M641.723,324.408l-1.013-1.822,21.512-12.04s1.241-.165,1.571.589Z" transform="translate(-640.71 -310.531)"/>
      </g>
      <path id="Trazado_1600" data-name="Trazado 1600" class="cls-9" d="M650.5,311.654c.055.11-.448.487-.785,1.147s-.338,1.288-.456,1.312-.346-.707.063-1.5S650.465,311.544,650.5,311.654Z" transform="translate(-189.923 -122.251)"/>
      <path id="Trazado_1601" data-name="Trazado 1601" class="cls-9" d="M654.341,311.107c.086.086-.267.55-.361,1.225s.094,1.225,0,1.28-.542-.5-.416-1.343S654.279,311.021,654.341,311.107Z" transform="translate(-190.878 -122.136)"/>
      <path id="Trazado_1602" data-name="Trazado 1602" class="cls-9" d="M658.183,312.985c-.086.079-.558-.369-.636-1.123s.283-1.3.377-1.233,0,.565.055,1.186S658.277,312.906,658.183,312.985Z" transform="translate(-191.735 -122.035)"/>
      <path id="Trazado_1603" data-name="Trazado 1603" class="cls-9" d="M648.04,308.481c0,.126-.573.275-1.154.683s-.943.887-1.052.825.11-.715.785-1.186S648.04,308.371,648.04,308.481Z" transform="translate(-189.217 -121.559)"/>
      <path id="Trazado_1604" data-name="Trazado 1604" class="cls-9" d="M645.794,305.417a2.619,2.619,0,0,1-1.107.66,5.608,5.608,0,0,1-2.207.385,1.405,1.405,0,0,1-.487-.055.534.534,0,0,1-.393-.542.691.691,0,0,1,.322-.534,1.525,1.525,0,0,1,.448-.189,4.715,4.715,0,0,1,.785-.181,4.588,4.588,0,0,1,1.422.055,2.181,2.181,0,0,1,1.194.51c-.023.047-.479-.126-1.241-.2a5.081,5.081,0,0,0-1.319.039,4.516,4.516,0,0,0-.785.188c-.275.079-.471.2-.471.338s0,.071.1.11a1.481,1.481,0,0,0,.361,0h.785a7.7,7.7,0,0,0,1.319-.236A10.483,10.483,0,0,1,645.794,305.417Z" transform="translate(-188.314 -120.813)"/>
      <path id="Trazado_1605" data-name="Trazado 1605" class="cls-9" d="M646.43,304.737c0,.039-.471-.22-.935-.9a4.051,4.051,0,0,1-.573-1.3,4.007,4.007,0,0,1-.126-.84,1.076,1.076,0,0,1,.369-.982.589.589,0,0,1,.644,0,1.507,1.507,0,0,1,.361.338,2.9,2.9,0,0,1,.448.738,3.009,3.009,0,0,1,.212,1.429,1.784,1.784,0,0,1-.487,1.194,11.294,11.294,0,0,0,.181-1.147,2.954,2.954,0,0,0-.275-1.249,2.605,2.605,0,0,0-.408-.628c-.173-.212-.377-.346-.448-.267a.715.715,0,0,0-.165.589,3.38,3.38,0,0,0,.086.785,4.5,4.5,0,0,0,.448,1.233C646.124,304.352,646.477,304.682,646.43,304.737Z" transform="translate(-188.998 -119.889)"/>
      <path id="Trazado_1606" data-name="Trazado 1606" class="cls-9" d="M586.09,242.259l28.227,44.358,15.433-10.493-26-53.445" transform="translate(-176.401 -103.16)"/>
      <path id="Trazado_1607" data-name="Trazado 1607" class="cls-10" d="M588.53,235.211c.118.047-.73,1.854-1.131,4.233s-.236,4.359-.361,4.375a12.354,12.354,0,0,1,1.492-8.639Z" transform="translate(-176.556 -105.843)"/>
      <path id="Trazado_1608" data-name="Trazado 1608" class="cls-10" d="M585.251,235.38c.118,0,0,1.948.322,4.3s.911,4.194.785,4.233a14.592,14.592,0,0,1-1.115-8.537Z" transform="translate(-176.174 -105.886)"/>
      <path id="Trazado_1609" data-name="Trazado 1609" class="cls-9" d="M436.435,245.807l-19.36-5.977c-23.357,29.742-21.794,62.422,15.8,81.766l20.883-23.389Z" transform="translate(-136.816 -106.841)"/>
      <path id="Trazado_1610" data-name="Trazado 1610" class="cls-2" d="M443.629,232.471c-12.393,7.233-18.559,22.462-17.051,37.384,1.657,16.352,12.464,32.295,32.271,36.7L592,279.939a40.463,40.463,0,0,0,30.92-50.963h0a40.455,40.455,0,0,0-48.332-28.046Z" transform="translate(-142.118 -98.248)"/>
      <path id="Trazado_1611" data-name="Trazado 1611" class="cls-9" d="M443.606,232.416l1.233-.314,3.636-.9,14-3.416L514.016,215.3l35.593-8.639,19.839-4.791,5.144-1.233,2.647-.5c.44-.086.88-.181,1.327-.251l1.351-.118c.9-.071,1.806-.181,2.71-.228h2.749a21.551,21.551,0,0,1,2.749.189l1.382.141.691.079.683.134,2.741.558c.911.212,1.8.518,2.7.785.448.141.9.267,1.351.424l1.312.526,1.312.542a9.694,9.694,0,0,1,1.3.581l2.537,1.319c.84.463,1.626,1.021,2.443,1.571.4.267.785.51,1.2.785l1.139.9,1.147.9.573.448.526.5A40.886,40.886,0,0,1,623.4,229.966a40.471,40.471,0,0,1-1.194,24.276,40.879,40.879,0,0,1-15.441,19.634,39.919,39.919,0,0,1-9.637,4.767,81.966,81.966,0,0,1-10.351,2.427l-20.42,4.076-38.986,7.838L458.9,306.642h-.071a48.944,48.944,0,0,1-10.108-3.589A39.583,39.583,0,0,1,433.868,290.1a45.6,45.6,0,0,1-4.32-8c-.283-.675-.5-1.374-.785-2.05a18.067,18.067,0,0,1-.668-2.034c-.2-.683-.385-1.359-.573-2.034l-.424-2.018a17.851,17.851,0,0,1-.353-2c-.086-.66-.181-1.319-.267-1.971s-.094-1.3-.141-1.948-.086-1.28-.079-1.908a42.526,42.526,0,0,1,1.932-13.618,38.852,38.852,0,0,1,4.712-9.966,32.1,32.1,0,0,1,5.278-6.157c.408-.361.785-.73,1.154-1.029l1.084-.825.911-.7.785-.51,1.453-.911-1.429.95-.785.518-.911.707-1.037.825c-.369.306-.738.668-1.147,1.037a32.1,32.1,0,0,0-5.223,6.165,38.664,38.664,0,0,0-4.673,9.943,42.708,42.708,0,0,0-1.893,13.563,15.453,15.453,0,0,0,.079,1.9c.079.636.079,1.288.157,1.94s.173,1.3.267,1.963a17.893,17.893,0,0,0,.353,1.987c.141.66.283,1.335.424,2.011s.385,1.335.573,2.018a19.7,19.7,0,0,0,.668,2.026c.251.668.471,1.359.785,2.026a45.293,45.293,0,0,0,4.3,7.94,44.537,44.537,0,0,0,6.362,7.171,43.984,43.984,0,0,0,8.388,5.67,48.237,48.237,0,0,0,10.037,3.55H458.8l68.446-13.76,39.018-7.807,20.42-4.084a81.3,81.3,0,0,0,10.3-2.419,39.213,39.213,0,0,0,9.535-4.712,40.47,40.47,0,0,0,15.291-19.462,40.054,40.054,0,0,0,1.186-24.033A40.5,40.5,0,0,0,610.9,210.205l-.526-.495-.542-.385-1.131-.887-1.131-.887c-.377-.291-.785-.526-1.194-.785-.785-.5-1.571-1.06-2.411-1.516l-2.513-1.312a13.478,13.478,0,0,0-1.288-.581l-1.3-.526-1.3-.534c-.44-.149-.887-.275-1.335-.408-.9-.259-1.775-.573-2.678-.785l-2.71-.55-.675-.141-.691-.071L588.1,200.2a21.208,21.208,0,0,0-2.725-.2h-2.717c-.9.047-1.8.157-2.686.228l-1.343.118c-.44.063-.88.157-1.319.243l-2.615.495-5.168,1.17L549.7,207.025l-35.6,8.584-51.56,12.33-14.027,3.377-3.652.864Z" transform="translate(-142.095 -98.194)"/>
      <path id="Trazado_1612" data-name="Trazado 1612" class="cls-4" d="M462.931,332.336,445.37,372.265s82.857-7.987,79.323-52.275Z" transform="translate(-146.199 -124.045)"/>
      <path id="Trazado_1613" data-name="Trazado 1613" class="cls-4" d="M503.468,214.952S463.625,176.3,413,192.576l27.779,37.486Z" transform="translate(-139.252 -95.84)"/>
      <path id="Trazado_1614" data-name="Trazado 1614" class="cls-4" d="M620.8,200.024c17.1,12.566,27.551,61.7,19.313,77.3,48.458-14.176,58.621-55.762,58.621-55.762C663.705,188.943,620.8,200.024,620.8,200.024Z" transform="translate(-183.85 -97.908)"/>
      <path id="Trazado_1615" data-name="Trazado 1615" class="cls-10" d="M432.655,312.46c.079.071-2.584,3.259-5.953,7.116a91.455,91.455,0,0,1-6.283,6.841c-.11-.079,2.576-3.259,5.953-7.116S432.577,312.381,432.655,312.46Z" transform="translate(-140.844 -122.428)"/>
      <path id="Trazado_1616" data-name="Trazado 1616" class="cls-9" d="M661.292,227.93s-.094.181-.3.526l-.919,1.524-1.5,2.482c-.3.487-.62,1.013-.958,1.571l-1.209,1.728c-.856,1.217-1.791,2.584-2.851,4.045l-3.7,4.587c-.7.785-1.453,1.571-2.215,2.427s-1.516,1.72-2.356,2.537c-1.743,1.649-3.534,3.448-5.623,5.1a75.394,75.394,0,0,1-14.5,9.582,72.252,72.252,0,0,1-8.922,3.817c-1.571.573-3.189,1.068-4.783,1.649a46.45,46.45,0,0,1-5.066,1.3c-13.728,3.039-28.863,6.149-44.767,9.424-31.784,6.566-60.568,12.425-81.412,16.634l-24.692,4.987-6.715,1.327-1.751.33c-.393.079-.6.1-.6.1l.589-.141,1.744-.377,6.7-1.4,24.661-5.089,81.4-16.752c15.88-3.3,31.022-6.4,44.767-9.425a48.2,48.2,0,0,0,5.011-1.272c1.626-.6,3.236-1.076,4.8-1.649a72.842,72.842,0,0,0,8.891-3.778,76.067,76.067,0,0,0,14.474-9.5c2.081-1.649,3.88-3.432,5.615-5.074.88-.785,1.626-1.7,2.4-2.513s1.524-1.618,2.223-2.411l3.715-4.555c1.068-1.453,2.011-2.812,2.882-4.013l1.217-1.72.974-1.571,1.531-2.458c.416-.652.73-1.154.95-1.508S661.292,227.93,661.292,227.93Z" transform="translate(-146.433 -104.287)"/>
      <path id="Trazado_1617" data-name="Trazado 1617" class="cls-9" d="M554.112,296.375a1.2,1.2,0,0,1-.141-.157l-.385-.487-1.437-1.885-1.037-1.374c-.361-.51-.723-1.092-1.131-1.7-.785-1.225-1.775-2.592-2.662-4.21l-1.453-2.513c-.5-.872-.942-1.83-1.437-2.8-1.029-1.916-1.916-4.06-2.9-6.283a92.849,92.849,0,0,1-6.88-30.9c-.063-2.443-.173-4.759-.055-6.935.047-1.084,0-2.136.118-3.142s.173-1.971.251-2.89c.118-1.846.424-3.495.62-4.948.118-.723.2-1.4.314-2.018s.243-1.17.353-1.681c.212-.99.377-1.759.5-2.356.055-.243.1-.44.141-.6s.055-.2.063-.2a1.464,1.464,0,0,1,0,.212,5.084,5.084,0,0,1-.1.6l-.424,2.356c-.094.51-.2,1.068-.322,1.681s-.173,1.3-.275,2.026c-.173,1.453-.456,3.094-.558,4.932-.071.919-.149,1.885-.22,2.882s-.063,2.05-.094,3.142c-.1,2.168,0,4.477.086,6.911a94.308,94.308,0,0,0,6.825,30.787c.966,2.23,1.838,4.375,2.851,6.283.495.966.927,1.916,1.414,2.8l1.429,2.513c.864,1.626,1.822,3,2.6,4.233.4.62.785,1.2,1.107,1.72s.7.966,1,1.39c.589.785,1.045,1.469,1.382,1.932l.346.51a.877.877,0,0,1,.11.173Z" transform="translate(-165.338 -102.432)"/>
      <path id="Trazado_1618" data-name="Trazado 1618" class="cls-4" d="M489.012,264.97,405.5,282.249s-.369,8.16,1.681,8.223c1.712.055,63.8-11.145,83.933-14.789a5.435,5.435,0,0,0,4.163-7.147h0A5.5,5.5,0,0,0,489.012,264.97Z" transform="translate(-137.637 -112.213)"/>
      <ellipse id="Elipse_173" data-name="Elipse 173" class="cls-8" cx="18.551" cy="19.956" rx="18.551" ry="19.956" transform="translate(395.346 163.542) rotate(-89.92)"/>
      <path id="Trazado_1619" data-name="Trazado 1619" class="cls-9" d="M607.738,250.08a2.029,2.029,0,0,1,0-.314c0-.228-.047-.526-.071-.911a3.492,3.492,0,0,0-.047-.675c-.047-.251-.086-.51-.141-.785s-.1-.6-.157-.927-.188-.675-.291-1.045a18.071,18.071,0,0,0-.856-2.356,19.069,19.069,0,0,0-6.621-7.783,20.333,20.333,0,0,0-8.184-3.267,18.851,18.851,0,0,0-2.419-.251c-.416,0-.833-.055-1.249-.047l-1.264.063H585.8l-.644.086-1.288.188-1.28.306-.652.149-.628.22a19.634,19.634,0,0,0-9.189,6.2,17.278,17.278,0,0,0,0,22.2,19.635,19.635,0,0,0,9.165,6.228l.636.22.652.157,1.28.306,1.288.189.636.094h.644l1.264.063c.416,0,.833,0,1.241-.039a18.543,18.543,0,0,0,2.419-.251,20.035,20.035,0,0,0,8.129-3.251,17.891,17.891,0,0,0,7.516-10.139c.094-.369.212-.707.283-1.037s.118-.644.165-.935.1-.55.141-.785,0-.471.047-.668q.047-.581.071-.919a2.308,2.308,0,0,1,.039-.306,1.862,1.862,0,0,1,0,.314v1.594a4.793,4.793,0,0,1-.126.785c-.047.267-.094.6-.141.942s-.181.675-.275,1.052a17.446,17.446,0,0,1-.84,2.411,19.065,19.065,0,0,1-1.469,2.67,19.3,19.3,0,0,1-5.191,5.254,20.42,20.42,0,0,1-8.3,3.338,19.3,19.3,0,0,1-2.458.259c-.416,0-.84.055-1.264.047l-1.28-.055h-.652l-.652-.094-1.312-.188-1.3-.306-.66-.157-.644-.22a20,20,0,0,1-9.37-6.338,17.639,17.639,0,0,1,0-22.705,20.066,20.066,0,0,1,9.424-6.283l.644-.212.66-.157,1.312-.306,1.312-.189.644-.086h.652l1.288-.055c.424,0,.848.039,1.264.055a17.969,17.969,0,0,1,2.458.267,20.325,20.325,0,0,1,8.223,3.306,19.162,19.162,0,0,1,5.176,5.27,16.375,16.375,0,0,1,2.3,5.089c.094.369.2.715.267,1.052s.1.652.141.942.086.558.126.785a3.88,3.88,0,0,1,0,.675v.919A1.945,1.945,0,0,1,607.738,250.08Z" transform="translate(-172.446 -105.027)"/>
      <path id="Trazado_1620" data-name="Trazado 1620" class="cls-4" d="M276.209,332.293c-2.309,1.021-4.94.9-7.445.62s-5.042-.7-7.516-.212c-3.833.785-7.21,3.644-11.113,3.44-5.411-.283-8.639-6.11-13.422-8.639-5.812-3.142-13.611-1.178-18.291-6.958a11.184,11.184,0,0,1-1.123-12.378c3.4-6.134,11.254-7.155,17.38-4.948,5.27,1.893,9.582,5.733,13.689,9.535,1.4,1.3,2.8,2.6,4.241,3.848a22.469,22.469,0,0,0,16.909,5.333h0a11.42,11.42,0,0,1,8.2,2.356,4.8,4.8,0,0,1,1.429,1.877h0a4.61,4.61,0,0,1,.416,2.262C279.374,330.354,278.078,331.469,276.209,332.293Z" transform="translate(-96.958 -120.217)"/>
      <g id="Grupo_620" data-name="Grupo 620" class="cls-12" transform="translate(118.978 181.936)">
        <path id="Trazado_1621" data-name="Trazado 1621" class="cls-7" d="M276.209,332.293c-2.309,1.021-4.94.9-7.445.62s-5.042-.7-7.516-.212c-3.833.785-7.21,3.644-11.113,3.44-5.411-.283-8.639-6.11-13.422-8.639-5.812-3.142-13.611-1.178-18.291-6.958a11.184,11.184,0,0,1-1.123-12.378c3.4-6.134,11.254-7.155,17.38-4.948,5.27,1.893,9.582,5.733,13.689,9.535,1.4,1.3,2.8,2.6,4.241,3.848a22.469,22.469,0,0,0,16.909,5.333h0a11.42,11.42,0,0,1,8.2,2.356,4.8,4.8,0,0,1,1.429,1.877h0a4.61,4.61,0,0,1,.416,2.262C279.374,330.354,278.078,331.469,276.209,332.293Z" transform="translate(-215.936 -302.153)"/>
      </g>
      <path id="Trazado_1622" data-name="Trazado 1622" class="cls-4" d="M168.362,336.583c-1.571-2.725-6.283-2.788-9.126-1.406s-4.775,4.021-6.684,6.511-4.068,5.026-7.068,6.047c-3.2,1.092-6.676.22-10.053.243s-7.328,1.641-7.854,4.971a6.236,6.236,0,0,0,1.681,5.372,15.386,15.386,0,0,0,4.649,3.016,38.2,38.2,0,0,0,14.137,2.765A20.333,20.333,0,0,0,164,355.911c3.66-5.011,8.568-13.728,4.272-19.328" transform="translate(-77.976 -127.114)"/>
      <g id="Grupo_621" data-name="Grupo 621" class="cls-12" transform="translate(49.516 207.176)">
        <path id="Trazado_1623" data-name="Trazado 1623" class="cls-7" d="M168.362,336.583c-1.571-2.725-6.283-2.788-9.126-1.406s-4.775,4.021-6.684,6.511-4.068,5.026-7.068,6.047c-3.2,1.092-6.676.22-10.053.243s-7.328,1.641-7.854,4.971a6.236,6.236,0,0,0,1.681,5.372,15.386,15.386,0,0,0,4.649,3.016,38.2,38.2,0,0,0,14.137,2.765A20.333,20.333,0,0,0,164,355.911c3.66-5.011,8.568-13.728,4.272-19.328" transform="translate(-127.492 -334.29)"/>
      </g>
      <path id="Trazado_1624" data-name="Trazado 1624" class="cls-4" d="M69.224,357.563a8.961,8.961,0,0,0-3.668,2.458,4.422,4.422,0,0,0-.935,4.17,2.977,2.977,0,0,0,3.542,1.916,14.6,14.6,0,0,1,2.136-1c1.241-.2,2.356.864,3.566,1.084,1.846.322,3.581-1.531,3.566-3.409s-1.571-3.291-3.055-4.4a6.071,6.071,0,0,0-5.152-.825" transform="translate(-64.444 -132.056)"/>
      <g id="Grupo_622" data-name="Grupo 622" class="cls-12" transform="translate(0 225.261)">
        <path id="Trazado_1625" data-name="Trazado 1625" class="cls-7" d="M69.224,357.563a8.961,8.961,0,0,0-3.668,2.458,4.422,4.422,0,0,0-.935,4.17,2.977,2.977,0,0,0,3.542,1.916,14.6,14.6,0,0,1,2.136-1c1.241-.2,2.356.864,3.566,1.084,1.846.322,3.581-1.531,3.566-3.409s-1.571-3.291-3.055-4.4a6.071,6.071,0,0,0-5.152-.825" transform="translate(-64.444 -357.317)"/>
      </g>
      <path id="Trazado_1626" data-name="Trazado 1626" class="cls-10" d="M490.057,192.327c-6.417-.314-9.582,4.524-13.171,5.5a17.3,17.3,0,0,1-10.956-.251c-4.477-1.822-7.532-5.945-11.451-8.765a22.92,22.92,0,0,0-27.041.785c-.173,4.28,3.487,7.665,7.029,10.069s13.351,5.859,14.632,9.959c.942,3.063-5.67,5.639-4.005,8.38s7.171,2.466,10.21,1.94c19.179-3.3,12.448,2.568,18.386,2.026,0,0,12.433-3.142,22.179-4.759" transform="translate(-142.35 -95.025)"/>
      <path id="Trazado_1627" data-name="Trazado 1627" class="cls-13" d="M587.778,332.641l-6.228-14.475,13.3-5.757,4.626,18.158-11.129,2.073" transform="translate(-175.427 -122.418)"/>
      <path id="Trazado_1628" data-name="Trazado 1628" class="cls-4" d="M601.04,332.53l3.927,12.684s14.192.3,15.142,2.576l-24.347,8.427-6.872-19.509Z" transform="translate(-177.002 -126.736)"/>
      <g id="Grupo_623" data-name="Grupo 623" class="cls-14" transform="translate(419.617 219.871)">
        <path id="Trazado_1629" data-name="Trazado 1629" class="cls-7" d="M599.162,350.608a1.052,1.052,0,0,0-.291,1.374,1,1,0,0,0,1.351.306,1.107,1.107,0,0,0,.306-1.453,1.044,1.044,0,0,0-1.445-.165" transform="translate(-598.731 -350.453)"/>
      </g>
      <g id="Grupo_624" data-name="Grupo 624" class="cls-14" transform="translate(418.148 220.151)">
        <path id="Trazado_1630" data-name="Trazado 1630" class="cls-7" d="M597.473,360.14l-.613-1.995,23.561-7.335s1.249.094,1.39.9Z" transform="translate(-596.86 -350.81)"/>
      </g>
      <path id="Trazado_1631" data-name="Trazado 1631" class="cls-9" d="M609.279,348.34c0,.118-.542.377-.99.958s-.6,1.194-.723,1.186-.181-.785.377-1.453S609.264,348.222,609.279,348.34Z" transform="translate(-180.993 -130.121)"/>
      <path id="Trazado_1632" data-name="Trazado 1632" class="cls-9" d="M613.167,348.554c.063.11-.377.487-.6,1.131s-.165,1.21-.283,1.249-.432-.613-.133-1.406S613.128,348.444,613.167,348.554Z" transform="translate(-181.966 -130.17)"/>
      <path id="Trazado_1633" data-name="Trazado 1633" class="cls-9" d="M616.56,351.164c-.1.063-.471-.471-.393-1.233s.55-1.2.628-1.123-.133.55-.188,1.17S616.678,351.109,616.56,351.164Z" transform="translate(-182.854 -130.228)"/>
      <path id="Trazado_1634" data-name="Trazado 1634" class="cls-9" d="M607.549,344.747c0,.126-.613.149-1.272.432s-1.1.668-1.2.589.259-.675,1.037-1S607.573,344.638,607.549,344.747Z" transform="translate(-180.472 -129.325)"/>
      <path id="Trazado_1635" data-name="Trazado 1635" class="cls-9" d="M606.018,341.277a2.356,2.356,0,0,1-1.225.416,6.125,6.125,0,0,1-1.406.055,6.428,6.428,0,0,1-.825-.134,1.444,1.444,0,0,1-.471-.157.55.55,0,0,1-.275-.613.715.715,0,0,1,.432-.456,1.924,1.924,0,0,1,.471-.094,5.1,5.1,0,0,1,.848,0,4.555,4.555,0,0,1,1.382.346c.785.33,1.092.707,1.06.746s-.448-.22-1.17-.456a4.964,4.964,0,0,0-1.3-.236,5.222,5.222,0,0,0-.785,0c-.283,0-.5.094-.526.228s0,.071.078.134a1.313,1.313,0,0,0,.338.11,6.022,6.022,0,0,0,.785.149,7.17,7.17,0,0,0,1.335.039A9.428,9.428,0,0,1,606.018,341.277Z" transform="translate(-179.773 -128.399)"/>
      <path id="Trazado_1636" data-name="Trazado 1636" class="cls-9" d="M606.768,340.688a2.594,2.594,0,0,1-.73-1.068,4.053,4.053,0,0,1-.3-1.39,4.52,4.52,0,0,1,.055-.848,1.037,1.037,0,0,1,.565-.88.589.589,0,0,1,.62.157,1.743,1.743,0,0,1,.283.408,2.815,2.815,0,0,1,.283.785,2.859,2.859,0,0,1-.078,1.437c-.259.785-.707,1.107-.73,1.076a12.251,12.251,0,0,0,.432-1.155,3.034,3.034,0,0,0,0-1.272,2.725,2.725,0,0,0-.267-.7c-.126-.243-.3-.416-.385-.361a.73.73,0,0,0-.283.55,4.333,4.333,0,0,0-.079.785,4.751,4.751,0,0,0,.188,1.3C606.541,340.248,606.823,340.648,606.768,340.688Z" transform="translate(-180.618 -127.582)"/>
      <path id="Trazado_1637" data-name="Trazado 1637" class="cls-9" d="M506.746,195s-11.522,22.815-3.778,28.164,43.91,32.523,43.91,32.523l18.448,49.267,17.278-7.068-14.4-57.662-36.347-32.656Z" transform="translate(-157.987 -97.219)"/>
      <path id="Trazado_1638" data-name="Trazado 1638" class="cls-10" d="M564.116,260.76c.1.079-1.092,1.665-1.979,3.927s-1.131,4.217-1.257,4.2a12.393,12.393,0,0,1,3.236-8.129Z" transform="translate(-170.99 -111.333)"/>
      <path id="Trazado_1639" data-name="Trazado 1639" class="cls-10" d="M561.079,260.16c.118,0-.4,1.9-.573,4.272s0,4.3-.1,4.312a11.434,11.434,0,0,1-.306-4.343A11.177,11.177,0,0,1,561.079,260.16Z" transform="translate(-170.804 -111.204)"/>
      <path id="Trazado_1640" data-name="Trazado 1640" class="cls-10" d="M567.8,307.333a1.03,1.03,0,0,1-.11-.243c-.078-.181-.173-.424-.3-.738-.267-.668-.636-1.618-1.115-2.843-.95-2.482-2.356-6.095-3.99-10.6s-3.636-9.919-5.7-16.03c-.518-1.524-1.029-3.1-1.531-4.712s-.966-3.283-1.641-4.932c-1.319-3.275-2.9-6.589-4.626-9.951l.055.055c-1.94-1.641-3.99-3.361-6.095-5.089-1.641-1.351-3.267-2.678-4.909-3.927l-4.869-3.691c-3.189-2.427-6.283-4.759-9.275-6.888s-5.945-4-8.639-5.859a50.381,50.381,0,0,1-7.123-5.694,17.275,17.275,0,0,1-2.529-3.094,11.468,11.468,0,0,1-1.382-3.291,13.438,13.438,0,0,1-.071-5.67,20.226,20.226,0,0,1,1.005-3.448c.141-.385.275-.668.353-.864a1.73,1.73,0,0,1,.141-.291.753.753,0,0,1-.1.306,6.712,6.712,0,0,0-.314.872,22.476,22.476,0,0,0-.927,3.456,13.43,13.43,0,0,0,.141,5.584,11.229,11.229,0,0,0,1.374,3.212,17.637,17.637,0,0,0,2.513,3.024,51.45,51.45,0,0,0,7.115,5.623c2.7,1.838,5.678,3.691,8.678,5.827s6.1,4.445,9.3,6.872L538.095,248c1.657,1.257,3.283,2.584,4.924,3.927,2.1,1.736,4.155,3.456,6.095,5.1h0v.039c1.728,3.377,3.306,6.7,4.626,10a50.424,50.424,0,0,1,1.634,4.94c.495,1.618,1.005,3.189,1.508,4.712,2.042,6.11,3.99,11.522,5.615,16.045l3.88,10.642c.448,1.233.785,2.2,1.045,2.874l.259.785a1.029,1.029,0,0,1,.118.267Z" transform="translate(-158.714 -100.338)"/>
      <path id="Trazado_1641" data-name="Trazado 1641" class="cls-9" d="M526.6,204.3l22.273,3.157,11.419,2.906-15.637,5.608Z" transform="translate(-163.633 -99.215)"/>
      <path id="Trazado_1642" data-name="Trazado 1642" class="cls-9" d="M487.485,202.249a2.442,2.442,0,0,1-.463.534,14.972,14.972,0,0,1-1.429,1.288,22.721,22.721,0,0,1-11.569,4.83,14.757,14.757,0,0,1-1.916.11,2.113,2.113,0,0,1-.707-.047c0-.071,1-.1,2.584-.353a25.808,25.808,0,0,0,6.008-1.689,26.279,26.279,0,0,0,5.427-3.087C486.707,202.886,487.437,202.2,487.485,202.249Z" transform="translate(-151.786 -98.775)"/>
      <path id="Trazado_1643" data-name="Trazado 1643" class="cls-4" d="M511.066,151.156l-4.3,32.295s14.278-.935,24.347,2.411,16.257,3.251,16.257,3.251l-2.1-20.09,7.516-16.493,3.306,19.281,15.44,15.9,10.061-2.278-10.43-17.467-7.241-35.593h0a13.273,13.273,0,0,0-4.555-7.563l-.291-.236-15.158-8.451-5.089.1a79.85,79.85,0,0,0-12.817,1.319,12.983,12.983,0,0,0-6.935,3.715h0a16.07,16.07,0,0,0-3.542,6.605Z" transform="translate(-159.377 -80.29)"/>
      <path id="Trazado_1644" data-name="Trazado 1644" class="cls-9" d="M570.485,143.53a5.826,5.826,0,0,1-.377,1.045l-1.147,2.765c-.99,2.356-2.356,5.537-3.927,9.071l-4.021,9.04c-.5,1.092-.927,2-1.249,2.725a7.683,7.683,0,0,1-.495.982,4.368,4.368,0,0,1,.346-1.045c.259-.668.644-1.61,1.131-2.78.974-2.356,2.356-5.545,3.927-9.087s2.992-6.723,4.045-9.024l1.272-2.717a5.259,5.259,0,0,1,.495-.974Z" transform="translate(-170.645 -86.173)"/>
      <path id="Trazado_1645" data-name="Trazado 1645" class="cls-4" d="M518.9,132.973c2.953,8.231,8.639,27.025,11.4,34.274a13.249,13.249,0,0,0,4.115,5.6l30.63,21.669,7.068-9.2-22.957-22.148L536.78,126.5c-1.744-4.893-8.977-7.547-13.469-4.932h0C519.9,123.588,517.569,129.2,518.9,132.973Z" transform="translate(-161.899 -81.239)"/>
      <path id="Trazado_1646" data-name="Trazado 1646" class="cls-9" d="M538.027,130.07s.086.212.236.628l.66,1.869c.565,1.657,1.4,4.053,2.443,7.108L550,165.161l-.047-.071,23,22.124.126.126-.11.141-5.089,6.621c-.683.88-1.359,1.767-1.987,2.584l-.118.157-.165-.118L542.1,179.784l-5.27-3.793-1.264-.911a11.229,11.229,0,0,1-1.225-.966,11.91,11.91,0,0,1-1.948-2.356,13.349,13.349,0,0,1-1.28-2.631l-1.013-2.607c-.644-1.7-1.257-3.346-1.822-4.924-2.254-6.283-3.927-11.419-5.042-14.969-.55-1.767-.974-3.142-1.272-4.092-.134-.456-.244-.785-.314-1.068a3.626,3.626,0,0,1-.094-.369s.047.118.134.361.2.6.353,1.052c.306.942.785,2.309,1.343,4.068,1.17,3.534,2.867,8.639,5.16,14.922.573,1.571,1.194,3.2,1.846,4.909.338.848.675,1.72,1.021,2.6a13.208,13.208,0,0,0,1.264,2.568,11.779,11.779,0,0,0,1.9,2.262,10.11,10.11,0,0,0,1.194.935l1.272.911,5.286,3.809L565.885,196.4h-.275l1.987-2.584,5.089-6.613v.267l-22.949-22.116h0v-.039c-3.534-10.579-6.464-19.367-8.521-25.533l-2.356-7.139-.6-1.877C538.082,130.29,538.027,130.07,538.027,130.07Z" transform="translate(-162.549 -83.284)"/>
      <path id="Trazado_1647" data-name="Trazado 1647" class="cls-9" d="M535.538,123.584c-.047.047-.558-.487-1.571-1.107a8.875,8.875,0,0,0-8.71-.416c-1.052.518-1.61,1.005-1.657.95a4.461,4.461,0,0,1,1.524-1.209,8.451,8.451,0,0,1,9,.432A4.579,4.579,0,0,1,535.538,123.584Z" transform="translate(-162.989 -81.274)"/>
      <path id="Trazado_1648" data-name="Trazado 1648" class="cls-9" d="M587.948,182.671c0,.126-1.453,0-3.142.393s-2.906,1.194-2.977,1.084a5.5,5.5,0,0,1,2.882-1.484,5.4,5.4,0,0,1,3.236.008Z" transform="translate(-175.487 -94.519)"/>
      <path id="Trazado_1649" data-name="Trazado 1649" class="cls-8" d="M522.087,151.613a1.421,1.421,0,0,1-.306.079,7.216,7.216,0,0,1-.848.133,8.5,8.5,0,0,1-2.827-.181,8.388,8.388,0,0,1-3.267-1.7,1.394,1.394,0,0,1-.228-.22,11.4,11.4,0,0,0,3.534,1.759,12.229,12.229,0,0,0,3.943.134Z" transform="translate(-161.06 -87.501)"/>
      <path id="Trazado_1650" data-name="Trazado 1650" class="cls-8" d="M524.125,160.481a14.611,14.611,0,0,0-1.453-.856,10.885,10.885,0,0,0-3.927-1,24.591,24.591,0,0,0-4.076.086l-1.233.118a3.261,3.261,0,0,1-.456,0,2.214,2.214,0,0,1,.448-.086c.291-.047.707-.1,1.233-.165a21.087,21.087,0,0,1,4.092-.141,10.382,10.382,0,0,1,3.927,1.06,7.022,7.022,0,0,1,1.052.66,1.879,1.879,0,0,1,.393.322Z" transform="translate(-160.71 -89.363)"/>
      <g id="Grupo_625" data-name="Grupo 625" class="cls-11" transform="translate(359.456 59.219)">
        <path id="Trazado_1651" data-name="Trazado 1651" d="M522.13,145.9s.785,12.283,1.7,17.962,2.71,11.459,6.778,15.519,9.911,5.9,15.59,7.068c-1.838-1.382-3.628-2.8-5.4-4.272-2.27-1.885-5.6-3.731-7.43-6.055-3.518-4.469-4.28-10.116-6.095-15.5-1.665-4.979-3.479-9.715-5.152-14.687" transform="translate(-522.13 -145.9)"/>
      </g>
      <path id="Trazado_1652" data-name="Trazado 1652" class="cls-8" d="M544.545,151.96a2.354,2.354,0,0,1-.644.322,5.278,5.278,0,0,1-1.963.3c-1.689,0-3.927-.785-6.472-.558a13.9,13.9,0,0,0-6.118,1.963,15.278,15.278,0,0,0-1.61,1.131l-.408.346c-.094.079-.149.118-.149.11a10.02,10.02,0,0,1,2.1-1.689,13.626,13.626,0,0,1,6.173-2.026c2.576-.243,4.83.6,6.479.6a5.545,5.545,0,0,0,1.94-.236A2.342,2.342,0,0,0,544.545,151.96Z" transform="translate(-163.758 -87.95)"/>
      <path id="Trazado_1653" data-name="Trazado 1653" class="cls-8" d="M541.7,144.45a.963.963,0,0,1-.157.1l-.448.259c-.393.228-.974.526-1.7.872a30.944,30.944,0,0,1-12.228,2.906h-2.435a.959.959,0,0,1-.181,0h.7c.448,0,1.107,0,1.908-.039a33.518,33.518,0,0,0,6.228-.864,34.485,34.485,0,0,0,5.961-2.026c.73-.33,1.319-.62,1.72-.785l.463-.236C541.64,144.465,541.695,144.442,541.7,144.45Z" transform="translate(-163.193 -86.37)"/>
      <path id="Trazado_1654" data-name="Trazado 1654" class="cls-8" d="M563.7,149.7l-.212-.047a5.447,5.447,0,0,1-.6-.2,6.754,6.754,0,0,1-1.916-1.272c-1.492-1.272-2.867-3.66-5.183-5.5a17.4,17.4,0,0,0-8.969-3.7l-.62-.063a.565.565,0,0,1-.212,0,12.959,12.959,0,0,1,3.142.377,17.058,17.058,0,0,1,6.786,3.3,19.27,19.27,0,0,1,2.914,3,23.343,23.343,0,0,0,2.246,2.545,7.067,7.067,0,0,0,1.869,1.3C563.41,149.625,563.708,149.68,563.7,149.7Z" transform="translate(-167.795 -85.183)"/>
      <path id="Trazado_1655" data-name="Trazado 1655" class="cls-8" d="M563.335,155.494a5.6,5.6,0,0,1-.66-.188,6.086,6.086,0,0,1-1.571-.966,15.959,15.959,0,0,1-1.924-1.971,18.527,18.527,0,0,0-2.356-2.356,6.283,6.283,0,0,0-3.024-1.3,11.443,11.443,0,0,0-2.717-.055c-.785.071-1.406.165-1.838.22l-.5.071a.573.573,0,0,1-.173,0,.5.5,0,0,1,.165-.047l.495-.1c.432-.079,1.06-.188,1.838-.267a10.807,10.807,0,0,1,2.757,0,6.283,6.283,0,0,1,3.142,1.319,17.282,17.282,0,0,1,2.356,2.419,18.733,18.733,0,0,0,1.885,1.979,6.426,6.426,0,0,0,1.571.99C563.107,155.408,563.335,155.479,563.335,155.494Z" transform="translate(-168.348 -87.228)"/>
      <path id="Trazado_1656" data-name="Trazado 1656" class="cls-8" d="M579.537,154.129a5.293,5.293,0,0,0-1.744-.173,7.193,7.193,0,0,0-1.861.416c-.675.236-1.4.581-2.16.927a11.618,11.618,0,0,1-2.231.785,5.577,5.577,0,0,1-1.94.1,3.668,3.668,0,0,1-1.249-.408,2.083,2.083,0,0,1-.353-.236,4.123,4.123,0,0,0,1.649.565,5.5,5.5,0,0,0,1.885-.133,11.777,11.777,0,0,0,2.2-.785c.785-.346,1.492-.683,2.183-.919a7.257,7.257,0,0,1,1.9-.393,4.2,4.2,0,0,1,1.3.126A1.979,1.979,0,0,1,579.537,154.129Z" transform="translate(-172.518 -88.392)"/>
      <path id="Trazado_1657" data-name="Trazado 1657" class="cls-8" d="M580.248,159.393a3.927,3.927,0,0,0-2.168-.785,5.929,5.929,0,0,0-2.466.448,13.994,13.994,0,0,0-2.678,1.571,18.554,18.554,0,0,1-2.662,1.657,6.723,6.723,0,0,1-2.474.668,4.233,4.233,0,0,1-1.7-.251,2.567,2.567,0,0,1-.565-.3,4.351,4.351,0,0,0,2.262.432,6.833,6.833,0,0,0,2.419-.683,20.549,20.549,0,0,0,2.631-1.657,14,14,0,0,1,2.717-1.571,5.922,5.922,0,0,1,2.529-.424,3.809,3.809,0,0,1,1.657.487,2.356,2.356,0,0,1,.5.408Z" transform="translate(-171.988 -89.383)"/>
      <g id="Grupo_626" data-name="Grupo 626" class="cls-11" transform="translate(393.392 62.635)">
        <path id="Trazado_1658" data-name="Trazado 1658" d="M567.146,170.269c1.571-6.432,1.916-13.4,2.144-20.019-.558,2.317-1.979,4.32-2.859,6.542-.424,1.052-1.092,2.969-1.092,2.969l1.775,10.351" transform="translate(-565.34 -150.25)"/>
      </g>
      <path id="Trazado_1659" data-name="Trazado 1659" class="cls-9" d="M552.97,79.4a3.251,3.251,0,0,1-2.175,2.607c-.644.212-1.351.212-1.987.456a1.492,1.492,0,0,0-1.084,1.524c.11.5.573.825.95,1.162s.723.872.5,1.327-.966.55-1.343.966a1.3,1.3,0,0,0,.086,1.626,5.891,5.891,0,0,0,1.39,1.092,2.309,2.309,0,0,1,1.068,1.359" transform="translate(-168.138 -72.409)"/>
      <path id="Trazado_1660" data-name="Trazado 1660" class="cls-9" d="M576.979,87.692c1.728-3.652.471-8.2-2.223-11.215s-6.558-4.712-10.438-5.835c-.558-.157-1.249-.275-1.641.157a1.107,1.107,0,0,0,.1,1.4,3.142,3.142,0,0,0,1.3.785,12.228,12.228,0,0,0-5.058-1.374,3.243,3.243,0,0,0-1.783.377,1.476,1.476,0,0,0-.7,1.571.966.966,0,0,0,1.508.479,7.43,7.43,0,0,0-4.8,1.123c-1.005.644-1.924,1.759-1.681,2.929a18.145,18.145,0,0,0,.88,1.908c.416,1.217-.188,2.521-.652,3.715a11.537,11.537,0,0,0-.785,5.875,6.809,6.809,0,0,0,3.142,4.885" transform="translate(-168.853 -70.498)"/>
      <path id="Trazado_1661" data-name="Trazado 1661" class="cls-13" d="M551.8,119.845A8.042,8.042,0,0,1,546.17,109.8l7.21-24.41a11.529,11.529,0,0,1,14.427-8.082l.565.2a11.616,11.616,0,0,1,7.257,13.972c-1.484,5.427-3.2,11.412-4.257,14.231-2.191,5.835-8.38,4.626-8.38,4.626l-1.524,4.375A8.034,8.034,0,0,1,551.8,119.845Z" transform="translate(-167.763 -71.857)"/>
      <path id="Trazado_1662" data-name="Trazado 1662" class="cls-15" d="M565.856,118.052A14.506,14.506,0,0,1,559,113.12s.283,4.869,6.283,6.456Z" transform="translate(-170.587 -79.646)"/>
      <path id="Trazado_1663" data-name="Trazado 1663" class="cls-9" d="M563.412,80.711c-.479-1.052-1.084-3.346-1.9-4.17s-2.144-.55-3.259-.236a3.778,3.778,0,0,0-2.505,2.356c-1.571,4.217-1.728,8.207-2.874,12.354a1.508,1.508,0,0,0-.071.848c.22.7.99.95,1.72,1.06,1.8.259,2.717-1.052,3.566-2.631a19.141,19.141,0,0,0,.628-2.922,7.925,7.925,0,0,1,4.445-6.558Z" transform="translate(-169.25 -71.678)"/>
      <path id="Trazado_1664" data-name="Trazado 1664" class="cls-13" d="M555.318,91.761c-.079-.079-3.6-2.647-4.917,1.406s3.024,4.547,3.071,4.43S555.318,91.761,555.318,91.761Z" transform="translate(-168.688 -74.874)"/>
      <path id="Trazado_1665" data-name="Trazado 1665" class="cls-15" d="M553.042,96.05a.8.8,0,0,0-.228.047.785.785,0,0,1-.534-.165,1.83,1.83,0,0,1-.291-1.83,2.483,2.483,0,0,1,.526-.95.872.872,0,0,1,.707-.369.393.393,0,0,1,.353.33v.22c0,.016.11-.039.133-.22a.487.487,0,0,0-.079-.306.557.557,0,0,0-.361-.228,1.052,1.052,0,0,0-.942.393,2.6,2.6,0,0,0-.613,1.045,1.94,1.94,0,0,0,.463,2.089.785.785,0,0,0,.675.1C553,96.12,553.05,96.05,553.042,96.05Z" transform="translate(-168.996 -75.236)"/>
      <path id="Trazado_1666" data-name="Trazado 1666" class="cls-9" d="M563.9,81.1a4.891,4.891,0,0,1,5.427.11c1.374.8,2.537,1.932,3.927,2.662s3.251.982,4.508,0a4.312,4.312,0,0,0,1.437-3.142,8.585,8.585,0,0,0-2.058-6.283c-.385-.448-.982-.88-1.524-.644-.668.3-.558,1.272-.346,1.971,0,0-6.817-2.521-11-1.068S563.9,81.1,563.9,81.1Z" transform="translate(-171.298 -71.193)"/>
      <path id="Trazado_1667" data-name="Trazado 1667" class="cls-10" d="M567.589,70.58a6.066,6.066,0,0,0,.291.785,6.284,6.284,0,0,0,1.3,1.814,10.265,10.265,0,0,0,2.717,1.9,8.427,8.427,0,0,0,1.854.62c.668.149,1.382.251,2.1.448a4.885,4.885,0,0,1,1.971,1,4.312,4.312,0,0,1,1.186,1.681,3.84,3.84,0,0,1,.243,1.853,3.448,3.448,0,0,1-.581,1.508,3.519,3.519,0,0,1-1.846,1.382,2.521,2.521,0,0,1-.628.094h-.22a2.157,2.157,0,0,0,.785-.212,3.511,3.511,0,0,0,1.681-1.382,3.377,3.377,0,0,0,.5-1.414,3.5,3.5,0,0,0-.259-1.689A4.06,4.06,0,0,0,577.58,77.4a4.61,4.61,0,0,0-1.814-.9c-.691-.188-1.406-.3-2.089-.456a8.246,8.246,0,0,1-1.916-.668A9.872,9.872,0,0,1,569,73.352a5.7,5.7,0,0,1-1.241-1.94,2.588,2.588,0,0,1-.149-.613A.589.589,0,0,1,567.589,70.58Z" transform="translate(-172.43 -70.516)"/>
      <path id="Trazado_1668" data-name="Trazado 1668" class="cls-10" d="M561.86,72.14s.1.3.33.785a6.033,6.033,0,0,0,1.4,1.861,8.451,8.451,0,0,0,3.008,1.7,28.706,28.706,0,0,0,4.194.974,15.967,15.967,0,0,1,4.2,1.209,2.914,2.914,0,0,1,1.374,1.39,2.788,2.788,0,0,1,.094,1.7,3.393,3.393,0,0,1-1.453,1.924,3.289,3.289,0,0,1-.581.306.73.73,0,0,1-.22.071,7.673,7.673,0,0,0,.722-.495,3.314,3.314,0,0,0,1.28-1.861,2.474,2.474,0,0,0-.1-1.516,2.6,2.6,0,0,0-1.257-1.217,16.359,16.359,0,0,0-4.115-1.147,26.524,26.524,0,0,1-4.233-1.021,8.34,8.34,0,0,1-3.071-1.822A5.7,5.7,0,0,1,562.08,73a3.412,3.412,0,0,1-.181-.628A.559.559,0,0,1,561.86,72.14Z" transform="translate(-171.201 -70.851)"/>
      <path id="Trazado_1669" data-name="Trazado 1669" class="cls-9" d="M578.274,98.753a.958.958,0,0,1-1.194.613.919.919,0,0,1-.66-1.147.974.974,0,0,1,1.2-.62.927.927,0,0,1,.652,1.155Z" transform="translate(-174.318 -76.306)"/>
      <path id="Trazado_1670" data-name="Trazado 1670" class="cls-9" d="M580.016,97.949c-.157.079-.668-.668-1.657-1.005s-1.869-.1-1.932-.259.149-.243.55-.361a2.655,2.655,0,0,1,2.867,1.005C580.071,97.666,580.095,97.918,580.016,97.949Z" transform="translate(-174.325 -76.02)"/>
      <path id="Trazado_1671" data-name="Trazado 1671" class="cls-9" d="M565.913,95.193a.966.966,0,0,1-1.2.613.919.919,0,0,1-.652-1.147.966.966,0,0,1,1.194-.62.927.927,0,0,1,.66,1.155Z" transform="translate(-171.665 -75.542)"/>
      <path id="Trazado_1672" data-name="Trazado 1672" class="cls-9" d="M567.646,93.91c-.157.086-.668-.668-1.649-1.005s-1.877-.1-1.94-.259.157-.243.55-.361a2.631,2.631,0,0,1,1.571.055,2.553,2.553,0,0,1,1.264.95C567.693,93.612,567.717,93.879,567.646,93.91Z" transform="translate(-171.67 -75.154)"/>
      <path id="Trazado_1673" data-name="Trazado 1673" class="cls-9" d="M570,102.965a6.912,6.912,0,0,1,1.7.267c.259.063.511.094.613-.063a1.367,1.367,0,0,0,.094-.785c0-.691-.055-1.414-.079-2.168a34.3,34.3,0,0,1,.071-5.576,35.952,35.952,0,0,1,.377,5.568c0,.785,0,1.477,0,2.168a1.508,1.508,0,0,1-.212,1.029.667.667,0,0,1-.534.228,1.656,1.656,0,0,1-.455-.071,6.87,6.87,0,0,1-1.571-.6Z" transform="translate(-172.948 -75.68)"/>
      <path id="Trazado_1674" data-name="Trazado 1674" class="cls-9" d="M565.881,104.829c.157,0-.212,1.107.44,2.183s1.83,1.351,1.783,1.508-.322.118-.785,0a2.8,2.8,0,0,1-1.508-1.194,2.411,2.411,0,0,1-.306-1.806C565.575,105.018,565.779,104.8,565.881,104.829Z" transform="translate(-171.97 -77.866)"/>
      <path id="Trazado_1675" data-name="Trazado 1675" class="cls-9" d="M569.385,89.144c-.2.236-1.131-.228-2.356-.495s-2.238-.267-2.309-.558c0-.141.22-.338.683-.463a4.1,4.1,0,0,1,3.534.785C569.33,88.751,569.472,89.034,569.385,89.144Z" transform="translate(-171.814 -74.15)"/>
      <path id="Trazado_1676" data-name="Trazado 1676" class="cls-9" d="M580.911,94.162c-.251.165-.848-.3-1.657-.6s-1.571-.369-1.634-.66c0-.134.157-.322.526-.432a2.576,2.576,0,0,1,2.655,1.013C581.005,93.816,581.06,94.083,580.911,94.162Z" transform="translate(-174.583 -75.201)"/>
      <path id="Trazado_1677" data-name="Trazado 1677" class="cls-10" d="M557.145,205.59a3.927,3.927,0,0,1,2.513,4.43l-5.309,2.1-1.209-5.1Z" transform="translate(-169.329 -99.492)"/>
      <path id="Trazado_1678" data-name="Trazado 1678" class="cls-10" d="M501.5,203.229s10.626-1.1,17.278,1.249,14.977,4.1,18.645,3.275a9.346,9.346,0,0,0,5-3.142s-10.587-1.272-15.574-2.882c-3.354-1.084-9.982-8.6-22.25-6.786Z" transform="translate(-158.246 -97.147)"/>
      <path id="Trazado_1679" data-name="Trazado 1679" class="cls-10" d="M553.5,209.768a7.193,7.193,0,0,0-1.712-2.568l.094.126a16.627,16.627,0,0,0-3.3.479,5.5,5.5,0,0,0-2.788,1.728,1.453,1.453,0,0,0-.393.99,1.759,1.759,0,0,0,.833,1.147,9.919,9.919,0,0,0,3.338,1.987,3.385,3.385,0,0,0,3.566-.919A3.228,3.228,0,0,0,553.5,209.768Z" transform="translate(-167.668 -99.838)"/>
      <path id="Trazado_1680" data-name="Trazado 1680" class="cls-9" d="M545.89,209.479a1.469,1.469,0,0,1,.338-.6,3.527,3.527,0,0,1,1.571-1,5.945,5.945,0,0,1,2.78-.236,4.068,4.068,0,0,1,2.827,1.838,2.976,2.976,0,0,1,.448,1.728,3.008,3.008,0,0,1-.589,1.571,2.607,2.607,0,0,1-1.217.887,3.212,3.212,0,0,1-1.3.157,6.339,6.339,0,0,1-1.83-.456c-.2-.079-.361-.149-.471-.2a.581.581,0,0,1-.157-.086l.173.055.479.173a6.611,6.611,0,0,0,1.814.4,2.678,2.678,0,0,0,2.356-1.013,2.733,2.733,0,0,0,.126-3.141,3.927,3.927,0,0,0-2.717-1.767,5.843,5.843,0,0,0-2.717.2,3.644,3.644,0,0,0-1.571.927A3.254,3.254,0,0,0,545.89,209.479Z" transform="translate(-167.773 -99.917)"/>
      <path id="Trazado_1681" data-name="Trazado 1681" class="cls-8" d="M548.364,209.96a6.272,6.272,0,0,0-.628-.55,5.564,5.564,0,0,0-.785-.4,2.081,2.081,0,0,1,1.374.95Z" transform="translate(-168.001 -100.226)"/>
      <path id="Trazado_1682" data-name="Trazado 1682" class="cls-8" d="M550.616,210.05s-.243-.243-.573-.518-.62-.456-.613-.471a1.981,1.981,0,0,1,.668.408A2.075,2.075,0,0,1,550.616,210.05Z" transform="translate(-168.533 -100.237)"/>
      <path id="Trazado_1683" data-name="Trazado 1683" class="cls-8" d="M551.345,214.287s-.039-.181-.126-.463a4.2,4.2,0,0,0-.487-1.021,4.036,4.036,0,0,0-.785-.833c-.228-.188-.385-.283-.377-.291a2.356,2.356,0,0,1,.416.243,3.6,3.6,0,0,1,.785.84,3.461,3.461,0,0,1,.471,1.045A2.247,2.247,0,0,1,551.345,214.287Z" transform="translate(-168.563 -100.799)"/>
      <path id="Trazado_1684" data-name="Trazado 1684" class="cls-8" d="M553.9,212.425a3.938,3.938,0,0,1,0-.456,5.814,5.814,0,0,0-.078-1.092,5.285,5.285,0,0,0-.306-1.045c-.1-.259-.181-.416-.173-.424s0,0,.071.1a3.2,3.2,0,0,1,.157.3,4.593,4.593,0,0,1,.33,1.06,4.237,4.237,0,0,1,.055,1.1,2.524,2.524,0,0,1,0,.338A.8.8,0,0,1,553.9,212.425Z" transform="translate(-169.372 -100.311)"/>
      <path id="Trazado_1685" data-name="Trazado 1685" class="cls-9" d="M552.875,209.08a9.3,9.3,0,0,0-4.335,3.079,2.584,2.584,0,0,1,.44-.668,7.123,7.123,0,0,1,3.141-2.215,2.693,2.693,0,0,1,.754-.2Z" transform="translate(-168.342 -100.241)"/>
      <path id="Trazado_1686" data-name="Trazado 1686" class="cls-9" d="M550.148,208a5.5,5.5,0,0,0-1.453,1.641,5.64,5.64,0,0,0-.573,2.113,1.714,1.714,0,0,1,0-.66,3.858,3.858,0,0,1,.456-1.531,4.123,4.123,0,0,1,1.029-1.233,1.626,1.626,0,0,1,.542-.33Z" transform="translate(-168.245 -100.009)"/>
      <path id="Trazado_1687" data-name="Trazado 1687" class="cls-9" d="M553.593,214.131a3.437,3.437,0,0,0-.2-.636,3.534,3.534,0,0,0-.935-1.264c-.958-.785-1.924-1.217-1.885-1.28a3.047,3.047,0,0,1,.62.259,6.377,6.377,0,0,1,1.374.9,3.268,3.268,0,0,1,.935,1.351A1.351,1.351,0,0,1,553.593,214.131Z" transform="translate(-168.777 -100.642)"/>
      <path id="Trazado_1688" data-name="Trazado 1688" class="cls-9" d="M519.205,207.213a5.215,5.215,0,0,1-1.045-.2c-.668-.149-1.626-.361-2.82-.589a65.319,65.319,0,0,0-9.424-1.1,17.277,17.277,0,0,0-5.152.416,10.626,10.626,0,0,0-3.754,1.861,14.255,14.255,0,0,0-2.67,2.851,3.7,3.7,0,0,1,.518-.935,10.21,10.21,0,0,1,1.971-2.144,10.469,10.469,0,0,1,3.84-1.995,17.027,17.027,0,0,1,5.262-.463,55.2,55.2,0,0,1,9.479,1.225c1.194.267,2.152.526,2.8.723A4.71,4.71,0,0,1,519.205,207.213Z" transform="translate(-156.709 -99.34)"/>
      <path id="Trazado_1689" data-name="Trazado 1689" class="cls-9" d="M426.59,193.674a3.489,3.489,0,0,1,.542-.424,9.3,9.3,0,0,1,1.72-.942,11.3,11.3,0,0,1,7.123-.55,10.611,10.611,0,0,1,4.437,2.293,22.656,22.656,0,0,1,3.731,4.351,60.965,60.965,0,0,0,3.754,5.034,45.169,45.169,0,0,0,4.712,4.791,32.713,32.713,0,0,0,11,6.707,17.443,17.443,0,0,0,5.545.919,8.639,8.639,0,0,0,4.673-1.155,11.042,11.042,0,0,0,2.922-2.772c.73-.95,1.3-1.822,1.775-2.529l1.076-1.634a4.847,4.847,0,0,1,.393-.558,3.645,3.645,0,0,1-.33.6l-1.005,1.673c-.448.723-1.005,1.571-1.728,2.576a11,11,0,0,1-2.945,2.882,8.961,8.961,0,0,1-4.83,1.257,17.631,17.631,0,0,1-5.663-.9,33.011,33.011,0,0,1-11.176-6.754,44.555,44.555,0,0,1-4.759-4.846,58.91,58.91,0,0,1-3.754-5.081,23.239,23.239,0,0,0-3.644-4.312,10.343,10.343,0,0,0-4.288-2.262,11.357,11.357,0,0,0-6.99.416A15.313,15.313,0,0,0,426.59,193.674Z" transform="translate(-142.169 -96.451)"/>
      <path id="Trazado_1690" data-name="Trazado 1690" class="cls-8" d="M447.984,185.417h-.55c-.361,0-.872.047-1.508.118a19.7,19.7,0,0,0-9.189,3.542c-.511.369-.919.691-1.194.919l-.424.353a14.291,14.291,0,0,1,1.571-1.319,18.928,18.928,0,0,1,9.212-3.55,15.477,15.477,0,0,1,2.081-.063Z" transform="translate(-143.999 -95.16)"/>
      <path id="Trazado_1691" data-name="Trazado 1691" class="cls-8" d="M463.974,195.14l-.573.079c-.377.047-.911.134-1.571.267a21.205,21.205,0,0,0-4.94,1.665,21.473,21.473,0,0,0-4.4,2.82c-.51.424-.911.785-1.178,1.052l-.424.4a16.564,16.564,0,0,1,1.571-1.5,21.141,21.141,0,0,1,4.39-2.851,20.8,20.8,0,0,1,4.971-1.641A17.052,17.052,0,0,1,463.974,195.14Z" transform="translate(-147.384 -97.249)"/>
      <path id="Trazado_1692" data-name="Trazado 1692" class="cls-8" d="M467.01,214.188a5.967,5.967,0,0,1-.11-.6,8.726,8.726,0,0,1-.055-1.665,12.424,12.424,0,0,1,1.571-5.238,25.518,25.518,0,0,1,3.259-4.43c.935-1.06,1.571-1.681,1.571-1.681l-.4.463-1.1,1.249a27.064,27.064,0,0,0-3.212,4.437,12.715,12.715,0,0,0-1.626,5.2,9.085,9.085,0,0,0,0,1.665,3.433,3.433,0,0,0,.055.448Z" transform="translate(-150.805 -98.415)"/>
      <path id="Trazado_1693" data-name="Trazado 1693" class="cls-8" d="M484.546,206.662a3.82,3.82,0,0,1-.212-.6,6.731,6.731,0,0,1-.055-3.063,3.281,3.281,0,0,1,.188-.6s-.055.236-.134.62a7.4,7.4,0,0,0,.063,3.032C484.483,206.427,484.554,206.655,484.546,206.662Z" transform="translate(-154.518 -98.805)"/>
      <path id="Trazado_1694" data-name="Trazado 1694" class="cls-8" d="M486.253,217.57a9.8,9.8,0,0,1-1.257-.942,12.236,12.236,0,0,1-3.927-6.377,9.384,9.384,0,0,1-.259-1.571,1.65,1.65,0,0,0,.079.416c.079.267.118.652.236,1.115a12.778,12.778,0,0,0,3.888,6.354,11.081,11.081,0,0,0,.888.723C486.135,217.484,486.253,217.57,486.253,217.57Z" transform="translate(-153.806 -100.155)"/>
      <path id="Trazado_1695" data-name="Trazado 1695" class="cls-8" d="M499.547,204.851s-.4-.181-1.021-.542a19.72,19.72,0,0,1-2.293-1.571,20.117,20.117,0,0,1-2.058-1.877c-.487-.518-.785-.872-.785-.872l.22.22.581.613a23.407,23.407,0,0,0,2.058,1.854,24.828,24.828,0,0,0,2.278,1.571l.73.432Z" transform="translate(-156.506 -98.29)"/>
      <path id="Trazado_1696" data-name="Trazado 1696" class="cls-8" d="M510.537,202.719v-.306a6.781,6.781,0,0,0-.039-.848,23.66,23.66,0,0,0-.251-2.772c-.141-1.076-.338-2.05-.495-2.741l-.188-.825c-.047-.2-.063-.306-.063-.306a.788.788,0,0,0,.094.3,5.592,5.592,0,0,1,.22.785c.165.691.361,1.665.51,2.749a26.843,26.843,0,0,1,.228,2.78v.848A3.2,3.2,0,0,1,510.537,202.719Z" transform="translate(-159.963 -97.202)"/>
      <path id="Trazado_1697" data-name="Trazado 1697" class="cls-8" d="M522.914,198a.933.933,0,0,1,0,.259c0,.243-.047.471-.063.691-.071.589-.188,1.4-.369,2.278s-.393,1.673-.565,2.238c-.071.212-.141.432-.212.668s-.094.236-.094.236a1.255,1.255,0,0,1,.063-.251c.063-.228.126-.456.189-.668.157-.565.361-1.359.542-2.238s.306-1.681.393-2.27a5.733,5.733,0,0,1,.086-.691Z" transform="translate(-162.562 -97.863)"/>
      <path id="Trazado_1698" data-name="Trazado 1698" class="cls-8" d="M531.75,205.575a9.8,9.8,0,0,1,.228-1.28,8.684,8.684,0,0,1,.306-1.264,12.081,12.081,0,0,1-.228,1.28,10.106,10.106,0,0,1-.306,1.264Z" transform="translate(-164.738 -98.943)"/>
      <path id="Trazado_1699" data-name="Trazado 1699" class="cls-8" d="M545.77,209.926a3.123,3.123,0,0,1,.063-.526,8.552,8.552,0,0,0,.071-1.288v-1.681a.426.426,0,0,1,0-.141,3.575,3.575,0,0,1,.047.534c0,.33,0,.785,0,1.3a10.445,10.445,0,0,1-.1,1.288A2.719,2.719,0,0,1,545.77,209.926Z" transform="translate(-167.747 -99.642)"/>
      <path id="Trazado_1700" data-name="Trazado 1700" class="cls-10" d="M540.211,212.371c-.848-3.416-4.359-5.615-7.854-6.165s-7.021.165-10.516.613-7.226.558-10.359-1.068a12.141,12.141,0,0,0-1.453,6.008h1.838a6.771,6.771,0,0,0,5.427,5.254,9.861,9.861,0,0,0,6.794-.479c2.576-1.131,5.914-2.835,8.443-3.723a12.346,12.346,0,0,1,7.854-.495" transform="translate(-160.076 -99.526)"/>
      <path id="Trazado_1701" data-name="Trazado 1701" class="cls-9" d="M513.814,206.79a5.633,5.633,0,0,1-.314.738,14.915,14.915,0,0,0-.636,1.783,12.146,12.146,0,0,0-.385,1.885,5.741,5.741,0,0,1-.086.785,2.791,2.791,0,0,1,0-.785,8.738,8.738,0,0,1,.338-1.916,10.114,10.114,0,0,1,.7-1.814,2.858,2.858,0,0,1,.385-.675Z" transform="translate(-160.578 -99.75)"/>
      <path id="Trazado_1702" data-name="Trazado 1702" class="cls-9" d="M512.03,211.427a4.712,4.712,0,0,1-.966-.086,5.1,5.1,0,0,1-.974-.126,2.223,2.223,0,0,1,.99,0A2.255,2.255,0,0,1,512.03,211.427Z" transform="translate(-160.09 -100.687)"/>
      <path id="Trazado_1703" data-name="Trazado 1703" class="cls-9" d="M512.586,208.623a5.165,5.165,0,0,0-.84-.393c-.479-.173-.9-.181-.9-.228A1.853,1.853,0,0,1,512.586,208.623Z" transform="translate(-160.253 -100.003)"/>
      <path id="Trazado_1704" data-name="Trazado 1704" class="cls-9" d="M516.585,207.069h2.121a31.463,31.463,0,0,0,5.733-.589,24.347,24.347,0,0,1,8.639-.236,11.608,11.608,0,0,1,4.759,1.908,8.741,8.741,0,0,1,3.267,4.437l.047.173-.165-.079a6.6,6.6,0,0,0-2.356-.644,14.922,14.922,0,0,0-5.828,1.045,50.1,50.1,0,0,0-5.16,2.1c-.785.377-1.571.785-2.356,1.084a14.137,14.137,0,0,1-2.309.84,11.529,11.529,0,0,1-4.4.173A8.263,8.263,0,0,1,515.2,216a6.612,6.612,0,0,1-1.893-1.979,6.376,6.376,0,0,1-.7-1.571c-.1-.385-.133-.589-.133-.589a7.683,7.683,0,0,0,.887,2.144,6.52,6.52,0,0,0,1.893,1.932,8.1,8.1,0,0,0,3.354,1.249,11.427,11.427,0,0,0,4.343-.2,13.022,13.022,0,0,0,2.285-.84c.785-.338,1.571-.707,2.356-1.084a49.7,49.7,0,0,1,5.176-2.121,15.291,15.291,0,0,1,5.89-1.052,6.9,6.9,0,0,1,2.435.66l-.11.094a8.576,8.576,0,0,0-3.2-4.351,11.561,11.561,0,0,0-4.712-1.893,24.536,24.536,0,0,0-8.568.2,29.357,29.357,0,0,1-5.749.534C517.331,207.124,516.585,207.069,516.585,207.069Z" transform="translate(-160.601 -99.573)"/>
      <path id="Trazado_1705" data-name="Trazado 1705" class="cls-8" d="M517.37,216.956a2.487,2.487,0,0,1-.134-.361,9.508,9.508,0,0,1-.267-1.005,12.621,12.621,0,0,1,.479-6.794,9.691,9.691,0,0,1,.4-.958,1.57,1.57,0,0,1,.188-.338s-.212.51-.479,1.335a14.043,14.043,0,0,0-.66,3.338,14.2,14.2,0,0,0,.189,3.393C517.236,216.43,517.4,216.948,517.37,216.956Z" transform="translate(-161.511 -99.902)"/>
      <path id="Trazado_1706" data-name="Trazado 1706" class="cls-8" d="M526.2,213.65a3.929,3.929,0,0,1,.126.66c.063.408.181.966.338,1.571.322,1.217.636,2.2.589,2.215a2.606,2.606,0,0,1-.259-.62,15.629,15.629,0,0,1-.487-1.571,10.027,10.027,0,0,1-.3-1.571A2.077,2.077,0,0,1,526.2,213.65Z" transform="translate(-163.543 -101.222)"/>
      <path id="Trazado_1707" data-name="Trazado 1707" class="cls-8" d="M524.976,210.26a11.674,11.674,0,0,1,.086,1.28c.055.7.173,1.257.126,1.272a4.712,4.712,0,0,1-.212-2.552Z" transform="translate(-163.266 -100.494)"/>
      <path id="Trazado_1708" data-name="Trazado 1708" class="cls-8" d="M526.979,206.77c.047,0-.165.526-.283,1.178s-.11,1.2-.157,1.2a2.513,2.513,0,0,1,0-1.233,2.451,2.451,0,0,1,.44-1.147Z" transform="translate(-163.603 -99.745)"/>
      <path id="Trazado_1709" data-name="Trazado 1709" class="cls-8" d="M533.85,208.169a2.16,2.16,0,0,1-.479-1.979c.055,0,0,.471.149,1.013S533.913,208.146,533.85,208.169Z" transform="translate(-165.072 -99.621)"/>
      <path id="Trazado_1710" data-name="Trazado 1710" class="cls-8" d="M538.844,213.019a3.228,3.228,0,0,1-.448-.62,11.049,11.049,0,0,1-.856-1.641,12.207,12.207,0,0,1-.6-1.751,3.415,3.415,0,0,1-.133-.785,4.519,4.519,0,0,1,.244.723c.141.448.353,1.06.636,1.72s.573,1.233.785,1.649A3.787,3.787,0,0,1,538.844,213.019Z" transform="translate(-165.824 -100.056)"/>
      <path id="Trazado_1711" data-name="Trazado 1711" class="cls-8" d="M540.758,207.066a1.836,1.836,0,0,1-.243.353c-.133.181-.212.346-.259.33s0-.22.126-.432S540.734,207.011,540.758,207.066Z" transform="translate(-166.56 -99.805)"/>
      <path id="Trazado_1712" data-name="Trazado 1712" class="cls-8" d="M541.159,214.01a2.606,2.606,0,0,1-.228-.2,6.361,6.361,0,0,0-3.652-1.571,10.854,10.854,0,0,0-4.634.5,51.726,51.726,0,0,0-5.333,2.2,17.145,17.145,0,0,1-5.5,1.571,13.46,13.46,0,0,1-4.712-.408,13.14,13.14,0,0,1-2.953-1.17c-.33-.181-.573-.338-.738-.448l-.251-.165.259.157c.165.1.416.251.746.424a13.76,13.76,0,0,0,7.618,1.571,17.326,17.326,0,0,0,5.5-1.571,49.48,49.48,0,0,1,5.341-2.2,10.862,10.862,0,0,1,4.665-.495,7.241,7.241,0,0,1,2.977,1.084A4.893,4.893,0,0,1,541.159,214.01Z" transform="translate(-160.749 -100.899)"/>
      <path id="Trazado_1713" data-name="Trazado 1713" class="cls-8" d="M528.033,209.81s-.2.094-.558.243-.88.353-1.571.581a16.163,16.163,0,0,1-5.356.887,19.673,19.673,0,0,1-5.356-.9c-1.335-.385-2.152-.675-2.152-.675l.589.165,1.571.456a20.42,20.42,0,0,0,5.341.88,16.579,16.579,0,0,0,5.34-.864c.66-.22,1.186-.408,1.571-.558Z" transform="translate(-160.723 -100.398)"/>
      <path id="Trazado_1714" data-name="Trazado 1714" class="cls-8" d="M536.307,208.333l-.2-.126a4.98,4.98,0,0,0-.558-.33,7.782,7.782,0,0,0-2.246-.785,12.487,12.487,0,0,0-3.5-.134c-1.327.126-2.765.424-4.28.707a23.31,23.31,0,0,1-7.854.22c-2.011-.283-3.22-.589-3.22-.589l.864.157c.55.1,1.359.243,2.356.369a23.483,23.483,0,0,0,7.854-.236c1.516-.283,2.961-.581,4.3-.707a11.985,11.985,0,0,1,3.542.134,7.4,7.4,0,0,1,2.246.785,5.5,5.5,0,0,1,.7.534Z" transform="translate(-161.025 -99.753)"/>
      <path id="Trazado_1715" data-name="Trazado 1715" class="cls-9" d="M543.253,212.707a13.648,13.648,0,0,0-2.16-2.356,8.938,8.938,0,0,0-3.024-1.618,9.071,9.071,0,0,0-4.17-.267,11.585,11.585,0,0,0-3.927,1.571c-1.131.66-2.152,1.3-3.071,1.736a8.3,8.3,0,0,1-2.27.785,3.927,3.927,0,0,1-.644.063h-.228a11.544,11.544,0,0,0,3.016-1.06c.88-.456,1.869-1.115,3.008-1.8a11.366,11.366,0,0,1,4.029-1.649,8.88,8.88,0,0,1,9.024,3.864,2.919,2.919,0,0,1,.416.73Z" transform="translate(-163.024 -100.004)"/>
      <path id="Trazado_1716" data-name="Trazado 1716" class="cls-9" d="M532.044,208.9a13.115,13.115,0,0,1-4.791,1.068,12.966,12.966,0,0,1-4.893-.377c0-.118,2.191.165,4.862,0S532.012,208.778,532.044,208.9Z" transform="translate(-162.723 -100.199)"/>
      <path id="Trazado_1717" data-name="Trazado 1717" class="cls-8" d="M508.046,201.966l-.88-.377c-.589-.243-1.445-.6-2.568-1.005a32.514,32.514,0,0,0-9.88-2.05,21.362,21.362,0,0,0-6.888.9,16.493,16.493,0,0,0-6.856,4.013c-2.042,1.956-3.754,4.43-6.1,6.448a10.211,10.211,0,0,1-4.131,2.191,8.977,8.977,0,0,1-4.791-.283,13.194,13.194,0,0,1-4.21-2.356,20.7,20.7,0,0,1-3.228-3.416c-1.885-2.443-3.385-5.019-5.1-7.273a36.131,36.131,0,0,0-5.435-5.882,22.132,22.132,0,0,0-5.922-3.668,16.634,16.634,0,0,0-9.919-.99,13.563,13.563,0,0,0-2.607.872l-.864.432.856-.448a13.352,13.352,0,0,1,2.607-.887,16.7,16.7,0,0,1,9.951.966,21.92,21.92,0,0,1,5.937,3.676,35.339,35.339,0,0,1,5.5,5.89c1.72,2.246,3.22,4.83,5.1,7.265a20.834,20.834,0,0,0,3.212,3.4,13.013,13.013,0,0,0,4.194,2.356,8.882,8.882,0,0,0,4.712.283,10.108,10.108,0,0,0,4.092-2.176c2.356-2,4.053-4.477,6.11-6.44a16.493,16.493,0,0,1,6.88-4.021,21.268,21.268,0,0,1,6.927-.887,32.364,32.364,0,0,1,9.864,2.034C506.852,201.385,508.046,201.966,508.046,201.966Z" transform="translate(-142.613 -95.679)"/>
      <path id="Trazado_1718" data-name="Trazado 1718" class="cls-8" d="M474,203.653a4.964,4.964,0,0,1-1.241-.047,7.72,7.72,0,0,1-3.142-1.288,14.364,14.364,0,0,1-3.479-3.613,59.528,59.528,0,0,0-3.644-4.948,30.387,30.387,0,0,0-8.686-6.911,31.521,31.521,0,0,0-3.079-1.414L449.6,185s.424.134,1.178.408a29.719,29.719,0,0,1,3.087,1.4,30.025,30.025,0,0,1,8.725,6.9,58.645,58.645,0,0,1,3.644,4.956,14.428,14.428,0,0,0,3.448,3.613,7.791,7.791,0,0,0,3.087,1.3,7.063,7.063,0,0,0,.911.079Z" transform="translate(-147.107 -95.073)"/>
      <path id="Trazado_1719" data-name="Trazado 1719" class="cls-8" d="M519.776,199.338a2.728,2.728,0,0,1-.243-.134c-.149-.086-.377-.228-.675-.385a22.969,22.969,0,0,0-21.056-.668,22.83,22.83,0,0,0-2.513,1.4c-.291.181-.5.338-.66.432l-.228.149s.3-.228.864-.6a22.3,22.3,0,0,1,2.513-1.422,22.541,22.541,0,0,1,18.5-.581,21.2,21.2,0,0,1,2.592,1.264A7.642,7.642,0,0,1,519.776,199.338Z" transform="translate(-156.722 -97.394)"/>
      <path id="Trazado_1720" data-name="Trazado 1720" class="cls-8" d="M505.384,202.762s-.039-.11-.094-.314-.149-.487-.259-.84a21.924,21.924,0,0,0-1.107-2.686,20.338,20.338,0,0,0-1.484-2.5c-.212-.306-.385-.55-.51-.715s-.188-.259-.188-.259a10.322,10.322,0,0,1,.746.942,18.34,18.34,0,0,1,2.6,5.2,10.481,10.481,0,0,1,.3,1.17Z" transform="translate(-158.298 -97.316)"/>
      <path id="Trazado_1721" data-name="Trazado 1721" class="cls-8" d="M516.7,195.47s.047.432.063,1.147a18.066,18.066,0,0,1-.189,2.757,18.269,18.269,0,0,1-.6,2.7c-.212.675-.385,1.076-.385,1.076a.791.791,0,0,1,.086-.291c.086-.188.165-.542.243-.785a22.775,22.775,0,0,0,.573-2.7,20.412,20.412,0,0,0,.2-2.741V195.47Z" transform="translate(-161.27 -97.32)"/>
      <path id="Trazado_1722" data-name="Trazado 1722" class="cls-8" d="M492.575,211.011a9.88,9.88,0,0,1-.919-.581,15.6,15.6,0,0,1-2-1.7,15.2,15.2,0,0,1-1.712-1.987,10.539,10.539,0,0,1-.581-.927s.071.086.173.243.259.377.456.652a16.726,16.726,0,0,0,1.689,1.987,17.276,17.276,0,0,0,1.979,1.712l.652.456Z" transform="translate(-155.211 -99.541)"/>
      <path id="Trazado_1723" data-name="Trazado 1723" class="cls-8" d="M478.446,207.794a6.031,6.031,0,0,1-.189-.785,9.16,9.16,0,0,1-.1-2.018A8.953,8.953,0,0,1,478.5,203a5.8,5.8,0,0,1,.291-.785,2.043,2.043,0,0,1-.063.22c-.047.134-.1.33-.173.581a10.206,10.206,0,0,0-.322,1.987,10.367,10.367,0,0,0,.079,2c.039.259.071.463.1.6a1.133,1.133,0,0,1,.031.188Z" transform="translate(-153.232 -98.767)"/>
      <path id="Trazado_1724" data-name="Trazado 1724" class="cls-8" d="M477.958,219.745a12.842,12.842,0,0,1-.581-1.272,19.761,19.761,0,0,1-.966-3.244,18.551,18.551,0,0,1-.361-3.361,13.869,13.869,0,0,1,.047-1.4v1.437a21.328,21.328,0,0,0,.393,3.346,20.193,20.193,0,0,0,.935,3.236c.157.4.291.723.385.942Z" transform="translate(-152.783 -100.539)"/>
      <path id="Trazado_1725" data-name="Trazado 1725" class="cls-8" d="M490.224,201.45a6.21,6.21,0,0,0,.141.613c.126.322.314.542.291.558a1.107,1.107,0,0,1-.361-.534A1.052,1.052,0,0,1,490.224,201.45Z" transform="translate(-155.822 -98.603)"/>
      <path id="Trazado_1726" data-name="Trazado 1726" class="cls-8" d="M467.737,197.71l-.51.283c-.33.173-.785.44-1.374.785a27.92,27.92,0,0,0-7.736,6.966c-.4.534-.715.982-.919,1.288s-.338.479-.338.479a20.491,20.491,0,0,1,1.217-1.8,26.389,26.389,0,0,1,7.744-6.982,20.542,20.542,0,0,1,1.916-1.021Z" transform="translate(-148.665 -97.801)"/>
      <path id="Trazado_1727" data-name="Trazado 1727" class="cls-8" d="M455.527,187.68l-.487.118c-.322.071-.785.189-1.335.338a28.594,28.594,0,0,0-4.257,1.571,27.79,27.79,0,0,0-3.927,2.223c-.479.33-.864.6-1.123.785l-.408.291s.542-.471,1.5-1.139a26.293,26.293,0,0,1,3.927-2.254,27.486,27.486,0,0,1,4.28-1.571C454.813,187.79,455.527,187.68,455.527,187.68Z" transform="translate(-145.903 -95.648)"/>
      <path id="Trazado_1728" data-name="Trazado 1728" class="cls-8" d="M540.226,205.3a1.917,1.917,0,0,1-.078.487,1.381,1.381,0,0,1-.157.463,1.571,1.571,0,0,1,.078-.487A1.382,1.382,0,0,1,540.226,205.3Z" transform="translate(-166.507 -99.43)"/>
      <path id="Trazado_1729" data-name="Trazado 1729" class="cls-13" d="M584.375,204.85s3.55.738,5.058,1.068c.495.11,1,0,1.492.118a18.291,18.291,0,0,0,6.558-.118c1.5-.55,1.571,1.367-.055,2.191a8.223,8.223,0,0,1-2.615.919l3.927,3.142a1.052,1.052,0,0,1,.377.652l1,6.911a1.186,1.186,0,0,1-.785,1.367.581.581,0,0,1-.785-.267l.11.927a1.219,1.219,0,1,1-2.4.408.173.173,0,0,1,0-.063l-1.374.785s-.911.942-1.893-.369c-.785-1.084-3.244-5.388-3.244-5.388s-10.351-4.359-10.21-6.1Z" transform="translate(-174.993 -99.333)"/>
      <path id="Trazado_1730" data-name="Trazado 1730" class="cls-15" d="M599.74,224.173a10.765,10.765,0,0,1-.283-1.673c-.157-1.021-.456-2.458-.66-4.029-.141-.785-.322-1.531-.495-2.152a1.248,1.248,0,0,0-.558-.644l-.723-.456a7.336,7.336,0,0,1-1.382-.99,6.534,6.534,0,0,1,1.571.738l.746.416a1.571,1.571,0,0,1,.738.785,18.794,18.794,0,0,1,.542,2.223c.212,1.571.455,3.008.55,4.06A5.628,5.628,0,0,1,599.74,224.173Z" transform="translate(-178.451 -101.346)"/>
      <path id="Trazado_1731" data-name="Trazado 1731" class="cls-15" d="M602.593,222.584c-.165,0-.424-2.482-1.06-5.5a4.783,4.783,0,0,0-.66-1.948,12.245,12.245,0,0,0-1.272-1.194,6.794,6.794,0,0,0-.958-.675c-.243-.134-.393-.165-.393-.2s.173-.047.456.047a4.5,4.5,0,0,1,1.068.6,9.508,9.508,0,0,1,1.374,1.17,4.633,4.633,0,0,1,.785,2.113,29.934,29.934,0,0,1,.589,3.927A7.853,7.853,0,0,1,602.593,222.584Z" transform="translate(-179.011 -101.093)"/>
      <path id="Trazado_1732" data-name="Trazado 1732" class="cls-15" d="M593,216.86a5.074,5.074,0,0,1,1.351.636l.66.361a2.31,2.31,0,0,1,.785.55,2.231,2.231,0,0,1,.44.911c.094.322.2.652.306.982a32.153,32.153,0,0,1,1.3,4.932,31.861,31.861,0,0,1-1.689-4.8l-.291-.982a2.018,2.018,0,0,0-.353-.785,2.073,2.073,0,0,0-.628-.487l-.628-.408A5.341,5.341,0,0,1,593,216.86Z" transform="translate(-177.884 -101.911)"/>
      <path id="Trazado_1733" data-name="Trazado 1733" class="cls-15" d="M593.35,207.343c.047-.157,1.516.416,3.141,1.367a9.863,9.863,0,0,1,2.765,2.042,30.956,30.956,0,0,1-2.969-1.689l-2.081-1.209a4.438,4.438,0,0,1-.856-.51Z" transform="translate(-177.959 -99.863)"/>
    </g>
  </g>
</svg>
