<svg xmlns="http://www.w3.org/2000/svg" width="20" height="20" viewBox="0 0 20 20">
  <g id="message" transform="translate(2 4.158)">
    <rect id="Rectángulo_925" data-name="Rectángulo 925" width="20" height="20" transform="translate(-2 -4.158)" fill="none"/>
    <g id="Grupo_1875" data-name="Grupo 1875" transform="translate(-1 -1.158)">
      <path id="Trazado_138" data-name="Trazado 138" d="M18.316.765v0a.749.749,0,0,0-.034-.211c0-.008,0-.016,0-.024s-.007-.012-.01-.019a.745.745,0,0,0-.1-.187C18.166.312,18.158.3,18.151.3a.758.758,0,0,0-.135-.134l-.024-.02a.762.762,0,0,0-.184-.094L17.767.035A.73.73,0,0,0,17.553,0H.763A.759.759,0,0,0,.549.034L.506.047A.762.762,0,0,0,.323.141C.314.147.307.154.3.161A.76.76,0,0,0,.164.3C.157.3.149.312.142.322a.775.775,0,0,0-.1.187C.044.515.039.52.037.527s0,.016,0,.024A.767.767,0,0,0,0,.763v0H0V12.974a.763.763,0,0,0,.763.763H3.053a.763.763,0,1,0,0-1.526H1.526V2.262L8.709,7.486a.763.763,0,0,0,.9,0l7.183-5.223v9.948H6.105a.763.763,0,0,0,0,1.526H17.553a.763.763,0,0,0,.763-.763V.766ZM9.158,5.925,3.11,1.526h12.1Zm0,0" fill="#f83f00"/>
      <path id="Trazado_139" data-name="Trazado 139" d="M227.816,193.526a.763.763,0,0,0,0-1.526h-3.053a.763.763,0,0,0,0,1.526Zm0,0" transform="translate(-213.316 -182.842)" fill="#f83f00"/>
    </g>
  </g>
</svg>
