<svg id="news" xmlns="http://www.w3.org/2000/svg" width="16" height="16" viewBox="0 0 16 16">
  <path id="Trazado_4539" data-name="Trazado 4539" d="M13.667,16H2.5A2.5,2.5,0,0,1,0,13.5V1.833A1.835,1.835,0,0,1,1.833,0h8.333A1.835,1.835,0,0,1,12,1.833V2h2.167A1.835,1.835,0,0,1,16,3.833V13.5a2.5,2.5,0,0,1-2.2,2.482A.483.483,0,0,1,13.667,16ZM12,3V13.5a1.5,1.5,0,0,0,3,0V3.833A.834.834,0,0,0,14.167,3ZM1.833,1A.834.834,0,0,0,1,1.833V13.5A1.5,1.5,0,0,0,2.5,15h9a2.487,2.487,0,0,1-.5-1.5V1.833A.834.834,0,0,0,10.167,1Z" fill="#f83f00"/>
  <path id="Trazado_4540" data-name="Trazado 4540" d="M6.5,7h-3A.5.5,0,0,1,3,6.5v-3A.5.5,0,0,1,3.5,3h3a.5.5,0,0,1,.5.5v3A.5.5,0,0,1,6.5,7ZM4,6H6V4H4Z" transform="translate(-1 -1)" fill="#f83f00"/>
  <path id="Trazado_4541" data-name="Trazado 4541" d="M13.167,5H11.5a.5.5,0,1,1,0-1h1.667a.5.5,0,1,1,0,1Z" transform="translate(-3.667 -1.333)" fill="#f83f00"/>
  <path id="Trazado_4542" data-name="Trazado 4542" d="M13.167,8H11.5a.5.5,0,0,1,0-1h1.667a.5.5,0,0,1,0,1Z" transform="translate(-3.667 -2.333)" fill="#f83f00"/>
  <path id="Trazado_4543" data-name="Trazado 4543" d="M10.5,12h-7a.5.5,0,0,1,0-1h7a.5.5,0,0,1,0,1Z" transform="translate(-1 -3.667)" fill="#f83f00"/>
  <path id="Trazado_4544" data-name="Trazado 4544" d="M10.5,15.75h-7a.5.5,0,0,1,0-1h7a.5.5,0,0,1,0,1Z" transform="translate(-1 -4.917)" fill="#f83f00"/>
  <path id="Trazado_4545" data-name="Trazado 4545" d="M10.5,19.5h-7a.5.5,0,0,1,0-1h7a.5.5,0,0,1,0,1Z" transform="translate(-1 -6.167)" fill="#f83f00"/>
</svg>
