<svg xmlns="http://www.w3.org/2000/svg" width="16" height="15.917" viewBox="0 0 16 15.917">
  <g id="phone-call" transform="translate(-394.08 -603.398)">
    <rect id="Rectángulo_921" data-name="Rectángulo 921" width="16" height="15.917" transform="translate(394.08 603.398)" fill="none"/>
    <path id="phone-call-2" data-name="phone-call" d="M11.3,13.826a2.429,2.429,0,0,0,1.539-.478,3.153,3.153,0,0,0,.983-2.625,2.232,2.232,0,0,0-1.863-2.211,7.891,7.891,0,0,1-1-.235,1.622,1.622,0,0,0-1.626.4l-.59.586a.537.537,0,0,1-.657.085A11.107,11.107,0,0,1,4.477,5.732a.536.536,0,0,1,.084-.656l.589-.593a1.622,1.622,0,0,0,.4-1.625,7.872,7.872,0,0,1-.235-1A2.232,2.232,0,0,0,3.1,0,3.153,3.153,0,0,0,.478.983,3.029,3.029,0,0,0,.155,3.667,13.461,13.461,0,0,0,2.79,8.937a.54.54,0,1,0,.839-.681A12.372,12.372,0,0,1,1.2,3.411v0A2.055,2.055,0,0,1,1.33,1.648,2.186,2.186,0,0,1,3.1,1.08a1.155,1.155,0,0,1,1.145.962,8.963,8.963,0,0,0,.267,1.133.544.544,0,0,1-.132.546L3.8,4.314a1.614,1.614,0,0,0-.244,1.975,12.236,12.236,0,0,0,3.985,3.985,1.614,1.614,0,0,0,1.976-.246l.59-.586a.545.545,0,0,1,.548-.133,8.982,8.982,0,0,0,1.133.267,1.155,1.155,0,0,1,.962,1.145,2.186,2.186,0,0,1-.568,1.774,2.055,2.055,0,0,1-1.759.127A12.687,12.687,0,0,1,5.705,10.3a.54.54,0,0,0-.667.85,13.776,13.776,0,0,0,5.119,2.524A4.758,4.758,0,0,0,11.3,13.826Zm0,0" transform="translate(395.254 604.398)" fill="#f83f00"/>
  </g>
</svg>
