<svg xmlns="http://www.w3.org/2000/svg" width="312.839" height="300" viewBox="0 0 312.839 300">
  <g id="questions-pana" transform="translate(-29.23 -40.687)">
    <g id="freepik--background-complete--inject-31" transform="translate(41.631 40.687)">
      <path id="Trazado_4553" data-name="Trazado 4553" d="M270.488,428.326c-12.215-5.782-17.082-19.527-18.8-32.33-.29-2.126-.9-4.336-.205-6.377s2.834-3.706,4.889-3.132c1.708.475,2.707,2.189,3.847,3.543A12.513,12.513,0,0,0,266,393.942c1.474.475,3.224.623,4.435-.34,1.658-1.325,1.417-3.89,1.077-6q-1.042-5.874-2.041-11.747a20.009,20.009,0,0,1-.418-6.377,6.58,6.58,0,0,1,3.365-5.13c1.913-.879,4.6-.163,5.371,1.835a20.085,20.085,0,0,1,.51,2.614,2.258,2.258,0,0,0,1.651,1.878c.871.106,1.63-.638,2.161-1.368a28.623,28.623,0,0,0,3.755-8.467,39.5,39.5,0,0,1,3.372-8.658,11.7,11.7,0,0,1,7.007-5.668c3-.708,6.54.638,7.794,3.479s.042,6.164-1.417,8.9a47.956,47.956,0,0,1-8.283,11.01,3.947,3.947,0,0,0-1.346,2.04c-.22,1.488,1.353,2.664,2.834,2.891,1.658.255,3.344-.2,5.023-.283s3.585.34,4.478,1.793c1.226,2.012-.2,4.584-1.722,6.377a41.093,41.093,0,0,1-10.791,8.927,13.787,13.787,0,0,0-4.081,2.912c-1.07,1.3-1.5,3.33-.5,4.69s3.04,1.509,4.612.928a29.446,29.446,0,0,0,4.336-2.551c2.721-1.587,6.5-2.026,8.793.17a6.773,6.773,0,0,1,1.708,5.8,15.539,15.539,0,0,1-2.317,5.76,41.278,41.278,0,0,1-15.29,15.134c-6.341,3.472-12.477,5.165-19.583,3.847" transform="translate(-106.319 -129.775)" fill="#f5f5f5"/>
      <path id="Trazado_4554" data-name="Trazado 4554" d="M281.17,420.312a191.908,191.908,0,0,1,4.067-21.659l1.36-5.619c.446-1.849.893-3.677,1.417-5.434a96.377,96.377,0,0,1,3.727-9.919c1.339-3.1,2.721-6.008,4.031-8.708s2.593-5.193,3.854-7.411a75.806,75.806,0,0,1,6.717-10.033c.886-1.119,1.6-1.963,2.09-2.529.234-.269.425-.482.56-.645s.2-.213.205-.205a2.115,2.115,0,0,1-.17.234l-.538.666c-.468.581-1.162,1.417-2.026,2.572a80.538,80.538,0,0,0-6.6,10.082c-1.24,2.225-2.5,4.719-3.8,7.418s-2.664,5.6-3.989,8.708a95.264,95.264,0,0,0-3.684,9.919c-.546,1.75-.985,3.543-1.417,5.413l-1.36,5.626a196.311,196.311,0,0,0-4.088,21.61" transform="translate(-115.067 -130.306)" fill="#e0e0e0"/>
      <path id="Trazado_4555" data-name="Trazado 4555" d="M288.111,394.439a4.105,4.105,0,0,1-.361-.871c-.212-.56-.489-1.417-.815-2.416-.652-2.055-1.46-4.924-2.338-8.084s-1.722-6.015-2.409-8.049c-.34-1.02-.623-1.849-.822-2.409a5.22,5.22,0,0,1-.276-.9,4.139,4.139,0,0,1,.418.843c.248.546.567,1.36.942,2.367.758,2.026,1.644,4.867,2.529,8.042s1.63,5.952,2.225,8.106c.276.978.5,1.8.709,2.458a5.339,5.339,0,0,1,.2.914Z" transform="translate(-115.043 -137.174)" fill="#e0e0e0"/>
      <path id="Trazado_4556" data-name="Trazado 4556" d="M317.316,390.13a5.35,5.35,0,0,1-1.063.319c-.708.177-1.679.432-2.9.786-2.444.709-5.781,1.757-9.416,3.1s-6.873,2.714-9.211,3.762c-1.162.517-2.09.964-2.735,1.268a6.166,6.166,0,0,1-1.013.439,5.314,5.314,0,0,1,.942-.581c.624-.347,1.538-.829,2.685-1.417,2.288-1.119,5.519-2.529,9.161-3.883a95.691,95.691,0,0,1,9.487-3c1.233-.326,2.239-.538,2.94-.673A6.05,6.05,0,0,1,317.316,390.13Z" transform="translate(-117.926 -142.543)" fill="#e0e0e0"/>
      <path id="Trazado_4557" data-name="Trazado 4557" d="M273.472,435.906a1.848,1.848,0,0,1-.241-.3l-.631-.9c-.546-.793-1.3-1.948-2.218-3.394-1.842-2.891-4.251-6.965-6.851-11.5s-4.96-8.623-6.752-11.542l-2.126-3.465-.567-.942a1.352,1.352,0,0,1-.177-.34,2.7,2.7,0,0,1,.241.3c.149.205.383.538.631.907.545.786,1.3,1.941,2.225,3.394,1.835,2.891,4.251,6.958,6.852,11.492s4.96,8.623,6.745,11.549l2.126,3.458c.227.376.418.709.567.942a1.312,1.312,0,0,1,.177.347Z" transform="translate(-107.121 -146.446)" fill="#e0e0e0"/>
      <path id="Trazado_4558" data-name="Trazado 4558" d="M315.645,424.18a1.315,1.315,0,0,1-.333.213l-.985.524-3.656,1.906c-3.089,1.615-7.326,3.89-12,6.377s-8.934,4.761-12.045,6.306c-1.559.772-2.834,1.417-3.713,1.793l-1.063.468a1.645,1.645,0,0,1-.368.142,1.527,1.527,0,0,1,.333-.213l.992-.524,3.656-1.913c3.082-1.608,7.319-3.883,12-6.377s8.941-4.754,12.045-6.3c1.559-.772,2.834-1.417,3.713-1.793l1.02-.468A1.415,1.415,0,0,1,315.645,424.18Z" transform="translate(-115.157 -152.468)" fill="#e0e0e0"/>
      <path id="Trazado_4559" data-name="Trazado 4559" d="M148.775,247.342s-8.417,1.169-3.691,19.6,8.736,27.944,8.736,27.944.631,4.173-2.735,4.046-10.231-2.834-12.562.772c-2.409,3.769-.3,8.3,4.96,13.058s16.466,15.587,17.472,16.572,1.743,3.011-.567,3.288-18.691-1.644-19.13,6.185,16.445,18.655,18.266,19.874,2.126,2.168,1.7,3.231-5.852-.106-10.536-.468-10.181.057-10.061,4.591,8.991,16.012,34.852,24.543l12.25,3.167,9.048-8.913c18.209-20.257,20.2-34.618,18.053-38.614s-7.085-1.622-11.01,1.013-8.035,6.377-8.913,5.668-1.105-1.686-.128-3.649,10.252-19.746,5.973-26.322-17.543,3.217-19.669,4.117-2.508-1.24-2.126-2.572,4.7-16.3,6.929-23.062,1.8-11.74-2.168-13.809c-3.826-1.991-8.424,3.791-11.287,5.576s-4.379-2.126-4.379-2.126-1.247-10.238-6.306-28.589-13.129-15.063-13.129-15.063" transform="translate(-73.199 -100.875)" fill="#ebebeb"/>
      <path id="Trazado_4560" data-name="Trazado 4560" d="M194.084,403.662c-3.663-13.462-9.778-37.552-15.127-58.233s-10.21-39.33-13.809-52.834c-1.8-6.745-3.259-12.2-4.251-15.991-.5-1.878-.886-3.344-1.155-4.35l-.3-1.134c-.064-.255-.085-.39-.085-.39s.05.12.128.376.184.645.326,1.127c.29,1.006.709,2.459,1.233,4.329,1.063,3.762,2.565,9.211,4.393,15.956,3.663,13.462,8.573,32.174,13.922,52.813s11.414,44.75,15.014,58.254" transform="translate(-79.561 -107.74)" fill="#e0e0e0"/>
      <path id="Trazado_4561" data-name="Trazado 4561" d="M152.27,327.26a4.571,4.571,0,0,1,.808.432c.5.3,1.226.751,2.126,1.318,1.764,1.141,4.166,2.777,6.781,4.627l6.674,4.761,2.033,1.417a4.023,4.023,0,0,1,.709.56,4.446,4.446,0,0,1-.815-.432c-.5-.3-1.226-.751-2.126-1.325-1.75-1.155-4.131-2.834-6.745-4.676L155,329.23l-2.041-1.417A4.156,4.156,0,0,1,152.27,327.26Z" transform="translate(-77.495 -124.217)" fill="#e0e0e0"/>
      <path id="Trazado_4562" data-name="Trazado 4562" d="M180.719,335.662c-.092-.057,3.061-5.151,7.036-11.379s7.284-11.23,7.376-11.173-3.061,5.158-7.043,11.386S180.811,335.7,180.719,335.662Z" transform="translate(-85.786 -120.093)" fill="#e0e0e0"/>
      <path id="Trazado_4563" data-name="Trazado 4563" d="M190.3,383.51a3.736,3.736,0,0,1,.673-.652l1.906-1.672c1.608-1.417,3.826-3.373,6.192-5.626s4.45-4.357,5.937-5.895c.709-.709,1.29-1.339,1.764-1.821a4.894,4.894,0,0,1,.708-.645,3.72,3.72,0,0,1-.567.744c-.383.461-.956,1.112-1.679,1.906-1.417,1.594-3.486,3.741-5.867,5.994s-4.62,4.194-6.277,5.555c-.836.709-1.516,1.219-2,1.58a4.329,4.329,0,0,1-.794.531Z" transform="translate(-88.58 -135.859)" fill="#e0e0e0"/>
      <path id="Trazado_4564" data-name="Trazado 4564" d="M161.05,379.89a3.542,3.542,0,0,1,.836.206l2.246.708c1.885.6,4.485,1.46,7.347,2.423s5.449,1.87,7.312,2.544l2.2.808a3.828,3.828,0,0,1,.786.347,3.267,3.267,0,0,1-.836-.2l-2.246-.709c-1.885-.6-4.485-1.46-7.347-2.43s-5.449-1.87-7.312-2.536l-2.2-.815A3.208,3.208,0,0,1,161.05,379.89Z" transform="translate(-80.054 -139.558)" fill="#e0e0e0"/>
      <path id="Trazado_4565" data-name="Trazado 4565" d="M164.43,420.94a5.631,5.631,0,0,1,1.07.269l2.877.879c2.423.758,5.76,1.828,9.445,3.04s7.007,2.317,9.409,3.146l2.834.992a7.237,7.237,0,0,1,1.027.418,5.613,5.613,0,0,1-1.077-.269l-2.877-.879c-2.423-.758-5.76-1.828-9.445-3.04s-7.007-2.324-9.4-3.146l-2.834-1A6.13,6.13,0,0,1,164.43,420.94Z" transform="translate(-81.039 -151.523)" fill="#e0e0e0"/>
      <path id="Trazado_4566" data-name="Trazado 4566" d="M201.24,423.977a6.327,6.327,0,0,1,.829-.843l2.345-2.2c1.977-1.863,4.7-4.449,7.624-7.39s5.512-5.668,7.369-7.652l2.2-2.352a7.525,7.525,0,0,1,.843-.836,6.272,6.272,0,0,1-.708.935c-.482.588-1.2,1.417-2.126,2.437-1.807,2.04-4.357,4.8-7.3,7.744s-5.668,5.505-7.709,7.319c-1.02.9-1.849,1.63-2.437,2.126A7.039,7.039,0,0,1,201.24,423.977Z" transform="translate(-91.768 -146.207)" fill="#e0e0e0"/>
      <path id="Trazado_4567" data-name="Trazado 4567" d="M90.8,81.213l-6.915-2.126s-1.814,5.81-7.879,4.031a5.874,5.874,0,0,1-4.3-5.264,6.462,6.462,0,0,1,2.232-5.477c1.778-1.573,4.9-2.529,9.3-.255L88.1,56.536,81.264,54.41,78.43,63.543S68.058,63.026,64.763,73.59c-3.153,10.111,5.179,15.29,9.062,16.5C76.772,91.012,87.124,93.449,90.8,81.213Z" transform="translate(-51.785 -44.687)" fill="#f5f5f5"/>
      <rect id="Rectángulo_753" data-name="Rectángulo 753" width="7.269" height="6.788" transform="translate(37.346 8.645) rotate(-162.67)" fill="#f5f5f5"/>
      <path id="Trazado_4568" data-name="Trazado 4568" d="M128.618,64.653l2.77-.709a2.43,2.43,0,0,1,1.793-3,2.324,2.324,0,0,1,2.551.857,2.558,2.558,0,0,1,.39,2.289c-.262.9-1.105,1.878-3.061,2.041l1.651,6.242,2.735-.709-.964-3.656a5.519,5.519,0,0,0,2.459-6.235c-1.063-4.053-4.96-4.031-6.5-3.628C131.254,58.425,127.279,59.778,128.618,64.653Z" transform="translate(-70.521 -45.726)" fill="#ebebeb"/>
      <rect id="Rectángulo_754" data-name="Rectángulo 754" width="2.889" height="2.697" transform="translate(65.1 27.599) rotate(-15.005)" fill="#ebebeb"/>
      <path id="Trazado_4569" data-name="Trazado 4569" d="M451.54,167.118l2.692.971a2.437,2.437,0,0,1,3.188-1.417,2.31,2.31,0,0,1,1.6,2.126,2.572,2.572,0,0,1-.978,2.126c-.709.588-1.977.907-3.677-.071l-2.2,6.072,2.664.964,1.289-3.543a5.534,5.534,0,0,0,5.576-3.727c1.417-3.939-1.778-6.129-3.287-6.674C457.251,163.49,453.212,162.35,451.54,167.118Z" transform="translate(-164.726 -76.482)" fill="#ebebeb"/>
      <rect id="Rectángulo_755" data-name="Rectángulo 755" width="2.877" height="2.685" transform="translate(286.999 101.656) rotate(19.91)" fill="#ebebeb"/>
      <path id="Trazado_4570" data-name="Trazado 4570" d="M47.815,205.729l5.668-2.2s-1.842-4.783,3.1-6.788a4.96,4.96,0,0,1,5.6,1.226,5.477,5.477,0,0,1,1.375,4.768c-.354,1.97-1.913,4.251-6.015,5.038l4.96,12.845,5.668-2.168-2.9-7.524a11.845,11.845,0,0,0,3.762-13.8c-3.224-8.332-11.471-7.383-14.638-6.157C51.938,191.913,43.833,195.718,47.815,205.729Z" transform="translate(-46.732 -84.258)" fill="#f5f5f5"/>
      <rect id="Rectángulo_756" data-name="Rectángulo 756" width="6.129" height="5.725" transform="translate(16.786 139.013) rotate(-21.07)" fill="#f5f5f5"/>
      <path id="Trazado_4571" data-name="Trazado 4571" d="M448.247,238.3l-4.039,1.552a3.682,3.682,0,0,1-2.2,4.811,3.542,3.542,0,0,1-3.968-.864,3.876,3.876,0,0,1-.971-3.38c.255-1.417,1.36-3,4.251-3.543l-3.472-9.133-4,1.537,2.055,5.335a8.353,8.353,0,0,0-2.664,9.778c2.274,5.9,8.1,5.236,10.366,4.365C445.328,248.082,451.067,245.389,448.247,238.3Z" transform="translate(-159.215 -95.209)" fill="#f5f5f5"/>
      <rect id="Rectángulo_757" data-name="Rectángulo 757" width="4.343" height="4.053" transform="translate(277.904 130.657) rotate(158.93)" fill="#f5f5f5"/>
    </g>
    <g id="freepik--Floor--inject-31" transform="translate(29.23 340.265)">
      <path id="Trazado_4572" data-name="Trazado 4572" d="M342.069,463.694c0,.106-70.037.184-156.413.184S29.23,463.8,29.23,463.694s70.023-.184,156.427-.184S342.069,463.6,342.069,463.694Z" transform="translate(-29.23 -463.51)" fill="#263238"/>
    </g>
    <g id="freepik--Plant--inject-31" transform="translate(46.91 217.316)">
      <path id="Trazado_4573" data-name="Trazado 4573" d="M81.43,416.265c.708-2.607-1.042-5.222-2.955-7.085s-4.2-3.578-5.2-6.079c-1.615-4.053.553-9.3-2.2-12.675-1.623-1.984-4.527-2.65-5.966-4.775a10.791,10.791,0,0,1-1.3-3.791,38.487,38.487,0,0,0-9.586-17.94,33.456,33.456,0,0,0,3.762,17.288c1.112,2.126,2.487,4.194,2.834,6.568.6,3.847-1.552,7.794-.6,11.591,1.084,4.322,5.937,7.22,6.164,11.669.2,3.762-3.082,7.085-2.834,10.826a10.075,10.075,0,0,0,1.693,4.464c2.9,4.839,7.184,8.169,13.66,8.063l7.935.276Z" transform="translate(-54.183 -311.532)" fill="#f83f00"/>
      <g id="Grupo_871" data-name="Grupo 871" transform="translate(0 52.388)" opacity="0.3">
        <path id="Trazado_4574" data-name="Trazado 4574" d="M81.43,416.265c.708-2.607-1.042-5.222-2.955-7.085s-4.2-3.578-5.2-6.079c-1.615-4.053.553-9.3-2.2-12.675-1.623-1.984-4.527-2.65-5.966-4.775a10.791,10.791,0,0,1-1.3-3.791,38.487,38.487,0,0,0-9.586-17.94,33.456,33.456,0,0,0,3.762,17.288c1.112,2.126,2.487,4.194,2.834,6.568.6,3.847-1.552,7.794-.6,11.591,1.084,4.322,5.937,7.22,6.164,11.669.2,3.762-3.082,7.085-2.834,10.826a10.075,10.075,0,0,0,1.693,4.464c2.9,4.839,7.184,8.169,13.66,8.063l7.935.276Z" transform="translate(-54.183 -363.92)"/>
      </g>
      <path id="Trazado_4575" data-name="Trazado 4575" d="M100.921,423.6a6.375,6.375,0,0,0,2.189-.042,13.653,13.653,0,0,0,2.572-.652,11.019,11.019,0,0,0,3.188-1.743,4.407,4.407,0,0,0,1.311-1.75,8.268,8.268,0,0,0,.368-2.366,23.044,23.044,0,0,1,.191-2.565,6.935,6.935,0,0,1,.964-2.551c.935-1.644,2.494-3.2,2.99-5.434a18.909,18.909,0,0,0-.213-6.951c-.368-2.381-.708-4.96.184-7.454s2.593-4.726,3.465-7.517.461-5.866.645-8.863a11.691,11.691,0,0,1,1.034-4.407c.638-1.417,1.53-2.728,2.225-4.2,1.417-2.99,1.658-6.377,2.041-9.7.191-1.672.375-3.365.567-5.066a25.181,25.181,0,0,1,.886-5.08,45.449,45.449,0,0,1,1.9-4.91,17.074,17.074,0,0,0,.921-2.558,25.826,25.826,0,0,0,.255-2.735,32.458,32.458,0,0,0-.212-5.491c-.213-1.828-.546-3.642-.744-5.477v-.319l-.042-.361-.319.156a12.258,12.258,0,0,0-4.251,3.606,19.59,19.59,0,0,0-2.629,4.839c-1.325,3.408-1.8,6.979-2.466,10.387a28.633,28.633,0,0,1-3.259,9.593c-.871,1.417-1.927,2.707-2.834,4.081a11.18,11.18,0,0,0-1.97,4.52c-.475,3.358,1.375,6.306.992,9.282a10.266,10.266,0,0,1-1.417,4.116c-.709,1.268-1.566,2.444-2.374,3.62a23.213,23.213,0,0,0-2.126,3.663,11.529,11.529,0,0,0-.978,3.975c-.191,2.678.184,5.215,0,7.609a17.536,17.536,0,0,1-1.963,6.526c-.956,1.948-2.026,3.713-2.919,5.427-.446.85-.864,1.686-1.2,2.529a12.662,12.662,0,0,0-.708,2.508,15.73,15.73,0,0,0-.057,4.528,11.415,11.415,0,0,0,2.267,5.774,5.745,5.745,0,0,0,.645.708,3.223,3.223,0,0,0,.517.439c.3.22.453.319.453.319a9.867,9.867,0,0,1-1.537-1.516,11.443,11.443,0,0,1-2.126-5.739,15.651,15.651,0,0,1,.1-4.464,12.045,12.045,0,0,1,.709-2.444,25.865,25.865,0,0,1,1.212-2.494c.9-1.7,1.977-3.458,2.955-5.42a17.713,17.713,0,0,0,2.026-6.639c.213-2.444-.156-5,.043-7.6a11.378,11.378,0,0,1,.957-3.847,23.1,23.1,0,0,1,2.126-3.585c.808-1.176,1.665-2.352,2.4-3.649a10.628,10.628,0,0,0,1.516-4.287c.383-3.167-1.452-6.129-.978-9.253a10.862,10.862,0,0,1,1.906-4.322c.9-1.353,1.963-2.643,2.834-4.1a28.521,28.521,0,0,0,3.337-9.749,58.116,58.116,0,0,1,2.451-10.309,19.069,19.069,0,0,1,2.558-4.7,11.756,11.756,0,0,1,4.088-3.458l-.361-.205a1.047,1.047,0,0,0,.035.326c.2,1.856.531,3.67.709,5.484a31.427,31.427,0,0,1,.205,5.406,26.492,26.492,0,0,1-.241,2.65,15.946,15.946,0,0,1-.893,2.473,46.781,46.781,0,0,0-1.913,4.96,25.722,25.722,0,0,0-.893,5.158c-.184,1.707-.376,3.4-.56,5.073-.383,3.337-.631,6.667-1.984,9.551-.709,1.417-1.559,2.77-2.218,4.216a12.123,12.123,0,0,0-1.063,4.57c-.177,3.061.22,6.058-.609,8.764s-2.551,4.96-3.422,7.517a15.8,15.8,0,0,0-.17,7.638c.383,2.374.765,4.712.255,6.816s-1.97,3.677-2.919,5.363a7.221,7.221,0,0,0-.985,2.657,22.315,22.315,0,0,0-.17,2.593,7.935,7.935,0,0,1-.34,2.31,4.173,4.173,0,0,1-1.226,1.665,10.919,10.919,0,0,1-3.11,1.757,13.738,13.738,0,0,1-2.544.708,9.741,9.741,0,0,1-1.608.156C101.113,423.6,100.921,423.6,100.921,423.6Z" transform="translate(-66.66 -300.307)" fill="#263238"/>
      <path id="Trazado_4576" data-name="Trazado 4576" d="M127.62,332.1a.85.85,0,0,0-.078.241l-.17.708c-.156.631-.347,1.573-.645,2.749s-1.027,2.508-1.644,4.145a59.151,59.151,0,0,0-1.885,5.626c-.609,2.126-1.141,4.464-1.708,6.986a29.383,29.383,0,0,1-2.537,7.744,42.416,42.416,0,0,0-1.963,4.024,18.456,18.456,0,0,0-1.141,4.549,92.877,92.877,0,0,1-1.715,9.6c-1.587,6.5-3.1,12.69-4.485,18.329s-2.685,10.684-3.762,14.95-1.892,7.666-2.487,10.1c-.276,1.162-.5,2.076-.652,2.749-.064.29-.12.524-.163.708a1.31,1.31,0,0,0,0,.248.927.927,0,0,0,.092-.234c.05-.191.12-.418.205-.708.177-.659.425-1.573.744-2.728.638-2.409,1.537-5.831,2.65-10.047s2.409-9.317,3.861-14.921,2.926-11.839,4.527-18.344a88.368,88.368,0,0,0,1.672-9.629,18.3,18.3,0,0,1,1.105-4.443c.56-1.417,1.275-2.685,1.927-3.989a28.938,28.938,0,0,0,2.536-7.865c.56-2.5,1.056-4.867,1.637-6.979s1.19-4,1.8-5.626a43.1,43.1,0,0,0,1.573-4.194c.29-1.219.425-2.126.553-2.777q.071-.439.128-.708C127.62,332.185,127.634,332.1,127.62,332.1Z" transform="translate(-68.29 -302.257)" fill="#263238"/>
      <path id="Trazado_4577" data-name="Trazado 4577" d="M92.732,413.312c5.179-3.082,6.667-12.434,4.506-18.06s-5.944-10.77-6.525-16.771c-.453-4.612,1.063-9.345,0-13.852-1.452-6.086-7.39-10.8-7.319-17.054.035-3.507,2.033-6.809,1.87-10.316-.191-4.294-3.493-7.709-5.534-11.492-3.132-5.8-3.337-12.654-4.407-19.13s-3.543-13.462-9.31-16.657c-.85,5.519-2.3,9.3-1.849,16.778.17,2.685,3.288,7.794,3.713,13.71.255,3.543.425,7.043.645,10.557s.432,6.915,1.658,10.118c.942,2.459,2.451,4.69,3.153,7.227,1.311,4.768-.418,9.919.645,14.766.9,4.1,3.734,7.617,4.315,11.768.808,5.831-2.962,11.9-1.034,17.458.964,2.763,3.231,4.96,3.876,7.829.5,2.211-.042,4.556.411,6.773.709,3.585,7.553,6.377,11.2,6.143" transform="translate(-57.067 -289.98)" fill="#f83f00"/>
      <path id="Trazado_4578" data-name="Trazado 4578" d="M68.807,297.67a1.676,1.676,0,0,0,0,.312c0,.234.071.531.113.907.12.8.255,1.97.524,3.486s1.077,3.231,1.7,5.3,1.318,4.435,1.9,7.085,1.091,5.6,1.608,8.771a35.842,35.842,0,0,0,2.657,9.919c.709,1.651,1.545,3.309,2.126,5.08a22.919,22.919,0,0,1,1.091,5.6,112.028,112.028,0,0,0,1.523,12.045c1.587,8.176,3.1,15.963,4.471,23.055S89.276,392.647,90.381,398s2.012,9.636,2.643,12.654l.709,3.436c.085.368.149.659.205.886a1.768,1.768,0,0,0,.085.3,1.3,1.3,0,0,0,0-.312c-.043-.234-.092-.524-.156-.9-.156-.822-.376-1.984-.652-3.457-.6-3.025-1.417-7.347-2.487-12.682s-2.338-11.733-3.748-18.8-2.834-14.879-4.428-23.048a113.014,113.014,0,0,1-1.53-12.045,23.254,23.254,0,0,0-1.127-5.711c-.631-1.8-1.46-3.465-2.189-5.108a36.014,36.014,0,0,1-2.664-9.8c-.538-3.153-1.056-6.115-1.672-8.779s-1.289-5.045-1.984-7.085-1.467-3.769-1.778-5.25-.461-2.671-.609-3.458c-.071-.368-.128-.666-.17-.9A2.408,2.408,0,0,0,68.807,297.67Z" transform="translate(-58.443 -292.221)" fill="#263238"/>
    </g>
    <g id="freepik--speech-bubble--inject-31" transform="translate(281.104 50.187)">
      <path id="Trazado_4579" data-name="Trazado 4579" d="M417.124,85.118H414.29a2.4,2.4,0,0,1-2.459,2.416,2.282,2.282,0,0,1-2.211-1.46,2.522,2.522,0,0,1,.2-2.281c.482-.794,1.53-1.509,3.429-1.176V76.24h-2.784v3.727a5.442,5.442,0,0,0-3.9,5.314c0,4.124,3.7,5.08,5.286,5.08C413.057,90.389,417.18,90.1,417.124,85.118Z" transform="translate(-391.088 -60.551)" fill="#f83f00"/>
      <rect id="Rectángulo_758" data-name="Rectángulo 758" width="2.827" height="2.643" transform="translate(22.181 14.4) rotate(180)" fill="#f83f00"/>
      <path id="Trazado_4580" data-name="Trazado 4580" d="M426.212,74.894a2.311,2.311,0,0,0,0-.361V73.484a6.056,6.056,0,0,0-.035-.772c-.035-.283-.078-.6-.128-.921s-.1-.709-.156-1.084l-.3-1.2a19.656,19.656,0,0,0-2.551-5.845,20.611,20.611,0,0,0-15.51-9.48,20.831,20.831,0,0,0-2.834-.057,7.222,7.222,0,0,0-1.417.092l-1.459.22a21.035,21.035,0,0,0-5.753,1.963,22.444,22.444,0,0,0-5.165,3.762,21.5,21.5,0,0,0-3.89,5.413,19.647,19.647,0,0,0-2.1,6.6,13.384,13.384,0,0,0-.149,1.764,14.912,14.912,0,0,0-.035,1.778,20.908,20.908,0,0,0,3.436,10.663v-.22c-.985,2.459-1.956,4.875-2.9,7.227l-.17.432.447-.128,7.723-2.126-.184-.043a20.675,20.675,0,0,0,8.842,3.869,18.422,18.422,0,0,0,4.52.276,13.793,13.793,0,0,0,2.175-.205l1.056-.163c.347-.064.708-.17,1.02-.248a20.667,20.667,0,0,0,11.776-8.07,19.718,19.718,0,0,0,2.53-4.8c.135-.376.262-.709.383-1.077s.184-.709.262-1.027.163-.645.234-.942.092-.588.135-.864c.064-.546.163-1.027.184-1.417s0-.765,0-1.063v-.864a.746.746,0,0,0,0,.22,3.325,3.325,0,0,1-.05.645c-.05.269-.043.645-.071,1.056s-.135.893-.22,1.417A20.547,20.547,0,0,1,410.617,94.7c-.333.078-.666.177-1.006.241l-1.042.156a14.12,14.12,0,0,1-2.125.191,18.869,18.869,0,0,1-4.435-.29,20.441,20.441,0,0,1-8.637-3.8l-.085-.071h-.106l-7.73,2.126.269.3,2.912-7.22.042-.113-.064-.106a20.379,20.379,0,0,1-2.919-6.936,20.768,20.768,0,0,1-.439-3.486,14.172,14.172,0,0,1,.035-1.736,11.61,11.61,0,0,1,.142-1.722,19.172,19.172,0,0,1,1.977-6.455,21.335,21.335,0,0,1,3.791-5.3,21.877,21.877,0,0,1,5.059-3.691,20.4,20.4,0,0,1,5.633-1.948l1.417-.22c.475-.071.949-.064,1.417-.1a21.185,21.185,0,0,1,2.77.05,20.391,20.391,0,0,1,15.325,9.211,19.618,19.618,0,0,1,2.593,5.753l.319,1.19c.064.376.12.709.177,1.063s.1.638.149.921.035.538.057.765a10.253,10.253,0,0,0,.078,1.042,1.2,1.2,0,0,0,.021.383Z" transform="translate(-384.723 -54.096)" fill="#263238"/>
    </g>
    <g id="freepik--question-mark--inject-31" transform="translate(94.343 77.806)">
      <path id="Trazado_4581" data-name="Trazado 4581" d="M145.066,169.812h40.917s0-34.356,35.7-34.965c18.542-.326,28.157,11.825,32.068,21.128,4.535,10.8,3.16,23.119-2.919,33.145-6.936,11.443-21.886,22.942-49.462,18.081l-.262,91.165h40.463V244.32s56.745-14.666,56.745-77.229c0-59.834-48.385-72.758-74.394-73.594-14.468-.461-19.711-1.084-37.608,1.46C163.509,98.216,144.584,124.7,145.066,169.812Z" transform="translate(-128.104 -93.077)" fill="#f83f00"/>
      <rect id="Rectángulo_759" data-name="Rectángulo 759" width="41.066" height="38.352" transform="translate(72.893 224.291)" fill="#f83f00"/>
      <rect id="Rectángulo_760" data-name="Rectángulo 760" width="41.066" height="38.352" transform="translate(72.893 224.291)" opacity="0.1"/>
      <path id="Trazado_4582" data-name="Trazado 4582" d="M145.066,169.812h40.917s0-34.356,35.7-34.965c18.542-.326,28.157,11.825,32.068,21.128,4.535,10.8,3.16,23.119-2.919,33.145-6.936,11.443-21.886,22.942-49.462,18.081l-.262,91.165h40.463V244.32s56.745-14.666,56.745-77.229c0-59.834-48.385-72.758-74.394-73.594-14.468-.461-19.711-1.084-37.608,1.46C163.509,98.216,144.584,124.7,145.066,169.812Z" transform="translate(-128.104 -93.077)" opacity="0.1"/>
      <path id="Trazado_4583" data-name="Trazado 4583" d="M121.137,169.929h40.924s0-34.356,35.7-34.965c18.542-.326,28.156,11.825,32.06,21.128,4.542,10.8,3.167,23.119-2.912,33.144-6.936,11.443-22.148,21.844-49.724,17v92.242h40.464V244.437S274.4,229.771,274.4,167.209c0-59.834-53.663-73.728-76.626-73.728C180.206,93.5,120.365,97.745,121.137,169.929Z" transform="translate(-121.13 -93.195)" fill="#f83f00"/>
      <path id="Trazado_4584" data-name="Trazado 4584" d="M121.137,169.929h40.924s0-34.356,35.7-34.965c18.542-.326,28.156,11.825,32.06,21.128,4.542,10.8,3.167,23.119-2.912,33.144-6.936,11.443-22.148,21.844-49.724,17v92.242h40.464V244.437S274.4,229.771,274.4,167.209c0-59.834-53.663-73.728-76.626-73.728C180.206,93.5,120.365,97.745,121.137,169.929Z" transform="translate(-121.13 -93.195)" opacity="0.3"/>
      <rect id="Rectángulo_761" data-name="Rectángulo 761" width="41.066" height="38.352" transform="translate(55.945 224.291)" fill="#f83f00"/>
      <rect id="Rectángulo_762" data-name="Rectángulo 762" width="41.066" height="38.352" transform="translate(55.945 224.291)" opacity="0.3"/>
      <path id="Trazado_4585" data-name="Trazado 4585" d="M219.123,152.105a3.545,3.545,0,0,1-.609,0c-.4,0-.985-.135-1.743-.142a35.346,35.346,0,0,0-6.419.269,45.474,45.474,0,0,0-9.26,2.175,39.626,39.626,0,0,0-5.158,2.225,27.264,27.264,0,0,0-5.052,3.266,24.967,24.967,0,0,0-4.131,4.365,42.768,42.768,0,0,0-3.1,4.69,41.941,41.941,0,0,0-3.663,8.771,35.675,35.675,0,0,0-1.233,6.306c-.085.751-.106,1.346-.128,1.743a3.227,3.227,0,0,1-.057.609,3.386,3.386,0,0,1,0-.609c0-.4,0-1,.064-1.757a32.589,32.589,0,0,1,1.127-6.377,40.81,40.81,0,0,1,3.613-8.871,42.422,42.422,0,0,1,3.11-4.74,24.8,24.8,0,0,1,4.18-4.428,27.466,27.466,0,0,1,5.115-3.309,39.68,39.68,0,0,1,5.194-2.267,44.507,44.507,0,0,1,9.345-2.126,32.591,32.591,0,0,1,6.455-.149,15.28,15.28,0,0,1,1.743.213A4.4,4.4,0,0,1,219.123,152.105Z" transform="translate(-137.87 -110.152)" fill="#263238"/>
      <path id="Trazado_4586" data-name="Trazado 4586" d="M294.4,127.907s-.05-.05-.135-.156-.212-.29-.354-.5l-1.353-1.913c-.29-.411-.6-.886-.971-1.375l-1.275-1.552-1.46-1.793c-.531-.623-1.155-1.226-1.778-1.885s-1.261-1.36-1.984-2.033-1.495-1.36-2.288-2.069c-.4-.354-.786-.709-1.212-1.084l-1.318-1.042c-.9-.709-1.793-1.417-2.763-2.126a89.068,89.068,0,0,0-13.412-7.921l-3.734-1.686-3.706-1.417c-1.211-.5-2.444-.857-3.635-1.254s-2.352-.8-3.543-1.077l-3.387-.886c-1.1-.29-2.189-.468-3.231-.709a29.456,29.456,0,0,0-3.032-.574l-2.834-.411c-1.793-.3-3.436-.368-4.868-.51-.708-.057-1.417-.135-2.005-.163l-1.686-.043-2.338-.078h-.815a.665.665,0,0,1,.205,0h4.641c.616,0,1.29.085,2.012.135,1.417.12,3.089.17,4.882.461l2.834.383c.985.113,1.991.368,3.04.56s2.126.39,3.252.709l3.4.879c1.176.269,2.338.709,3.543,1.07a29.908,29.908,0,0,1,3.642,1.247l3.727,1.417,3.755,1.693a86.839,86.839,0,0,1,13.462,7.978c.978.709,1.87,1.467,2.77,2.168l1.318.957c.425.354.815.709,1.212,1.091l2.281,2.126c.709.709,1.346,1.417,1.977,2.062s1.233,1.275,1.764,1.906l1.417,1.807,1.261,1.573c.361.5.666.978.949,1.417.553.829.985,1.481,1.29,1.948l.333.517A.815.815,0,0,1,294.4,127.907Z" transform="translate(-151.488 -93.244)" fill="#263238"/>
      <path id="Trazado_4587" data-name="Trazado 4587" d="M299.543,266a2.191,2.191,0,0,1-.3.425l-.978,1.155c-.4.517-.914,1.134-1.545,1.821s-1.3,1.495-2.126,2.331-1.7,1.771-2.7,2.714-2.083,1.934-3.238,2.969A88.482,88.482,0,0,1,272.1,288.828c-1.375.709-2.671,1.417-3.925,1.963s-2.423,1.105-3.5,1.559-2.069.829-2.933,1.162-1.622.6-2.246.8l-1.417.461a2.479,2.479,0,0,1-.51.142,2.525,2.525,0,0,1,.482-.213l1.417-.524c.616-.22,1.36-.5,2.218-.857s1.849-.709,2.912-1.212,2.239-.978,3.465-1.594,2.536-1.268,3.9-1.984c2.7-1.488,5.611-3.231,8.552-5.243a96.166,96.166,0,0,0,7.935-6.129c1.155-1.02,2.26-1.977,3.245-2.94s1.906-1.835,2.721-2.671,1.53-1.608,2.168-2.289,1.162-1.275,1.587-1.771l.992-1.127A3.224,3.224,0,0,1,299.543,266Z" transform="translate(-160.899 -143.481)" fill="#263238"/>
      <path id="Trazado_4588" data-name="Trazado 4588" d="M256.271,357.366c-.106,0-.191-11.379-.191-25.415s.085-25.422.191-25.422.184,11.379.184,25.422S256.371,357.366,256.271,357.366Z" transform="translate(-160.465 -155.295)" fill="#263238"/>
      <path id="Trazado_4589" data-name="Trazado 4589" d="M258.474,445.424c-.106,0-.184-7.985-.184-17.833s.078-17.84.184-17.84.184,7.985.184,17.84S258.573,445.424,258.474,445.424Z" transform="translate(-161.109 -185.382)" fill="#263238"/>
    </g>
    <g id="freepik--Character--inject-31" transform="translate(228.685 62.825)">
      <path id="Trazado_4590" data-name="Trazado 4590" d="M315.351,190.647c-.708,1.417,1.934,2.579,3.458,3.04a13.9,13.9,0,0,0,4.754.326,13.673,13.673,0,0,0,6.136-1.36,9.792,9.792,0,0,0,3.7-4.145,29.161,29.161,0,0,0,1.878-5.307S318.533,184.291,315.351,190.647Z" transform="translate(-312.05 -104.365)" fill="#f83f00"/>
      <g id="Grupo_872" data-name="Grupo 872" transform="translate(3.183 78.835)" opacity="0.4">
        <path id="Trazado_4591" data-name="Trazado 4591" d="M315.351,190.647c-.708,1.417,1.934,2.579,3.458,3.04a13.9,13.9,0,0,0,4.754.326,13.673,13.673,0,0,0,6.136-1.36,9.792,9.792,0,0,0,3.7-4.145,29.161,29.161,0,0,0,1.878-5.307S318.533,184.291,315.351,190.647Z" transform="translate(-315.233 -183.2)"/>
      </g>
      <path id="Trazado_4592" data-name="Trazado 4592" d="M381.691,185.285a16.069,16.069,0,0,0,9.452,2.962,6.682,6.682,0,0,0,4.5-1.417c.546-.5.956-1.141,1.516-1.623.383-.326.829-.574,1.19-.921a1.524,1.524,0,0,0,.517-1.346,2.786,2.786,0,0,0-.978-1.559c-1.92-1.091-4.216-1.049-6.426-1a22.112,22.112,0,0,0-6.483,1.268c-1.715.581-3.507,1.417-4.379,2.976" transform="translate(-331.103 -103.538)" fill="#f83f00"/>
      <g id="Grupo_873" data-name="Grupo 873" transform="translate(49.497 76.834)" opacity="0.4">
        <path id="Trazado_4593" data-name="Trazado 4593" d="M398.866,182.944a2.941,2.941,0,0,0-1.254-1.417,11.322,11.322,0,0,0-6.15-1.141,22.112,22.112,0,0,0-6.483,1.268c-1.715.581-3.507,1.417-4.379,2.976l1.091.659a16.069,16.069,0,0,0,9.452,2.962,6.682,6.682,0,0,0,4.5-1.417c.546-.5.956-1.141,1.516-1.623.383-.326.829-.574,1.19-.921A1.523,1.523,0,0,0,398.866,182.944Z" transform="translate(-380.6 -180.376)"/>
      </g>
      <path id="Trazado_4594" data-name="Trazado 4594" d="M328.637,197.783l35.32.468a.461.461,0,0,0,.439-.6l-4.145-12.923s.609-6.462,1.453-14.227c1.282-11.8,2.99-26.626,3.011-26.584C362.3,137.148,348.043,136,348.043,136l-16.246.964-.567-.957-4.676,2.175a21.345,21.345,0,0,0-2.933,1.658c-3.089,2.062-10.529,6.8-11.889,12.08-3.139,12.222,2.175,25.861,2.175,25.861l3.415-2.671a23.992,23.992,0,0,1,2.707-1.807l6.844,18.344A3.238,3.238,0,0,0,325.385,194a3.622,3.622,0,0,0,3.252,3.784" transform="translate(-310.74 -90.607)" fill="#f83f00"/>
      <g id="Grupo_874" data-name="Grupo 874" transform="translate(28.436 67.244)" opacity="0.3">
        <path id="Trazado_4595" data-name="Trazado 4595" d="M355.491,185.148c1.119-6.022.531-12.215-.071-18.308-1.956,4.96-1.885,10.628-3.961,15.545a6.656,6.656,0,0,0-.553,1.637,1.835,1.835,0,0,0,.468,1.6c.567.517,1.417.234,2.168.149a8.46,8.46,0,0,0,1.949-.623" transform="translate(-350.875 -166.84)"/>
      </g>
      <g id="Grupo_875" data-name="Grupo 875" transform="translate(19.576 95.003)" opacity="0.4">
        <path id="Trazado_4596" data-name="Trazado 4596" d="M338.816,210.512c2.834.985,5.852-.85,8.849-1.176a22.452,22.452,0,0,1,5.937.56,44.538,44.538,0,0,0,12.045.3,4.62,4.62,0,0,0,1.771-.461,2.126,2.126,0,0,0,.928-1.757c-6.674-.709-13.341-1.091-20.016-1.778a12.5,12.5,0,0,0-5,.163c-2.012.623-3.543,2.2-4.96,3.769" transform="translate(-338.37 -206.019)"/>
      </g>
      <path id="Trazado_4597" data-name="Trazado 4597" d="M396.333,170.655c-2.884-6.5-13.051-24.465-13.051-24.465l-7.872,9.87,1.835,19.378s4.159-4.641,15.786-4.733a5.668,5.668,0,0,1,4.322,2.281Z" transform="translate(-329.59 -93.577)" fill="#f83f00"/>
      <path id="Trazado_4598" data-name="Trazado 4598" d="M337.286,172.34a26.717,26.717,0,0,1-1.332-4.251,26.857,26.857,0,0,1-.964-4.329,28.111,28.111,0,0,1,1.325,4.251A27.367,27.367,0,0,1,337.286,172.34Z" transform="translate(-317.809 -98.698)" fill="#263238"/>
      <path id="Trazado_4599" data-name="Trazado 4599" d="M374.569,158.27a4.669,4.669,0,0,1,.708.616,20.537,20.537,0,0,1,1.757,1.927,18.711,18.711,0,0,1,3.762,7.694,14.512,14.512,0,0,1,.22,4.747c-.177,1.452-.453,2.728-.638,3.8s-.3,1.956-.354,2.565a4.749,4.749,0,0,1-.1.942,4.25,4.25,0,0,1-.042-.957,22.964,22.964,0,0,1,.241-2.593c.149-1.084.4-2.374.56-3.8a14.662,14.662,0,0,0-.248-4.634,19.535,19.535,0,0,0-3.606-7.609C375.533,159.234,374.512,158.327,374.569,158.27Z" transform="translate(-329.344 -97.098)" fill="#263238"/>
      <path id="Trazado_4600" data-name="Trazado 4600" d="M356.776,218.641a3.016,3.016,0,0,1-.772.227,6.9,6.9,0,0,1-.921.177c-.361.05-.772.128-1.233.149a17.764,17.764,0,0,1-3.245,0,20.952,20.952,0,0,1-3.9-.779,21.259,21.259,0,0,1-3.656-1.566,18.7,18.7,0,0,1-2.685-1.821c-.368-.283-.666-.581-.935-.829a8.145,8.145,0,0,1-.659-.666,2.775,2.775,0,0,1-.5-.624c.05-.05.808.8,2.26,1.913a20.384,20.384,0,0,0,2.685,1.729,22.525,22.525,0,0,0,3.6,1.509,22.2,22.2,0,0,0,3.826.794,20.973,20.973,0,0,0,3.188.1C355.65,218.854,356.762,218.584,356.776,218.641Z" transform="translate(-318.764 -113.024)" fill="#263238"/>
      <path id="Trazado_4601" data-name="Trazado 4601" d="M378.847,215.32a2.467,2.467,0,0,1,.276,1.034,6.377,6.377,0,0,1-.191,2.579,4.478,4.478,0,0,1-1.417,2.2c-.517.432-.914.567-.935.531s.312-.269.758-.708a5.017,5.017,0,0,0,1.212-2.126A12.735,12.735,0,0,0,378.847,215.32Z" transform="translate(-329.931 -113.727)" fill="#263238"/>
      <path id="Trazado_4602" data-name="Trazado 4602" d="M376.444,218.84a3.84,3.84,0,0,1-1.516,3.911c-.078-.078.581-.779.992-1.863S376.337,218.847,376.444,218.84Z" transform="translate(-329.448 -114.753)" fill="#263238"/>
      <path id="Trazado_4603" data-name="Trazado 4603" d="M367.121,185.94a15.046,15.046,0,0,1-1.261,1.814,14.513,14.513,0,0,1-1.24,1.828,4.542,4.542,0,0,1,.935-2.041A4.471,4.471,0,0,1,367.121,185.94Z" transform="translate(-326.445 -105.164)" fill="#263238"/>
      <path id="Trazado_4604" data-name="Trazado 4604" d="M329.077,159.88a17.787,17.787,0,0,1-1.566-1.034,20.115,20.115,0,0,0-8.368-3.125,15.788,15.788,0,0,1-1.863-.248,6.912,6.912,0,0,1,1.892,0,16.919,16.919,0,0,1,8.5,3.167A6.76,6.76,0,0,1,329.077,159.88Z" transform="translate(-312.646 -96.264)" fill="#263238"/>
      <path id="Trazado_4605" data-name="Trazado 4605" d="M383.958,145.86a30.634,30.634,0,0,0-3.543,3.351,30.467,30.467,0,0,0-2.685,4.1,4.323,4.323,0,0,1,.489-1.374,14.3,14.3,0,0,1,1.913-2.962,13.922,13.922,0,0,1,2.593-2.388,4.168,4.168,0,0,1,1.233-.723Z" transform="translate(-330.266 -93.481)" fill="#263238"/>
      <path id="Trazado_4606" data-name="Trazado 4606" d="M357.5,137.62a1.548,1.548,0,0,1,.156.326,6.311,6.311,0,0,1,.333.992,8.34,8.34,0,0,1,0,3.84,9.451,9.451,0,0,1-2.891,4.882,9.813,9.813,0,0,1-6.518,2.324,11.06,11.06,0,0,1-6.625-2.175,12.549,12.549,0,0,1-3.621-4.386,13.285,13.285,0,0,1-1.2-3.649A7.978,7.978,0,0,1,337,138.74a1.141,1.141,0,0,1,0-.368s.078.5.276,1.375a14.447,14.447,0,0,0,1.3,3.543,12.554,12.554,0,0,0,3.592,4.251,10.826,10.826,0,0,0,6.377,2.126,9.579,9.579,0,0,0,6.3-2.211,9.352,9.352,0,0,0,2.834-4.69,8.643,8.643,0,0,0,.128-3.741C357.671,138.088,357.459,137.634,357.5,137.62Z" transform="translate(-318.391 -91.079)" fill="#263238"/>
      <g id="Grupo_876" data-name="Grupo 876" transform="translate(38.175 81.005)" opacity="0.3">
        <path id="Trazado_4607" data-name="Trazado 4607" d="M368.035,187.288a1.04,1.04,0,0,0-.368-.949.709.709,0,0,0-.638,0,1.751,1.751,0,0,0-.517.425,8.694,8.694,0,0,0-1.892,3.025l3.472-.3C368.071,188.769,368.056,188.018,368.035,187.288Z" transform="translate(-364.62 -186.263)"/>
      </g>
      <g id="Grupo_877" data-name="Grupo 877" transform="translate(50.595 69.341)" opacity="0.3">
        <path id="Trazado_4608" data-name="Trazado 4608" d="M384.672,175.185a11.386,11.386,0,0,0-2.522-5.385,17.71,17.71,0,0,1,.156,11.032l.184-.468C383.461,178.4,384.935,177.169,384.672,175.185Z" transform="translate(-382.15 -169.8)"/>
      </g>
      <path id="Trazado_4609" data-name="Trazado 4609" d="M368.47,409.274l-2.118,31.777-13.816-.163L350.36,407.85Z" transform="translate(-322.289 -169.846)" fill="#ffbe9d"/>
      <path id="Trazado_4610" data-name="Trazado 4610" d="M367.219,448.673v.921s15.587,6.263,15.736,9.211L352,458.635l.482-10.295A17.739,17.739,0,0,0,367.219,448.673Z" transform="translate(-322.767 -181.648)" fill="#f83f00"/>
      <path id="Trazado_4611" data-name="Trazado 4611" d="M356.741,452.982a1.261,1.261,0,0,0-.879,1.417,1.2,1.2,0,0,0,1.417.886,1.325,1.325,0,0,0,.921-1.523,1.254,1.254,0,0,0-1.573-.758" transform="translate(-323.887 -182.989)" fill="#fff"/>
      <path id="Trazado_4612" data-name="Trazado 4612" d="M352,461.853l.113-2.473,29.644,1.077s1.375.609,1.212,1.573Z" transform="translate(-322.767 -184.866)" fill="#263238"/>
      <path id="Trazado_4613" data-name="Trazado 4613" d="M372.477,450.171c0,.149-.765.213-1.509.709s-1.148,1.112-1.282,1.056.092-.935,1.006-1.5S372.512,450.008,372.477,450.171Z" transform="translate(-327.911 -182.14)" fill="#263238"/>
      <path id="Trazado_4614" data-name="Trazado 4614" d="M377.357,452.132c.035.149-.624.4-1.141,1.034s-.666,1.311-.822,1.3-.241-.864.418-1.637S377.35,452.026,377.357,452.132Z" transform="translate(-329.554 -182.741)" fill="#263238"/>
      <path id="Trazado_4615" data-name="Trazado 4615" d="M380.706,456.579c-.142,0-.347-.709.05-1.552s1.1-1.148,1.162-1.027-.375.567-.708,1.254S380.861,456.564,380.706,456.579Z" transform="translate(-331.081 -183.291)" fill="#263238"/>
      <path id="Trazado_4616" data-name="Trazado 4616" d="M359.564,78.959a5.042,5.042,0,0,0-1.892-5.668,8.248,8.248,0,0,0-6.157-1.2,24.52,24.52,0,0,0-6.051,2.126A6.823,6.823,0,0,0,333.873,78a4.35,4.35,0,0,0-5.151,5.7l9.579,3.365,10.458,18.422A8.368,8.368,0,0,0,361.073,94.37a7.263,7.263,0,0,0,1.474-1.814,7.326,7.326,0,0,0,3.38-4.535A7.746,7.746,0,0,0,359.564,78.959Z" transform="translate(-315.905 -71.933)" fill="#263238"/>
      <path id="Trazado_4617" data-name="Trazado 4617" d="M353.681,120.139c-.6-3-1.006-5.052-1-5.03s5.668-2.2,5.257-10.082c-.2-3.925-1.693-10.111-3.082-15.127-1.247-4.52-5.463-9.5-9.919-8.063l-13.511,6.589c-1.353.439-1.587,1.715-1.268,3.1v.709l5.25,21.723,2.218,9.707a8.2,8.2,0,0,0,9.154,6.221h0a8.2,8.2,0,0,0,6.9-9.742Z" transform="translate(-316.363 -74.746)" fill="#ffbe9d"/>
      <path id="Trazado_4618" data-name="Trazado 4618" d="M364.206,100.416a1.006,1.006,0,0,1-.708,1.19.964.964,0,0,1-1.2-.709,1,1,0,0,1,.708-1.183.956.956,0,0,1,1.2.7Z" transform="translate(-325.762 -80.019)" fill="#263238"/>
      <path id="Trazado_4619" data-name="Trazado 4619" d="M362.519,98.312c-.1.156-.957-.234-2.005,0s-1.715.914-1.856.808,0-.3.291-.616A2.763,2.763,0,0,1,360.4,97.7a2.6,2.6,0,0,1,1.63.177C362.427,98.036,362.561,98.249,362.519,98.312Z" transform="translate(-324.691 -79.425)" fill="#263238"/>
      <path id="Trazado_4620" data-name="Trazado 4620" d="M349.686,103.708a1,1,0,0,1-.709,1.183.964.964,0,0,1-1.2-.666,1.006,1.006,0,0,1,.709-1.19.964.964,0,0,1,1.2.673Z" transform="translate(-321.529 -80.987)" fill="#263238"/>
      <path id="Trazado_4621" data-name="Trazado 4621" d="M348.139,101.843c-.092.156-.957-.241-2.005,0s-1.715.907-1.856.808,0-.3.291-.623a2.784,2.784,0,0,1,1.452-.8,2.657,2.657,0,0,1,1.63.17C348.025,101.566,348.188,101.757,348.139,101.843Z" transform="translate(-320.499 -80.454)" fill="#263238"/>
      <path id="Trazado_4622" data-name="Trazado 4622" d="M356.322,107.961a7.463,7.463,0,0,1,1.644-.666c.262-.085.51-.191.517-.383a1.417,1.417,0,0,0-.347-.758l-1.226-1.885A38.713,38.713,0,0,1,354,99.31a38.048,38.048,0,0,1,3.3,4.74l1.2,1.9a1.623,1.623,0,0,1,.361,1.027.709.709,0,0,1-.361.482,1.782,1.782,0,0,1-.439.163A6.506,6.506,0,0,1,356.322,107.961Z" transform="translate(-323.347 -79.912)" fill="#263238"/>
      <path id="Trazado_4623" data-name="Trazado 4623" d="M357.558,128.661a19.839,19.839,0,0,1-10.8-.581s3.713,4.846,11.2,2.529Z" transform="translate(-321.239 -88.298)" fill="#eb996e"/>
      <path id="Trazado_4624" data-name="Trazado 4624" d="M348.017,99.773c-.071.3-1.155.3-2.388.6s-2.211.765-2.409.524c-.085-.113.057-.411.432-.709a4.066,4.066,0,0,1,1.729-.857,4.159,4.159,0,0,1,1.92,0C347.8,99.426,348.067,99.631,348.017,99.773Z" transform="translate(-320.201 -79.887)" fill="#263238"/>
      <path id="Trazado_4625" data-name="Trazado 4625" d="M361.793,93.56c-.17.283-1.077.213-2.125.418s-1.878.56-2.126.354c-.113-.106,0-.376.3-.709a3.387,3.387,0,0,1,1.637-.751,3.337,3.337,0,0,1,1.778.128C361.694,93.2,361.864,93.419,361.793,93.56Z" transform="translate(-324.369 -78.017)" fill="#263238"/>
      <path id="Trazado_4626" data-name="Trazado 4626" d="M336.544,82.615a5.335,5.335,0,0,0,7.234,3.876c1.12-.453,2.281-1.3,3.415-.893s1.6,2.026,2.685,2.629c1.594.893,3.543-.652,5.321-.5,1.417.12,2.487,1.2,3.585,2.126s2.615,1.615,3.854.949a15.66,15.66,0,0,0-1.254-3.415,5.286,5.286,0,0,0-2.593-2.451c-.623-.248-1.3-.333-1.892-.638-1.282-.652-1.856-2.126-2.784-3.238a5.845,5.845,0,0,0-4.96-1.984c-1.53.156-2.983.928-4.527.864-1.141-.05-2.232-.56-3.373-.538-2.218,0-3.883,1.984-5.115,3.833" transform="translate(-318.144 -74.008)" fill="#263238"/>
      <path id="Trazado_4627" data-name="Trazado 4627" d="M339.668,85.133c-1.02-.078-3.1-.29-3.791-1.013a5.98,5.98,0,0,0-5.668-1.87,4.96,4.96,0,0,0-3.543,4.719,7.085,7.085,0,0,0-5.172,5.08,8.233,8.233,0,0,0,1.771,7.447,14.744,14.744,0,0,1,1.162,1.679,12,12,0,0,0-1.261,1.913c-1.622,3.585,2.777,4.96,2.777,4.96,0,2.409,2.232,2.395,3.656,2.388s2.211,3.8,3.323,3.649l-1.127-11.74a1.46,1.46,0,0,0,.517.1c2.685.05,1.984-5.038,1.119-6.377a15.729,15.729,0,0,0,2.012-3.245,10.989,10.989,0,0,0,.1-5.427C336.445,87.28,340.108,85.161,339.668,85.133Z" transform="translate(-313.8 -74.903)" fill="#263238"/>
      <path id="Trazado_4628" data-name="Trazado 4628" d="M334.794,110.827a2.274,2.274,0,0,0-3.649-1.219c-.708.609-1.084,1.63-.659,3.337,1.148,4.563,5.491,2.473,5.463,2.345S335.29,112.712,334.794,110.827Z" transform="translate(-316.444 -82.765)" fill="#ffbe9d"/>
      <path id="Trazado_4629" data-name="Trazado 4629" d="M334.646,114.487a1.2,1.2,0,0,1-.184.17.815.815,0,0,1-.588.163,2.011,2.011,0,0,1-1.353-1.537,2.747,2.747,0,0,1-.064-1.19.957.957,0,0,1,.446-.765.418.418,0,0,1,.524.106c.092.106.085.205.113.213s.078-.106,0-.283a.546.546,0,0,0-.248-.241.624.624,0,0,0-.468,0,1.169,1.169,0,0,0-.659.914,2.835,2.835,0,0,0,.05,1.346,2.126,2.126,0,0,0,1.651,1.679.893.893,0,0,0,.708-.3C334.667,114.6,334.667,114.494,334.646,114.487Z" transform="translate(-316.968 -83.342)" fill="#eb996e"/>
      <path id="Trazado_4630" data-name="Trazado 4630" d="M362.136,96.908a6.783,6.783,0,0,0,2.416-4.57,6.531,6.531,0,0,0-.255-2.622,5.625,5.625,0,0,0-1.622-2.522,6.674,6.674,0,0,0-6.5-1.3c-.213.071-.411.177-.609.262a5.424,5.424,0,0,0-.56.319l-.283.156v-.312a2.281,2.281,0,0,0-.574-1.488,3.649,3.649,0,0,0-1.339-.907,4.839,4.839,0,0,0-3.04-.227c-1.956.446-3.614,1.339-5.179,1.523a5,5,0,0,1-3.543-.709,2.757,2.757,0,0,1-.708-.709c-.113-.191-.17-.3-.156-.3a3.867,3.867,0,0,0,.928.9,4.96,4.96,0,0,0,3.422.574,12.044,12.044,0,0,0,2.381-.709,22.209,22.209,0,0,1,2.763-.9,5.937,5.937,0,0,1,1.6-.163,4.867,4.867,0,0,1,1.651.383,4,4,0,0,1,1.417,1.02,2.7,2.7,0,0,1,.666,1.729l-.283-.156.588-.34c.22-.085.425-.2.652-.276a6.965,6.965,0,0,1,6.866,1.367,5.866,5.866,0,0,1,1.686,2.678,6.894,6.894,0,0,1-1.353,6.377,4.5,4.5,0,0,1-.786.709,1.346,1.346,0,0,1-.241.22Z" transform="translate(-319.32 -75.215)" fill="#455a64"/>
      <path id="Trazado_4631" data-name="Trazado 4631" d="M361.466,78.84a5.548,5.548,0,0,0-1.474-.5,3.854,3.854,0,0,0-1.743.163,3.4,3.4,0,0,0-1.793,1.3l-.177.248-.106-.283a5.321,5.321,0,0,0-4.322-3.21,6.873,6.873,0,0,0-4.152,1.2,18.341,18.341,0,0,1-3.295,1.7,5.221,5.221,0,0,1-2.494.3,3.807,3.807,0,0,1-.659-.184c-.142-.064-.22-.1-.213-.113s.319.092.893.149a5.442,5.442,0,0,0,2.388-.39,20.427,20.427,0,0,0,3.21-1.757,10.987,10.987,0,0,1,1.984-.971,5.442,5.442,0,0,1,2.381-.3,5.59,5.59,0,0,1,4.577,3.465H356.2a3.7,3.7,0,0,1,1.977-1.375,4.031,4.031,0,0,1,1.856-.092,3.317,3.317,0,0,1,1.105.425A1.415,1.415,0,0,1,361.466,78.84Z" transform="translate(-319.572 -73.166)" fill="#455a64"/>
      <path id="Trazado_4632" data-name="Trazado 4632" d="M355.641,114.333a1.531,1.531,0,0,0-1.2-.34,1.821,1.821,0,0,0-1.2.871h0a.223.223,0,0,0-.042.057h0a.906.906,0,0,0-.128.538,1.269,1.269,0,0,0,.708.957,1.63,1.63,0,0,0,1.856-.269,1.325,1.325,0,0,0,.007-1.814Z" transform="translate(-323.078 -84.188)" fill="#f83f00"/>
      <path id="Trazado_4633" data-name="Trazado 4633" d="M355.885,116.8c-.057,0-.12-.213-.312-.5a2.211,2.211,0,0,0-2.3-1.049c-.347.05-.56.149-.581.1s.142-.22.524-.354a2.126,2.126,0,0,1,1.523.085,2.069,2.069,0,0,1,1.07,1.1C355.956,116.55,355.934,116.8,355.885,116.8Z" transform="translate(-322.967 -84.456)" fill="#263238"/>
      <path id="Trazado_4634" data-name="Trazado 4634" d="M335.661,118.4a.974.974,0,0,1-.064.893,1.423,1.423,0,0,1-2.678-.5,1.488,1.488,0,0,1,.29-.978c.368-.468.779-.482.779-.439a2.186,2.186,0,0,0-.56.588,1.247,1.247,0,0,0-.17.794,1.134,1.134,0,0,0,.531.786,1.169,1.169,0,0,0,.942.142,1.325,1.325,0,0,0,.645-.5A3.28,3.28,0,0,0,335.661,118.4Z" transform="translate(-317.204 -85.173)" fill="#f83f00"/>
      <path id="Trazado_4635" data-name="Trazado 4635" d="M332.755,117.9c.035,0,0,.241-.333.4a.928.928,0,0,1-1.24-1.141.9.9,0,0,1,.375-.461c.291-.177.51-.106.5-.064s-.17.092-.347.269a.709.709,0,0,0,.624,1.148C332.577,118,332.7,117.869,332.755,117.9Z" transform="translate(-316.685 -84.946)" fill="#f83f00"/>
      <path id="Trazado_4636" data-name="Trazado 4636" d="M344.39,199.537s17.543,1.02,27.916,1.112c8.027.078,11.613-2.055,13.214-7.22,1.346-4.329-1.545-12.64-1.545-12.64-5.434,0-8.786.779-12.279,2.416l.928,3.8-28.284,2.437Z" transform="translate(-320.534 -103.662)" fill="#ffbe9d"/>
      <path id="Trazado_4637" data-name="Trazado 4637" d="M390.088,193.57a14.116,14.116,0,0,0-2.643-2.629,13.89,13.89,0,0,0-3.415-1.5,2.472,2.472,0,0,1,1.127.1,7.5,7.5,0,0,1,2.494,1.1,7.4,7.4,0,0,1,1.934,1.927C389.982,193.145,390.13,193.549,390.088,193.57Z" transform="translate(-332.103 -106.176)" fill="#eb996e"/>
      <path id="Trazado_4638" data-name="Trazado 4638" d="M331.476,174.168h0a34.035,34.035,0,0,0-9.416,3.968l4.251,11.521a6.51,6.51,0,0,0,9.211,3.684c5.335-3.054,7.22-11.953,7.22-11.953l5.859-25.422-9.714-6.086-7.376,24.288" transform="translate(-314.04 -94.653)" fill="#ffbe9d"/>
      <path id="Trazado_4639" data-name="Trazado 4639" d="M344.991,142.3l.4-8.361-2.175-8.5c-.12-.468-.177-1.056.205-1.339a1.034,1.034,0,0,1,1.311.042c.588.609,3.422,8.042,3.422,8.042a43.97,43.97,0,0,1,5.066-2.707c.765-.127,1.722,2.189,1.786,2.366a14.418,14.418,0,0,1,0,1.559s2.657.078,2.9.439a9.372,9.372,0,0,1,.3,2.26s1.126.361,1.3,1.212.545,2.253,0,2.565-1.651.921-1.651.921-.446,4.336-.567,4.733a27.348,27.348,0,0,1-2.607,2.834Z" transform="translate(-320.179 -87.077)" fill="#ffbe9d"/>
      <path id="Trazado_4640" data-name="Trazado 4640" d="M333,185.911a4.343,4.343,0,0,0,.815.333,5.625,5.625,0,0,0,2.5.2,6.979,6.979,0,0,0,3.628-1.672,16.686,16.686,0,0,0,3.373-4.251,18.456,18.456,0,0,0,1.311-2.926,31.042,31.042,0,0,0,.914-3.394c.553-2.388,1.155-4.96,1.793-7.695,1.275-5.463,2.707-11.57,4.251-18.152v-.05h.035c.489-.482.978-.971,1.467-1.481.241-.255.482-.51.708-.772.113-.135.234-.269.326-.4a1.018,1.018,0,0,0,.12-.432c.191-1.417.34-2.884.5-4.365v-.092l.085-.042,1.353-.758c.1-.064.255-.135.319-.191a.4.4,0,0,0,.127-.234,2.552,2.552,0,0,0,0-.708,10.746,10.746,0,0,0-.319-1.537,1.913,1.913,0,0,0-1.127-.914l-.12-.043v-.12a10.779,10.779,0,0,0-.092-1.254,5.757,5.757,0,0,0-.092-.624,1.037,1.037,0,0,0-.085-.262c0-.05,0,0-.043-.043a.715.715,0,0,0-.12-.05,12.692,12.692,0,0,0-2.593-.29h-.184v-1.6a1.487,1.487,0,0,0-.17-.475c-.071-.17-.156-.333-.241-.5a6.276,6.276,0,0,0-.581-.935,1.554,1.554,0,0,0-.361-.354.34.34,0,0,0-.376-.042,8.3,8.3,0,0,0-1,.461c-1.318.709-2.607,1.417-3.869,2.182l-.184.113-.078-.2c-.666-1.679-1.332-3.337-1.984-4.96-.326-.815-.645-1.63-.971-2.43a.992.992,0,0,0-.779-.709.787.787,0,0,0-.921.34.822.822,0,0,0-.106.5,3.7,3.7,0,0,0,.142.588c.113.411.22.815.326,1.219.213.815.418,1.615.631,2.409q.624,2.395,1.226,4.676v.05q-.213,4.364-.4,8.361v-.014l-6.455,21-1.821,5.845c-.213.659-.376,1.176-.489,1.537a5.078,5.078,0,0,1-.184.517s.035-.184.135-.531l.446-1.552c.411-1.367,1-3.344,1.743-5.867,1.53-5.073,3.705-12.314,6.334-21.043v.035q.184-3.982.376-8.361V134c-.4-1.523-.822-3.082-1.24-4.669l-.638-2.409c-.106-.4-.213-.815-.326-1.219a6.218,6.218,0,0,1-.149-.645,1.177,1.177,0,0,1,.149-.709,1.133,1.133,0,0,1,.574-.482,1.46,1.46,0,0,1,1.382.312,1.418,1.418,0,0,1,.383.609l.971,2.43c.659,1.63,1.318,3.288,1.991,4.96l-.262-.092c1.268-.751,2.544-1.5,3.89-2.2a10.179,10.179,0,0,1,1.049-.475.709.709,0,0,1,.354-.05.85.85,0,0,1,.34.128,2.026,2.026,0,0,1,.446.439,6.066,6.066,0,0,1,.616.992c.092.177.177.347.255.524a1.824,1.824,0,0,1,.2.6c0,.5,0,.971,0,1.417l-.177-.191a12.64,12.64,0,0,1,2.707.312,1.236,1.236,0,0,1,.177.078.461.461,0,0,1,.184.184,1.543,1.543,0,0,1,.121.361c.042.227.071.439.1.659.042.432.071.857.092,1.282l-.128-.17a2.225,2.225,0,0,1,1.353,1.119,10.948,10.948,0,0,1,.34,1.644,2.5,2.5,0,0,1,0,.857.743.743,0,0,1-.255.439,3.611,3.611,0,0,1-.361.213l-1.346.7.092-.135c-.163,1.481-.312,2.933-.51,4.372l-.043.276a.623.623,0,0,1-.135.3,3.654,3.654,0,0,1-.347.439c-.241.269-.482.531-.709.786-.489.51-.978,1-1.474,1.481l.05-.085c-1.559,6.575-3,12.682-4.3,18.145-.645,2.728-1.261,5.3-1.828,7.68a29.221,29.221,0,0,1-.935,3.415,19.2,19.2,0,0,1-1.346,2.955,16.733,16.733,0,0,1-3.45,4.294,7.085,7.085,0,0,1-3.72,1.658,5.527,5.527,0,0,1-2.544-.255,4.255,4.255,0,0,1-.6-.276Z" transform="translate(-317.229 -87.053)" fill="#eb996e"/>
      <path id="Trazado_4641" data-name="Trazado 4641" d="M358.385,137.265c0,.05-.241.078-.616.092a7.119,7.119,0,0,0-1.417.17,2.756,2.756,0,0,0-1.2.645c-.255.241-.368.446-.425.425s0-.276.234-.6a2.352,2.352,0,0,1,1.3-.822,3.919,3.919,0,0,1,1.516-.071C358.158,137.152,358.385,137.216,358.385,137.265Z" transform="translate(-323.554 -90.916)" fill="#eb996e"/>
      <path id="Trazado_4642" data-name="Trazado 4642" d="M356.97,137.108c-.092-.035-.1-.255,0-.489s.241-.4.333-.361.106.255,0,.489S357.041,137.144,356.97,137.108Z" transform="translate(-324.195 -90.681)" fill="#eb996e"/>
      <path id="Trazado_4643" data-name="Trazado 4643" d="M363.1,141.03a6.561,6.561,0,0,1-2.126.29,1.417,1.417,0,0,0-1.176.56c-.184.29-.12.531-.177.546s-.227-.234-.05-.659a1.112,1.112,0,0,1,.5-.56,2.126,2.126,0,0,1,.85-.255,5.831,5.831,0,0,1,2.175.078Z" transform="translate(-324.95 -92.031)" fill="#eb996e"/>
      <path id="Trazado_4644" data-name="Trazado 4644" d="M363.818,144.69c.1,0,.156.524.128,1.169s-.135,1.155-.234,1.155-.163-.531-.135-1.176S363.712,144.683,363.818,144.69Z" transform="translate(-326.139 -93.14)" fill="#eb996e"/>
      <path id="Trazado_4645" data-name="Trazado 4645" d="M368.07,169.943l.631-2.168a.6.6,0,0,1,.992-.255l.829.843.51-2.048a.6.6,0,0,1,1.112-.113l1.155,2.423Z" transform="translate(-327.451 -99.313)" fill="#fff"/>
      <path id="Trazado_4646" data-name="Trazado 4646" d="M373.374,171.07a9.566,9.566,0,0,1-2.5.808,9.263,9.263,0,0,1-2.593.453,18.9,18.9,0,0,1,5.094-1.261Z" transform="translate(-327.512 -100.829)" fill="#fff"/>
      <path id="Trazado_4647" data-name="Trazado 4647" d="M315.208,154a5.812,5.812,0,0,0-.631.843,7.128,7.128,0,0,0-.957,2.671,18.949,18.949,0,0,0-.127,4.251c.078,1.608.205,3.365.4,5.208a91.217,91.217,0,0,0,1.5,9.367c.248,1.19.475,2.126.631,2.834.071.3.135.546.184.758s.057.269.057.269a2.677,2.677,0,0,1-.085-.255c-.05-.17-.128-.468-.206-.758-.177-.659-.418-1.608-.709-2.8a84.1,84.1,0,0,1-1.537-9.374c-.2-1.842-.319-3.606-.39-5.215a18.987,18.987,0,0,1,.156-4.251,7.083,7.083,0,0,1,1.02-2.692,4.111,4.111,0,0,1,.694-.857Z" transform="translate(-311.481 -95.854)" fill="#fff"/>
      <path id="Trazado_4648" data-name="Trazado 4648" d="M330.914,140.379l-.163.085-.468.227c-.4.191-.992.475-1.693.864a62.231,62.231,0,0,0-5.321,3.33c-2.026,1.417-3.819,2.707-5.13,3.642l-1.552,1.1-.432.291a.871.871,0,0,1-.156.1.575.575,0,0,1,.142-.12l.411-.312,1.523-1.141c1.3-.956,3.082-2.289,5.109-3.677a53.882,53.882,0,0,1,5.356-3.3c.708-.376,1.3-.645,1.722-.822l.475-.2C330.879,140.394,330.879,140.372,330.914,140.379Z" transform="translate(-312.273 -91.883)" fill="#fff"/>
      <path id="Trazado_4649" data-name="Trazado 4649" d="M379.333,144.52a.519.519,0,0,1-.12-.092l-.319-.276a13.253,13.253,0,0,0-1.24-.928,25.665,25.665,0,0,0-4.556-2.3,45.833,45.833,0,0,0-4.853-1.615c-.638-.177-1.148-.3-1.509-.39l-.4-.106a.566.566,0,0,1-.142-.05h.149l.411.078c.361.071.878.184,1.516.347a39.371,39.371,0,0,1,4.889,1.58,23.293,23.293,0,0,1,4.556,2.352A9.129,9.129,0,0,1,379.333,144.52Z" transform="translate(-326.903 -91.411)" fill="#fff"/>
      <path id="Trazado_4650" data-name="Trazado 4650" d="M336.249,220.722a1,1,0,0,1-.276-.092,4.962,4.962,0,0,1-.708-.383,3.387,3.387,0,0,1-1.545-2.083,4.075,4.075,0,0,1,.276-2.593,3.41,3.41,0,0,1,.411-.709c.113-.149.191-.22.2-.212a8.034,8.034,0,0,0-.517.942,4.2,4.2,0,0,0-.22,2.515,3.436,3.436,0,0,0,1.417,2.033C335.874,220.566,336.263,220.694,336.249,220.722Z" transform="translate(-317.41 -113.532)" fill="#fff"/>
      <path id="Trazado_4651" data-name="Trazado 4651" d="M334.15,212.39a3.542,3.542,0,0,1,.333.893,3.277,3.277,0,0,1,.2.928,2.913,2.913,0,0,1-.34-.886,2.839,2.839,0,0,1-.191-.935Z" transform="translate(-317.564 -112.873)" fill="#fff"/>
      <path id="Trazado_4652" data-name="Trazado 4652" d="M340.425,374.4l21.61-.106-.39-74.713-.205-76-29.283-.376-5.264,9.919a35.624,35.624,0,0,0-4.046,12.852c-.354,3.443,2.225,14.638,3.117,17.472l8.056,25.549Z" transform="translate(-314.259 -116.024)" fill="#263238"/>
      <path id="Trazado_4653" data-name="Trazado 4653" d="M377.125,223.837l23.75,64.737a29.857,29.857,0,0,1-2.926,25.294l-27.576,53.847-15.5-19.4,23.069-48.179L357.6,267.156l3.422-43.22,9.579-.156Z" transform="translate(-323.603 -116.193)" fill="#263238"/>
      <path id="Trazado_4654" data-name="Trazado 4654" d="M374.55,254.47v.333c0,.22.035.56.064.978.05.872.113,2.126.2,3.748.163,3.281.39,7.992.708,13.809s.588,12.753.942,20.476c.17,3.854.354,7.9.538,12.094.135,2.126.078,4.251.1,6.377s0,4.364,0,6.589c0,17.805.057,33.924.078,45.607v17.585c0-.879,0-2.126-.042-3.762,0-3.28-.057-7.992-.1-13.816-.05-11.683-.113-27.8-.184-45.607v-6.589c0-2.168.043-4.308-.092-6.377-.177-4.187-.354-8.233-.517-12.087-.326-7.709-.624-14.645-.864-20.483s-.418-10.529-.553-13.809c-.057-1.616-.1-2.877-.128-3.755V254.8C374.7,254.534,374.55,254.47,374.55,254.47Z" transform="translate(-329.34 -125.139)" fill="#455a64"/>
      <path id="Trazado_4655" data-name="Trazado 4655" d="M373.78,225.66a2.565,2.565,0,0,1,.149.709c.078.453.163,1.112.262,1.934.184,1.637.383,3.911.5,6.426s.12,4.8.085,6.448c0,.822-.05,1.495-.085,1.955a2.4,2.4,0,0,1-.085.709,20.21,20.21,0,0,1-.092-2.664c0-1.651-.078-3.918-.191-6.433s-.269-4.775-.39-6.377a23.89,23.89,0,0,1-.149-2.707Z" transform="translate(-329.115 -116.741)" fill="#455a64"/>
      <path id="Trazado_4656" data-name="Trazado 4656" d="M366.747,227.645c.035.05-.368.234-.482.808a.928.928,0,0,0,.276.864,1,1,0,0,0,1.063.191,1.02,1.02,0,0,0,.553-.928.928.928,0,0,0-.475-.772,1.722,1.722,0,0,0-.928-.163.525.525,0,0,1,.255-.149,1.2,1.2,0,0,1,.793.078,1.155,1.155,0,0,1,.709.985,1.268,1.268,0,0,1-2.182,1.006,1.162,1.162,0,0,1-.291-1.169,1.2,1.2,0,0,1,.454-.659C366.634,227.638,366.74,227.623,366.747,227.645Z" transform="translate(-326.843 -117.266)" fill="#455a64"/>
      <path id="Trazado_4657" data-name="Trazado 4657" d="M346.405,225.91a2.126,2.126,0,0,1,.191.709,6.7,6.7,0,0,1,.064,1.927,7.871,7.871,0,0,1-.815,2.742,7.262,7.262,0,0,1-5.541,3.975,7.68,7.68,0,0,1-2.834-.106,6.689,6.689,0,0,1-1.8-.673,2.247,2.247,0,0,1-.581-.4,12.85,12.85,0,0,0,2.437.815,7.447,7.447,0,0,0,8.906-6.377A12.336,12.336,0,0,0,346.405,225.91Z" transform="translate(-317.838 -116.814)" fill="#455a64"/>
      <path id="Trazado_4658" data-name="Trazado 4658" d="M387.937,232.093a2.976,2.976,0,0,1-1.367-.163,6.312,6.312,0,0,1-2.784-1.785,6.227,6.227,0,0,1-1.509-2.947,2.834,2.834,0,0,1,0-1.367c.064,0,.071.517.283,1.311a6.852,6.852,0,0,0,4.124,4.542C387.419,231.973,387.944,232.023,387.937,232.093Z" transform="translate(-331.567 -116.791)" fill="#455a64"/>
      <path id="Trazado_4659" data-name="Trazado 4659" d="M398.549,332.3a4.522,4.522,0,0,1-1.254,1,5.87,5.87,0,0,1-1.608.708,3.869,3.869,0,0,1-2.175-.057,6.335,6.335,0,0,1-3.033-2.409,5.824,5.824,0,0,1-.829-1.36,8.223,8.223,0,0,1,1.034,1.2,6.718,6.718,0,0,0,2.933,2.218,4.535,4.535,0,0,0,3.543-.517A13.849,13.849,0,0,1,398.549,332.3Z" transform="translate(-333.741 -147.207)" fill="#455a64"/>
      <path id="Trazado_4660" data-name="Trazado 4660" d="M392.853,336.584a17.93,17.93,0,0,1-2.232-2.834,18.423,18.423,0,0,1-1.941-3.04,17.325,17.325,0,0,1,2.239,2.834A16.934,16.934,0,0,1,392.853,336.584Z" transform="translate(-333.458 -147.361)" fill="#455a64"/>
      <path id="Trazado_4661" data-name="Trazado 4661" d="M342.992,257.191c-.1.035-.347-.368-.567-.914s-.312-1.006-.22-1.049.347.368.56.914S343.084,257.191,342.992,257.191Z" transform="translate(-319.901 -125.359)" fill="#fafafa"/>
      <path id="Trazado_4662" data-name="Trazado 4662" d="M362.614,260.136c-.106,0-.184-.347-.184-.779s.078-.786.184-.786.184.354.184.786S362.713,260.136,362.614,260.136Z" transform="translate(-325.807 -126.334)" fill="#fafafa"/>
      <path id="Trazado_4663" data-name="Trazado 4663" d="M354.623,270.493c-.1,0-.212-.425-.248-.971s0-.985.113-.992.22.425.255.971S354.722,270.486,354.623,270.493Z" transform="translate(-323.455 -129.237)" fill="#fafafa"/>
      <path id="Trazado_4664" data-name="Trazado 4664" d="M339.587,278.553c-.085.064-.375-.2-.758-.468s-.709-.475-.709-.574.468-.042.9.269S339.672,278.553,339.587,278.553Z" transform="translate(-318.721 -131.842)" fill="#fafafa"/>
      <path id="Trazado_4665" data-name="Trazado 4665" d="M365.807,288.313c-.085-.057,0-.361.241-.708s.461-.546.546-.489,0,.368-.241.708S365.892,288.37,365.807,288.313Z" transform="translate(-326.782 -134.652)" fill="#fafafa"/>
      <path id="Trazado_4666" data-name="Trazado 4666" d="M349.924,290.5c-.1,0-.184-.588-.184-1.3s.085-1.311.184-1.311.184.588.184,1.311A2.764,2.764,0,0,1,349.924,290.5Z" transform="translate(-322.108 -134.88)" fill="#fafafa"/>
      <path id="Trazado_4667" data-name="Trazado 4667" d="M344.222,302.36c-.057.078-.425-.085-.822-.376s-.708-.588-.616-.673.432.085.829.376S344.285,302.275,344.222,302.36Z" transform="translate(-320.075 -138.786)" fill="#fafafa"/>
      <path id="Trazado_4668" data-name="Trazado 4668" d="M360.354,306.679c.043.092-.184.283-.51.432s-.624.184-.666.092.191-.283.517-.432S360.319,306.587,360.354,306.679Z" transform="translate(-324.858 -140.342)" fill="#fafafa"/>
      <path id="Trazado_4669" data-name="Trazado 4669" d="M349.455,323.91c-.085.042-.453-.5-.815-1.226s-.581-1.346-.489-1.417.461.5.815,1.226A3.533,3.533,0,0,1,349.455,323.91Z" transform="translate(-321.639 -144.607)" fill="#fafafa"/>
      <path id="Trazado_4670" data-name="Trazado 4670" d="M367.659,322.491c-.092-.05.071-.524.354-1.07s.6-.942.708-.893-.071.524-.361,1.07S367.744,322.54,367.659,322.491Z" transform="translate(-327.323 -144.392)" fill="#fafafa"/>
      <path id="Trazado_4671" data-name="Trazado 4671" d="M359.747,337.766c-.106,0-.092-.574-.205-1.24s-.283-1.2-.184-1.247.439.454.553,1.19S359.847,337.787,359.747,337.766Z" transform="translate(-324.903 -148.692)" fill="#fafafa"/>
      <path id="Trazado_4672" data-name="Trazado 4672" d="M351.077,347.044c-.071.071-.425-.2-.786-.6s-.6-.772-.517-.843.425.2.786.6S351.155,346.973,351.077,347.044Z" transform="translate(-322.113 -151.7)" fill="#fafafa"/>
      <path id="Trazado_4673" data-name="Trazado 4673" d="M371.755,350.4c-.071-.071.191-.453.588-.857s.765-.666.843-.6-.191.461-.581.857S371.833,350.469,371.755,350.4Z" transform="translate(-328.522 -152.673)" fill="#fafafa"/>
      <path id="Trazado_4674" data-name="Trazado 4674" d="M360.149,363.279c-.1,0-.1-.56,0-1.212s.255-1.162.361-1.148.1.553,0,1.2S360.249,363.293,360.149,363.279Z" transform="translate(-325.12 -156.167)" fill="#fafafa"/>
      <path id="Trazado_4675" data-name="Trazado 4675" d="M351.935,369.929c-.092.05-.4-.319-.709-.822s-.461-.949-.375-1,.4.312.708.815S352.02,369.872,351.935,369.929Z" transform="translate(-322.425 -158.261)" fill="#fafafa"/>
      <path id="Trazado_4676" data-name="Trazado 4676" d="M370.405,378.784c.064.085-.3.446-.808.808s-.956.588-1.02.5.3-.446.808-.808S370.348,378.706,370.405,378.784Z" transform="translate(-327.596 -161.369)" fill="#fafafa"/>
      <path id="Trazado_4677" data-name="Trazado 4677" d="M355.5,388.244c-.1-.035,0-.6.092-1.311s.035-1.289.142-1.3.29.581.22,1.339S355.6,388.287,355.5,388.244Z" transform="translate(-323.776 -163.369)" fill="#fafafa"/>
      <path id="Trazado_4678" data-name="Trazado 4678" d="M361.331,403.9c-.085.064-.383-.177-.673-.538s-.453-.708-.375-.772.375.177.666.539S361.409,403.833,361.331,403.9Z" transform="translate(-325.175 -168.309)" fill="#fafafa"/>
      <path id="Trazado_4679" data-name="Trazado 4679" d="M354.342,413.718c-.085.057-.475-.361-.871-.942s-.645-1.091-.567-1.148.475.361.871.942S354.427,413.661,354.342,413.718Z" transform="translate(-323.026 -170.946)" fill="#fafafa"/>
      <path id="Trazado_4680" data-name="Trazado 4680" d="M373.723,401.42c-.092-.035-.085-.3,0-.581s.276-.5.375-.461.085.3,0,.588S373.822,401.462,373.723,401.42Z" transform="translate(-329.079 -167.667)" fill="#fafafa"/>
      <path id="Trazado_4681" data-name="Trazado 4681" d="M365.439,425.032c-.092-.05.085-.553.227-1.183s.191-1.162.3-1.169.213.567.064,1.247S365.525,425.089,365.439,425.032Z" transform="translate(-326.677 -174.169)" fill="#fafafa"/>
      <path id="Trazado_4682" data-name="Trazado 4682" d="M370.557,270.869c-.092.043-.319-.241-.5-.638s-.262-.751-.17-.794.319.241.5.638S370.663,270.827,370.557,270.869Z" transform="translate(-327.968 -129.501)" fill="#fafafa"/>
      <path id="Trazado_4683" data-name="Trazado 4683" d="M356.188,240.313c.057.085-.439.482-.971,1.049s-.893,1.091-.985,1.042.149-.708.708-1.289S356.117,240.221,356.188,240.313Z" transform="translate(-323.411 -121.008)" fill="#fafafa"/>
      <path id="Trazado_4684" data-name="Trazado 4684" d="M368.948,239.241c-.106,0-.269-.4-.517-.886s-.475-.879-.4-.949.461.241.709.779S369.04,239.184,368.948,239.241Z" transform="translate(-327.436 -120.162)" fill="#fafafa"/>
      <path id="Trazado_4685" data-name="Trazado 4685" d="M330.815,249.3c-.092-.043,0-.51.22-1.049s.461-.956.56-.914,0,.5-.22,1.048S330.936,249.337,330.815,249.3Z" transform="translate(-316.581 -123.059)" fill="#fafafa"/>
      <path id="Trazado_4686" data-name="Trazado 4686" d="M331.431,264.667c-.071.078-.475-.149-.907-.51s-.709-.709-.666-.794.475.149.907.51S331.5,264.589,331.431,264.667Z" transform="translate(-316.311 -127.726)" fill="#fafafa"/>
      <path id="Trazado_4687" data-name="Trazado 4687" d="M357.1,227.8c-.092,0-.29-.227-.432-.588s-.184-.709-.092-.709.291.227.432.588S357.2,227.761,357.1,227.8Z" transform="translate(-324.087 -116.986)" fill="#fafafa"/>
      <path id="Trazado_4688" data-name="Trazado 4688" d="M381.5,234.958c-.1,0-.092-.446,0-.949s.276-.9.376-.879.092.453,0,.956S381.6,234.979,381.5,234.958Z" transform="translate(-331.344 -118.918)" fill="#fafafa"/>
      <path id="Trazado_4689" data-name="Trazado 4689" d="M387.2,246.224c-.092-.042.035-.567.29-1.183s.531-1.077.624-1.042,0,.567-.283,1.183S387.3,246.259,387.2,246.224Z" transform="translate(-333.018 -122.086)" fill="#fafafa"/>
      <path id="Trazado_4690" data-name="Trazado 4690" d="M382.666,255.391c-.092.042-.432-.446-.758-1.091s-.51-1.219-.418-1.261.425.446.751,1.091S382.759,255.342,382.666,255.391Z" transform="translate(-331.356 -124.721)" fill="#fafafa"/>
      <path id="Trazado_4691" data-name="Trazado 4691" d="M391.8,264.879c-.092-.035,0-.446.156-.914s.4-.822.5-.786,0,.446-.156.914S391.932,264.915,391.8,264.879Z" transform="translate(-334.358 -127.676)" fill="#fafafa"/>
      <path id="Trazado_4692" data-name="Trazado 4692" d="M383.8,274.177c-.085.057-.3-.135-.482-.418s-.262-.567-.17-.623.3.135.482.425S383.881,274.128,383.8,274.177Z" transform="translate(-331.834 -130.577)" fill="#fafafa"/>
      <path id="Trazado_4693" data-name="Trazado 4693" d="M385.029,292.491c-.071.064-.517-.283-.985-.794s-.786-.971-.709-1.042.517.283.985.794S385.107,292.421,385.029,292.491Z" transform="translate(-331.897 -135.684)" fill="#fafafa"/>
      <path id="Trazado_4694" data-name="Trazado 4694" d="M395.283,281.785c-.078.064-.468-.29-.864-.8s-.652-.964-.574-1.027.468.3.864.8S395.368,281.728,395.283,281.785Z" transform="translate(-334.96 -132.566)" fill="#fafafa"/>
      <path id="Trazado_4695" data-name="Trazado 4695" d="M401.439,296.4c-.092-.043.071-.574.361-1.183s.6-1.077.709-1.034-.064.581-.354,1.19S401.532,296.446,401.439,296.4Z" transform="translate(-337.17 -136.712)" fill="#fafafa"/>
      <path id="Trazado_4696" data-name="Trazado 4696" d="M388.909,308.811c-.092.05-.418-.34-.871-.758s-.871-.708-.829-.815.581.085,1.077.546S388.994,308.762,388.909,308.811Z" transform="translate(-333.028 -140.511)" fill="#fafafa"/>
      <path id="Trazado_4697" data-name="Trazado 4697" d="M389.706,321.924c0,.1-.354.184-.787.184s-.779-.085-.779-.184.347-.184.779-.184S389.706,321.825,389.706,321.924Z" transform="translate(-333.301 -144.747)" fill="#fafafa"/>
      <path id="Trazado_4698" data-name="Trazado 4698" d="M402.51,317.64c-.092-.05.092-.5.227-1.049s.191-1.034.3-1.041.22.51.064,1.126S402.588,317.7,402.51,317.64Z" transform="translate(-337.482 -142.943)" fill="#fafafa"/>
      <path id="Trazado_4699" data-name="Trazado 4699" d="M414.258,321.748c-.092.035-.354-.468-.581-1.112s-.333-1.2-.241-1.226.361.461.588,1.105S414.357,321.712,414.258,321.748Z" transform="translate(-340.664 -144.067)" fill="#fafafa"/>
      <path id="Trazado_4700" data-name="Trazado 4700" d="M412.672,338.886c-.085-.05.135-.645.489-1.332s.709-1.2.815-1.155-.127.645-.489,1.325S412.765,338.949,412.672,338.886Z" transform="translate(-340.446 -149.019)" fill="#fafafa"/>
      <path id="Trazado_4701" data-name="Trazado 4701" d="M401.243,349.037c-.092.035-.383-.453-.652-1.1s-.4-1.2-.3-1.24.383.453.645,1.1S401.335,349.037,401.243,349.037Z" transform="translate(-336.832 -152.021)" fill="#fafafa"/>
      <path id="Trazado_4702" data-name="Trazado 4702" d="M388.891,353.834c0,.1-.3.184-.659.184s-.652-.085-.652-.184.3-.184.652-.184S388.891,353.735,388.891,353.834Z" transform="translate(-333.138 -154.048)" fill="#fafafa"/>
      <path id="Trazado_4703" data-name="Trazado 4703" d="M396.193,369.2c-.092,0-.29-.39-.439-.928s-.177-1.006-.078-1.027.29.39.439.928S396.292,369.139,396.193,369.2Z" transform="translate(-335.48 -158.009)" fill="#fafafa"/>
      <path id="Trazado_4704" data-name="Trazado 4704" d="M387.567,364.061c-.085-.05,0-.383.234-.744s.468-.609.553-.56,0,.39-.234.751S387.659,364.118,387.567,364.061Z" transform="translate(-333.124 -156.701)" fill="#fafafa"/>
      <path id="Trazado_4705" data-name="Trazado 4705" d="M387.255,381.395c-.1,0-.241-.475-.312-1.091s-.05-1.12.05-1.134.241.475.312,1.091S387.354,381.38,387.255,381.395Z" transform="translate(-332.939 -161.486)" fill="#fafafa"/>
    </g>
  </g>
</svg>
