<svg xmlns="http://www.w3.org/2000/svg" width="276" height="160" viewBox="0 0 276 160">
  <g id="savings-pana-ahorro" transform="translate(42.12 -311.41)">
    <rect id="Rectángulo_921" data-name="Rectángulo 921" width="276" height="160" transform="translate(-42.12 311.41)" fill="#fff"/>
    <g id="Grupo_1877" data-name="Grupo 1877" transform="translate(-2.92 280.813)">
      <g id="freepik--background-complete--inject-411" transform="translate(37.881 45.626)">
        <path id="Trazado_3432" data-name="Trazado 3432" d="M98.082,148.086a19.537,19.537,0,1,1-22.143-16.479A19.537,19.537,0,0,1,98.082,148.086Z" transform="translate(-59.215 -103.894)" fill="#f5f5f5"/>
        <path id="Trazado_3433" data-name="Trazado 3433" d="M103.326,158.574a14.887,14.887,0,1,1-16.87-12.56A14.887,14.887,0,0,1,103.326,158.574Z" transform="translate(-69.059 -113.71)" fill="#ebebeb"/>
        <path id="Trazado_3434" data-name="Trazado 3434" d="M102.7,156.89a9.639,9.639,0,0,1-.642-1.714,15.89,15.89,0,0,0-2.355-4.271,15.4,15.4,0,0,0-2.339-2.394,14.906,14.906,0,0,0-3.254-2.009,13.821,13.821,0,0,0-1.941-.719,13.576,13.576,0,0,0-2.108-.446,14.158,14.158,0,0,0-2.224-.132,15.919,15.919,0,0,0-2.288.221,16.256,16.256,0,0,0-2.224.578,14.653,14.653,0,0,0-2.051.889,14.038,14.038,0,0,0-1.826,1.149,13.62,13.62,0,0,0-1.572,1.341,14.792,14.792,0,0,0-2.362,3,15.31,15.31,0,0,0-1.373,3.052,15.866,15.866,0,0,0-.741,4.814,11.831,11.831,0,0,1,0,1.832,4.182,4.182,0,0,1-.427-1.81,13.729,13.729,0,0,1,.411-5.067,14.98,14.98,0,0,1,1.325-3.292,15.186,15.186,0,0,1,2.439-3.283,13.937,13.937,0,0,1,1.665-1.47,14.27,14.27,0,0,1,1.948-1.261,15.318,15.318,0,0,1,2.2-.963,16.327,16.327,0,0,1,2.4-.642,16.579,16.579,0,0,1,2.468-.234,15.19,15.19,0,0,1,2.4.157,14.729,14.729,0,0,1,2.266.513,14,14,0,0,1,2.07.805,15.172,15.172,0,0,1,3.421,2.246,15,15,0,0,1,2.378,2.635,13.76,13.76,0,0,1,2.131,4.618A4.088,4.088,0,0,1,102.7,156.89Z" transform="translate(-68.504 -112.489)" fill="#e0e0e0"/>
        <path id="Trazado_3435" data-name="Trazado 3435" d="M109,178.744l.411,2.567-2.285.366-.4-2.49a11,11,0,0,1-5.985-.918l.8-2.988a9.383,9.383,0,0,0,4.695.911l-.613-3.819c-2.635-.209-5.606-.6-6.129-3.873-.388-2.423,1.04-4.785,4.586-5.776l-.408-2.538,2.288-.366.4,2.49a10.539,10.539,0,0,1,4.865.642l-.693,3a9.447,9.447,0,0,0-3.687-.642l.623,3.886c2.631.189,5.558.587,6.075,3.812C113.927,175.4,112.518,177.736,109,178.744ZM105.1,169l-.52-3.248c-1.168.469-1.544,1.21-1.422,1.964S104.036,168.863,105.1,169Zm4.814,4.881c-.128-.8-.86-1.13-1.9-1.316l.507,3.158C109.62,175.281,110.028,174.617,109.909,173.885Z" transform="translate(-86.523 -123.194)" fill="#e0e0e0"/>
        <path id="Trazado_3436" data-name="Trazado 3436" d="M345.688,114.242a14.2,14.2,0,1,1-19.482-4.753A14.2,14.2,0,0,1,345.688,114.242Z" transform="translate(-235.882 -87.612)" fill="#f5f5f5"/>
        <path id="Trazado_3437" data-name="Trazado 3437" d="M349.937,123.132a10.821,10.821,0,1,1-14.848-3.62A10.821,10.821,0,0,1,349.937,123.132Z" transform="translate(-243.019 -94.754)" fill="#ebebeb"/>
        <path id="Trazado_3438" data-name="Trazado 3438" d="M349.072,122.034c-.055.039-.34-.343-.921-.963a11.432,11.432,0,0,0-2.785-2.189,11.062,11.062,0,0,0-2.246-.94,10.912,10.912,0,0,0-2.747-.424,10.342,10.342,0,0,0-1.5.071,10.068,10.068,0,0,0-1.537.3,10.206,10.206,0,0,0-1.527.542,10.734,10.734,0,0,0-2.792,1.816,10.575,10.575,0,0,0-2.686,3.8,10.7,10.7,0,0,0-.728,2.683,11.144,11.144,0,0,0-.055,2.429,11.492,11.492,0,0,0,.87,3.434,7.48,7.48,0,0,1,.51,1.232c-.055.035-.369-.321-.8-1.088a10.013,10.013,0,0,1-1.162-3.507,10.854,10.854,0,0,1-.048-2.567,11.1,11.1,0,0,1,1.4-4.345,10.825,10.825,0,0,1,.963-1.4,10.629,10.629,0,0,1,1.2-1.284,10.911,10.911,0,0,1,3.01-1.958,10.739,10.739,0,0,1,1.653-.574,10.569,10.569,0,0,1,1.659-.3,10.161,10.161,0,0,1,1.6-.045,10.8,10.8,0,0,1,5.26,1.6,9.987,9.987,0,0,1,2.734,2.484C348.918,121.566,349.123,122.009,349.072,122.034Z" transform="translate(-242.331 -93.945)" fill="#e0e0e0"/>
        <path id="Trazado_3439" data-name="Trazado 3439" d="M356.578,141.809l1,1.6-1.425.892-.963-1.553a8,8,0,0,1-4.268,1.081l-.3-2.246a6.784,6.784,0,0,0,3.4-.722l-1.492-2.381c-1.823.607-3.922,1.187-5.2-.854-.947-1.512-.661-3.5,1.431-5.163l-.992-1.585,1.428-.892.963,1.556a7.592,7.592,0,0,1,3.453-.934l.385,2.2a6.922,6.922,0,0,0-2.647.623l1.518,2.426c1.816-.623,3.886-1.181,5.134.828C358.928,138.173,358.648,140.137,356.578,141.809Zm-5.375-5.4-1.268-2.025c-.642.642-.69,1.245-.395,1.717S350.452,136.591,351.2,136.411Zm4.605,1.9c-.321-.5-.9-.51-1.643-.34l1.232,1.967c.616-.616.7-1.181.411-1.64Z" transform="translate(-254.519 -102.937)" fill="#e0e0e0"/>
        <path id="Trazado_3440" data-name="Trazado 3440" d="M318.064,59.173A7.31,7.31,0,1,1,320.333,49.1a7.31,7.31,0,0,1-2.269,10.073Z" transform="translate(-227.375 -45.688)" fill="#f5f5f5"/>
        <path id="Trazado_3441" data-name="Trazado 3441" d="M320.83,61.381a5.571,5.571,0,1,1,1.73-7.679A5.571,5.571,0,0,1,320.83,61.381Z" transform="translate(-231.068 -49.365)" fill="#ebebeb"/>
        <path id="Trazado_3442" data-name="Trazado 3442" d="M326.158,60.93c-.016-.029.176-.18.491-.485a5.911,5.911,0,0,0,1.1-1.454,5.682,5.682,0,0,0,.462-1.165,5.5,5.5,0,0,0,.193-1.415,4.857,4.857,0,0,0-.048-.773,5.315,5.315,0,0,0-.167-.789,5.462,5.462,0,0,0-.3-.78,6.23,6.23,0,0,0-.424-.751,6.065,6.065,0,0,0-.536-.68,5.607,5.607,0,0,0-.613-.565,5.2,5.2,0,0,0-.671-.449,4.954,4.954,0,0,0-.7-.321,5.8,5.8,0,0,0-1.39-.35,5.63,5.63,0,0,0-1.252,0,5.883,5.883,0,0,0-1.762.478,3.244,3.244,0,0,1-.642.273,1.663,1.663,0,0,1,.555-.42,5.192,5.192,0,0,1,1.794-.642,5.607,5.607,0,0,1,1.328-.045,5.68,5.68,0,0,1,1.492.321,5.32,5.32,0,0,1,.757.347,5.415,5.415,0,0,1,.725.475,5.93,5.93,0,0,1,.671.6,6.732,6.732,0,0,1,.578.725,6.113,6.113,0,0,1,.472.822,5.6,5.6,0,0,1,.321.847,5.322,5.322,0,0,1,.17.85,5.652,5.652,0,0,1-.748,3.556,5.134,5.134,0,0,1-1.255,1.428A1.66,1.66,0,0,1,326.158,60.93Z" transform="translate(-236.252 -49.008)" fill="#e0e0e0"/>
        <path id="Trazado_3443" data-name="Trazado 3443" d="M319.284,64.847l-.815.53L318,64.645l.789-.513a4.092,4.092,0,0,1-.594-2.185l1.146-.18a3.53,3.53,0,0,0,.4,1.746l1.2-.793c-.321-.934-.642-2.009.392-2.686a1.966,1.966,0,0,1,2.673.69l.805-.523.472.725-.789.51a3.954,3.954,0,0,1,.517,1.762l-1.13.218a3.585,3.585,0,0,0-.347-1.338l-1.235.805c.337.927.642,1.99-.379,2.654A1.948,1.948,0,0,1,319.284,64.847Zm2.734-2.818,1.033-.671c-.337-.321-.642-.343-.889-.186s-.263.472-.157.857Zm-.937,2.391c.257-.167.257-.465.164-.85l-1,.642c.3.321.6.359.828.209Z" transform="translate(-234.954 -55.238)" fill="#e0e0e0"/>
      </g>
      <g id="freepik--Desk--inject-411" transform="translate(27.8 175.43)">
        <path id="Trazado_3444" data-name="Trazado 3444" d="M170.411,450.264c0,.048-31.927.083-71.3.083s-71.309-.035-71.309-.083,31.921-.084,71.309-.084S170.411,450.219,170.411,450.264Z" transform="translate(-27.8 -450.18)" fill="#263238"/>
      </g>
      <g id="freepik--Plants--inject-411" transform="translate(32.203 109.214)">
        <path id="Trazado_3445" data-name="Trazado 3445" d="M56.2,360.034c.363-1.4-.558-2.814-1.6-3.832s-2.266-1.925-2.8-3.276c-.87-2.182.3-5.006-1.184-6.826-.873-1.072-2.439-1.431-3.209-2.567a5.854,5.854,0,0,1-.7-2.044,20.724,20.724,0,0,0-5.154-9.669,18.029,18.029,0,0,0,2.028,9.306,11.728,11.728,0,0,1,1.537,3.53c.321,2.073-.834,4.21-.321,6.245.581,2.33,3.209,3.889,3.321,6.287.106,2.028-1.662,3.806-1.531,5.831a5.523,5.523,0,0,0,.9,2.4,8.035,8.035,0,0,0,7.349,4.355l4.274.148Z" transform="translate(-41.522 -303.587)" fill="#f83f00"/>
        <g id="Grupo_718" data-name="Grupo 718" transform="translate(0 28.233)" opacity="0.3">
          <path id="Trazado_3446" data-name="Trazado 3446" d="M56.2,360.034c.363-1.4-.558-2.814-1.6-3.832s-2.266-1.925-2.8-3.276c-.87-2.182.3-5.006-1.184-6.826-.873-1.072-2.439-1.431-3.209-2.567a5.854,5.854,0,0,1-.7-2.044,20.724,20.724,0,0,0-5.154-9.669,18.029,18.029,0,0,0,2.028,9.306,11.728,11.728,0,0,1,1.537,3.53c.321,2.073-.834,4.21-.321,6.245.581,2.33,3.209,3.889,3.321,6.287.106,2.028-1.662,3.806-1.531,5.831a5.523,5.523,0,0,0,.9,2.4,8.035,8.035,0,0,0,7.349,4.355l4.274.148Z" transform="translate(-41.522 -331.82)"/>
        </g>
        <path id="Trazado_3447" data-name="Trazado 3447" d="M94.437,338.515a3.4,3.4,0,0,0,1.178-.022,7.467,7.467,0,0,0,1.386-.35,5.926,5.926,0,0,0,1.717-.94,2.4,2.4,0,0,0,.706-.94,4.361,4.361,0,0,0,.2-1.284,13.012,13.012,0,0,1,.1-1.383,3.79,3.79,0,0,1,.52-1.373,6.734,6.734,0,0,0,1.489-6.672,7.936,7.936,0,0,1,.1-4.015c.491-1.335,1.4-2.545,1.864-4.05s.25-3.161.347-4.775a6.364,6.364,0,0,1,.558-2.372c.347-.757.825-1.47,1.2-2.269a16.621,16.621,0,0,0,1.1-5.221q.151-1.354.321-2.731a13.587,13.587,0,0,1,.475-2.734,23.865,23.865,0,0,1,1.024-2.644,9.041,9.041,0,0,0,.494-1.383,13.609,13.609,0,0,0,.138-1.47,17.251,17.251,0,0,0-.112-2.959c-.116-.985-.3-1.964-.4-2.952l-.019-.17-.022-.2-.173.087a6.614,6.614,0,0,0-2.3,1.941,10.493,10.493,0,0,0-1.415,2.606,32.763,32.763,0,0,0-1.329,5.6,15.128,15.128,0,0,1-1.765,5.176c-.465.761-1.033,1.454-1.531,2.2a6.062,6.062,0,0,0-1.059,2.436c-.254,1.807.741,3.4.536,5a5.542,5.542,0,0,1-.78,2.217c-.388.684-.844,1.316-1.284,1.954a12.559,12.559,0,0,0-1.149,1.97,6.212,6.212,0,0,0-.523,2.144c-.106,1.441.1,2.808,0,4.1a9.451,9.451,0,0,1-1.053,3.514c-.52,1.049-1.094,2-1.576,2.923a14.359,14.359,0,0,0-.642,1.361,6.907,6.907,0,0,0-.375,1.354,8.555,8.555,0,0,0-.029,2.439,6.119,6.119,0,0,0,1.226,3.1,3.125,3.125,0,0,0,.343.375,1.845,1.845,0,0,0,.282.237c.157.119.244.17.244.17a5.059,5.059,0,0,1-.828-.818A6.18,6.18,0,0,1,92.46,334.6a8.629,8.629,0,0,1,.055-2.407,6.931,6.931,0,0,1,.379-1.319c.183-.44.408-.889.642-1.345.488-.911,1.069-1.858,1.6-2.917a9.512,9.512,0,0,0,1.091-3.575c.112-1.319-.083-2.689.026-4.1a5.985,5.985,0,0,1,.513-2.07,12.117,12.117,0,0,1,1.136-1.925c.43-.642.892-1.268,1.284-1.967a5.776,5.776,0,0,0,.818-2.307c.205-1.707-.783-3.305-.526-4.984a5.777,5.777,0,0,1,1.024-2.33c.488-.732,1.059-1.425,1.54-2.2a15.659,15.659,0,0,0,1.8-5.256,31.3,31.3,0,0,1,1.322-5.552,10.173,10.173,0,0,1,1.377-2.535,6.307,6.307,0,0,1,2.2-1.861l-.2-.109.019.173c.109,1,.286,1.98.4,2.952a17.062,17.062,0,0,1,.112,2.914,12.837,12.837,0,0,1-.132,1.428,8.489,8.489,0,0,1-.478,1.332,24.545,24.545,0,0,0-1.03,2.673,13.524,13.524,0,0,0-.481,2.779q-.154,1.383-.3,2.734a16.381,16.381,0,0,1-1.069,5.135c-.363.773-.841,1.489-1.2,2.272a6.594,6.594,0,0,0-.574,2.458,20.706,20.706,0,0,1-.321,4.724c-.443,1.46-1.373,2.667-1.845,4.047a8.529,8.529,0,0,0-.093,4.114,9.631,9.631,0,0,1,.138,3.678,11.409,11.409,0,0,1-1.572,2.888,3.9,3.9,0,0,0-.53,1.428,11.969,11.969,0,0,0-.09,1.4,4.345,4.345,0,0,1-.183,1.242,2.265,2.265,0,0,1-.664.9,5.952,5.952,0,0,1-1.672.947,7.525,7.525,0,0,1-1.37.369,5.431,5.431,0,0,1-.87.087Z" transform="translate(-75.992 -272.206)" fill="#263238"/>
        <path id="Trazado_3448" data-name="Trazado 3448" d="M112.544,293.57a.643.643,0,0,0-.042.132c-.026.1-.055.228-.093.385-.083.337-.186.844-.347,1.479s-.555,1.348-.886,2.23a31.5,31.5,0,0,0-1.017,3.033c-.321,1.139-.616,2.407-.918,3.761a15.479,15.479,0,0,1-1.367,4.172c-.35.693-.745,1.4-1.059,2.166a9.948,9.948,0,0,0-.613,2.452,49.149,49.149,0,0,1-.924,5.17c-.857,3.5-1.672,6.838-2.416,9.877l-2.025,8.055c-.562,2.278-1.02,4.13-1.341,5.433-.148.642-.266,1.123-.353,1.483-.032.157-.061.286-.083.388a.458.458,0,0,0-.019.132.641.641,0,0,0,.048-.125l.109-.382c.1-.356.231-.847.4-1.467.343-1.3.831-3.145,1.428-5.417l2.083-8.039c.751-3.039,1.572-6.373,2.439-9.878a49.664,49.664,0,0,0,.921-5.192,9.907,9.907,0,0,1,.581-2.381c.3-.748.69-1.447,1.04-2.15a15.908,15.908,0,0,0,1.367-4.236c.3-1.348.568-2.622.879-3.761s.642-2.15.963-3.026.69-1.6.847-2.262.231-1.152.3-1.5c.026-.157.048-.286.067-.388A.642.642,0,0,0,112.544,293.57Z" transform="translate(-80.582 -277.611)" fill="#263238"/>
        <path id="Trazado_3449" data-name="Trazado 3449" d="M68.714,310.178c2.792-1.659,3.594-6.569,2.429-9.6s-3.209-5.8-3.53-9.034c-.244-2.484.571-5.035,0-7.464-.777-3.283-3.976-5.815-3.937-9.184.019-1.89,1.094-3.668,1.011-5.558-.106-2.314-1.884-4.153-2.984-6.194-1.688-3.122-1.8-6.816-2.375-10.317s-1.925-7.252-5.013-8.985c-.459,2.972-1.242,5.009-.995,9.037.087,1.447,1.768,4.213,2,7.381.138,1.9.231,3.793.347,5.69a18.2,18.2,0,0,0,.9,5.455c.507,1.325,1.319,2.526,1.7,3.893.706,2.567-.225,5.353.347,7.955.485,2.2,2.012,4.1,2.323,6.341.44,3.142-1.6,6.418-.555,9.4.517,1.489,1.743,2.683,2.089,4.217.27,1.194-.026,2.455.218,3.652.395,1.925,4.072,3.427,6.036,3.305" transform="translate(-49.502 -243.84)" fill="#f83f00"/>
        <path id="Trazado_3450" data-name="Trazado 3450" d="M58.9,253.07a.963.963,0,0,0,0,.17c0,.125.039.286.064.488.064.43.135,1.059.279,1.874s.581,1.742.918,2.856.709,2.391,1.024,3.822.584,3.02.863,4.724a19.454,19.454,0,0,0,1.431,5.343c.392.892.831,1.784,1.162,2.737a12.194,12.194,0,0,1,.587,3.017,60.827,60.827,0,0,0,.822,6.5c.854,4.406,1.669,8.6,2.41,12.422s1.486,7.23,2.076,10.115,1.085,5.189,1.425,6.816c.17.789.3,1.409.4,1.852.045.2.083.356.112.478a.79.79,0,0,0,.045.16.555.555,0,0,0-.019-.167c-.022-.122-.048-.282-.083-.485-.083-.443-.2-1.065-.35-1.861-.321-1.63-.777-3.96-1.338-6.832s-1.261-6.319-2.022-10.128l-2.388-12.416a61.1,61.1,0,0,1-.809-6.479A12.434,12.434,0,0,0,64.9,275c-.34-.963-.783-1.868-1.178-2.753a19.742,19.742,0,0,1-1.438-5.279c-.3-1.7-.568-3.292-.9-4.727s-.7-2.718-1.069-3.828-.789-2.031-.963-2.83-.25-1.438-.321-1.861c-.039-.2-.067-.359-.09-.485A.642.642,0,0,0,58.9,253.07Z" transform="translate(-53.322 -250.108)" fill="#263238"/>
        <path id="Trazado_3451" data-name="Trazado 3451" d="M433.087,390.966a3.572,3.572,0,0,1,1.852,2.1,6.337,6.337,0,0,1,.247,2.84,11.128,11.128,0,0,1-2.384,5.176c-1.553-1.354-1.925-3.716-2.015-4.926-.167-1.925.69-5.471,2.3-5.186" transform="translate(-305.855 -343.741)" fill="#f83f00"/>
        <path id="Trazado_3452" data-name="Trazado 3452" d="M442.6,423.875a3.052,3.052,0,0,1,.985-2.888,4.05,4.05,0,0,1,2.984-.934,1.71,1.71,0,0,1,1.309.587,1.3,1.3,0,0,1,.022,1.322,2.634,2.634,0,0,1-.979.963,5.256,5.256,0,0,1-4.323.963" transform="translate(-313.851 -363.493)" fill="#f83f00"/>
        <path id="Trazado_3453" data-name="Trazado 3453" d="M436.52,433.338a2.252,2.252,0,0,1,.055-.379c.048-.266.112-.61.189-1.024a10.637,10.637,0,0,1,1.056-3.276,6.524,6.524,0,0,1,2.346-2.493,4.269,4.269,0,0,1,.963-.424,2.488,2.488,0,0,1,.276-.071c.064,0,.1-.019.1,0a6.058,6.058,0,0,0-3.562,3.065,11.441,11.441,0,0,0-1.078,3.209c-.1.43-.173.777-.231,1.014A1.884,1.884,0,0,1,436.52,433.338Z" transform="translate(-309.763 -367.315)" fill="#263238"/>
        <path id="Trazado_3454" data-name="Trazado 3454" d="M436.543,399.59a1.159,1.159,0,0,1,.019.167c0,.122.016.279.029.475.022.411.045,1.008.071,1.749.045,1.476.083,3.53.074,5.776s-.064,4.3-.125,5.776c-.029.738-.061,1.335-.087,1.749,0,.193-.022.35-.032.475a.757.757,0,0,1-.019.164.964.964,0,0,1,0-.167v-.475c0-.43.026-1.024.042-1.749.039-1.476.077-3.53.087-5.776s0-4.294-.035-5.776c0-.725-.019-1.319-.029-1.749v-.475A.97.97,0,0,1,436.543,399.59Z" transform="translate(-309.728 -349.609)" fill="#263238"/>
        <path id="Trazado_3455" data-name="Trazado 3455" d="M422.059,423.869a7.124,7.124,0,0,0-3.893-5.221,1.179,1.179,0,0,0-1.746,1.579,6.1,6.1,0,0,0,5.6,3.78" transform="translate(-295.998 -362.377)" fill="#f83f00"/>
        <path id="Trazado_3456" data-name="Trazado 3456" d="M423,424.64a1.722,1.722,0,0,1,.321.141,3.692,3.692,0,0,1,.372.2,5.538,5.538,0,0,1,.475.3,6.479,6.479,0,0,1,.542.408,7.591,7.591,0,0,1,.578.523,7.948,7.948,0,0,1,1.094,1.409,7.81,7.81,0,0,1,.722,1.633,7.13,7.13,0,0,1,.183.757,6.456,6.456,0,0,1,.093.674,5.063,5.063,0,0,1,.026.558,3.354,3.354,0,0,1,0,.42,1.854,1.854,0,0,1-.039.359c-.032,0,.022-.513-.067-1.328a6.447,6.447,0,0,0-.109-.661,6.663,6.663,0,0,0-.193-.741,7.934,7.934,0,0,0-.719-1.6,8.126,8.126,0,0,0-1.069-1.393,7.565,7.565,0,0,0-.562-.523,6.054,6.054,0,0,0-.523-.417C423.456,424.878,423,424.666,423,424.64Z" transform="translate(-300.581 -366.62)" fill="#263238"/>
      </g>
      <g id="freepik--Character--inject-411" transform="translate(54.73 45.597)">
        <path id="Trazado_3457" data-name="Trazado 3457" d="M196.171,197.88s-14.983-10.619-16.88-11.662c-1.807-.995-7.541-1.717-8.055-1.842l-10.269-2.246-15.686.469-4.493,2.705L129.4,190.56a13.5,13.5,0,0,0-6.845,7.143L115.37,215.26l17.852,5.276.555,18.519-4.207,29.177h52.2l-2.628-55.918,5.436,1.2Z" transform="translate(-114.199 -138.316)" fill="#263238"/>
        <path id="Trazado_3458" data-name="Trazado 3458" d="M139.234,271.019s-.189.138-.552.35a4.574,4.574,0,0,1-1.669.61,6.178,6.178,0,0,1-2.6-.379,18.555,18.555,0,0,1-2.965-1.284c-1.017-.53-1.97-1.065-2.862-1.5a15.994,15.994,0,0,0-2.445-.979,9.67,9.67,0,0,0-1.739-.353c-.209-.022-.369-.032-.481-.035h-.167a4.531,4.531,0,0,1,.642.022,8.9,8.9,0,0,1,1.749.321,15.475,15.475,0,0,1,2.458.963c.9.43,1.852.963,2.869,1.5a19.184,19.184,0,0,0,2.952,1.284,6.2,6.2,0,0,0,2.567.388,4.589,4.589,0,0,0,1.659-.584c.183-.1.321-.186.417-.244A.849.849,0,0,1,139.234,271.019Z" transform="translate(-119.889 -196.257)" fill="#fff"/>
        <path id="Trazado_3459" data-name="Trazado 3459" d="M145.648,246.1h-.119l-.34-.016c-.3-.016-.722-.048-1.248-.1a32.734,32.734,0,0,1-8.023-1.848c-.5-.183-.9-.34-1.168-.456l-.321-.135-.109-.051.116.039.321.122c.276.109.677.26,1.175.436a35.111,35.111,0,0,0,8.023,1.845c.523.058.963.1,1.242.122l.34.029Z" transform="translate(-127.067 -179.985)" fill="#fff"/>
        <path id="Trazado_3460" data-name="Trazado 3460" d="M170.812,194.87s-.135.218-.417.584a8.27,8.27,0,0,1-1.377,1.383,12.146,12.146,0,0,1-2.487,1.489,25.219,25.219,0,0,1-3.341,1.219c-1.21.359-2.365.677-3.4,1.017a19.651,19.651,0,0,0-2.689,1.075,11.6,11.6,0,0,0-1.675,1c-.193.128-.321.247-.424.321l-.151.109s.189-.173.558-.452a11.525,11.525,0,0,1,1.669-1.021,19.63,19.63,0,0,1,2.692-1.088c1.037-.347,2.2-.664,3.4-1.024a25.6,25.6,0,0,0,3.334-1.21,12.515,12.515,0,0,0,2.484-1.47,8.551,8.551,0,0,0,1.4-1.354c.151-.173.244-.321.321-.42A.727.727,0,0,0,170.812,194.87Z" transform="translate(-141.009 -146.967)" fill="#fff"/>
        <path id="Trazado_3461" data-name="Trazado 3461" d="M273.347,195.828s-.048-.022-.138-.074-.212-.128-.385-.215a9.754,9.754,0,0,0-1.489-.642,16.687,16.687,0,0,0-2.336-.6c-.892-.17-1.884-.3-2.923-.449l-5.321-.754-1.6-.237-.44-.067-.151-.029.154.016.44.055,1.6.215,5.324.735c1.04.144,2.031.279,2.927.452a15.9,15.9,0,0,1,2.336.616,9.192,9.192,0,0,1,1.489.667C273.174,195.706,273.347,195.828,273.347,195.828Z" transform="translate(-211.438 -145.534)" fill="#fff"/>
        <path id="Trazado_3462" data-name="Trazado 3462" d="M205.493,213.36s-.119.058-.347.157-.568.244-1.008.42c-.882.35-2.169.834-3.8,1.309a41.916,41.916,0,0,1-5.821,1.284,40.4,40.4,0,0,1-7.288.254c-2.583-.087-5.057-.2-7.3-.055a22.528,22.528,0,0,0-5.837,1.065,14.557,14.557,0,0,0-3.594,1.762c-.382.276-.68.494-.866.661a3.131,3.131,0,0,1-.3.241s.1-.09.286-.25.478-.391.863-.674a14.277,14.277,0,0,1,3.591-1.784,22.463,22.463,0,0,1,5.85-1.081c2.246-.144,4.714-.035,7.3.048a40.932,40.932,0,0,0,7.281-.247,42.076,42.076,0,0,0,5.815-1.284c1.627-.469,2.917-.947,3.8-1.284.443-.173.783-.321,1.011-.411Z" transform="translate(-150.849 -159.524)" fill="#fff"/>
        <path id="Trazado_3463" data-name="Trazado 3463" d="M284.506,223.072a.193.193,0,0,1-.058.029l-.17.061c-.148.055-.363.125-.642.2a8.385,8.385,0,0,1-2.16.321,7.381,7.381,0,0,1-2.16-.321c-.27-.08-.485-.154-.642-.212l-.167-.067-.058-.029h.064l.17.055c.148.051.363.119.642.193a7.866,7.866,0,0,0,2.147.289,9.126,9.126,0,0,0,2.15-.321c.266-.074.485-.135.642-.183l.17-.048Z" transform="translate(-224.945 -166.097)" fill="#fff"/>
        <path id="Trazado_3464" data-name="Trazado 3464" d="M206.628,251.44s-1.54.321-4.053.7c-1.258.189-2.76.375-4.432.542s-3.53.292-5.455.366-3.787.067-5.455.032-3.209-.125-4.461-.221c-2.535-.193-4.092-.4-4.092-.4l.282.022.815.08c.706.074,1.73.164,3,.254s2.779.164,4.457.205,3.53.032,5.455-.035,3.777-.205,5.455-.359,3.174-.347,4.432-.529,2.272-.343,2.972-.469l.805-.141Z" transform="translate(-157.192 -185.384)" fill="#fff"/>
        <path id="Trazado_3465" data-name="Trazado 3465" d="M280.815,246.386h-1.669c-1.04,0-2.477-.042-4.056-.177s-3.007-.35-4.027-.536c-.513-.09-.924-.173-1.21-.234l-.321-.071-.112-.029h.115l.321.058,1.21.215c1.024.173,2.445.379,4.024.513s3.017.18,4.053.2H280.7Z" transform="translate(-218.813 -181.241)" fill="#fff"/>
        <path id="Trazado_3466" data-name="Trazado 3466" d="M199.64,288.689s-.093.019-.263.042l-.757.106c-.321.048-.732.1-1.2.135s-1,.1-1.6.106-1.242.055-1.925.042H192.8l-1.146-.038c-1.569-.061-3.289-.18-5.093-.321s-3.53-.321-5.086-.414-2.975-.164-4.172-.144h-.844l-.754.039c-.469.019-.876.042-1.2.083l-.761.074-.266.022s.093-.016.266-.035l.757-.09c.321-.045.735-.067,1.207-.093l.754-.042h.844c1.187-.022,2.6.035,4.172.132s3.283.257,5.086.408,3.53.276,5.09.343l1.142.042h1.081c.7,0,1.345-.016,1.925-.032s1.126-.071,1.6-.1.873-.077,1.2-.122l.757-.093Z" transform="translate(-153.661 -210.317)" fill="#fff"/>
        <path id="Trazado_3467" data-name="Trazado 3467" d="M284.085,277.3l-.141.022-.411.042c-.353.038-.87.08-1.505.125-1.284.087-3.039.148-4.987.1s-3.71-.209-4.977-.363c-.642-.077-1.146-.148-1.5-.2l-.4-.064-.141-.029.141.016.408.051c.353.048.866.112,1.5.183,1.268.141,3.023.289,4.971.34s3.71,0,4.984-.08c.642-.035,1.152-.074,1.508-.1l.408-.032Z" transform="translate(-219.221 -202.694)" fill="#fff"/>
        <path id="Trazado_3468" data-name="Trazado 3468" d="M217.721,314l-.469-.026c-.321,0-.761-.064-1.345-.08-1.168-.061-2.859-.074-4.948.029s-4.563.35-7.3.712-5.744.834-8.9,1.232a77.564,77.564,0,0,1-8.985.684,41.155,41.155,0,0,1-7.32-.53,29.426,29.426,0,0,1-4.8-1.213c-.279-.087-.52-.18-.728-.263l-.533-.212c-.286-.112-.433-.176-.433-.176l.44.164.533.205c.209.083.452.173.732.26a29.847,29.847,0,0,0,4.8,1.187,41.758,41.758,0,0,0,7.31.517,78.28,78.28,0,0,0,8.985-.7c3.161-.408,6.165-.876,8.908-1.229s5.212-.59,7.294-.7a48.519,48.519,0,0,1,4.948,0C217.076,313.934,217.721,314,217.721,314Z" transform="translate(-152.629 -227.734)" fill="#fff"/>
        <path id="Trazado_3469" data-name="Trazado 3469" d="M200.672,351.339s-1.544.263-4.059.533c-1.255.135-2.757.257-4.425.353s-3.511.141-5.439.132-3.767-.1-5.436-.209-3.167-.263-4.422-.417c-2.513-.321-4.05-.59-4.05-.59l.282.035.805.119c.347.055.777.116,1.284.177s1.065.148,1.691.212c1.258.148,2.757.289,4.422.4s3.5.183,5.433.2,3.767-.042,5.436-.125,3.167-.209,4.425-.34c.642-.058,1.2-.132,1.694-.186s.927-.112,1.284-.16l.805-.106Z" transform="translate(-153.226 -253.089)" fill="#fff"/>
        <path id="Trazado_3470" data-name="Trazado 3470" d="M277.268,344.6s-.061.022-.173.054l-.491.151c-.43.128-1.053.3-1.826.514-1.544.414-3.7.927-6.1,1.367s-4.6.725-6.19.886c-.8.08-1.441.135-1.887.167l-.513.035h-.18l.177-.022.513-.048c.446-.038,1.091-.1,1.884-.189,1.6-.173,3.783-.462,6.184-.9s4.55-.947,6.1-1.351c.773-.2,1.4-.369,1.826-.491l.5-.138Z" transform="translate(-212.355 -248.648)" fill="#fff"/>
        <path id="Trazado_3471" data-name="Trazado 3471" d="M186.209,387.549a22.635,22.635,0,0,1-2.5.247c-.773.042-1.7.045-2.724,0a28.238,28.238,0,0,1-6.569-1.1,27.109,27.109,0,0,1-2.567-.889,24.169,24.169,0,0,1-2.282-1.046l.16.071.452.209c.2.093.436.205.722.321s.6.263.963.4c.719.289,1.6.587,2.567.876a32.156,32.156,0,0,0,3.248.738,32.938,32.938,0,0,0,3.309.353,26.332,26.332,0,0,0,2.718,0c.388,0,.738-.042,1.046-.061s.568-.048.786-.071l.494-.051Z" transform="translate(-151.006 -275.921)" fill="#fff"/>
        <path id="Trazado_3472" data-name="Trazado 3472" d="M250.525,390.9l-.321.058-.918.148c-.8.125-1.951.3-3.379.5-2.856.408-6.813.915-11.193,1.351s-8.363.712-11.232.873c-1.441.08-2.609.138-3.414.17l-.927.035h-.321l.321-.019.927-.048,3.411-.189c2.888-.173,6.855-.462,11.232-.9s8.344-.934,11.193-1.329l3.382-.485.918-.135Z" transform="translate(-184.451 -280.09)" fill="#fff"/>
        <path id="Trazado_3473" data-name="Trazado 3473" d="M215.04,425.505s-.7.148-1.98.356-3.135.469-5.455.661a71.562,71.562,0,0,1-8.135.2c-3.065-.1-6.418-.443-9.926-.873s-6.851-.863-9.9-1.1a64.078,64.078,0,0,0-8.129-.183,40.955,40.955,0,0,0-5.455.623c-.642.122-1.13.225-1.46.3l-.507.116s.173-.048.5-.128.822-.189,1.457-.321a39.417,39.417,0,0,1,5.455-.642,62.613,62.613,0,0,1,8.132.164c3.058.238,6.4.671,9.906,1.1s6.861.773,9.922.873a71.836,71.836,0,0,0,8.129-.183c2.307-.186,4.172-.44,5.455-.642.642-.1,1.136-.183,1.473-.244Z" transform="translate(-147.284 -302.876)" fill="#fff"/>
        <path id="Trazado_3474" data-name="Trazado 3474" d="M330.935,222.26s-.093.254-.3.7a13.05,13.05,0,0,1-1.046,1.787,23.249,23.249,0,0,1-1.925,2.391c-.777.86-1.669,1.765-2.567,2.747a23.424,23.424,0,0,0-2.343,2.933,12.236,12.236,0,0,0-1.377,2.731,8.492,8.492,0,0,0-.452,2.035c-.032.241-.022.433-.032.562a1.013,1.013,0,0,0,0,.2,6.481,6.481,0,0,1,.019-.761,8.121,8.121,0,0,1,.427-2.028,12.135,12.135,0,0,1,1.37-2.747,23.322,23.322,0,0,1,2.346-2.949c.9-.979,1.8-1.884,2.567-2.741a23.821,23.821,0,0,0,1.925-2.378,13.2,13.2,0,0,0,1.062-1.771c.116-.218.183-.395.241-.51S330.935,222.26,330.935,222.26Z" transform="translate(-253.764 -165.568)" fill="#fff"/>
        <path id="Trazado_3475" data-name="Trazado 3475" d="M306.14,218.418l.109-.08.321-.218c.282-.183.677-.465,1.152-.831s1.024-.822,1.6-1.361a24.384,24.384,0,0,0,1.781-1.858,25.144,25.144,0,0,0,1.556-2.054c.436-.661.805-1.284,1.088-1.8s.5-.963.642-1.284l.164-.35.061-.122a17.738,17.738,0,0,1-.822,1.778,20.524,20.524,0,0,1-1.081,1.81,22.824,22.824,0,0,1-1.553,2.063,23.337,23.337,0,0,1-1.791,1.861c-.587.536-1.136.995-1.6,1.354A17.387,17.387,0,0,1,306.14,218.418Z" transform="translate(-243.749 -156.196)" fill="#fff"/>
        <path id="Trazado_3476" data-name="Trazado 3476" d="M234.67,228.575a.275.275,0,0,1,.077-.035l.231-.09c.209-.071.5-.2.876-.372a11.517,11.517,0,0,0,2.84-2.022,22.349,22.349,0,0,0,3.251-4.034,56.837,56.837,0,0,0,3.171-5.52,96.492,96.492,0,0,0,4.493-10.661c.5-1.393.9-2.529,1.171-3.309l.321-.9c.035-.1.064-.17.087-.234a.372.372,0,0,1,.032-.077.319.319,0,0,1-.016.083c-.019.064-.045.141-.074.237-.067.221-.164.526-.289.911-.254.789-.642,1.925-1.123,3.328a89.041,89.041,0,0,1-4.464,10.7,55.1,55.1,0,0,1-3.187,5.529,22.143,22.143,0,0,1-3.3,4.034,11.042,11.042,0,0,1-2.888,1.993,8.2,8.2,0,0,1-.889.35l-.237.074a.283.283,0,0,1-.083.019Z" transform="translate(-195.215 -151.348)" fill="#455a64"/>
        <path id="Trazado_3477" data-name="Trazado 3477" d="M233,275.73a1.055,1.055,0,0,1,.173-.135l.52-.356c.446-.321,1.091-.773,1.868-1.367,1.556-1.184,3.6-2.952,5.8-4.971,1.1-1.008,2.16-1.961,3.071-2.872a24.226,24.226,0,0,0,2.266-2.567,14.16,14.16,0,0,0,1.239-1.948c.135-.237.218-.433.282-.562a1.46,1.46,0,0,1,.106-.193.919.919,0,0,1-.074.209c-.058.132-.132.321-.26.574a12.461,12.461,0,0,1-1.2,1.986,22.414,22.414,0,0,1-2.246,2.606c-.911.924-1.964,1.88-3.068,2.888a75.377,75.377,0,0,1-5.837,4.942c-.786.587-1.441,1.03-1.9,1.329-.228.151-.411.257-.533.321A1.68,1.68,0,0,1,233,275.73Z" transform="translate(-194.081 -191.713)" fill="#455a64"/>
        <path id="Trazado_3478" data-name="Trazado 3478" d="M206,364.467l.038-.074c.035-.051.077-.119.128-.2.112-.18.286-.436.517-.764.465-.642,1.181-1.563,2.124-2.635,1.9-2.137,4.567-5.048,7.5-8.273l7.545-8.231,2.3-2.484.642-.671.167-.17c.038-.039.058-.058.061-.055s-.016.022-.048.064l-.157.183-.6.69c-.546.6-1.316,1.463-2.262,2.516l-7.512,8.267-7.554,8.238c-.963,1.062-1.682,1.961-2.16,2.6-.241.321-.42.571-.542.741l-.138.2a.261.261,0,0,1-.048.064Z" transform="translate(-175.745 -246.142)" fill="#455a64"/>
        <path id="Trazado_3479" data-name="Trazado 3479" d="M298.606,209.253a3.257,3.257,0,0,1-.119-.488c-.035-.157-.074-.353-.1-.581s-.077-.488-.09-.777-.048-.606-.045-.963,0-.706.026-1.091a14.056,14.056,0,0,1,1.2-4.814c.164-.347.321-.677.488-.963s.321-.571.485-.815.321-.459.443-.642a5.465,5.465,0,0,1,.363-.465,3.3,3.3,0,0,1,.321-.375,2.88,2.88,0,0,1-.286.414c-.1.128-.215.286-.337.478s-.279.4-.42.642-.321.517-.465.818-.321.642-.469.963a14.615,14.615,0,0,0-1.187,4.775c-.019.379-.048.738-.042,1.075s0,.642.026.94.045.546.067.773.048.424.074.584A2.659,2.659,0,0,1,298.606,209.253Z" transform="translate(-238.391 -148.604)" fill="#455a64"/>
        <path id="Trazado_3480" data-name="Trazado 3480" d="M308.772,258.273c-.038,0-.616-1.258-1.284-2.85s-1.181-2.888-1.142-2.914a30.991,30.991,0,0,1,1.284,2.85A29.758,29.758,0,0,1,308.772,258.273Z" transform="translate(-243.888 -186.11)" fill="#455a64"/>
        <path id="Trazado_3481" data-name="Trazado 3481" d="M157.058,225.232c-.026.016-.276-.443-.748-1.139a16.045,16.045,0,0,0-4.679-4.541c-.709-.449-1.175-.687-1.162-.712a1.687,1.687,0,0,1,.34.141c.215.1.517.26.883.475a14.3,14.3,0,0,1,2.625,2.012,14.442,14.442,0,0,1,2.089,2.567c.225.359.395.658.5.87A1.766,1.766,0,0,1,157.058,225.232Z" transform="translate(-138.034 -163.245)" fill="#455a64"/>
        <path id="Trazado_3482" data-name="Trazado 3482" d="M210.221,211a.933.933,0,0,1,0-.321,2.651,2.651,0,0,1,.735-1.6l.019-.019v.022a.607.607,0,0,1,.051.141.792.792,0,0,1-.08-.125h.029a3.209,3.209,0,0,0-.5.818,4.031,4.031,0,0,0-.25,1.088Z" transform="translate(-178.602 -156.604)" fill="#455a64"/>
        <path id="Trazado_3483" data-name="Trazado 3483" d="M223.311,217.45a.963.963,0,0,1-.067-.321,3.039,3.039,0,0,1,.019-.789,3.072,3.072,0,0,1,.221-.757,1.042,1.042,0,0,1,.16-.282,5.086,5.086,0,0,0-.321,1.053,5.155,5.155,0,0,0-.013,1.1Z" transform="translate(-187.444 -160.841)" fill="#455a64"/>
        <path id="Trazado_3484" data-name="Trazado 3484" d="M236.922,217.2a5.2,5.2,0,0,0-.122-.889,4.685,4.685,0,0,0-.35-.831.866.866,0,0,1,.16.215,2.411,2.411,0,0,1,.254.6,2.61,2.61,0,0,1,.087.642A.781.781,0,0,1,236.922,217.2Z" transform="translate(-196.423 -160.964)" fill="#455a64"/>
        <path id="Trazado_3485" data-name="Trazado 3485" d="M248.1,212.179a5.427,5.427,0,0,0-.481-.815,5.583,5.583,0,0,0-.674-.664.918.918,0,0,1,.241.144,2.68,2.68,0,0,1,.485.478,2.71,2.71,0,0,1,.347.587.883.883,0,0,1,.083.27Z" transform="translate(-203.547 -157.717)" fill="#455a64"/>
        <path id="Trazado_3486" data-name="Trazado 3486" d="M256.052,203.99a1.97,1.97,0,0,0-.555-.879,1.9,1.9,0,0,0-.947-.42h.087a1.244,1.244,0,0,1,.228.029,1.6,1.6,0,0,1,.677.347,1.567,1.567,0,0,1,.44.619.963.963,0,0,1,.064.221A.319.319,0,0,1,256.052,203.99Z" transform="translate(-208.715 -152.278)" fill="#455a64"/>
        <path id="Trazado_3487" data-name="Trazado 3487" d="M260.118,189.863a2.073,2.073,0,0,0-.844-.4,2.018,2.018,0,0,0-.934.077,1.473,1.473,0,0,1,1.778.321Z" transform="translate(-211.289 -143.231)" fill="#455a64"/>
        <path id="Trazado_3488" data-name="Trazado 3488" d="M201.57,201.584a.818.818,0,0,1,.067-.276,1.88,1.88,0,0,1,.908-.988.811.811,0,0,1,.27-.09A2.262,2.262,0,0,0,201.57,201.584Z" transform="translate(-172.737 -150.607)" fill="#455a64"/>
        <path id="Trazado_3489" data-name="Trazado 3489" d="M198.41,191.513a.9.9,0,0,1,.16-.257,2.285,2.285,0,0,1,.536-.5,2.416,2.416,0,0,1,.667-.321.914.914,0,0,1,.3-.051,2.984,2.984,0,0,0-1.662,1.123Z" transform="translate(-170.591 -143.918)" fill="#455a64"/>
        <path id="Trazado_3490" data-name="Trazado 3490" d="M171.789,255.329s0-.019-.019,0a.47.47,0,0,0-.029.1c-.016.1-.032.244-.051.433-.038.375-.08.921-.125,1.6-.093,1.351-.2,3.209-.3,5.285s-.177,3.934-.221,5.289c-.022.642-.039,1.2-.051,1.6a2.9,2.9,0,0,1-.019.436.8.8,0,0,1,0,.151.429.429,0,0,1-.016-.151c0-.119,0-.263,0-.436v-1.6c0-1.354.071-3.228.173-5.295s.225-3.934.347-5.285c.061-.677.122-1.223.18-1.6.029-.186.058-.321.083-.43a.359.359,0,0,1,.045-.109C171.786,255.29,171.8,255.335,171.789,255.329Z" transform="translate(-151.947 -188.012)" fill="#263238"/>
        <path id="Trazado_3491" data-name="Trazado 3491" d="M216.526,48.095c-2.676-.818-5.455,1.579-8.215,1.04-1.669-.321-2.927-1.659-4.412-2.487a8.558,8.558,0,0,0-7.622-.289c-2.266,1.152-3.732,2.378-4.037,4.9-2.063-1.184-5.5,1.412-6.675,3.918s-.879,5.093-.215,7.779A36.493,36.493,0,0,0,191.39,75.8c.25.34.642.716,1.03.536a.934.934,0,0,0,.4-.741,30.4,30.4,0,0,0-.132-7.439,18.287,18.287,0,0,1,.465-7.381,7.244,7.244,0,0,1,5.07-4.993,7.864,7.864,0,0,1,5.276,1.13c1.6.9,3.01,2.1,4.534,3.126A10.1,10.1,0,0,0,213.105,62a4.812,4.812,0,0,0,4.586-2.445c.78-1.662-.093-4.024-1.89-4.406a3.613,3.613,0,0,0,.725-7.06Z" transform="translate(-161.327 -45.597)" fill="#263238"/>
        <path id="Trazado_3492" data-name="Trazado 3492" d="M217.382,98.6l-.26-5.3s7-1.341,6.845-8.385c-.077-3.4-.809-10.391-1.54-16.71a13.125,13.125,0,0,0-13.5-11.617l-.68.022c-7.307.687-10.811,7.278-9.922,14.566l1.685,28.368a8.7,8.7,0,0,0,9.146,8.173h0a8.7,8.7,0,0,0,8.228-9.114Z" transform="translate(-170.44 -53.052)" fill="#ffbe9d"/>
        <path id="Trazado_3493" data-name="Trazado 3493" d="M237.6,166.158a16.392,16.392,0,0,1-9.271-2.288s2.349,4.993,9.351,4.111Z" transform="translate(-190.909 -125.915)" fill="#eb996e"/>
        <path id="Trazado_3494" data-name="Trazado 3494" d="M262.09,105.789a1.008,1.008,0,0,1-.934,1.046.963.963,0,0,1-1.069-.87,1,1,0,0,1,.931-1.049.963.963,0,0,1,1.072.873Z" transform="translate(-212.475 -85.876)" fill="#263238"/>
        <path id="Trazado_3495" data-name="Trazado 3495" d="M260.968,101.564c-.122.135-.9-.4-1.983-.359s-1.855.61-1.977.481c-.061-.058.058-.3.395-.562a2.76,2.76,0,0,1,1.576-.549,2.641,2.641,0,0,1,1.585.452C260.907,101.269,261.025,101.5,260.968,101.564Z" transform="translate(-210.373 -82.931)" fill="#263238"/>
        <path id="Trazado_3496" data-name="Trazado 3496" d="M228.97,108.146a1.008,1.008,0,0,1-.934,1.049.963.963,0,0,1-1.069-.87,1.008,1.008,0,0,1,.934-1.049.963.963,0,0,1,1.069.87Z" transform="translate(-189.983 -87.479)" fill="#263238"/>
        <path id="Trazado_3497" data-name="Trazado 3497" d="M227.848,103.354c-.119.135-.9-.4-1.983-.359s-1.855.61-1.977.481c-.061-.058.058-.3.395-.562a2.769,2.769,0,0,1,1.579-.549,2.635,2.635,0,0,1,1.582.452C227.787,103.062,227.908,103.293,227.848,103.354Z" transform="translate(-187.882 -84.147)" fill="#263238"/>
        <path id="Trazado_3498" data-name="Trazado 3498" d="M247.635,110.922a7.054,7.054,0,0,1,1.746-.379c.276-.039.536-.1.578-.3a1.425,1.425,0,0,0-.215-.812c-.282-.658-.578-1.351-.889-2.073a34.735,34.735,0,0,1-2.028-5.455,35.085,35.085,0,0,1,2.458,5.263q.452,1.091.857,2.089a1.6,1.6,0,0,1,.183,1.078.7.7,0,0,1-.44.42,1.839,1.839,0,0,1-.469.08A5.811,5.811,0,0,1,247.635,110.922Z" transform="translate(-203.463 -83.836)" fill="#263238"/>
        <path id="Trazado_3499" data-name="Trazado 3499" d="M239.2,132.71c.177-.019.221,1.155,1.255,1.954s2.278.626,2.294.789c.019.074-.27.237-.8.27a2.911,2.911,0,0,1-1.925-.59,2.548,2.548,0,0,1-.963-1.643C239,133,239.122,132.7,239.2,132.71Z" transform="translate(-198.187 -104.754)" fill="#263238"/>
        <path id="Trazado_3500" data-name="Trazado 3500" d="M225.589,86.595c-.1.3-1.181.2-2.445.392s-2.278.581-2.455.321c-.08-.125.087-.408.491-.706a4.29,4.29,0,0,1,3.735-.546C225.383,86.219,225.627,86.454,225.589,86.595Z" transform="translate(-185.707 -72.933)" fill="#263238"/>
        <path id="Trazado_3501" data-name="Trazado 3501" d="M259.985,91.762c-.183.25-.937.022-1.832.042s-1.65.225-1.836-.029c-.08-.122.032-.372.356-.616a2.5,2.5,0,0,1,1.473-.452,2.532,2.532,0,0,1,1.479.414C259.95,91.374,260.066,91.621,259.985,91.762Z" transform="translate(-209.898 -76.23)" fill="#263238"/>
        <path id="Trazado_3502" data-name="Trazado 3502" d="M191.3,117.877c-.122-.048-4.887-1.261-4.566,3.53s5.083,3.491,5.083,3.353S191.3,117.877,191.3,117.877Z" transform="translate(-162.653 -94.566)" fill="#ffbe9d"/>
        <path id="Trazado_3503" data-name="Trazado 3503" d="M192.81,126.46c-.022,0-.08.064-.218.138a.822.822,0,0,1-.623.064,2.074,2.074,0,0,1-1.085-1.8,2.762,2.762,0,0,1,.154-1.213.963.963,0,0,1,.587-.687.427.427,0,0,1,.51.2c.074.132.048.228.074.234s.1-.087.045-.282a.542.542,0,0,0-.209-.289.642.642,0,0,0-.472-.09,1.174,1.174,0,0,0-.825.8,2.859,2.859,0,0,0-.2,1.361,2.166,2.166,0,0,0,1.361,1.993.9.9,0,0,0,.757-.177C192.81,126.579,192.826,126.47,192.81,126.46Z" transform="translate(-165.244 -97.972)" fill="#eb996e"/>
        <path id="Trazado_3504" data-name="Trazado 3504" d="M222.219,64.136a10.176,10.176,0,0,1-9.1-1.717c-1.765-1.393-3.158-3.434-5.327-4.021a5.722,5.722,0,0,0-4.351.754,11.032,11.032,0,0,0-3.209,3.161c1.486,3.53.712,7.557-.083,11.3a1.925,1.925,0,0,1-.523,1.133,1.523,1.523,0,0,1-1.925-.356A5.94,5.94,0,0,1,196.28,71.3a19.772,19.772,0,0,1-.234-7.8,13.478,13.478,0,0,1,3.466-6.932,12.772,12.772,0,0,1,8.844-3.7,15.7,15.7,0,0,1,9.2,2.933,9.054,9.054,0,0,1,3.074,3.3" transform="translate(-168.794 -50.529)" fill="#263238"/>
        <path id="Trazado_3505" data-name="Trazado 3505" d="M236.018,55.228a1,1,0,0,1-.029.42,1.945,1.945,0,0,1-.642,1.014,3.061,3.061,0,0,1-1.775.667,5.194,5.194,0,0,1-1.194-.032,2.538,2.538,0,0,1-1.242-.529,1.691,1.691,0,0,1-.642-1.338,1.5,1.5,0,0,1,.963-1.264,1.906,1.906,0,0,1,.863-.141,1.582,1.582,0,0,1,.838.343,2.192,2.192,0,0,1,.777,1.656,2.545,2.545,0,0,1-.7,1.794,3.851,3.851,0,0,1-1.71,1.049,6.325,6.325,0,0,1-4.127-.3,18.064,18.064,0,0,1-3.645-2.019,22.877,22.877,0,0,0-3.3-1.948,7.124,7.124,0,0,0-3.334-.69,6.816,6.816,0,0,0-2.84.854,8.559,8.559,0,0,0-3.094,3.017,10.992,10.992,0,0,0-.587,1.03,3.017,3.017,0,0,1-.189.372.383.383,0,0,1,.032-.1c.022-.064.058-.164.112-.289a8.58,8.58,0,0,1,.542-1.072,8.424,8.424,0,0,1,3.087-3.116,6.938,6.938,0,0,1,2.923-.889,7.294,7.294,0,0,1,3.44.684,22.946,22.946,0,0,1,3.35,1.97,18.185,18.185,0,0,0,3.591,1.993,6.143,6.143,0,0,0,3.976.3,3.665,3.665,0,0,0,1.6-1.011,2.3,2.3,0,0,0,.642-1.6,1.977,1.977,0,0,0-.687-1.5,1.447,1.447,0,0,0-1.5-.183,1.312,1.312,0,0,0-.87,1.091,1.54,1.54,0,0,0,.575,1.2,2.423,2.423,0,0,0,1.161.5,5.135,5.135,0,0,0,1.162.048,3.007,3.007,0,0,0,1.759-.616,1.989,1.989,0,0,0,.642-.963A3.209,3.209,0,0,0,236.018,55.228Z" transform="translate(-178.74 -51.103)" fill="#455a64"/>
        <path id="Trazado_3506" data-name="Trazado 3506" d="M185,77.292a8.206,8.206,0,0,0,1.483.321,4.227,4.227,0,0,0,1.6-.225,7.022,7.022,0,0,0,1.775-.934,5.651,5.651,0,0,0,2.044-2.943,12.061,12.061,0,0,0,.266-1.5,1.323,1.323,0,0,1,.038.417,4.6,4.6,0,0,1-.144,1.13A5.484,5.484,0,0,1,190,76.65a6.812,6.812,0,0,1-1.845.963,4.075,4.075,0,0,1-1.691.183,3.9,3.9,0,0,1-1.1-.3A1.181,1.181,0,0,1,185,77.292Z" transform="translate(-161.484 -63.534)" fill="#455a64"/>
        <path id="Trazado_3507" data-name="Trazado 3507" d="M186.06,88.04c0-.045.571.061,1.479-.022a6.614,6.614,0,0,0,5.484-3.909c.375-.831.459-1.4.5-1.39a1.261,1.261,0,0,1-.038.4,5.351,5.351,0,0,1-.321,1.053,6.376,6.376,0,0,1-5.619,4.015,5.6,5.6,0,0,1-1.1-.051A1.283,1.283,0,0,1,186.06,88.04Z" transform="translate(-162.204 -70.807)" fill="#455a64"/>
        <path id="Trazado_3508" data-name="Trazado 3508" d="M225.241,119.642a.122.122,0,0,1-.144-.1.119.119,0,0,1,.083-.154.132.132,0,0,1,.061.254Z" transform="translate(-188.709 -95.708)" fill="#eb996e"/>
        <path id="Trazado_3509" data-name="Trazado 3509" d="M231.676,117.871a.154.154,0,0,1-.067-.292.141.141,0,0,1,.151.119.138.138,0,0,1-.083.173Z" transform="translate(-193.078 -94.479)" fill="#eb996e"/>
        <path id="Trazado_3510" data-name="Trazado 3510" d="M235.961,117.413c-.067,0-.132-.067-.151-.173s.022-.2.087-.212.132.067.151.173S236.025,117.4,235.961,117.413Z" transform="translate(-195.986 -94.105)" fill="#eb996e"/>
        <path id="Trazado_3511" data-name="Trazado 3511" d="M228.612,123.791c-.064,0-.122-.029-.122-.071s.051-.08.116-.08.122.029.122.071S228.679,123.788,228.612,123.791Z" transform="translate(-191.018 -98.596)" fill="#eb996e"/>
        <path id="Trazado_3512" data-name="Trazado 3512" d="M234.44,121.959a.136.136,0,0,1-.032-.27.132.132,0,0,1,.135.122A.128.128,0,0,1,234.44,121.959Z" transform="translate(-194.965 -97.271)" fill="#eb996e"/>
        <path id="Trazado_3513" data-name="Trazado 3513" d="M265.024,117.228a.125.125,0,0,1-.148-.1.122.122,0,0,1,.083-.157.135.135,0,0,1,.064.26Z" transform="translate(-215.723 -94.064)" fill="#eb996e"/>
        <path id="Trazado_3514" data-name="Trazado 3514" d="M269.423,116.6a.154.154,0,0,1-.038-.3.147.147,0,0,1,.138.132A.141.141,0,0,1,269.423,116.6Z" transform="translate(-218.719 -93.611)" fill="#eb996e"/>
        <path id="Trazado_3515" data-name="Trazado 3515" d="M261.224,117.553a.106.106,0,1,1,.093-.128A.116.116,0,0,1,261.224,117.553Z" transform="translate(-213.168 -94.318)" fill="#eb996e"/>
        <path id="Trazado_3516" data-name="Trazado 3516" d="M264.49,121.771a.135.135,0,0,1-.167-.074.128.128,0,0,1,.048-.176.141.141,0,0,1,.119.25Z" transform="translate(-215.34 -97.153)" fill="#eb996e"/>
        <path id="Trazado_3517" data-name="Trazado 3517" d="M268.4,121a.109.109,0,0,1-.093-.125.112.112,0,0,1,.141-.067.109.109,0,0,1,.093.122A.112.112,0,0,1,268.4,121Z" transform="translate(-218.056 -96.668)" fill="#eb996e"/>
        <path id="Trazado_3518" data-name="Trazado 3518" d="M253.983,307.589l-.077-7.134s-4.759-6.595-2.888-13.748c0,0,3.1-2.182,11.424-.9,0,0,10.445-10.176,24.447-7.586s15.3,14.787,15.439,18.109A23.827,23.827,0,0,1,297.61,312.4l-.321,6.258a4.587,4.587,0,0,1-4.47,2.195c-3.321-.16-3.135-.642-3.135-.642s-4.172,3.366-4.352,4.246-.834,4.214-.834,4.214a6.4,6.4,0,0,1-4.57,2.2,6.765,6.765,0,0,1-3.572-.732,3.53,3.53,0,0,1-1.768-2.076,7.317,7.317,0,0,0-3.925-4.522l-2.157-.565s-.87.793-3.9,1.117-3.039-.748-3.039-.748a8.459,8.459,0,0,1-8.244-3.53C250.536,316.164,249.019,309.6,253.983,307.589Z" transform="translate(-206.02 -203.281)" fill="#f83f00"/>
        <path id="Trazado_3519" data-name="Trazado 3519" d="M337.76,337.814a1.907,1.907,0,0,1,.157-.218c.106-.141.263-.347.459-.616.395-.536.947-1.329,1.556-2.352a27.07,27.07,0,0,0,1.842-3.748c.292-.732.565-1.511.806-2.33a4.956,4.956,0,0,0,.231-2.567,3.652,3.652,0,0,0-1.54-2.022,11.089,11.089,0,0,0-2.176-1.133,14.659,14.659,0,0,0-4.043-.963,14.884,14.884,0,0,0-2.811,0c-.321.029-.587.061-.764.087a1.377,1.377,0,0,1-.266.029,1.693,1.693,0,0,1,.263-.061c.17-.035.427-.08.761-.119a13.561,13.561,0,0,1,2.827-.055,14.213,14.213,0,0,1,4.1.934,11.051,11.051,0,0,1,2.211,1.139,3.79,3.79,0,0,1,1.6,2.118,5.173,5.173,0,0,1-.234,2.657,23.585,23.585,0,0,1-.821,2.343,25.941,25.941,0,0,1-1.88,3.751,25.272,25.272,0,0,1-1.6,2.33c-.205.266-.372.465-.485.6a1.423,1.423,0,0,1-.2.2Z" transform="translate(-260.774 -233.095)" fill="#263238"/>
        <path id="Trazado_3520" data-name="Trazado 3520" d="M271.436,303.72a.554.554,0,0,1,.048.164,1.751,1.751,0,0,1,.022.5,2.8,2.8,0,0,1-.8,1.621,21.112,21.112,0,0,1-2.1,1.685,17.629,17.629,0,0,0-2.346,2.275,18.575,18.575,0,0,0-3.087,5.051c-.289.706-.478,1.284-.607,1.7-.055.189-.1.347-.141.472a.751.751,0,0,1-.058.16.617.617,0,0,1,.026-.17c.032-.128.067-.286.112-.481a15.627,15.627,0,0,1,.558-1.723,17.624,17.624,0,0,1,3.071-5.118,17.1,17.1,0,0,1,2.375-2.285,24.473,24.473,0,0,0,2.108-1.646,2.824,2.824,0,0,0,.821-1.547A3.039,3.039,0,0,0,271.436,303.72Z" transform="translate(-214.026 -220.887)" fill="#263238"/>
        <g id="Grupo_719" data-name="Grupo 719" transform="translate(63.007 75.407)" opacity="0.5">
          <path id="Trazado_3521" data-name="Trazado 3521" d="M308.06,288.879l4.258,1.088s6.235-7.005,13.083-8.78l-2.567-.606A29.632,29.632,0,0,0,308.06,288.879Z" transform="translate(-308.06 -280.58)"/>
        </g>
        <path id="Trazado_3522" data-name="Trazado 3522" d="M324.012,280.836a28.762,28.762,0,0,0-14.63,8.344l-1.322-.321s6.039-6.627,14.778-8.3Z" transform="translate(-245.053 -205.159)" fill="#f83f00"/>
        <g id="Grupo_720" data-name="Grupo 720" transform="translate(63.007 75.401)" opacity="0.7">
          <path id="Trazado_3523" data-name="Trazado 3523" d="M324.012,280.836a28.762,28.762,0,0,0-14.63,8.344l-1.322-.321s6.039-6.627,14.778-8.3Z" transform="translate(-308.06 -280.56)"/>
        </g>
        <path id="Trazado_3524" data-name="Trazado 3524" d="M254.77,370.725c2.359-3.376,8.276-2.343,10.975.693s3.9,7.214,2.14,10.815a4.59,4.59,0,0,1-3.9,2.856,8.023,8.023,0,0,0,1.829-7.14,11.522,11.522,0,0,0-4.146-6.36,7.038,7.038,0,0,0-3.466-1.852c-1.3-.128-2.346-.167-3.434.988" transform="translate(-208.864 -264.963)" fill="#f83f00"/>
        <g id="Grupo_721" data-name="Grupo 721" transform="translate(45.906 103.661)" opacity="0.3">
          <path id="Trazado_3525" data-name="Trazado 3525" d="M254.77,370.725c2.359-3.376,8.276-2.343,10.975.693s3.9,7.214,2.14,10.815a4.59,4.59,0,0,1-3.9,2.856,8.023,8.023,0,0,0,1.829-7.14,11.522,11.522,0,0,0-4.146-6.36,7.038,7.038,0,0,0-3.466-1.852c-1.3-.128-2.346-.167-3.434.988" transform="translate(-254.77 -368.624)"/>
        </g>
        <g id="Grupo_722" data-name="Grupo 722" transform="translate(77.168 95.063)" opacity="0.3">
          <path id="Trazado_3526" data-name="Trazado 3526" d="M352.245,351.287a1.469,1.469,0,0,0,1.319,1.431,2.265,2.265,0,0,0,1.89-.828,5.269,5.269,0,0,0,.963-1.9,20.046,20.046,0,0,0,.732-8.161,30.581,30.581,0,0,1-4.958,9.464" transform="translate(-352.19 -341.83)"/>
        </g>
        <g id="Grupo_723" data-name="Grupo 723" transform="translate(69.703 90.371)" opacity="0.3">
          <path id="Trazado_3527" data-name="Trazado 3527" d="M338.682,330.687a4.812,4.812,0,0,0-3.209-2.619,15.447,15.447,0,0,0-4.278-.841,3.369,3.369,0,0,0-1.364.132,1.354,1.354,0,0,0-.9.963.9.9,0,0,0,.456.931,25.428,25.428,0,0,1,5.093,9.245.866.866,0,0,0,1.489.321,13.75,13.75,0,0,0,2.285-4.515A5.692,5.692,0,0,0,338.682,330.687Z" transform="translate(-328.925 -327.208)"/>
        </g>
        <g id="Grupo_724" data-name="Grupo 724" transform="translate(46.619 84.796)" opacity="0.3">
          <path id="Trazado_3528" data-name="Trazado 3528" d="M259.151,319.516a13.6,13.6,0,0,1-2.156-7.618,2.237,2.237,0,0,1,.478-1.588,2.411,2.411,0,0,1,1.925-.456,36.748,36.748,0,0,1,5.619.789c.144.032.321.08.366.218a.549.549,0,0,1-.125.642,15.483,15.483,0,0,0-5.995,8.173" transform="translate(-256.992 -309.836)"/>
        </g>
        <path id="Trazado_3529" data-name="Trazado 3529" d="M252.043,306.36a2.893,2.893,0,0,1-.023.485c-.026.321-.055.761-.074,1.316a19.984,19.984,0,0,0,.834,6.643c.218.7.446,1.322.664,1.836s.408.921.546,1.2a2.353,2.353,0,0,1,.2.443,2.847,2.847,0,0,1-.257-.411c-.157-.27-.363-.674-.594-1.184a16.773,16.773,0,0,1-.706-1.832,19.831,19.831,0,0,1-.571-2.339,19.2,19.2,0,0,1-.234-4.342c.035-.555.08-1.008.128-1.316A2.607,2.607,0,0,1,252.043,306.36Z" transform="translate(-206.843 -222.68)" fill="#fafafa"/>
        <path id="Trazado_3530" data-name="Trazado 3530" d="M321.895,279.859a.794.794,0,0,1-.167.061l-.481.141c-.212.058-.469.128-.764.225s-.642.189-1,.321c-.741.247-1.6.578-2.551.982a32.289,32.289,0,0,0-3,1.483c-1.037.578-1.986,1.2-2.83,1.784s-1.572,1.165-2.166,1.669c-.3.241-.565.481-.8.684s-.43.382-.587.533l-.372.337c-.087.077-.135.116-.138.109a.794.794,0,0,1,.116-.132l.35-.363c.151-.157.34-.343.571-.552s.481-.456.783-.706c.587-.517,1.316-1.1,2.153-1.7a33.34,33.34,0,0,1,2.84-1.8,32.846,32.846,0,0,1,3.02-1.479c.963-.4,1.829-.719,2.567-.963.372-.125.712-.212,1.011-.3s.558-.151.773-.2l.488-.109A.6.6,0,0,1,321.895,279.859Z" transform="translate(-244.361 -204.682)" fill="#fafafa"/>
        <path id="Trazado_3531" data-name="Trazado 3531" d="M340.763,326.072c-.026.029-.51-.465-1.441-1.059a11.815,11.815,0,0,0-1.714-.9,13.032,13.032,0,0,0-2.246-.709,13.851,13.851,0,0,0-4.281-.26c-1.1.112-1.762.3-1.771.26a3.156,3.156,0,0,1,.465-.135,9.585,9.585,0,0,1,1.284-.241,12.88,12.88,0,0,1,4.332.212,12.651,12.651,0,0,1,2.278.732,10.716,10.716,0,0,1,1.717.94l.321.221.279.221a3.964,3.964,0,0,1,.43.369,3.041,3.041,0,0,1,.347.343Z" transform="translate(-259.484 -233.939)" fill="#fafafa"/>
        <path id="Trazado_3532" data-name="Trazado 3532" d="M259.81,392.111a.545.545,0,0,1-.154-.042,4.483,4.483,0,0,1-.427-.154,9.9,9.9,0,0,1-1.5-.745A11.01,11.01,0,0,1,252.378,382a9.783,9.783,0,0,1,.087-1.669c.022-.2.058-.347.074-.449a1.027,1.027,0,0,1,.039-.154,4.671,4.671,0,0,1-.048.61,11.68,11.68,0,0,0-.035,1.659,11.267,11.267,0,0,0,5.3,9.072,12.382,12.382,0,0,0,1.463.786A4.638,4.638,0,0,1,259.81,392.111Z" transform="translate(-207.236 -272.505)" fill="#fafafa"/>
        <g id="Grupo_725" data-name="Grupo 725" transform="translate(51.542 112.12)" opacity="0.2">
          <path id="Trazado_3533" data-name="Trazado 3533" d="M274.207,395.056a1.354,1.354,0,0,0-1.438.369,1.759,1.759,0,0,0-.408,1.467,2.246,2.246,0,0,0,.613,1.338,1.9,1.9,0,0,0,1.059.517,1.361,1.361,0,0,0,1.191-.761,2.105,2.105,0,0,0-1.017-2.93" transform="translate(-272.335 -394.984)"/>
        </g>
        <path id="Trazado_3534" data-name="Trazado 3534" d="M273.541,395a2.137,2.137,0,0,0,1.139,3.44,1.226,1.226,0,0,1-1.078.286,2.214,2.214,0,0,1-1.508-2.285,1.694,1.694,0,0,1,.465-1.085,1.454,1.454,0,0,1,.982-.356" transform="translate(-220.624 -282.874)" fill="#f83f00"/>
        <g id="Grupo_726" data-name="Grupo 726" transform="translate(51.462 112.125)" opacity="0.4">
          <path id="Trazado_3535" data-name="Trazado 3535" d="M273.541,395a2.137,2.137,0,0,0,1.139,3.44,1.226,1.226,0,0,1-1.078.286,2.214,2.214,0,0,1-1.508-2.285,1.694,1.694,0,0,1,.465-1.085,1.454,1.454,0,0,1,.982-.356" transform="translate(-272.086 -394.999)"/>
        </g>
        <g id="Grupo_727" data-name="Grupo 727" transform="translate(46.878 110.299)" opacity="0.2">
          <path id="Trazado_3536" data-name="Trazado 3536" d="M259.606,389.377a1.316,1.316,0,0,0-1.386.359,1.7,1.7,0,0,0-.395,1.415,2.227,2.227,0,0,0,.594,1.284,1.845,1.845,0,0,0,1.024.5,1.306,1.306,0,0,0,1.146-.732,2.038,2.038,0,0,0-.982-2.83" transform="translate(-257.799 -389.309)"/>
        </g>
        <path id="Trazado_3537" data-name="Trazado 3537" d="M258.97,389.339a2.057,2.057,0,0,0,1.1,3.318,1.194,1.194,0,0,1-1.043.279,2.14,2.14,0,0,1-1.454-2.208,1.624,1.624,0,0,1,.446-1.043,1.409,1.409,0,0,1,.963-.347" transform="translate(-210.764 -279.03)" fill="#f83f00"/>
        <g id="Grupo_728" data-name="Grupo 728" transform="translate(46.803 110.309)" opacity="0.4">
          <path id="Trazado_3538" data-name="Trazado 3538" d="M258.97,389.339a2.057,2.057,0,0,0,1.1,3.318,1.194,1.194,0,0,1-1.043.279,2.14,2.14,0,0,1-1.454-2.208,1.624,1.624,0,0,1,.446-1.043,1.409,1.409,0,0,1,.963-.347" transform="translate(-257.567 -389.339)"/>
        </g>
        <path id="Trazado_3539" data-name="Trazado 3539" d="M303.19,361.38Z" transform="translate(-241.746 -260.043)" fill="#263238"/>
        <path id="Trazado_3540" data-name="Trazado 3540" d="M301.37,361.952a.056.056,0,0,0,.045-.022h.022Z" transform="translate(-240.51 -260.417)" fill="#263238"/>
        <path id="Trazado_3541" data-name="Trazado 3541" d="M301.169,362.6a1.823,1.823,0,0,0-.831-.963,2.154,2.154,0,0,0-.982-.228h-.029a1.245,1.245,0,0,0-.539.16,2.333,2.333,0,0,0-1.284,1.877,2.567,2.567,0,0,0,1.476,2.439,1.553,1.553,0,0,0,.985.148,1.534,1.534,0,0,0,.825-.581A2.888,2.888,0,0,0,301.169,362.6Z" transform="translate(-237.884 -260.064)" fill="#263238"/>
        <path id="Trazado_3542" data-name="Trazado 3542" d="M272,351.77Z" transform="translate(-220.565 -253.517)" fill="#263238"/>
        <path id="Trazado_3543" data-name="Trazado 3543" d="M270.46,352.229a.243.243,0,0,1,.042-.019h.019Z" transform="translate(-219.519 -253.816)" fill="#263238"/>
        <path id="Trazado_3544" data-name="Trazado 3544" d="M270.259,352.786a1.569,1.569,0,0,0-.722-.847,1.854,1.854,0,0,0-.847-.2h-.035a1.075,1.075,0,0,0-.465.141,2.015,2.015,0,0,0-1.114,1.627,2.218,2.218,0,0,0,1.284,2.108,1.158,1.158,0,0,0,1.566-.372,2.513,2.513,0,0,0,.334-2.458Z" transform="translate(-217.22 -253.497)" fill="#263238"/>
        <path id="Trazado_3545" data-name="Trazado 3545" d="M279,371.71a.8.8,0,0,1,.2.039,5.613,5.613,0,0,1,.558.173,7.385,7.385,0,0,1,1.887,1.024,8.464,8.464,0,0,1,2.16,2.343,9.888,9.888,0,0,1,1.341,3.658,11.644,11.644,0,0,1-.045,3.9,5.875,5.875,0,0,1-1.332,2.888,3.906,3.906,0,0,1-1.8,1.152,2.171,2.171,0,0,1-.78.106,4.835,4.835,0,0,0,.761-.167,3.975,3.975,0,0,0,1.736-1.171,5.84,5.84,0,0,0,1.268-2.83,11.59,11.59,0,0,0,.029-3.851,9.874,9.874,0,0,0-1.306-3.6,8.546,8.546,0,0,0-2.1-2.33,8.169,8.169,0,0,0-1.839-1.059C279.276,371.8,279,371.726,279,371.71Z" transform="translate(-225.319 -267.058)" fill="#263238"/>
        <path id="Trazado_3546" data-name="Trazado 3546" d="M268.71,356.278c-.016,0-.1-.058-.186-.209a1.425,1.425,0,0,1-.164-.642,1.39,1.39,0,0,1,.16-.642c.087-.151.167-.221.186-.209a3.691,3.691,0,0,0-.18.86,3.852,3.852,0,0,0,.183.841Z" transform="translate(-218.093 -255.422)" fill="#fafafa"/>
        <path id="Trazado_3547" data-name="Trazado 3547" d="M299.054,367.175c-.019,0-.1-.074-.17-.244a1.328,1.328,0,0,1-.067-.709,1.283,1.283,0,0,1,.3-.642c.122-.141.225-.193.237-.176a2.947,2.947,0,0,0-.369.85,2.748,2.748,0,0,0,.074.921Z" transform="translate(-238.762 -262.774)" fill="#fafafa"/>
        <path id="Trazado_3548" data-name="Trazado 3548" d="M302.014,417.285c-.016.026-.4-.244-1.085-.584a20.424,20.424,0,0,0-2.757-1.091c-1.107-.359-2.115-.667-2.837-.924-.359-.125-.642-.234-.847-.321a1.406,1.406,0,0,1-.3-.144,11.621,11.621,0,0,1,1.184.353c.725.228,1.739.517,2.85.879a16.212,16.212,0,0,1,2.76,1.146c.17.087.321.18.446.26a3.114,3.114,0,0,1,.321.218A1.283,1.283,0,0,1,302.014,417.285Z" transform="translate(-235.634 -295.927)" fill="#263238"/>
        <path id="Trazado_3549" data-name="Trazado 3549" d="M369.052,391.56a3.384,3.384,0,0,1-.3.452c-.193.286-.5.687-.886,1.168a33.29,33.29,0,0,1-3.357,3.485c-1.4,1.284-2.708,2.372-3.633,3.193l-1.091.963a3.278,3.278,0,0,1-.411.347,3.177,3.177,0,0,1,.366-.392c.244-.247.607-.594,1.059-1.017.9-.844,2.2-1.961,3.594-3.228a39.122,39.122,0,0,0,3.379-3.437c.4-.469.719-.857.927-1.13a3.436,3.436,0,0,1,.347-.4Z" transform="translate(-279.904 -280.538)" fill="#263238"/>
        <g id="Grupo_729" data-name="Grupo 729" transform="translate(83.692 110.515)" opacity="0.2">
          <path id="Trazado_3550" data-name="Trazado 3550" d="M372.52,396.43a6.429,6.429,0,0,0,4.913-1.6,4.432,4.432,0,0,0,.915-4.846,21.584,21.584,0,0,1-3.53,4.14c-.873.741-1.454,1.64-2.3,2.32" transform="translate(-372.52 -389.98)"/>
        </g>
        <g id="Grupo_730" data-name="Grupo 730" transform="translate(77.528 75.186)" opacity="0.5">
          <path id="Trazado_3551" data-name="Trazado 3551" d="M353.326,281.308c2.246,3.305,6.851,4.351,9.078,7.663a14.556,14.556,0,0,1,1.7,4.287l5.134,18.526c.212-4.015-.754-7.987-1.717-11.893q-1.418-5.776-2.846-11.553a5.375,5.375,0,0,0-2.92-4.169c-2.638-1.771-5.353-3.575-8.446-4.281" transform="translate(-353.31 -279.89)"/>
        </g>
        <g id="Grupo_731" data-name="Grupo 731" transform="translate(50.818 86.142)" opacity="0.3">
          <path id="Trazado_3552" data-name="Trazado 3552" d="M281.054,314.5c.141.449-.475,1.062-1.434,1.823-.485.379-1.049.812-1.672,1.284s-1.284.988-1.98,1.547-1.325,1.114-1.925,1.6-1.123.982-1.6,1.377c-.94.786-1.662,1.264-2.076,1.033s-.385-1.142.164-2.42a10,10,0,0,1,1.242-2.079,12.894,12.894,0,0,1,4.57-3.719,10.21,10.21,0,0,1,2.288-.793C280,313.889,280.919,314.069,281.054,314.5Z" transform="translate(-270.079 -314.03)" fill="#fff"/>
        </g>
        <path id="Trazado_3553" data-name="Trazado 3553" d="M274.447,394.308a3.433,3.433,0,0,1-.728.176,3.637,3.637,0,0,1-.728.17,1.2,1.2,0,0,1,.69-.321A1.251,1.251,0,0,1,274.447,394.308Z" transform="translate(-221.238 -282.372)" fill="#fafafa"/>
        <path id="Trazado_3554" data-name="Trazado 3554" d="M259.516,388.7a6.534,6.534,0,0,0-1.338.308c-.019-.042.225-.263.623-.353A.927.927,0,0,1,259.516,388.7Z" transform="translate(-211.178 -278.528)" fill="#fafafa"/>
        <path id="Trazado_3555" data-name="Trazado 3555" d="M325.11,428.921c-.045.022-.472-.7-1.065-1.54s-1.123-1.489-1.088-1.521a6.658,6.658,0,0,1,1.226,1.425A6.805,6.805,0,0,1,325.11,428.921Z" transform="translate(-255.168 -303.831)" fill="#fafafa"/>
        <path id="Trazado_3556" data-name="Trazado 3556" d="M265.869,330.45c.045.029-.587.963-1.136,2.214s-.812,2.346-.863,2.333a2.516,2.516,0,0,1,.128-.722,10.661,10.661,0,0,1,.581-1.678,10.792,10.792,0,0,1,.844-1.563,2.889,2.889,0,0,1,.446-.584Z" transform="translate(-215.044 -239.039)" fill="#fafafa"/>
        <path id="Trazado_3557" data-name="Trazado 3557" d="M311.205,308.507a6.54,6.54,0,0,1-1.8-.44,6.836,6.836,0,0,1-1.685-.777c.023-.045.78.282,1.739.616S311.218,308.459,311.205,308.507Z" transform="translate(-244.822 -223.309)" fill="#fafafa"/>
        <path id="Trazado_3558" data-name="Trazado 3558" d="M390.027,294.88a5.134,5.134,0,0,1-3.1,1.993,17.947,17.947,0,0,0,1.646-.844A18.241,18.241,0,0,0,390.027,294.88Z" transform="translate(-298.613 -214.884)" fill="#eb996e"/>
        <path id="Trazado_3559" data-name="Trazado 3559" d="M365.145,249.876c-1.727-3.979-18.972-18.105-18.972-18.105l-9.723,12.624c.141-.189,15.862,9.387,15.862,9.387l4.637,21.141h0l.8,3.774s-2.086,1.82-2,3.739c.055,1.284-2.888,4.047-2.888,4.047-.7-.581-1.149-.745-1.5-.677l-3.129,2.93.744.68a4.319,4.319,0,0,0,3.045,1.126l5.349-.164a2.93,2.93,0,0,0,2.018-.889c1.646-1.691,5.118-5.475,5.186-7.3.042-1.02.048-1.993.045-2.776C364.6,279.405,366.869,253.855,365.145,249.876Z" transform="translate(-264.333 -172.026)" fill="#ffbe9d"/>
        <path id="Trazado_3560" data-name="Trazado 3560" d="M394.425,393.54a1.1,1.1,0,0,1-.3.193c-.2.109-.5.237-.847.43a3.728,3.728,0,0,0-1.049.9,6.038,6.038,0,0,1-1.284,1.194,5.016,5.016,0,0,1-3.029.834,1.645,1.645,0,0,1-.552-.1.385.385,0,0,1-.257-.34.289.289,0,0,1,.112-.247c.055-.032.09-.026.09-.023a.134.134,0,0,0-.071.048.25.25,0,0,0-.067.218.321.321,0,0,0,.228.26,1.567,1.567,0,0,0,.52.064,5.134,5.134,0,0,0,2.936-.854,6.064,6.064,0,0,0,1.255-1.155,3.7,3.7,0,0,1,1.107-.908c.366-.183.671-.292.876-.385A2.062,2.062,0,0,1,394.425,393.54Z" transform="translate(-298.734 -281.883)" fill="#eb996e"/>
        <path id="Trazado_3561" data-name="Trazado 3561" d="M398.6,402.22c.023.042-.42.3-.9.706s-.809.793-.847.764a2.478,2.478,0,0,1,.745-.886A2.381,2.381,0,0,1,398.6,402.22Z" transform="translate(-305.357 -287.778)" fill="#eb996e"/>
        <path id="Trazado_3562" data-name="Trazado 3562" d="M405.048,374.894c0,.048-.472.077-.988.321s-.844.587-.879.552a2,2,0,0,1,1.868-.879Z" transform="translate(-309.649 -269.209)" fill="#eb996e"/>
        <path id="Trazado_3563" data-name="Trazado 3563" d="M385.731,404.481c0,.029-.343-.138-.921-.273a5.192,5.192,0,0,0-2.907.122,2.423,2.423,0,0,1-.321.1.459.459,0,0,1-.343-.074l-.834-.629a5.338,5.338,0,0,1-.754-.6,5.945,5.945,0,0,1,.825.507l.863.587c.138.106.321.026.523-.048a5.5,5.5,0,0,1,.642-.18,5.006,5.006,0,0,1,2.339.1,4.124,4.124,0,0,1,.664.254C385.657,404.423,385.738,404.471,385.731,404.481Z" transform="translate(-293.67 -288.389)" fill="#eb996e"/>
        <path id="Trazado_3564" data-name="Trazado 3564" d="M167.5,232.251c-2.057-.587-2.968-.841-2.968-.841v-.943h.818a4.319,4.319,0,0,0,2-1.024l1.755-2.686.225-1.723c-.186-2.124-2.747-1.284-2.747-1.284-.122-.741-3.4-1.486-5.866-1.945a5.667,5.667,0,0,0-4.695,1.239l-2.365,2-7.086,6.2-18.292,15.452-12.024-3.549s-3.825,11.7-4.445,15.888c-1.2,8.051,9.871,13.417,14.762,9.274,3.793-3.209,25.916-27.046,29.581-31h.029c2.246-.286,6.059-2.567,6.059-2.567l1.954.231s5.192.992,5.808-.026C170.465,234.158,169.554,232.839,167.5,232.251Z" transform="translate(-111.72 -165.194)" fill="#ffbe9d"/>
        <path id="Trazado_3565" data-name="Trazado 3565" d="M250.309,247.28a1.251,1.251,0,0,1,.112.225,4.094,4.094,0,0,1,.212.658,5.9,5.9,0,0,1,.083,2.269,5.8,5.8,0,0,1-.783,2.131,4,4,0,0,1-.4.558c-.106.125-.17.189-.18.18s.205-.3.481-.8a6.418,6.418,0,0,0,.69-4.319C250.408,247.623,250.28,247.29,250.309,247.28Z" transform="translate(-205.183 -182.559)" fill="#eb996e"/>
        <path id="Trazado_3566" data-name="Trazado 3566" d="M256.47,226.529a1.314,1.314,0,0,1,.2-.035c.135-.019.321-.045.581-.067a9.021,9.021,0,0,1,2.156.022,5.179,5.179,0,0,1,1.434.43,3.819,3.819,0,0,1,1.364,1.046,2.788,2.788,0,0,1,.658,1.781,2.217,2.217,0,0,1-.254.992,3.532,3.532,0,0,1-.642.834,9.866,9.866,0,0,1-1.569,1.235,5.249,5.249,0,0,1-.844.462,1.152,1.152,0,0,1-.481.08.606.606,0,0,1-.443-.225.7.7,0,0,1-.138-.459,1.423,1.423,0,0,1,.08-.44,3.208,3.208,0,0,1,.376-.741,3.119,3.119,0,0,1,1.1-.992l.019.112-2.189-.417-.594-.122a.9.9,0,0,1-.205-.055,1.16,1.16,0,0,1,.212.019l.6.093,2.2.363.17.029-.151.083a3.051,3.051,0,0,0-1.046.963,2.944,2.944,0,0,0-.35.712.818.818,0,0,0,.039.754.642.642,0,0,0,.748.09,4.809,4.809,0,0,0,.809-.449,9.6,9.6,0,0,0,1.54-1.216,2.484,2.484,0,0,0,.838-1.71,2.647,2.647,0,0,0-.613-1.682A3.739,3.739,0,0,0,260.767,227a5.072,5.072,0,0,0-1.393-.436,9.758,9.758,0,0,0-2.131-.077l-.584.035a.747.747,0,0,1-.189,0Z" transform="translate(-210.019 -168.36)" fill="#eb996e"/>
        <path id="Trazado_3567" data-name="Trazado 3567" d="M273.788,228.38a1.427,1.427,0,0,1,.055.347,8.257,8.257,0,0,1,.039.963,6.12,6.12,0,0,1-.8,3.036A3.772,3.772,0,0,1,270.6,234.6a1.046,1.046,0,0,1-.9-.321.7.7,0,0,1-.135-.231.177.177,0,0,1-.016-.09,1.461,1.461,0,0,0,.2.276,1,1,0,0,0,.844.238,3.782,3.782,0,0,0,2.346-1.842,6.418,6.418,0,0,0,.825-2.956C273.8,228.877,273.759,228.38,273.788,228.38Z" transform="translate(-218.9 -169.724)" fill="#eb996e"/>
        <path id="Trazado_3568" data-name="Trazado 3568" d="M268.607,249.47c-.019-.022.148-.167.347-.456a2.711,2.711,0,0,0,.462-1.248,2.666,2.666,0,0,0-.215-1.316c-.138-.321-.273-.494-.25-.51a1.153,1.153,0,0,1,.356.459,2.436,2.436,0,0,1-.26,2.686A1.2,1.2,0,0,1,268.607,249.47Z" transform="translate(-218.26 -181.649)" fill="#eb996e"/>
        <path id="Trazado_3569" data-name="Trazado 3569" d="M253.009,238a1.04,1.04,0,0,1,.1.7,1.855,1.855,0,0,1-.225.751,3.466,3.466,0,0,1-.546.777,3.992,3.992,0,0,1-1.441.921,2.753,2.753,0,0,1-.671.225,3.134,3.134,0,0,1,.623-.321,4.6,4.6,0,0,0,1.367-.931,3.682,3.682,0,0,0,.533-.738,1.9,1.9,0,0,0,.244-.69A3.375,3.375,0,0,0,253.009,238Z" transform="translate(-205.781 -176.257)" fill="#eb996e"/>
        <path id="Trazado_3570" data-name="Trazado 3570" d="M282.307,240.94l-9.027,4.919a21.089,21.089,0,0,1,9.216,5.834,26.577,26.577,0,0,1,5.494,8.738l8.985-5.982S292.14,243.494,282.307,240.94Z" transform="translate(-221.434 -178.253)" fill="#455a64"/>
        <path id="Trazado_3571" data-name="Trazado 3571" d="M278.24,246.872l7.288-4.172h.045a15.683,15.683,0,0,1,3.687,1.518,20.587,20.587,0,0,1,3.665,2.7,28.407,28.407,0,0,1,3.4,3.719,31.368,31.368,0,0,1,2.93,4.541l.035.067-.064.042-.472.321-6.938,4.637-.083.055-.035-.09a25.521,25.521,0,0,0-4-6.707,22.892,22.892,0,0,0-4.56-4.146,20.465,20.465,0,0,0-3.53-1.964c-.436-.186-.777-.321-1.011-.395l-.263-.09-.09-.032.093.019.27.077c.237.074.581.193,1.02.369a19.866,19.866,0,0,1,3.581,1.925,22.688,22.688,0,0,1,4.605,4.143,25.52,25.52,0,0,1,4.043,6.739l-.119-.035,6.935-4.644.472-.321-.029.106a31.518,31.518,0,0,0-2.907-4.515,28.332,28.332,0,0,0-3.37-3.7,20.677,20.677,0,0,0-3.642-2.7,15.664,15.664,0,0,0-3.649-1.528h.045Z" transform="translate(-224.803 -179.448)" fill="#fff"/>
        <path id="Trazado_3572" data-name="Trazado 3572" d="M309.4,258.094c-.238,1.389-2,2.23-3.931,1.877s-3.318-1.765-3.081-3.155,2-2.23,3.931-1.877S309.623,256.7,309.4,258.094Z" transform="translate(-241.181 -187.706)" fill="#fafafa"/>
        <path id="Trazado_3573" data-name="Trazado 3573" d="M309.224,260.171l-.321.347-.359-.35.3-.321a2.274,2.274,0,0,1-.546-.963l.606-.263a1.87,1.87,0,0,0,.5.886c.247.241.408.26.5.157.321-.347-1.107-1.255-.375-2.063a.947.947,0,0,1,1.348,0l.321-.34.359.35-.3.321a2.072,2.072,0,0,1,.443.777l-.6.279a1.762,1.762,0,0,0-.427-.735c-.25-.241-.42-.241-.517-.135-.3.321,1.114,1.242.388,2.044A.933.933,0,0,1,309.224,260.171Z" transform="translate(-245.216 -189.336)" fill="#455a64"/>
        <path id="Trazado_3574" data-name="Trazado 3574" d="M280.035,252.09s1.531.777.061,1.925l-2.246-.873Z" transform="translate(-224.538 -185.825)" fill="#fafafa"/>
        <path id="Trazado_3575" data-name="Trazado 3575" d="M297.47,243.525a1.879,1.879,0,0,0,2.888-.064l-1.739-.581Z" transform="translate(-237.862 -179.571)" fill="#fafafa"/>
        <path id="Trazado_3576" data-name="Trazado 3576" d="M317.54,289.561s1.986-1.6,3.145.565l-2.217,1.483Z" transform="translate(-251.491 -210.884)" fill="#fafafa"/>
        <path id="Trazado_3577" data-name="Trazado 3577" d="M338.687,276.2a1.976,1.976,0,0,0-.462,2.75l1.47-.982Z" transform="translate(-265.308 -202.198)" fill="#fafafa"/>
        <path id="Trazado_3578" data-name="Trazado 3578" d="M321.257,291.1a.6.6,0,1,1-.6-.623.61.61,0,0,1,.6.623Z" transform="translate(-253.196 -211.896)" fill="#455a64"/>
        <path id="Trazado_3579" data-name="Trazado 3579" d="M340.031,279.173a.6.6,0,1,1-.6-.623.61.61,0,0,1,.6.623Z" transform="translate(-265.95 -203.794)" fill="#455a64"/>
        <path id="Trazado_3580" data-name="Trazado 3580" d="M301.017,243.851c0,.221-.321.4-.69.4s-.687-.18-.687-.4.321-.4.69-.4S301.017,243.627,301.017,243.851Z" transform="translate(-239.335 -179.958)" fill="#455a64"/>
        <path id="Trazado_3581" data-name="Trazado 3581" d="M282.793,253.937a.684.684,0,1,1-.667-.533A.613.613,0,0,1,282.793,253.937Z" transform="translate(-226.977 -186.715)" fill="#455a64"/>
        <path id="Trazado_3582" data-name="Trazado 3582" d="M298.89,252.7c0,.34-.424.616-.947.616s-.943-.266-.943-.616.424-.616.947-.616S298.89,252.375,298.89,252.7Z" transform="translate(-237.543 -185.818)" fill="#fafafa"/>
        <path id="Trazado_3583" data-name="Trazado 3583" d="M323.854,275.551a.918.918,0,0,1-1.175-.6.985.985,0,0,1,.369-1.306.918.918,0,0,1,1.174.6A.982.982,0,0,1,323.854,275.551Z" transform="translate(-254.904 -200.42)" fill="#fafafa"/>
        <path id="Trazado_3584" data-name="Trazado 3584" d="M285.08,239.949l3.706,3.912s1.483,1.7,2.481.9-.4-2.3-.7-2.734-3.928-4.842-3.928-4.842Z" transform="translate(-229.448 -175.7)" fill="#ffbe9d"/>
        <path id="Trazado_3585" data-name="Trazado 3585" d="M285.893,234.849a2.356,2.356,0,0,1-.144.677,7.091,7.091,0,0,1-.642,1.537,5.207,5.207,0,0,1-1.056,1.3,1.926,1.926,0,0,1-.571.392,5.731,5.731,0,0,1,.491-.478,6.448,6.448,0,0,0,.992-1.284A17.738,17.738,0,0,0,285.893,234.849Z" transform="translate(-228.361 -174.117)" fill="#eb996e"/>
        <path id="Trazado_3586" data-name="Trazado 3586" d="M144.668,282.43a1.216,1.216,0,0,1-.173.17l-.517.462-1.925,1.672c-1.633,1.4-3.9,3.331-6.418,5.433s-4.855,4-6.556,5.308c-.847.668-1.544,1.191-2.031,1.55l-.565.4a1.19,1.19,0,0,1-.2.132,1.722,1.722,0,0,1,.183-.157l.546-.43c.475-.372,1.158-.908,2-1.585,1.678-1.351,3.976-3.244,6.5-5.346s4.794-4,6.463-5.394l1.961-1.633.539-.436a1.355,1.355,0,0,1,.2-.144Z" transform="translate(-121.608 -206.429)" fill="#eb996e"/>
      </g>
    </g>
  </g>
</svg>
