<svg xmlns="http://www.w3.org/2000/svg" width="431.414" height="400" viewBox="0 0 431.414 400">
  <defs>
    <style>
      .cls-1 {
        fill: #e0e0e0;
      }

      .cls-2 {
        fill: #f5f5f5;
      }

      .cls-3 {
        opacity: 0.8;
      }

      .cls-4 {
        fill: #ebebeb;
      }

      .cls-10, .cls-11, .cls-4 {
        fill-rule: evenodd;
      }

      .cls-5 {
        fill: #263238;
      }

      .cls-11, .cls-6 {
        fill: #fff;
      }

      .cls-10, .cls-7 {
        fill: #f83f00;
      }

      .cls-16, .cls-8 {
        opacity: 0.3;
      }

      .cls-9 {
        fill: #fafafa;
      }

      .cls-12, .cls-18 {
        opacity: 0.4;
      }

      .cls-13 {
        fill: #ffbe9d;
      }

      .cls-14 {
        fill: #eb996e;
      }

      .cls-15 {
        fill: #455a64;
      }

      .cls-17 {
        opacity: 0.2;
      }
    </style>
  </defs>
  <g id="startup-life-pana" transform="translate(-19.85 -23.263)">
    <g id="freepik--background-complete--inject-365" transform="translate(60.948 23.263)">
      <path id="Trazado_1734" data-name="Trazado 1734" class="cls-1" d="M423.951,132.154a4.5,4.5,0,0,1,1.406.441,6.019,6.019,0,0,1,2.427,8.632,5.705,5.705,0,0,1-1.143,1.331,5.623,5.623,0,0,1-1.546.937,6.158,6.158,0,0,1-3.749.375,6.083,6.083,0,0,1-3.262-1.959,5.539,5.539,0,0,1-.937-1.546,5.447,5.447,0,0,1-.459-1.687,6.053,6.053,0,0,1,.459-3.177,5.951,5.951,0,0,1,5.417-3.59,4.4,4.4,0,0,1,1.462.2c0,.047-.525-.1-1.453-.066a5.914,5.914,0,0,0-3.59,1.415,5.744,5.744,0,0,0-1.584,2.156,5.9,5.9,0,0,0-.4,3.027,5.483,5.483,0,0,0,.45,1.593,5.4,5.4,0,0,0,.937,1.462,5.708,5.708,0,0,0,3.084,1.874,5.792,5.792,0,0,0,3.571-.347,5.219,5.219,0,0,0,1.462-.937,5.118,5.118,0,0,0,1.087-1.256,5.774,5.774,0,0,0,.937-2.905,5.877,5.877,0,0,0-3.149-5.436C424.475,132.285,423.941,132.2,423.951,132.154Z" transform="translate(-85.848 -30.081)"/>
      <path id="Trazado_1735" data-name="Trazado 1735" class="cls-1" d="M427.974,125.083a1.672,1.672,0,0,1,0-.206v-3.14l.047.056-5.408-1.181.094-.047-1.425,3.027v.056h-.066a13.505,13.505,0,0,0-3.524.628h-.112l-2.465-2.371h.188l-4.686,2.98v-.169l1.125,3.149v.075l-.056.066a13.745,13.745,0,0,0-2.053,2.924v.075H406.2l.141-.122c-.375,1.7-.787,3.524-1.2,5.408l-.084-.178,3.018,1.425h.084v.094a13.648,13.648,0,0,0,.609,3.515v.094l-.075.075-2.362,2.371v-.206l2.962,4.686-.2-.075,3.149-1.125h.094l.084.066a13.244,13.244,0,0,0,2.905,2.053h0c.047.066-.084-.15.094.15h0v3.337l-.131-.169,5.4,1.218-.187.094c.478-1.022.937-2.024,1.434-3.027l.047-.084h.1a13.345,13.345,0,0,0,3.505-.609h.094l.075.075,2.371,2.362h-.206l4.686-2.952-.066.178-1.125-3.149v-.084l.066-.075a13.5,13.5,0,0,0,2.062-2.915v-.075h3.43l-.131.112c.431-1.874.834-3.693,1.218-5.408l.075.15-3.018-1.443h-.066V136.7a13.315,13.315,0,0,0-.6-3.524v-.112c.862-.862,1.631-1.64,2.371-2.371v.131l-2.943-4.686h.094l-3.158,1.1h0a14.714,14.714,0,0,0-2.146-1.65l-.581-.347-.187-.122.206.094.59.319a13.546,13.546,0,0,1,2.193,1.631h-.056l3.14-1.143h.056v.056l2.98,4.686.047.075-.056.056-2.249,2.268v-.112a13.423,13.423,0,0,1,.628,3.59l-.066-.1,3.027,1.425.094.047v.1c-.375,1.706-.778,3.5-1.2,5.4v.112h-3.477l.131-.075a14.054,14.054,0,0,1-2.1,2.99v-.159c.366,1.031.75,2.081,1.125,3.149l.047.122-.112.066-4.686,2.971-.112.066-.094-.094-2.353-2.334h.169a13.608,13.608,0,0,1-3.6.628l.141-.094c-.469.993-.937,2.006-1.434,3.018l-.056.122H420.7l-5.4-1.153h-.131v-3.477h0c.178.3.047.084.094.15h0a13.592,13.592,0,0,1-2.98-2.1h.169l-3.149,1.115-.131.047-.066-.112-2.962-4.686-.075-.112.094-.094,2.362-2.371v.169a13.9,13.9,0,0,1-.628-3.6l.094.141-3-1.481-.112-.056v-.122l1.218-5.4v-.122h3.458l-.131.075a13.926,13.926,0,0,1,2.109-2.971v.141l-1.115-3.159v-.094l.094-.066L415.2,121.7h.084l.066.066,2.371,2.371h-.112a13.523,13.523,0,0,1,3.58-.609l-.084.056c.525-1.087,1.012-2.109,1.443-3.018V120.5h.066L428,121.747h.047v3.121a2.036,2.036,0,0,1-.075.216Z" transform="translate(-85.11 -29.365)"/>
      <path id="Trazado_1736" data-name="Trazado 1736" class="cls-1" d="M457.918,409.657v-3.983c0-2.6,0-6.411-.047-11.3,0-9.775-.047-23.881-.075-41.183l.15.15-97.6.047h0l.206-.2v56.469l-.187-.187,70.2.084,20.16.056h.075l-20.123.056-70.293.084h-.178V353h97.961v.159c0,17.348-.056,31.473-.075,41.239v14.171A3.039,3.039,0,0,1,457.918,409.657Z" transform="translate(-82.307 -43.955)"/>
      <path id="Trazado_1737" data-name="Trazado 1737" class="cls-1" d="M457.974,360.477c0,.112-21.828.2-48.737.2s-48.737-.084-48.737-.2,21.819-.2,48.737-.2S457.974,360.364,457.974,360.477Z" transform="translate(-82.325 -44.412)"/>
      <rect id="Rectángulo_459" data-name="Rectángulo 459" class="cls-2" width="30.151" height="30.151" transform="translate(286.46 325.381)"/>
      <path id="Trazado_1738" data-name="Trazado 1738" class="cls-1" d="M453.987,375.722a1.633,1.633,0,0,1-.441,0h-1.275l-4.686.056-15.427.066-15.427-.066-4.686-.056h-1.275a1.633,1.633,0,0,1-.44,0,2.009,2.009,0,0,1,.44,0h1.275l4.686-.066,15.427-.056,15.427.056,4.686.066h1.275a2.005,2.005,0,0,1,.44,0Z" transform="translate(-85.452 -45.373)"/>
      <path id="Trazado_1739" data-name="Trazado 1739" class="cls-1" d="M454.954,382.909a2.057,2.057,0,0,1-.45,0h-1.3l-4.78.066-15.764.056-15.774-.056-4.78-.066h-1.3a2.057,2.057,0,0,1-.45,0,1.661,1.661,0,0,1,.45-.047h1.3l4.78-.056,15.774-.066,15.764.066,4.78.056h1.3a1.669,1.669,0,0,1,.45.047Z" transform="translate(-85.454 -45.822)"/>
      <path id="Trazado_1740" data-name="Trazado 1740" class="cls-1" d="M454.954,390.092a1.666,1.666,0,0,1-.45,0h-1.3l-4.78.056-15.764.066-15.774-.066-4.78-.056h-1.3a1.666,1.666,0,0,1-.45,0,2.062,2.062,0,0,1,.45,0h1.3l4.78-.066,15.774-.056,15.793.028,4.78.066h1.3A2.059,2.059,0,0,1,454.954,390.092Z" transform="translate(-85.454 -46.275)"/>
      <path id="Trazado_1741" data-name="Trazado 1741" class="cls-1" d="M454.954,397.279a2.065,2.065,0,0,1-.45,0h-1.3l-4.78.066-15.764.056-15.774-.056-4.78-.066h-1.3a2.065,2.065,0,0,1-.45,0,1.666,1.666,0,0,1,.45-.047h1.3l4.78-.056,15.774-.066,15.764.066,4.78.056h1.3a1.666,1.666,0,0,1,.45.047Z" transform="translate(-85.454 -46.723)"/>
      <circle id="Elipse_174" data-name="Elipse 174" class="cls-2" cx="40.564" cy="40.564" r="40.564" transform="translate(36.02 57.366) rotate(-45)"/>
      <path id="Trazado_1742" data-name="Trazado 1742" class="cls-1" d="M181.734,84.2a8.736,8.736,0,0,1-1.434.094l-3.946.075c-3.346,0-8,.084-13.262.084h-.262V81.579c0-5.877,0-11.191.075-15,0-1.874.066-3.393.084-4.564a9.569,9.569,0,0,1,.1-1.668,10.919,10.919,0,0,1,.1,1.668c0,1.172,0,2.709.084,4.564,0,3.852.075,9.166.075,15v2.634l-.253-.262c5.258,0,9.916,0,13.262.084l3.946.084a7.575,7.575,0,0,1,1.425.084Z" transform="translate(-69.921 -25.59)"/>
      <path id="Trazado_1743" data-name="Trazado 1743" class="cls-1" d="M163.21,48.3a11.4,11.4,0,0,1,.262,3.4,11.491,11.491,0,0,1-.262,3.412,11.49,11.49,0,0,1-.262-3.412A11.4,11.4,0,0,1,163.21,48.3Z" transform="translate(-69.926 -24.834)"/>
      <path id="Trazado_1744" data-name="Trazado 1744" class="cls-1" d="M182.682,54.13a10.966,10.966,0,0,1-2.193,2.568,10.844,10.844,0,0,1-2.559,2.184,11.032,11.032,0,0,1,2.193-2.559A11.323,11.323,0,0,1,182.682,54.13Z" transform="translate(-70.868 -25.2)"/>
      <path id="Trazado_1745" data-name="Trazado 1745" class="cls-1" d="M194.095,66.73a14,14,0,0,1-2.812,1.874,14.276,14.276,0,0,1-2.943,1.621,9.053,9.053,0,0,1,2.671-2.071A8.772,8.772,0,0,1,194.095,66.73Z" transform="translate(-71.522 -25.991)"/>
      <path id="Trazado_1746" data-name="Trazado 1746" class="cls-1" d="M200.612,85.4a20.461,20.461,0,0,1-4.686.262,20.461,20.461,0,0,1-4.686-.262,21.126,21.126,0,0,1,4.686-.262,21.125,21.125,0,0,1,4.686.262Z" transform="translate(-71.704 -27.144)"/>
      <path id="Trazado_1747" data-name="Trazado 1747" class="cls-1" d="M131.9,84.74a18.8,18.8,0,0,1-4.386.262,18.867,18.867,0,0,1-4.386-.262,18.867,18.867,0,0,1,4.386-.262A18.8,18.8,0,0,1,131.9,84.74Z" transform="translate(-67.429 -27.102)"/>
      <path id="Trazado_1748" data-name="Trazado 1748" class="cls-1" d="M136.894,98.68a20.057,20.057,0,0,1-3.318,3.009,19.822,19.822,0,0,1-3.646,2.6,19.147,19.147,0,0,1,3.318-3.009A18.5,18.5,0,0,1,136.894,98.68Z" transform="translate(-67.856 -27.996)"/>
      <path id="Trazado_1749" data-name="Trazado 1749" class="cls-1" d="M149.039,109.44a30.307,30.307,0,0,1-2.259,3.908,31.12,31.12,0,0,1-2.39,3.833,14.536,14.536,0,0,1,1.94-4.105,14.629,14.629,0,0,1,2.709-3.637Z" transform="translate(-68.764 -28.671)"/>
      <path id="Trazado_1750" data-name="Trazado 1750" class="cls-1" d="M163.21,122.692a21.125,21.125,0,0,1-.262-4.686,21.125,21.125,0,0,1,.262-4.686,21.126,21.126,0,0,1,.262,4.686,21.126,21.126,0,0,1-.262,4.686Z" transform="translate(-69.926 -28.914)"/>
      <path id="Trazado_1751" data-name="Trazado 1751" class="cls-1" d="M184.134,116.3a13.46,13.46,0,0,1-3.833-2.624,13.843,13.843,0,0,1-3.121-3.43,42.119,42.119,0,0,1,3.468,3.037A42.978,42.978,0,0,1,184.134,116.3Z" transform="translate(-70.821 -28.722)"/>
      <path id="Trazado_1752" data-name="Trazado 1752" class="cls-1" d="M194.243,105.523a16.186,16.186,0,0,1-3.084-2.7,16.183,16.183,0,0,1-2.7-3.084,16.263,16.263,0,0,1,3.074,2.709,16.262,16.262,0,0,1,2.709,3.074Z" transform="translate(-71.529 -28.062)"/>
      <path id="Trazado_1753" data-name="Trazado 1753" class="cls-1" d="M136.561,71.091a12.344,12.344,0,0,1-2.718-2.343A12.345,12.345,0,0,1,131.5,66.03a12.345,12.345,0,0,1,2.718,2.343,12.343,12.343,0,0,1,2.343,2.718Z" transform="translate(-67.955 -25.947)"/>
      <path id="Trazado_1754" data-name="Trazado 1754" class="cls-1" d="M148.949,58.059a11.716,11.716,0,0,1-2.671-2.24A11.838,11.838,0,0,1,144,53.12a11.79,11.79,0,0,1,2.662,2.287,11.743,11.743,0,0,1,2.287,2.652Z" transform="translate(-68.739 -25.136)"/>
      <g id="Grupo_627" data-name="Grupo 627" class="cls-3" transform="translate(268.596 27.674)">
        <path id="Trazado_1755" data-name="Trazado 1755" class="cls-4" d="M395.7,61.694a27.421,27.421,0,0,1,5.867,4.115l6.233-2.221,5.858,9.251-4.686,4.686a26.694,26.694,0,0,1,1.218,7.029l5.98,2.812L413.75,98.087H407.19a26.823,26.823,0,0,1-4.105,5.839l2.221,6.233-9.251,5.858-4.686-4.686a26.7,26.7,0,0,1-7.029,1.228l-2.812,5.97-10.685-2.39v-6.617A26.541,26.541,0,0,1,365,105.407l-6.233,2.221-5.942-9.223,4.686-4.686a26.846,26.846,0,0,1-1.256-6.992l-5.98-2.812,2.4-10.685H359.3a26.545,26.545,0,0,1,4.115-5.839L361.19,61.16,370.44,55.3l4.686,4.686a26.843,26.843,0,0,1,7.039-1.228l2.812-5.97,10.685,2.4V61.75ZM386.28,74.272a11.734,11.734,0,1,0,7.363,5.183,11.744,11.744,0,0,0-7.363-5.183Z" transform="translate(-350.28 -52.79)"/>
      </g>
      <path id="Trazado_1756" data-name="Trazado 1756" class="cls-2" d="M63.7,161.511h69.356s-6.13-11.153-23.975-9.532c-17.039,1.556-17.911-5.483-26.58-6.355S66.587,151.408,63.7,161.511Z" transform="translate(-63.7 -30.937)"/>
      <path id="Trazado_1757" data-name="Trazado 1757" class="cls-2" d="M223.8,296.2h56.113s-4.958-9.026-19.4-7.714c-13.8,1.256-14.5-4.443-21.557-5.145S226.134,288.023,223.8,296.2Z" transform="translate(-73.747 -39.58)"/>
    </g>
    <g id="freepik--Floor--inject-365" transform="translate(19.85 418.122)">
      <path id="Trazado_1758" data-name="Trazado 1758" class="cls-5" d="M451.264,444.8c0,.131-96.536.244-215.7.244S19.85,444.972,19.85,444.8s96.536-.244,215.717-.244S451.264,444.672,451.264,444.8Z" transform="translate(-19.85 -444.56)"/>
    </g>
    <g id="freepik--Screens--inject-365" transform="translate(42.484 137.117)">
      <rect id="Rectángulo_460" data-name="Rectángulo 460" class="cls-6" width="136.163" height="91.175" transform="translate(249.223 0.366)"/>
      <path id="Trazado_1759" data-name="Trazado 1759" class="cls-7" d="M446.062,236.271V229.8c0-4.218,0-10.413-.056-18.333,0-15.849-.056-38.615-.1-66.366l.2.187-136.154.056h0l.244-.244v91.166l-.225-.225,98.1.112,28.024.056h.094l-27.977.056-98.242.112h-.225V144.74h.253l136.154.056h.2v.2c0,27.808-.075,50.611-.1,66.479,0,7.91,0,14.059-.047,18.3v4.78A9.441,9.441,0,0,1,446.062,236.271Z" transform="translate(-60.676 -144.74)"/>
      <path id="Trazado_1760" data-name="Trazado 1760" class="cls-7" d="M309.91,153.794c0-.141,30.46-.244,68.025-.244s68.025.1,68.025.244-30.451.244-68.025.244S309.91,153.972,309.91,153.794Z" transform="translate(-60.687 -145.293)"/>
      <g id="Grupo_628" data-name="Grupo 628" class="cls-8" transform="translate(252.4 3.299)">
        <path id="Trazado_1761" data-name="Trazado 1761" class="cls-7" d="M315.493,149.357a1.087,1.087,0,1,1-.315-.775A1.1,1.1,0,0,1,315.493,149.357Z" transform="translate(-313.3 -148.26)"/>
      </g>
      <g id="Grupo_629" data-name="Grupo 629" class="cls-8" transform="translate(256.14 3.299)">
        <path id="Trazado_1762" data-name="Trazado 1762" class="cls-7" d="M319.483,149.357a1.087,1.087,0,1,1-.315-.775,1.1,1.1,0,0,1,.315.775Z" transform="translate(-317.29 -148.26)"/>
      </g>
      <g id="Grupo_630" data-name="Grupo 630" class="cls-8" transform="translate(259.823 3.299)">
        <path id="Trazado_1763" data-name="Trazado 1763" class="cls-7" d="M323.413,149.357a1.087,1.087,0,1,1-.315-.775A1.1,1.1,0,0,1,323.413,149.357Z" transform="translate(-321.22 -148.26)"/>
      </g>
      <rect id="Rectángulo_461" data-name="Rectángulo 461" class="cls-7" width="36.318" height="36.318" transform="translate(260.929 18.005)"/>
      <path id="Trazado_1764" data-name="Trazado 1764" class="cls-7" d="M431.033,174.884c0,.141-14.171.244-31.641.244s-31.641-.1-31.641-.244,14.171-.244,31.641-.244S431.033,174.752,431.033,174.884Z" transform="translate(-64.317 -146.616)"/>
      <path id="Trazado_1765" data-name="Trazado 1765" class="cls-7" d="M431.033,182.094c0,.131-14.171.244-31.641.244s-31.641-.112-31.641-.244,14.171-.244,31.641-.244S431.033,181.991,431.033,182.094Z" transform="translate(-64.317 -147.069)"/>
      <path id="Trazado_1766" data-name="Trazado 1766" class="cls-7" d="M431.033,189.294c0,.131-14.171.244-31.641.244s-31.641-.112-31.641-.244,14.171-.244,31.641-.244S431.033,189.153,431.033,189.294Z" transform="translate(-64.317 -147.521)"/>
      <path id="Trazado_1767" data-name="Trazado 1767" class="cls-7" d="M405.156,196.494a8.043,8.043,0,0,1-1.472.094l-4.011.075c-3.383.047-8.06.075-13.215.075s-9.841,0-13.225-.075l-4.011-.075a8.042,8.042,0,0,1-1.472-.094,8.04,8.04,0,0,1,1.472-.094l4.011-.075c3.383-.047,8.06-.075,13.225-.075s9.832,0,13.215.075l4.011.075A8.04,8.04,0,0,1,405.156,196.494Z" transform="translate(-64.317 -147.972)"/>
      <g id="Grupo_631" data-name="Grupo 631" class="cls-8" transform="translate(263.197 66.573)">
        <rect id="Rectángulo_462" data-name="Rectángulo 462" class="cls-7" width="17.067" height="17.067"/>
      </g>
      <rect id="Rectángulo_463" data-name="Rectángulo 463" class="cls-7" width="17.067" height="17.067" transform="translate(294.155 66.573)"/>
      <rect id="Rectángulo_464" data-name="Rectángulo 464" class="cls-7" width="17.067" height="17.067" transform="translate(325.112 66.573)"/>
      <rect id="Rectángulo_465" data-name="Rectángulo 465" class="cls-7" width="17.067" height="17.067" transform="translate(356.069 66.573)"/>
      <g id="Grupo_632" data-name="Grupo 632" class="cls-8" transform="translate(260.929 18.005)">
        <rect id="Rectángulo_466" data-name="Rectángulo 466" class="cls-6" width="36.318" height="36.318"/>
      </g>
      <g id="Grupo_633" data-name="Grupo 633" class="cls-8" transform="translate(294.155 66.573)">
        <rect id="Rectángulo_467" data-name="Rectángulo 467" class="cls-6" width="17.067" height="17.067"/>
      </g>
      <g id="Grupo_634" data-name="Grupo 634" class="cls-8" transform="translate(325.112 66.573)">
        <rect id="Rectángulo_468" data-name="Rectángulo 468" class="cls-6" width="17.067" height="17.067"/>
      </g>
      <g id="Grupo_635" data-name="Grupo 635" class="cls-8" transform="translate(356.069 66.573)">
        <rect id="Rectángulo_469" data-name="Rectángulo 469" class="cls-6" width="17.067" height="17.067"/>
      </g>
      <rect id="Rectángulo_470" data-name="Rectángulo 470" class="cls-6" width="121.298" height="49.271" transform="translate(0.197 33.207)"/>
      <path id="Trazado_1768" data-name="Trazado 1768" class="cls-7" d="M165.5,229.43V216.187c0-8.5,0-20.807-.075-36.028l.131.131-121.289.056h0l.2-.187V229.43l-.187-.187,86.967.084,25.231.056h.084l-25.184.047-87.1.084H44V180h.2l121.289.066h.141v.131c0,15.258-.056,27.583-.075,36.112v12.306A4.007,4.007,0,0,1,165.5,229.43Z" transform="translate(-44 -146.953)"/>
      <path id="Trazado_1769" data-name="Trazado 1769" class="cls-7" d="M44.34,187.247c0-.1,27.115-.2,60.546-.2s60.565.094,60.565.2-27.115.187-60.565.187S44.34,187.35,44.34,187.247Z" transform="translate(-44.021 -147.395)"/>
      <g id="Grupo_636" data-name="Grupo 636" class="cls-8" transform="translate(3.637 36)">
        <path id="Trazado_1770" data-name="Trazado 1770" class="cls-7" d="M49.642,184.031a.881.881,0,1,1-.881-.881A.881.881,0,0,1,49.642,184.031Z" transform="translate(-47.88 -183.15)"/>
      </g>
      <g id="Grupo_637" data-name="Grupo 637" class="cls-8" transform="translate(6.673 36)">
        <path id="Trazado_1771" data-name="Trazado 1771" class="cls-7" d="M52.882,184.031A.881.881,0,1,1,52,183.15.881.881,0,0,1,52.882,184.031Z" transform="translate(-51.12 -183.15)"/>
      </g>
      <g id="Grupo_638" data-name="Grupo 638" class="cls-8" transform="translate(9.626 36)">
        <path id="Trazado_1772" data-name="Trazado 1772" class="cls-7" d="M56.032,184.031a.881.881,0,1,1-.881-.881A.881.881,0,0,1,56.032,184.031Z" transform="translate(-54.27 -183.15)"/>
      </g>
      <rect id="Rectángulo_471" data-name="Rectángulo 471" class="cls-7" width="29.298" height="29.298" transform="translate(10.507 47.856)"/>
      <path id="Trazado_1773" data-name="Trazado 1773" class="cls-7" d="M160.17,204.167c0,.1-15.08.2-33.675.2s-33.675-.094-33.675-.2,15.08-.187,33.675-.187S160.17,204.064,160.17,204.167Z" transform="translate(-47.064 -148.458)"/>
      <path id="Trazado_1774" data-name="Trazado 1774" class="cls-7" d="M160.17,210.537c0,.1-15.08.187-33.675.187s-33.675-.084-33.675-.187,15.08-.2,33.675-.2S160.17,210.434,160.17,210.537Z" transform="translate(-47.064 -148.857)"/>
      <path id="Trazado_1775" data-name="Trazado 1775" class="cls-7" d="M136.174,216.912a3.229,3.229,0,0,1-.44,0h-1.265l-4.639.056-15.333.056-15.324-.056-4.686-.056H93.22a3.475,3.475,0,0,1-.44,0,1.529,1.529,0,0,1,.441,0h1.265l4.686-.066,15.324-.056,15.333.056,4.639.066h1.265A1.47,1.47,0,0,1,136.174,216.912Z" transform="translate(-47.061 -149.261)"/>
      <g id="Grupo_639" data-name="Grupo 639" class="cls-8" transform="translate(10.507 47.856)">
        <rect id="Rectángulo_472" data-name="Rectángulo 472" class="cls-2" width="29.298" height="29.298"/>
      </g>
    </g>
    <g id="freepik--Rocket--inject-365" transform="translate(182.882 75.06)">
      <path id="Trazado_1776" data-name="Trazado 1776" class="cls-2" d="M266.06,114.063c-2.034-1.359-4.827-.534-6.861.825s-3.749,3.215-6.045,4.1c-4.274,1.659-9.888-.309-13.206,2.812-2.109,2.006-2.324,5.3-3.936,7.732-2.718,4.086-9.241,5.623-9.794,10.5-.328,2.812,1.921,5.567,4.686,6.364a10.019,10.019,0,0,0,8.154-1.631c2.812-1.874,4.977-4.686,8.145-5.755s7.245-.178,9.8-2.437,2.174-6.43,4.011-9.316a18.745,18.745,0,0,1,3.89-3.805,7.584,7.584,0,0,0,2.924-4.471c.234-1.809-.506-4.892-1.753-4.958" transform="translate(-195.831 -80.714)"/>
      <path id="Trazado_1777" data-name="Trazado 1777" class="cls-5" d="M212.378,326.56c.122-.066.5.309.853.843s.553,1.04.44,1.115-.487-.3-.853-.844S212.265,326.635,212.378,326.56Z" transform="translate(-194.962 -94.092)"/>
      <path id="Trazado_1778" data-name="Trazado 1778" class="cls-5" d="M208.1,317.54a6.008,6.008,0,0,1,1.115,2.081,5.942,5.942,0,0,1,.665,2.259,11.49,11.49,0,0,1-1.781-4.339Z" transform="translate(-194.696 -93.527)"/>
      <path id="Trazado_1779" data-name="Trazado 1779" class="cls-5" d="M205.777,307.82a11.406,11.406,0,0,1,.853,4.611,5.793,5.793,0,0,1-.665-2.259,5.924,5.924,0,0,1-.187-2.353Z" transform="translate(-194.547 -92.917)"/>
      <path id="Trazado_1780" data-name="Trazado 1780" class="cls-5" d="M205.408,297.83a11.612,11.612,0,0,1-.066,4.686,5.568,5.568,0,0,1-.216-2.343A5.624,5.624,0,0,1,205.408,297.83Z" transform="translate(-194.507 -92.29)"/>
      <path id="Trazado_1781" data-name="Trazado 1781" class="cls-5" d="M206.932,288a5.848,5.848,0,0,1-.253,2.343,6.007,6.007,0,0,1-.731,2.24,5.857,5.857,0,0,1,.253-2.343,6.073,6.073,0,0,1,.731-2.24Z" transform="translate(-194.559 -91.673)"/>
      <path id="Trazado_1782" data-name="Trazado 1782" class="cls-5" d="M210.515,278.65a11.031,11.031,0,0,1-1.874,4.274,5.915,5.915,0,0,1,.74-2.24C209.915,279.493,210.393,278.584,210.515,278.65Z" transform="translate(-194.73 -91.086)"/>
      <path id="Trazado_1783" data-name="Trazado 1783" class="cls-5" d="M215.962,270.31a5.942,5.942,0,0,1-1.2,2.034,6.757,6.757,0,0,1-1.584,1.743c-.131-.084.412-.993,1.19-2.034S215.822,270.225,215.962,270.31Z" transform="translate(-195.013 -90.562)"/>
      <path id="Trazado_1784" data-name="Trazado 1784" class="cls-5" d="M222.653,262.909c.1.094-.544.937-1.434,1.875s-1.7,1.612-1.8,1.528.544-.937,1.443-1.874S222.559,262.806,222.653,262.909Z" transform="translate(-195.406 -90.098)"/>
      <path id="Trazado_1785" data-name="Trazado 1785" class="cls-5" d="M229.689,255.789c.1.094-.562.937-1.472,1.874s-1.724,1.593-1.818,1.5.562-.937,1.471-1.875S229.6,255.7,229.689,255.789Z" transform="translate(-195.844 -89.651)"/>
      <path id="Trazado_1786" data-name="Trazado 1786" class="cls-5" d="M236.29,248.25a5.886,5.886,0,0,1-1.3,1.968c-.825,1.012-1.575,1.753-1.678,1.659a6.259,6.259,0,0,1,1.3-1.968C235.428,248.953,236.178,248.175,236.29,248.25Z" transform="translate(-196.278 -89.178)"/>
      <path id="Trazado_1787" data-name="Trazado 1787" class="cls-5" d="M241.446,239.67a5.1,5.1,0,0,1-.787,2.231,5.193,5.193,0,0,1-1.359,1.94,6.692,6.692,0,0,1,.937-2.165,6.954,6.954,0,0,1,1.209-2.006Z" transform="translate(-196.654 -88.64)"/>
      <path id="Trazado_1788" data-name="Trazado 1788" class="cls-5" d="M243.948,230a4.77,4.77,0,0,1-.047,2.362,4.949,4.949,0,0,1-.722,2.259,7.133,7.133,0,0,1,.244-2.334A7.312,7.312,0,0,1,243.948,230Z" transform="translate(-196.896 -88.033)"/>
      <path id="Trazado_1789" data-name="Trazado 1789" class="cls-5" d="M243.278,220.07a4.809,4.809,0,0,1,.694,2.259,4.939,4.939,0,0,1,0,2.371,7.1,7.1,0,0,1-.506-2.3,7.253,7.253,0,0,1-.187-2.334Z" transform="translate(-196.902 -87.41)"/>
      <path id="Trazado_1790" data-name="Trazado 1790" class="cls-5" d="M239.35,210.92c.112-.075.8.74,1.415,1.874a4.921,4.921,0,0,1,.806,2.231,7.4,7.4,0,0,1-1.237-2A7.649,7.649,0,0,1,239.35,210.92Z" transform="translate(-196.657 -86.836)"/>
      <path id="Trazado_1791" data-name="Trazado 1791" class="cls-5" d="M232.38,203.82a4.958,4.958,0,0,1,2.024,1.228c1,.844,1.659,1.687,1.565,1.781s-.937-.581-1.874-1.406S232.3,203.932,232.38,203.82Z" transform="translate(-196.219 -86.39)"/>
      <path id="Trazado_1792" data-name="Trazado 1792" class="cls-5" d="M223.29,199.759a4.883,4.883,0,0,1,2.324.431,4.817,4.817,0,0,1,2.109,1.087,7.5,7.5,0,0,1-2.268-.628A6.926,6.926,0,0,1,223.29,199.759Z" transform="translate(-195.649 -86.135)"/>
      <path id="Trazado_1793" data-name="Trazado 1793" class="cls-5" d="M213.35,199.274a4.686,4.686,0,0,1,2.315-.487,4.808,4.808,0,0,1,2.362.244,7.826,7.826,0,0,1-2.334.244A7.5,7.5,0,0,1,213.35,199.274Z" transform="translate(-195.025 -86.071)"/>
      <path id="Trazado_1794" data-name="Trazado 1794" class="cls-5" d="M204.13,202.852c-.084-.112.722-.815,1.874-1.434a4.5,4.5,0,0,1,2.24-.778,8.212,8.212,0,0,1-2.015,1.2A7.826,7.826,0,0,1,204.13,202.852Z" transform="translate(-194.446 -86.191)"/>
      <path id="Trazado_1795" data-name="Trazado 1795" class="cls-5" d="M197.26,209.932a4.771,4.771,0,0,1,1.153-2.071c.8-1.04,1.621-1.725,1.715-1.631a7.527,7.527,0,0,1-1.331,1.931C198.019,209.154,197.372,210,197.26,209.932Z" transform="translate(-194.016 -86.541)"/>
      <path id="Trazado_1796" data-name="Trazado 1796" class="cls-5" d="M193.885,219.215a4.612,4.612,0,0,1,.178-2.362A4.687,4.687,0,0,1,195,214.66a7.77,7.77,0,0,1-.441,2.306,7.667,7.667,0,0,1-.675,2.249Z" transform="translate(-193.799 -87.071)"/>
      <path id="Trazado_1797" data-name="Trazado 1797" class="cls-5" d="M195,229.065a4.686,4.686,0,0,1-.937-2.193,4.564,4.564,0,0,1-.187-2.362,8.481,8.481,0,0,1,.665,2.249A8.145,8.145,0,0,1,195,229.065Z" transform="translate(-193.798 -87.689)"/>
      <path id="Trazado_1798" data-name="Trazado 1798" class="cls-5" d="M199.967,237.675c-.1.094-.881-.637-1.64-1.706a4.939,4.939,0,0,1-1.1-2.1c.122-.066.74.778,1.49,1.818A7.216,7.216,0,0,1,199.967,237.675Z" transform="translate(-194.014 -88.276)"/>
      <path id="Trazado_1799" data-name="Trazado 1799" class="cls-5" d="M207.265,244.482a5.259,5.259,0,0,1-2.015-1.237c-1.022-.815-1.725-1.612-1.631-1.715a6.908,6.908,0,0,1,1.931,1.34C206.553,243.676,207.35,244.37,207.265,244.482Z" transform="translate(-194.414 -88.757)"/>
      <path id="Trazado_1800" data-name="Trazado 1800" class="cls-5" d="M215.9,249.508a11.248,11.248,0,0,1-4.18-2.128,6.072,6.072,0,0,1,2.2.843,5.877,5.877,0,0,1,1.978,1.284Z" transform="translate(-194.923 -89.124)"/>
      <path id="Trazado_1801" data-name="Trazado 1801" class="cls-5" d="M225.4,252.6a5.136,5.136,0,0,1-2.353-.281,5.015,5.015,0,0,1-2.193-.89,7.153,7.153,0,0,1,2.315.422,6.673,6.673,0,0,1,2.231.75Z" transform="translate(-195.496 -89.378)"/>
      <path id="Trazado_1802" data-name="Trazado 1802" class="cls-5" d="M235.346,253.179a8.538,8.538,0,0,1-4.686.094,6.889,6.889,0,0,1,2.334-.206,7.131,7.131,0,0,1,2.352.112Z" transform="translate(-196.112 -89.478)"/>
      <path id="Trazado_1803" data-name="Trazado 1803" class="cls-5" d="M244.985,250.62a8.379,8.379,0,0,1-4.405,1.584,7.009,7.009,0,0,1,2.156-.937,6.879,6.879,0,0,1,2.249-.647Z" transform="translate(-196.734 -89.327)"/>
      <path id="Trazado_1804" data-name="Trazado 1804" class="cls-5" d="M253.371,245.15c.094.1-.619.937-1.659,1.687a5.072,5.072,0,0,1-2.053,1.172c-.075-.122.74-.769,1.762-1.556A7.4,7.4,0,0,1,253.371,245.15Z" transform="translate(-197.304 -88.984)"/>
      <path id="Trazado_1805" data-name="Trazado 1805" class="cls-5" d="M259.941,237.59a5.08,5.08,0,0,1-1.153,2.062c-.778,1.05-1.556,1.771-1.659,1.687a7.227,7.227,0,0,1,1.275-1.978C259.172,238.321,259.819,237.515,259.941,237.59Z" transform="translate(-197.772 -88.509)"/>
      <path id="Trazado_1806" data-name="Trazado 1806" class="cls-5" d="M264.343,228.59a4.967,4.967,0,0,1-.572,2.3c-.487,1.218-1.059,2.118-1.181,2.053a6.974,6.974,0,0,1,.722-2.231A7.207,7.207,0,0,1,264.343,228.59Z" transform="translate(-198.115 -87.945)"/>
      <path id="Trazado_1807" data-name="Trazado 1807" class="cls-5" d="M266.357,218.8a8.942,8.942,0,0,1-.637,4.639A15.352,15.352,0,0,1,266.357,218.8Z" transform="translate(-198.312 -87.33)"/>
      <path id="Trazado_1808" data-name="Trazado 1808" class="cls-5" d="M266.134,208.809a5.626,5.626,0,0,1,.431,2.315,6.017,6.017,0,0,1-.066,2.362,11.613,11.613,0,0,1-.365-4.686Z" transform="translate(-198.332 -86.703)"/>
      <path id="Trazado_1809" data-name="Trazado 1809" class="cls-5" d="M264,199.05a5.726,5.726,0,0,1,.853,2.2,5.822,5.822,0,0,1,.375,2.324,5.9,5.9,0,0,1-.853-2.2A5.793,5.793,0,0,1,264,199.05Z" transform="translate(-198.203 -86.091)"/>
      <path id="Trazado_1810" data-name="Trazado 1810" class="cls-5" d="M260.14,189.81c.122-.066.684.834,1.247,2.006a5.765,5.765,0,0,1,.731,2.249A13.781,13.781,0,0,1,260.14,189.81Z" transform="translate(-197.962 -85.511)"/>
      <path id="Trazado_1811" data-name="Trazado 1811" class="cls-5" d="M255.22,181.1c.122-.075.74.778,1.4,1.875a5.773,5.773,0,0,1,.937,2.146,6.025,6.025,0,0,1-1.4-1.874,6.091,6.091,0,0,1-.937-2.146Z" transform="translate(-197.653 -84.964)"/>
      <path id="Trazado_1812" data-name="Trazado 1812" class="cls-5" d="M250.26,172.41c.122-.066.722.806,1.35,1.931a6.035,6.035,0,0,1,.937,2.174,6.008,6.008,0,0,1-1.35-1.94A5.763,5.763,0,0,1,250.26,172.41Z" transform="translate(-197.342 -84.419)"/>
      <path id="Trazado_1813" data-name="Trazado 1813" class="cls-5" d="M246.35,163.21a11.293,11.293,0,0,1,1.64,4.4,5.624,5.624,0,0,1-1.05-2.118A5.83,5.83,0,0,1,246.35,163.21Z" transform="translate(-197.096 -83.842)"/>
      <path id="Trazado_1814" data-name="Trazado 1814" class="cls-5" d="M244.638,153.38a6.562,6.562,0,0,1,.412,2.315,6.831,6.831,0,0,1,.084,2.343,4.977,4.977,0,0,1-.562-2.3A5.127,5.127,0,0,1,244.638,153.38Z" transform="translate(-196.978 -83.225)"/>
      <path id="Trazado_1815" data-name="Trazado 1815" class="cls-5" d="M245.425,143.43a7.086,7.086,0,0,1-.169,2.343,6.625,6.625,0,0,1-.515,2.3,5.23,5.23,0,0,1,0-2.371,5.08,5.08,0,0,1,.684-2.268Z" transform="translate(-196.987 -82.601)"/>
      <path id="Trazado_1816" data-name="Trazado 1816" class="cls-5" d="M248.619,134a6.84,6.84,0,0,1-.75,2.231,7.019,7.019,0,0,1-1.059,2.1,8.782,8.782,0,0,1,1.809-4.33Z" transform="translate(-197.125 -82.009)"/>
      <path id="Trazado_1817" data-name="Trazado 1817" class="cls-5" d="M254.118,125.71c.1.094-.515.937-1.3,1.959s-1.453,1.874-1.565,1.753a4.968,4.968,0,0,1,1.181-2.053C253.228,126.337,254.024,125.625,254.118,125.71Z" transform="translate(-197.404 -81.488)"/>
      <path id="Trazado_1818" data-name="Trazado 1818" class="cls-5" d="M261.571,119.13c.075.112-.74.778-1.753,1.565a6.983,6.983,0,0,1-1.959,1.3c-.094-.1.628-.937,1.659-1.687a5.1,5.1,0,0,1,2.053-1.181Z" transform="translate(-197.818 -81.076)"/>
      <path id="Trazado_1819" data-name="Trazado 1819" class="cls-5" d="M270.432,114.61a7.029,7.029,0,0,1-2.09,1.078,6.766,6.766,0,0,1-2.212.778c-.066-.122.825-.7,2.024-1.218a4.921,4.921,0,0,1,2.278-.637Z" transform="translate(-198.337 -80.792)"/>
      <path id="Trazado_1820" data-name="Trazado 1820" class="cls-5" d="M277.846,112.763c0,.131-.478.337-1.106.45s-1.172.112-1.2,0,.469-.337,1.106-.459S277.846,112.632,277.846,112.763Z" transform="translate(-198.928 -80.67)"/>
      <path id="Trazado_1821" data-name="Trazado 1821" class="cls-7" d="M298.38,83.029a30.688,30.688,0,0,1,26.243-2.812s1.247,12.615-10.966,22.644" transform="translate(-200.361 -78.528)"/>
      <path id="Trazado_1822" data-name="Trazado 1822" class="cls-7" d="M261.35,106.487c.469.7,12.418,19.907,12.418,19.907l35.868-22.1a12.559,12.559,0,0,0,3.505-18.164h0a12.55,12.55,0,0,0-17.086-2.943Z" transform="translate(-198.038 -78.686)"/>
      <path id="Trazado_1823" data-name="Trazado 1823" class="cls-5" d="M274.546,128.743l-.806,13.515s23.244-11.247,17.442-23.769Z" transform="translate(-198.815 -81.036)"/>
      <path id="Trazado_1824" data-name="Trazado 1824" class="cls-5" d="M277.156,96.135s-15.764-6.954-28.736,3.243l12.119,7.91Z" transform="translate(-197.226 -79.487)"/>
      <path id="Trazado_1825" data-name="Trazado 1825" class="cls-5" d="M277.5,108.183,255.07,122.242s.769,2.418,1.368,2.212,17.367-10.122,22.831-13.356a1.687,1.687,0,0,0,.44-2.521h0a1.7,1.7,0,0,0-2.212-.394Z" transform="translate(-197.643 -80.373)"/>
      <circle id="Elipse_175" data-name="Elipse 175" class="cls-9" cx="7.179" cy="7.179" r="7.179" transform="translate(91.857 22.519) rotate(-76.76)"/>
      <path id="Trazado_1826" data-name="Trazado 1826" class="cls-5" d="M307.687,96.355a13.1,13.1,0,0,0-.319-1.725,7.1,7.1,0,0,0-2.624-3.843,6.955,6.955,0,0,0-2.952-1.284,7.048,7.048,0,0,0-3.655.319,6.935,6.935,0,0,0-3.262,10.638A6.964,6.964,0,0,0,298.1,102.9a7.058,7.058,0,0,0,3.655.319,6.954,6.954,0,0,0,2.952-1.284,7.142,7.142,0,0,0,2.624-3.843c.291-1.087.262-1.734.319-1.734a1.508,1.508,0,0,1,0,.469,5.781,5.781,0,0,1-.159,1.312,7.245,7.245,0,0,1-5.689,5.473,7.384,7.384,0,1,1,3.093-13.093,7.151,7.151,0,0,1,2.662,4.105,5.786,5.786,0,0,1,.159,1.312A1.418,1.418,0,0,1,307.687,96.355Z" transform="translate(-200.024 -79.183)"/>
      <path id="Trazado_1827" data-name="Trazado 1827" class="cls-5" d="M317.126,100.645c-.094,0-.2-1.4-.75-3.58a28.115,28.115,0,0,0-1.247-3.749,27.433,27.433,0,0,0-5.211-8.07,27.737,27.737,0,0,0-2.9-2.681c-1.771-1.4-3-2.071-2.952-2.156a4.149,4.149,0,0,1,.89.422,10.868,10.868,0,0,1,1,.59c.375.253.815.515,1.265.872a23.239,23.239,0,0,1,3.009,2.643,25.07,25.07,0,0,1,5.3,8.21,24.3,24.3,0,0,1,1.172,3.833c.141.553.2,1.068.272,1.518a10.309,10.309,0,0,1,.122,1.153,3.459,3.459,0,0,1,.019.993Z" transform="translate(-200.718 -78.646)"/>
      <path id="Trazado_1828" data-name="Trazado 1828" class="cls-5" d="M315.053,101.679c-.094,0-.206-1.415-.769-3.637a29.056,29.056,0,0,0-1.265-3.805,30,30,0,0,0-2.277-4.349,30.377,30.377,0,0,0-3-3.88,28.038,28.038,0,0,0-2.943-2.746c-1.79-1.434-3.037-2.128-2.99-2.212a4.22,4.22,0,0,1,.937.441,9.606,9.606,0,0,1,1,.609,10.185,10.185,0,0,1,1.284.937,25.727,25.727,0,0,1,3.037,2.652,27.929,27.929,0,0,1,3.084,3.927,28.552,28.552,0,0,1,2.277,4.443,25.114,25.114,0,0,1,1.19,3.9c.141.562.2,1.087.272,1.537a9.086,9.086,0,0,1,.131,1.172,4.538,4.538,0,0,1,.028,1.012Z" transform="translate(-200.576 -78.686)"/>
    </g>
    <g id="freepik--Plant--inject-365" transform="translate(36.013 268.247)">
      <path id="Trazado_1829" data-name="Trazado 1829" class="cls-7" d="M81.389,416.73c-.806-3.187,1.3-6.373,3.655-8.67s5.155-4.349,6.392-7.395c2-4.93-.619-11.35,2.812-15.455,1.987-2.418,5.549-3.205,7.311-5.792a13.177,13.177,0,0,0,1.612-4.621A47.04,47.04,0,0,1,115,352.96a40.724,40.724,0,0,1-4.686,21.079c-1.378,2.587-3.065,5.108-3.524,8-.769,4.686,1.875,9.551.656,14.162-1.359,5.267-7.3,8.773-7.62,14.2-.262,4.6,3.749,8.651,3.393,13.243a12.316,12.316,0,0,1-2.071,5.436c-3.674,5.858-8.894,9.9-16.8,9.719l-9.691.281Z" transform="translate(-39.452 -288.937)"/>
      <g id="Grupo_640" data-name="Grupo 640" class="cls-8" transform="translate(35.208 64.023)">
        <path id="Trazado_1830" data-name="Trazado 1830" d="M81.389,416.73c-.806-3.187,1.3-6.373,3.655-8.67s5.155-4.349,6.392-7.395c2-4.93-.619-11.35,2.812-15.455,1.987-2.418,5.549-3.205,7.311-5.792a13.177,13.177,0,0,0,1.612-4.621A47.04,47.04,0,0,1,115,352.96a40.724,40.724,0,0,1-4.686,21.079c-1.378,2.587-3.065,5.108-3.524,8-.769,4.686,1.875,9.551.656,14.162-1.359,5.267-7.3,8.773-7.62,14.2-.262,4.6,3.749,8.651,3.393,13.243a12.316,12.316,0,0,1-2.071,5.436c-3.674,5.858-8.894,9.9-16.8,9.719l-9.691.281Z" transform="translate(-74.66 -352.96)"/>
      </g>
      <path id="Trazado_1831" data-name="Trazado 1831" class="cls-5" d="M70.334,437.069a7.554,7.554,0,0,1-2.671-.075,16.317,16.317,0,0,1-3.14-.806,13.542,13.542,0,0,1-3.88-2.156,5.352,5.352,0,0,1-1.584-2.137,10.066,10.066,0,0,1-.441-2.9,30.424,30.424,0,0,0-.206-3.14,8.584,8.584,0,0,0-1.172-3.121c-1.125-2.015-3.018-3.918-3.608-6.655s-.159-5.624.309-8.482.937-6.073-.178-9.11-3.13-5.783-4.171-9.2-.525-7.161-.731-10.825a14.246,14.246,0,0,0-1.228-5.389c-.778-1.715-1.874-3.337-2.69-5.146-1.7-3.665-1.978-7.8-2.427-11.856-.216-2.043-.441-4.115-.656-6.2a30.245,30.245,0,0,0-1.05-6.2,53.931,53.931,0,0,0-2.278-6.008,19.682,19.682,0,0,1-1.106-3.14,31.276,31.276,0,0,1-.3-3.337,39.187,39.187,0,0,1,.3-6.7c.272-2.231.694-4.452.937-6.692v-.384l.047-.441.394.2A14.855,14.855,0,0,1,44,321.6a23.8,23.8,0,0,1,3.177,5.923c1.593,4.171,2.146,8.538,2.943,12.7s1.8,8.276,3.908,11.744c1.059,1.734,2.334,3.318,3.449,5a13.843,13.843,0,0,1,2.371,5.53c.544,4.105-1.734,7.695-1.284,11.322a12.644,12.644,0,0,0,1.8,5.033c.872,1.556,1.875,2.99,2.868,4.443a27.826,27.826,0,0,1,2.577,4.48A14.059,14.059,0,0,1,67,392.653c.216,3.271-.262,6.364,0,9.3a21.3,21.3,0,0,0,2.343,7.976c1.153,2.39,2.446,4.555,3.524,6.645a32.812,32.812,0,0,1,1.453,3.1,14.8,14.8,0,0,1,.834,3.065,19.222,19.222,0,0,1,0,5.53,13.918,13.918,0,0,1-2.812,7.039,6.38,6.38,0,0,1-.787.844,3.693,3.693,0,0,1-.637.534l-.553.384a12.322,12.322,0,0,0,1.875-1.874,14.059,14.059,0,0,0,2.671-6.983,19.176,19.176,0,0,0-.094-5.455,14.715,14.715,0,0,0-.844-3c-.4-1-.937-2.015-1.453-3.055-1.1-2.071-2.4-4.227-3.58-6.636a21.725,21.725,0,0,1-2.427-8.117c-.244-2.99.225-6.092,0-9.288a13.638,13.638,0,0,0-1.143-4.686,27.828,27.828,0,0,0-2.549-4.4c-.937-1.443-2.006-2.887-2.905-4.471a13.272,13.272,0,0,1-1.818-5.249c-.441-3.871,1.818-7.5,1.256-11.294a13.121,13.121,0,0,0-2.306-5.267c-1.1-1.659-2.381-3.243-3.468-5.014-2.174-3.571-3.224-7.751-4-11.941s-1.359-8.51-2.924-12.6a23.112,23.112,0,0,0-3.093-5.764,14.293,14.293,0,0,0-4.967-4.246l.45-.253-.047.394c-.262,2.268-.675,4.489-.937,6.692a38.144,38.144,0,0,0-.3,6.607c.056,1.078.122,2.212.281,3.234a20.806,20.806,0,0,0,1.068,3.027,54.626,54.626,0,0,1,2.306,6.073,30.8,30.8,0,0,1,1.04,6.289c.225,2.081.441,4.152.656,6.2.441,4.077.722,8.145,2.352,11.678.815,1.762,1.875,3.383,2.681,5.164a15,15,0,0,1,1.275,5.623c.187,3.749-.319,7.395.675,10.713s3.084,6.055,4.133,9.194.628,6.429.15,9.326-.937,5.755-.356,8.332,2.371,4.5,3.524,6.561a8.894,8.894,0,0,1,1.19,3.243,29.054,29.054,0,0,1,.187,3.177,9.569,9.569,0,0,0,.394,2.812,5.193,5.193,0,0,0,1.49,2.053,13.336,13.336,0,0,0,3.749,2.156,16.469,16.469,0,0,0,3.093.862,13.256,13.256,0,0,0,1.968.206A6.978,6.978,0,0,1,70.334,437.069Z" transform="translate(-37.095 -286.678)"/>
      <path id="Trazado_1832" data-name="Trazado 1832" class="cls-5" d="M40.59,323.15a1.218,1.218,0,0,1,.094.291c.047.234.122.515.206.872.187.769.4,1.921.759,3.365s1.247,3.065,1.987,5.071,1.546,4.293,2.259,6.879,1.368,5.464,2.034,8.538a35.9,35.9,0,0,0,3.046,9.522c.787,1.575,1.668,3.177,2.371,4.921a23.046,23.046,0,0,1,1.368,5.567,113.1,113.1,0,0,0,2.015,11.734c1.874,7.948,3.749,15.521,5.352,22.419s3.205,13.065,4.489,18.286,2.259,9.372,2.971,12.334l.778,3.365c.075.356.141.647.187.881a1.454,1.454,0,0,1,0,.3,1.115,1.115,0,0,1-.1-.291l-.253-.862c-.216-.806-.515-1.921-.937-3.337l-3.168-12.287c-1.312-5.211-2.877-11.4-4.611-18.248S57.948,388,56.026,380.041A111.89,111.89,0,0,1,54.1,368.222a21.959,21.959,0,0,0-1.312-5.436c-.675-1.7-1.546-3.29-2.334-4.883a36.356,36.356,0,0,1-3.027-9.588c-.647-3.084-1.256-5.951-1.949-8.529s-1.425-4.892-2.165-6.879a47.55,47.55,0,0,1-1.875-5.136c-.337-1.49-.506-2.615-.647-3.393-.066-.356-.112-.656-.15-.89A1.209,1.209,0,0,1,40.59,323.15Z" transform="translate(-37.314 -287.066)"/>
      <path id="Trazado_1833" data-name="Trazado 1833" class="cls-7" d="M70.289,435.059c-6.308-3.8-8.06-15.221-5.38-22.082S72.247,399.856,73,392.546c.581-5.623-1.228-11.416.112-16.87,1.818-7.423,9.1-13.121,9.063-20.769,0-4.283-2.437-8.332-2.221-12.615.272-5.249,4.321-9.372,6.842-14,3.861-7.057,4.161-15.427,5.511-23.356s4.424-16.421,11.481-20.282c1,6.748,2.756,11.378,2.146,20.507-.225,3.271-4.068,9.532-4.63,16.711-.328,4.293-.572,8.595-.853,12.9s-.581,8.435-2.1,12.344c-1.162,2.99-3.027,5.7-3.9,8.791-1.64,5.82.441,12.137-.937,18.033-1.125,5-4.611,9.279-5.352,14.34C87.131,395.4,91.7,402.818,89.3,409.6c-1.19,3.365-3.974,6.055-4.78,9.532-.628,2.7,0,5.558-.544,8.267-.937,4.368-9.279,7.714-13.731,7.423" transform="translate(-38.764 -284.65)"/>
      <path id="Trazado_1834" data-name="Trazado 1834" class="cls-5" d="M102.448,291.73a1.975,1.975,0,0,1,0,.384,9.956,9.956,0,0,1-.15,1.106c-.15.937-.319,2.4-.656,4.246s-1.34,3.946-2.118,6.458-1.64,5.408-2.371,8.66-1.359,6.832-2.015,10.694-1.378,8.07-3.318,12.09c-.937,2.015-1.874,4.04-2.662,6.186a28.116,28.116,0,0,0-1.378,6.833,137.028,137.028,0,0,1-1.94,14.734c-2,9.972-3.89,19.476-5.623,28.117L75.38,414.144c-1.4,6.486-2.531,11.744-3.318,15.427-.4,1.79-.712,3.2-.937,4.19l-.253,1.087a2.069,2.069,0,0,1-.112.365,2.219,2.219,0,0,1,0-.375c.056-.281.122-.647.2-1.106.2-1,.469-2.409.825-4.208.74-3.693,1.809-8.969,3.121-15.474s2.934-14.312,4.686-22.934L85.212,363a140.575,140.575,0,0,0,1.94-14.677,28.36,28.36,0,0,1,1.425-6.973c.778-2.193,1.8-4.227,2.7-6.223,1.931-3.955,2.624-8.1,3.327-11.95s1.331-7.5,2.109-10.7,1.612-6.148,2.465-8.66,1.818-4.6,2.2-6.411.59-3.252.778-4.208c.084-.459.159-.815.206-1.1A2.349,2.349,0,0,1,102.448,291.73Z" transform="translate(-39.207 -285.094)"/>
    </g>
    <g id="freepik--Chart--inject-365" transform="translate(378.459 254.141)">
      <rect id="Rectángulo_473" data-name="Rectángulo 473" class="cls-7" width="6.533" height="21.107" transform="translate(0 17.02)"/>
      <rect id="Rectángulo_474" data-name="Rectángulo 474" class="cls-7" width="6.533" height="29.786" transform="translate(12.025 8.332)"/>
      <rect id="Rectángulo_475" data-name="Rectángulo 475" class="cls-7" width="6.533" height="33.844" transform="translate(24.818 4.274)"/>
      <rect id="Rectángulo_476" data-name="Rectángulo 476" class="cls-7" width="6.533" height="38.127" transform="translate(37.621)"/>
    </g>
    <g id="freepik--Gears--inject-365" transform="translate(116.527 245.144)">
      <path id="Trazado_1835" data-name="Trazado 1835" class="cls-5" d="M167.029,316.987a4.5,4.5,0,0,1,1.406.441,6.019,6.019,0,0,1,2.427,8.632,6.12,6.12,0,0,1-2.69,2.315,6.045,6.045,0,0,1-7.039-1.584,5.763,5.763,0,0,1-.937-1.546,5.445,5.445,0,0,1-.459-1.687,6.054,6.054,0,0,1,.459-3.177,5.951,5.951,0,0,1,5.417-3.59,4.34,4.34,0,0,1,1.462.2,6.884,6.884,0,0,0-1.453-.066,5.858,5.858,0,0,0-3.59,1.415,5.745,5.745,0,0,0-1.584,2.156,5.9,5.9,0,0,0-.4,3.027,5.484,5.484,0,0,0,.45,1.593,5.4,5.4,0,0,0,.937,1.462,5.755,5.755,0,0,0,6.654,1.49,5.223,5.223,0,0,0,1.462-.937,5.369,5.369,0,0,0,1.1-1.256,5.858,5.858,0,0,0-2.231-8.341A6.335,6.335,0,0,0,167.029,316.987Z" transform="translate(-125.302 -263.564)"/>
      <path id="Trazado_1836" data-name="Trazado 1836" class="cls-5" d="M171.049,309.88a1.642,1.642,0,0,1,0-.206v-3.14l.047.056-5.408-1.181.094-.047-1.425,3.027v.056h-.066a13.51,13.51,0,0,0-3.524.628H160.7l-.047-.047-2.381-2.353h.028l-4.686,2.98.056-.159,1.125,3.149v.075l-.056.066a13.75,13.75,0,0,0-2.053,2.924v.075h-3.346l.141-.122c-.375,1.7-.787,3.524-1.2,5.4l-.084-.178,3.018,1.434.084.047v.094a14.058,14.058,0,0,0,.609,3.515v.094l-.075.075-2.362,2.371v-.206l2.962,4.686-.2-.075,3.149-1.125h.1l.075.066a13.24,13.24,0,0,0,2.905,2.053h0c.047.066-.084-.15.094.15h0V337.4l-.131-.169,5.4,1.218-.187.094c.478-1.022.937-2.024,1.434-3.027l.047-.084h.1a13.284,13.284,0,0,0,3.505-.609h.1l.066.066,2.371,2.371h-.206l4.686-2.952-.066.178c-.384-1.068-.75-2.118-1.125-3.149v-.084l.066-.075a13.5,13.5,0,0,0,2.062-2.915v-.075h3.43l-.131.112c.431-1.874.834-3.693,1.218-5.408l.075.15-3.018-1.443H178.2v-.075a13.318,13.318,0,0,0-.6-3.524v-.112l2.371-2.371v.131l-2.943-4.686h.094l-3.159,1.1h0a14.719,14.719,0,0,0-2.146-1.65l-.581-.347-.187-.122.206.094.59.319a13.957,13.957,0,0,1,2.193,1.621h-.056l3.14-1.143h.056v.056l2.98,4.686v.066l-.056.066-2.352,2.371v-.112a13.419,13.419,0,0,1,.628,3.59l-.066-.1,3.027,1.425.094.047v.1c-.375,1.706-.778,3.5-1.2,5.4v.112h-3.458l.131-.075a13.74,13.74,0,0,1-2.1,2.98v-.15c.366,1.031.75,2.081,1.125,3.149l.047.122-.112.066-4.686,2.962-.112.075-.094-.094L168.6,335.2h.169a13.609,13.609,0,0,1-3.6.628l.141-.094c-.469.993-.937,2.006-1.434,3.018l-.056.122h-.131l-5.4-1.209h-.131v-3.6h0c.178.3,0,.084.094.15h0a13.589,13.589,0,0,1-2.98-2.1h.169l-3.149,1.115-.131.047-.066-.113-2.962-4.686-.075-.112.094-.094,2.362-2.371v.169a13.908,13.908,0,0,1-.628-3.6l.094.131-2.99-1.387-.112-.056v-.122l1.218-5.4v-.122h3.58l-.122.075a13.578,13.578,0,0,1,2.1-2.971v.141l-1.115-3.159v-.1l.094-.056,4.686-2.952.084-.047.075.066,2.362,2.371h-.112a13.528,13.528,0,0,1,3.58-.609l-.084.056,1.453-3.018v-.066h.066l5.389,1.247h.047v3.121A2.037,2.037,0,0,1,171.049,309.88Z" transform="translate(-124.561 -262.84)"/>
      <path id="Trazado_1837" data-name="Trazado 1837" class="cls-10" d="M160.021,265a15.148,15.148,0,0,1,3.262,2.3l3.487-1.237,3.271,5.164-2.606,2.624a15.269,15.269,0,0,1,.684,3.936l3.337,1.584-1.34,5.942h-3.693a15.184,15.184,0,0,1-2.306,3.262l1.247,3.487-5.174,3.271-2.624-2.521a15.268,15.268,0,0,1-3.927.684l-1.584,3.337-5.97-1.34v-3.693a14.994,14.994,0,0,1-3.262-2.306l-3.487,1.247-3.28-5.174,2.615-2.615a15.408,15.408,0,0,1-.684-3.936l-3.337-1.584,1.331-5.97h3.683a14.924,14.924,0,0,1,2.3-3.262l-1.228-3.505,5.164-3.28,2.624,2.615a15.266,15.266,0,0,1,3.936-.684L154.042,260l5.97,1.34v3.693Zm-5.267,7.029a6.561,6.561,0,1,0,4.11,2.893,6.561,6.561,0,0,0-4.11-2.893Z" transform="translate(-123.731 -260)"/>
      <g id="Grupo_641" data-name="Grupo 641" class="cls-3" transform="translate(10.919)">
        <path id="Trazado_1838" data-name="Trazado 1838" class="cls-11" d="M160.021,265a15.148,15.148,0,0,1,3.262,2.3l3.487-1.237,3.271,5.164-2.606,2.624a15.269,15.269,0,0,1,.684,3.936l3.337,1.584-1.34,5.942h-3.693a15.184,15.184,0,0,1-2.306,3.262l1.247,3.487-5.174,3.271-2.624-2.521a15.268,15.268,0,0,1-3.927.684l-1.584,3.337-5.97-1.34v-3.693a14.994,14.994,0,0,1-3.262-2.306l-3.487,1.247-3.28-5.174,2.615-2.615a15.408,15.408,0,0,1-.684-3.936l-3.337-1.584,1.331-5.97h3.683a14.924,14.924,0,0,1,2.3-3.262l-1.228-3.505,5.164-3.28,2.624,2.615a15.266,15.266,0,0,1,3.936-.684L154.042,260l5.97,1.34v3.693Zm-5.267,7.029a6.561,6.561,0,1,0,4.11,2.893,6.561,6.561,0,0,0-4.11-2.893Z" transform="translate(-134.65 -260)"/>
      </g>
      <path id="Trazado_1839" data-name="Trazado 1839" class="cls-10" d="M137.7,302.673A8.719,8.719,0,0,1,139.571,304l2.034-.722,1.874,3.009-1.518,1.528a8.868,8.868,0,0,1,.4,2.287l1.94.937-.684,3.468h-2.156a8.866,8.866,0,0,1-1.331,1.875l.722,2.024-3.018,1.875-1.518-1.518a9,9,0,0,1-2.3.394l-.937,1.949-3.477-.787v-2.146a8.587,8.587,0,0,1-1.875-1.34l-2.034.722-1.875-3.009,1.518-1.528a8.858,8.858,0,0,1-.394-2.287L123,309.8l.778-3.477h2.034a9.044,9.044,0,0,1,1.34-1.875l-.722-2.024,3.009-1.875,1.528,1.528a8.476,8.476,0,0,1,2.287-.4l.937-1.94,3.477.778v2.156Zm-3.065,4.086a3.824,3.824,0,1,0,2.887,4.564,3.824,3.824,0,0,0-2.887-4.564Z" transform="translate(-123 -262.493)"/>
      <g id="Grupo_642" data-name="Grupo 642" class="cls-12" transform="translate(0 37.237)">
        <path id="Trazado_1840" data-name="Trazado 1840" class="cls-11" d="M137.7,302.673A8.719,8.719,0,0,1,139.571,304l2.034-.722,1.874,3.009-1.518,1.528a8.868,8.868,0,0,1,.4,2.287l1.94.937-.684,3.468h-2.156a8.866,8.866,0,0,1-1.331,1.875l.722,2.024-3.018,1.875-1.518-1.518a9,9,0,0,1-2.3.394l-.937,1.949-3.477-.787v-2.146a8.587,8.587,0,0,1-1.875-1.34l-2.034.722-1.875-3.009,1.518-1.528a8.858,8.858,0,0,1-.394-2.287L123,309.8l.778-3.477h2.034a9.044,9.044,0,0,1,1.34-1.875l-.722-2.024,3.009-1.875,1.528,1.528a8.476,8.476,0,0,1,2.287-.4l.937-1.94,3.477.778v2.156Zm-3.065,4.086a3.824,3.824,0,1,0,2.887,4.564,3.824,3.824,0,0,0-2.887-4.564Z" transform="translate(-123 -299.73)"/>
      </g>
    </g>
    <g id="freepik--Character--inject-365" transform="translate(161.712 190.263)">
      <path id="Trazado_1841" data-name="Trazado 1841" class="cls-5" d="M359.225,263.165a9.166,9.166,0,0,0,6.626-9.138c-.112-1.874-.8-3.618-.722-5.455.122-2.812,2.015-5.258,3.44-7.732s2.371-5.727.712-8.051c-1.068-1.509-2.971-2.184-4.274-3.5a13.792,13.792,0,0,1-2.568-4.742c-.694-1.678-1.565-3.412-3.14-4.3s-3.983-.506-4.63,1.19" transform="translate(-182.723 -202.595)"/>
      <path id="Trazado_1842" data-name="Trazado 1842" class="cls-5" d="M337.638,215.78c2.812-1.79,3.487-5.923,1.959-8.876s-4.752-4.752-8.032-5.286a15.315,15.315,0,0,0-13.187,4.368c-1.809,1.875-3.28,4.3-5.736,5.155-2.156.759-4.546.075-6.814.375a10.31,10.31,0,0,0-7.207,5.192,22.155,22.155,0,0,0-2.559,8.763c-.328,2.812-.553,5.858-2.484,7.892s-4.883,2.409-7.226,3.824a9.9,9.9,0,0,0-2.943,13.515c.937,1.35,2.268,2.6,2.371,4.236s-.862,2.812-1.322,4.274a6.673,6.673,0,0,0,5.717,8.285c1.949.113,4.03-.647,5.783.225s2.381,2.962,3.487,4.555a8.37,8.37,0,0,0,10.188,2.624c1.434-.7,2.812-1.874,4.377-1.753s2.812,1.462,4.405,1.762c2.053.394,3.993-1.115,5.211-2.812s2.071-3.693,3.627-5.08c2.043-1.818,4.911-2.259,7.5-3.149a21.135,21.135,0,0,0,11.912-29.6" transform="translate(-178.156 -201.444)"/>
      <path id="Trazado_1843" data-name="Trazado 1843" class="cls-13" d="M345.485,220.26a4.489,4.489,0,0,1,4,4.564h0l-2.681,60.612c-.112,7.161-10.572,11.181-18.239,11h0c-7.742-.178-7.985-3.974-8.088-10.788-.159-11.378-.141-15.652-.15-15.586s-9.775-1.64-11.772-14.405c-.993-6.355-.656-16.758-.1-25.259.506-7.657,5.624-17.039,13.225-16.214Z" transform="translate(-179.789 -202.241)"/>
      <path id="Trazado_1844" data-name="Trazado 1844" class="cls-5" d="M311.44,240.2a1.65,1.65,0,0,0,1.575,1.659,1.565,1.565,0,0,0,1.687-1.471,1.631,1.631,0,0,0-1.565-1.659,1.575,1.575,0,0,0-1.7,1.472Z" transform="translate(-180.01 -203.784)"/>
      <path id="Trazado_1845" data-name="Trazado 1845" class="cls-5" d="M310.838,237.155c.206.216,1.443-.7,3.205-.694s3.046.89,3.243.675-.112-.478-.675-.89a4.49,4.49,0,0,0-2.6-.806,4.283,4.283,0,0,0-2.549.815C310.923,236.668,310.735,237.061,310.838,237.155Z" transform="translate(-179.971 -203.578)"/>
      <path id="Trazado_1846" data-name="Trazado 1846" class="cls-5" d="M330.17,240.2a1.65,1.65,0,0,0,1.575,1.659,1.565,1.565,0,0,0,1.687-1.471,1.631,1.631,0,0,0-1.575-1.659,1.565,1.565,0,0,0-1.687,1.471Z" transform="translate(-181.185 -203.784)"/>
      <path id="Trazado_1847" data-name="Trazado 1847" class="cls-5" d="M329.308,237.545c.206.216,1.443-.7,3.205-.694s3.046.937,3.243.675-.112-.478-.675-.89a4.489,4.489,0,0,0-2.6-.806,4.349,4.349,0,0,0-2.549.815C329.393,237.067,329.205,237.451,329.308,237.545Z" transform="translate(-181.13 -203.602)"/>
      <path id="Trazado_1848" data-name="Trazado 1848" class="cls-5" d="M322.164,250.6a11.613,11.613,0,0,0-2.812-.525c-.45-.047-.881-.141-.937-.44a2.259,2.259,0,0,1,.309-1.331c.422-1.087.872-2.231,1.331-3.421,1.874-4.874,3.205-8.885,3.008-8.951s-1.874,3.815-3.749,8.679c-.441,1.209-.872,2.352-1.275,3.449a2.568,2.568,0,0,0-.244,1.762,1.116,1.116,0,0,0,.74.656,3.1,3.1,0,0,0,.769.112,11.6,11.6,0,0,0,2.859.009Z" transform="translate(-180.405 -203.608)"/>
      <path id="Trazado_1849" data-name="Trazado 1849" class="cls-14" d="M321.11,273.508a32.5,32.5,0,0,0,17.1-4.508s-4.33,9-17.1,7.77Z" transform="translate(-180.617 -205.684)"/>
      <path id="Trazado_1850" data-name="Trazado 1850" class="cls-7" d="M323.226,256.03a3.187,3.187,0,0,1,2.812-1.172,2.858,2.858,0,0,1,2,1.078,1.874,1.874,0,0,1,.141,2.1,2.156,2.156,0,0,1-2.315.581,6.861,6.861,0,0,1-2.249-1.35,2.191,2.191,0,0,1-.5-.525.59.59,0,0,1,0-.656" transform="translate(-180.736 -204.795)"/>
      <path id="Trazado_1851" data-name="Trazado 1851" class="cls-5" d="M327.623,252.89c-.291,0-.3,1.875-1.94,3.252s-3.674,1.134-3.683,1.406c0,.112.45.366,1.312.394a4.686,4.686,0,0,0,3.074-1.069,4.124,4.124,0,0,0,1.5-2.718C327.952,253.359,327.736,252.881,327.623,252.89Z" transform="translate(-180.673 -204.673)"/>
      <path id="Trazado_1852" data-name="Trazado 1852" class="cls-5" d="M328.469,234.282c.169.478,1.931.253,3.993.506s3.749.825,4.011.394c.131-.206-.159-.656-.834-1.125a7.057,7.057,0,0,0-6.1-.684C328.779,233.673,328.394,234.057,328.469,234.282Z" transform="translate(-181.078 -203.423)"/>
      <path id="Trazado_1853" data-name="Trazado 1853" class="cls-5" d="M311.537,231.71c.309.4,1.528,0,2.98,0s2.7.272,2.98-.141c.131-.206-.066-.609-.609-.984a4.283,4.283,0,0,0-4.8.141C311.575,231.1,311.406,231.513,311.537,231.71Z" transform="translate(-180.013 -203.231)"/>
      <path id="Trazado_1854" data-name="Trazado 1854" class="cls-5" d="M338.825,216.09a12.4,12.4,0,0,1,10.113-1.874c3.4.937,6.223,4.049,6.345,7.5.075,2.249-.937,4.686.1,6.683s3.29,2.718,4.958,4.124a7.61,7.61,0,0,1,1.762,9.2c-1.4,2.559-4.321,4.433-4.564,7.32-.234,2.718,2.053,5.014,2.615,7.685.609,2.943-1.022,5.989-3.355,7.948s-5.3,3.037-8.182,4.068c-2.249.815-4.686,1.64-7,1.106a7.17,7.17,0,0,1-5.249-5.98,9.757,9.757,0,0,1,2.652-7.7c1.64-1.809,3.946-3.337,4.339-5.727.609-3.749-3.815-6.758-3.543-10.507.141-1.931,1.509-3.533,2.643-5.127s2.128-3.59,1.425-5.4c-.937-2.362-4-2.98-5.877-4.686a5.727,5.727,0,0,1-1.565-5.8,5.9,5.9,0,0,1,4.63-3.946" transform="translate(-181.564 -202.222)"/>
      <path id="Trazado_1855" data-name="Trazado 1855" class="cls-5" d="M337.852,212.919a8.726,8.726,0,0,1-10.31,8.623c-1.949-.356-4.086-1.34-5.773-.3s-1.875,3.749-3.421,5.127c-2.249,1.959-5.82.122-8.679.937-2.2.656-3.58,2.756-5.052,4.536s-3.655,3.458-5.867,2.812a25.891,25.891,0,0,1,.881-5.886,8.707,8.707,0,0,1,3.337-4.789,32.186,32.186,0,0,0,2.812-1.65c1.875-1.471,2.259-4.049,3.383-6.111a9.579,9.579,0,0,1,7.292-4.836c2.512-.253,5.1.5,7.5-.122,1.809-.45,3.393-1.621,5.22-1.978,3.571-.675,6.889,1.874,9.476,4.433" transform="translate(-179.214 -201.929)"/>
      <path id="Trazado_1856" data-name="Trazado 1856" class="cls-15" d="M363.885,243.865a2.68,2.68,0,0,0,.291-1.471,3.749,3.749,0,0,0-2.577-2.952,19.116,19.116,0,0,0-2.812-.759,8.163,8.163,0,0,1-3.177-1.312,4.443,4.443,0,0,1-1.65-3.412,33.91,33.91,0,0,1,.2-4.011,9.092,9.092,0,0,0-.1-1.968,4.2,4.2,0,0,0-.75-1.678,6.43,6.43,0,0,0-3.074-1.762,13.316,13.316,0,0,1-3.13-1.35,10.438,10.438,0,0,1-2.306-1.874,10.722,10.722,0,0,1-2.249-3.637,6.566,6.566,0,0,1-.328-1.115c-.056-.262-.075-.394-.056-.4s.169.534.553,1.453a11.35,11.35,0,0,0,7.657,6.514,6.757,6.757,0,0,1,3.3,1.875,4.687,4.687,0,0,1,.862,1.874,9.663,9.663,0,0,1,.112,2.081,36.759,36.759,0,0,0-.206,3.965,4,4,0,0,0,1.453,3.093,7.9,7.9,0,0,0,2.99,1.265,18.479,18.479,0,0,1,2.812.834,4.555,4.555,0,0,1,1.987,1.481,3.457,3.457,0,0,1,.647,1.753,2.3,2.3,0,0,1-.234,1.162C364.007,243.771,363.894,243.874,363.885,243.865Z" transform="translate(-181.937 -202.368)"/>
      <path id="Trazado_1857" data-name="Trazado 1857" class="cls-15" d="M285.089,251.085l-.216-.1a1.509,1.509,0,0,1-.478-.478,2.577,2.577,0,0,1,.262-2.521,3.308,3.308,0,0,1,1.368-1.312,17.552,17.552,0,0,1,2.053-.862,6.4,6.4,0,0,0,2.146-1.218,4.686,4.686,0,0,0,1.228-2.418c.206-.937.272-2.006.45-3.093a6.738,6.738,0,0,1,1.265-3.224c1.481-1.949,3.918-2.99,5.736-4.827a8.96,8.96,0,0,0,2-3.383,23.581,23.581,0,0,0,.937-4.086c.394-2.812.8-5.942,2.68-8.51a6.186,6.186,0,0,1,3.852-2.484,13.533,13.533,0,0,1,4.442.1,15.7,15.7,0,0,0,4.152.244,5.4,5.4,0,0,0,3.393-1.753c1.743-1.874,2.737-4.405,4.883-5.7a8.154,8.154,0,0,1,6.448-.89,7.161,7.161,0,0,1,4.236,3.3,8,8,0,0,1,1.106,3.936,6.983,6.983,0,0,1-.4,2.549,4.157,4.157,0,0,1-.384.825s.112-.291.291-.853a7.5,7.5,0,0,0,.309-2.512,7.966,7.966,0,0,0-1.143-3.805,6.889,6.889,0,0,0-4.105-3.1,7.8,7.8,0,0,0-6.139.937,8.987,8.987,0,0,0-2.465,2.54,29.306,29.306,0,0,1-2.306,3.121,6.455,6.455,0,0,1-1.631,1.284,6.186,6.186,0,0,1-2.034.628,16.365,16.365,0,0,1-4.274-.234,13.123,13.123,0,0,0-4.283-.112,5.764,5.764,0,0,0-3.552,2.306,11.836,11.836,0,0,0-1.828,4,39.653,39.653,0,0,0-.778,4.293,23.514,23.514,0,0,1-.937,4.161,9.25,9.25,0,0,1-2.118,3.543c-1.921,1.874-4.33,2.924-5.736,4.771a6.459,6.459,0,0,0-1.218,3.027c-.178,1.068-.253,2.118-.487,3.112a4.845,4.845,0,0,1-1.35,2.568A6.56,6.56,0,0,1,288.2,246.1a17.822,17.822,0,0,0-2.043.815,3.215,3.215,0,0,0-1.312,1.2,2.54,2.54,0,0,0-.337,2.381,2.2,2.2,0,0,0,.581.59Z" transform="translate(-178.299 -201.621)"/>
      <path id="Trazado_1858" data-name="Trazado 1858" class="cls-7" d="M251.375,344.809l22.635-2.071s13.927-36.693,31.1-45.588l11.125,19.429-23.815,44.735H245.93Z" transform="translate(-175.899 -207.45)"/>
      <path id="Trazado_1859" data-name="Trazado 1859" class="cls-16" d="M251.375,344.809l22.635-2.071s13.927-36.693,31.1-45.588l11.125,19.429-23.815,44.735H245.93Z" transform="translate(-175.899 -207.45)"/>
      <path id="Trazado_1860" data-name="Trazado 1860" class="cls-9" d="M261.28,358.526a33.879,33.879,0,0,1,4.236-7.086A35.693,35.693,0,0,1,261.28,358.526Z" transform="translate(-176.862 -210.857)"/>
      <path id="Trazado_1861" data-name="Trazado 1861" class="cls-9" d="M278.045,358.1a34.877,34.877,0,0,1-5.155-6.4,16.3,16.3,0,0,1,2.765,3.046,17.808,17.808,0,0,1,2.39,3.355Z" transform="translate(-177.591 -210.873)"/>
      <path id="Trazado_1862" data-name="Trazado 1862" class="cls-9" d="M281.344,349.162a18.23,18.23,0,0,1,0-5.942,18.232,18.232,0,0,1,0,5.942Z" transform="translate(-178.106 -210.341)"/>
      <path id="Trazado_1863" data-name="Trazado 1863" class="cls-9" d="M272.589,363.372a6.016,6.016,0,0,1-2.165-1.115c-1.125-.74-1.968-1.425-1.875-1.537a6.336,6.336,0,0,1,2.165,1.125C271.783,362.576,272.664,363.26,272.589,363.372Z" transform="translate(-177.318 -211.439)"/>
      <path id="Trazado_1864" data-name="Trazado 1864" class="cls-9" d="M286.491,327.57a20.071,20.071,0,0,1-1.565,4.086,19.782,19.782,0,0,1-2.006,3.89,19.068,19.068,0,0,1,1.556-4.086,20.106,20.106,0,0,1,2.015-3.89Z" transform="translate(-178.22 -209.359)"/>
      <path id="Trazado_1865" data-name="Trazado 1865" class="cls-9" d="M296.257,311.71c.075.1-.731.853-1.809,1.678a6.42,6.42,0,0,1-2.109,1.284c-.075-.112.731-.862,1.809-1.678A6.232,6.232,0,0,1,296.257,311.71Z" transform="translate(-178.811 -208.364)"/>
      <path id="Trazado_1866" data-name="Trazado 1866" class="cls-7" d="M332.64,358.5l11.678-47.153a16.027,16.027,0,0,1,18.408-11.931h0a16.055,16.055,0,0,1,13.009,18.248l-7.142,46.084a23.056,23.056,0,0,1-19.139,18.679l-9.279,1.443Z" transform="translate(-181.34 -207.576)"/>
      <path id="Trazado_1867" data-name="Trazado 1867" class="cls-5" d="M370.344,295.99a10.628,10.628,0,0,0-4.171-2.09,11.088,11.088,0,0,0-5.024,0,13.6,13.6,0,0,0-5.464,2.812,26.529,26.529,0,0,0-6.561,9.2c-.628,1.322-1.106,2.409-1.443,3.159a7.106,7.106,0,0,1-.572,1.153,6.662,6.662,0,0,1,.394-1.218c.291-.778.712-1.874,1.3-3.243a37.423,37.423,0,0,1,2.4-4.6,20.537,20.537,0,0,1,4.152-4.827,13.684,13.684,0,0,1,5.67-2.915,11.125,11.125,0,0,1,5.211.066,8.95,8.95,0,0,1,3.168,1.528,5.768,5.768,0,0,1,.7.647A2.761,2.761,0,0,1,370.344,295.99Z" transform="translate(-182.249 -207.199)"/>
      <path id="Trazado_1868" data-name="Trazado 1868" class="cls-5" d="M300.3,307.5a2.492,2.492,0,0,1-.328.441l-.993,1.2c-.872,1.04-2.1,2.559-3.505,4.517a48.3,48.3,0,0,0-7.976,16.927c-1.621,7.189-1.706,13.918-1.978,18.745-.122,2.418-.234,4.377-.337,5.727-.056.637-.1,1.153-.141,1.556a3.669,3.669,0,0,1-.075.544,1.874,1.874,0,0,1,0-.544c0-.412,0-.937.047-1.565,0-1.415.1-3.355.178-5.727.187-4.818.206-11.575,1.874-18.839a46.564,46.564,0,0,1,8.163-17.011c1.453-1.949,2.727-3.449,3.637-4.452.45-.506.825-.881,1.069-1.134a2.952,2.952,0,0,1,.365-.384Z" transform="translate(-178.348 -208.1)"/>
      <path id="Trazado_1869" data-name="Trazado 1869" class="cls-7" d="M375.061,305.423c-1.284-8.435-5.933-10.45-10.76-13.075-1.575-.862-9.176-2.812-15.2-4.283-.581-3.646-1.612-10.188-1.875-11.566-.319-1.94-30.7,2.905-31.088,3.637-.253.478-.937,8.051-1.4,13.121l-7.273,2.54-9.457,12.072-4.939,7.011a37.715,37.715,0,0,0-6.12,13.478,73.35,73.35,0,0,0-1.359,16.327l-1.471,30.929,63.62,17.976,4.874-31.36,16.4-22.325C370.412,330.879,376.636,315.789,375.061,305.423Z" transform="translate(-178.296 -206.126)"/>
      <path id="Trazado_1870" data-name="Trazado 1870" class="cls-5" d="M323.154,294.442a9.572,9.572,0,0,1-.422-2.146c-.2-1.331-.44-3.177-.675-5.22-.113-1.012-.216-1.978-.319-2.887a23.415,23.415,0,0,1-.169-2.381,2.811,2.811,0,0,1,.459-1.584c.244-.319.45-.4.469-.384s-.141.169-.309.487a3.066,3.066,0,0,0-.272,1.481c0,.656.169,1.443.272,2.334s.225,1.875.356,2.877c.234,2.043.422,3.9.534,5.239A9.524,9.524,0,0,1,323.154,294.442Z" transform="translate(-180.646 -206.364)"/>
      <path id="Trazado_1871" data-name="Trazado 1871" class="cls-5" d="M331.8,292.444a7.444,7.444,0,0,1-.675-1.968,31.063,31.063,0,0,1-.937-9.954,7.648,7.648,0,0,1,.3-2.053c.15,0-.122,3.159.244,7.02S331.947,292.407,331.8,292.444Z" transform="translate(-181.182 -206.278)"/>
      <path id="Trazado_1872" data-name="Trazado 1872" class="cls-5" d="M347.841,290.087a32.546,32.546,0,0,0-.178-6.992,31.073,31.073,0,0,0-2.193-6.645,6.1,6.1,0,0,1,1.115,1.771,17.808,17.808,0,0,1,1.706,9.832A6.747,6.747,0,0,1,347.841,290.087Z" transform="translate(-182.145 -206.151)"/>
      <path id="Trazado_1873" data-name="Trazado 1873" class="cls-9" d="M302,319.962a29.051,29.051,0,0,1,5.577-7.432Q304.971,316.38,302,319.962Z" transform="translate(-179.418 -208.415)"/>
      <path id="Trazado_1874" data-name="Trazado 1874" class="cls-9" d="M316.916,307.591a30,30,0,0,1-4.686-6.111,16.064,16.064,0,0,1,2.521,2.905A15.424,15.424,0,0,1,316.916,307.591Z" transform="translate(-180.06 -207.722)"/>
      <path id="Trazado_1875" data-name="Trazado 1875" class="cls-9" d="M332.782,300.22a26.892,26.892,0,0,1-2.99,3.027,28.3,28.3,0,0,1-3.1,2.915,14.4,14.4,0,0,1,2.765-3.262A14.06,14.06,0,0,1,332.782,300.22Z" transform="translate(-180.967 -207.643)"/>
      <path id="Trazado_1876" data-name="Trazado 1876" class="cls-9" d="M328.419,290.436a8.752,8.752,0,0,1-2.334-1.781,9.184,9.184,0,0,1-2.015-2.156,9.313,9.313,0,0,1,2.343,1.79,9.034,9.034,0,0,1,2.006,2.146Z" transform="translate(-180.803 -206.782)"/>
      <path id="Trazado_1877" data-name="Trazado 1877" class="cls-9" d="M342.271,283.24a11.079,11.079,0,0,1-3.158.937,11.455,11.455,0,0,1-3.252.45,11.3,11.3,0,0,1,3.149-.937,11.5,11.5,0,0,1,3.262-.45Z" transform="translate(-181.543 -206.577)"/>
      <path id="Trazado_1878" data-name="Trazado 1878" class="cls-9" d="M345.467,304.951a11.012,11.012,0,0,1-.412-3.271,11.379,11.379,0,0,1,.075-3.29,11.014,11.014,0,0,1,.412,3.271,11.381,11.381,0,0,1-.075,3.29Z" transform="translate(-182.114 -207.528)"/>
      <path id="Trazado_1879" data-name="Trazado 1879" class="cls-9" d="M340.21,315.484a17.528,17.528,0,0,1-1.65-3.749,18.088,18.088,0,0,1-1.181-3.965,35.783,35.783,0,0,1,2.812,7.751Z" transform="translate(-181.638 -208.117)"/>
      <path id="Trazado_1880" data-name="Trazado 1880" class="cls-9" d="M326.329,323.007a19.436,19.436,0,0,1-1.8-3.965,19.047,19.047,0,0,1-1.35-4.152,20.306,20.306,0,0,1,1.8,3.974,19.879,19.879,0,0,1,1.35,4.143Z" transform="translate(-180.747 -208.563)"/>
      <path id="Trazado_1881" data-name="Trazado 1881" class="cls-9" d="M313.391,331.528a33.282,33.282,0,0,1-1.631-7.948,17.117,17.117,0,0,1,1.05,3.927A17.3,17.3,0,0,1,313.391,331.528Z" transform="translate(-180.03 -209.109)"/>
      <path id="Trazado_1882" data-name="Trazado 1882" class="cls-9" d="M297.767,331.921a33.3,33.3,0,0,1-3.487-7.161A33.3,33.3,0,0,1,297.767,331.921Z" transform="translate(-178.933 -209.183)"/>
      <path id="Trazado_1883" data-name="Trazado 1883" class="cls-9" d="M297.145,342.34a20.876,20.876,0,0,1-3.805,2.146,19.537,19.537,0,0,1-4.03,1.715,19.871,19.871,0,0,1,3.815-2.156,19.606,19.606,0,0,1,4.021-1.706Z" transform="translate(-178.621 -210.286)"/>
      <path id="Trazado_1884" data-name="Trazado 1884" class="cls-9" d="M297.734,357.589a10.562,10.562,0,0,1-1.321-3.421,10.448,10.448,0,0,1-.553-3.608,19.218,19.218,0,0,1,1.022,3.487,19.5,19.5,0,0,1,.853,3.543Z" transform="translate(-179.032 -210.802)"/>
      <path id="Trazado_1885" data-name="Trazado 1885" class="cls-9" d="M294.263,368.746a16.947,16.947,0,0,1-3.055-2.474,15.43,15.43,0,0,1-2.727-2.812,16.94,16.94,0,0,1,3.055,2.474,15.424,15.424,0,0,1,2.727,2.812Z" transform="translate(-178.569 -211.611)"/>
      <path id="Trazado_1886" data-name="Trazado 1886" class="cls-9" d="M314.458,361.56c0,.141-2.118.759-4.63,1.875s-4.424,2.259-4.508,2.137a14.845,14.845,0,0,1,4.311-2.587,14.613,14.613,0,0,1,4.827-1.425Z" transform="translate(-179.626 -211.492)"/>
      <path id="Trazado_1887" data-name="Trazado 1887" class="cls-9" d="M308.945,355.65a12.846,12.846,0,0,1-1.378-3.215,12.5,12.5,0,0,1-.937-3.365A12.671,12.671,0,0,1,308,352.275a12.344,12.344,0,0,1,.947,3.374Z" transform="translate(-179.708 -210.708)"/>
      <path id="Trazado_1888" data-name="Trazado 1888" class="cls-9" d="M320.839,342.57a27.342,27.342,0,0,1-2.559,4.527,28.211,28.211,0,0,1-2.98,4.311,56.235,56.235,0,0,1,5.539-8.791Z" transform="translate(-180.252 -210.3)"/>
      <path id="Trazado_1889" data-name="Trazado 1889" class="cls-9" d="M333.868,343.257A18.877,18.877,0,0,1,330.747,339a19.307,19.307,0,0,1-2.287-4.752c.131-.056,1.218,2.024,2.709,4.508S333.98,343.182,333.868,343.257Z" transform="translate(-181.078 -209.778)"/>
      <path id="Trazado_1890" data-name="Trazado 1890" class="cls-9" d="M341.519,331a9.279,9.279,0,0,1-3.571.637,9.373,9.373,0,0,1-3.608-.281,24.041,24.041,0,0,1,3.59-.206,25.023,25.023,0,0,1,3.59-.15Z" transform="translate(-181.447 -209.574)"/>
      <path id="Trazado_1891" data-name="Trazado 1891" class="cls-9" d="M359.9,316.39a54.476,54.476,0,0,1-9.372,4.48,56.374,56.374,0,0,1,9.372-4.48Z" transform="translate(-182.463 -208.657)"/>
      <path id="Trazado_1892" data-name="Trazado 1892" class="cls-9" d="M361.76,306.588a36.294,36.294,0,0,1,3.749-7.5,17.805,17.805,0,0,1-1.649,3.852A18.506,18.506,0,0,1,361.76,306.588Z" transform="translate(-183.168 -207.572)"/>
      <path id="Trazado_1893" data-name="Trazado 1893" class="cls-9" d="M373.341,313.816a31.269,31.269,0,0,1-1.425-4.264,31,31,0,0,1-1.256-4.311,25.145,25.145,0,0,1,2.68,8.576Z" transform="translate(-183.726 -207.958)"/>
      <path id="Trazado_1894" data-name="Trazado 1894" class="cls-9" d="M374.8,324.07a14.611,14.611,0,0,1-4.115,1.5,14.143,14.143,0,0,1-4.33.665,31.722,31.722,0,0,1,4.208-1.134A32.077,32.077,0,0,1,374.8,324.07Z" transform="translate(-183.456 -209.139)"/>
      <path id="Trazado_1895" data-name="Trazado 1895" class="cls-9" d="M355.208,335.2c-.141,0,.262-2.306.375-5.146s-.075-5.145.066-5.164a15.428,15.428,0,0,1,.422,5.183,15.211,15.211,0,0,1-.862,5.127Z" transform="translate(-182.755 -209.191)"/>
      <path id="Trazado_1896" data-name="Trazado 1896" class="cls-9" d="M350.782,347.568a23.066,23.066,0,0,1-6.092-7.348c.122-.075,1.359,1.659,3.046,3.683a45,45,0,0,1,3.046,3.665Z" transform="translate(-182.097 -210.153)"/>
      <path id="Trazado_1897" data-name="Trazado 1897" class="cls-9" d="M370.864,345.488a18.989,18.989,0,0,1-3.908,1.875,19.807,19.807,0,0,1-4.1,1.443,39.423,39.423,0,0,1,8-3.346Z" transform="translate(-183.237 -210.482)"/>
      <path id="Trazado_1898" data-name="Trazado 1898" class="cls-9" d="M364.147,367.7a55.724,55.724,0,0,1,.1-10.31,53.617,53.617,0,0,1-.1,10.31Z" transform="translate(-183.306 -211.23)"/>
      <path id="Trazado_1899" data-name="Trazado 1899" class="cls-9" d="M348.65,366.375a29.993,29.993,0,0,1,2.6-10.375c.131.047-.581,2.324-1.293,5.183S348.791,366.4,348.65,366.375Z" transform="translate(-182.345 -211.143)"/>
      <path id="Trazado_1900" data-name="Trazado 1900" class="cls-9" d="M348.667,373.077c0,.141-2.324.366-5.174.844a51.56,51.56,0,0,1-5.174.862,19.1,19.1,0,0,1,5.089-1.35,18.661,18.661,0,0,1,5.258-.356Z" transform="translate(-181.697 -212.212)"/>
      <path id="Trazado_1901" data-name="Trazado 1901" class="cls-9" d="M332.2,368.82a19.362,19.362,0,0,1,2.812-3.233,18.45,18.45,0,0,1,3.13-2.887,19.361,19.361,0,0,1-2.812,3.234,18.868,18.868,0,0,1-3.13,2.887Z" transform="translate(-181.313 -211.564)"/>
      <path id="Trazado_1902" data-name="Trazado 1902" class="cls-9" d="M320.917,379.51a31.645,31.645,0,0,1-1.265-3.665,33.14,33.14,0,0,1-1.312-3.655A15,15,0,0,1,320.917,379.51Z" transform="translate(-180.443 -212.159)"/>
      <path id="Trazado_1903" data-name="Trazado 1903" class="cls-9" d="M338.383,385.946a51.842,51.842,0,0,1-9.213-4.086,26.42,26.42,0,0,1,4.686,1.818A27.377,27.377,0,0,1,338.383,385.946Z" transform="translate(-181.123 -212.766)"/>
      <path id="Trazado_1904" data-name="Trazado 1904" class="cls-9" d="M307.76,383.961a12.652,12.652,0,0,1,.881-3.43,13.049,13.049,0,0,1,1.34-3.271,12.739,12.739,0,0,1-.881,3.43,13.674,13.674,0,0,1-1.34,3.271Z" transform="translate(-179.779 -212.477)"/>
      <path id="Trazado_1905" data-name="Trazado 1905" class="cls-9" d="M327.555,387.83c0,.141-2.69-.291-6.008-.459s-6.008,0-6.017-.187a21.34,21.34,0,0,1,6.045-.3A21.08,21.08,0,0,1,327.555,387.83Z" transform="translate(-180.267 -213.076)"/>
      <path id="Trazado_1906" data-name="Trazado 1906" class="cls-5" d="M332.639,355.863a1.321,1.321,0,0,1,0-.375,3.463,3.463,0,0,1,.159-1.059,2.324,2.324,0,0,1,1.012-1.4,3.271,3.271,0,0,1,2.287-.375l-.187.113c1.022-3.6,2.662-8.848,4.3-14.734,1.537-5.511,2.577-10.582,3.3-14.265.356-1.771.637-3.243.862-4.358a11.615,11.615,0,0,1,.366-1.584,9.272,9.272,0,0,1-.178,1.621c-.15,1.04-.394,2.54-.712,4.386a144.184,144.184,0,0,1-3.168,14.33c-1.64,5.9-3.337,11.125-4.461,14.7l-.047.141h-.141a3.009,3.009,0,0,0-2.09.281,2.249,2.249,0,0,0-.984,1.228A11.016,11.016,0,0,0,332.639,355.863Z" transform="translate(-181.34 -208.748)"/>
      <path id="Trazado_1907" data-name="Trazado 1907" class="cls-5" d="M353.861,371.231c-.075,0-.656-1.237-1.875-3.13a32.342,32.342,0,0,0-12.747-11.584c-2-1-3.318-1.462-3.29-1.546a4.572,4.572,0,0,1,.937.253,20.978,20.978,0,0,1,2.484.984,29.262,29.262,0,0,1,12.9,11.716,21.22,21.22,0,0,1,1.209,2.381A3.129,3.129,0,0,1,353.861,371.231Z" transform="translate(-181.548 -211.078)"/>
      <g id="Grupo_643" data-name="Grupo 643" class="cls-17" transform="translate(154.702 143.207)">
        <path id="Trazado_1908" data-name="Trazado 1908" d="M336.532,354.24a32.674,32.674,0,0,1,9.879,1.79c3.365,1.256,6.476,3.674,7.714,7.048a2.3,2.3,0,0,1-.178,2.427,1.724,1.724,0,0,1-1.771.291,4.62,4.62,0,0,1-1.556-1.068c-2.062-1.875-4.208-3.6-6.336-5.436s-5.239-3.749-8.013-4.189" transform="translate(-336.27 -354.24)"/>
      </g>
      <path id="Trazado_1909" data-name="Trazado 1909" class="cls-5" d="M327.649,347.422a4.261,4.261,0,0,1-.937.562,16.376,16.376,0,0,1-2.877,1.087,19.223,19.223,0,0,1-18.876-4.9,17.158,17.158,0,0,1-1.987-2.353,4.2,4.2,0,0,1-.581-.937c.075-.056.937,1.312,2.812,3.074a19.879,19.879,0,0,0,18.539,4.817C326.187,348.115,327.6,347.328,327.649,347.422Z" transform="translate(-179.442 -210.194)"/>
      <g id="Grupo_644" data-name="Grupo 644" class="cls-17" transform="translate(123.407 131.379)">
        <path id="Trazado_1910" data-name="Trazado 1910" d="M302.88,341.62c1.584,3.43,3.43,6.889,6.43,9.194a10.31,10.31,0,0,0,5.914,2.474c3.13.056,5.82-2.081,8.21-4.105-7.742,1.218-16.458-2.3-20.554-7.564" transform="translate(-302.88 -341.62)"/>
      </g>
      <path id="Trazado_1911" data-name="Trazado 1911" class="cls-5" d="M339.767,291.667c-.15,0,0-3.224-.356-7.151s-1.153-7.048-1.012-7.086a7.543,7.543,0,0,1,.647,2.015,34.427,34.427,0,0,1,.844,5.024,35.117,35.117,0,0,1,.131,5.1,8.071,8.071,0,0,1-.253,2.1Z" transform="translate(-181.701 -206.213)"/>
      <path id="Trazado_1912" data-name="Trazado 1912" class="cls-7" d="M218.1,426.44s-10.188,2.2-19.279.834c-8.529-1.275-27.621.047-27.611,11.247,0,12.531,25.465,9.438,35.39,7.451s19.823-3.749,19.823-3.749Z" transform="translate(-171.21 -215.564)"/>
      <path id="Trazado_1913" data-name="Trazado 1913" class="cls-5" d="M196.708,442.979a21.685,21.685,0,0,1-1.228-4.358,21.369,21.369,0,0,1-.75-4.471,21.682,21.682,0,0,1,1.19,4.358,21.369,21.369,0,0,1,.787,4.471Z" transform="translate(-172.686 -216.047)"/>
      <path id="Trazado_1914" data-name="Trazado 1914" class="cls-5" d="M200.467,443.146a42.122,42.122,0,0,1-1.237-9.016,21.221,21.221,0,0,1,.862,4.471,21.914,21.914,0,0,1,.375,4.546Z" transform="translate(-172.968 -216.046)"/>
      <path id="Trazado_1915" data-name="Trazado 1915" class="cls-5" d="M204.064,441.823a16.607,16.607,0,0,1-.712-3.908,15.936,15.936,0,0,1-.234-3.965,32.8,32.8,0,0,1,.937,7.873Z" transform="translate(-173.21 -216.035)"/>
      <path id="Trazado_1916" data-name="Trazado 1916" class="cls-5" d="M209.635,440.535a9.156,9.156,0,0,1-1.3-3.355,9.006,9.006,0,0,1-.375-3.59,26.663,26.663,0,0,1,.844,3.468,25.189,25.189,0,0,1,.834,3.477Z" transform="translate(-173.513 -216.012)"/>
      <path id="Trazado_1917" data-name="Trazado 1917" class="cls-5" d="M211,435.535a4.272,4.272,0,0,1,1.331-.094,11.436,11.436,0,0,1,3.571.7,4.226,4.226,0,0,1,1.106.59,1.678,1.678,0,0,1,.684,1.247,1.875,1.875,0,0,1-2.306,1.678,4.761,4.761,0,0,1-2.652-1.875,8.3,8.3,0,0,1-.384-9.625,1.35,1.35,0,0,1,.75-.459,1.059,1.059,0,0,1,.853.272,2.287,2.287,0,0,1,.637,1.368,6.833,6.833,0,0,1-.131,2.54,6.992,6.992,0,0,1-1.725,3.215,5.025,5.025,0,0,1-.74.665,1.05,1.05,0,0,1-.3.178s.356-.319.937-.937a7.32,7.32,0,0,0,1.528-3.168,6.618,6.618,0,0,0,.066-2.409,1.931,1.931,0,0,0-.515-1.106.656.656,0,0,0-.984.169,7.938,7.938,0,0,0,.422,9.026,4.321,4.321,0,0,0,2.362,1.743,1.462,1.462,0,0,0,1.818-1.218,1.294,1.294,0,0,0-.525-.937,3.664,3.664,0,0,0-.984-.562,12.416,12.416,0,0,0-3.458-.825C211.431,435.554,211,435.572,211,435.535Z" transform="translate(-173.707 -215.642)"/>
      <path id="Trazado_1918" data-name="Trazado 1918" class="cls-5" d="M225.525,440.577l-.253.084-.769.187-2.952.675c-2.568.562-6.3,1.359-10.928,2.249s-10.16,1.874-16.364,2.746a43.9,43.9,0,0,1-9.832.5,21.557,21.557,0,0,1-5.145-.984,14.58,14.58,0,0,1-2.474-1.106,7.5,7.5,0,0,1-2.165-1.743h0a5.193,5.193,0,0,1-.881-1.059,6.561,6.561,0,0,1-.515-5.483,8.772,8.772,0,0,1,3.262-4.274,16.87,16.87,0,0,1,4.639-2.3c.815-.234,1.6-.516,2.409-.694s1.6-.375,2.4-.487c6.383-1,12.184-.5,17.02-.5,2.418.047,4.6,0,6.514-.131a45.233,45.233,0,0,0,4.874-.619l1.762-.375,1.265-.356.778-.216a1.028,1.028,0,0,1,.272-.056,1.646,1.646,0,0,1-.253.1l-.769.262-1.256.4-1.753.422a43.685,43.685,0,0,1-4.9.7c-1.921.141-4.115.234-6.561.206-4.836.047-10.638-.431-16.936.591-.787.112-1.565.328-2.362.5s-1.565.459-2.371.684a16.347,16.347,0,0,0-4.508,2.24,8.313,8.313,0,0,0-3.084,4.04,6.12,6.12,0,0,0,.469,5.07,4.75,4.75,0,0,0,.8.937h0a7.386,7.386,0,0,0,2.015,1.6,13.9,13.9,0,0,0,2.381,1.068,20.944,20.944,0,0,0,5.033.937,44.394,44.394,0,0,0,9.738-.459c6.186-.815,11.725-1.8,16.355-2.643s8.37-1.593,10.956-2.1l2.971-.581.769-.141a.864.864,0,0,1,.356.094Z" transform="translate(-171.314 -215.576)"/>
      <path id="Trazado_1919" data-name="Trazado 1919" class="cls-5" d="M189.152,446.819a16.51,16.51,0,0,1-.253-2.606c-.112-1.6-.3-3.824-.628-6.251s-.722-4.621-1.04-6.2a15.623,15.623,0,0,1-.44-2.577,12.186,12.186,0,0,1,.778,2.5,56.979,56.979,0,0,1,1.19,6.214,58.47,58.47,0,0,1,.487,6.3,12.756,12.756,0,0,1-.094,2.624Z" transform="translate(-172.188 -215.735)"/>
      <path id="Trazado_1920" data-name="Trazado 1920" class="cls-18" d="M217.89,426.984l6.458,16.168,5-.928-9.588-15.783Z" transform="translate(-174.139 -215.564)"/>
      <path id="Trazado_1921" data-name="Trazado 1921" class="cls-5" d="M299.106,377.939c-1.04.337-67.744-18.351-94.718-25.934a25.6,25.6,0,0,0-20.863,3.158l-.328.206a25.605,25.605,0,0,0-11.031,27.321h0a25.643,25.643,0,0,0,11.566,16.046c17.808,10.9,55.438,33.825,56.591,33.375,1.509-.581,48.521-1.8,48.521-1.8L232.28,389.627l26.908,17.4,39.917-29.055Z" transform="translate(-171.228 -210.832)"/>
      <path id="Trazado_1922" data-name="Trazado 1922" class="cls-13" d="M248.053,357.589l14.181-7.339,13.909,8.716,52.055,1.706,7.5,25.306-75.355-17.47s-13.712,1.218-14.743-1.874S248.053,357.589,248.053,357.589Z" transform="translate(-175.866 -210.782)"/>
      <path id="Trazado_1923" data-name="Trazado 1923" class="cls-5" d="M293.271,400.154l-7.011,23.038.872,7.02h0a36.018,36.018,0,0,0,47.5,3.2h0a35.287,35.287,0,0,0,13.8-28.117l-.1-24.05Z" transform="translate(-178.43 -212.727)"/>
      <path id="Trazado_1924" data-name="Trazado 1924" class="cls-15" d="M246.786,399.78c-.075.1-8.21-5.83-18.164-13.253s-17.967-13.534-17.883-13.637,8.21,5.82,18.173,13.243S246.871,399.667,246.786,399.78Z" transform="translate(-173.691 -212.203)"/>
      <path id="Trazado_1925" data-name="Trazado 1925" class="cls-14" d="M261.4,355.15a56.129,56.129,0,0,1-6.936,2.484,58.1,58.1,0,0,1-7.086,2.015,55.428,55.428,0,0,1,6.936-2.484A57.552,57.552,0,0,1,261.4,355.15Z" transform="translate(-175.99 -211.09)"/>
      <path id="Trazado_1926" data-name="Trazado 1926" class="cls-14" d="M262.379,359.759a13.766,13.766,0,0,1-2.418.459c-1.49.244-3.543.609-5.792,1.125s-4.255,1.087-5.708,1.518a15.243,15.243,0,0,1-2.371.647,10.636,10.636,0,0,1,2.259-.937,51.114,51.114,0,0,1,11.566-2.662A11.691,11.691,0,0,1,262.379,359.759Z" transform="translate(-175.909 -211.378)"/>
      <path id="Trazado_1927" data-name="Trazado 1927" class="cls-14" d="M261.148,364a63.936,63.936,0,0,1-7.807,1.8,66.05,66.05,0,0,1-7.91,1.322,65.987,65.987,0,0,1,7.817-1.8A66.4,66.4,0,0,1,261.148,364Z" transform="translate(-175.868 -211.645)"/>
      <path id="Trazado_1928" data-name="Trazado 1928" class="cls-15" d="M238.15,321.738l13.075,43.038a1.256,1.256,0,0,0,1.1.881l35.615,2.671a1.247,1.247,0,0,1,1.162,1.247V371.8a1.247,1.247,0,0,1-1.275,1.246l-97.474-1.874a1.247,1.247,0,0,1-1.143-.806l-17.133-44.885a1.247,1.247,0,0,1,1.106-1.7l63.648-2.971A1.256,1.256,0,0,1,238.15,321.738Z" transform="translate(-171.259 -208.934)"/>
      <path id="Trazado_1929" data-name="Trazado 1929" class="cls-1" d="M213.15,341.566a3.093,3.093,0,0,0-1.931,2.193,2.962,2.962,0,0,0,1.265,2.681,3.205,3.205,0,0,0,3.562.131,2.962,2.962,0,0,0,.937-3.59,3.225,3.225,0,0,0-3.861-1.415" transform="translate(-173.72 -210.225)"/>
      <path id="Trazado_1930" data-name="Trazado 1930" class="cls-5" d="M229.43,437.709l-10.31-16.945,75.73-59.356a30.423,30.423,0,0,1,16.542-6.776h0a30.432,30.432,0,0,1,33.085,32.8l-1.209,14.48L293.05,418.1Z" transform="translate(-174.217 -211.049)"/>
      <path id="Trazado_1931" data-name="Trazado 1931" class="cls-15" d="M327.235,400.36a2.075,2.075,0,0,1-.2.187l-.619.506-2.409,1.931-1.753,1.378c-.637.506-1.4.937-2.174,1.528l-2.512,1.725c-.45.3-.937.628-1.378.937l-1.509.937c-2.053,1.228-4.274,2.634-6.8,3.908-1.246.656-2.521,1.368-3.861,2.034l-4.19,1.978a204.678,204.678,0,0,1-19.148,7.629c-13.834,4.771-26.618,8.2-35.775,10.975-2.3.675-4.368,1.312-6.186,1.875s-3.374,1.04-4.686,1.471l-2.924.937-.769.234a1.343,1.343,0,0,1-.272.066l.253-.112.75-.281,2.905-1.04c1.256-.459,2.812-.937,4.63-1.556s3.871-1.256,6.158-1.949c9.138-2.868,21.913-6.345,35.718-11.106,6.917-2.352,13.356-4.977,19.12-7.573l4.18-1.959c1.35-.656,2.624-1.359,3.871-2.006,2.521-1.256,4.742-2.643,6.8-3.843l1.509-.891c.478-.3.937-.619,1.387-.937l2.615-1.7c.778-.534,1.537-.994,2.184-1.49l1.771-1.35,2.465-1.874.656-.469Z" transform="translate(-174.904 -213.927)"/>
      <path id="Trazado_1932" data-name="Trazado 1932" class="cls-15" d="M334.279,408.81a2.949,2.949,0,0,1-.759.4c-.506.225-1.246.534-2.174.872a54.861,54.861,0,0,1-7.423,2.156,55.889,55.889,0,0,1-7.657,1.087c-.984.066-1.79.094-2.343.094a3.382,3.382,0,0,1-.862-.047,29.3,29.3,0,0,1,3.177-.394,75.83,75.83,0,0,0,7.582-1.218c2.9-.628,5.539-1.4,7.414-2A29.438,29.438,0,0,1,334.279,408.81Z" transform="translate(-180.112 -214.457)"/>
      <path id="Trazado_1933" data-name="Trazado 1933" class="cls-15" d="M291.833,364.91c.084.112-16.121,12.85-36.2,28.445s-36.421,28.174-36.5,28.061,16.121-12.84,36.2-28.445S291.758,364.807,291.833,364.91Z" transform="translate(-174.218 -211.702)"/>
      <path id="Trazado_1934" data-name="Trazado 1934" class="cls-7" d="M288.708,431.549c-3.627-1.931-7.7-.787-11.181.384-2.315.778-4.686,2.015-7.067,1.35-1.7-.478-2.962-1.874-4.264-3.046a26.749,26.749,0,0,0-19.57-7.02,8.041,8.041,0,0,0-5.38,2.427c-3.571,3.871-.881,8.894,2.315,12.184a35.213,35.213,0,0,0,21.285,10.31c6.645.694,15.783-.225,22.494-3.112,4.152-1.781,6.28-6.683,4.105-10.638A6.832,6.832,0,0,0,288.708,431.549Z" transform="translate(-175.499 -215.359)"/>
      <g id="Grupo_645" data-name="Grupo 645" class="cls-12" transform="translate(64.239 210.911)">
        <path id="Trazado_1935" data-name="Trazado 1935" d="M288.721,434.849c-3.637-1.931-7.714-.787-11.191.384-2.315.778-4.686,2.015-7.067,1.35-1.7-.478-2.962-1.874-4.264-3.046a26.749,26.749,0,0,0-19.57-7.02,8.041,8.041,0,0,0-5.38,2.427,6.3,6.3,0,0,0-1.5,2.718A14.162,14.162,0,0,0,243.565,438a35.213,35.213,0,0,0,21.285,10.31c6.645.694,15.783-.225,22.494-3.112a8.22,8.22,0,0,0,4.789-5.708,6.936,6.936,0,0,0-3.44-4.6Z" transform="translate(-239.75 -426.477)"/>
      </g>
      <path id="Trazado_1936" data-name="Trazado 1936" class="cls-5" d="M292.178,439.441a6.184,6.184,0,0,0-.89-2.156,7.087,7.087,0,0,0-1.94-1.875A7.836,7.836,0,0,0,286,434.136c-2.69-.319-5.82.815-9.288,1.753a15.213,15.213,0,0,1-5.623.937,7.5,7.5,0,0,1-2.905-1.012,17.876,17.876,0,0,1-2.493-1.875,26.045,26.045,0,0,0-9.935-5.9,25.409,25.409,0,0,0-4.939-1.143,15.448,15.448,0,0,0-4.4,0,9.777,9.777,0,0,0-3.393,1.181,8.931,8.931,0,0,0-2.109,1.7c-.937,1.172-1.284,1.968-1.34,1.931a7.669,7.669,0,0,1,1.2-2.053,8.436,8.436,0,0,1,2.081-1.874,9.634,9.634,0,0,1,3.5-1.293,15.307,15.307,0,0,1,4.5,0,26.117,26.117,0,0,1,5.033,1.115,29.811,29.811,0,0,1,5.211,2.306,21.341,21.341,0,0,1,2.54,1.65c.815.637,1.575,1.331,2.362,2.006a17.808,17.808,0,0,0,2.428,1.875,7.094,7.094,0,0,0,2.709.937c1.874.253,3.749-.4,5.464-.853,3.458-.937,6.636-2.034,9.457-1.668a7.807,7.807,0,0,1,5.4,3.421,5.071,5.071,0,0,1,.675,1.64,2.556,2.556,0,0,1,.056.534Z" transform="translate(-175.5 -215.556)"/>
      <path id="Trazado_1937" data-name="Trazado 1937" class="cls-5" d="M292.178,439.441a6.184,6.184,0,0,0-.89-2.156,7.087,7.087,0,0,0-1.94-1.875A7.836,7.836,0,0,0,286,434.136c-2.69-.319-5.82.815-9.288,1.753a15.213,15.213,0,0,1-5.623.937,7.5,7.5,0,0,1-2.905-1.012,17.876,17.876,0,0,1-2.493-1.875,26.045,26.045,0,0,0-9.935-5.9,25.409,25.409,0,0,0-4.939-1.143,15.448,15.448,0,0,0-4.4,0,9.777,9.777,0,0,0-3.393,1.181,8.931,8.931,0,0,0-2.109,1.7c-.937,1.172-1.284,1.968-1.34,1.931a7.669,7.669,0,0,1,1.2-2.053,8.436,8.436,0,0,1,2.081-1.874,9.634,9.634,0,0,1,3.5-1.293,15.307,15.307,0,0,1,4.5,0,26.117,26.117,0,0,1,5.033,1.115,29.811,29.811,0,0,1,5.211,2.306,21.341,21.341,0,0,1,2.54,1.65c.815.637,1.575,1.331,2.362,2.006a17.808,17.808,0,0,0,2.428,1.875,7.094,7.094,0,0,0,2.709.937c1.874.253,3.749-.4,5.464-.853,3.458-.937,6.636-2.034,9.457-1.668a7.807,7.807,0,0,1,5.4,3.421,5.071,5.071,0,0,1,.675,1.64,2.556,2.556,0,0,1,.056.534Z" transform="translate(-175.5 -215.556)"/>
      <path id="Trazado_1938" data-name="Trazado 1938" class="cls-5" d="M247.63,438.943a9.614,9.614,0,0,1,1.874-1.284,51.146,51.146,0,0,1,4.808-2.568,53.163,53.163,0,0,1,5.052-2.071,9.882,9.882,0,0,1,2.174-.609,12.186,12.186,0,0,1-2.053.937c-1.284.534-3.046,1.284-4.967,2.184s-3.618,1.781-4.846,2.427a11.324,11.324,0,0,1-2.043.984Z" transform="translate(-176.006 -215.938)"/>
      <path id="Trazado_1939" data-name="Trazado 1939" class="cls-5" d="M249,442.794a65.916,65.916,0,0,1,7.1-3.7,66.639,66.639,0,0,1,7.311-3.262,65.913,65.913,0,0,1-7.1,3.7A64.9,64.9,0,0,1,249,442.794Z" transform="translate(-176.092 -216.153)"/>
      <path id="Trazado_1940" data-name="Trazado 1940" class="cls-5" d="M263.857,444.221c-.075.112-3.946-2.193-8.641-5.155s-8.435-5.464-8.435-5.577,3.936,2.193,8.641,5.164S263.95,444.109,263.857,444.221Z" transform="translate(-175.952 -216.006)"/>
      <path id="Trazado_1941" data-name="Trazado 1941" class="cls-5" d="M266.486,440.328a12.364,12.364,0,0,1-1.874-1.265c-1.134-.825-2.709-1.959-4.471-3.177s-3.365-2.3-4.536-3.074a11.475,11.475,0,0,1-1.874-1.331,10.631,10.631,0,0,1,2.034,1.04c1.218.7,2.877,1.743,4.686,2.962s3.318,2.409,4.4,3.309a9.032,9.032,0,0,1,1.631,1.537Z" transform="translate(-176.388 -215.88)"/>
    </g>
  </g>
</svg>
