<svg xmlns="http://www.w3.org/2000/svg" width="20" height="20" viewBox="0 0 20 20">
  <g id="unlike" transform="translate(-1 3.4)">
    <rect id="Rectángulo_924" data-name="Rectángulo 924" width="20" height="20" transform="translate(1 -3.4)" fill="none"/>
    <g id="Grupo_1876" data-name="Grupo 1876" transform="translate(1 -2.4)">
      <g id="Grupo_560" data-name="Grupo 560">
        <g id="Grupo_559" data-name="Grupo 559">
          <path id="Trazado_1069" data-name="Trazado 1069" d="M50.489,99.667A2,2,0,0,1,49,103H45.118a12.927,12.927,0,0,1,.548,3.378v.666A2.67,2.67,0,0,1,43,109.711h-.667a.666.666,0,0,1-.647-.5l-.363-1.453c-.509-2.035-2.124-4.28-3.8-4.688a2,2,0,0,1-1.86,1.268h-4a.667.667,0,0,1-.667-.667v-12A.667.667,0,0,1,31.667,91h4a2,2,0,0,1,1.805,1.14l2.291-.764A7.317,7.317,0,0,1,42.082,91h5.585a2,2,0,0,1,1.86,2.737A2,2,0,0,1,50.489,97a2,2,0,0,1,0,2.667ZM36.333,93a.667.667,0,0,0-.667-.667H32.333V103h3.333a.667.667,0,0,0,.667-.667Zm11.333,6H49a.667.667,0,0,0,0-1.333H47.667a.667.667,0,1,1,0-1.333H49A.667.667,0,1,0,49,95H47.667a.667.667,0,1,1,0-1.333.667.667,0,0,0,0-1.333H42.082a5.987,5.987,0,0,0-1.9.308l-2.517.839v8.249a5.372,5.372,0,0,1,2.993,1.945,9.727,9.727,0,0,1,1.957,3.755l.237.948H43a1.335,1.335,0,0,0,1.333-1.333v-.666A10.549,10.549,0,0,0,43.7,103H42.333a.667.667,0,0,1,0-1.333H49a.667.667,0,1,0,0-1.333H47.667a.667.667,0,1,1,0-1.333Z" transform="translate(-31 -91)" fill="#f83f00"/>
        </g>
      </g>
      <g id="Grupo_562" data-name="Grupo 562" transform="translate(2.667 2.667)">
        <g id="Grupo_561" data-name="Grupo 561">
          <circle id="Elipse_169" data-name="Elipse 169" cx="0.667" cy="0.667" r="0.667" fill="#f83f00"/>
        </g>
      </g>
    </g>
  </g>
</svg>
