<svg xmlns="http://www.w3.org/2000/svg" width="276" height="160" viewBox="0 0 276 160">
  <g id="visual-data-panva" transform="translate(42.12 -207.41)">
    <rect id="Rectángulo_921" data-name="Rectángulo 921" width="276" height="160" transform="translate(-42.12 207.41)" fill="#fff"/>
    <g id="Grupo_1875" data-name="Grupo 1875" transform="translate(-1.43 201.173)">
      <g id="freepik--background-complete--inject-455" transform="translate(35.31 16.237)">
        <path id="Trazado_3587" data-name="Trazado 3587" d="M75.091,300.961a5.72,5.72,0,0,0-2.294-1.167,12.326,12.326,0,0,1-5.647-18.9l-.123-.631a4.719,4.719,0,1,0-8.258,3.544c-3.191.263-5.3,3.888-4.851,7.074s2.77,5.773,5.354,7.666a25.346,25.346,0,0,0,14.719,4.863,2.04,2.04,0,0,0,1.047-.188A1.517,1.517,0,0,0,75.091,300.961Z" transform="translate(-48.31 -198.339)" fill="#e0e0e0"/>
        <path id="Trazado_3588" data-name="Trazado 3588" d="M396.933,294.5a3.856,3.856,0,0,0,.093-3.981,3.012,3.012,0,0,0-3.649-1.2,2.672,2.672,0,0,0-4.534-2.827c-.849,1.313-.4,3.075.329,4.46s1.732,2.692,1.971,4.226a6.263,6.263,0,0,1-1.3,4.487,17.736,17.736,0,0,1-3.452,3.29l-.236.227a8.572,8.572,0,0,0,6.879-.6,4.076,4.076,0,0,0,2.336-3.06c.042-.748-.236-1.5-.123-2.237C395.4,296.236,396.352,295.447,396.933,294.5Z" transform="translate(-281.213 -204.782)" fill="#e0e0e0"/>
        <path id="Trazado_3589" data-name="Trazado 3589" d="M159.545,457.282a4.32,4.32,0,0,1-3.015-1.6c-.437-.6-.649-1.352-1.029-2a2.036,2.036,0,0,0-1.795-1.158c-1.155.114-1.935,1.711-3.063,1.43a1.639,1.639,0,0,1-1-1.663,17.5,17.5,0,0,0,.111-2.094c-.242-1.947-2.743-2.9-4.609-2.294a16.177,16.177,0,0,0-5.913,4.4c1.28,2.127,3.9,2.952,6.308,3.556q6.057,1.516,12.218,2.575a9.011,9.011,0,0,0,2.91.17,3.175,3.175,0,0,0,2.369-1.531A12.455,12.455,0,0,1,159.545,457.282Z" transform="translate(-108.147 -318.663)" fill="#e0e0e0"/>
        <path id="Trazado_3590" data-name="Trazado 3590" d="M310.771,404.125c-.3-1.663-1.956-3.129-3.589-2.746a3.587,3.587,0,0,0,.3-4.786,5.714,5.714,0,0,0-4.723-1.953,15.137,15.137,0,0,0-5.1,1.331c.8-1.023-.374-2.62-1.672-2.692a5.839,5.839,0,0,0-3.517,1.5c-1.056.757-2.27,1.543-3.556,1.343l1.2.485a22.367,22.367,0,0,1,8.294,2.617,10.112,10.112,0,0,1,4.989,6.852c.431,2.886-1.089,6.117-3.826,7.128a11.608,11.608,0,0,0,9.712-4.391A6.161,6.161,0,0,0,310.771,404.125Z" transform="translate(-213.058 -280.503)" fill="#e0e0e0"/>
        <path id="Trazado_3591" data-name="Trazado 3591" d="M44.726,272.292a49.953,49.953,0,0,1,0-5.572,49.945,49.945,0,0,1,0,5.572Z" transform="translate(-41.849 -191.8)" fill="#e0e0e0"/>
        <path id="Trazado_3592" data-name="Trazado 3592" d="M41.068,275.794a27.063,27.063,0,0,1-2.88.078,27.023,27.023,0,0,1-2.877-.078,26.12,26.12,0,0,1,2.877-.078A26.144,26.144,0,0,1,41.068,275.794Z" transform="translate(-35.31 -198.098)" fill="#e0e0e0"/>
        <path id="Trazado_3593" data-name="Trazado 3593" d="M416.214,368.032a49.953,49.953,0,0,1,0-5.572,49.953,49.953,0,0,1,0,5.572Z" transform="translate(-302.223 -258.904)" fill="#e0e0e0"/>
        <path id="Trazado_3594" data-name="Trazado 3594" d="M412.551,371.566a51.412,51.412,0,0,1-5.761,0,53.386,53.386,0,0,1,5.761,0Z" transform="translate(-295.68 -265.226)" fill="#e0e0e0"/>
        <path id="Trazado_3595" data-name="Trazado 3595" d="M359.7,48.392a24.511,24.511,0,0,1-.078-2.788,24.473,24.473,0,0,1,.078-2.785,25.326,25.326,0,0,1,.078,2.785,25.358,25.358,0,0,1-.078,2.788Z" transform="translate(-262.615 -34.869)" fill="#e0e0e0"/>
        <path id="Trazado_3596" data-name="Trazado 3596" d="M356.041,51.926a53.375,53.375,0,0,1-5.761,0,53.381,53.381,0,0,1,5.761,0Z" transform="translate(-256.072 -41.19)" fill="#e0e0e0"/>
        <circle id="Elipse_179" data-name="Elipse 179" cx="1.702" cy="1.702" r="1.702" transform="translate(4.382 52.619)" fill="#e0e0e0"/>
        <path id="Trazado_3597" data-name="Trazado 3597" d="M274.77,436.252a1.7,1.7,0,1,1-.5-1.2A1.7,1.7,0,0,1,274.77,436.252Z" transform="translate(-200.757 -309.432)" fill="#e0e0e0"/>
        <path id="Trazado_3598" data-name="Trazado 3598" d="M327.744,328.7a1.7,1.7,0,1,1-.5-1.2A1.7,1.7,0,0,1,327.744,328.7Z" transform="translate(-237.891 -234.05)" fill="#e0e0e0"/>
        <path id="Trazado_3599" data-name="Trazado 3599" d="M158.634,45.272a1.7,1.7,0,1,1-1.7-1.7,1.7,1.7,0,0,1,1.7,1.7Z" transform="translate(-119.362 -35.395)" fill="#e0e0e0"/>
        <circle id="Elipse_180" data-name="Elipse 180" cx="0.852" cy="0.852" r="0.852" transform="translate(45.634 109.735)" fill="#e0e0e0"/>
        <path id="Trazado_3600" data-name="Trazado 3600" d="M120.915,369.779a.849.849,0,1,1-.25-.6.852.852,0,0,1,.25.6Z" transform="translate(-94.115 -263.439)" fill="#e0e0e0"/>
        <path id="Trazado_3601" data-name="Trazado 3601" d="M191.075,53a.852.852,0,1,1-.852-.852A.852.852,0,0,1,191.075,53Z" transform="translate(-143.291 -41.408)" fill="#e0e0e0"/>
        <path id="Trazado_3602" data-name="Trazado 3602" d="M316.435,206.942a.852.852,0,1,1-.852-.852A.853.853,0,0,1,316.435,206.942Z" transform="translate(-231.155 -149.305)" fill="#e0e0e0"/>
        <path id="Trazado_3603" data-name="Trazado 3603" d="M45.593,45.941s-1.9.978.76,4.95a55.171,55.171,0,0,0,4.4,5.886s.5.936-.3,1.2-2.659.176-2.907,1.229S48.162,61.2,49.81,61.9s5.183,2.291,5.506,2.441.661.565.138.826-4.561,1.169-4.014,3.063,5.447,3.045,5.982,3.182.682.338.673.622-1.4.464-2.533.769-2.393.861-2,1.926,3.461,3.039,10.3,2.9l3.161-.269,1.4-2.865c2.623-6.311,1.9-9.87,1.056-10.645s-1.822.209-2.521,1.158-1.373,2.174-1.642,2.094-.4-.3-.332-.855.781-5.527-.781-6.727-3.888,2.228-4.316,2.623-.7-.087-.718-.434-.248-4.271-.284-6.042-.553-2.94-1.663-3.1-1.681,1.6-2.207,2.258-1.217-.144-1.217-.144a54.578,54.578,0,0,0-3.888-6.242c-2.74-3.921-4.352-2.471-4.352-2.471" transform="translate(-42.058 -36.89)" fill="#ebebeb"/>
        <path id="Trazado_3604" data-name="Trazado 3604" d="M74.364,86.973C72.372,84.087,68.92,78.9,65.929,74.45s-5.683-8.459-7.672-11.366l-2.345-3.422c-.275-.4-.488-.715-.637-.93-.069-.108-.126-.188-.165-.245a.518.518,0,0,1-.051-.087l.06.081.173.239.646.921c.565.8,1.373,1.968,2.369,3.413,2,2.886,4.717,6.891,7.7,11.342s6.434,9.64,8.411,12.538" transform="translate(-49.153 -45.789)" fill="#e0e0e0"/>
        <path id="Trazado_3605" data-name="Trazado 3605" d="M62.26,91.5a1.02,1.02,0,0,1,.227.036c.144.027.353.075.6.138.511.12,1.217.3,1.989.526l1.98.571.6.17a.781.781,0,0,1,.218.072,1.068,1.068,0,0,1-.227-.036c-.144-.027-.353-.075-.6-.138-.511-.129-1.214-.323-1.989-.544l-1.977-.556-.6-.167A1.09,1.09,0,0,1,62.26,91.5Z" transform="translate(-54.199 -68.989)" fill="#e0e0e0"/>
        <path id="Trazado_3606" data-name="Trazado 3606" d="M81.7,80.45c-.024,0,.3-1.475.718-3.29s.79-3.266.814-3.26-.3,1.478-.718,3.29S81.724,80.456,81.7,80.45Z" transform="translate(-67.822 -56.653)" fill="#e0e0e0"/>
        <path id="Trazado_3607" data-name="Trazado 3607" d="M96,106.9a.9.9,0,0,1,.1-.209l.3-.556c.263-.47.625-1.119,1-1.848s.688-1.4.9-1.89l.266-.58a1.057,1.057,0,0,1,.108-.206.962.962,0,0,1-.072.221c-.054.144-.135.344-.239.6-.206.5-.514,1.175-.9,1.908s-.745,1.379-1.023,1.839c-.141.23-.257.413-.341.538A1.2,1.2,0,0,1,96,106.9Z" transform="translate(-77.848 -76.075)" fill="#e0e0e0"/>
        <path id="Trazado_3608" data-name="Trazado 3608" d="M77.58,119.076a.849.849,0,0,1,.215-.021l.6-.024c.5,0,1.2-.027,1.944-.036s1.445,0,1.941,0h.6a.939.939,0,0,1,.215,0,.894.894,0,0,1-.215.021l-.6.024c-.5.015-1.2.03-1.944.039s-1.445,0-1.941,0h-.6A1.026,1.026,0,0,1,77.58,119.076Z" transform="translate(-64.937 -88.256)" fill="#e0e0e0"/>
        <path id="Trazado_3609" data-name="Trazado 3609" d="M87.58,141.232a1.5,1.5,0,0,1,.275-.024l.754-.033c.637-.024,1.516-.048,2.489-.069s1.851-.033,2.489-.039h.757a1.824,1.824,0,0,1,.275,0,1.094,1.094,0,0,1-.275.027l-.754.03c-.637.024-1.516.048-2.489.069s-1.851.036-2.492.039h-.754A1.552,1.552,0,0,1,87.58,141.232Z" transform="translate(-71.946 -103.727)" fill="#e0e0e0"/>
        <path id="Trazado_3610" data-name="Trazado 3610" d="M110.55,125.041a1.718,1.718,0,0,1,.126-.269l.371-.718c.314-.6.742-1.445,1.2-2.393s.831-1.795,1.1-2.423l.326-.742a1.845,1.845,0,0,1,.129-.266,1.743,1.743,0,0,1-.093.281c-.069.179-.167.437-.3.754-.257.631-.631,1.5-1.083,2.441s-.9,1.777-1.214,2.375c-.168.3-.3.538-.4.7A1.684,1.684,0,0,1,110.55,125.041Z" transform="translate(-88.046 -87.724)" fill="#e0e0e0"/>
        <path id="Trazado_3611" data-name="Trazado 3611" d="M382.689,181.355c-3.371-2.94-3.691-7.756-3.087-11.991a4.594,4.594,0,0,1,.509-2.052,1.452,1.452,0,0,1,1.839-.559c.5.3.664.942.9,1.5a4.187,4.187,0,0,0,1.5,1.768,1.625,1.625,0,0,0,1.445.3c.649-.269.811-1.107.882-1.816q.2-1.974.4-3.948a6.581,6.581,0,0,1,.44-2.073,2.2,2.2,0,0,1,1.534-1.331,1.334,1.334,0,0,1,1.546,1.068,6.236,6.236,0,0,1-.075.879.745.745,0,0,0,.359.745.852.852,0,0,0,.811-.239,9.414,9.414,0,0,0,1.959-2.363,13.085,13.085,0,0,1,1.854-2.453,3.844,3.844,0,0,1,2.743-1.172,2.3,2.3,0,0,1,2.174,1.795,3.471,3.471,0,0,1-1.259,2.707,15.8,15.8,0,0,1-3.616,2.773,1.322,1.322,0,0,0-.613.532c-.2.455.191.969.64,1.172a8.18,8.18,0,0,0,1.627.365,1.6,1.6,0,0,1,1.265.972c.212.754-.473,1.445-1.122,1.875a13.54,13.54,0,0,1-4.241,1.875,4.584,4.584,0,0,0-1.561.562,1.31,1.31,0,0,0-.58,1.451,1.338,1.338,0,0,0,1.388.712,10.018,10.018,0,0,0,1.612-.425,2.483,2.483,0,0,1,2.785.843,2.252,2.252,0,0,1,.024,2,5.2,5.2,0,0,1-1.256,1.63,13.687,13.687,0,0,1-6.233,3.446,9.338,9.338,0,0,1-6.58-.535" transform="translate(-276.451 -115.324)" fill="#f5f5f5"/>
        <path id="Trazado_3612" data-name="Trazado 3612" d="M395.13,180.458a63.216,63.216,0,0,1,3.251-6.538l.939-1.669c.3-.547.616-1.089.948-1.6a32.179,32.179,0,0,1,2.094-2.835c.706-.867,1.406-1.669,2.067-2.411s1.3-1.421,1.9-2.016a25.448,25.448,0,0,1,3.042-2.6c.383-.275.688-.482.9-.616l.236-.156.084-.048a.392.392,0,0,1-.075.06l-.23.165c-.2.144-.5.356-.879.637a26.938,26.938,0,0,0-3.009,2.62c-.6.6-1.22,1.28-1.878,2.022s-1.355,1.546-2.055,2.417a31.843,31.843,0,0,0-2.067,2.83c-.329.508-.634,1.047-.942,1.6l-.939,1.669a65.59,65.59,0,0,0-3.245,6.52" transform="translate(-287.508 -116.979)" fill="#e0e0e0"/>
        <path id="Trazado_3613" data-name="Trazado 3613" d="M411.95,177.264a1.475,1.475,0,0,1-.036-.3c-.018-.2-.03-.488-.042-.846-.024-.712-.024-1.7-.021-2.785s0-2.073-.042-2.785c-.018-.356-.033-.643-.048-.84a1.445,1.445,0,0,1,0-.3,1.349,1.349,0,0,1,.057.3c.03.2.06.485.087.84.06.712.09,1.7.084,2.791s0,2.043-.018,2.785v.843a1.6,1.6,0,0,1-.021.3Z" transform="translate(-299.159 -123.596)" fill="#e0e0e0"/>
        <path id="Trazado_3614" data-name="Trazado 3614" d="M421.643,193.038a2.033,2.033,0,0,1-.365,0h-1c-.84,0-2,.042-3.29.144s-2.435.245-3.266.374c-.416.06-.751.12-.984.159a1.983,1.983,0,0,1-.362.048,1.756,1.756,0,0,1,.353-.1c.23-.054.565-.129.981-.2.829-.153,1.986-.3,3.269-.413a32.086,32.086,0,0,1,3.29-.1c.422,0,.763.03,1,.051A1.8,1.8,0,0,1,421.643,193.038Z" transform="translate(-299.598 -140.088)" fill="#e0e0e0"/>
        <path id="Trazado_3615" data-name="Trazado 3615" d="M387.78,199.691a.533.533,0,0,1-.051-.117c-.03-.093-.072-.206-.12-.344-.1-.3-.239-.739-.4-1.283-.326-1.086-.73-2.6-1.152-4.277s-.811-3.2-1.113-4.289c-.147-.529-.269-.966-.362-1.292-.039-.141-.069-.257-.1-.353a.6.6,0,0,1-.027-.126.4.4,0,0,1,.051.12l.12.344c.1.3.242.739.4,1.28.326,1.089.727,2.6,1.148,4.28s.811,3.194,1.113,4.289c.15.529.272.966.362,1.292l.1.35A.367.367,0,0,1,387.78,199.691Z" transform="translate(-280.029 -136.352)" fill="#e0e0e0"/>
        <path id="Trazado_3616" data-name="Trazado 3616" d="M408.035,219.3a.752.752,0,0,1-.126.036l-.362.078-1.337.281c-1.128.236-2.692.58-4.4.96s-3.275.715-4.409.927c-.568.1-1.026.188-1.346.236l-.368.057a.351.351,0,0,1-.129,0l.126-.036.362-.078,1.337-.281c1.128-.236,2.692-.58,4.4-.963s3.275-.712,4.409-.924c.568-.108,1.026-.188,1.346-.236l.368-.057A.349.349,0,0,1,408.035,219.3Z" transform="translate(-287.809 -158.557)" fill="#e0e0e0"/>
        <path id="Trazado_3617" data-name="Trazado 3617" d="M303.63,31.719a30.274,30.274,0,0,1,3.808-10.286,11.548,11.548,0,0,1,7.669-5.118,7.784,7.784,0,0,1,7.986,3.867c.757,1.516.9,3.263,1.448,4.863s1.759,3.206,3.449,3.335c1.5.117,2.94-.963,4.412-.676,1.92.374,2.659,2.737,2.671,4.69S334.8,36.52,336,38.06c.981,1.262,2.665,1.7,4.02,2.542,2.934,1.831,4.187,5.608,3.888,9.054s-1.884,6.634-3.568,9.652a75.633,75.633,0,0,0-5.683-14.321c-1.361-2.608-3.846-4.825-6.045-6.778-3.377-2.991-10.786-4.43-15.269-4.98s-5.273-.67-9.709-1.5" transform="translate(-223.375 -16.237)" fill="#e0e0e0"/>
      </g>
      <g id="freepik--back-screens--inject-455" transform="translate(53.606 34.933)">
        <path id="Trazado_3618" data-name="Trazado 3618" d="M128.553,80.3c-11.088.8-23.2,2.273-32.073,5.683l2.806,18.972s17.2-6.158,31.205-5.731Z" transform="translate(-96.48 -79.835)" fill="#f83f00"/>
        <g id="Grupo_732" data-name="Grupo 732" transform="translate(0 0.465)" opacity="0.8">
          <path id="Trazado_3619" data-name="Trazado 3619" d="M128.553,80.3c-11.088.8-23.2,2.273-32.073,5.683l2.806,18.972s17.2-6.158,31.205-5.731Z" transform="translate(-96.48 -80.3)" fill="#fff"/>
        </g>
        <path id="Trazado_3620" data-name="Trazado 3620" d="M134.2,112.5l-.108.018-.314.045-1.2.15c-.526.063-1.169.141-1.914.248s-1.594.215-2.527.371a147.484,147.484,0,0,0-14.485,2.991c-1.944.5-3.82,1.02-5.533,1.558l-.087.024v-.087c-.6-4.349-1.178-8.1-1.624-10.768-.227-1.322-.41-2.393-.535-3.114-.063-.356-.111-.634-.147-.832a1.1,1.1,0,0,0-.033-.215.239.239,0,0,1,0-.075.3.3,0,0,1,.021.072,1.181,1.181,0,0,0,.048.212c.039.2.1.473.17.829.144.721.344,1.777.577,3.1.473,2.656,1.071,6.407,1.681,10.768l-.1-.06c1.72-.544,3.589-1.065,5.542-1.567a141.253,141.253,0,0,1,14.506-2.937c.936-.147,1.795-.245,2.533-.344s1.391-.17,1.917-.224l1.214-.123.317-.027A.415.415,0,0,1,134.2,112.5Z" transform="translate(-102.935 -95.619)" fill="#f83f00"/>
        <path id="Trazado_3621" data-name="Trazado 3621" d="M137.32,112.241s-.042-.132-.129-.38a3.98,3.98,0,0,0-.571-.978,4.968,4.968,0,0,0-1.346-1.181c-.144-.1-.314-.168-.479-.254a4.285,4.285,0,0,0-.541-.194,2.961,2.961,0,0,0-1.235-.12,2.572,2.572,0,0,0-1.256.494,4.256,4.256,0,0,0-1,1.092,15.9,15.9,0,0,0-1.409,3.009,3.736,3.736,0,0,1-1.044,1.5,1.959,1.959,0,0,1-.864.416,1.756,1.756,0,0,1-.975-.114c-1.262-.5-1.825-1.956-3.1-2.393a2.5,2.5,0,0,0-1.893.156,2.423,2.423,0,0,0-.751.58,3.888,3.888,0,0,0-.5.8,5.169,5.169,0,0,1-.981,1.63,1.46,1.46,0,0,1-.861.386,1.72,1.72,0,0,1-.9-.191,3.251,3.251,0,0,1-1.238-1.217,10.768,10.768,0,0,1-.655-1.5,7.038,7.038,0,0,0-.649-1.349,2.692,2.692,0,0,0-.99-.921,2.572,2.572,0,0,0-2.273-.066,3.843,3.843,0,0,0-1.445,1.041,2.8,2.8,0,0,0-.541.99c-.078.248-.087.389-.1.386a1.693,1.693,0,0,1,.069-.395,2.692,2.692,0,0,1,.523-1.02,3.888,3.888,0,0,1,1.457-1.083,2.656,2.656,0,0,1,2.36.051,2.793,2.793,0,0,1,1.041.951,7.094,7.094,0,0,1,.667,1.37,10.811,10.811,0,0,0,.655,1.469,3.09,3.09,0,0,0,1.2,1.161,1.576,1.576,0,0,0,.823.176,1.331,1.331,0,0,0,.775-.353,5.148,5.148,0,0,0,.942-1.585,4.024,4.024,0,0,1,.52-.837,2.567,2.567,0,0,1,.8-.616,2.653,2.653,0,0,1,2.013-.165,4.148,4.148,0,0,1,1.618,1.22,4.526,4.526,0,0,0,1.5,1.2,1.606,1.606,0,0,0,.9.1,1.836,1.836,0,0,0,.8-.383,3.643,3.643,0,0,0,1-1.436,16.626,16.626,0,0,1,1.436-3.024,4.237,4.237,0,0,1,1.041-1.119,2.716,2.716,0,0,1,1.313-.505,3.081,3.081,0,0,1,1.274.135,4.32,4.32,0,0,1,.553.206,5.156,5.156,0,0,1,1.833,1.5,3.838,3.838,0,0,1,.553,1.008,2.787,2.787,0,0,1,.078.3Q137.324,112.213,137.32,112.241Z" transform="translate(-105.669 -99.968)" fill="#f83f00"/>
        <path id="Trazado_3622" data-name="Trazado 3622" d="M102.473,111.382c0,.042-.138.1-.323.141s-.344.03-.35,0,.135-.1.32-.141S102.458,111.34,102.473,111.382Z" transform="translate(-100.208 -101.599)" fill="#f83f00"/>
        <path id="Trazado_3623" data-name="Trazado 3623" d="M104.421,122.968c.018.042-.09.129-.242.2s-.3.1-.3.057.093-.126.245-.2S104.4,122.938,104.421,122.968Z" transform="translate(-101.667 -109.731)" fill="#f83f00"/>
        <path id="Trazado_3624" data-name="Trazado 3624" d="M106.45,135.634c0,.042-.1.117-.251.17s-.3.063-.3.024.1-.117.251-.171S106.435,135.6,106.45,135.634Z" transform="translate(-103.082 -118.602)" fill="#f83f00"/>
        <path id="Trazado_3625" data-name="Trazado 3625" d="M108.726,148.074c0,.042-.117.12-.3.171s-.317.066-.329.024.114-.117.281-.171S108.711,148.035,108.726,148.074Z" transform="translate(-104.623 -127.321)" fill="#f83f00"/>
        <path id="Trazado_3626" data-name="Trazado 3626" d="M180.082,86.685a1.553,1.553,0,0,1,.362-.084c.239-.039.6-.093,1.032-.156.9-.126,2.157-.3,3.667-.476h.072v.072c.117,1.274.254,2.74.4,4.3v.141h-.075l-4.956.6h-.069V91.01c-.138-1.3-.254-2.393-.338-3.167-.036-.365-.063-.655-.087-.876a2.509,2.509,0,0,1-.018-.3,2.692,2.692,0,0,1,.054.317c.033.221.072.517.123.9.1.772.233,1.842.4,3.129l-.075-.06,4.956-.631-.069.084V90.34c-.138-1.555-.266-3.024-.38-4.3l.078.063Z" transform="translate(-155.068 -83.809)" fill="#f83f00"/>
        <path id="Trazado_3627" data-name="Trazado 3627" d="M186.651,90.767c0,.048-.852.045-1.893.159s-1.875.3-1.887.242A9.2,9.2,0,0,1,186.651,90.767Z" transform="translate(-157.031 -87.137)" fill="#f83f00"/>
        <path id="Trazado_3628" data-name="Trazado 3628" d="M187.4,94.48c0,.045-.8.075-1.768.17s-1.762.215-1.771.17a6.933,6.933,0,0,1,1.756-.326A6.824,6.824,0,0,1,187.4,94.48Z" transform="translate(-157.725 -89.738)" fill="#f83f00"/>
        <path id="Trazado_3629" data-name="Trazado 3629" d="M186.947,97.8a3.272,3.272,0,0,1-1.011.206,3.49,3.49,0,0,1-1.026.054,3.374,3.374,0,0,1,1.008-.206,3.511,3.511,0,0,1,1.029-.054Z" transform="translate(-158.461 -92.092)" fill="#f83f00"/>
        <path id="Trazado_3630" data-name="Trazado 3630" d="M304.331,84.8c-10.857-3.308-20.019-6.135-32.3-6.057L270.15,98.077c12.775,1.131,17.049,1.968,28.839,6.236Z" transform="translate(-218.205 -78.745)" fill="#f83f00"/>
        <g id="Grupo_733" data-name="Grupo 733" transform="translate(51.945)" opacity="0.8">
          <path id="Trazado_3631" data-name="Trazado 3631" d="M304.331,84.8c-10.857-3.308-20.019-6.135-32.3-6.057L270.15,98.077c12.775,1.131,17.049,1.968,28.839,6.236Z" transform="translate(-270.15 -78.745)" fill="#fff"/>
        </g>
        <path id="Trazado_3632" data-name="Trazado 3632" d="M290.7,100.4l.479-4.1a4.8,4.8,0,0,0-3.347.927,5.031,5.031,0,0,0-2.058,4.05,5.865,5.865,0,0,0,.015.6h0l4.786-.538Z" transform="translate(-229.156 -91.035)" fill="#f83f00"/>
        <path id="Trazado_3633" data-name="Trazado 3633" d="M308.16,100.022a4.639,4.639,0,0,0-3.413-3.239l-.144-.03-.093-.021-.281-.042h-.024l-.473,4.083-.114.963,4.522,1.651h0a5.182,5.182,0,0,0,.233-1.05A5.644,5.644,0,0,0,308.16,100.022Z" transform="translate(-241.664 -91.323)" fill="#f83f00"/>
        <g id="Grupo_734" data-name="Grupo 734" transform="translate(61.956 5.367)" opacity="0.3">
          <path id="Trazado_3634" data-name="Trazado 3634" d="M308.16,100.022a4.639,4.639,0,0,0-3.413-3.239l-.144-.03-.093-.021-.281-.042h-.024l-.473,4.083-.114.963,4.522,1.651h0a5.182,5.182,0,0,0,.233-1.05A5.644,5.644,0,0,0,308.16,100.022Z" transform="translate(-303.62 -96.69)"/>
        </g>
        <path id="Trazado_3635" data-name="Trazado 3635" d="M291.266,115.1l-4.786.538a4.754,4.754,0,0,0,9.32,1.116l-4.522-1.651" transform="translate(-229.651 -104.226)" fill="#f83f00"/>
        <path id="Trazado_3636" data-name="Trazado 3636" d="M344.439,103.838a2.578,2.578,0,0,1-.422-.17c-.266-.123-.655-.3-1.14-.494a34.817,34.817,0,0,0-3.852-1.352,35.171,35.171,0,0,0-3.99-.9c-.514-.084-.936-.144-1.226-.182a2.32,2.32,0,0,1-.449-.078,2.923,2.923,0,0,1,.458.018c.3.021.715.066,1.235.135a28.8,28.8,0,0,1,7.869,2.243c.479.215.861.4,1.122.538A2.7,2.7,0,0,1,344.439,103.838Z" transform="translate(-262.509 -94.107)" fill="#f83f00"/>
        <path id="Trazado_3637" data-name="Trazado 3637" d="M343.339,110.581a2.845,2.845,0,0,1-.422-.173c-.266-.12-.655-.3-1.14-.491a33.906,33.906,0,0,0-7.842-2.237c-.514-.084-.936-.144-1.226-.182a3.109,3.109,0,0,1-.449-.078,2.21,2.21,0,0,1,.458.018c.3.018.715.063,1.235.132a28.9,28.9,0,0,1,4.014.843,29.385,29.385,0,0,1,3.855,1.4c.479.215.861.4,1.122.538a2.221,2.221,0,0,1,.395.227Z" transform="translate(-261.738 -98.839)" fill="#f83f00"/>
        <path id="Trazado_3638" data-name="Trazado 3638" d="M342.239,117.307a2.579,2.579,0,0,1-.422-.17c-.266-.12-.655-.3-1.14-.493a35.432,35.432,0,0,0-3.852-1.361,35.822,35.822,0,0,0-3.99-.9c-.514-.081-.933-.144-1.226-.182a2.323,2.323,0,0,1-.449-.078,2.927,2.927,0,0,1,.458.018c.3.021.715.066,1.235.135a28.9,28.9,0,0,1,4.014.843,28.542,28.542,0,0,1,3.855,1.4c.479.215.861.4,1.122.538A2.37,2.37,0,0,1,342.239,117.307Z" transform="translate(-260.967 -103.541)" fill="#f83f00"/>
        <path id="Trazado_3639" data-name="Trazado 3639" d="M340.8,124.1a2.935,2.935,0,0,1-.41-.17c-.257-.123-.634-.3-1.1-.491a32.267,32.267,0,0,0-7.609-2.24c-.5-.084-.9-.144-1.2-.182a2.231,2.231,0,0,1-.437-.078,2.393,2.393,0,0,1,.446.018c.284.018.694.063,1.2.135a27.31,27.31,0,0,1,3.9.843,27.892,27.892,0,0,1,3.742,1.412c.464.215.835.4,1.083.538A2.335,2.335,0,0,1,340.8,124.1Z" transform="translate(-260.189 -108.318)" fill="#f83f00"/>
        <path id="Trazado_3640" data-name="Trazado 3640" d="M338.609,130.424a2.285,2.285,0,0,1-.368-.147l-.99-.44a24.1,24.1,0,0,0-6.825-1.947l-1.074-.15a2.417,2.417,0,0,1-.392-.069,1.694,1.694,0,0,1,.4,0c.257,0,.625.048,1.08.1a20.787,20.787,0,0,1,6.858,1.956c.416.2.745.365.972.488a1.885,1.885,0,0,1,.341.209Z" transform="translate(-259.425 -113.03)" fill="#f83f00"/>
        <path id="Trazado_3641" data-name="Trazado 3641" d="M332.705,135.363a5.082,5.082,0,0,1-.772-.159c-.473-.111-1.128-.254-1.857-.377s-1.4-.218-1.878-.3a4.612,4.612,0,0,1-.778-.135,3.648,3.648,0,0,1,.79.024c.488.042,1.158.114,1.893.242a16.892,16.892,0,0,1,1.857.425A3.468,3.468,0,0,1,332.705,135.363Z" transform="translate(-258.346 -117.741)" fill="#f83f00"/>
        <path id="Trazado_3642" data-name="Trazado 3642" d="M278.552,86.279l.251-.015.748-.024c.658,0,1.615,0,2.836.063a45.343,45.343,0,0,1,9.96,1.795l.054.018v.057c-.748,4.286-1.639,9.38-2.59,14.829-.039.221-.078.443-.117.658v.084l-.084-.021a64.682,64.682,0,0,0-6.649-1.373c-2.145-.329-4.187-.562-6.1-.682h-.075V101.6c.523-4.573.963-8.4,1.271-11.1.156-1.334.281-2.393.365-3.111.042-.353.078-.625.1-.817a1.449,1.449,0,0,1,.027-.209c.006-.054,0-.069,0-.066a.356.356,0,0,1,0,.075.887.887,0,0,1-.021.215c-.018.194-.048.473-.084.832-.075.73-.188,1.795-.329,3.129-.3,2.692-.706,6.505-1.2,11.067l-.066-.075c1.911.114,3.963.344,6.111.67a64.958,64.958,0,0,1,6.667,1.37l-.1.063c.039-.215.078-.437.117-.658.96-5.45,1.857-10.54,2.611-14.823l.045.075a46.255,46.255,0,0,0-9.924-1.834c-1.214-.081-2.177-.1-2.824-.1h-1Z" transform="translate(-222.859 -83.998)" fill="#f83f00"/>
      </g>
      <g id="freepik--Character--inject-455" transform="translate(60.946 26.973)">
        <path id="Trazado_3643" data-name="Trazado 3643" d="M242.129,207.92l10.588,2.345,1.618-2.345-.26-3.018-1.609-1.472H246.92l-5.18,4.666" transform="translate(-205.633 -158.176)" fill="#f83f00"/>
        <g id="Grupo_735" data-name="Grupo 735" transform="translate(36.107 45.254)" opacity="0.3">
          <path id="Trazado_3644" data-name="Trazado 3644" d="M242.129,207.92l10.588,2.345,1.618-2.345-.26-3.018-1.609-1.472H246.92l-5.18,4.666" transform="translate(-241.74 -203.43)"/>
        </g>
        <path id="Trazado_3645" data-name="Trazado 3645" d="M290.406,136.9l13.367-1.795,2.094-.6s4.819-1.059,5.267-1.22c.52-.185.736.021.79.215.087.3-.206.649-.649.823-.15.06-2.593.9-2.593.9a5.981,5.981,0,0,1,.826.239,2.819,2.819,0,0,1,1.424,1.831c.281.879.284,1.149-.054,1.274a.47.47,0,0,1-.389-.054.927.927,0,0,1-.4-.5c-.47-1.4-1.346-1.513-1.346-1.513l-.275.078s.9.631.9,1.4a.858.858,0,0,1-.072.326A1.158,1.158,0,0,1,308,139.822c-.191-.036-.4-.15-.428-.341a.6.6,0,0,1,.063-.3,1.388,1.388,0,0,0,.048-.159l-.8.111s-1.816.15-2.6.3L291.773,143.2a3.242,3.242,0,0,1-4.059-2.207h0a3.239,3.239,0,0,1,2.692-4.092Z" transform="translate(-237.771 -108.964)" fill="#ffbe9d"/>
        <path id="Trazado_3646" data-name="Trazado 3646" d="M342.74,138.992a.673.673,0,0,0,.577.532c.275.057.562.021.84.057.832.114,1.481.87,2.315.942.117,0,.266,0,.3-.126s-.057-.2-.138-.272l-2.094-1.845" transform="translate(-276.424 -112.512)" fill="#ffbe9d"/>
        <path id="Trazado_3647" data-name="Trazado 3647" d="M344.529,138.28a1.442,1.442,0,0,1,.245.176c.15.123.368.3.631.526l.924.793.263.23c.081.081.218.15.242.341a.236.236,0,0,1-.144.221.49.49,0,0,1-.224.036,1.671,1.671,0,0,1-.4-.081,10.67,10.67,0,0,1-1.337-.676,2.047,2.047,0,0,0-.6-.2c-.194-.03-.386-.024-.559-.036a.984.984,0,0,1-.763-.329.369.369,0,0,1-.093-.3.872.872,0,0,0,.141.251.936.936,0,0,0,.718.257,5.6,5.6,0,0,1,.574.018,2.21,2.21,0,0,1,.64.194,12.111,12.111,0,0,0,1.322.661,1.763,1.763,0,0,0,.362.072c.117,0,.215-.033.2-.093a.591.591,0,0,0-.185-.233l-.263-.233-.9-.82-.6-.562C344.592,138.367,344.52,138.289,344.529,138.28Z" transform="translate(-276.403 -112.512)" fill="#eb996e"/>
        <path id="Trazado_3648" data-name="Trazado 3648" d="M357.35,144.107a1.128,1.128,0,0,1,.526,0,.87.87,0,0,1,.458.3,2.207,2.207,0,0,1,.329.625,3.663,3.663,0,0,0,.3.664,1.166,1.166,0,0,0,.437.422.449.449,0,0,0,.41,0c.087-.045.12-.09.117-.093s-.048.024-.132.057a.446.446,0,0,1-.362-.036,1.161,1.161,0,0,1-.389-.407,3.812,3.812,0,0,1-.3-.655,2.2,2.2,0,0,0-.353-.646.936.936,0,0,0-.512-.326.855.855,0,0,0-.41,0A.724.724,0,0,0,357.35,144.107Z" transform="translate(-286.663 -116.512)" fill="#eb996e"/>
        <path id="Trazado_3649" data-name="Trazado 3649" d="M359.687,136.7a2.657,2.657,0,0,0-.488.164l-1.161.428-1.16.41a2.494,2.494,0,0,0-.479.182,2.4,2.4,0,0,0,.5-.114c.3-.087.724-.218,1.178-.383s.864-.326,1.155-.455A2.249,2.249,0,0,0,359.687,136.7Z" transform="translate(-285.998 -111.405)" fill="#eb996e"/>
        <path id="Trazado_3650" data-name="Trazado 3650" d="M354.594,146.879s.036.048.1.123a.476.476,0,0,1,.153.368.254.254,0,0,1-.159.2,1.432,1.432,0,0,1-.323.09.572.572,0,0,0-.362.191.5.5,0,0,0-.06.44.557.557,0,0,0,.3.323.674.674,0,0,0,.4.06,2.278,2.278,0,0,0,.619-.23,1.322,1.322,0,0,0,.359-.266.341.341,0,0,0,.084-.141,1.308,1.308,0,0,1-.114.111,1.5,1.5,0,0,1-.362.23,2.358,2.358,0,0,1-.6.2.55.55,0,0,1-.6-.32.4.4,0,0,1,.042-.35.482.482,0,0,1,.3-.159,1.461,1.461,0,0,0,.341-.108.338.338,0,0,0,.191-.263.511.511,0,0,0-.194-.407A.615.615,0,0,0,354.594,146.879Z" transform="translate(-284.261 -118.539)" fill="#eb996e"/>
        <path id="Trazado_3651" data-name="Trazado 3651" d="M354.548,151.013a.228.228,0,0,0-.132.063.449.449,0,0,0-.15.371.6.6,0,0,0,.356.476.972.972,0,0,0,.724,0,1.173,1.173,0,0,0,.577-.44,1.126,1.126,0,0,0,.194-.556,1.027,1.027,0,0,0-.045-.395.323.323,0,0,0-.06-.132,2.076,2.076,0,0,1,.033.517,1.107,1.107,0,0,1-.733.9.9.9,0,0,1-.652,0,.524.524,0,0,1-.323-.395.425.425,0,0,1,.1-.335C354.5,151.04,354.554,151.022,354.548,151.013Z" transform="translate(-284.502 -121.007)" fill="#eb996e"/>
        <path id="Trazado_3652" data-name="Trazado 3652" d="M346.056,145.093a.486.486,0,0,0-.087-.233.981.981,0,0,0-.488-.4v.09a2.391,2.391,0,0,0,.3-.167,2.21,2.21,0,0,0,.837-.864,5.682,5.682,0,0,1-.9.778,3.378,3.378,0,0,1-.3.167l-.1.054.108.036a1.023,1.023,0,0,1,.47.341C346.008,145.013,346.041,145.1,346.056,145.093Z" transform="translate(-278.232 -116.185)" fill="#eb996e"/>
        <path id="Trazado_3653" data-name="Trazado 3653" d="M361.272,144c-.018-.018-.159.138-.176.386s.1.419.126.4-.039-.182-.021-.4S361.3,144.015,361.272,144Z" transform="translate(-289.288 -116.518)" fill="#eb996e"/>
        <path id="Trazado_3654" data-name="Trazado 3654" d="M130.64,148.416a40.807,40.807,0,0,0-2.3-3.431,16.917,16.917,0,0,0-3.7-1.316c-.263.084-4.008.721-3.589,1.166s3.042-.039,3.042-.039l.353.176a16.054,16.054,0,0,0-2.734.634c-.476.275-.3.787.129.745s2.372-.422,2.489-.341-2.133.529-2.375.67c-.326.194-.359.772.054.745.242-.018,2.363-.565,2.363-.565a18.272,18.272,0,0,0-1.837.8.307.307,0,0,0,.3.526c.251-.054,1.439-.622,1.774-.694,0,0,.3.084.6.718.132.3.736,2.139,1.839,2.115a3.47,3.47,0,0,1,1.938.784Z" transform="translate(-121.021 -116.287)" fill="#ffbe9d"/>
        <path id="Trazado_3655" data-name="Trazado 3655" d="M121.19,147.232a1.711,1.711,0,0,0,.682.188,3.889,3.889,0,0,0,.772.033c.3-.033.6-.075.927-.123l.7-.1h-.042a9.777,9.777,0,0,0,1.615.505,10.278,10.278,0,0,0-1.558-.664h-.042l-.694.093-.918.135a4.843,4.843,0,0,1-.748,0C121.459,147.267,121.2,147.2,121.19,147.232Z" transform="translate(-121.139 -118.673)" fill="#eb996e"/>
        <path id="Trazado_3656" data-name="Trazado 3656" d="M138.089,153.553a.751.751,0,0,1-.87,0c-.266-.162-.473-.407-.727-.6-.76-.538-1.857-.41-2.593-.984-.1-.078-.2-.209-.147-.326s.2-.12.32-.117l3.084.072" transform="translate(-129.932 -121.798)" fill="#ffbe9d"/>
        <path id="Trazado_3657" data-name="Trazado 3657" d="M136.972,151.449a1.409,1.409,0,0,0-.332-.042c-.215,0-.526-.033-.9-.048l-1.349-.054H134a.6.6,0,0,0-.452.1.263.263,0,0,0-.051.3.526.526,0,0,0,.156.2,2.055,2.055,0,0,0,.386.236,11.884,11.884,0,0,0,1.6.458,2.355,2.355,0,0,1,.631.3c.179.123.329.272.482.395a1.092,1.092,0,0,0,.867.3.417.417,0,0,0,.3-.168.963.963,0,0,1-.3.1,1.071,1.071,0,0,1-.778-.335c-.141-.123-.3-.278-.479-.419a2.394,2.394,0,0,0-.667-.323,13.559,13.559,0,0,1-1.57-.461,1.974,1.974,0,0,1-.353-.212c-.1-.081-.147-.191-.093-.233a.644.644,0,0,1,.326-.048h2.638A1.26,1.26,0,0,0,136.972,151.449Z" transform="translate(-129.749 -121.635)" fill="#eb996e"/>
        <path id="Trazado_3658" data-name="Trazado 3658" d="M196.7,393.78l-.709,7.842-2.354,6.045a.808.808,0,0,0,.511,1.062h0a.807.807,0,0,0,.73-.126c1.325-1.008,6.179-4.747,6.2-5.324.024-.667,1.3-8.237,1.3-8.237Z" transform="translate(-171.876 -291.592)" fill="#f83f00"/>
        <g id="Grupo_736" data-name="Grupo 736" transform="translate(22.268 111.158)" opacity="0.6">
          <path id="Trazado_3659" data-name="Trazado 3659" d="M195.47,429.752l6.99-5.982-.036.332a1.226,1.226,0,0,1-.377.751c-.562.526-2.151,1.95-5.824,4.786a.8.8,0,0,1-.754.123Z" transform="translate(-195.47 -423.77)" fill="#fff"/>
        </g>
        <g id="Grupo_737" data-name="Grupo 737" transform="translate(27.695 108.406)" opacity="0.6">
          <path id="Trazado_3660" data-name="Trazado 3660" d="M213.858,414.618a.491.491,0,0,0-.2.619.467.467,0,0,0,.6.206.515.515,0,0,0,.215-.655.488.488,0,0,0-.661-.147" transform="translate(-213.614 -414.57)" fill="#fff"/>
        </g>
        <path id="Trazado_3661" data-name="Trazado 3661" d="M199.248,430.568c-.048.018-.176-.413-.619-.688a2.482,2.482,0,0,0-.879-.275c0-.018.1-.069.3-.075a1.257,1.257,0,0,1,.688.206,1.226,1.226,0,0,1,.47.538C199.269,430.454,199.266,430.568,199.248,430.568Z" transform="translate(-174.8 -316.649)" fill="#263238"/>
        <path id="Trazado_3662" data-name="Trazado 3662" d="M197.2,434.7c-.039.03-.263-.254-.655-.416a6.769,6.769,0,0,0-.751-.185.9.9,0,0,1,.82.027C197.049,434.308,197.241,434.684,197.2,434.7Z" transform="translate(-173.427 -319.791)" fill="#263238"/>
        <path id="Trazado_3663" data-name="Trazado 3663" d="M201.827,426.267a8.023,8.023,0,0,0-.969-.709,8.489,8.489,0,0,0-1.128-.4,2.209,2.209,0,0,1,2.1,1.113Z" transform="translate(-176.188 -313.569)" fill="#263238"/>
        <path id="Trazado_3664" data-name="Trazado 3664" d="M203.371,419.913c-.027.045-.437-.185-1-.269s-1.02,0-1.032-.051A2.01,2.01,0,0,1,203.371,419.913Z" transform="translate(-177.316 -309.583)" fill="#263238"/>
        <path id="Trazado_3665" data-name="Trazado 3665" d="M204.08,412.208a3.89,3.89,0,0,0-1.032-.3,4.025,4.025,0,0,0-1.068.141c0-.018.084-.1.278-.188a1.7,1.7,0,0,1,.8-.126,1.777,1.777,0,0,1,.775.248C204.02,412.088,204.1,412.19,204.08,412.208Z" transform="translate(-177.765 -304.173)" fill="#263238"/>
        <path id="Trazado_3666" data-name="Trazado 3666" d="M203.137,407.435a.658.658,0,0,1,.024-.3,2.094,2.094,0,0,1,.323-.748.939.939,0,0,1,.44-.392.329.329,0,0,1,.356.114.526.526,0,0,1,.084.368,1.142,1.142,0,0,1-1.113.936,1.325,1.325,0,0,1-1.214-.835.467.467,0,0,1,.021-.383.32.32,0,0,1,.35-.129,1.1,1.1,0,0,1,.485.326,2.277,2.277,0,0,1,.467.67.739.739,0,0,1,.09.284,3.71,3.71,0,0,0-.64-.867,1.038,1.038,0,0,0-.431-.272.17.17,0,0,0-.191.069.317.317,0,0,0,0,.251,1.176,1.176,0,0,0,1.059.712.99.99,0,0,0,.957-.781.38.38,0,0,0-.048-.257.173.173,0,0,0-.194-.066.814.814,0,0,0-.38.323A3.054,3.054,0,0,0,203.137,407.435Z" transform="translate(-177.783 -300.145)" fill="#263238"/>
        <path id="Trazado_3667" data-name="Trazado 3667" d="M208.318,274.885l5.871-46.5-1.878-10.809-11.067.6-1.385,55.848a.846.846,0,0,0,.688.858l6.449,1a1.157,1.157,0,0,0,1.322-1Z" transform="translate(-176.278 -168.094)" fill="#263238"/>
        <path id="Trazado_3668" data-name="Trazado 3668" d="M236.224,224.418l10.681,10.57-15.365,3.736,1.092,7.753,20.8-2.829a6.556,6.556,0,0,0,4.427-2.659h0a6.544,6.544,0,0,0,.1-7.513L241.754,209.69l-7.238,2.36Z" transform="translate(-198.484 -162.564)" fill="#263238"/>
        <path id="Trazado_3669" data-name="Trazado 3669" d="M245.23,249.94a6.03,6.03,0,0,1,.371,1.328,5.825,5.825,0,0,1,.218,1.361,6.3,6.3,0,0,1-.371-1.328A6.231,6.231,0,0,1,245.23,249.94Z" transform="translate(-208.079 -190.775)" fill="#455a64"/>
        <path id="Trazado_3670" data-name="Trazado 3670" d="M229.438,267.589l.254-.084.748-.233,2.865-.87,10.427-3.135-.027.1-12.82-13.654.135-.042c-.254,2.145-.52,4.385-.79,6.67-1.322,11.067-2.566,21.093-3.526,28.337-.479,3.622-.9,6.55-1.2,8.572-.17,1-.3,1.795-.4,2.318-.054.26-.1.458-.129.6s-.048.2-.048.2a.976.976,0,0,1,.033-.206c.033-.135.066-.341.114-.6.108-.526.209-1.313.371-2.321.3-2.025.694-4.953,1.155-8.578.936-7.244,2.16-17.267,3.482-28.34.272-2.285.538-4.525.793-6.67l.018-.165.114.12,12.787,13.678.066.072-.093.027-10.442,3.087-2.877.84-.751.215A.834.834,0,0,1,229.438,267.589Z" transform="translate(-193.851 -190.459)" fill="#455a64"/>
        <path id="Trazado_3671" data-name="Trazado 3671" d="M228.468,302.991c-.042,0,1.178-9.87,2.725-22.041s2.835-22.026,2.877-22.02-1.175,9.87-2.722,22.041S228.512,302.994,228.468,302.991Z" transform="translate(-196.329 -197.076)" fill="#455a64"/>
        <path id="Trazado_3672" data-name="Trazado 3672" d="M241.41,233.49a3.59,3.59,0,0,1,.245.721c.132.449.3,1.08.449,1.78s.266,1.34.335,1.795a3.458,3.458,0,0,1,.075.757,3.875,3.875,0,0,1-.182-.739c-.111-.511-.239-1.119-.38-1.795s-.3-1.274-.4-1.795A3.589,3.589,0,0,1,241.41,233.49Z" transform="translate(-205.402 -179.245)" fill="#455a64"/>
        <path id="Trazado_3673" data-name="Trazado 3673" d="M243.132,230.248a.421.421,0,0,1,.434-.048.506.506,0,0,1,.323.383.553.553,0,0,1-.242.568.536.536,0,0,1-.6-.063.455.455,0,0,1-.138-.482.446.446,0,0,1,.2-.266c.069-.039.114-.039.117-.03a.6.6,0,0,0-.209.32.344.344,0,0,0,.123.347.407.407,0,0,0,.443.039.425.425,0,0,0,.179-.41.4.4,0,0,0-.227-.3A.8.8,0,0,0,243.132,230.248Z" transform="translate(-206.439 -176.915)" fill="#455a64"/>
        <path id="Trazado_3674" data-name="Trazado 3674" d="M286.119,296.066c-.033.033-.634-.52-1.5-1.017s-1.639-.754-1.624-.8a4.652,4.652,0,0,1,1.7.664A4.708,4.708,0,0,1,286.119,296.066Z" transform="translate(-234.551 -221.832)" fill="#455a64"/>
        <path id="Trazado_3675" data-name="Trazado 3675" d="M201.882,106.907l-6.132,2.961,2.644,18.449-1.038,8.279a3.23,3.23,0,0,0,1.08,2.838h0l9.9-.194,6.927-3.8,3.185-.538-1.3-6.3.6-8.94,7.247,3.867a2.521,2.521,0,0,0,1.821.218l13.277-3.449-.691-5.121-12.03,1.361-9.161-8.094-6.82-1.534-1.208-2.007H203.2l-.5.365a1.474,1.474,0,0,0-.505.691Z" transform="translate(-173.398 -89.116)" fill="#f83f00"/>
        <path id="Trazado_3676" data-name="Trazado 3676" d="M158.2,121.51a7.361,7.361,0,0,0-2.761,3.589c-.7,2.177-2.282,10.98-2.282,10.98l-6.966-4.313-4.014,4.22,9.272,8.189a4.723,4.723,0,0,0,5.171.715h0a4.726,4.726,0,0,0,2.629-3.616l1.14-8.348Z" transform="translate(-135.851 -100.758)" fill="#f83f00"/>
        <path id="Trazado_3677" data-name="Trazado 3677" d="M251.959,208.2l-.431-.634-4.585.846-.843,1.953Z" transform="translate(-208.689 -161.078)" fill="#ffbe9d"/>
        <path id="Trazado_3678" data-name="Trazado 3678" d="M204.73,187.1a14.516,14.516,0,0,0,12.374-1.026c1.178-.625,2.27-1.4,3.455-2.016a7.319,7.319,0,0,1,3.825-.975,3.744,3.744,0,0,1,3.2,2.049,2.554,2.554,0,0,1-1.253,3.344l.443.395a3.973,3.973,0,0,0,1.816-5.154c-.688-1.394-2.136-2.228-3.194-3.368-1.558-1.675-1.72-4.917-1.732-7.442" transform="translate(-179.693 -136.785)" fill="#f83f00"/>
        <path id="Trazado_3679" data-name="Trazado 3679" d="M221.8,115.143a1.862,1.862,0,0,1-.3,0,1.161,1.161,0,0,0-.727.335,1.711,1.711,0,0,0-.362,1.17,3.966,3.966,0,0,0,.332,1.57l.117.257-.224-.167a12.068,12.068,0,0,1-1.546-1.367,11.392,11.392,0,0,1-2.375-3.637,8.309,8.309,0,0,1-.386-1.262,3.2,3.2,0,0,1-.069-.482,14.21,14.21,0,0,0,.556,1.7,11.988,11.988,0,0,0,2.393,3.571,12.7,12.7,0,0,0,1.519,1.355l-.111.093a3.547,3.547,0,0,1-.254-.84,3.674,3.674,0,0,1-.069-.793,1.765,1.765,0,0,1,.422-1.232,1.152,1.152,0,0,1,.787-.32,1.3,1.3,0,0,1,.3.048Z" transform="translate(-187.774 -93.784)" fill="#263238"/>
        <path id="Trazado_3680" data-name="Trazado 3680" d="M236,112.234a1.605,1.605,0,0,1,1.615.514c.239.275.374.652.688.832a2.231,2.231,0,0,0,1.6.1s.176-.852.272-1.2a26.48,26.48,0,0,0,.679-4.092c-.963-.47-.7-1.086-2.435-.966a4.42,4.42,0,0,1,.063,2.447" transform="translate(-201.61 -90.875)" fill="#f83f00"/>
        <path id="Trazado_3681" data-name="Trazado 3681" d="M238.552,109.692c-.018,0,.063-.23.1-.655a4.8,4.8,0,0,0-.215-1.774l-.021-.072h.072a2.967,2.967,0,0,1,1.28.114,1.947,1.947,0,0,1,.6.428,2.342,2.342,0,0,0,.6.413l.048.024v.051c-.078.727-.164,1.519-.3,2.339-.09.535-.2,1.053-.323,1.546s-.224.969-.329,1.418v.03l-.018.015a.951.951,0,0,1-.514.123,3.14,3.14,0,0,1-.479-.03,3.058,3.058,0,0,1-.449-.1.963.963,0,0,1-.392-.212,3.961,3.961,0,0,1-.461-.634,1.621,1.621,0,0,0-.473-.428,1.687,1.687,0,0,0-.861-.269,1.727,1.727,0,0,0-.323.048.67.67,0,0,1,.323-.093,1.636,1.636,0,0,1,.9.239,1.666,1.666,0,0,1,.512.443,3.916,3.916,0,0,0,.458.6,1.466,1.466,0,0,0,.778.269,2.9,2.9,0,0,0,.458.024.865.865,0,0,0,.431-.1l-.027.042c.1-.452.2-.936.32-1.427s.23-1,.317-1.537c.138-.814.227-1.6.3-2.327l.042.075a2.54,2.54,0,0,1-.646-.44,1.761,1.761,0,0,0-.547-.407,2.938,2.938,0,0,0-1.22-.126l.051-.075a4.664,4.664,0,0,1,.171,1.816,3.332,3.332,0,0,1-.1.488A.691.691,0,0,1,238.552,109.692Z" transform="translate(-201.673 -90.705)" fill="#263238"/>
        <path id="Trazado_3682" data-name="Trazado 3682" d="M247.844,150.4v-.341a2.115,2.115,0,0,0-.3-.924,3.11,3.11,0,0,0-1.1-1.062,4.642,4.642,0,0,0-1.962-.538c-.76-.069-1.6-.027-2.509-.09a9.461,9.461,0,0,1-2.829-.6,5.839,5.839,0,0,1-2.551-1.908,4.442,4.442,0,0,1-.733-1.534,5.869,5.869,0,0,1-.168-1.744,29.347,29.347,0,0,1,.482-3.395,25.846,25.846,0,0,0,.3-3.158,26.2,26.2,0,0,0-1.277-8.877c-.126-.41-.242-.721-.317-.933-.036-.1-.063-.182-.084-.245a.359.359,0,0,1-.024-.084.7.7,0,0,1,.039.078c.024.054.057.141.1.239.084.209.209.517.347.927a24.828,24.828,0,0,1,.933,3.517,26.023,26.023,0,0,1,.428,5.384,25.591,25.591,0,0,1-.3,3.179,31.008,31.008,0,0,0-.476,3.377,4.857,4.857,0,0,0,.867,3.182,5.684,5.684,0,0,0,2.483,1.863,9.329,9.329,0,0,0,2.785.6c.9.066,1.741.033,2.512.111a4.7,4.7,0,0,1,2.016.583,3.113,3.113,0,0,1,1.107,1.107,2.049,2.049,0,0,1,.275.951,1.234,1.234,0,0,1-.015.26A.284.284,0,0,1,247.844,150.4Z" transform="translate(-200.748 -103.183)" fill="#263238"/>
        <path id="Trazado_3683" data-name="Trazado 3683" d="M236.837,191.79a2.664,2.664,0,0,1-.344.359c-.114.111-.257.245-.431.392s-.365.323-.6.493a16.359,16.359,0,0,1-1.654,1.146,16.9,16.9,0,0,1-4.534,1.9,16.1,16.1,0,0,1-1.977.374c-.284.045-.541.06-.769.078s-.422.03-.583.033a2.894,2.894,0,0,1-.5,0,3.447,3.447,0,0,1,.494-.057,4.774,4.774,0,0,0,.577-.057c.224-.03.482-.048.763-.1a18.574,18.574,0,0,0,1.956-.407,19.415,19.415,0,0,0,2.312-.787,19.03,19.03,0,0,0,2.183-1.1,18.6,18.6,0,0,0,1.663-1.107c.23-.165.428-.332.6-.473s.326-.266.446-.371A3.546,3.546,0,0,1,236.837,191.79Z" transform="translate(-194.215 -150.017)" fill="#263238"/>
        <path id="Trazado_3684" data-name="Trazado 3684" d="M233.313,159a.577.577,0,0,1-.027.165l-.1.467a6.581,6.581,0,0,1-.2.73c-.09.281-.176.6-.317.951-.069.173-.138.356-.209.544s-.17.377-.257.577c-.173.4-.4.811-.631,1.244a17.256,17.256,0,0,1-4.092,4.878c-.389.3-.751.6-1.119.837-.179.123-.35.248-.523.356l-.5.3a8.859,8.859,0,0,1-.882.482,7.175,7.175,0,0,1-.682.32l-.443.185a.91.91,0,0,1-.159.054.734.734,0,0,1,.147-.084l.428-.209c.188-.087.416-.2.67-.344s.556-.3.864-.5l.491-.3c.17-.108.338-.236.517-.359.359-.242.715-.538,1.1-.843a19.536,19.536,0,0,0,2.246-2.237,19.859,19.859,0,0,0,1.813-2.6c.233-.431.464-.832.637-1.229.093-.2.188-.386.266-.571l.215-.538c.15-.338.242-.658.338-.936s.17-.52.224-.721l.132-.458A.6.6,0,0,1,233.313,159Z" transform="translate(-192.617 -127.035)" fill="#263238"/>
        <path id="Trazado_3685" data-name="Trazado 3685" d="M210.7,215.89a1.794,1.794,0,0,1-.547-.407,4.137,4.137,0,0,1-1.247-2.97,1.873,1.873,0,0,1,.09-.673,6.308,6.308,0,0,1,.021.67,4.687,4.687,0,0,0,1.217,2.9C210.511,215.71,210.726,215.869,210.7,215.89Z" transform="translate(-182.617 -164.07)" fill="#263238"/>
        <path id="Trazado_3686" data-name="Trazado 3686" d="M213.809,217.59c.045,0-.039.4,0,.867s.185.837.144.858a1.8,1.8,0,0,1-.147-1.726Z" transform="translate(-185.945 -168.101)" fill="#263238"/>
        <path id="Trazado_3687" data-name="Trazado 3687" d="M198.26,149.107a.479.479,0,0,1-.036-.141c-.021-.111-.045-.245-.075-.407-.063-.377-.15-.9-.251-1.5-.209-1.265-.508-3.012-.867-4.935s-.709-3.664-.957-4.923c-.126-.6-.23-1.113-.3-1.5-.033-.161-.057-.3-.078-.4a.452.452,0,0,1-.018-.147.57.57,0,0,1,.048.138c.03.111.063.242.1.4.09.347.212.852.356,1.478.3,1.25.655,2.991,1.017,4.911s.637,3.679.82,4.947c.093.637.161,1.152.2,1.5.018.165.033.3.045.413A.479.479,0,0,1,198.26,149.107Z" transform="translate(-173.348 -110.326)" fill="#263238"/>
        <path id="Trazado_3688" data-name="Trazado 3688" d="M268.275,147.747a.832.832,0,0,1-.015-.147v-1.989c0-1.319.072-3.141.224-5.148s.353-3.82.508-5.13c.081-.637.147-1.161.2-1.549q.036-.251.063-.422a.7.7,0,0,1,.03-.144.473.473,0,0,1,0,.15c0,.114-.021.254-.033.422-.036.392-.087.915-.147,1.555-.129,1.31-.3,3.123-.464,5.13s-.227,3.823-.269,5.139c-.018.64-.033,1.167-.045,1.561l-.015.425A.48.48,0,0,1,268.275,147.747Z" transform="translate(-224.221 -108.966)" fill="#263238"/>
        <path id="Trazado_3689" data-name="Trazado 3689" d="M181.745,174.48c-.051.021-.446-1.068-1.2-2.252a15.235,15.235,0,0,0-1.621-1.968,2.746,2.746,0,0,1,.6.476,8.223,8.223,0,0,1,1.166,1.406,9.737,9.737,0,0,1,.838,1.621A3.015,3.015,0,0,1,181.745,174.48Z" transform="translate(-161.607 -134.927)" fill="#263238"/>
        <path id="Trazado_3690" data-name="Trazado 3690" d="M182.255,173.138a5.713,5.713,0,0,1-.335-.6,4.63,4.63,0,0,0-1.035-1.2,6.55,6.55,0,0,0-1.367-.834,3.941,3.941,0,0,1-.6-.3,2.345,2.345,0,0,1,.649.191,5.237,5.237,0,0,1,1.424.817,4.019,4.019,0,0,1,1.032,1.277A1.951,1.951,0,0,1,182.255,173.138Z" transform="translate(-161.602 -134.892)" fill="#263238"/>
        <path id="Trazado_3691" data-name="Trazado 3691" d="M188.227,146.813a.755.755,0,0,1-.063.132,1.283,1.283,0,0,1-.272.32,1.816,1.816,0,0,1-1.466.395,2.838,2.838,0,0,1-1.842-1.3,6.342,6.342,0,0,1-.6-1.2c-.084-.218-.167-.44-.239-.673a1.861,1.861,0,0,1-.084-.754,1.038,1.038,0,0,1,.365-.679.864.864,0,0,1,.739-.132,1.454,1.454,0,0,1,.984.933,1.4,1.4,0,0,1-.123,1.223,1.528,1.528,0,0,1-.852.655,1.355,1.355,0,0,1-.9-.042,1.5,1.5,0,0,1-.553-.377,1.166,1.166,0,0,1-.233-.35c-.039-.09-.051-.138-.045-.141a1.912,1.912,0,0,0,.32.449,1.517,1.517,0,0,0,.541.338,1.3,1.3,0,0,0,.822.018,1.415,1.415,0,0,0,.775-.616,1.271,1.271,0,0,0,.1-1.107,1.3,1.3,0,0,0-.9-.835.712.712,0,0,0-.6.108.874.874,0,0,0-.3.574,3.222,3.222,0,0,0,.3,1.349,5.983,5.983,0,0,0,.6,1.2,2.761,2.761,0,0,0,1.741,1.274,1.794,1.794,0,0,0,1.409-.335A2.26,2.26,0,0,0,188.227,146.813Z" transform="translate(-164.494 -115.746)" fill="#fafafa"/>
        <path id="Trazado_3692" data-name="Trazado 3692" d="M210.911,144.752l-.084.069c-.06.051-.144.114-.248.194a6.61,6.61,0,0,1-1.029.646,3.149,3.149,0,0,1-.84.281,2.2,2.2,0,0,1-1.05-.069,3.7,3.7,0,0,1-1.893-1.669,6.1,6.1,0,0,1,.054-6.356,3.29,3.29,0,0,1,1.409-1.316,1.836,1.836,0,0,1,1.008-.129,1.379,1.379,0,0,1,.9.511,1.466,1.466,0,0,1,.281,1.02,2.3,2.3,0,0,1-.323,1.017,3.323,3.323,0,0,1-1.663,1.349,4.28,4.28,0,0,1-2.136.221,4.382,4.382,0,0,1-1.923-.8,6.6,6.6,0,0,1-2.264-3.171,3.853,3.853,0,0,1-.275-1.816,1.819,1.819,0,0,1,.35-.826,1.256,1.256,0,0,1,.73-.476,1.6,1.6,0,0,1,1.5.52,1.708,1.708,0,0,1,.362,1.433,2.27,2.27,0,0,1-.613,1.2,2.908,2.908,0,0,1-1.011.661,4.556,4.556,0,0,1-1.9.3,10.964,10.964,0,0,1-1.2-.123l-.314-.051-.1-.021h.108l.314.036c.275.027.682.081,1.2.093a4.621,4.621,0,0,0,1.866-.3,2.8,2.8,0,0,0,.972-.649,2.175,2.175,0,0,0,.577-1.158,1.6,1.6,0,0,0-.344-1.337,1.5,1.5,0,0,0-1.388-.473,1.376,1.376,0,0,0-.972,1.2,3.637,3.637,0,0,0,.275,1.747,6.461,6.461,0,0,0,2.213,3.1,4.268,4.268,0,0,0,1.86.766,4.1,4.1,0,0,0,2.055-.212,3.146,3.146,0,0,0,1.585-1.28,2.184,2.184,0,0,0,.3-.951,1.3,1.3,0,0,0-.248-.912,1.241,1.241,0,0,0-.808-.458,1.7,1.7,0,0,0-.927.117,3.149,3.149,0,0,0-1.343,1.256,5.853,5.853,0,0,0-.912,3.32,5.931,5.931,0,0,0,.829,2.9,3.619,3.619,0,0,0,1.827,1.642,2.471,2.471,0,0,0,1.836-.182,7.331,7.331,0,0,0,1.038-.619l.257-.179A.5.5,0,0,1,210.911,144.752Z" transform="translate(-175.417 -109.099)" fill="#fafafa"/>
        <path id="Trazado_3693" data-name="Trazado 3693" d="M198.166,115.219a1.011,1.011,0,0,1-.1.266,4.1,4.1,0,0,1-.386.673,4.911,4.911,0,0,1-4.433,2.115,4.081,4.081,0,0,1-.763-.123.9.9,0,0,1-.269-.1c0-.027.395.087,1.038.111a5.148,5.148,0,0,0,4.34-2.07C197.984,115.581,198.136,115.2,198.166,115.219Z" transform="translate(-170.924 -96.349)" fill="#fafafa"/>
        <path id="Trazado_3694" data-name="Trazado 3694" d="M223.582,119.407a2.761,2.761,0,0,0-.843.416,2.72,2.72,0,0,0-.547.766c-.018,0-.024-.12.036-.3a1.4,1.4,0,0,1,1.059-.9C223.468,119.365,223.582,119.389,223.582,119.407Z" transform="translate(-191.922 -99.265)" fill="#fafafa"/>
        <path id="Trazado_3695" data-name="Trazado 3695" d="M243.921,119.082a.64.64,0,0,1-.254-.117,2.069,2.069,0,0,1-.562-.517,2.043,2.043,0,0,1-.416-1.059,1.011,1.011,0,0,1,.185-.673.691.691,0,0,1,.691-.3.763.763,0,0,1,.544.523.715.715,0,0,1-.138.688.966.966,0,0,1-1.083.3,1.236,1.236,0,0,1-.6-.491.6.6,0,0,1-.111-.257,2.548,2.548,0,0,0,.161.221,1.248,1.248,0,0,0,.577.422.859.859,0,0,0,.936-.272.58.58,0,0,0,.1-.553.625.625,0,0,0-.434-.416.541.541,0,0,0-.538.233.9.9,0,0,0-.161.571,2,2,0,0,0,.362,1A3.1,3.1,0,0,0,243.921,119.082Z" transform="translate(-205.941 -97.182)" fill="#fafafa"/>
        <path id="Trazado_3696" data-name="Trazado 3696" d="M246.876,111.369a3.789,3.789,0,0,0-.99-.691,3.889,3.889,0,0,0-1.2-.2c0-.018.129-.072.359-.087a1.959,1.959,0,0,1,.9.147,2.037,2.037,0,0,1,.736.517C246.838,111.226,246.894,111.36,246.876,111.369Z" transform="translate(-207.701 -92.959)" fill="#fafafa"/>
        <path id="Trazado_3697" data-name="Trazado 3697" d="M252.964,119.568a.374.374,0,0,1-.057.036l-.179.1a7.194,7.194,0,0,1-.721.3,8.693,8.693,0,0,1-2.818.529,4.117,4.117,0,0,1-.957-.093,2.093,2.093,0,0,1-.942-.461,1.4,1.4,0,0,1-.464-1.023,1.738,1.738,0,0,1,.4-1.125,2.312,2.312,0,0,1,2.393-.6,2.782,2.782,0,0,1,1.908,1.848,2.731,2.731,0,0,1-.571,2.593,4.188,4.188,0,0,1-2.213,1.2,12.924,12.924,0,0,1-2.27.23,12.43,12.43,0,0,0-1.959.191,3.973,3.973,0,0,0-2.408,1.373,2.861,2.861,0,0,0-.461.93.2.2,0,0,1,0-.069.791.791,0,0,1,.048-.2,2.526,2.526,0,0,1,.353-.7,3.975,3.975,0,0,1,2.438-1.445,11.964,11.964,0,0,1,1.974-.212,12.76,12.76,0,0,0,2.243-.239,4.064,4.064,0,0,0,2.133-1.155,2.578,2.578,0,0,0,.535-2.447,2.629,2.629,0,0,0-1.795-1.747,2.177,2.177,0,0,0-2.231.556,1.591,1.591,0,0,0-.371,1.032,1.262,1.262,0,0,0,.413.93,2,2,0,0,0,.9.44,4,4,0,0,0,.927.1,9.064,9.064,0,0,0,2.8-.476c.317-.111.559-.209.724-.278A1.762,1.762,0,0,1,252.964,119.568Z" transform="translate(-205.563 -97.676)" fill="#fafafa"/>
        <path id="Trazado_3698" data-name="Trazado 3698" d="M244.825,160.007c-.027,0-.129-.251-.4-.6a3.075,3.075,0,0,0-3.054-1.152c-.434.084-.685.209-.7.185a1.615,1.615,0,0,1,.673-.3,2.952,2.952,0,0,1,3.171,1.2,1.612,1.612,0,0,1,.311.667Z" transform="translate(-204.883 -126.37)" fill="#fafafa"/>
        <path id="Trazado_3699" data-name="Trazado 3699" d="M256.4,172.148a1.456,1.456,0,0,1-.41.6,2.509,2.509,0,0,1-3.29.26,1.5,1.5,0,0,1-.5-.532c.021-.021.191.2.562.44a2.629,2.629,0,0,0,1.612.419,2.659,2.659,0,0,0,1.528-.667C256.241,172.378,256.375,172.13,256.4,172.148Z" transform="translate(-212.964 -136.25)" fill="#fafafa"/>
        <path id="Trazado_3700" data-name="Trazado 3700" d="M261.97,151.325c0,.024-.195-.087-.512-.17a2.2,2.2,0,0,0-2.291.733c-.209.254-.3.446-.317.437a1.058,1.058,0,0,1,.23-.5,2.094,2.094,0,0,1,2.411-.772A1.065,1.065,0,0,1,261.97,151.325Z" transform="translate(-217.625 -121.379)" fill="#fafafa"/>
        <path id="Trazado_3701" data-name="Trazado 3701" d="M286.92,141.893a1.561,1.561,0,0,1,.054.221,1.581,1.581,0,0,1,.036.275,2.181,2.181,0,0,1,0,.38,3.769,3.769,0,0,1-.858,2.228,3.928,3.928,0,0,1-1.277,1.068,3.972,3.972,0,0,1-1.866.428,5.025,5.025,0,0,1-3.843-1.9,3.025,3.025,0,0,1-.541-1.038,1.972,1.972,0,0,1,.018-1.14,1.469,1.469,0,0,1,.7-.855,1.6,1.6,0,0,1,1.053-.123,1.756,1.756,0,0,1,.9.47,2.1,2.1,0,0,1,.491.811,2.731,2.731,0,0,1-.015,1.669,3.15,3.15,0,0,1-.706,1.2,3.29,3.29,0,0,1-.823.634,3.15,3.15,0,0,1-.6.245,1.494,1.494,0,0,1-.227.042,4.436,4.436,0,0,0,.808-.338,3.23,3.23,0,0,0,1.454-1.795,2.635,2.635,0,0,0,0-1.594,1.911,1.911,0,0,0-.464-.754,1.63,1.63,0,0,0-.82-.428,1.474,1.474,0,0,0-.957.114,1.31,1.31,0,0,0-.622.772,1.794,1.794,0,0,0-.015,1.05,2.826,2.826,0,0,0,.514.984,4.908,4.908,0,0,0,3.721,1.851,3.909,3.909,0,0,0,3.954-3.58A6,6,0,0,0,286.92,141.893Z" transform="translate(-231.431 -114.698)" fill="#fafafa"/>
        <path id="Trazado_3702" data-name="Trazado 3702" d="M312.868,148.866a.85.85,0,0,1-.182-.206,2.148,2.148,0,0,1-.326-.676,2.761,2.761,0,0,1-.045-1.113,10.211,10.211,0,0,1,.3-1.322,9.491,9.491,0,0,1,1.071-2.207c.167-.263.3-.476.413-.616a1.075,1.075,0,0,1,.171-.215,7.155,7.155,0,0,1-.488.9,11.066,11.066,0,0,0-1.017,2.2,12.218,12.218,0,0,0-.3,1.3,2.8,2.8,0,0,0,0,1.065A3.982,3.982,0,0,0,312.868,148.866Z" transform="translate(-255.073 -115.477)" fill="#fafafa"/>
        <path id="Trazado_3703" data-name="Trazado 3703" d="M330.323,140.75a.731.731,0,0,1,.09.215,3.741,3.741,0,0,1,.15.613,5.482,5.482,0,0,1-.894,4,3.67,3.67,0,0,1-.395.494c-.1.108-.165.165-.173.159s.2-.266.476-.712a6.257,6.257,0,0,0,.769-1.887,6.168,6.168,0,0,0,.1-2.034C330.392,141.073,330.3,140.759,330.323,140.75Z" transform="translate(-266.863 -114.244)" fill="#fafafa"/>
        <path id="Trazado_3704" data-name="Trazado 3704" d="M250.263,185.211a.674.674,0,0,1-.129-.069,3.8,3.8,0,0,0-.365-.2,4.327,4.327,0,0,0-1.46-.41,4.429,4.429,0,0,0-2.2.353,3.769,3.769,0,0,0-1.1.727,2.246,2.246,0,0,0-.431.532,1.068,1.068,0,0,0-.15.658.784.784,0,0,0,.317.562.64.64,0,0,0,.6.027,1.071,1.071,0,0,0,.556-1.05,2.127,2.127,0,0,0-1.11-1.795,2.174,2.174,0,0,0-1.466-.191,5.162,5.162,0,0,0-.532.171.519.519,0,0,1,.126-.081,2.093,2.093,0,0,1,.392-.15,2.18,2.18,0,0,1,1.531.156,2.231,2.231,0,0,1,1.2,1.893,1.589,1.589,0,0,1-.129.676,1.008,1.008,0,0,1-.509.517.793.793,0,0,1-.757-.039.936.936,0,0,1-.389-.673,1.2,1.2,0,0,1,.171-.751,2.325,2.325,0,0,1,.461-.568,3.889,3.889,0,0,1,1.146-.748,4.486,4.486,0,0,1,2.264-.332,4.022,4.022,0,0,1,1.475.467,2.634,2.634,0,0,1,.356.224C250.227,185.172,250.269,185.205,250.263,185.211Z" transform="translate(-206.376 -144.716)" fill="#fafafa"/>
        <path id="Trazado_3705" data-name="Trazado 3705" d="M269.372,195.787a1.947,1.947,0,0,1-.362.685c-.236.356-.455.625-.491.6a1.947,1.947,0,0,1,.362-.685C269.118,196.032,269.337,195.763,269.372,195.787Z" transform="translate(-224.403 -152.818)" fill="#fafafa"/>
        <path id="Trazado_3706" data-name="Trazado 3706" d="M280.117,207.658c-.024,0-.066-.1-.171-.26a1.546,1.546,0,0,0-1.217-.676,1.567,1.567,0,0,1-.3,0,.486.486,0,0,1,.3-.1,1.361,1.361,0,0,1,1.316.733C280.129,207.526,280.135,207.655,280.117,207.658Z" transform="translate(-231.349 -160.409)" fill="#fafafa"/>
        <path id="Trazado_3707" data-name="Trazado 3707" d="M232.989,205c0,.021-.359.2-.936.535a8.092,8.092,0,0,0-2.034,1.57,4.34,4.34,0,0,0-1.08,2.285,5.4,5.4,0,0,0,.018,1.068.9.9,0,0,1-.084-.281,2.71,2.71,0,0,1-.042-.8A4.187,4.187,0,0,1,229.9,207,7.34,7.34,0,0,1,232,205.437c.3-.153.544-.266.715-.341a.943.943,0,0,1,.278-.1Z" transform="translate(-196.577 -159.276)" fill="#fafafa"/>
        <path id="Trazado_3708" data-name="Trazado 3708" d="M256.088,203.112a1.086,1.086,0,0,1-.326-.359,2,2,0,0,1,.188-2.234.876.876,0,0,1,.38-.3c.018.024-.129.135-.3.368a2.148,2.148,0,0,0-.177,2.115C255.983,202.957,256.109,203.094,256.088,203.112Z" transform="translate(-215.282 -155.926)" fill="#fafafa"/>
        <path id="Trazado_3709" data-name="Trazado 3709" d="M212.312,189.859a1.8,1.8,0,0,0-.173-.173,1.232,1.232,0,0,0-.622-.275,1.555,1.555,0,0,0-1.044.215,3.191,3.191,0,0,0-.99,1.047c-.3.455-.544,1-.924,1.534a3.269,3.269,0,0,1-1.648,1.232,3.06,3.06,0,0,1-2.264-.132,3.242,3.242,0,0,1-1.666-1.777,1.935,1.935,0,0,1-.051-1.259,1.756,1.756,0,0,1,.778-.951,1.8,1.8,0,0,1,1.155-.266,1.914,1.914,0,0,1,1.026.488,2.509,2.509,0,0,1,.811,1.881,3.1,3.1,0,0,1-.556,1.708,3.479,3.479,0,0,1-1.083,1.017,4.37,4.37,0,0,1-1.026.449,4.847,4.847,0,0,1-.691.144l-.182.021h-.066a1.709,1.709,0,0,1,.242-.051,5.256,5.256,0,0,0,.679-.173,4.377,4.377,0,0,0,1-.464,3.407,3.407,0,0,0,1.035-1,3.012,3.012,0,0,0,.52-1.648,2.393,2.393,0,0,0-.778-1.774,1.753,1.753,0,0,0-.948-.446,1.657,1.657,0,0,0-1.059.245,1.636,1.636,0,0,0-.709.87,1.8,1.8,0,0,0,.051,1.16,3.108,3.108,0,0,0,1.585,1.69,2.9,2.9,0,0,0,2.154.132,3.131,3.131,0,0,0,1.588-1.172c.374-.511.631-1.059.936-1.516a3.245,3.245,0,0,1,1.041-1.062,1.6,1.6,0,0,1,1.095-.2,1.224,1.224,0,0,1,.634.3A.757.757,0,0,1,212.312,189.859Z" transform="translate(-178.373 -148.093)" fill="#fafafa"/>
        <path id="Trazado_3710" data-name="Trazado 3710" d="M231.644,198.554a1.373,1.373,0,0,1-.482-.38,3.29,3.29,0,0,1-.829-2.776,1.433,1.433,0,0,1,.194-.6c.027,0-.045.23-.084.6a3.649,3.649,0,0,0,.8,2.692C231.48,198.386,231.662,198.533,231.644,198.554Z" transform="translate(-197.607 -152.127)" fill="#fafafa"/>
        <path id="Trazado_3711" data-name="Trazado 3711" d="M213.646,175.99s-.209-.1-.6-.254a7.179,7.179,0,0,0-4.307-.323,5.869,5.869,0,0,0-1.436.538.966.966,0,0,0-.476.568.544.544,0,0,0,.3.6.317.317,0,0,0,.3-.1.745.745,0,0,0,.179-.332,2.739,2.739,0,0,0,.069-.8,3.56,3.56,0,0,0-.383-1.469,3.434,3.434,0,0,0-.843-1.086,3.378,3.378,0,0,0-1.044-.6,3.661,3.661,0,0,0-1.732-.173c-.413.066-.631.159-.634.144a.6.6,0,0,1,.153-.072,3.326,3.326,0,0,1,2.252,0,3.508,3.508,0,0,1,1.089.6,3.59,3.59,0,0,1,.9,1.119,3.692,3.692,0,0,1,.407,1.528,2.9,2.9,0,0,1-.072.843.945.945,0,0,1-.218.4.479.479,0,0,1-.467.135.6.6,0,0,1-.356-.32.786.786,0,0,1-.066-.461,1.11,1.11,0,0,1,.55-.67,5.777,5.777,0,0,1,1.481-.544,7.089,7.089,0,0,1,2.65-.1,6.661,6.661,0,0,1,1.714.5,4.235,4.235,0,0,1,.443.227Q213.652,175.981,213.646,175.99Z" transform="translate(-178.508 -136.457)" fill="#fafafa"/>
        <path id="Trazado_3712" data-name="Trazado 3712" d="M154.438,168.687a5.541,5.541,0,0,0,.482-.443,4.155,4.155,0,0,0,.939-1.5,3.248,3.248,0,0,0-.075-2.53,3.2,3.2,0,0,0-.954-1.178,2.692,2.692,0,0,0-1.5-.565,1.726,1.726,0,0,0-.79.164,1.011,1.011,0,0,0-.526.535.769.769,0,0,0,.108.694,1.127,1.127,0,0,0,.565.422,1.552,1.552,0,0,0,1.3-.221,2.178,2.178,0,0,0,.787-.9,4.532,4.532,0,0,0,.374-1.717,3.3,3.3,0,0,1,.021-.488.084.084,0,1,1,.015,0v.488a4.337,4.337,0,0,1-.317,1.8,2.285,2.285,0,0,1-.814.951,1.675,1.675,0,0,1-1.409.248,1.25,1.25,0,0,1-.646-.473.912.912,0,0,1-.129-.829,1.134,1.134,0,0,1,.6-.622,1.9,1.9,0,0,1,.864-.182,2.829,2.829,0,0,1,1.594.6,3.338,3.338,0,0,1,.993,1.241,3.141,3.141,0,0,1,.3,1.4,3.6,3.6,0,0,1-.245,1.226,4.083,4.083,0,0,1-1,1.5,2.635,2.635,0,0,1-.377.3A.814.814,0,0,1,154.438,168.687Z" transform="translate(-142.609 -128.297)" fill="#fafafa"/>
        <path id="Trazado_3713" data-name="Trazado 3713" d="M178,183.792a1.11,1.11,0,0,1-.233-.248,4.818,4.818,0,0,1-.514-.778,5.518,5.518,0,0,1,.386-5.853,4.93,4.93,0,0,1,.6-.7,1.278,1.278,0,0,1,.272-.209c.021.024-.353.341-.784.984a5.683,5.683,0,0,0-.38,5.74A11.736,11.736,0,0,0,178,183.792Z" transform="translate(-159.969 -138.95)" fill="#fafafa"/>
        <path id="Trazado_3714" data-name="Trazado 3714" d="M185.666,170.087c-.027,0-.153-.449-.523-1.11a6.149,6.149,0,0,0-4.726-3.126c-.754-.084-1.226-.018-1.226-.048a1.268,1.268,0,0,1,.329-.057,5.481,5.481,0,0,1,.9,0,5.916,5.916,0,0,1,4.816,3.185,5.082,5.082,0,0,1,.35.837A1.194,1.194,0,0,1,185.666,170.087Z" transform="translate(-161.792 -131.751)" fill="#fafafa"/>
        <g id="Grupo_738" data-name="Grupo 738" transform="translate(31.836 42.697)" opacity="0.3">
          <path id="Trazado_3715" data-name="Trazado 3715" d="M227.672,198.891c-.3.123-.26.577-.021.775a1.28,1.28,0,0,0,.9.191,11.551,11.551,0,0,0,8.862-4.977c-2.692,2.216-6.251,3.057-9.664,3.829" transform="translate(-227.46 -194.88)"/>
        </g>
        <g id="Grupo_739" data-name="Grupo 739" transform="translate(31.37 34.122)" opacity="0.3">
          <path id="Trazado_3716" data-name="Trazado 3716" d="M226.045,175.745a1.208,1.208,0,0,1,.3-1.469,5.018,5.018,0,0,1,1.382-.823,8.728,8.728,0,0,0,4.032-4.137c.544-1.178.954-2.623,2.16-3.108a11.683,11.683,0,0,1-7.69,9.17" transform="translate(-225.901 -166.21)"/>
        </g>
        <g id="Grupo_740" data-name="Grupo 740" transform="translate(22.005 28.149)" opacity="0.3">
          <path id="Trazado_3717" data-name="Trazado 3717" d="M195.61,146.24a30.35,30.35,0,0,1-.688,9.775,8.236,8.236,0,0,0-.332,2.061,2.74,2.74,0,0,0,.993,1.935,14.148,14.148,0,0,0,.715-3.482c.188-1.11.505-3.7.505-3.742a14.631,14.631,0,0,0-1.364-6.254" transform="translate(-194.59 -146.24)"/>
        </g>
        <g id="Grupo_741" data-name="Grupo 741" transform="translate(28.489 18.278)" opacity="0.3">
          <path id="Trazado_3718" data-name="Trazado 3718" d="M216.44,113.291a11.94,11.94,0,0,0,3.386,6.353,3.457,3.457,0,0,0,2.408,1.2,5.635,5.635,0,0,1-.464-3.523,14.572,14.572,0,0,0,2.465,1.34,4.89,4.89,0,0,0,2.752.3l.568-4.944a.924.924,0,0,0-.051-.556.32.32,0,0,0-.476-.114.476.476,0,0,0-.093.218c-.335,1.451-.523,2.752-.861,4.205-.242.239-.987.141-1.478-.042-.428-.159-.6-.511-.873-.867s-.233-.3-.652-.473c-.772-.326-2.252-.066-2.575.625a3.348,3.348,0,0,0,.138,2.285,10.364,10.364,0,0,1-4.364-6.054" transform="translate(-216.27 -113.24)"/>
        </g>
        <g id="Grupo_742" data-name="Grupo 742" transform="translate(44.341 25.346)" opacity="0.3">
          <path id="Trazado_3719" data-name="Trazado 3719" d="M269.9,136.87c-.06.12,1.863,6.6,1.863,6.6l-2.491-1.421Z" transform="translate(-269.27 -136.87)"/>
        </g>
        <path id="Trazado_3720" data-name="Trazado 3720" d="M219.61,61.38V71.7a2.5,2.5,0,0,0,.6,1.612h0a7.5,7.5,0,0,0,2.076,1.717l2.094,1.175,1.723-1.54a2.509,2.509,0,0,0,.834-1.768c.03-.754.027-1.5.027-1.5a3.472,3.472,0,0,0,3.194-3.087c.129-1.358.17-4.134.176-6.691A5.6,5.6,0,0,0,225.17,56h-.081a5.351,5.351,0,0,0-5.48,5.384Z" transform="translate(-190.122 -54.839)" fill="#ffbe9d"/>
        <path id="Trazado_3721" data-name="Trazado 3721" d="M235.538,104.1a6.984,6.984,0,0,1-3.658-1.421,3.645,3.645,0,0,0,3.652,2.163Z" transform="translate(-198.722 -87.56)" fill="#eb996e"/>
        <path id="Trazado_3722" data-name="Trazado 3722" d="M250.6,79.976a.413.413,0,0,1-.431.383.395.395,0,0,1-.392-.407.413.413,0,0,1,.431-.383.392.392,0,0,1,.392.407Z" transform="translate(-211.268 -71.362)" fill="#263238"/>
        <path id="Trazado_3723" data-name="Trazado 3723" d="M249.1,77.449c-.054.048-.347-.209-.79-.245s-.787.162-.829.1.036-.117.188-.209a1.134,1.134,0,0,1,.667-.147,1.083,1.083,0,0,1,.625.26C249.093,77.326,249.126,77.425,249.1,77.449Z" transform="translate(-209.651 -69.523)" fill="#263238"/>
        <path id="Trazado_3724" data-name="Trazado 3724" d="M236.635,79.276a.413.413,0,0,1-.431.383.4.4,0,0,1-.395-.407.416.416,0,0,1,.431-.383.395.395,0,0,1,.395.407Z" transform="translate(-201.476 -70.871)" fill="#263238"/>
        <path id="Trazado_3725" data-name="Trazado 3725" d="M234.523,76.5c-.057.048-.35-.206-.793-.242s-.784.159-.829.1.039-.117.188-.209a1.152,1.152,0,0,1,.67-.156,1.1,1.1,0,0,1,.625.26C234.511,76.378,234.55,76.477,234.523,76.5Z" transform="translate(-199.43 -68.853)" fill="#263238"/>
        <path id="Trazado_3726" data-name="Trazado 3726" d="M242.81,80.414a2.862,2.862,0,0,1,.73-.072c.114,0,.224,0,.248-.09a.572.572,0,0,0-.048-.341c-.084-.3-.17-.58-.263-.9a17.2,17.2,0,0,1-.562-2.315,17.108,17.108,0,0,1,.748,2.264c.087.3.17.6.248.9a.652.652,0,0,1,.024.449.3.3,0,0,1-.2.15.751.751,0,0,1-.194,0A3.088,3.088,0,0,1,242.81,80.414Z" transform="translate(-206.383 -69.351)" fill="#263238"/>
        <path id="Trazado_3727" data-name="Trazado 3727" d="M238.152,89.779c.072,0,.033.485.416.858s.9.365.9.431-.12.087-.338.075a1.2,1.2,0,0,1-.751-.335,1.044,1.044,0,0,1-.317-.718C238.057,89.89,238.12,89.773,238.152,89.779Z" transform="translate(-203.053 -78.518)" fill="#263238"/>
        <path id="Trazado_3728" data-name="Trazado 3728" d="M234.439,70.94c-.054.117-.491.024-1.014.042s-.957.126-1.017,0c-.027-.054.054-.162.233-.263a1.762,1.762,0,0,1,1.549-.042C234.376,70.782,234.463,70.883,234.439,70.94Z" transform="translate(-199.089 -65.018)" fill="#263238"/>
        <path id="Trazado_3729" data-name="Trazado 3729" d="M249.215,73.068c-.087.093-.383-.036-.748-.072s-.682,0-.745-.1c-.03-.054.03-.153.174-.236a1.089,1.089,0,0,1,1.2.138C249.221,72.913,249.254,73.02,249.215,73.068Z" transform="translate(-209.821 -66.437)" fill="#263238"/>
        <path id="Trazado_3730" data-name="Trazado 3730" d="M221.962,59.806h-.018a2.273,2.273,0,0,0-.963,1.415v.06c-.182.811-.23,1.648-.419,2.459s-.153,1.43-.966,1.612a1.077,1.077,0,0,1-1.131-.458.736.736,0,0,1-.075-.383c0-2-.389-2.773-.215-4.845a1.759,1.759,0,0,1,.843-1.364c.461-.275,1.017-.556,1.5-.3s1.017,1.223,1.358,1.639" transform="translate(-189.085 -56.175)" fill="#263238"/>
        <path id="Trazado_3731" data-name="Trazado 3731" d="M217.722,78.241c-.045-.024-1.929-.748-2.031,1.226a1.488,1.488,0,0,0,1.911,1.612C217.609,81.023,217.722,78.241,217.722,78.241Z" transform="translate(-187.373 -70.327)" fill="#ffbe9d"/>
        <path id="Trazado_3732" data-name="Trazado 3732" d="M218.2,81.781a.57.57,0,0,1-.1.048.335.335,0,0,1-.257,0,.849.849,0,0,1-.356-.787,1.107,1.107,0,0,1,.123-.488.4.4,0,0,1,.272-.251.176.176,0,0,1,.2.1c.024.057,0,.1.018.1s.045-.03.033-.111a.209.209,0,0,0-.072-.129.245.245,0,0,0-.185-.06.482.482,0,0,0-.377.3,1.2,1.2,0,0,0-.147.544.9.9,0,0,0,.458.879.377.377,0,0,0,.317-.036C218.2,81.828,218.211,81.787,218.2,81.781Z" transform="translate(-188.54 -71.808)" fill="#eb996e"/>
        <path id="Trazado_3733" data-name="Trazado 3733" d="M225.4,54.256c-.422-.829,1-1.848,2-2.076a5.835,5.835,0,0,1,3.182.757,4.895,4.895,0,0,0,1.822.6,4.409,4.409,0,0,0,1.274-.212,3.239,3.239,0,0,1,1.283-.147,1.2,1.2,0,0,1,.993.757.745.745,0,0,1-.6.963.972.972,0,1,1,.108,1.816c.3-.191.7.194.634.541a1.02,1.02,0,0,1-.733.691,3.671,3.671,0,0,1-2.626-.257c-.831-.356-1.579-.867-2.393-1.244s-2.183-1.047-3.054-.817c-.643.167-1.137.882-1.475.685a1.2,1.2,0,0,1-.547-.93,3.475,3.475,0,0,1,.132-1.119" transform="translate(-194.088 -52.13)" fill="#263238"/>
        <path id="Trazado_3734" data-name="Trazado 3734" d="M236.932,56.146c-.015,0-.114.135-.344.347a2.71,2.71,0,0,1-1.155.616,2.5,2.5,0,0,1-1.872-.233,8.855,8.855,0,0,1-1.78-1.624,4.11,4.11,0,0,0-2.127-1.244,2.279,2.279,0,0,0-1.944.5,1.711,1.711,0,0,0-.55,1.235,1.262,1.262,0,0,0,.054.368.4.4,0,0,0,.054.12,2.971,2.971,0,0,1-.033-.485,1.687,1.687,0,0,1,.568-1.137,2.159,2.159,0,0,1,1.813-.422,3.987,3.987,0,0,1,2.022,1.2,8.758,8.758,0,0,0,1.83,1.642,2.692,2.692,0,0,0,3.164-.485,2.124,2.124,0,0,0,.233-.3C236.917,56.188,236.938,56.149,236.932,56.146Z" transform="translate(-195.414 -53.412)" fill="#455a64"/>
        <path id="Trazado_3735" data-name="Trazado 3735" d="M220.009,66.318a.524.524,0,0,0,.176-.2,1.331,1.331,0,0,0,.159-.706c0-.64-.5-1.367-.5-2.249a2,2,0,0,1,.317-1.158,1.5,1.5,0,0,1,.79-.571,1.3,1.3,0,0,1,.664-.036c.159.039.239.084.248.069s-.066-.078-.224-.141a1.229,1.229,0,0,0-.724-.027,1.6,1.6,0,0,0-.9.6,2.094,2.094,0,0,0-.365,1.265,3.623,3.623,0,0,0,.278,1.271,3.851,3.851,0,0,1,.275.981A1.537,1.537,0,0,1,220.009,66.318Z" transform="translate(-190.153 -58.529)" fill="#455a64"/>
      </g>
      <g id="freepik--Lines--inject-455" transform="translate(49.191 56.356)">
        <path id="Trazado_3736" data-name="Trazado 3736" d="M146.69,268.88h-.446l-1.3.018c-1.149.018-2.841.063-5.019.167s-4.839.3-7.917.658c-1.534.185-3.179.395-4.911.682s-3.556.622-5.456,1.056-3.888.948-5.9,1.609a39.38,39.38,0,0,0-6.117,2.521,19.745,19.745,0,0,0-2.931,1.875,9.34,9.34,0,0,0-2.393,2.626c-.075.132-.153.26-.221.395l-.167.422-.087.212c-.024.072-.036.147-.057.221l-.1.443a4.439,4.439,0,0,0,.09,1.827,6.729,6.729,0,0,0,2.01,3.135,21.88,21.88,0,0,0,6.742,4.014,55.572,55.572,0,0,0,7.857,2.486,103.423,103.423,0,0,0,17.147,2.524,136.74,136.74,0,0,0,17.348.069,109.388,109.388,0,0,0,16.02-2.094,67.635,67.635,0,0,0,7.262-1.959,36.066,36.066,0,0,0,6.493-2.829,17.981,17.981,0,0,0,2.737-1.947,7.9,7.9,0,0,0,1.98-2.524l.15-.365a2.09,2.09,0,0,0,.126-.371l.09-.377c.015-.063.036-.126.045-.188v-.194a3.757,3.757,0,0,0-.114-1.5,5.3,5.3,0,0,0-.631-1.349,8.158,8.158,0,0,0-.927-1.14,13.914,13.914,0,0,0-2.189-1.795,22.554,22.554,0,0,0-2.321-1.382,39.908,39.908,0,0,0-4.522-2.016,68.926,68.926,0,0,0-7.585-2.339c-2.115-.526-3.775-.861-4.9-1.077-.562-.111-1-.182-1.283-.239l-.44-.084s.6.087,1.729.3,2.791.529,4.911,1.05a67.269,67.269,0,0,1,7.6,2.315,39.987,39.987,0,0,1,4.54,2.007,23.068,23.068,0,0,1,2.333,1.385,14.079,14.079,0,0,1,2.21,1.816,8.378,8.378,0,0,1,.939,1.152,5.383,5.383,0,0,1,.655,1.379,3.888,3.888,0,0,1,.12,1.555l-.015.2a.913.913,0,0,1-.045.194l-.093.386a2.092,2.092,0,0,1-.129.38l-.15.374a8.054,8.054,0,0,1-2.007,2.566,17.944,17.944,0,0,1-2.758,1.968,36.163,36.163,0,0,1-6.508,2.847,67.4,67.4,0,0,1-7.277,1.971,109.3,109.3,0,0,1-16.041,2.094,136.47,136.47,0,0,1-17.369-.066,103.433,103.433,0,0,1-17.174-2.533,55.228,55.228,0,0,1-7.878-2.494,22.206,22.206,0,0,1-6.784-4.047,6.844,6.844,0,0,1-2.049-3.206,4.594,4.594,0,0,1-.09-1.881l.111-.458c.018-.078.033-.153.057-.227l.087-.218.176-.431c.069-.138.15-.272.224-.407a9.487,9.487,0,0,1,2.438-2.662,20.09,20.09,0,0,1,2.955-1.884,39.244,39.244,0,0,1,6.138-2.521c2.028-.658,4.008-1.172,5.91-1.6s3.733-.772,5.468-1.044,3.38-.493,4.917-.673c3.081-.344,5.746-.526,7.923-.631s3.873-.132,5.022-.141h1.75Z" transform="translate(-96.955 -233.434)" fill="#f83f00"/>
        <path id="Trazado_3737" data-name="Trazado 3737" d="M107.012,188.05s-.17.039-.5.1-.829.162-1.478.3c-1.3.269-3.209.685-5.635,1.349a57.76,57.76,0,0,0-8.62,3.054c-.811.371-1.642.781-2.471,1.25a23.541,23.541,0,0,0-2.48,1.591,13.86,13.86,0,0,0-2.288,2.094,7.223,7.223,0,0,0-1.552,2.847,5.217,5.217,0,0,0,.248,3.347,8.6,8.6,0,0,0,2.07,2.9,23.144,23.144,0,0,0,6.407,4.089,70.891,70.891,0,0,0,16.151,4.753,135.087,135.087,0,0,0,18.544,2.046,159.942,159.942,0,0,0,20.04-.356,116.1,116.1,0,0,0,19.756-3.221,59.116,59.116,0,0,0,9-3.087,31.045,31.045,0,0,0,4.035-2.154,15.52,15.52,0,0,0,3.425-2.889,6.486,6.486,0,0,0,1.7-3.924,3.993,3.993,0,0,0-.018-.535,3.892,3.892,0,0,0-.057-.529l-.117-.52a3.82,3.82,0,0,0-.17-.5,7.606,7.606,0,0,0-1.026-1.833,14.1,14.1,0,0,0-3.036-2.8,27.787,27.787,0,0,0-3.473-2.031,49.249,49.249,0,0,0-7.113-2.791c-2.345-.733-4.63-1.316-6.825-1.795a131.429,131.429,0,0,0-21.12-2.692c-2.512-.129-4.469-.135-5.794-.168l-1.5-.033-.511-.018h.511l1.5.018c1.325.024,3.29.018,5.8.141a130.025,130.025,0,0,1,21.14,2.647c2.2.485,4.487,1.062,6.837,1.795a48.945,48.945,0,0,1,7.134,2.794,27.553,27.553,0,0,1,3.493,2.016,14.273,14.273,0,0,1,3.066,2.826A7.693,7.693,0,0,1,183.125,200a3.464,3.464,0,0,1,.173.514l.123.532a3.658,3.658,0,0,1,.057.544,3.727,3.727,0,0,1,.021.547,5.578,5.578,0,0,1-.52,2.142,7.955,7.955,0,0,1-1.2,1.872,15.572,15.572,0,0,1-3.458,2.919,30.784,30.784,0,0,1-4.083,2.183,59.521,59.521,0,0,1-9.018,3.1,116.268,116.268,0,0,1-19.783,3.227,159.657,159.657,0,0,1-20.04.353,135.368,135.368,0,0,1-18.544-2.055,70.584,70.584,0,0,1-16.187-4.786,23.514,23.514,0,0,1-6.437-4.125,8.743,8.743,0,0,1-2.094-2.937,5.339,5.339,0,0,1-.245-3.422,7.292,7.292,0,0,1,1.576-2.883,13.833,13.833,0,0,1,2.312-2.118,23.377,23.377,0,0,1,2.492-1.591c.831-.47,1.666-.879,2.48-1.25a57.5,57.5,0,0,1,8.653-3.03c2.432-.655,4.346-1.062,5.647-1.322S107.012,188.05,107.012,188.05Z" transform="translate(-81.72 -175.266)" fill="#f83f00"/>
        <path id="Trazado_3738" data-name="Trazado 3738" d="M151.294,341.645l-1.5.236c-.978.156-2.417.4-4.256.8a54.6,54.6,0,0,0-6.58,1.857,31.106,31.106,0,0,0-3.918,1.7,16.747,16.747,0,0,0-1.986,1.214,10.274,10.274,0,0,0-1.828,1.627,5.929,5.929,0,0,0-.724,1.041,4.161,4.161,0,0,0-.446,1.2c-.015.108-.042.215-.051.326l-.021.329c0,.218.03.44.048.661a6.308,6.308,0,0,0,.173.649l.126.314.063.158.084.147a7.376,7.376,0,0,0,1.795,2.115,14.754,14.754,0,0,0,2.411,1.618A32.034,32.034,0,0,0,140.326,360a57.976,57.976,0,0,0,6.281,1.606,93.266,93.266,0,0,0,13.836,1.654A112.288,112.288,0,0,0,175.4,363a79.674,79.674,0,0,0,14.737-2.539,37.111,37.111,0,0,0,6.64-2.53,16.717,16.717,0,0,0,2.886-1.863c.227-.17.422-.38.631-.568s.38-.413.571-.616a5.427,5.427,0,0,0,.849-1.421,3.811,3.811,0,0,0-.132-3.156,7.58,7.58,0,0,0-2.058-2.393,21.006,21.006,0,0,0-5.348-2.925,45.171,45.171,0,0,0-5.441-1.744c-1.777-.458-3.5-.82-5.156-1.11a102.271,102.271,0,0,0-15.852-1.451l-5.841-.03s2.079-.027,5.841,0a101.292,101.292,0,0,1,15.852,1.421c1.66.3,3.386.649,5.165,1.107a44.979,44.979,0,0,1,5.468,1.756,21.037,21.037,0,0,1,5.369,2.934,7.673,7.673,0,0,1,2.094,2.426,3.888,3.888,0,0,1,.135,3.221,5.585,5.585,0,0,1-.861,1.445c-.194.206-.371.431-.58.625a7.647,7.647,0,0,1-.634.571,16.7,16.7,0,0,1-2.9,1.878,37.206,37.206,0,0,1-6.655,2.539,79.843,79.843,0,0,1-14.752,2.542,112.511,112.511,0,0,1-14.973.26,93.776,93.776,0,0,1-13.845-1.66,58.669,58.669,0,0,1-6.281-1.615,31.771,31.771,0,0,1-5.653-2.363,14.957,14.957,0,0,1-2.42-1.63,7.4,7.4,0,0,1-1.813-2.139l-.087-.15-.063-.161-.129-.317c-.081-.215-.114-.443-.173-.661a2.559,2.559,0,0,1-.048-.676l.021-.335a2.093,2.093,0,0,1,.054-.329,4.188,4.188,0,0,1,.452-1.229,6.042,6.042,0,0,1,.733-1.05,10.262,10.262,0,0,1,1.839-1.636,17.17,17.17,0,0,1,2-1.217,30.678,30.678,0,0,1,3.894-1.708,54.021,54.021,0,0,1,6.6-1.845c1.839-.395,3.29-.637,4.259-.787S151.294,341.645,151.294,341.645Z" transform="translate(-115.515 -283.73)" fill="#f83f00"/>
        <path id="Trazado_3739" data-name="Trazado 3739" d="M214.218,416.793a3.1,3.1,0,0,0-.248-1.092,5.73,5.73,0,0,0-2.192-2.309c-2.348-1.546-6.281-2.844-11.222-3.64a68.15,68.15,0,0,0-8.148-.8,78.439,78.439,0,0,0-9.407.173c-1.654.129-3.344.32-5.058.6a47.853,47.853,0,0,0-5.192,1.1c-.87.233-1.741.505-2.6.82a20.912,20.912,0,0,0-2.539,1.107,10.273,10.273,0,0,0-2.3,1.594,3.557,3.557,0,0,0-1.247,2.453,3.451,3.451,0,0,0,1.244,2.456,10.258,10.258,0,0,0,2.273,1.588,20.443,20.443,0,0,0,2.539,1.107,26.924,26.924,0,0,0,2.6.823,47.907,47.907,0,0,0,5.2,1.1c1.714.272,3.4.464,5.058.6a77.884,77.884,0,0,0,9.41.173,68.148,68.148,0,0,0,8.171-.808c4.947-.8,8.874-2.094,11.225-3.64a5.718,5.718,0,0,0,2.189-2.309,3.089,3.089,0,0,0,.248-1.089,2.016,2.016,0,0,1-.021.284,1.474,1.474,0,0,1-.063.347,2.2,2.2,0,0,1-.156.461,5.709,5.709,0,0,1-2.186,2.327c-2.351,1.555-6.281,2.862-11.231,3.664a68.732,68.732,0,0,1-8.165.808,78.562,78.562,0,0,1-9.416-.167c-1.654-.132-3.344-.32-5.061-.6a47.128,47.128,0,0,1-5.2-1.095c-.873-.233-1.744-.505-2.605-.822a21.257,21.257,0,0,1-2.548-1.11,10.436,10.436,0,0,1-2.315-1.6,4.647,4.647,0,0,1-.879-1.122,2.692,2.692,0,0,1,0-2.758,4.657,4.657,0,0,1,.9-1.119,10.438,10.438,0,0,1,2.315-1.6,21.427,21.427,0,0,1,2.545-1.11c.864-.317,1.735-.6,2.608-.822a47.926,47.926,0,0,1,5.2-1.095c1.717-.272,3.407-.464,5.061-.6a77.919,77.919,0,0,1,9.416-.167,68.123,68.123,0,0,1,8.165.8c4.947.8,8.88,2.109,11.231,3.664a5.709,5.709,0,0,1,2.186,2.327,2.257,2.257,0,0,1,.156.461,1.476,1.476,0,0,1,.063.347C214.209,416.67,214.215,416.748,214.218,416.793Z" transform="translate(-139.383 -331.519)" fill="#f83f00"/>
        <path id="Trazado_3740" data-name="Trazado 3740" d="M106.528,278.127a.954.954,0,1,1-.278-.677A.954.954,0,0,1,106.528,278.127Z" transform="translate(-97.771 -239.244)" fill="#f83f00"/>
        <circle id="Elipse_181" data-name="Elipse 181" cx="0.954" cy="0.954" r="0.954" transform="translate(93.203 38.575)" fill="#f83f00"/>
        <path id="Trazado_3741" data-name="Trazado 3741" d="M265.014,397.934a.957.957,0,1,1-.954-.954A.957.957,0,0,1,265.014,397.934Z" transform="translate(-208.849 -323.219)" fill="#f83f00"/>
        <path id="Trazado_3742" data-name="Trazado 3742" d="M170.307,317.009a.479.479,0,1,1-.479-.479A.479.479,0,0,1,170.307,317.009Z" transform="translate(-143.14 -266.831)" fill="#f83f00"/>
        <path id="Trazado_3743" data-name="Trazado 3743" d="M368.817,355.689a.479.479,0,1,1-.476-.479A.479.479,0,0,1,368.817,355.689Z" transform="translate(-282.275 -293.942)" fill="#f83f00"/>
        <path id="Trazado_3744" data-name="Trazado 3744" d="M242.757,429.519a.479.479,0,1,1-.476-.479A.478.478,0,0,1,242.757,429.519Z" transform="translate(-193.92 -345.69)" fill="#f83f00"/>
        <circle id="Elipse_182" data-name="Elipse 182" cx="0.239" cy="0.239" r="0.239" transform="translate(23.689)" fill="#f83f00"/>
      </g>
      <g id="freepik--front-screens--inject-455" transform="translate(45.877 52.028)">
        <path id="Trazado_3745" data-name="Trazado 3745" d="M220.386,220.563c-11.6,3.069-22.774,2.835-34.956,0L184,198.286a86.829,86.829,0,0,0,36.38-.526Z" transform="translate(-150.094 -179.258)" fill="#f83f00"/>
        <g id="Grupo_743" data-name="Grupo 743" transform="translate(33.906 18.502)" opacity="0.8">
          <path id="Trazado_3746" data-name="Trazado 3746" d="M220.386,220.563c-11.6,3.069-22.774,2.835-34.956,0L184,198.286a86.829,86.829,0,0,0,36.38-.526Z" transform="translate(-184 -197.76)" fill="#fff"/>
        </g>
        <path id="Trazado_3747" data-name="Trazado 3747" d="M227.3,262.65a.3.3,0,0,1-.075.036l-.218.093c-.194.078-.476.2-.849.338a32.074,32.074,0,0,1-3.209,1,41.953,41.953,0,0,1-11,1.256,64.24,64.24,0,0,1-11.025-1.178c-1.4-.266-2.518-.511-3.29-.691-.386-.087-.685-.161-.9-.212l-.23-.06c-.051-.015-.078-.024-.075-.027h.081l.233.045.9.182c.775.161,1.9.392,3.29.64a67.694,67.694,0,0,0,11.007,1.134,43.366,43.366,0,0,0,10.974-1.2c1.373-.347,2.468-.694,3.215-.96.377-.123.661-.239.858-.3l.224-.078A.224.224,0,0,1,227.3,262.65Z" transform="translate(-158.806 -224.739)" fill="#f83f00"/>
        <path id="Trazado_3748" data-name="Trazado 3748" d="M232.213,246.23a7.594,7.594,0,0,1-4.463-.15v-7.926a11.21,11.21,0,0,1,4.463,0Z" transform="translate(-180.758 -207.413)" fill="#f83f00"/>
        <path id="Trazado_3749" data-name="Trazado 3749" d="M255.4,235.706a.322.322,0,0,1,0-.063v-.171c0-.162,0-.383-.021-.664,0-.583-.027-1.418-.048-2.462-.03-2.094-.075-5.046-.126-8.459l.06.072a12.063,12.063,0,0,0-4.621,0l.063-.075v.156c.048,4.684.093,8.916.123,11.937l-.045-.054a10.7,10.7,0,0,0,1.947.239,7.321,7.321,0,0,0,1.469-.123,6.878,6.878,0,0,0,.9-.236l.224-.078a.319.319,0,0,1,.084-.024l-.072.033-.227.1a6.328,6.328,0,0,1-.9.266,7.021,7.021,0,0,1-1.481.147,10.22,10.22,0,0,1-1.968-.215h-.042v-.06c-.045-3.021-.1-7.25-.171-11.934v-.224h.066a12.057,12.057,0,0,1,4.678,0l.06.015v.06c.027,3.428.048,6.386.066,8.5v3.266C255.419,235.7,255.4,235.706,255.4,235.706Z" transform="translate(-196.739 -197.358)" fill="#f83f00"/>
        <path id="Trazado_3750" data-name="Trazado 3750" d="M279.246,231.18a8.51,8.51,0,0,1-4.466.634V218.72a9.547,9.547,0,0,1,4.466,0Z" transform="translate(-213.722 -193.763)" fill="#f83f00"/>
        <path id="Trazado_3751" data-name="Trazado 3751" d="M208.753,251.127s0-.123-.015-.338,0-.535-.018-.915c0-.8-.021-1.9-.033-3.212l.042.063a9.978,9.978,0,0,0-4.3-.715h0l.072-.078V250.4l-.039-.06a8.341,8.341,0,0,0,1.723.491c.529.1.993.15,1.379.188l.9.075a2.821,2.821,0,0,1,.317.036,2.359,2.359,0,0,1-.317,0,8.433,8.433,0,0,1-.9-.039c-.386-.039-.855-.072-1.388-.159a8.005,8.005,0,0,1-1.759-.476l-.039-.018v-4.582h.078a9.91,9.91,0,0,1,4.361.745l.045.015v.048c0,1.331-.027,2.45-.036,3.257,0,.374,0,.673-.018.9A1.8,1.8,0,0,1,208.753,251.127Z" transform="translate(-164.378 -212.956)" fill="#f83f00"/>
        <path id="Trazado_3752" data-name="Trazado 3752" d="M212.08,223.966a4.48,4.48,0,0,1-.873.054c-.541,0-1.289,0-2.112-.051s-1.564-.126-2.094-.2a4.416,4.416,0,0,1-.861-.156,5.482,5.482,0,0,1,.87.048c.538.042,1.28.1,2.094.15s1.564.078,2.094.1A5.826,5.826,0,0,1,212.08,223.966Z" transform="translate(-165.612 -197.379)" fill="#f83f00"/>
        <path id="Trazado_3753" data-name="Trazado 3753" d="M211.56,227.073a3.846,3.846,0,0,1-.766,0c-.473-.024-1.125-.066-1.845-.12s-1.373-.114-1.842-.164a3.789,3.789,0,0,1-.757-.114,3.845,3.845,0,0,1,.766,0c.476.024,1.125.066,1.845.12s1.37.114,1.839.164A3.909,3.909,0,0,1,211.56,227.073Z" transform="translate(-165.759 -199.511)" fill="#f83f00"/>
        <path id="Trazado_3754" data-name="Trazado 3754" d="M209.731,222v-.278c0-.176.015-.449.03-.772.03-.676.075-1.627.132-2.8l.057.063a63.925,63.925,0,0,1-8.264-.461l.087-.072h0v.245l-.015.251c0,.167-.018.335-.03.5-.018.332-.036.658-.057.978-.039.643-.075,1.265-.111,1.86l-.063-.078c2.393.3,4.454.419,5.916.476l1.714.051.449.015h.165a.871.871,0,0,1-.15,0c-.1,0-.263,0-.464.015H207.41c-1.466-.03-3.535-.138-5.931-.422h-.069v-.072q.049-.9.1-1.86c.018-.32.036-.646.057-.978l.027-.5v-.5h0l.087-.072a70.6,70.6,0,0,0,8.276.505h.06v.06c-.081,1.178-.147,2.142-.194,2.824-.024.317-.045.571-.06.757a1.331,1.331,0,0,1-.036.257Z" transform="translate(-162.297 -193.163)" fill="#f83f00"/>
        <path id="Trazado_3755" data-name="Trazado 3755" d="M230.25,234a3.538,3.538,0,0,1-.577-.8,2.863,2.863,0,0,1-.443-.879,3.54,3.54,0,0,1,.577.8A2.863,2.863,0,0,1,230.25,234Z" transform="translate(-181.796 -203.481)" fill="#f83f00"/>
        <path id="Trazado_3756" data-name="Trazado 3756" d="M70.64,141l3.79,22.935s5.788,10.833,21.161,13.274l-2.48-20.47S78.892,152.336,70.64,141Z" transform="translate(-70.64 -139.475)" fill="#f83f00"/>
        <g id="Grupo_744" data-name="Grupo 744" transform="translate(0 1.525)" opacity="0.8">
          <path id="Trazado_3757" data-name="Trazado 3757" d="M70.64,141l3.79,22.935s5.788,10.833,21.161,13.274l-2.48-20.47S78.892,152.336,70.64,141Z" transform="translate(-70.64 -141)" fill="#fff"/>
        </g>
        <path id="Trazado_3758" data-name="Trazado 3758" d="M98.249,190.1l-.1-.024-.3-.081-1.083-.332c-.47-.15-1.053-.3-1.7-.568l-1.044-.4c-.374-.141-.766-.3-1.163-.479-.8-.365-1.687-.742-2.59-1.25s-1.866-1.056-2.847-1.681a28.505,28.505,0,0,1-5.713-4.95,16.94,16.94,0,0,1-2.061-2.874h0l-1.735-11.216c-.209-1.4-.38-2.521-.5-3.308l-.126-.9-.03-.23a.326.326,0,0,1,0-.081.3.3,0,0,1,.018.078l.045.23.153.9c.129.784.3,1.905.541,3.29.449,2.818,1.077,6.742,1.795,11.207v-.021a17.126,17.126,0,0,0,2.04,2.841,28.712,28.712,0,0,0,5.683,4.932c.975.628,1.905,1.217,2.827,1.687s1.78.9,2.575,1.262c.395.194.787.347,1.155.488l1.035.407c.643.272,1.223.434,1.687.6l1.074.359.278.1A.406.406,0,0,1,98.249,190.1Z" transform="translate(-75.281 -154.004)" fill="#f83f00"/>
        <path id="Trazado_3759" data-name="Trazado 3759" d="M100.036,195.329s0,.018-.051.048l-.165.132-.637.5-2.411,1.851-.036.03-.03-.042c-.814-1.122-1.816-2.509-2.952-4.086l.09.015-2.264,1.615-.075.054-.033-.09c-.9-2.393-1.875-5.085-2.919-7.917l-.419-1.14h.141l-1.842,3.661-.081.159-.057-.167c-1.606-4.624-2.967-8.554-3.852-11.106h.081c-.242,1.023-.434,1.828-.565,2.393-.066.269-.12.479-.156.628l-.042.162a.185.185,0,0,1-.021.054v-.057a1.2,1.2,0,0,1,.03-.162l.135-.634c.123-.565.3-1.373.526-2.393l.033-.144.051.141c.9,2.545,2.282,6.467,3.912,11.082h-.138l1.839-3.661.081-.161.063.167.419,1.14c1.038,2.835,2.025,5.524,2.9,7.923l-.108-.033,2.273-1.6.051-.036.039.051,2.922,4.092H96.7l2.444-1.816.652-.479.17-.12Z" transform="translate(-78.42 -165.891)" fill="#f83f00"/>
        <path id="Trazado_3760" data-name="Trazado 3760" d="M123.323,189.49a1.4,1.4,0,0,1-.323-.072c-.2-.057-.5-.147-.858-.266a28.107,28.107,0,0,1-2.749-1.083,29.337,29.337,0,0,1-2.641-1.355c-.326-.191-.6-.353-.766-.47a1.355,1.355,0,0,1-.266-.194,1.388,1.388,0,0,1,.3.144l.79.425c.667.356,1.6.834,2.65,1.31s2.025.855,2.734,1.122c.332.12.6.224.84.3A1.2,1.2,0,0,1,123.323,189.49Z" transform="translate(-102.237 -171.05)" fill="#f83f00"/>
        <path id="Trazado_3761" data-name="Trazado 3761" d="M131.889,196.693a3.1,3.1,0,0,1-.742-.132,17.176,17.176,0,0,1-1.744-.52,17.408,17.408,0,0,1-1.678-.7,3.214,3.214,0,0,1-.655-.368,4.094,4.094,0,0,1,.7.269c.428.176,1.02.416,1.684.655s1.274.428,1.72.562A4.078,4.078,0,0,1,131.889,196.693Z" transform="translate(-110.192 -177.302)" fill="#f83f00"/>
        <path id="Trazado_3762" data-name="Trazado 3762" d="M121.717,228.284c0,.191-.117.344-.26.344s-.257-.153-.257-.344.117-.344.257-.344S121.717,228.1,121.717,228.284Z" transform="translate(-106.077 -200.411)" fill="#f83f00"/>
        <ellipse id="Elipse_183" data-name="Elipse 183" cx="0.257" cy="0.344" rx="0.257" ry="0.344" transform="translate(9.499 20.279)" fill="#f83f00"/>
        <path id="Trazado_3763" data-name="Trazado 3763" d="M83.924,178.754c0,.188-.117.344-.257.344s-.257-.156-.257-.344.114-.344.257-.344S83.924,178.566,83.924,178.754Z" transform="translate(-79.59 -165.695)" fill="#f83f00"/>
        <path id="Trazado_3764" data-name="Trazado 3764" d="M352.732,154.64l-1.9,23.3S345.278,187.9,330,188.283l1.887-23.458S345.218,164.283,352.732,154.64Z" transform="translate(-252.425 -149.035)" fill="#f83f00"/>
        <path id="Trazado_3765" data-name="Trazado 3765" d="M386.342,140.291a5.852,5.852,0,0,0-4.576-4.391l-3.386,31.34s6.374-1.271,6.544-4.765c.015-.3,1.289-15.879,1.609-19.741A6.313,6.313,0,0,0,386.342,140.291Z" transform="translate(-286.335 -135.9)" fill="#f83f00"/>
        <g id="Grupo_745" data-name="Grupo 745" transform="translate(77.575 5.605)" opacity="0.8">
          <path id="Trazado_3766" data-name="Trazado 3766" d="M352.732,154.64l-1.9,23.3S345.278,187.9,330,188.283l1.887-23.458S345.218,164.283,352.732,154.64Z" transform="translate(-330 -154.64)" fill="#fff"/>
        </g>
        <path id="Trazado_3767" data-name="Trazado 3767" d="M361.513,174.5a13.8,13.8,0,0,0-2.432,7.534,6.234,6.234,0,0,1-.266,2.288,1.656,1.656,0,0,1-1.795,1.11c-.733-.2-1.128-1.137-1.81-1.567a2.019,2.019,0,0,0-2.049.045,3.448,3.448,0,0,0-1.346,1.636,36.057,36.057,0,0,0-1,4.05c-.4,1.331-1.412,2.674-2.806,2.734-.508.021-1.011-.132-1.519-.117a3.108,3.108,0,0,0-2.507,1.795,9.339,9.339,0,0,0-.8,3.108s8.142.778,17.279-10.014Z" transform="translate(-261.67 -162.955)" fill="#f83f00"/>
        <path id="Trazado_3768" data-name="Trazado 3768" d="M359.687,220.523c0,.3-.144.523-.32.523s-.317-.233-.317-.523.141-.523.317-.523S359.687,220.236,359.687,220.523Z" transform="translate(-272.786 -194.846)" fill="#f83f00"/>
        <path id="Trazado_3769" data-name="Trazado 3769" d="M372.507,188.143c0,.3-.144.523-.32.523s-.317-.236-.317-.523.141-.523.317-.523S372.507,187.853,372.507,188.143Z" transform="translate(-281.772 -172.15)" fill="#f83f00"/>
        <path id="Trazado_3770" data-name="Trazado 3770" d="M362.108,178.26a.717.717,0,0,1-.051.132l-.173.38c-.161.338-.386.816-.67,1.421l-2.429,5.058-.033.069-.066-.042-5.758-3.643.114-.036c-.075.185-.159.386-.239.6l-3.718,9.1-.027.063-.057-.033c-1.436-.808-2.608-1.457-3.422-1.9-.41-.221-.727-.392-.945-.5l-.248-.12-.087-.039a6.942,6.942,0,0,1,1.31.6c.826.425,2,1.059,3.449,1.854l-.084.03,3.685-9.12c.081-.2.165-.4.239-.6l.036-.087.078.051,5.749,3.661-.1.027c1.02-2.073,1.875-3.8,2.48-5.031l.715-1.4.191-.368A.838.838,0,0,1,362.108,178.26Z" transform="translate(-262.448 -165.59)" fill="#f83f00"/>
      </g>
    </g>
  </g>
</svg>
