<svg xmlns="http://www.w3.org/2000/svg" width="396.571" height="380" viewBox="0 0 396.571 380">
  <g id="work-time-pana" transform="translate(-38.379 -40.668)">
    <g id="freepik--background-complete--inject-422" transform="translate(46.597 40.668)">
      <rect id="Rectángulo_884" data-name="Rectángulo 884" width="6.896" height="51.631" transform="translate(44.973 341.475) rotate(-90)" fill="#e0e0e0"/>
      <path id="Trazado_5590" data-name="Trazado 5590" d="M104.03,405.8c.174,0,.321,1.449.321,3.237s-.147,3.228-.321,3.228-.33-1.449-.33-3.228S103.847,405.8,104.03,405.8Z" transform="translate(-52.014 -70.947)" fill="#fafafa"/>
      <path id="Trazado_5591" data-name="Trazado 5591" d="M102.8,405.65c.183,0,.321,1.449.321,3.228s-.138,3.237-.321,3.237-.321-1.449-.321-3.237S102.618,405.65,102.8,405.65Z" transform="translate(-51.912 -70.934)" fill="#fafafa"/>
      <path id="Trazado_5592" data-name="Trazado 5592" d="M148.3,405.8c.183,0,.33,1.449.33,3.237s-.147,3.228-.33,3.228-.321-1.449-.321-3.228S148.127,405.8,148.3,405.8Z" transform="translate(-55.686 -70.947)" fill="#fafafa"/>
      <path id="Trazado_5593" data-name="Trazado 5593" d="M147.08,405.65c.174,0,.321,1.449.321,3.228s-.147,3.237-.321,3.237-.33-1.449-.33-3.237S146.9,405.65,147.08,405.65Z" transform="translate(-55.584 -70.934)" fill="#fafafa"/>
      <path id="Trazado_5594" data-name="Trazado 5594" d="M137.362,409.451c0,.183-5.915.321-13.206.321s-13.206-.138-13.206-.321,5.915-.321,13.206-.321S137.362,409.268,137.362,409.451Z" transform="translate(-52.615 -71.223)" fill="#fafafa"/>
      <rect id="Rectángulo_885" data-name="Rectángulo 885" width="13.793" height="51.631" transform="translate(44.753 379.423) rotate(-90)" fill="#e0e0e0"/>
      <path id="Trazado_5595" data-name="Trazado 5595" d="M148.442,449.379a1.645,1.645,0,0,1-.275.156c-.193.092-.477.229-.862.394a14.839,14.839,0,0,1-3.5,1,9.1,9.1,0,0,1-5.677-.807,7.465,7.465,0,0,1-2.7-2.439,5.7,5.7,0,0,1-.917-3.971,4.191,4.191,0,0,1,.917-2.054,2.678,2.678,0,0,1,2.173-.99,3.118,3.118,0,0,1,2.192,1.174,4.3,4.3,0,0,1,1,2.357,6.273,6.273,0,0,1-1.779,4.888,7.886,7.886,0,0,1-4.961,2.43,13.335,13.335,0,0,1-5.759-.715,10.657,10.657,0,0,1-5.035-3.384,5.5,5.5,0,0,1-1.174-2.98,3.879,3.879,0,0,1,1.1-3.1,2.55,2.55,0,0,1,1.614-.706,2.944,2.944,0,0,1,1.687.477,4.43,4.43,0,0,1,1.9,2.751,6.493,6.493,0,0,1-2.036,6.08,10.143,10.143,0,0,1-5.814,2.366,14.316,14.316,0,0,1-6.025-.6,8.327,8.327,0,0,1-4.585-3.567,6.089,6.089,0,0,1-.569-5.5,2.852,2.852,0,0,1,2.1-1.779,3.338,3.338,0,0,1,2.6.624,4.31,4.31,0,0,1,1.229,4.65,8.052,8.052,0,0,1-2.6,3.668,11.647,11.647,0,0,1-7.08,2.751,11.308,11.308,0,0,1-8.529-3.439,8.845,8.845,0,0,1-.624-.715,1.832,1.832,0,0,1-.183-.266,13.206,13.206,0,0,0,3.843,2.926,11.234,11.234,0,0,0,5.5,1.137,11.409,11.409,0,0,0,6.8-2.751,7.639,7.639,0,0,0,2.421-3.466,3.8,3.8,0,0,0-1.073-4.072,2.815,2.815,0,0,0-2.173-.514,2.283,2.283,0,0,0-1.687,1.467,5.5,5.5,0,0,0,.559,4.943,7.731,7.731,0,0,0,4.274,3.283,13.756,13.756,0,0,0,5.759.55,9.6,9.6,0,0,0,5.447-2.21,5.879,5.879,0,0,0,1.834-5.5,3.824,3.824,0,0,0-1.6-2.375,1.972,1.972,0,0,0-2.522.147,3.228,3.228,0,0,0-.917,2.586,4.9,4.9,0,0,0,1.036,2.641A10.088,10.088,0,0,0,128.5,450.1a12.839,12.839,0,0,0,5.5.706,7.337,7.337,0,0,0,4.585-2.219,5.723,5.723,0,0,0,1.66-4.448,3.283,3.283,0,0,0-2.678-3.091,2.229,2.229,0,0,0-1.788.807,3.741,3.741,0,0,0-.853,1.834,5.218,5.218,0,0,0,.835,3.668,7.162,7.162,0,0,0,2.522,2.357,8.932,8.932,0,0,0,5.5.871,16.507,16.507,0,0,0,3.485-.871C148.039,449.526,148.433,449.351,148.442,449.379Z" transform="translate(-51.398 -73.835)" fill="#fafafa"/>
      <rect id="Rectángulo_886" data-name="Rectángulo 886" width="23.936" height="47.018" transform="translate(49.366 365.603) rotate(-90)" fill="#ebebeb"/>
      <path id="Trazado_5596" data-name="Trazado 5596" d="M109.66,414.13c.174,0,.321,5.181.321,11.583s-.147,11.583-.321,11.583-.33-5.181-.33-11.583S109.477,414.13,109.66,414.13Z" transform="translate(-52.481 -71.637)" fill="#e0e0e0"/>
      <path id="Trazado_5597" data-name="Trazado 5597" d="M113.55,413.8c.174,0,.321,5.126.321,11.436s-.147,11.436-.321,11.436-.33-5.117-.33-11.436S113.367,413.8,113.55,413.8Z" transform="translate(-52.803 -71.61)" fill="#e0e0e0"/>
      <path id="Trazado_5598" data-name="Trazado 5598" d="M146.62,413c.174,0,.321,5.392.321,12.05s-.147,12.041-.321,12.041-.33-5.392-.33-12.041S146.437,413,146.62,413Z" transform="translate(-55.545 -71.544)" fill="#e0e0e0"/>
      <path id="Trazado_5599" data-name="Trazado 5599" d="M142.05,413.32c.174,0,.321,5.246.321,11.729s-.147,11.729-.321,11.729-.33-5.246-.33-11.729S141.867,413.32,142.05,413.32Z" transform="translate(-55.166 -71.57)" fill="#e0e0e0"/>
      <path id="Trazado_5600" data-name="Trazado 5600" d="M417.542,356.043c4.879-2.522,10.611-2.843,16.03-1.953,2.907.486,5.933,1.348,7.914,3.54s2.348,6.025.083,7.9a7.546,7.546,0,0,1-5,1.266c-4.237-.046-8.932-.789-12.316,1.761-1.935,1.449-3.219,3.87-5.5,4.585a5.411,5.411,0,0,1-6-2.669,9.317,9.317,0,0,1-.679-6.887,10.5,10.5,0,0,1,5.466-7.538Z" transform="translate(-77.555 -66.621)" fill="#ebebeb"/>
      <path id="Trazado_5601" data-name="Trazado 5601" d="M405.635,328.756c2.98,4.255,8.776,2.843,11.463.248s3.824-6.365,4.851-9.959c2.366-8.2,4.741-16.81,2.99-25.165a13.894,13.894,0,0,0-3.219-6.841,7.337,7.337,0,0,0-6.924-2.311c-2.916.78-4.732,3.668-6.044,6.355a60.086,60.086,0,0,0-5.933,25.751c0,4.145.477,8.492,2.815,11.922" transform="translate(-76.818 -60.895)" fill="#ebebeb"/>
      <path id="Trazado_5602" data-name="Trazado 5602" d="M393.9,336.1c3.237-3.843,3.852-9.446,2.412-14.251s-4.7-8.914-8.446-12.252a45.459,45.459,0,0,0-15.123-8.923,16.2,16.2,0,0,0-6.8-1.156,7.126,7.126,0,0,0-5.7,3.457c-1.6,3.036-.064,6.713,1.587,9.721a115.942,115.942,0,0,0,9.923,15.113c2.981,3.843,6.42,7.63,10.922,9.363s9.253,1.522,11.656-1.623" transform="translate(-73.231 -62.132)" fill="#ebebeb"/>
      <path id="Trazado_5603" data-name="Trazado 5603" d="M405.665,399.228a9.575,9.575,0,0,0,.275-1.935c.138-1.4.3-3.173.514-5.273a77.176,77.176,0,0,1,1.183-7.749,59.469,59.469,0,0,1,2.815-9.171,33.933,33.933,0,0,1,4.668-8.254,17.425,17.425,0,0,1,5.9-4.906,16.937,16.937,0,0,1,4.971-1.55,8.775,8.775,0,0,0,1.926-.275,8.978,8.978,0,0,0-1.963,0,15.068,15.068,0,0,0-5.181,1.348,17.425,17.425,0,0,0-6.218,4.943,32.935,32.935,0,0,0-4.842,8.437,55.823,55.823,0,0,0-2.751,9.29,67.006,67.006,0,0,0-1.036,7.841c-.165,2.238-.229,4.053-.257,5.31a9.243,9.243,0,0,0,0,1.944Z" transform="translate(-77.05 -67.154)" fill="#e0e0e0"/>
      <path id="Trazado_5604" data-name="Trazado 5604" d="M406.033,390.446a3.824,3.824,0,0,0,.055-.917v-2.568c0-2.219,0-5.447.11-9.428.2-7.96.917-16.507,2.21-28.613,1.256-11.353,2.935-24.578,4.714-33.171.376-1.953.761-3.714,1.128-5.255s.633-2.87.917-3.943.44-1.834.6-2.494a5.156,5.156,0,0,0,.165-.917,3.477,3.477,0,0,0-.312.844c-.2.642-.449,1.458-.752,2.458s-.669,2.384-1.055,3.925-.825,3.292-1.238,5.246a290.707,290.707,0,0,0-4.961,30.777c-1.321,12.105-1.917,23.129-1.972,31.107-.046,3.989,0,7.217.138,9.446.064,1.046.119,1.9.156,2.568a3.8,3.8,0,0,0,.1.935Z" transform="translate(-77.05 -62.433)" fill="#e0e0e0"/>
      <path id="Trazado_5605" data-name="Trazado 5605" d="M403.56,369.78a17.094,17.094,0,0,0,0-2.678c-.1-1.724-.339-4.219-.825-7.263a95.575,95.575,0,0,0-2.357-10.583,87.43,87.43,0,0,0-4.429-12.527,66.654,66.654,0,0,0-12.995-20.24,34.78,34.78,0,0,0-3.063-2.843c-.468-.394-.917-.789-1.3-1.1l-1.183-.816a16.248,16.248,0,0,0-2.265-1.449c-.128.174,3.2,2.128,7.4,6.6a70.247,70.247,0,0,1,12.674,20.176,98.272,98.272,0,0,1,4.429,12.4c1.165,3.888,1.935,7.465,2.522,10.473s.871,5.5,1.064,7.2A16.583,16.583,0,0,0,403.56,369.78Z" transform="translate(-74.522 -63.026)" fill="#e0e0e0"/>
      <path id="Trazado_5606" data-name="Trazado 5606" d="M382.17,412.53l2.137,29.181h37.481l2.137-29.181Z" transform="translate(-75.106 -71.505)" fill="#ebebeb"/>
      <rect id="Rectángulo_887" data-name="Rectángulo 887" width="49.843" height="11.5" transform="translate(303.442 329.525)" fill="#ebebeb"/>
      <path id="Trazado_5607" data-name="Trazado 5607" d="M378.22,443.13v3.191h49.027V443.13Z" transform="translate(-74.778 -74.042)" fill="#e0e0e0"/>
      <path id="Trazado_5608" data-name="Trazado 5608" d="M383.073,451.833l-2.293-5.6h44.891l-2.678,5.6Z" transform="translate(-74.99 -74.299)" fill="#e0e0e0"/>
      <path id="Trazado_5609" data-name="Trazado 5609" d="M423.287,422.564a1.2,1.2,0,0,1-.174.266c-.156.2-.339.44-.559.743l-2.192,2.8-.092.128-.092-.138c-1.376-1.9-3.21-4.429-5.365-7.419h.275l-5.282,7.483-.165.229-.183-.22-6.236-7.474h.358l-.339.431-5.576,7.043-.193.238-.165-.248c-1.908-2.687-3.668-5.209-5.292-7.474h.312l-6.511,7.419-.11.128-.092-.147-2.036-3.421c-.22-.376-.385-.679-.523-.917a1.5,1.5,0,0,1-.165-.321,1.485,1.485,0,0,1,.22.284l.578.917,2.137,3.366h-.2l6.42-7.511.156-.183.147.2,5.337,7.447h-.367l5.594-7.034.339-.44.183-.22.183.22,6.245,7.465h-.348l5.337-7.447.156-.22.147.22,5.255,7.5h-.193c.963-1.156,1.715-2.063,2.274-2.751l.605-.706C423.2,422.629,423.278,422.555,423.287,422.564Z" transform="translate(-75.165 -72.001)" fill="#f5f5f5"/>
      <path id="Trazado_5610" data-name="Trazado 5610" d="M424.475,412.3c0,.128-9.4.229-20.983.229s-20.983-.1-20.983-.229,9.391-.229,20.983-.229S424.475,412.171,424.475,412.3Z" transform="translate(-75.134 -71.466)" fill="#f5f5f5"/>
      <path id="Trazado_5611" data-name="Trazado 5611" d="M188.076,79.218a.583.583,0,0,1-.22-.064l-.605-.238-2.311-.963-8.483-3.668L148.578,62.142l-.972-.431h.2L120.488,73.44l-8.254,3.467-2.256.917a4.814,4.814,0,0,1-.8.284,5.392,5.392,0,0,1,.761-.376l2.219-1.009,8.254-3.622L147.67,61.28h.2l.972.422,27.824,12.289,8.41,3.769,2.274,1.055.587.284A.78.78,0,0,1,188.076,79.218Z" transform="translate(-52.468 -42.377)" fill="#e0e0e0"/>
      <rect id="Rectángulo_888" data-name="Rectángulo 888" width="179.096" height="134.104" transform="translate(0 32.842)" fill="#e0e0e0"/>
      <rect id="Rectángulo_889" data-name="Rectángulo 889" width="167.247" height="122.356" transform="translate(6.264 39.078)" fill="#fafafa"/>
      <path id="Trazado_5612" data-name="Trazado 5612" d="M94.45,141.57s.174,20.533,1.22,26.806l25.761-1.22s-2.256-20.176-1.385-25.586Z" transform="translate(-51.247 -49.035)" fill="#e0e0e0"/>
      <path id="Trazado_5613" data-name="Trazado 5613" d="M107.772,144.726h.376a6.1,6.1,0,0,1,1.073.055,6.016,6.016,0,0,1,1.632.486,5.419,5.419,0,0,1,1.779,1.412,6.062,6.062,0,0,1,1.238,2.476,5.979,5.979,0,0,1-.266,3.182,9.519,9.519,0,0,1-.724,1.6,14.67,14.67,0,0,0-.825,1.6,14.049,14.049,0,0,0-1.045,3.668v.083h-5.392V159.2a7.621,7.621,0,0,0-1.238-3.522c-.312-.532-.651-1.018-.917-1.522a15.593,15.593,0,0,1-.917-1.476,5,5,0,0,1-.4-3.136,6.63,6.63,0,0,1,1-2.568,5.035,5.035,0,0,1,1.669-1.513,6.906,6.906,0,0,1,2.641-.78h0a7.062,7.062,0,0,0-1.036.2,6.346,6.346,0,0,0-1.55.633,4.842,4.842,0,0,0-1.623,1.495,6.658,6.658,0,0,0-.917,2.522,4.806,4.806,0,0,0,.4,3.036,16.969,16.969,0,0,0,.917,1.458c.321.486.66.99.972,1.522a7.667,7.667,0,0,1,1.275,3.613l-.1-.1h5.218l-.1.092a14.169,14.169,0,0,1,1.064-3.714,16.9,16.9,0,0,1,.844-1.623,9.53,9.53,0,0,0,.715-1.559,5.851,5.851,0,0,0,.284-3.091,6.144,6.144,0,0,0-1.183-2.43,5.365,5.365,0,0,0-1.733-1.4,5.787,5.787,0,0,0-1.6-.5,8.117,8.117,0,0,0-1.055-.092h-.284C107.809,144.735,107.772,144.735,107.772,144.726Z" transform="translate(-51.877 -49.293)" fill="#fff"/>
      <path id="Trazado_5614" data-name="Trazado 5614" d="M109.335,159.487a.6.6,0,0,1,0-.083v-.238c0-.211-.083-.523-.138-.917-.119-.807-.293-1.963-.4-3.4,0-.358-.055-.734-.064-1.128a11.074,11.074,0,0,1,0-1.238,3.384,3.384,0,0,1,.284-1.284,1.953,1.953,0,0,1,.99-.981,1.293,1.293,0,0,1,1.4.266.917.917,0,0,1,.293.706,1.247,1.247,0,0,1-.257.734,1.742,1.742,0,0,1-.624.5,3.21,3.21,0,0,1-.761.248,9.766,9.766,0,0,1-3.265.11,2.908,2.908,0,0,1-.78-.22,2.009,2.009,0,0,1-.642-.459,1.485,1.485,0,0,1-.376-.7,1.146,1.146,0,0,1,.092-.761,1.009,1.009,0,0,1,.541-.523.917.917,0,0,1,.725,0,1.348,1.348,0,0,1,.55.459,1.972,1.972,0,0,1,.275.642,8.354,8.354,0,0,1,.128,1.321l.128,2.357c.064,1.44.128,2.6.165,3.421v1.238a.569.569,0,0,0,0-.083v-.238a7.024,7.024,0,0,0-.055-.917c0-.816-.119-1.981-.2-3.421,0-.715-.083-1.5-.128-2.357a7.145,7.145,0,0,0-.138-1.3,1.724,1.724,0,0,0-.257-.614,1.431,1.431,0,0,0-.523-.44.853.853,0,0,0-.669,0,.963.963,0,0,0-.5.486,1.119,1.119,0,0,0-.083.715,1.476,1.476,0,0,0,.358.651,2.348,2.348,0,0,0,1.376.66,9.538,9.538,0,0,0,1.623.073,9.354,9.354,0,0,0,1.614-.183,2.953,2.953,0,0,0,.743-.248,1.7,1.7,0,0,0,.6-.477,1.211,1.211,0,0,0,.248-.688.917.917,0,0,0-.275-.651A1.247,1.247,0,0,0,110,150.27a1.834,1.834,0,0,0-.917.917,3.43,3.43,0,0,0-.284,1.266c0,.422,0,.825,0,1.22a6.6,6.6,0,0,0,.064,1.137c.11,1.44.275,2.6.376,3.393.055.4.1.706.128.917v.238a.568.568,0,0,1-.037.128Z" transform="translate(-52.119 -49.738)" fill="#fff"/>
      <path id="Trazado_5615" data-name="Trazado 5615" d="M106,160.472a7.017,7.017,0,0,1,.073.853q0,.917.11,2.228V163.5l1.742,2.027h-.092l2.008-.11h-.083l.99-1.211.5-.614v.083c0-1.183-.055-2.293-.073-3.3l.11.1H106a1.266,1.266,0,0,1,.358,0l1.055-.055,3.815-.147h.11v.11c0,1.018.064,2.128.1,3.3v.009h0c-.165.2-.33.413-.5.614l-1,1.22h-.055l-2.008.1h-.037l-1.706-2.027h0v-2.293A7.146,7.146,0,0,1,106,160.472Z" transform="translate(-52.204 -50.586)" fill="#fff"/>
      <path id="Trazado_5616" data-name="Trazado 5616" d="M111.221,163.592a.384.384,0,0,1-.193-.083,5.356,5.356,0,0,0-.523-.2,4.989,4.989,0,0,0-1.834-.275,5.09,5.09,0,0,0-1.834.385l-.5.238-.183.092a.56.56,0,0,1,.165-.119,4.685,4.685,0,0,1,.5-.266,4.815,4.815,0,0,1,1.834-.413,4.668,4.668,0,0,1,1.834.3,3.67,3.67,0,0,1,.514.229Z" transform="translate(-52.217 -50.808)" fill="#fff"/>
      <path id="Trazado_5617" data-name="Trazado 5617" d="M111.212,162.721l-.183-.083-.523-.211a5.237,5.237,0,0,0-1.834-.275,5.5,5.5,0,0,0-1.834.385c-.22.092-.385.174-.5.238l-.183.092.165-.119a3.578,3.578,0,0,1,.5-.257,4.806,4.806,0,0,1,1.834-.422,5.025,5.025,0,0,1,1.834.3c.22.092.394.174.514.238A1.44,1.44,0,0,1,111.212,162.721Z" transform="translate(-52.217 -50.735)" fill="#fff"/>
      <path id="Trazado_5618" data-name="Trazado 5618" d="M111.162,161.882l-.183-.073c-.128-.055-.3-.138-.523-.211a5.255,5.255,0,0,0-1.834-.275,5.035,5.035,0,0,0-1.834.385c-.22.092-.385.174-.5.238l-.183.092.165-.119a3.938,3.938,0,0,1,.5-.266,5.008,5.008,0,0,1,1.834-.413,5.063,5.063,0,0,1,1.834.3,4.072,4.072,0,0,1,.514.238A.6.6,0,0,1,111.162,161.882Z" transform="translate(-52.213 -50.666)" fill="#fff"/>
      <path id="Trazado_5619" data-name="Trazado 5619" d="M63.17,105s.174,20.542,1.22,26.806l25.761-1.22S87.885,110.411,88.756,105Z" transform="translate(-48.653 -46.003)" fill="#ebebeb"/>
      <path id="Trazado_5620" data-name="Trazado 5620" d="M85.276,114.358a74.816,74.816,0,0,1-8.63.77,70.809,70.809,0,0,1-8.666.266,77.345,77.345,0,0,1,8.63-.77,75.512,75.512,0,0,1,8.666-.266Z" transform="translate(-49.052 -46.776)" fill="#fff"/>
      <path id="Trazado_5621" data-name="Trazado 5621" d="M85.277,119.1a72.969,72.969,0,0,1-8.63.78,75.346,75.346,0,0,1-8.657.266,74.54,74.54,0,0,1,8.63-.77,74.282,74.282,0,0,1,8.657-.275Z" transform="translate(-49.052 -47.17)" fill="#fff"/>
      <path id="Trazado_5622" data-name="Trazado 5622" d="M81.179,123.749a24.541,24.541,0,0,1-4.916.55,24.367,24.367,0,0,1-4.934,0,24.5,24.5,0,0,1,4.906-.55A24.441,24.441,0,0,1,81.179,123.749Z" transform="translate(-49.329 -47.547)" fill="#fff"/>
      <path id="Trazado_5623" data-name="Trazado 5623" d="M61.84,170.85s.174,20.533,1.22,26.806l25.761-1.22s-2.265-20.176-1.394-25.586Z" transform="translate(-48.542 -51.463)" fill="#ebebeb"/>
      <path id="Trazado_5624" data-name="Trazado 5624" d="M83.947,180.248a73.514,73.514,0,0,1-8.63.78,75.384,75.384,0,0,1-8.657.266,74.226,74.226,0,0,1,8.621-.77,74.415,74.415,0,0,1,8.666-.275Z" transform="translate(-48.942 -52.24)" fill="#fff"/>
      <path id="Trazado_5625" data-name="Trazado 5625" d="M83.947,185a74.278,74.278,0,0,1-8.63.77,75.349,75.349,0,0,1-8.657.266,74.536,74.536,0,0,1,8.63-.77A75.363,75.363,0,0,1,83.947,185Z" transform="translate(-48.942 -52.634)" fill="#fff"/>
      <path id="Trazado_5626" data-name="Trazado 5626" d="M79.849,189.65a24.137,24.137,0,0,1-4.906.541,24.44,24.44,0,0,1-4.943.046,24.5,24.5,0,0,1,4.906-.55,24.006,24.006,0,0,1,4.943-.037Z" transform="translate(-49.219 -53.013)" fill="#fff"/>
      <path id="Trazado_5627" data-name="Trazado 5627" d="M138.61,110.89l2.549,59.243,73.953.89-3.32-59.353Z" transform="translate(-54.909 -46.491)" fill="#ebebeb"/>
      <rect id="Rectángulo_890" data-name="Rectángulo 890" width="73.467" height="55.474" transform="translate(82.839 63.977)" fill="#f5f5f5"/>
      <path id="Trazado_5628" data-name="Trazado 5628" d="M211.113,165.883v-3.989c0-2.6,0-6.42-.055-11.225,0-9.675-.064-23.514-.11-40.26l.211.2H137.7l.257-.248v55.474l-.229-.229,52.989.11,15.077.064h4.053l-4.035.174-15.013.064-53.19.11h-.229V110.18h73.935v.211c0,16.792-.083,30.685-.11,40.351,0,4.815,0,8.584-.055,11.179v2.916C211.131,165.553,211.113,165.883,211.113,165.883Z" transform="translate(-54.807 -46.432)" fill="#e0e0e0"/>
      <rect id="Rectángulo_891" data-name="Rectángulo 891" width="29.777" height="37.481" transform="translate(91.708 75.725)" fill="#f5f5f5"/>
      <path id="Trazado_5629" data-name="Trazado 5629" d="M177.1,160.7a.614.614,0,0,1,0-.193v-2.577c0-1.834,0-4.411-.055-7.694,0-6.594-.073-15.93-.119-27.017l.229.229H147.38c-.064,0,.477-.477.248-.248h0v37.463l-.2-.211,21.56.11,6.044.055H177.2a3.592,3.592,0,0,1-.523,0h-1.559l-6.007.055-21.689.11h-.211V123.236h0c-.229.22.3-.321.257-.257h30.007v.229c-.046,11.142-.092,20.533-.119,27.164l-.055,7.639v2.513a1.128,1.128,0,0,1-.2.174Z" transform="translate(-55.617 -47.493)" fill="#e0e0e0"/>
      <rect id="Rectángulo_892" data-name="Rectángulo 892" width="57.07" height="5.402" transform="translate(92.845 67.15)" fill="#f5f5f5"/>
      <path id="Trazado_5630" data-name="Trazado 5630" d="M205.631,119.254v-1.421c0-.917,0-2.265-.064-3.98l.1.1c-9.62.092-31.557.156-57.07.156h0c.5-.514.138-.147.257-.257h0v5.383l-.248-.257,40.452.11,12.142.073h4.173a2.036,2.036,0,0,1,.3,0H201.33l-12.087.083-40.636.1h-.248V113.7h0l.257-.257h0c25.513,0,47.449.064,57.07.156h.11v.1c0,1.733,0,3.091-.055,4.044v1.018A1.458,1.458,0,0,1,205.631,119.254Z" transform="translate(-55.717 -46.703)" fill="#e0e0e0"/>
      <rect id="Rectángulo_893" data-name="Rectángulo 893" width="24.789" height="22.588" transform="translate(125.126 75.725)" fill="#f5f5f5"/>
      <path id="Trazado_5631" data-name="Trazado 5631" d="M208.552,145.793v-1.66c0-1.1,0-2.65-.055-4.585,0-3.98-.064-9.583-.11-16.324l.211.22H183.837l.248-.248h0v22.578l-.229-.22,17.883.11,5.071.064h1.357a2.834,2.834,0,0,1,.477,0,2.348,2.348,0,0,1-.431,0H206.9l-5.016.055-18.03.11h-.22V123.086h0c-.229.22.3-.312.257-.257h24.981v.211c-.046,6.8-.083,12.454-.11,16.507,0,1.926-.046,3.457-.055,4.585v1.183A1.836,1.836,0,0,1,208.552,145.793Z" transform="translate(-58.637 -47.481)" fill="#e0e0e0"/>
      <rect id="Rectángulo_894" data-name="Rectángulo 894" width="24.789" height="11.353" transform="translate(125.126 101.852)" fill="#f5f5f5"/>
      <path id="Trazado_5632" data-name="Trazado 5632" d="M208.552,163.045v-.825l-.046-2.274c0-2.008-.055-4.805-.1-8.254l.183.183-24.761.073c-.229.229.3-.312.248-.248h0v11.344l-.248-.238,17.727.11,5.172.073h1.889a2.4,2.4,0,0,1-.44,0h-1.348l-5.108.073-17.892.11h-.238V151.591h0c-.055,0,.477-.486.257-.257l24.761.064h.119v.183c0,3.494-.073,6.337-.092,8.364v2.238a4.484,4.484,0,0,1-.083.862Z" transform="translate(-58.638 -49.84)" fill="#e0e0e0"/>
      <path id="Trazado_5633" data-name="Trazado 5633" d="M176.374,123.31c-9.226,12.738-19.827,24.678-29.044,37.417" transform="translate(-55.632 -47.521)" fill="#fff"/>
      <path id="Trazado_5634" data-name="Trazado 5634" d="M147.34,160.727a2.861,2.861,0,0,1,.238-.422l.78-1.137c.679-.99,1.7-2.394,2.98-4.108,2.559-3.448,6.218-8.107,10.326-13.2s7.8-9.712,10.427-13.1l3.109-4.008.853-1.091c.2-.238.312-.367.33-.358a2.182,2.182,0,0,1-.248.422l-.78,1.137c-.679.99-1.7,2.394-2.98,4.118-2.559,3.439-6.218,8.1-10.326,13.188s-7.8,9.712-10.427,13.1l-3.109,4.017-.853,1.082A2.063,2.063,0,0,1,147.34,160.727Z" transform="translate(-55.632 -47.521)" fill="#e0e0e0"/>
      <line id="Línea_76" data-name="Línea 76" x2="29.777" y2="37.481" transform="translate(91.708 75.725)" fill="#fff"/>
      <path id="Trazado_5635" data-name="Trazado 5635" d="M177.119,160.721c-.11.083-6.869-8.254-15.086-18.58s-14.8-18.809-14.673-18.9,6.86,8.254,15.086,18.589S177.229,160.62,177.119,160.721Z" transform="translate(-55.634 -47.515)" fill="#e0e0e0"/>
      <path id="Trazado_5636" data-name="Trazado 5636" d="M140.547,122.909a4.659,4.659,0,1,1-4.659-4.659A4.659,4.659,0,0,1,140.547,122.909Z" transform="translate(-54.297 -47.101)" fill="#e0e0e0"/>
      <path id="Trazado_5637" data-name="Trazado 5637" d="M223.637,110.579a4.659,4.659,0,1,1-4.659-4.659A4.659,4.659,0,0,1,223.637,110.579Z" transform="translate(-61.187 -46.079)" fill="#e0e0e0"/>
      <rect id="Rectángulo_895" data-name="Rectángulo 895" width="53.686" height="77.823" transform="translate(291.006 96.946)" fill="#e0e0e0"/>
      <rect id="Rectángulo_896" data-name="Rectángulo 896" width="53.686" height="77.823" transform="translate(288.319 96.946)" fill="#f5f5f5"/>
      <rect id="Rectángulo_897" data-name="Rectángulo 897" width="40.351" height="60.967" transform="translate(294.986 105.374)" fill="#fff"/>
      <path id="Trazado_5638" data-name="Trazado 5638" d="M409.341,216.513V199.446c0-10.748,0-25.972-.064-43.9l.138.138H368.99l.147-.147V216.5l-.119-.119,29.346.064h.073L369,216.5h-.119V155.28h40.59v.128c0,17.965-.046,33.216-.064,44.02v16.691Z" transform="translate(-74.004 -50.172)" fill="#e0e0e0"/>
      <path id="Trazado_5639" data-name="Trazado 5639" d="M419.772,146.38a8.417,8.417,0,0,1-.917,1.394c-.624.835-1.513,1.963-2.522,3.191s-1.953,2.311-2.65,3.091a9.022,9.022,0,0,1-1.183,1.2,10.51,10.51,0,0,1,1.027-1.339l2.586-3.136,2.577-3.136A11.385,11.385,0,0,1,419.772,146.38Z" transform="translate(-77.621 -49.434)" fill="#e0e0e0"/>
      <path id="Trazado_5640" data-name="Trazado 5640" d="M413.22,221.83a49.667,49.667,0,0,0,7.034,8.8" transform="translate(-77.681 -55.691)" fill="#fff"/>
      <path id="Trazado_5641" data-name="Trazado 5641" d="M420.254,230.634a7.5,7.5,0,0,1-1.22-1.119,38.511,38.511,0,0,1-2.66-2.99,39.652,39.652,0,0,1-2.339-3.246,7.814,7.814,0,0,1-.816-1.449,11.921,11.921,0,0,1,.99,1.33c.587.835,1.421,1.963,2.394,3.182s1.9,2.274,2.577,3.036a10.585,10.585,0,0,1,1.073,1.256Z" transform="translate(-77.681 -55.691)" fill="#e0e0e0"/>
      <path id="Trazado_5642" data-name="Trazado 5642" d="M361.72,230.386l7.034-8.676" transform="translate(-73.41 -55.681)" fill="#fff"/>
      <path id="Trazado_5643" data-name="Trazado 5643" d="M368.751,221.71c.055,0-1.467,2.036-3.4,4.429a53.019,53.019,0,0,1-3.668,4.246,106.287,106.287,0,0,1,7.034-8.676Z" transform="translate(-73.407 -55.681)" fill="#e0e0e0"/>
      <path id="Trazado_5644" data-name="Trazado 5644" d="M361.73,146.38a52.913,52.913,0,0,1,3.412,4.081,48.115,48.115,0,0,1,3.182,4.264,50.561,50.561,0,0,1-3.411-4.108A46,46,0,0,1,361.73,146.38Z" transform="translate(-73.411 -49.434)" fill="#e0e0e0"/>
      <rect id="Rectángulo_898" data-name="Rectángulo 898" width="13.509" height="38.361" transform="translate(309.256 117.754)" fill="#e0e0e0"/>
      <rect id="Rectángulo_899" data-name="Rectángulo 899" width="7.685" height="38.242" transform="matrix(1, -0.005, 0.005, 1, 324.636, 14.297)" fill="#e0e0e0"/>
      <rect id="Rectángulo_900" data-name="Rectángulo 900" width="19.901" height="21.111" transform="matrix(1, -0.005, 0.005, 1, 258.057, 14.465)" fill="#ebebeb"/>
      <rect id="Rectángulo_901" data-name="Rectángulo 901" width="19.901" height="21.111" transform="matrix(1, -0.005, 0.005, 1, 277.856, 14.367)" fill="#f5f5f5"/>
      <path id="Trazado_5645" data-name="Trazado 5645" d="M328.743,62.763c13.224.11,26.485,0,39.709-.183a.211.211,0,1,0,0-.422q-19.855-.11-39.709.238a.183.183,0,1,0,0,.367Z" transform="translate(-70.66 -42.448)" fill="#e0e0e0"/>
      <rect id="Rectángulo_902" data-name="Rectángulo 902" width="36.16" height="17.204" transform="matrix(1, -0.005, 0.005, 1, 245.643, 35.322)" fill="#ebebeb"/>
      <rect id="Rectángulo_903" data-name="Rectángulo 903" width="36.16" height="17.204" transform="matrix(1, -0.005, 0.005, 1, 281.637, 35.127)" fill="#f5f5f5"/>
      <path id="Trazado_5646" data-name="Trazado 5646" d="M315.2,84.334c24.027.275,48.128,0,72.146-.358a.211.211,0,1,0,0-.422c-24.027-.128-48.128-.11-72.146.413a.183.183,0,1,0,0,.367Z" transform="translate(-69.537 -44.219)" fill="#e0e0e0"/>
      <rect id="Rectángulo_904" data-name="Rectángulo 904" width="140.092" height="6.163" transform="translate(232.148 52.532)" fill="#e0e0e0"/>
      <rect id="Rectángulo_905" data-name="Rectángulo 905" width="5.686" height="21.029" transform="translate(255.084 55.494)" fill="#e0e0e0"/>
      <rect id="Rectángulo_906" data-name="Rectángulo 906" width="5.686" height="21.029" transform="translate(339.978 55.494)" fill="#e0e0e0"/>
      <rect id="Rectángulo_907" data-name="Rectángulo 907" width="7.685" height="52.594" transform="matrix(1, -0.005, 0.005, 1, 332.134, 0.042)" fill="#ebebeb"/>
      <rect id="Rectángulo_908" data-name="Rectángulo 908" width="11.94" height="42.626" transform="matrix(1, -0.005, 0.005, 1, 339.89, 9.858)" fill="#f5f5f5"/>
      <path id="Trazado_5647" data-name="Trazado 5647" d="M429.812,60.292a84.6,84.6,0,0,1-11.922,0,88.436,88.436,0,0,1,11.922,0Z" transform="translate(-78.068 -42.279)" fill="#e0e0e0"/>
      <path id="Trazado_5648" data-name="Trazado 5648" d="M429.812,58.342a84.6,84.6,0,0,1-11.922,0,88.434,88.434,0,0,1,11.922,0Z" transform="translate(-78.068 -42.117)" fill="#e0e0e0"/>
      <path id="Trazado_5649" data-name="Trazado 5649" d="M429.812,90.822a84.6,84.6,0,0,1-11.922,0A88.434,88.434,0,0,1,429.812,90.822Z" transform="translate(-78.068 -44.81)" fill="#e0e0e0"/>
      <path id="Trazado_5650" data-name="Trazado 5650" d="M429.812,88.872a84.6,84.6,0,0,1-11.922,0A88.433,88.433,0,0,1,429.812,88.872Z" transform="translate(-78.068 -44.649)" fill="#e0e0e0"/>
      <path id="Trazado_5651" data-name="Trazado 5651" d="M424.571,82.894c-.119,0-.211-4.3-.211-9.6s.092-9.6.211-9.6.2,4.3.2,9.6S424.681,82.894,424.571,82.894Z" transform="translate(-78.604 -42.577)" fill="#e0e0e0"/>
      <rect id="Rectángulo_909" data-name="Rectángulo 909" width="12.995" height="32.171" transform="translate(351.873 20.269)" fill="#ebebeb"/>
      <path id="Trazado_5652" data-name="Trazado 5652" d="M438.257,88.3a2.751,2.751,0,0,1-2.907-2.9A2.513,2.513,0,0,1,436.4,83.23l.293.413a2.082,2.082,0,0,0-.853,1.761,2.412,2.412,0,1,0,4.824,0,2.063,2.063,0,0,0-.862-1.761l.3-.413a2.549,2.549,0,0,1,1.046,2.173,2.751,2.751,0,0,1-2.9,2.9Z" transform="translate(-79.515 -44.197)" fill="#fafafa"/>
      <path id="Trazado_5653" data-name="Trazado 5653" d="M440.421,81.949l-.431-.248a3.375,3.375,0,0,0,.688-2.063c0-1.2-.431-1.687-1.073-1.687-1.669,0-.44,3.8-2.687,3.8-.862,0-1.568-.724-1.568-2.173a3.521,3.521,0,0,1,.559-1.963l.44.257a2.935,2.935,0,0,0-.514,1.715c0,1.119.459,1.614,1.073,1.614,1.715,0,.5-3.8,2.687-3.8.917,0,1.559.807,1.559,2.265A3.549,3.549,0,0,1,440.421,81.949Z" transform="translate(-79.516 -43.714)" fill="#fafafa"/>
      <path id="Trazado_5654" data-name="Trazado 5654" d="M440.421,76.239l-.431-.248a3.375,3.375,0,0,0,.688-2.063c0-1.2-.431-1.687-1.073-1.687-1.669,0-.44,3.788-2.687,3.788-.862,0-1.568-.715-1.568-2.164a3.521,3.521,0,0,1,.559-1.963l.44.248a2.98,2.98,0,0,0-.514,1.724c0,1.119.459,1.614,1.073,1.614,1.715,0,.5-3.8,2.687-3.8.917,0,1.559.8,1.559,2.256a3.558,3.558,0,0,1-.734,2.293Z" transform="translate(-79.516 -43.24)" fill="#fafafa"/>
      <circle id="Elipse_231" data-name="Elipse 231" cx="2.21" cy="2.21" r="2.21" transform="translate(333.65 6.788)" fill="#e0e0e0"/>
      <rect id="Rectángulo_910" data-name="Rectángulo 910" width="1.366" height="31.291" transform="translate(335.173 15.069)" fill="#e0e0e0"/>
    </g>
    <g id="freepik--Floor--inject-422" transform="translate(39.288 419.486)">
      <path id="Trazado_5655" data-name="Trazado 5655" d="M435.033,453.978c0,.128-88.58.238-197.822.238s-197.841-.092-197.841-.238,88.562-.238,197.841-.238S435.033,453.868,435.033,453.978Z" transform="translate(-39.37 -453.74)" fill="#263238"/>
    </g>
    <g id="freepik--Hourglass--inject-422" transform="translate(129.222 92.998)">
      <path id="Trazado_5656" data-name="Trazado 5656" d="M154.641,110.239c-14.719,23.147-13.756,55.245,2.329,77.465,10.721,14.82,26.8,24.761,39.563,37.839S219,257.925,212.261,274.927c-6.86,17.305-26.953,24.339-41.993,35.307A79.364,79.364,0,0,0,151.12,418.652H307.408s27.457-52.319-7.841-92.2-54.254-40.526-52.952-66.681,19.607-34.638,30.071-44.451,61.444-32.675,31.373-105.088Z" transform="translate(-137.452 -98.766)" fill="#fafafa"/>
      <path id="Trazado_5657" data-name="Trazado 5657" d="M154.626,110.233h41.112l112.3-.083h.119v.11a143.972,143.972,0,0,1,5.869,16.828,97.877,97.877,0,0,1,3.32,18.342,72.662,72.662,0,0,1-.99,19.414,62.426,62.426,0,0,1-7.061,18.873,67.645,67.645,0,0,1-5.888,8.538,78.012,78.012,0,0,1-7.2,7.7,104.3,104.3,0,0,1-8.171,6.924c-2.843,2.2-5.814,4.274-8.712,6.475-1.449,1.091-2.751,2.32-4.164,3.549s-2.815,2.375-4.264,3.531c-2.889,2.311-5.805,4.585-8.556,7.144A45.762,45.762,0,0,0,249.506,246a44.934,44.934,0,0,0-2.421,11.3c-.083.917-.211,1.926-.248,2.9a25.789,25.789,0,0,0,0,2.916,32.547,32.547,0,0,0,.587,5.814,26.531,26.531,0,0,0,4.64,10.748,59,59,0,0,0,8.1,8.776c5.934,5.42,12.234,10.6,18.259,16.2s11.922,11.427,17.608,17.6a104.356,104.356,0,0,1,8.125,9.666,67.332,67.332,0,0,1,6.557,10.922,71.844,71.844,0,0,1,6.731,24.761,90.874,90.874,0,0,1-1.522,26.045,107,107,0,0,1-3.357,12.784,94.014,94.014,0,0,1-4.952,12.335l-.064.128H150.976l-.064-.1a80.565,80.565,0,0,1-13.087-36.894,77.786,77.786,0,0,1,5.411-37.233,81.069,81.069,0,0,1,20.653-29.511,94.054,94.054,0,0,1,14.1-10.29c4.879-3.026,9.8-5.833,14.453-8.9a66.433,66.433,0,0,0,12.729-10.345,34.9,34.9,0,0,0,7.868-13.646,34.023,34.023,0,0,0,.624-15.233,49.862,49.862,0,0,0-4.833-14,68.339,68.339,0,0,0-7.868-11.922,94.186,94.186,0,0,0-9.519-9.932c-6.612-6.089-13.389-11.418-19.479-16.893-3.054-2.751-5.943-5.5-8.611-8.318a78.636,78.636,0,0,1-7.135-8.795,67.387,67.387,0,0,1-8.941-18.534,69.525,69.525,0,0,1-3.045-17.562c-.128-1.357-.073-2.7-.073-4.008s0-2.586.119-3.824.183-2.449.275-3.668.339-2.311.5-3.421a65.277,65.277,0,0,1,6.126-19.424,24.562,24.562,0,0,1,1.412-2.751l1.128-1.917c.6-1.018.917-1.532.917-1.532l-.917,1.559-1.091,1.889a27.646,27.646,0,0,0-1.394,2.751,65.6,65.6,0,0,0-6.053,19.451c-.156,1.1-.339,2.238-.477,3.4s-.183,2.384-.275,3.622-.092,2.513-.1,3.815a39.106,39.106,0,0,0,.083,4,68.954,68.954,0,0,0,3.072,17.5,66.945,66.945,0,0,0,8.932,18.461,77.128,77.128,0,0,0,7.126,8.749c2.66,2.825,5.548,5.576,8.6,8.254,6.089,5.5,12.839,10.776,19.5,16.874a94.788,94.788,0,0,1,9.593,10.005,69.008,69.008,0,0,1,7.914,12,50.053,50.053,0,0,1,4.879,14.1,34.363,34.363,0,0,1-.624,15.4,35.124,35.124,0,0,1-7.942,13.8,67.3,67.3,0,0,1-12.784,10.418c-4.668,3.072-9.593,5.878-14.462,8.9a94.254,94.254,0,0,0-14.05,10.253,80.757,80.757,0,0,0-20.533,29.346,77.337,77.337,0,0,0-5.365,37.041,80.207,80.207,0,0,0,13.022,36.683l-.183-.1H307.392l-.211.128a92.629,92.629,0,0,0,4.934-12.307,106.517,106.517,0,0,0,3.338-12.729,90.312,90.312,0,0,0,1.513-25.916,71.091,71.091,0,0,0-6.686-24.624,67.421,67.421,0,0,0-6.5-10.849,106.956,106.956,0,0,0-8.089-9.629q-8.483-9.235-17.58-17.571c-6.016-5.585-12.3-10.757-18.25-16.2a60.085,60.085,0,0,1-8.171-8.841,27.063,27.063,0,0,1-4.76-10.886,34.554,34.554,0,0,1-.6-5.9c-.046-.981,0-1.963,0-2.944s.165-1.953.238-2.925a45.562,45.562,0,0,1,2.476-11.363,46.084,46.084,0,0,1,12.958-18.571c2.751-2.549,5.7-4.86,8.584-7.162,1.449-1.156,2.87-2.32,4.255-3.512s2.751-2.476,4.182-3.577c2.916-2.2,5.878-4.274,8.712-6.465a105.613,105.613,0,0,0,8.153-6.887,79.3,79.3,0,0,0,7.162-7.658,69.609,69.609,0,0,0,5.86-8.492,62,62,0,0,0,7.025-18.745,72.21,72.21,0,0,0,1-19.259,98.03,98.03,0,0,0-3.292-18.342,145.561,145.561,0,0,0-5.8-16.883l.156.1-112.241-.083H157.3Z" transform="translate(-137.437 -98.76)" fill="#263238"/>
      <path id="Trazado_5658" data-name="Trazado 5658" d="M303.143,155.3c23.019,3.788-13.27,44.561-33.822,60.646C257.4,225.256,244.652,235.362,239,249.375c-6.42,15.9-1.66,33.767-4.76,49.761a2.219,2.219,0,0,1-4.4-.468,176.927,176.927,0,0,0-1.834-31.327c-2.467-14.673-8.1-29.154-18.342-39.893-8.391-8.776-19.387-14.6-28.328-22.8-13.059-11.968-26.476-27.4-27.787-45.065,0,0,25.073-20.176,38.994-17.654,16.269,2.98,32.281,28.081,57.482,25.21C267.561,165.132,276.447,150.918,303.143,155.3Z" transform="translate(-138.773 -101.377)" fill="#f83f00"/>
      <path id="Trazado_5659" data-name="Trazado 5659" d="M304.613,392.032c-.578-5.759-2.118-12.27-7.227-14.985-3.091-1.651-6.86-1.467-10.253-.578s-6.575,2.439-9.932,3.439a32.528,32.528,0,0,1-20.332-.651c-6.245-2.293-11.6-6.42-17.424-9.7s-12.582-5.686-19.038-4.081c-11.133,2.751-16.929,16.177-27.934,19.414-4.9,1.431-10.152.624-15.123-.5s-9.969-2.577-15.058-2.384a16.706,16.706,0,0,0-10.95,4.264h0l-.073.083A10.838,10.838,0,0,0,150,387.841c-3.412,4.585-3.962,10.666-2.907,16.223,1.174,6.227,4.081,11.977,7.2,17.489,3.668,6.493,7.85,12.949,13.921,17.278,7.5,5.347,16.92,1.66,26.1,2.384,21.4,1.687,44.414,2.834,65.818,1.183,11.308-.917,21.9.348,30.869-6.594,6.309-4.879,10.418-12.234,12.4-19.956S305.411,399.965,304.613,392.032Z" transform="translate(-138.198 -119.89)" fill="#f83f00"/>
      <g id="Grupo_1807" data-name="Grupo 1807" transform="translate(122.656 261.119)" opacity="0.24">
        <path id="Trazado_5660" data-name="Trazado 5660" d="M274.555,382.46c-1.2,1.834-1.724,4.329-.559,6.2s2.751,3.586,3.246,5.741c.8,3.375-1.238,6.676-2.751,9.8a31.226,31.226,0,0,0-3.035,18.094,24.614,24.614,0,0,0,8.978,15.8c2.173,1.678,5,2.98,7.621,2.155,2.467-.77,4.053-3.274,4.585-5.814s.083-5.154-.238-7.713a119.809,119.809,0,0,1,.917-35.839c.348-1.972.679-4.228-.569-5.8a6.713,6.713,0,0,0-3.292-1.834c-4.769-1.587-9.914.174-14.857-.761" transform="translate(-271.184 -382.46)"/>
      </g>
      <path id="Trazado_5661" data-name="Trazado 5661" d="M139.83,453.27s-.431-7.172,8.923-11.17H313.139s8.575,4.347,9.629,11Z" transform="translate(-137.635 -126.287)" fill="#263238"/>
      <path id="Trazado_5662" data-name="Trazado 5662" d="M310.672,110.074l-.266.119-154.573-.99s-.55-.348-1.366-1a5.86,5.86,0,0,1,3.668-10.473l150.034,1.211C314.341,99,316.285,107.433,310.672,110.074Z" transform="translate(-138.663 -97.73)" fill="#263238"/>
      <g id="Grupo_1808" data-name="Grupo 1808" transform="translate(44.802 69.363)" opacity="0.24">
        <path id="Trazado_5663" data-name="Trazado 5663" d="M288.736,175.314c.312.6-.853,1.834-3.063,3.852s-5.5,4.668-9.593,8a125.912,125.912,0,0,1-15.59,11,62.554,62.554,0,0,1-10.675,4.906,50.54,50.54,0,0,1-6.135,1.7,41.854,41.854,0,0,1-6.63.862,35.4,35.4,0,0,1-13.325-1.834,48.017,48.017,0,0,1-10.711-5.5c-3.081-2.036-5.732-4.053-8.254-5.989s-4.769-3.8-6.8-5.557c-8.116-7.034-12.39-12.206-11.564-13.206s6.6,2.256,15.59,7.758l7.337,4.494c2.632,1.6,5.447,3.366,8.327,5a46.623,46.623,0,0,0,9.033,4.081,29.007,29.007,0,0,0,9.941,1.174c7.043-.367,13.875-2.843,19.79-5.7s11.271-6.2,15.911-8.8a80.164,80.164,0,0,1,11.482-5.594C286.71,174.929,288.471,174.736,288.736,175.314Z" transform="translate(-186.29 -173.364)"/>
      </g>
      <path id="Trazado_5664" data-name="Trazado 5664" d="M236.708,334.243a2.659,2.659,0,1,1-.128.055" transform="translate(-145.53 -117.327)" fill="#f83f00"/>
      <path id="Trazado_5665" data-name="Trazado 5665" d="M174.613,197.062a3.971,3.971,0,0,1-.55-.55l-1.495-1.632c-.633-.724-1.467-1.568-2.32-2.641l-2.916-3.668c-1-1.412-2.128-2.935-3.265-4.585l-1.678-2.669c-.284-.459-.587-.917-.862-1.4l-.807-1.486a61.994,61.994,0,0,1-5.7-13.71,57.776,57.776,0,0,1-2.164-14.673c0-1.146.064-2.256.083-3.347a11.488,11.488,0,0,1,.073-1.6c.073-.523.11-1.036.165-1.541.119-1.009.193-1.99.33-2.925s.33-1.834.486-2.669c.257-1.715.715-3.21,1.036-4.585.174-.66.312-1.284.486-1.834l.5-1.532.706-2.1a3.907,3.907,0,0,1,.275-.724,4.174,4.174,0,0,1-.183.752c-.156.532-.358,1.238-.624,2.128l-.459,1.531c-.156.559-.284,1.183-.449,1.834a40,40,0,0,0-.917,4.585c-.147.844-.293,1.733-.449,2.66s-.193,1.9-.3,2.907a14.946,14.946,0,0,1-.156,1.532c-.055.523,0,1.055-.055,1.587,0,1.082-.073,2.183-.064,3.32a58.087,58.087,0,0,0,2.137,14.591,63.114,63.114,0,0,0,5.622,13.628c.266.5.532.99.789,1.486s.578.917.853,1.394l1.651,2.669c1.119,1.687,2.228,3.21,3.2,4.585l2.861,3.668c.825,1.091,1.642,1.944,2.247,2.7l1.431,1.7A6.235,6.235,0,0,1,174.613,197.062Z" transform="translate(-138.716 -100.173)" fill="#263238"/>
      <path id="Trazado_5666" data-name="Trazado 5666" d="M167.09,342.354a1.834,1.834,0,0,1,.165-.3l.55-.862c.248-.385.55-.844.917-1.394l.578-.917c.229-.3.5-.605.761-.917l1.834-2.2c.706-.761,1.513-1.55,2.366-2.412a62.07,62.07,0,0,1,6.291-5.3c4.87-3.668,11.152-7.337,17.956-11.638a102.7,102.7,0,0,0,10.3-7.254,48.046,48.046,0,0,0,9.235-9.758,46.193,46.193,0,0,0,7.474-24.605A58.206,58.206,0,0,0,222,253.884a78.043,78.043,0,0,0-6.071-13.022c-.853-1.476-1.55-2.6-2.027-3.356l-.541-.862c-.119-.193-.174-.3-.174-.3a1.357,1.357,0,0,1,.211.275l.587.844c.5.734,1.229,1.834,2.1,3.311a74.431,74.431,0,0,1,6.236,13,58.152,58.152,0,0,1,3.668,21.029,49.526,49.526,0,0,1-.5,6.181,45.165,45.165,0,0,1-1.348,6.337,42.938,42.938,0,0,1-5.768,12.353,48.358,48.358,0,0,1-9.336,9.859,104.035,104.035,0,0,1-10.354,7.263c-6.832,4.264-13.123,7.9-17.993,11.537a64.577,64.577,0,0,0-6.309,5.218c-.853.853-1.669,1.623-2.384,2.375l-1.834,2.155c-.275.33-.541.633-.77.917l-.6.871-.917,1.366-.587.835A2.139,2.139,0,0,1,167.09,342.354Z" transform="translate(-139.896 -109.224)" fill="#263238"/>
      <path id="Trazado_5667" data-name="Trazado 5667" d="M157.084,369.61a2.9,2.9,0,0,1-.2.431l-.66,1.165c-.293.5-.642,1.119-1,1.834s-.816,1.559-1.2,2.522c-.2.477-.422.972-.642,1.486s-.4,1.082-.624,1.651c-.44,1.137-.789,2.384-1.192,3.668a49.834,49.834,0,0,0-1.623,17.681c.156,1.357.266,2.66.5,3.852.1.6.183,1.183.3,1.733s.248,1.082.367,1.587c.2,1.018.5,1.908.724,2.7s.44,1.467.642,2.018l.431,1.266a1.569,1.569,0,0,1,.119.449,1.742,1.742,0,0,1-.211-.413c-.138-.339-.3-.743-.514-1.238a19.773,19.773,0,0,1-.724-2c-.248-.789-.569-1.678-.8-2.7-.128-.5-.257-1.036-.394-1.587s-.22-1.146-.339-1.742c-.257-1.211-.385-2.513-.55-3.879a48,48,0,0,1,1.632-17.791c.413-1.321.78-2.577,1.247-3.714.229-.569.413-1.128.651-1.651l.679-1.495c.4-.917.917-1.77,1.275-2.5a19.012,19.012,0,0,1,1.073-1.834l.734-1.128C156.974,369.729,157.066,369.6,157.084,369.61Z" transform="translate(-138.419 -120.275)" fill="#263238"/>
      <path id="Trazado_5668" data-name="Trazado 5668" d="M273.736,393.65l-.183.128-.569.358-2.228,1.339-1.614.917c-.605.339-1.275.651-1.99,1.009-1.449.7-3.045,1.587-4.934,2.3l-2.935,1.2c-1.018.4-2.128.724-3.246,1.11-2.228.816-4.7,1.4-7.282,2.073a85.37,85.37,0,0,1-34.491.917c-2.623-.532-5.117-.99-7.392-1.687-1.137-.33-2.256-.587-3.3-.917l-2.99-1.091c-1.917-.614-3.567-1.412-5.044-2.036-.734-.321-1.421-.605-2.036-.917l-1.669-.871-2.293-1.22-.587-.33-.193-.119a.484.484,0,0,1,.22.083l.605.284,2.329,1.137,1.678.825c.624.293,1.321.559,2.054.871,1.476.587,3.127,1.366,5.053,1.953l2.953,1.073c1.045.349,2.164.6,3.3.917,2.265.679,4.75,1.11,7.337,1.632a87.177,87.177,0,0,0,34.317-.917c2.568-.66,5.035-1.22,7.263-2.018,1.119-.376,2.219-.679,3.237-1.082l2.935-1.165c1.889-.7,3.494-1.559,4.943-2.228.715-.348,1.394-.651,2-.917l1.632-.917,2.265-1.266.6-.312C273.663,393.668,273.736,393.641,273.736,393.65Z" transform="translate(-141.693 -122.269)" fill="#263238"/>
      <path id="Trazado_5669" data-name="Trazado 5669" d="M283.8,182a.973.973,0,0,1-.193.174l-.605.5c-.559.449-1.339,1.082-2.339,1.834-2.036,1.614-4.989,3.953-8.721,6.74a126.1,126.1,0,0,1-13.637,9.1,61.446,61.446,0,0,1-8.786,4.044,40.048,40.048,0,0,1-10.143,2.256,38.517,38.517,0,0,1-19.479-4.053,66.087,66.087,0,0,1-7.529-4.475c-2.238-1.577-4.283-3.109-6.089-4.585-3.668-2.916-6.475-5.383-8.455-7.071l-2.265-1.963-.578-.514-.193-.193s.083,0,.22.147l.614.486,2.32,1.889c2.018,1.651,4.9,4.072,8.547,6.951,1.834,1.44,3.861,2.953,6.108,4.512a66.943,66.943,0,0,0,7.493,4.4,38.379,38.379,0,0,0,19.259,3.971,39.765,39.765,0,0,0,10.024-2.219,61.509,61.509,0,0,0,8.731-3.989,131.882,131.882,0,0,0,13.655-8.9c3.742-2.751,6.722-5.044,8.8-6.612l2.394-1.834.633-.459A.825.825,0,0,1,283.8,182Z" transform="translate(-142.193 -104.718)" fill="#263238"/>
      <g id="Grupo_1809" data-name="Grupo 1809" transform="translate(58.898 276.053)" opacity="0.24">
        <path id="Trazado_5670" data-name="Trazado 5670" d="M201.66,401.776c4.347-3.356,10.455-2.549,15.829-1.412s10.785,2.962,16.223,2.2c4.1-.578,7.859-2.586,11.922-3.467s8.951-.229,11.2,3.246a87.122,87.122,0,0,1-55.144-.569" transform="translate(-201.66 -398.745)"/>
      </g>
    </g>
    <g id="freepik--Character--inject-422" transform="translate(253.223 223.9)">
      <path id="Trazado_5671" data-name="Trazado 5671" d="M359.777,368.876,340.06,346.765l-.2,26.879,5.943,17.241-59.078,10.244-2.5-46.615-4.255-35.766a9.721,9.721,0,0,1,6.089-10.189l16.26-6.419,22.927,4.2,9.217,3.5a25.3,25.3,0,0,1,10.033,6.979l27.732,31.712" transform="translate(-273.251 -245.583)" fill="#f83f00"/>
      <path id="Trazado_5672" data-name="Trazado 5672" d="M344,343.754a28.864,28.864,0,0,0,3.329-.238,13.509,13.509,0,0,0,11.106-10.235,30.658,30.658,0,0,0,.5-3.311,3.007,3.007,0,0,1,.083.917,11.178,11.178,0,0,1-.257,2.476,13.243,13.243,0,0,1-11.381,10.5,11.7,11.7,0,0,1-2.485.055A2.852,2.852,0,0,1,344,343.754Z" transform="translate(-278.567 -247.89)" fill="#fff"/>
      <path id="Trazado_5673" data-name="Trazado 5673" d="M345.827,375.1c.138,0,.174-9.317.083-20.8s-.284-20.79-.422-20.79-.174,9.308-.083,20.8S345.69,375.1,345.827,375.1Z" transform="translate(-278.679 -248.184)" fill="#263238"/>
      <path id="Trazado_5674" data-name="Trazado 5674" d="M337.634,379.907l-35.693-14.371a8.162,8.162,0,0,1-5.09-6.942l-2.614-34.225s.312-14.563-8.786-15.269l-5.145,2.036c-6.685,3.549-8.336,13.288-7.428,20.8,1.293,10.675,1.834,25.788,3.274,35.051,1.192,7.584,5.5,14.251,12.949,16.2l43.965,9.519Z" transform="translate(-272.65 -246.16)" fill="#f83f00"/>
      <path id="Trazado_5675" data-name="Trazado 5675" d="M296.75,331.44a4.435,4.435,0,0,1,.11.779c.055.559.138,1.311.229,2.256.183,2.008.44,4.833.752,8.3s.66,7.694,1.064,12.316c.092,1.165.193,2.348.293,3.558a27.655,27.655,0,0,0,.459,3.668,6.062,6.062,0,0,0,1.779,3.2,11.923,11.923,0,0,0,3.292,2.054c9.84,4.255,18.91,7.777,25.495,10.244l7.823,2.88,2.128.78a5.118,5.118,0,0,1,.724.3,4.4,4.4,0,0,1-.761-.211l-2.155-.7c-1.834-.624-4.585-1.55-7.868-2.751-6.63-2.384-15.71-5.851-25.586-10.088a12.481,12.481,0,0,1-3.421-2.146,6.539,6.539,0,0,1-1.908-3.448,26.744,26.744,0,0,1-.449-3.723c-.1-1.22-.193-2.4-.284-3.567-.358-4.585-.688-8.8-.917-12.326s-.459-6.3-.605-8.309c-.064-.917-.11-1.706-.138-2.265a4.669,4.669,0,0,1-.055-.807Z" transform="translate(-274.648 -248.012)" fill="#263238"/>
      <path id="Trazado_5676" data-name="Trazado 5676" d="M274.447,351.73a2.291,2.291,0,0,1,.064.459l.119,1.321c.11,1.22.248,2.861.422,4.861s.449,4.484.807,7.181a69.462,69.462,0,0,0,1.6,8.666,13.048,13.048,0,0,0,1.742,4.136,25.239,25.239,0,0,0,2.669,3.274,22.926,22.926,0,0,0,5.713,4.283,21.552,21.552,0,0,0,6.273,2.054,1.834,1.834,0,0,1-.468,0,10.3,10.3,0,0,1-1.321-.174,17.342,17.342,0,0,1-4.64-1.568,22.367,22.367,0,0,1-5.869-4.274,24.316,24.316,0,0,1-2.751-3.329,13.316,13.316,0,0,1-1.834-4.264,64.864,64.864,0,0,1-1.587-8.74c-.33-2.751-.55-5.154-.7-7.208s-.229-3.723-.275-4.879V352.2A1.477,1.477,0,0,1,274.447,351.73Z" transform="translate(-272.796 -249.695)" fill="#263238"/>
      <path id="Trazado_5677" data-name="Trazado 5677" d="M291.09,377.078a5.282,5.282,0,0,1,.651-1.9,12.307,12.307,0,0,1,7.245-6.19,5.182,5.182,0,0,1,1.981-.339q-.9.375-1.834.66a14.03,14.03,0,0,0-4.044,2.412,14.206,14.206,0,0,0-3.017,3.613C291.429,376.39,291.163,377.105,291.09,377.078Z" transform="translate(-274.179 -251.098)" fill="#263238"/>
      <path id="Trazado_5678" data-name="Trazado 5678" d="M298.75,346.262a.845.845,0,0,1,.22.1l.642.339a23.283,23.283,0,0,0,2.549,1.073,20.176,20.176,0,0,0,10.005.862,19.753,19.753,0,0,0,12.436-7.731,16.424,16.424,0,0,0,3.256-8.089,11,11,0,0,0-.477-4.585,9.355,9.355,0,0,0-2.568-3.934,7.877,7.877,0,0,0-4.191-2.036,5,5,0,0,0-4.2,1.183,2.751,2.751,0,0,0-.825,1.9,3.32,3.32,0,0,0,.7,1.963,5.356,5.356,0,0,0,3.668,1.9A14.7,14.7,0,0,0,335.983,318.9a15.967,15.967,0,0,0,.679-4.3,16.409,16.409,0,0,0-.2-2.751c-.055-.284-.1-.523-.128-.706a1.293,1.293,0,0,1,0-.248,11.6,11.6,0,0,1,.55,3.668,15.408,15.408,0,0,1-.605,4.374A15.1,15.1,0,0,1,319.925,329.6,5.768,5.768,0,0,1,316,327.544a3.751,3.751,0,0,1-.789-2.238,3.173,3.173,0,0,1,.917-2.228,5.5,5.5,0,0,1,4.585-1.321,8.254,8.254,0,0,1,4.448,2.155,9.666,9.666,0,0,1,2.7,4.136,11.464,11.464,0,0,1,.5,4.769,16.792,16.792,0,0,1-3.366,8.254,19.708,19.708,0,0,1-22.863,6.786,14.2,14.2,0,0,1-3.375-1.6Z" transform="translate(-274.814 -246.308)" fill="#fff"/>
      <path id="Trazado_5679" data-name="Trazado 5679" d="M273.25,339.03a2.926,2.926,0,0,1,.587-.734,13.182,13.182,0,0,1,1.926-1.678,16.2,16.2,0,0,1,7.9-2.8,15.262,15.262,0,0,1,4.659.193,14.176,14.176,0,0,1,3.586,1.266,16.51,16.51,0,0,1,2.183,1.321,3.082,3.082,0,0,1,.715.605c-.055.073-1.119-.734-3.045-1.623a14.949,14.949,0,0,0-8.043-1.284,16.929,16.929,0,0,0-7.758,2.6C274.185,338.077,273.314,339.095,273.25,339.03Z" transform="translate(-272.7 -248.202)" fill="#fff"/>
      <path id="Trazado_5680" data-name="Trazado 5680" d="M279.48,312.177a14.114,14.114,0,0,0,2.889,2.1,10.289,10.289,0,0,0,3.668,1.082,9.776,9.776,0,0,0,4.585-.642,9.629,9.629,0,0,0,3.668-2.751,10.545,10.545,0,0,0,1.834-3.366,14.673,14.673,0,0,0,.559-3.531,3.21,3.21,0,0,1,.119.972,8.931,8.931,0,0,1-.358,2.66,10.253,10.253,0,0,1-1.834,3.54,9.373,9.373,0,0,1-8.712,3.595,10.18,10.18,0,0,1-3.788-1.211,8.831,8.831,0,0,1-2.128-1.632,2.623,2.623,0,0,1-.5-.816Z" transform="translate(-273.216 -245.826)" fill="#fff"/>
      <path id="Trazado_5681" data-name="Trazado 5681" d="M313.4,372.962a3.406,3.406,0,0,1,.073-.679,7.285,7.285,0,0,1,.633-1.834,10.161,10.161,0,0,1,5.337-4.64,15.636,15.636,0,0,1,10.5-.376c1.889.559,4.053,1.256,5.5,3.1a3.292,3.292,0,0,1,.4,3.357,5.319,5.319,0,0,1-2.54,2.393,8.162,8.162,0,0,1-3.384.844,4.961,4.961,0,0,1-3.246-1.009,4.145,4.145,0,0,1-1.449-2.944,7.4,7.4,0,0,1,.486-3.091,13.885,13.885,0,0,1,7.337-7.447,14.49,14.49,0,0,1,7.025-1.211,9.986,9.986,0,0,1,2.568.541c0,.064-.917-.238-2.586-.358a14.673,14.673,0,0,0-10.895,4.008,12.841,12.841,0,0,0-3.072,4.585,6.942,6.942,0,0,0-.449,2.907,3.668,3.668,0,0,0,1.3,2.614,4.457,4.457,0,0,0,2.935.917,7.575,7.575,0,0,0,3.173-.789,4.9,4.9,0,0,0,2.329-2.173,2.852,2.852,0,0,0-.348-2.889,6.612,6.612,0,0,0-2.394-1.889,17.151,17.151,0,0,0-2.815-1.055,15.425,15.425,0,0,0-10.253.266,10.143,10.143,0,0,0-5.3,4.411,9.8,9.8,0,0,0-.871,2.439Z" transform="translate(-276.029 -250.329)" fill="#fff"/>
      <path id="Trazado_5682" data-name="Trazado 5682" d="M287.48,386.742c0-.092,1.357-.2,3.421-.917a17.1,17.1,0,0,0,10.95-12.142c.523-2.128.5-3.512.6-3.5a3.172,3.172,0,0,1,.046.963,13.911,13.911,0,0,1-.312,2.614,16.452,16.452,0,0,1-11.17,12.353,14.112,14.112,0,0,1-2.568.578,3.348,3.348,0,0,1-.963.055Z" transform="translate(-273.88 -251.225)" fill="#fff"/>
      <path id="Trazado_5683" data-name="Trazado 5683" d="M274.86,359.019a1.832,1.832,0,0,1,.431-.174c.293-.092.715-.22,1.275-.367a15.754,15.754,0,0,1,4.87-.5,10.234,10.234,0,0,1,3.3.816,7.658,7.658,0,0,1,3.081,2.421,6.328,6.328,0,0,1,1.2,4.163,5.118,5.118,0,0,1-.706,2.238,3.54,3.54,0,0,1-1.834,1.559,2.458,2.458,0,0,1-2.412-.477,3.219,3.219,0,0,1-.835-2.219,9.556,9.556,0,0,1,.844-4.246,9.308,9.308,0,0,1,10.088-5.42,7.479,7.479,0,0,1,1.293.321c.284.11.431.174.422.193a14.713,14.713,0,0,0-1.742-.33,9.648,9.648,0,0,0-4.7.605,9.015,9.015,0,0,0-4.925,4.805,9.263,9.263,0,0,0-.78,4.044,2.751,2.751,0,0,0,.7,1.908,1.99,1.99,0,0,0,1.935.367,3.118,3.118,0,0,0,1.614-1.357,4.732,4.732,0,0,0,.642-2.027,5.952,5.952,0,0,0-1.091-3.87,7.181,7.181,0,0,0-2.889-2.311,9.914,9.914,0,0,0-3.173-.844,16.582,16.582,0,0,0-4.787.339C275.493,358.89,274.878,359.056,274.86,359.019Z" transform="translate(-272.833 -250.106)" fill="#fff"/>
      <g id="Grupo_1810" data-name="Grupo 1810" transform="translate(23.266 93.607)" opacity="0.3">
        <path id="Trazado_5684" data-name="Trazado 5684" d="M329.476,378.6c-3.815-2.155-7.548-3.815-11.537-5.622s-7.905-4.145-10.519-7.667c-4.925-6.64-4.365-16.223-9.4-22.771q.5,6.6.981,13.215c.3,4.035-.312,8.034,2.284,10.776,2.192,2.311,6.465,4.081,9.492,5.081,6.08,2.008,12.628,4.989,18.7,6.988" transform="translate(-298.02 -342.54)"/>
      </g>
      <path id="Trazado_5685" data-name="Trazado 5685" d="M399.375,436.71s29.869,8.254,31.07,8.694c1.834.633,1.495,7.227-1.3,7.117-1.33-.046-22.927.807-25.678.642s-11-3.421-11-3.421Z" transform="translate(-282.585 -256.742)" fill="#f83f00"/>
      <path id="Trazado_5686" data-name="Trazado 5686" d="M413.53,448.6a26.3,26.3,0,0,1,1.321-3.21,26.765,26.765,0,0,1,2.109-2.751,6.6,6.6,0,0,0-3.43,5.952Z" transform="translate(-284.332 -257.234)" fill="#263238"/>
      <path id="Trazado_5687" data-name="Trazado 5687" d="M410.13,447.085c.147,0,.449-1.385,1.247-2.944s1.733-2.65,1.632-2.751a7.474,7.474,0,0,0-2.88,5.7Z" transform="translate(-284.05 -257.13)" fill="#263238"/>
      <path id="Trazado_5688" data-name="Trazado 5688" d="M406.986,446.212a19.916,19.916,0,0,1,.7-3.155,20.961,20.961,0,0,1,1.623-2.8,5.6,5.6,0,0,0-2.32,5.952Z" transform="translate(-283.777 -257.036)" fill="#263238"/>
      <path id="Trazado_5689" data-name="Trazado 5689" d="M407.318,441.913a5.329,5.329,0,0,0,.321-2.219,11.005,11.005,0,0,0-.3-2.439,9.713,9.713,0,0,0-.449-1.385,1.578,1.578,0,0,0-.477-.734.807.807,0,0,0-1.027.055,1.293,1.293,0,0,0-.394.844,4.6,4.6,0,0,0,0,.789,6.162,6.162,0,0,0,.183,1.458,8.9,8.9,0,0,0,.917,2.284,6.144,6.144,0,0,0,1.339,1.834c.073,0-.431-.743-1.027-1.963a9.759,9.759,0,0,1-.78-2.219,6.566,6.566,0,0,1-.147-1.366c0-.459,0-1.027.275-1.247a.293.293,0,0,1,.394,0,1.348,1.348,0,0,1,.33.523,11.818,11.818,0,0,1,.449,1.321,11.657,11.657,0,0,1,.394,2.329C407.373,441.06,407.235,441.9,407.318,441.913Z" transform="translate(-283.623 -256.598)" fill="#263238"/>
      <path id="Trazado_5690" data-name="Trazado 5690" d="M406.951,442.181a4.191,4.191,0,0,0-1.926-.312,8.851,8.851,0,0,0-2.118.257,5.141,5.141,0,0,0-1.229.449,1.266,1.266,0,0,0-.669,1.366,1.513,1.513,0,0,0,1.073,1.073,2.751,2.751,0,0,0,1.339,0,5.007,5.007,0,0,0,1.944-.917,5.191,5.191,0,0,0,1.385-1.366,14.672,14.672,0,0,0-1.587,1.073,5.264,5.264,0,0,1-1.834.8,2.275,2.275,0,0,1-1.11,0,1.009,1.009,0,0,1-.725-.706.78.78,0,0,1,.44-.835,4.419,4.419,0,0,1,1.082-.422,9.615,9.615,0,0,1,2.018-.348C406.2,442.144,406.932,442.263,406.951,442.181Z" transform="translate(-283.292 -257.169)" fill="#263238"/>
      <path id="Trazado_5691" data-name="Trazado 5691" d="M418.513,449.035a17.668,17.668,0,0,1,.6-2.7A16.309,16.309,0,0,1,420.567,444,4.3,4.3,0,0,0,418.513,449.035Z" transform="translate(-284.73 -257.346)" fill="#263238"/>
      <path id="Trazado_5692" data-name="Trazado 5692" d="M395.81,451a5.355,5.355,0,0,0,1.156.55,27.7,27.7,0,0,0,3.32,1.027,47.781,47.781,0,0,0,11.408,1.082c4.475-.055,8.51-.257,11.436-.376l3.457-.183a7.557,7.557,0,0,0,1.266-.128,6.053,6.053,0,0,0-1.275-.064H423.12l-11.427.22a53.47,53.47,0,0,1-11.326-.917C397.507,451.632,395.847,450.9,395.81,451Z" transform="translate(-282.863 -257.926)" fill="#263238"/>
      <path id="Trazado_5693" data-name="Trazado 5693" d="M394.85,451.515c0,.064.853-.413,2.238-1.018a10.344,10.344,0,0,1,5.649-.917,8.987,8.987,0,0,1,4.888,2.9,17.585,17.585,0,0,0,1.715,1.761,9.172,9.172,0,0,0-1.458-2,11.924,11.924,0,0,0-1.981-1.834,7.1,7.1,0,0,0-3.091-1.3,9.9,9.9,0,0,0-5.878,1.11A7.639,7.639,0,0,0,394.85,451.515Z" transform="translate(-282.783 -257.764)" fill="#263238"/>
      <path id="Trazado_5694" data-name="Trazado 5694" d="M362.692,427.72s-28.264,18.507-29.273,19.259c-1.522,1.146.22,6.621,2.861,5.677,1.247-.449,24.963-7.052,27.512-8.043s9.418-6.548,9.418-6.548Z" transform="translate(-277.642 -255.996)" fill="#f83f00"/>
      <path id="Trazado_5695" data-name="Trazado 5695" d="M355.781,443.261a6.612,6.612,0,0,0-5.081-4.631,25.984,25.984,0,0,1,2.852,1.981A27.747,27.747,0,0,1,355.781,443.261Z" transform="translate(-279.122 -256.901)" fill="#263238"/>
      <path id="Trazado_5696" data-name="Trazado 5696" d="M358.6,440.765a7.493,7.493,0,0,0-4.466-4.585c-.073.128,1.165.917,2.384,2.128S358.467,440.839,358.6,440.765Z" transform="translate(-279.406 -256.698)" fill="#263238"/>
      <path id="Trazado_5697" data-name="Trazado 5697" d="M361.42,438.953a5.568,5.568,0,0,0-3.98-4.943,21.763,21.763,0,0,1,2.394,2.173A20.1,20.1,0,0,1,361.42,438.953Z" transform="translate(-279.681 -256.518)" fill="#263238"/>
      <path id="Trazado_5698" data-name="Trazado 5698" d="M359.865,434.931c.073,0-.312-.8-.633-2.118a11.52,11.52,0,0,1-.339-2.339,10.309,10.309,0,0,1,0-1.394,1.147,1.147,0,0,1,.156-.6.284.284,0,0,1,.385-.092c.321.128.486.679.642,1.119a7.089,7.089,0,0,1,.275,1.339,9.757,9.757,0,0,1-.073,2.357c-.193,1.339-.459,2.155-.385,2.183a5.943,5.943,0,0,0,.734-2.128,8.75,8.75,0,0,0,.183-2.449,6.911,6.911,0,0,0-.266-1.449,6.081,6.081,0,0,0-.275-.743,1.32,1.32,0,0,0-.642-.688.8.8,0,0,0-.99.266,1.632,1.632,0,0,0-.229.844,10.288,10.288,0,0,0,.44,3.87,5.392,5.392,0,0,0,1.018,2.017Z" transform="translate(-279.759 -256.008)" fill="#263238"/>
      <path id="Trazado_5699" data-name="Trazado 5699" d="M359.89,435.128c0,.073.7-.257,1.834-.541a10.219,10.219,0,0,1,2.027-.275,4.473,4.473,0,0,1,1.165.073.8.8,0,0,1,.679.66,1.027,1.027,0,0,1-.486.917,2.321,2.321,0,0,1-1.046.348,5.071,5.071,0,0,1-1.99-.2,13.374,13.374,0,0,0-1.834-.541,5.226,5.226,0,0,0,1.742.917,5.026,5.026,0,0,0,2.137.321,2.66,2.66,0,0,0,1.275-.4,1.486,1.486,0,0,0,.706-1.339,1.265,1.265,0,0,0-1.055-1.1,4.907,4.907,0,0,0-1.3-.055,9.012,9.012,0,0,0-2.1.394,4.246,4.246,0,0,0-1.752.825Z" transform="translate(-279.884 -256.508)" fill="#263238"/>
      <path id="Trazado_5700" data-name="Trazado 5700" d="M340.24,453.169c0,.046.477-.284.7-1.091a4.237,4.237,0,0,0-.532-3.072,11.8,11.8,0,0,0-.917-1.412,5.5,5.5,0,0,0-.963-1.027,1.669,1.669,0,0,0-.917-.376c-.238,0-.358.046-.358.073a2.071,2.071,0,0,1,1.027.578,6.073,6.073,0,0,1,.816,1.027,16.164,16.164,0,0,1,.917,1.376,4.365,4.365,0,0,1,.624,2.751,10.247,10.247,0,0,1-.394,1.174Z" transform="translate(-278.007 -257.528)" fill="#263238"/>
      <path id="Trazado_5701" data-name="Trazado 5701" d="M351.265,445.154a3.457,3.457,0,0,0-1-2.705,3.4,3.4,0,0,0-2.485-1.458,16.1,16.1,0,0,1,2.1,1.779A16.37,16.37,0,0,1,351.265,445.154Z" transform="translate(-278.88 -257.097)" fill="#263238"/>
      <path id="Trazado_5702" data-name="Trazado 5702" d="M370.462,440.07a8.664,8.664,0,0,0-1.247.844,35.974,35.974,0,0,1-3.485,2.137,45.61,45.61,0,0,1-5.5,2.467c-2.146.8-4.585,1.55-7.08,2.284-5.09,1.467-9.694,2.806-13.013,3.806l-3.953,1.238a8.655,8.655,0,0,0-1.422.514,9.574,9.574,0,0,0,1.477-.321l3.971-1.11c3.347-.917,7.96-2.2,13.05-3.668,2.54-.743,4.952-1.513,7.1-2.339a42.024,42.024,0,0,0,5.548-2.586,27.964,27.964,0,0,0,3.43-2.293,8.969,8.969,0,0,0,1.128-.972Z" transform="translate(-277.8 -257.02)" fill="#263238"/>
      <path id="Trazado_5703" data-name="Trazado 5703" d="M373.658,440.407a8.144,8.144,0,0,0-2.394-.642,9.941,9.941,0,0,0-5.943.734,7.015,7.015,0,0,0-2.513,2.219,11.923,11.923,0,0,0-1.33,2.366,8.906,8.906,0,0,0-.78,2.348,18.527,18.527,0,0,0,1.1-2.2,8.978,8.978,0,0,1,3.778-4.255,10.373,10.373,0,0,1,5.668-.816C372.714,440.279,373.64,440.48,373.658,440.407Z" transform="translate(-279.951 -256.981)" fill="#263238"/>
      <path id="Trazado_5704" data-name="Trazado 5704" d="M422.168,378.373s8.483,3.026,8.51,12.536c.073,18.2-36.793,38.279-36.793,38.279l-49.064-32.5-3.072-1.247S408.009,370.569,422.168,378.373Z" transform="translate(-278.38 -251.778)" fill="#263238"/>
      <path id="Trazado_5705" data-name="Trazado 5705" d="M372.2,414.071a9.07,9.07,0,0,0,1.284-.862c.8-.587,1.944-1.449,3.347-2.54,2.815-2.164,6.63-5.246,10.748-8.776s7.731-6.841,10.3-9.29c1.284-1.22,2.311-2.228,3.017-2.935a8.651,8.651,0,0,0,1.046-1.128,8.96,8.96,0,0,0-1.183.99l-3.118,2.815c-2.632,2.375-6.282,5.649-10.39,9.171s-7.887,6.64-10.629,8.877l-3.256,2.66a9.708,9.708,0,0,0-1.165,1.018Z" transform="translate(-280.905 -252.747)" fill="#455a64"/>
      <path id="Trazado_5706" data-name="Trazado 5706" d="M413.532,385.924a12.188,12.188,0,0,0-8.932,2.632c.083.138,1.834-1.009,4.347-1.724S413.532,386.08,413.532,385.924Z" transform="translate(-283.592 -252.525)" fill="#455a64"/>
      <path id="Trazado_5707" data-name="Trazado 5707" d="M409.329,382.8a7.5,7.5,0,0,0-4.439,5.5,34.857,34.857,0,0,1,1.917-2.99C408.045,383.8,409.411,382.928,409.329,382.8Z" transform="translate(-283.616 -252.271)" fill="#455a64"/>
      <path id="Trazado_5708" data-name="Trazado 5708" d="M432.132,445.675c0-.055-.587-.174-1.266.385a4.512,4.512,0,0,0-1.412,2.843,5.585,5.585,0,0,0,.44,3.146c.349.743.734,1.091.78,1.055a8.854,8.854,0,0,0-.449-1.192,6.337,6.337,0,0,1-.275-2.935,4.915,4.915,0,0,1,1.156-2.66C431.628,445.776,432.141,445.758,432.132,445.675Z" transform="translate(-285.648 -257.481)" fill="#263238"/>
      <path id="Trazado_5709" data-name="Trazado 5709" d="M408.622,346.06l-17.47,44.295-75.228,1.229-1.394-4.072,26.366-.954,12.674-39.3Z" transform="translate(-276.123 -249.225)" fill="#455a64"/>
      <path id="Trazado_5710" data-name="Trazado 5710" d="M378.69,366.968a3.356,3.356,0,0,1,3.622.394,2.907,2.907,0,0,1,.706,3.2,3.164,3.164,0,0,1-2.751,1.9,2.861,2.861,0,0,1-2.88-1.9,3.237,3.237,0,0,1,1.266-3.595" transform="translate(-281.324 -250.929)" fill="#ebebeb"/>
      <path id="Trazado_5711" data-name="Trazado 5711" d="M393.91,431.781s-69.313-45.469-72.137-46.413-9.7-5.438-16.553-3.549-13.013,8.043-16.086,17.03c-1.761,5.136-2.586,13.894-2.98,20.469a30.4,30.4,0,0,0,7.107,21.643A19.341,19.341,0,0,0,301.9,447.1c.724.229,1.476.422,2.247.587a32.576,32.576,0,0,0,33.932-14.251l1.614-2.458s45.349,16.654,46.056,16.425Z" transform="translate(-273.764 -252.152)" fill="#263238"/>
      <path id="Trazado_5712" data-name="Trazado 5712" d="M310.16,419.536a3.872,3.872,0,0,0,.376.165l1.137.449,4.393,1.7L332.4,428c6.933,2.586,15.242,5.668,24.568,9.061s19.653,7.107,30.695,10.84l.193.073.1-.193,5.42-10.345,2.751-5.273.1-.2-.193-.119-52.869-33.565-15.884-10.014-4.31-2.7-1.128-.688c-.257-.156-.394-.22-.394-.22l.367.266,1.1.724,4.264,2.751,15.847,10.17,52.787,33.693-.092-.33c-.871,1.678-1.834,3.467-2.751,5.273l-5.411,10.345.3-.119c-11-3.723-21.368-7.428-30.7-10.794l-24.605-8.951-16.425-6.034-4.42-1.614-1.156-.4Z" transform="translate(-275.76 -252.426)" fill="#455a64"/>
      <path id="Trazado_5713" data-name="Trazado 5713" d="M316.857,246.128c1.183-3.2,3.8-4.585,7.107-5.383a10.62,10.62,0,0,1,9.51,2.449c1.678,1.532,2.907,3.668,4.98,4.585,3.421,1.55,7.8-.715,11,1.183a4.842,4.842,0,0,1-3.118,8.969c2.228,1.045,2.641,4.4,1.11,6.328a6.455,6.455,0,0,1-6.741,1.779A13.609,13.609,0,0,1,334.7,261.9c-1.669-1.834-3.136-3.806-4.952-5.5a10.537,10.537,0,0,0-6.53-3.1c-3.329-.128-6.42,2.118-8.153,4.952s-2.4,6.2-2.889,9.5-.853,6.658-2.128,9.739c-.147.367-.367.761-.743.844-.559.119-.963-.5-1.183-1.018A48.851,48.851,0,0,1,304.22,258.7c-.046-3.668.376-7.181,2.678-10.088s7.612-4.714,9.932-2.531" transform="translate(-275.268 -240.468)" fill="#263238"/>
      <path id="Trazado_5714" data-name="Trazado 5714" d="M309.01,261.317l-5.1,37.032A11.124,11.124,0,0,0,314,310.94h0a11.133,11.133,0,0,0,12-9.583c.376-2.751.7-5.108.761-5.392,0,0,9.547.413,11.509-8.822.917-4.466,2.155-13.82,3.155-22.294a17.589,17.589,0,0,0-14.031-19.259l-.917-.174C316.7,244.021,310.1,251.541,309.01,261.317Z" transform="translate(-275.234 -240.865)" fill="#ffbe9d"/>
      <path id="Trazado_5715" data-name="Trazado 5715" d="M327.791,299.878A22.01,22.01,0,0,1,316.41,294s1.522,7.227,10.922,8.254Z" transform="translate(-276.279 -244.908)" fill="#eb996e"/>
      <path id="Trazado_5716" data-name="Trazado 5716" d="M340.228,272.666a1.339,1.339,0,0,1-1.541,1.073,1.275,1.275,0,0,1-1.119-1.458,1.339,1.339,0,0,1,1.541-1.082,1.284,1.284,0,0,1,1.119,1.467Z" transform="translate(-278.032 -243.015)" fill="#263238"/>
      <path id="Trazado_5717" data-name="Trazado 5717" d="M341.134,270.959c-.2.147-1.055-.8-2.476-1.082s-2.614.229-2.751,0,.174-.367.7-.605a3.6,3.6,0,0,1,2.219-.229,3.513,3.513,0,0,1,1.926,1.073C341.144,270.556,341.226,270.9,341.134,270.959Z" transform="translate(-277.893 -242.831)" fill="#263238"/>
      <path id="Trazado_5718" data-name="Trazado 5718" d="M324.908,270.146a1.339,1.339,0,0,1-1.541,1.082,1.3,1.3,0,0,1-1.128-1.467,1.366,1.366,0,0,1,1.541-1.082,1.293,1.293,0,0,1,1.128,1.467Z" transform="translate(-276.761 -242.807)" fill="#263238"/>
      <path id="Trazado_5719" data-name="Trazado 5719" d="M325.824,268.209c-.2.138-1.055-.807-2.476-1.091s-2.614.229-2.751,0,.174-.367.7-.605a3.7,3.7,0,0,1,4.154.844C325.834,267.851,325.916,268.145,325.824,268.209Z" transform="translate(-276.623 -242.603)" fill="#263238"/>
      <path id="Trazado_5720" data-name="Trazado 5720" d="M329.63,279.916a9.218,9.218,0,0,1,2.394.046c.376,0,.734,0,.844-.211a1.834,1.834,0,0,0,0-1.119c-.165-.917-.339-1.944-.523-2.99-.706-4.237-1.137-7.685-.972-7.713s.917,3.384,1.587,7.621c.165,1.045.33,2.036.477,2.99a2.109,2.109,0,0,1-.1,1.467.917.917,0,0,1-.7.4,2.256,2.256,0,0,1-.633,0,9.739,9.739,0,0,1-2.375-.5Z" transform="translate(-277.375 -242.746)" fill="#263238"/>
      <path id="Trazado_5721" data-name="Trazado 5721" d="M324.811,281.18c.238,0-.073,1.577,1.027,2.935s2.751,1.522,2.751,1.742-.422.22-1.119.1a3.953,3.953,0,0,1-2.32-1.357,3.439,3.439,0,0,1-.761-2.449C324.462,281.492,324.71,281.143,324.811,281.18Z" transform="translate(-276.939 -243.844)" fill="#263238"/>
      <path id="Trazado_5722" data-name="Trazado 5722" d="M327.311,262.224c-.211.367-1.6-.1-3.311-.238s-3.146.055-3.3-.339c-.064-.183.248-.5.862-.761a5.594,5.594,0,0,1,2.568-.367,5.5,5.5,0,0,1,2.476.807C327.165,261.692,327.394,262.059,327.311,262.224Z" transform="translate(-276.634 -242.129)" fill="#263238"/>
      <path id="Trazado_5723" data-name="Trazado 5723" d="M341.5,266.355c-.312.275-1.22-.257-2.4-.514s-2.219-.211-2.375-.6c-.073-.183.147-.477.651-.7a3.4,3.4,0,0,1,2.063-.138,3.311,3.311,0,0,1,1.788,1.036C341.561,265.86,341.643,266.218,341.5,266.355Z" transform="translate(-277.962 -242.446)" fill="#263238"/>
      <path id="Trazado_5724" data-name="Trazado 5724" d="M308.162,270.336c-.147-.1-5.988-3.155-7.052,3.219s5.557,6.126,5.594,5.943S308.162,270.336,308.162,270.336Z" transform="translate(-275 -242.877)" fill="#ffbe9d"/>
      <path id="Trazado_5725" data-name="Trazado 5725" d="M305.309,276.933a1.663,1.663,0,0,1-.321.119,1.146,1.146,0,0,1-.835-.119,2.751,2.751,0,0,1-.862-2.678,3.669,3.669,0,0,1,.578-1.541,1.311,1.311,0,0,1,.945-.743.578.578,0,0,1,.605.422.535.535,0,0,1,0,.321c0,.009.156-.083.147-.348a.724.724,0,0,0-.183-.44.807.807,0,0,0-.587-.266,1.577,1.577,0,0,0-1.321.789,3.87,3.87,0,0,0-.688,1.715,2.9,2.9,0,0,0,1.165,3.017,1.2,1.2,0,0,0,1.045,0C305.272,277.089,305.327,276.952,305.309,276.933Z" transform="translate(-275.146 -243.055)" fill="#eb996e"/>
      <path id="Trazado_5726" data-name="Trazado 5726" d="M344.055,263.241a13.646,13.646,0,0,1-11.344-5.044c-1.834-2.366-3.054-5.457-5.7-6.887a7.694,7.694,0,0,0-5.915-.367,14.939,14.939,0,0,0-5.154,3.136c.844,5.062-1.4,10.088-3.595,14.673a2.559,2.559,0,0,1-1.036,1.311c-.862.431-1.889-.248-2.412-1.064a8,8,0,0,1-.917-4.466,26.7,26.7,0,0,1,2.109-10.253,18.094,18.094,0,0,1,6.667-7.979,17.14,17.14,0,0,1,12.665-2.1,21.093,21.093,0,0,1,11.106,6.667,12.389,12.389,0,0,1,3,5.255" transform="translate(-275.577 -240.744)" fill="#263238"/>
    </g>
    <g id="freepik--Plant--inject-422" transform="translate(38.379 240.794)">
      <path id="Trazado_5727" data-name="Trazado 5727" d="M66.062,413.839a1.833,1.833,0,0,1,.165-.385l.514-1.11a28.337,28.337,0,0,0,1.532-4.439,39.135,39.135,0,0,0-.138-17.122,90.852,90.852,0,0,0-3.173-11.509c-1.348-4.081-2.907-8.41-4.182-13.1a50.788,50.788,0,0,1-2.063-15.058c.193-5.328,1.77-10.647,3.5-15.939s3.522-10.482,4.053-15.691A23.844,23.844,0,0,0,63.4,305c-2.3-4.237-5.181-7.85-7.337-11.6a40.351,40.351,0,0,1-4.42-11.142,41.589,41.589,0,0,1-.275-17.269,32.639,32.639,0,0,1,1.834-6.1,2.429,2.429,0,0,1-.1.413l-.367,1.165a41.222,41.222,0,0,0-.669,21.7,39.837,39.837,0,0,0,4.429,11c2.155,3.668,5.053,7.337,7.392,11.583a24.431,24.431,0,0,1,2.925,14.765c-.541,5.3-2.348,10.519-4.072,15.81s-3.292,10.546-3.485,15.783a50.439,50.439,0,0,0,2.008,14.912c1.256,4.659,2.806,8.987,4.127,13.087a90.221,90.221,0,0,1,3.127,11.573,39.454,39.454,0,0,1,0,17.25,25.183,25.183,0,0,1-1.632,4.429c-.238.459-.431.816-.569,1.091a2.4,2.4,0,0,1-.257.385Z" transform="translate(-39.393 -258.89)" fill="#263238"/>
      <path id="Trazado_5728" data-name="Trazado 5728" d="M59.64,298.524s-4.393-14.031,3.485-22.248a.486.486,0,0,1,.835.238C64.381,278.834,64.9,285.9,59.64,298.524Z" transform="translate(-40.041 -260.319)" fill="#f83f00"/>
      <path id="Trazado_5729" data-name="Trazado 5729" d="M62.368,281.39a13.1,13.1,0,0,1-.3,2.586c-.284,1.834-.624,3.879-1,6.19s-.7,4.411-.981,6.19a13.755,13.755,0,0,1-.468,2.568,11.253,11.253,0,0,1,.083-2.614c.147-1.6.431-3.806.825-6.227s.816-4.585,1.165-6.172a11.371,11.371,0,0,1,.679-2.522Z" transform="translate(-40.137 -260.756)" fill="#263238"/>
      <path id="Trazado_5730" data-name="Trazado 5730" d="M65.37,335.018S68.057,320.556,78.86,317a.486.486,0,0,1,.624.605C78.787,319.822,75.935,326.315,65.37,335.018Z" transform="translate(-40.618 -263.706)" fill="#f83f00"/>
      <path id="Trazado_5731" data-name="Trazado 5731" d="M75.906,321.05a13.07,13.07,0,0,1-1.476,2.146c-1.082,1.449-2.366,3.136-3.778,5.007l-3.8,5.016a14.147,14.147,0,0,1-1.614,2.045,11.234,11.234,0,0,1,1.293-2.274c.917-1.348,2.155-3.164,3.668-5.117s2.88-3.668,3.916-4.916A11.335,11.335,0,0,1,75.906,321.05Z" transform="translate(-40.607 -264.045)" fill="#263238"/>
      <path id="Trazado_5732" data-name="Trazado 5732" d="M62.18,374.276s-1.632-14.618,7.667-21.184a.486.486,0,0,1,.77.4C70.59,355.843,69.755,362.877,62.18,374.276Z" transform="translate(-40.344 -266.694)" fill="#f83f00"/>
      <path id="Trazado_5733" data-name="Trazado 5733" d="M68.117,357.93a12.344,12.344,0,0,1-.789,2.485c-.624,1.7-1.348,3.668-2.164,5.888l-2.137,5.888a13.573,13.573,0,0,1-.917,2.43,11.739,11.739,0,0,1,.578-2.549c.449-1.55,1.146-3.668,2-5.961s1.687-4.356,2.32-5.833a11.473,11.473,0,0,1,1.11-2.348Z" transform="translate(-40.347 -267.103)" fill="#263238"/>
      <path id="Trazado_5734" data-name="Trazado 5734" d="M71.056,414.1s-1.11-14.673,8.419-20.891a.486.486,0,0,1,.761.422C80.117,395.973,79.035,402.97,71.056,414.1Z" transform="translate(-41.086 -270.022)" fill="#f83f00"/>
      <path id="Trazado_5735" data-name="Trazado 5735" d="M77.585,398a12.7,12.7,0,0,1-.917,2.458c-.688,1.669-1.486,3.668-2.375,5.8l-2.357,5.814A13.988,13.988,0,0,1,71,414.416a11.105,11.105,0,0,1,.669-2.522c.5-1.532,1.275-3.613,2.21-5.878s1.834-4.3,2.522-5.75A11.629,11.629,0,0,1,77.585,398Z" transform="translate(-41.085 -270.426)" fill="#263238"/>
      <path id="Trazado_5736" data-name="Trazado 5736" d="M51.668,285.42s-13.032-6.8-13.288-18.186a.486.486,0,0,1,.761-.422C41.076,268.151,46.441,272.764,51.668,285.42Z" transform="translate(-38.379 -259.54)" fill="#f83f00"/>
      <path id="Trazado_5737" data-name="Trazado 5737" d="M41.33,271.54a12.748,12.748,0,0,1,1.623,2.036l3.668,5.081,3.668,5.071a14.369,14.369,0,0,1,1.486,2.137,10.391,10.391,0,0,1-1.834-1.9c-1.036-1.229-2.4-2.99-3.833-4.98s-2.678-3.833-3.549-5.191A11.261,11.261,0,0,1,41.33,271.54Z" transform="translate(-38.624 -259.939)" fill="#263238"/>
      <path id="Trazado_5738" data-name="Trazado 5738" d="M66.83,318.384s-13.417-6-14.371-17.342a.486.486,0,0,1,.734-.459C55.211,301.767,60.851,306.05,66.83,318.384Z" transform="translate(-39.547 -262.342)" fill="#f83f00"/>
      <path id="Trazado_5739" data-name="Trazado 5739" d="M55.67,305.14a13.043,13.043,0,0,1,1.742,1.935l3.98,4.851,3.989,4.833a13.3,13.3,0,0,1,1.6,2.008,11.809,11.809,0,0,1-1.9-1.834c-1.11-1.174-2.577-2.843-4.127-4.741s-2.907-3.668-3.852-4.961A11.207,11.207,0,0,1,55.67,305.14Z" transform="translate(-39.813 -262.725)" fill="#263238"/>
      <path id="Trazado_5740" data-name="Trazado 5740" d="M59.163,354.622s-9.217-11.463-4.888-22.01a.486.486,0,0,1,.862-.083C56.376,334.556,59.429,340.93,59.163,354.622Z" transform="translate(-39.602 -264.978)" fill="#f83f00"/>
      <path id="Trazado_5741" data-name="Trazado 5741" d="M55.37,337.75a12.71,12.71,0,0,1,.669,2.513c.385,1.77.835,3.843,1.339,6.135s.917,4.356,1.348,6.117a14.371,14.371,0,0,1,.5,2.559,10.5,10.5,0,0,1-.917-2.458c-.459-1.55-1-3.668-1.513-6.108s-.917-4.585-1.174-6.163A11.923,11.923,0,0,1,55.37,337.75Z" transform="translate(-39.788 -265.43)" fill="#263238"/>
      <path id="Trazado_5742" data-name="Trazado 5742" d="M68.4,398.143s-13.325-6.218-14.077-17.59a.486.486,0,0,1,.734-.449C57.053,381.36,62.619,385.735,68.4,398.143Z" transform="translate(-39.701 -268.936)" fill="#f83f00"/>
      <path id="Trazado_5743" data-name="Trazado 5743" d="M57.45,384.73a12.842,12.842,0,0,1,1.715,1.963c1.119,1.421,2.439,3.081,3.9,4.915l3.907,4.906a14.381,14.381,0,0,1,1.577,2.073,10.883,10.883,0,0,1-1.834-1.834c-1.082-1.183-2.522-2.88-4.035-4.805s-2.889-3.705-3.806-5.016a12.233,12.233,0,0,1-1.421-2.2Z" transform="translate(-39.961 -269.325)" fill="#263238"/>
      <path id="Trazado_5744" data-name="Trazado 5744" d="M96.3,336.73a1.421,1.421,0,0,1,0,.33v.917c0,.917-.092,2.082-.156,3.567-.174,3.136-.413,7.5-.7,12.738h0c-.917,5.319-3.668,11.216-7.337,16.938-2.669,4.219-5.5,8.061-7.878,11.629a82.129,82.129,0,0,0-5.915,9.767,41,41,0,0,0-2.751,7.172c-.238.871-.413,1.559-.514,2.027a3.667,3.667,0,0,1-.193.706,3.6,3.6,0,0,1,.083-.725c.064-.477.211-1.174.413-2.063a38.261,38.261,0,0,1,2.623-7.337,78.759,78.759,0,0,1,5.842-9.877c2.394-3.595,5.181-7.437,7.841-11.628,3.668-5.7,6.309-11.509,7.337-16.746h0c.367-5.218.669-9.583.917-12.72.119-1.486.22-2.678.284-3.558a6.794,6.794,0,0,1,.1-.917A1.028,1.028,0,0,1,96.3,336.73Z" transform="translate(-41.073 -265.345)" fill="#263238"/>
      <path id="Trazado_5745" data-name="Trazado 5745" d="M89.73,371.15s5.64-13.582-1.458-22.478a.486.486,0,0,0-.853.165C86.749,351.112,85.585,358.128,89.73,371.15Z" transform="translate(-42.39 -266.32)" fill="#f83f00"/>
      <path id="Trazado_5746" data-name="Trazado 5746" d="M88.827,353.86a11.922,11.922,0,0,1,.449,2.568c.2,1.6.422,3.806.6,6.254s.257,4.668.257,6.273a10.5,10.5,0,0,1-.156,2.6,13.491,13.491,0,0,1-.229-2.586c-.119-1.834-.266-3.916-.422-6.254s-.312-4.457-.431-6.254A13.242,13.242,0,0,1,88.827,353.86Z" transform="translate(-42.56 -266.765)" fill="#263238"/>
      <g id="Grupo_1811" data-name="Grupo 1811" transform="translate(44.352 82.164)" opacity="0.3">
        <path id="Trazado_5747" data-name="Trazado 5747" d="M89.73,371.15s5.64-13.582-1.458-22.478a.486.486,0,0,0-.853.165C86.749,351.112,85.585,358.128,89.73,371.15Z" transform="translate(-86.742 -348.484)"/>
      </g>
      <path id="Trazado_5748" data-name="Trazado 5748" d="M70.5,406.851s4.521-13.985-3.274-22.276a.486.486,0,0,0-.835.229C65.945,387.116,65.358,394.168,70.5,406.851Z" transform="translate(-40.679 -269.299)" fill="#f83f00"/>
      <path id="Trazado_5749" data-name="Trazado 5749" d="M68.21,389.69a11.61,11.61,0,0,1,.651,2.531c.33,1.568.734,3.751,1.11,6.181s.633,4.631.761,6.236a10.748,10.748,0,0,1,.055,2.614,14.526,14.526,0,0,1-.44-2.568c-.266-1.834-.578-3.879-.917-6.2s-.669-4.411-.917-6.2a13.279,13.279,0,0,1-.3-2.6Z" transform="translate(-40.853 -269.737)" fill="#263238"/>
      <g id="Grupo_1812" data-name="Grupo 1812" transform="translate(25.432 115.118)" opacity="0.3">
        <path id="Trazado_5750" data-name="Trazado 5750" d="M70.5,406.851s4.521-13.985-3.274-22.276a.486.486,0,0,0-.835.229C65.945,387.116,65.358,394.168,70.5,406.851Z" transform="translate(-66.111 -384.418)"/>
      </g>
      <path id="Trazado_5751" data-name="Trazado 5751" d="M97.78,353.284s12.05-8.437,10.831-19.754a.486.486,0,0,0-.807-.321C106.061,334.841,101.329,340.059,97.78,353.284Z" transform="translate(-43.305 -265.043)" fill="#f83f00"/>
      <g id="Grupo_1813" data-name="Grupo 1813" transform="translate(54.475 68.043)" opacity="0.3">
        <path id="Trazado_5752" data-name="Trazado 5752" d="M97.78,353.284s12.05-8.437,10.831-19.754a.486.486,0,0,0-.807-.321C106.061,334.841,101.329,340.059,97.78,353.284Z" transform="translate(-97.78 -333.086)"/>
      </g>
      <path id="Trazado_5753" data-name="Trazado 5753" d="M106.448,338.18a11.776,11.776,0,0,1-1,2.4c-.688,1.458-1.687,3.439-2.852,5.6s-2.284,4.081-3.155,5.438a10.025,10.025,0,0,1-1.532,2.109,14.6,14.6,0,0,1,1.2-2.311l3-5.5,2.99-5.5A12.685,12.685,0,0,1,106.448,338.18Z" transform="translate(-43.316 -265.465)" fill="#263238"/>
      <path id="Trazado_5754" data-name="Trazado 5754" d="M76.19,392.529s14.5-2.265,18.424-12.958a.486.486,0,0,0-.587-.642C91.762,379.57,85.187,382.221,76.19,392.529Z" transform="translate(-41.515 -268.843)" fill="#f83f00"/>
      <g id="Grupo_1814" data-name="Grupo 1814" transform="translate(34.675 110.067)" opacity="0.3">
        <path id="Trazado_5755" data-name="Trazado 5755" d="M76.19,392.529s14.5-2.265,18.424-12.958a.486.486,0,0,0-.587-.642C91.762,379.57,85.187,382.221,76.19,392.529Z" transform="translate(-76.19 -378.91)"/>
      </g>
      <path id="Trazado_5756" data-name="Trazado 5756" d="M90.809,382.72a12.288,12.288,0,0,1-1.944,1.715c-1.256,1.009-3.026,2.348-5.026,3.769s-3.852,2.66-5.218,3.5a10.849,10.849,0,0,1-2.311,1.22,14.337,14.337,0,0,1,2.091-1.55l5.126-3.613,5.108-3.668a12.4,12.4,0,0,1,2.173-1.376Z" transform="translate(-41.525 -269.159)" fill="#263238"/>
      <path id="Trazado_5757" data-name="Trazado 5757" d="M60.7,422.92,56.46,451.441H82.872l-3.43-28.521Z" transform="translate(-39.879 -272.492)" fill="#455a64"/>
      <path id="Trazado_5758" data-name="Trazado 5758" d="M80.754,432.522A102.05,102.05,0,0,1,70.1,432.8a101.816,101.816,0,0,1-10.647-.275,105.073,105.073,0,0,1,10.647-.275A105.2,105.2,0,0,1,80.754,432.522Z" transform="translate(-40.127 -273.263)" fill="#263238"/>
      <path id="Trazado_5759" data-name="Trazado 5759" d="M81.26,434.975c0,.147-4.925.275-11,.275s-11-.128-11-.275,4.925-.275,11-.275S81.26,434.847,81.26,434.975Z" transform="translate(-40.11 -273.469)" fill="#263238"/>
    </g>
  </g>
</svg>
